M48
; DRILL file {KiCad (5.1.0-0)} date Monday, May 13, 2019 at 03:46:57 PM
; FORMAT={-:-/ absolute / inch / decimal}
; #@! TF.CreationDate,2019-05-13T15:46:57-05:00
; #@! TF.GenerationSoftware,Kicad,Pcbnew,(5.1.0-0)
FMAT,2
INCH
T1C0.0402
T2C0.1260
%
G90
G05
T1
X5.6875Y-5.5507
X5.7875Y-5.5507
X5.8875Y-5.5507
X6.4749Y-5.5507
X6.5749Y-5.5507
X6.6749Y-5.5507
X4.9001Y-5.0389
X5.0001Y-5.0389
X5.1001Y-5.0389
X3.3253Y-5.5507
X3.4253Y-5.5507
X3.5253Y-5.5507
X4.1127Y-5.5507
X4.2127Y-5.5507
X4.3127Y-5.5507
X4.1127Y-3.5035
X4.2127Y-3.5035
X4.3127Y-3.5035
X6.4749Y-6.5744
X6.5749Y-6.5744
X6.6749Y-6.5744
X5.6875Y-6.5744
X5.7875Y-6.5744
X5.8875Y-6.5744
X4.9001Y-3.5035
X5.0001Y-3.5035
X5.1001Y-3.5035
X5.6875Y-3.5035
X5.7875Y-3.5035
X5.8875Y-3.5035
X4.9001Y-6.5744
X5.0001Y-6.5744
X5.1001Y-6.5744
X6.4749Y-5.0389
X6.5749Y-5.0389
X6.6749Y-5.0389
X6.4749Y-3.5035
X6.5749Y-3.5035
X6.6749Y-3.5035
X3.3253Y-3.5035
X3.4253Y-3.5035
X3.5253Y-3.5035
X3.3253Y-4.0153
X3.4253Y-4.0153
X3.5253Y-4.0153
X4.1127Y-4.0153
X4.2127Y-4.0153
X4.3127Y-4.0153
X4.9001Y-5.5507
X3.3253Y-6.0626
X3.4253Y-6.0626
X3.5253Y-6.0626
X4.9001Y-4.0153
X5.0001Y-4.0153
X5.1001Y-4.0153
X5.6875Y-4.0153
X5.7875Y-4.0153
X5.8875Y-4.0153
X4.9001Y-6.0626
X5.0001Y-6.0626
X5.1001Y-6.0626
X6.4749Y-4.0153
X6.5749Y-4.0153
X6.6749Y-4.0153
X3.3253Y-4.5271
X3.4253Y-4.5271
X3.5253Y-4.5271
X4.1127Y-4.5271
X4.2127Y-4.5271
X4.3127Y-4.5271
X4.9001Y-4.5271
X5.0001Y-4.5271
X5.1001Y-4.5271
X5.6875Y-4.5271
X5.7875Y-4.5271
X5.8875Y-4.5271
X6.4749Y-4.5271
X6.5749Y-4.5271
X6.6749Y-4.5271
X5.0001Y-5.5507
X5.1001Y-5.5507
X5.6875Y-6.0626
X5.7875Y-6.0626
X5.8875Y-6.0626
X3.3253Y-5.0389
X4.1127Y-6.0626
X4.2127Y-6.0626
X4.3127Y-6.0626
X6.4749Y-6.0626
X6.5749Y-6.0626
X6.6749Y-6.0626
X3.3253Y-6.5744
X3.4253Y-6.5744
X3.5253Y-6.5744
X3.4253Y-5.0389
X3.5253Y-5.0389
X4.1127Y-5.0389
X4.2127Y-5.0389
X4.3127Y-5.0389
X5.6875Y-5.0389
X5.7875Y-5.0389
X5.8875Y-5.0389
X4.1127Y-6.5744
X4.2127Y-6.5744
X4.3127Y-6.5744
T2
X6.811Y-3.3071
X4.4488Y-4.8425
X4.7638Y-3.3071
X6.811Y-4.8425
X5.2362Y-3.3071
X3.9764Y-4.8425
X3.9764Y-6.378
X5.5512Y-3.3071
X3.6614Y-5.3543
X4.7638Y-5.3543
X6.0236Y-4.8425
X3.9764Y-4.3307
X6.811Y-5.8661
X4.4488Y-5.3543
X3.9764Y-5.8661
X6.811Y-4.3307
X4.4488Y-4.3307
X6.0236Y-4.3307
X4.7638Y-4.8425
X4.7638Y-5.8661
X3.6614Y-4.8425
X3.189Y-5.8661
X5.2362Y-5.8661
X4.4488Y-3.8189
X3.9764Y-3.8189
X4.7638Y-4.3307
X5.5512Y-4.8425
X5.2362Y-4.8425
X4.7638Y-3.8189
X5.5512Y-4.3307
X5.2362Y-6.378
X6.3386Y-5.8661
X6.0236Y-6.378
X4.7638Y-6.378
X5.5512Y-6.378
X3.189Y-6.378
X4.4488Y-6.378
X6.3386Y-5.3543
X3.189Y-3.3071
X6.0236Y-5.3543
X5.5512Y-5.8661
X6.3386Y-4.8425
X6.3386Y-6.378
X6.811Y-6.378
X3.6614Y-3.8189
X6.3386Y-4.3307
X3.6614Y-4.3307
X3.189Y-5.3543
X6.811Y-3.8189
X6.0236Y-3.3071
X5.2362Y-5.3543
X3.189Y-4.8425
X3.9764Y-5.3543
X3.6614Y-6.378
X5.5512Y-3.8189
X6.3386Y-3.8189
X3.6614Y-5.8661
X6.3386Y-3.3071
X4.4488Y-5.8661
X3.189Y-3.8189
X4.4488Y-3.3071
X6.0236Y-5.8661
X5.5512Y-5.3543
X3.6614Y-3.3071
X5.2362Y-4.3307
X3.189Y-4.3307
X3.9764Y-3.3071
X6.0236Y-3.8189
X5.2362Y-3.8189
X6.811Y-5.3543
T0
M30
