G04 #@! TF.GenerationSoftware,KiCad,Pcbnew,(5.1.0-0)*
G04 #@! TF.CreationDate,2019-05-13T15:47:01-05:00*
G04 #@! TF.ProjectId,splitflap-hall-pcb,73706c69-7466-46c6-9170-2d68616c6c2d,rev?*
G04 #@! TF.SameCoordinates,Original*
G04 #@! TF.FileFunction,Soldermask,Bot*
G04 #@! TF.FilePolarity,Negative*
%FSLAX46Y46*%
G04 Gerber Fmt 4.6, Leading zero omitted, Abs format (unit mm)*
G04 Created by KiCad (PCBNEW (5.1.0-0)) date 2019-05-13 15:47:01*
%MOMM*%
%LPD*%
G04 APERTURE LIST*
%ADD10C,0.100000*%
G04 APERTURE END LIST*
D10*
G36*
X169781417Y-166204358D02*
G01*
X169855670Y-166235115D01*
X169929921Y-166265870D01*
X169929922Y-166265871D01*
X170063567Y-166355169D01*
X170177231Y-166468833D01*
X170244204Y-166569067D01*
X170266530Y-166602479D01*
X170297285Y-166676730D01*
X170328042Y-166750983D01*
X170359400Y-166908630D01*
X170359400Y-167069370D01*
X170328042Y-167227017D01*
X170266530Y-167375521D01*
X170266529Y-167375522D01*
X170177231Y-167509167D01*
X170063567Y-167622831D01*
X169963333Y-167689805D01*
X169929921Y-167712130D01*
X169855670Y-167742885D01*
X169781417Y-167773642D01*
X169623770Y-167805000D01*
X169463030Y-167805000D01*
X169305383Y-167773642D01*
X169231130Y-167742885D01*
X169156879Y-167712130D01*
X169123467Y-167689805D01*
X169023233Y-167622831D01*
X168909569Y-167509167D01*
X168820271Y-167375522D01*
X168820270Y-167375521D01*
X168758758Y-167227017D01*
X168727400Y-167069370D01*
X168727400Y-166908630D01*
X168758758Y-166750983D01*
X168820270Y-166602479D01*
X168842596Y-166569067D01*
X168909569Y-166468833D01*
X169023233Y-166355169D01*
X169156878Y-166265871D01*
X169156879Y-166265870D01*
X169231130Y-166235115D01*
X169305383Y-166204358D01*
X169463030Y-166173000D01*
X169623770Y-166173000D01*
X169781417Y-166204358D01*
X169781417Y-166204358D01*
G37*
G36*
X167241417Y-166204358D02*
G01*
X167315670Y-166235115D01*
X167389921Y-166265870D01*
X167389922Y-166265871D01*
X167523567Y-166355169D01*
X167637231Y-166468833D01*
X167704204Y-166569067D01*
X167726530Y-166602479D01*
X167757285Y-166676730D01*
X167788042Y-166750983D01*
X167819400Y-166908630D01*
X167819400Y-167069370D01*
X167788042Y-167227017D01*
X167726530Y-167375521D01*
X167726529Y-167375522D01*
X167637231Y-167509167D01*
X167523567Y-167622831D01*
X167423333Y-167689805D01*
X167389921Y-167712130D01*
X167315670Y-167742885D01*
X167241417Y-167773642D01*
X167083770Y-167805000D01*
X166923030Y-167805000D01*
X166765383Y-167773642D01*
X166691130Y-167742885D01*
X166616879Y-167712130D01*
X166583467Y-167689805D01*
X166483233Y-167622831D01*
X166369569Y-167509167D01*
X166280271Y-167375522D01*
X166280270Y-167375521D01*
X166218758Y-167227017D01*
X166187400Y-167069370D01*
X166187400Y-166908630D01*
X166218758Y-166750983D01*
X166280270Y-166602479D01*
X166302596Y-166569067D01*
X166369569Y-166468833D01*
X166483233Y-166355169D01*
X166616878Y-166265871D01*
X166616879Y-166265870D01*
X166691130Y-166235115D01*
X166765383Y-166204358D01*
X166923030Y-166173000D01*
X167083770Y-166173000D01*
X167241417Y-166204358D01*
X167241417Y-166204358D01*
G37*
G36*
X165279400Y-167805000D02*
G01*
X163647400Y-167805000D01*
X163647400Y-166173000D01*
X165279400Y-166173000D01*
X165279400Y-167805000D01*
X165279400Y-167805000D01*
G37*
G36*
X149781417Y-166204358D02*
G01*
X149855670Y-166235115D01*
X149929921Y-166265870D01*
X149929922Y-166265871D01*
X150063567Y-166355169D01*
X150177231Y-166468833D01*
X150244204Y-166569067D01*
X150266530Y-166602479D01*
X150297285Y-166676730D01*
X150328042Y-166750983D01*
X150359400Y-166908630D01*
X150359400Y-167069370D01*
X150328042Y-167227017D01*
X150266530Y-167375521D01*
X150266529Y-167375522D01*
X150177231Y-167509167D01*
X150063567Y-167622831D01*
X149963333Y-167689805D01*
X149929921Y-167712130D01*
X149855670Y-167742885D01*
X149781417Y-167773642D01*
X149623770Y-167805000D01*
X149463030Y-167805000D01*
X149305383Y-167773642D01*
X149231130Y-167742885D01*
X149156879Y-167712130D01*
X149123467Y-167689805D01*
X149023233Y-167622831D01*
X148909569Y-167509167D01*
X148820271Y-167375522D01*
X148820270Y-167375521D01*
X148758758Y-167227017D01*
X148727400Y-167069370D01*
X148727400Y-166908630D01*
X148758758Y-166750983D01*
X148820270Y-166602479D01*
X148842596Y-166569067D01*
X148909569Y-166468833D01*
X149023233Y-166355169D01*
X149156878Y-166265871D01*
X149156879Y-166265870D01*
X149231130Y-166235115D01*
X149305383Y-166204358D01*
X149463030Y-166173000D01*
X149623770Y-166173000D01*
X149781417Y-166204358D01*
X149781417Y-166204358D01*
G37*
G36*
X147241417Y-166204358D02*
G01*
X147315670Y-166235115D01*
X147389921Y-166265870D01*
X147389922Y-166265871D01*
X147523567Y-166355169D01*
X147637231Y-166468833D01*
X147704204Y-166569067D01*
X147726530Y-166602479D01*
X147757285Y-166676730D01*
X147788042Y-166750983D01*
X147819400Y-166908630D01*
X147819400Y-167069370D01*
X147788042Y-167227017D01*
X147726530Y-167375521D01*
X147726529Y-167375522D01*
X147637231Y-167509167D01*
X147523567Y-167622831D01*
X147423333Y-167689805D01*
X147389921Y-167712130D01*
X147315670Y-167742885D01*
X147241417Y-167773642D01*
X147083770Y-167805000D01*
X146923030Y-167805000D01*
X146765383Y-167773642D01*
X146691130Y-167742885D01*
X146616879Y-167712130D01*
X146583467Y-167689805D01*
X146483233Y-167622831D01*
X146369569Y-167509167D01*
X146280271Y-167375522D01*
X146280270Y-167375521D01*
X146218758Y-167227017D01*
X146187400Y-167069370D01*
X146187400Y-166908630D01*
X146218758Y-166750983D01*
X146280270Y-166602479D01*
X146302596Y-166569067D01*
X146369569Y-166468833D01*
X146483233Y-166355169D01*
X146616878Y-166265871D01*
X146616879Y-166265870D01*
X146691130Y-166235115D01*
X146765383Y-166204358D01*
X146923030Y-166173000D01*
X147083770Y-166173000D01*
X147241417Y-166204358D01*
X147241417Y-166204358D01*
G37*
G36*
X145279400Y-167805000D02*
G01*
X143647400Y-167805000D01*
X143647400Y-166173000D01*
X145279400Y-166173000D01*
X145279400Y-167805000D01*
X145279400Y-167805000D01*
G37*
G36*
X129781417Y-166204358D02*
G01*
X129855670Y-166235115D01*
X129929921Y-166265870D01*
X129929922Y-166265871D01*
X130063567Y-166355169D01*
X130177231Y-166468833D01*
X130244204Y-166569067D01*
X130266530Y-166602479D01*
X130297285Y-166676730D01*
X130328042Y-166750983D01*
X130359400Y-166908630D01*
X130359400Y-167069370D01*
X130328042Y-167227017D01*
X130266530Y-167375521D01*
X130266529Y-167375522D01*
X130177231Y-167509167D01*
X130063567Y-167622831D01*
X129963333Y-167689805D01*
X129929921Y-167712130D01*
X129855670Y-167742885D01*
X129781417Y-167773642D01*
X129623770Y-167805000D01*
X129463030Y-167805000D01*
X129305383Y-167773642D01*
X129231130Y-167742885D01*
X129156879Y-167712130D01*
X129123467Y-167689805D01*
X129023233Y-167622831D01*
X128909569Y-167509167D01*
X128820271Y-167375522D01*
X128820270Y-167375521D01*
X128758758Y-167227017D01*
X128727400Y-167069370D01*
X128727400Y-166908630D01*
X128758758Y-166750983D01*
X128820270Y-166602479D01*
X128842596Y-166569067D01*
X128909569Y-166468833D01*
X129023233Y-166355169D01*
X129156878Y-166265871D01*
X129156879Y-166265870D01*
X129231130Y-166235115D01*
X129305383Y-166204358D01*
X129463030Y-166173000D01*
X129623770Y-166173000D01*
X129781417Y-166204358D01*
X129781417Y-166204358D01*
G37*
G36*
X127241417Y-166204358D02*
G01*
X127315670Y-166235115D01*
X127389921Y-166265870D01*
X127389922Y-166265871D01*
X127523567Y-166355169D01*
X127637231Y-166468833D01*
X127704204Y-166569067D01*
X127726530Y-166602479D01*
X127757285Y-166676730D01*
X127788042Y-166750983D01*
X127819400Y-166908630D01*
X127819400Y-167069370D01*
X127788042Y-167227017D01*
X127726530Y-167375521D01*
X127726529Y-167375522D01*
X127637231Y-167509167D01*
X127523567Y-167622831D01*
X127423333Y-167689805D01*
X127389921Y-167712130D01*
X127315670Y-167742885D01*
X127241417Y-167773642D01*
X127083770Y-167805000D01*
X126923030Y-167805000D01*
X126765383Y-167773642D01*
X126691130Y-167742885D01*
X126616879Y-167712130D01*
X126583467Y-167689805D01*
X126483233Y-167622831D01*
X126369569Y-167509167D01*
X126280271Y-167375522D01*
X126280270Y-167375521D01*
X126218758Y-167227017D01*
X126187400Y-167069370D01*
X126187400Y-166908630D01*
X126218758Y-166750983D01*
X126280270Y-166602479D01*
X126302596Y-166569067D01*
X126369569Y-166468833D01*
X126483233Y-166355169D01*
X126616878Y-166265871D01*
X126616879Y-166265870D01*
X126691130Y-166235115D01*
X126765383Y-166204358D01*
X126923030Y-166173000D01*
X127083770Y-166173000D01*
X127241417Y-166204358D01*
X127241417Y-166204358D01*
G37*
G36*
X125279400Y-167805000D02*
G01*
X123647400Y-167805000D01*
X123647400Y-166173000D01*
X125279400Y-166173000D01*
X125279400Y-167805000D01*
X125279400Y-167805000D01*
G37*
G36*
X109781417Y-166204358D02*
G01*
X109855670Y-166235115D01*
X109929921Y-166265870D01*
X109929922Y-166265871D01*
X110063567Y-166355169D01*
X110177231Y-166468833D01*
X110244204Y-166569067D01*
X110266530Y-166602479D01*
X110297285Y-166676730D01*
X110328042Y-166750983D01*
X110359400Y-166908630D01*
X110359400Y-167069370D01*
X110328042Y-167227017D01*
X110266530Y-167375521D01*
X110266529Y-167375522D01*
X110177231Y-167509167D01*
X110063567Y-167622831D01*
X109963333Y-167689805D01*
X109929921Y-167712130D01*
X109855670Y-167742885D01*
X109781417Y-167773642D01*
X109623770Y-167805000D01*
X109463030Y-167805000D01*
X109305383Y-167773642D01*
X109231130Y-167742885D01*
X109156879Y-167712130D01*
X109123467Y-167689805D01*
X109023233Y-167622831D01*
X108909569Y-167509167D01*
X108820271Y-167375522D01*
X108820270Y-167375521D01*
X108758758Y-167227017D01*
X108727400Y-167069370D01*
X108727400Y-166908630D01*
X108758758Y-166750983D01*
X108820270Y-166602479D01*
X108842596Y-166569067D01*
X108909569Y-166468833D01*
X109023233Y-166355169D01*
X109156878Y-166265871D01*
X109156879Y-166265870D01*
X109231130Y-166235115D01*
X109305383Y-166204358D01*
X109463030Y-166173000D01*
X109623770Y-166173000D01*
X109781417Y-166204358D01*
X109781417Y-166204358D01*
G37*
G36*
X107241417Y-166204358D02*
G01*
X107315670Y-166235115D01*
X107389921Y-166265870D01*
X107389922Y-166265871D01*
X107523567Y-166355169D01*
X107637231Y-166468833D01*
X107704204Y-166569067D01*
X107726530Y-166602479D01*
X107757285Y-166676730D01*
X107788042Y-166750983D01*
X107819400Y-166908630D01*
X107819400Y-167069370D01*
X107788042Y-167227017D01*
X107726530Y-167375521D01*
X107726529Y-167375522D01*
X107637231Y-167509167D01*
X107523567Y-167622831D01*
X107423333Y-167689805D01*
X107389921Y-167712130D01*
X107315670Y-167742885D01*
X107241417Y-167773642D01*
X107083770Y-167805000D01*
X106923030Y-167805000D01*
X106765383Y-167773642D01*
X106691130Y-167742885D01*
X106616879Y-167712130D01*
X106583467Y-167689805D01*
X106483233Y-167622831D01*
X106369569Y-167509167D01*
X106280271Y-167375522D01*
X106280270Y-167375521D01*
X106218758Y-167227017D01*
X106187400Y-167069370D01*
X106187400Y-166908630D01*
X106218758Y-166750983D01*
X106280270Y-166602479D01*
X106302596Y-166569067D01*
X106369569Y-166468833D01*
X106483233Y-166355169D01*
X106616878Y-166265871D01*
X106616879Y-166265870D01*
X106691130Y-166235115D01*
X106765383Y-166204358D01*
X106923030Y-166173000D01*
X107083770Y-166173000D01*
X107241417Y-166204358D01*
X107241417Y-166204358D01*
G37*
G36*
X105279400Y-167805000D02*
G01*
X103647400Y-167805000D01*
X103647400Y-166173000D01*
X105279400Y-166173000D01*
X105279400Y-167805000D01*
X105279400Y-167805000D01*
G37*
G36*
X89781417Y-166204358D02*
G01*
X89855670Y-166235115D01*
X89929921Y-166265870D01*
X89929922Y-166265871D01*
X90063567Y-166355169D01*
X90177231Y-166468833D01*
X90244204Y-166569067D01*
X90266530Y-166602479D01*
X90297285Y-166676730D01*
X90328042Y-166750983D01*
X90359400Y-166908630D01*
X90359400Y-167069370D01*
X90328042Y-167227017D01*
X90266530Y-167375521D01*
X90266529Y-167375522D01*
X90177231Y-167509167D01*
X90063567Y-167622831D01*
X89963333Y-167689805D01*
X89929921Y-167712130D01*
X89855670Y-167742885D01*
X89781417Y-167773642D01*
X89623770Y-167805000D01*
X89463030Y-167805000D01*
X89305383Y-167773642D01*
X89231130Y-167742885D01*
X89156879Y-167712130D01*
X89123467Y-167689805D01*
X89023233Y-167622831D01*
X88909569Y-167509167D01*
X88820271Y-167375522D01*
X88820270Y-167375521D01*
X88758758Y-167227017D01*
X88727400Y-167069370D01*
X88727400Y-166908630D01*
X88758758Y-166750983D01*
X88820270Y-166602479D01*
X88842596Y-166569067D01*
X88909569Y-166468833D01*
X89023233Y-166355169D01*
X89156878Y-166265871D01*
X89156879Y-166265870D01*
X89231130Y-166235115D01*
X89305383Y-166204358D01*
X89463030Y-166173000D01*
X89623770Y-166173000D01*
X89781417Y-166204358D01*
X89781417Y-166204358D01*
G37*
G36*
X87241417Y-166204358D02*
G01*
X87315670Y-166235115D01*
X87389921Y-166265870D01*
X87389922Y-166265871D01*
X87523567Y-166355169D01*
X87637231Y-166468833D01*
X87704204Y-166569067D01*
X87726530Y-166602479D01*
X87757285Y-166676730D01*
X87788042Y-166750983D01*
X87819400Y-166908630D01*
X87819400Y-167069370D01*
X87788042Y-167227017D01*
X87726530Y-167375521D01*
X87726529Y-167375522D01*
X87637231Y-167509167D01*
X87523567Y-167622831D01*
X87423333Y-167689805D01*
X87389921Y-167712130D01*
X87315670Y-167742885D01*
X87241417Y-167773642D01*
X87083770Y-167805000D01*
X86923030Y-167805000D01*
X86765383Y-167773642D01*
X86691130Y-167742885D01*
X86616879Y-167712130D01*
X86583467Y-167689805D01*
X86483233Y-167622831D01*
X86369569Y-167509167D01*
X86280271Y-167375522D01*
X86280270Y-167375521D01*
X86218758Y-167227017D01*
X86187400Y-167069370D01*
X86187400Y-166908630D01*
X86218758Y-166750983D01*
X86280270Y-166602479D01*
X86302596Y-166569067D01*
X86369569Y-166468833D01*
X86483233Y-166355169D01*
X86616878Y-166265871D01*
X86616879Y-166265870D01*
X86691130Y-166235115D01*
X86765383Y-166204358D01*
X86923030Y-166173000D01*
X87083770Y-166173000D01*
X87241417Y-166204358D01*
X87241417Y-166204358D01*
G37*
G36*
X85279400Y-167805000D02*
G01*
X83647400Y-167805000D01*
X83647400Y-166173000D01*
X85279400Y-166173000D01*
X85279400Y-167805000D01*
X85279400Y-167805000D01*
G37*
G36*
X81634239Y-158811467D02*
G01*
X81948282Y-158873934D01*
X82539926Y-159119001D01*
X83072392Y-159474784D01*
X83525216Y-159927608D01*
X83880999Y-160460074D01*
X84126066Y-161051718D01*
X84251000Y-161679804D01*
X84251000Y-162320196D01*
X84126066Y-162948282D01*
X83880999Y-163539926D01*
X83525216Y-164072392D01*
X83072392Y-164525216D01*
X82539926Y-164880999D01*
X81948282Y-165126066D01*
X81634239Y-165188533D01*
X81320197Y-165251000D01*
X80679803Y-165251000D01*
X80365761Y-165188533D01*
X80051718Y-165126066D01*
X79460074Y-164880999D01*
X78927608Y-164525216D01*
X78474784Y-164072392D01*
X78119001Y-163539926D01*
X77873934Y-162948282D01*
X77749000Y-162320196D01*
X77749000Y-161679804D01*
X77873934Y-161051718D01*
X78119001Y-160460074D01*
X78474784Y-159927608D01*
X78927608Y-159474784D01*
X79460074Y-159119001D01*
X80051718Y-158873934D01*
X80365761Y-158811467D01*
X80679803Y-158749000D01*
X81320197Y-158749000D01*
X81634239Y-158811467D01*
X81634239Y-158811467D01*
G37*
G36*
X101634239Y-158811467D02*
G01*
X101948282Y-158873934D01*
X102539926Y-159119001D01*
X103072392Y-159474784D01*
X103525216Y-159927608D01*
X103880999Y-160460074D01*
X104126066Y-161051718D01*
X104251000Y-161679804D01*
X104251000Y-162320196D01*
X104126066Y-162948282D01*
X103880999Y-163539926D01*
X103525216Y-164072392D01*
X103072392Y-164525216D01*
X102539926Y-164880999D01*
X101948282Y-165126066D01*
X101634239Y-165188533D01*
X101320197Y-165251000D01*
X100679803Y-165251000D01*
X100365761Y-165188533D01*
X100051718Y-165126066D01*
X99460074Y-164880999D01*
X98927608Y-164525216D01*
X98474784Y-164072392D01*
X98119001Y-163539926D01*
X97873934Y-162948282D01*
X97749000Y-162320196D01*
X97749000Y-161679804D01*
X97873934Y-161051718D01*
X98119001Y-160460074D01*
X98474784Y-159927608D01*
X98927608Y-159474784D01*
X99460074Y-159119001D01*
X100051718Y-158873934D01*
X100365761Y-158811467D01*
X100679803Y-158749000D01*
X101320197Y-158749000D01*
X101634239Y-158811467D01*
X101634239Y-158811467D01*
G37*
G36*
X121634239Y-158811467D02*
G01*
X121948282Y-158873934D01*
X122539926Y-159119001D01*
X123072392Y-159474784D01*
X123525216Y-159927608D01*
X123880999Y-160460074D01*
X124126066Y-161051718D01*
X124251000Y-161679804D01*
X124251000Y-162320196D01*
X124126066Y-162948282D01*
X123880999Y-163539926D01*
X123525216Y-164072392D01*
X123072392Y-164525216D01*
X122539926Y-164880999D01*
X121948282Y-165126066D01*
X121634239Y-165188533D01*
X121320197Y-165251000D01*
X120679803Y-165251000D01*
X120365761Y-165188533D01*
X120051718Y-165126066D01*
X119460074Y-164880999D01*
X118927608Y-164525216D01*
X118474784Y-164072392D01*
X118119001Y-163539926D01*
X117873934Y-162948282D01*
X117749000Y-162320196D01*
X117749000Y-161679804D01*
X117873934Y-161051718D01*
X118119001Y-160460074D01*
X118474784Y-159927608D01*
X118927608Y-159474784D01*
X119460074Y-159119001D01*
X120051718Y-158873934D01*
X120365761Y-158811467D01*
X120679803Y-158749000D01*
X121320197Y-158749000D01*
X121634239Y-158811467D01*
X121634239Y-158811467D01*
G37*
G36*
X141634239Y-158811467D02*
G01*
X141948282Y-158873934D01*
X142539926Y-159119001D01*
X143072392Y-159474784D01*
X143525216Y-159927608D01*
X143880999Y-160460074D01*
X144126066Y-161051718D01*
X144251000Y-161679804D01*
X144251000Y-162320196D01*
X144126066Y-162948282D01*
X143880999Y-163539926D01*
X143525216Y-164072392D01*
X143072392Y-164525216D01*
X142539926Y-164880999D01*
X141948282Y-165126066D01*
X141634239Y-165188533D01*
X141320197Y-165251000D01*
X140679803Y-165251000D01*
X140365761Y-165188533D01*
X140051718Y-165126066D01*
X139460074Y-164880999D01*
X138927608Y-164525216D01*
X138474784Y-164072392D01*
X138119001Y-163539926D01*
X137873934Y-162948282D01*
X137749000Y-162320196D01*
X137749000Y-161679804D01*
X137873934Y-161051718D01*
X138119001Y-160460074D01*
X138474784Y-159927608D01*
X138927608Y-159474784D01*
X139460074Y-159119001D01*
X140051718Y-158873934D01*
X140365761Y-158811467D01*
X140679803Y-158749000D01*
X141320197Y-158749000D01*
X141634239Y-158811467D01*
X141634239Y-158811467D01*
G37*
G36*
X161634239Y-158811467D02*
G01*
X161948282Y-158873934D01*
X162539926Y-159119001D01*
X163072392Y-159474784D01*
X163525216Y-159927608D01*
X163880999Y-160460074D01*
X164126066Y-161051718D01*
X164251000Y-161679804D01*
X164251000Y-162320196D01*
X164126066Y-162948282D01*
X163880999Y-163539926D01*
X163525216Y-164072392D01*
X163072392Y-164525216D01*
X162539926Y-164880999D01*
X161948282Y-165126066D01*
X161634239Y-165188533D01*
X161320197Y-165251000D01*
X160679803Y-165251000D01*
X160365761Y-165188533D01*
X160051718Y-165126066D01*
X159460074Y-164880999D01*
X158927608Y-164525216D01*
X158474784Y-164072392D01*
X158119001Y-163539926D01*
X157873934Y-162948282D01*
X157749000Y-162320196D01*
X157749000Y-161679804D01*
X157873934Y-161051718D01*
X158119001Y-160460074D01*
X158474784Y-159927608D01*
X158927608Y-159474784D01*
X159460074Y-159119001D01*
X160051718Y-158873934D01*
X160365761Y-158811467D01*
X160679803Y-158749000D01*
X161320197Y-158749000D01*
X161634239Y-158811467D01*
X161634239Y-158811467D01*
G37*
G36*
X93634239Y-158811467D02*
G01*
X93948282Y-158873934D01*
X94539926Y-159119001D01*
X95072392Y-159474784D01*
X95525216Y-159927608D01*
X95880999Y-160460074D01*
X96126066Y-161051718D01*
X96251000Y-161679804D01*
X96251000Y-162320196D01*
X96126066Y-162948282D01*
X95880999Y-163539926D01*
X95525216Y-164072392D01*
X95072392Y-164525216D01*
X94539926Y-164880999D01*
X93948282Y-165126066D01*
X93634239Y-165188533D01*
X93320197Y-165251000D01*
X92679803Y-165251000D01*
X92365761Y-165188533D01*
X92051718Y-165126066D01*
X91460074Y-164880999D01*
X90927608Y-164525216D01*
X90474784Y-164072392D01*
X90119001Y-163539926D01*
X89873934Y-162948282D01*
X89749000Y-162320196D01*
X89749000Y-161679804D01*
X89873934Y-161051718D01*
X90119001Y-160460074D01*
X90474784Y-159927608D01*
X90927608Y-159474784D01*
X91460074Y-159119001D01*
X92051718Y-158873934D01*
X92365761Y-158811467D01*
X92679803Y-158749000D01*
X93320197Y-158749000D01*
X93634239Y-158811467D01*
X93634239Y-158811467D01*
G37*
G36*
X113634239Y-158811467D02*
G01*
X113948282Y-158873934D01*
X114539926Y-159119001D01*
X115072392Y-159474784D01*
X115525216Y-159927608D01*
X115880999Y-160460074D01*
X116126066Y-161051718D01*
X116251000Y-161679804D01*
X116251000Y-162320196D01*
X116126066Y-162948282D01*
X115880999Y-163539926D01*
X115525216Y-164072392D01*
X115072392Y-164525216D01*
X114539926Y-164880999D01*
X113948282Y-165126066D01*
X113634239Y-165188533D01*
X113320197Y-165251000D01*
X112679803Y-165251000D01*
X112365761Y-165188533D01*
X112051718Y-165126066D01*
X111460074Y-164880999D01*
X110927608Y-164525216D01*
X110474784Y-164072392D01*
X110119001Y-163539926D01*
X109873934Y-162948282D01*
X109749000Y-162320196D01*
X109749000Y-161679804D01*
X109873934Y-161051718D01*
X110119001Y-160460074D01*
X110474784Y-159927608D01*
X110927608Y-159474784D01*
X111460074Y-159119001D01*
X112051718Y-158873934D01*
X112365761Y-158811467D01*
X112679803Y-158749000D01*
X113320197Y-158749000D01*
X113634239Y-158811467D01*
X113634239Y-158811467D01*
G37*
G36*
X133634239Y-158811467D02*
G01*
X133948282Y-158873934D01*
X134539926Y-159119001D01*
X135072392Y-159474784D01*
X135525216Y-159927608D01*
X135880999Y-160460074D01*
X136126066Y-161051718D01*
X136251000Y-161679804D01*
X136251000Y-162320196D01*
X136126066Y-162948282D01*
X135880999Y-163539926D01*
X135525216Y-164072392D01*
X135072392Y-164525216D01*
X134539926Y-164880999D01*
X133948282Y-165126066D01*
X133634239Y-165188533D01*
X133320197Y-165251000D01*
X132679803Y-165251000D01*
X132365761Y-165188533D01*
X132051718Y-165126066D01*
X131460074Y-164880999D01*
X130927608Y-164525216D01*
X130474784Y-164072392D01*
X130119001Y-163539926D01*
X129873934Y-162948282D01*
X129749000Y-162320196D01*
X129749000Y-161679804D01*
X129873934Y-161051718D01*
X130119001Y-160460074D01*
X130474784Y-159927608D01*
X130927608Y-159474784D01*
X131460074Y-159119001D01*
X132051718Y-158873934D01*
X132365761Y-158811467D01*
X132679803Y-158749000D01*
X133320197Y-158749000D01*
X133634239Y-158811467D01*
X133634239Y-158811467D01*
G37*
G36*
X153634239Y-158811467D02*
G01*
X153948282Y-158873934D01*
X154539926Y-159119001D01*
X155072392Y-159474784D01*
X155525216Y-159927608D01*
X155880999Y-160460074D01*
X156126066Y-161051718D01*
X156251000Y-161679804D01*
X156251000Y-162320196D01*
X156126066Y-162948282D01*
X155880999Y-163539926D01*
X155525216Y-164072392D01*
X155072392Y-164525216D01*
X154539926Y-164880999D01*
X153948282Y-165126066D01*
X153634239Y-165188533D01*
X153320197Y-165251000D01*
X152679803Y-165251000D01*
X152365761Y-165188533D01*
X152051718Y-165126066D01*
X151460074Y-164880999D01*
X150927608Y-164525216D01*
X150474784Y-164072392D01*
X150119001Y-163539926D01*
X149873934Y-162948282D01*
X149749000Y-162320196D01*
X149749000Y-161679804D01*
X149873934Y-161051718D01*
X150119001Y-160460074D01*
X150474784Y-159927608D01*
X150927608Y-159474784D01*
X151460074Y-159119001D01*
X152051718Y-158873934D01*
X152365761Y-158811467D01*
X152679803Y-158749000D01*
X153320197Y-158749000D01*
X153634239Y-158811467D01*
X153634239Y-158811467D01*
G37*
G36*
X173634239Y-158811467D02*
G01*
X173948282Y-158873934D01*
X174539926Y-159119001D01*
X175072392Y-159474784D01*
X175525216Y-159927608D01*
X175880999Y-160460074D01*
X176126066Y-161051718D01*
X176251000Y-161679804D01*
X176251000Y-162320196D01*
X176126066Y-162948282D01*
X175880999Y-163539926D01*
X175525216Y-164072392D01*
X175072392Y-164525216D01*
X174539926Y-164880999D01*
X173948282Y-165126066D01*
X173634239Y-165188533D01*
X173320197Y-165251000D01*
X172679803Y-165251000D01*
X172365761Y-165188533D01*
X172051718Y-165126066D01*
X171460074Y-164880999D01*
X170927608Y-164525216D01*
X170474784Y-164072392D01*
X170119001Y-163539926D01*
X169873934Y-162948282D01*
X169749000Y-162320196D01*
X169749000Y-161679804D01*
X169873934Y-161051718D01*
X170119001Y-160460074D01*
X170474784Y-159927608D01*
X170927608Y-159474784D01*
X171460074Y-159119001D01*
X172051718Y-158873934D01*
X172365761Y-158811467D01*
X172679803Y-158749000D01*
X173320197Y-158749000D01*
X173634239Y-158811467D01*
X173634239Y-158811467D01*
G37*
G36*
X169781417Y-153204358D02*
G01*
X169929921Y-153265870D01*
X169929922Y-153265871D01*
X170063567Y-153355169D01*
X170177231Y-153468833D01*
X170244204Y-153569067D01*
X170266530Y-153602479D01*
X170328042Y-153750983D01*
X170359400Y-153908630D01*
X170359400Y-154069370D01*
X170328042Y-154227017D01*
X170266530Y-154375521D01*
X170266529Y-154375522D01*
X170177231Y-154509167D01*
X170063567Y-154622831D01*
X169963333Y-154689805D01*
X169929921Y-154712130D01*
X169781417Y-154773642D01*
X169623770Y-154805000D01*
X169463030Y-154805000D01*
X169305383Y-154773642D01*
X169156879Y-154712130D01*
X169123467Y-154689805D01*
X169023233Y-154622831D01*
X168909569Y-154509167D01*
X168820271Y-154375522D01*
X168820270Y-154375521D01*
X168758758Y-154227017D01*
X168727400Y-154069370D01*
X168727400Y-153908630D01*
X168758758Y-153750983D01*
X168820270Y-153602479D01*
X168842595Y-153569067D01*
X168909569Y-153468833D01*
X169023233Y-153355169D01*
X169156878Y-153265871D01*
X169156879Y-153265870D01*
X169305383Y-153204358D01*
X169463030Y-153173000D01*
X169623770Y-153173000D01*
X169781417Y-153204358D01*
X169781417Y-153204358D01*
G37*
G36*
X107241417Y-153204358D02*
G01*
X107389921Y-153265870D01*
X107389922Y-153265871D01*
X107523567Y-153355169D01*
X107637231Y-153468833D01*
X107704204Y-153569067D01*
X107726530Y-153602479D01*
X107788042Y-153750983D01*
X107819400Y-153908630D01*
X107819400Y-154069370D01*
X107788042Y-154227017D01*
X107726530Y-154375521D01*
X107726529Y-154375522D01*
X107637231Y-154509167D01*
X107523567Y-154622831D01*
X107423333Y-154689805D01*
X107389921Y-154712130D01*
X107241417Y-154773642D01*
X107083770Y-154805000D01*
X106923030Y-154805000D01*
X106765383Y-154773642D01*
X106616879Y-154712130D01*
X106583467Y-154689805D01*
X106483233Y-154622831D01*
X106369569Y-154509167D01*
X106280271Y-154375522D01*
X106280270Y-154375521D01*
X106218758Y-154227017D01*
X106187400Y-154069370D01*
X106187400Y-153908630D01*
X106218758Y-153750983D01*
X106280270Y-153602479D01*
X106302596Y-153569067D01*
X106369569Y-153468833D01*
X106483233Y-153355169D01*
X106616878Y-153265871D01*
X106616879Y-153265870D01*
X106765383Y-153204358D01*
X106923030Y-153173000D01*
X107083770Y-153173000D01*
X107241417Y-153204358D01*
X107241417Y-153204358D01*
G37*
G36*
X147241417Y-153204358D02*
G01*
X147389921Y-153265870D01*
X147389922Y-153265871D01*
X147523567Y-153355169D01*
X147637231Y-153468833D01*
X147704204Y-153569067D01*
X147726530Y-153602479D01*
X147788042Y-153750983D01*
X147819400Y-153908630D01*
X147819400Y-154069370D01*
X147788042Y-154227017D01*
X147726530Y-154375521D01*
X147726529Y-154375522D01*
X147637231Y-154509167D01*
X147523567Y-154622831D01*
X147423333Y-154689805D01*
X147389921Y-154712130D01*
X147241417Y-154773642D01*
X147083770Y-154805000D01*
X146923030Y-154805000D01*
X146765383Y-154773642D01*
X146616879Y-154712130D01*
X146583467Y-154689805D01*
X146483233Y-154622831D01*
X146369569Y-154509167D01*
X146280271Y-154375522D01*
X146280270Y-154375521D01*
X146218758Y-154227017D01*
X146187400Y-154069370D01*
X146187400Y-153908630D01*
X146218758Y-153750983D01*
X146280270Y-153602479D01*
X146302596Y-153569067D01*
X146369569Y-153468833D01*
X146483233Y-153355169D01*
X146616878Y-153265871D01*
X146616879Y-153265870D01*
X146765383Y-153204358D01*
X146923030Y-153173000D01*
X147083770Y-153173000D01*
X147241417Y-153204358D01*
X147241417Y-153204358D01*
G37*
G36*
X149781417Y-153204358D02*
G01*
X149929921Y-153265870D01*
X149929922Y-153265871D01*
X150063567Y-153355169D01*
X150177231Y-153468833D01*
X150244204Y-153569067D01*
X150266530Y-153602479D01*
X150328042Y-153750983D01*
X150359400Y-153908630D01*
X150359400Y-154069370D01*
X150328042Y-154227017D01*
X150266530Y-154375521D01*
X150266529Y-154375522D01*
X150177231Y-154509167D01*
X150063567Y-154622831D01*
X149963333Y-154689805D01*
X149929921Y-154712130D01*
X149781417Y-154773642D01*
X149623770Y-154805000D01*
X149463030Y-154805000D01*
X149305383Y-154773642D01*
X149156879Y-154712130D01*
X149123467Y-154689805D01*
X149023233Y-154622831D01*
X148909569Y-154509167D01*
X148820271Y-154375522D01*
X148820270Y-154375521D01*
X148758758Y-154227017D01*
X148727400Y-154069370D01*
X148727400Y-153908630D01*
X148758758Y-153750983D01*
X148820270Y-153602479D01*
X148842596Y-153569067D01*
X148909569Y-153468833D01*
X149023233Y-153355169D01*
X149156878Y-153265871D01*
X149156879Y-153265870D01*
X149305383Y-153204358D01*
X149463030Y-153173000D01*
X149623770Y-153173000D01*
X149781417Y-153204358D01*
X149781417Y-153204358D01*
G37*
G36*
X165279400Y-154805000D02*
G01*
X163647400Y-154805000D01*
X163647400Y-153173000D01*
X165279400Y-153173000D01*
X165279400Y-154805000D01*
X165279400Y-154805000D01*
G37*
G36*
X167241417Y-153204358D02*
G01*
X167389921Y-153265870D01*
X167389922Y-153265871D01*
X167523567Y-153355169D01*
X167637231Y-153468833D01*
X167704204Y-153569067D01*
X167726530Y-153602479D01*
X167788042Y-153750983D01*
X167819400Y-153908630D01*
X167819400Y-154069370D01*
X167788042Y-154227017D01*
X167726530Y-154375521D01*
X167726529Y-154375522D01*
X167637231Y-154509167D01*
X167523567Y-154622831D01*
X167423333Y-154689805D01*
X167389921Y-154712130D01*
X167241417Y-154773642D01*
X167083770Y-154805000D01*
X166923030Y-154805000D01*
X166765383Y-154773642D01*
X166616879Y-154712130D01*
X166583467Y-154689805D01*
X166483233Y-154622831D01*
X166369569Y-154509167D01*
X166280271Y-154375522D01*
X166280270Y-154375521D01*
X166218758Y-154227017D01*
X166187400Y-154069370D01*
X166187400Y-153908630D01*
X166218758Y-153750983D01*
X166280270Y-153602479D01*
X166302595Y-153569067D01*
X166369569Y-153468833D01*
X166483233Y-153355169D01*
X166616878Y-153265871D01*
X166616879Y-153265870D01*
X166765383Y-153204358D01*
X166923030Y-153173000D01*
X167083770Y-153173000D01*
X167241417Y-153204358D01*
X167241417Y-153204358D01*
G37*
G36*
X145279400Y-154805000D02*
G01*
X143647400Y-154805000D01*
X143647400Y-153173000D01*
X145279400Y-153173000D01*
X145279400Y-154805000D01*
X145279400Y-154805000D01*
G37*
G36*
X129781417Y-153204358D02*
G01*
X129929921Y-153265870D01*
X129929922Y-153265871D01*
X130063567Y-153355169D01*
X130177231Y-153468833D01*
X130244204Y-153569067D01*
X130266530Y-153602479D01*
X130328042Y-153750983D01*
X130359400Y-153908630D01*
X130359400Y-154069370D01*
X130328042Y-154227017D01*
X130266530Y-154375521D01*
X130266529Y-154375522D01*
X130177231Y-154509167D01*
X130063567Y-154622831D01*
X129963333Y-154689805D01*
X129929921Y-154712130D01*
X129781417Y-154773642D01*
X129623770Y-154805000D01*
X129463030Y-154805000D01*
X129305383Y-154773642D01*
X129156879Y-154712130D01*
X129123467Y-154689805D01*
X129023233Y-154622831D01*
X128909569Y-154509167D01*
X128820271Y-154375522D01*
X128820270Y-154375521D01*
X128758758Y-154227017D01*
X128727400Y-154069370D01*
X128727400Y-153908630D01*
X128758758Y-153750983D01*
X128820270Y-153602479D01*
X128842596Y-153569067D01*
X128909569Y-153468833D01*
X129023233Y-153355169D01*
X129156878Y-153265871D01*
X129156879Y-153265870D01*
X129305383Y-153204358D01*
X129463030Y-153173000D01*
X129623770Y-153173000D01*
X129781417Y-153204358D01*
X129781417Y-153204358D01*
G37*
G36*
X127241417Y-153204358D02*
G01*
X127389921Y-153265870D01*
X127389922Y-153265871D01*
X127523567Y-153355169D01*
X127637231Y-153468833D01*
X127704204Y-153569067D01*
X127726530Y-153602479D01*
X127788042Y-153750983D01*
X127819400Y-153908630D01*
X127819400Y-154069370D01*
X127788042Y-154227017D01*
X127726530Y-154375521D01*
X127726529Y-154375522D01*
X127637231Y-154509167D01*
X127523567Y-154622831D01*
X127423333Y-154689805D01*
X127389921Y-154712130D01*
X127241417Y-154773642D01*
X127083770Y-154805000D01*
X126923030Y-154805000D01*
X126765383Y-154773642D01*
X126616879Y-154712130D01*
X126583467Y-154689805D01*
X126483233Y-154622831D01*
X126369569Y-154509167D01*
X126280271Y-154375522D01*
X126280270Y-154375521D01*
X126218758Y-154227017D01*
X126187400Y-154069370D01*
X126187400Y-153908630D01*
X126218758Y-153750983D01*
X126280270Y-153602479D01*
X126302596Y-153569067D01*
X126369569Y-153468833D01*
X126483233Y-153355169D01*
X126616878Y-153265871D01*
X126616879Y-153265870D01*
X126765383Y-153204358D01*
X126923030Y-153173000D01*
X127083770Y-153173000D01*
X127241417Y-153204358D01*
X127241417Y-153204358D01*
G37*
G36*
X125279400Y-154805000D02*
G01*
X123647400Y-154805000D01*
X123647400Y-153173000D01*
X125279400Y-153173000D01*
X125279400Y-154805000D01*
X125279400Y-154805000D01*
G37*
G36*
X109781417Y-153204358D02*
G01*
X109929921Y-153265870D01*
X109929922Y-153265871D01*
X110063567Y-153355169D01*
X110177231Y-153468833D01*
X110244204Y-153569067D01*
X110266530Y-153602479D01*
X110328042Y-153750983D01*
X110359400Y-153908630D01*
X110359400Y-154069370D01*
X110328042Y-154227017D01*
X110266530Y-154375521D01*
X110266529Y-154375522D01*
X110177231Y-154509167D01*
X110063567Y-154622831D01*
X109963333Y-154689805D01*
X109929921Y-154712130D01*
X109781417Y-154773642D01*
X109623770Y-154805000D01*
X109463030Y-154805000D01*
X109305383Y-154773642D01*
X109156879Y-154712130D01*
X109123467Y-154689805D01*
X109023233Y-154622831D01*
X108909569Y-154509167D01*
X108820271Y-154375522D01*
X108820270Y-154375521D01*
X108758758Y-154227017D01*
X108727400Y-154069370D01*
X108727400Y-153908630D01*
X108758758Y-153750983D01*
X108820270Y-153602479D01*
X108842596Y-153569067D01*
X108909569Y-153468833D01*
X109023233Y-153355169D01*
X109156878Y-153265871D01*
X109156879Y-153265870D01*
X109305383Y-153204358D01*
X109463030Y-153173000D01*
X109623770Y-153173000D01*
X109781417Y-153204358D01*
X109781417Y-153204358D01*
G37*
G36*
X105279400Y-154805000D02*
G01*
X103647400Y-154805000D01*
X103647400Y-153173000D01*
X105279400Y-153173000D01*
X105279400Y-154805000D01*
X105279400Y-154805000D01*
G37*
G36*
X89781417Y-153204358D02*
G01*
X89929921Y-153265870D01*
X89929922Y-153265871D01*
X90063567Y-153355169D01*
X90177231Y-153468833D01*
X90244204Y-153569067D01*
X90266530Y-153602479D01*
X90328042Y-153750983D01*
X90359400Y-153908630D01*
X90359400Y-154069370D01*
X90328042Y-154227017D01*
X90266530Y-154375521D01*
X90266529Y-154375522D01*
X90177231Y-154509167D01*
X90063567Y-154622831D01*
X89963333Y-154689805D01*
X89929921Y-154712130D01*
X89781417Y-154773642D01*
X89623770Y-154805000D01*
X89463030Y-154805000D01*
X89305383Y-154773642D01*
X89156879Y-154712130D01*
X89123467Y-154689805D01*
X89023233Y-154622831D01*
X88909569Y-154509167D01*
X88820271Y-154375522D01*
X88820270Y-154375521D01*
X88758758Y-154227017D01*
X88727400Y-154069370D01*
X88727400Y-153908630D01*
X88758758Y-153750983D01*
X88820270Y-153602479D01*
X88842596Y-153569067D01*
X88909569Y-153468833D01*
X89023233Y-153355169D01*
X89156878Y-153265871D01*
X89156879Y-153265870D01*
X89305383Y-153204358D01*
X89463030Y-153173000D01*
X89623770Y-153173000D01*
X89781417Y-153204358D01*
X89781417Y-153204358D01*
G37*
G36*
X87241417Y-153204358D02*
G01*
X87389921Y-153265870D01*
X87389922Y-153265871D01*
X87523567Y-153355169D01*
X87637231Y-153468833D01*
X87704204Y-153569067D01*
X87726530Y-153602479D01*
X87788042Y-153750983D01*
X87819400Y-153908630D01*
X87819400Y-154069370D01*
X87788042Y-154227017D01*
X87726530Y-154375521D01*
X87726529Y-154375522D01*
X87637231Y-154509167D01*
X87523567Y-154622831D01*
X87423333Y-154689805D01*
X87389921Y-154712130D01*
X87241417Y-154773642D01*
X87083770Y-154805000D01*
X86923030Y-154805000D01*
X86765383Y-154773642D01*
X86616879Y-154712130D01*
X86583467Y-154689805D01*
X86483233Y-154622831D01*
X86369569Y-154509167D01*
X86280271Y-154375522D01*
X86280270Y-154375521D01*
X86218758Y-154227017D01*
X86187400Y-154069370D01*
X86187400Y-153908630D01*
X86218758Y-153750983D01*
X86280270Y-153602479D01*
X86302596Y-153569067D01*
X86369569Y-153468833D01*
X86483233Y-153355169D01*
X86616878Y-153265871D01*
X86616879Y-153265870D01*
X86765383Y-153204358D01*
X86923030Y-153173000D01*
X87083770Y-153173000D01*
X87241417Y-153204358D01*
X87241417Y-153204358D01*
G37*
G36*
X85279400Y-154805000D02*
G01*
X83647400Y-154805000D01*
X83647400Y-153173000D01*
X85279400Y-153173000D01*
X85279400Y-154805000D01*
X85279400Y-154805000D01*
G37*
G36*
X173634239Y-145811467D02*
G01*
X173948282Y-145873934D01*
X174539926Y-146119001D01*
X175072392Y-146474784D01*
X175525216Y-146927608D01*
X175880999Y-147460074D01*
X176126066Y-148051718D01*
X176251000Y-148679804D01*
X176251000Y-149320196D01*
X176126066Y-149948282D01*
X175880999Y-150539926D01*
X175525216Y-151072392D01*
X175072392Y-151525216D01*
X174539926Y-151880999D01*
X173948282Y-152126066D01*
X173634239Y-152188533D01*
X173320197Y-152251000D01*
X172679803Y-152251000D01*
X172365761Y-152188533D01*
X172051718Y-152126066D01*
X171460074Y-151880999D01*
X170927608Y-151525216D01*
X170474784Y-151072392D01*
X170119001Y-150539926D01*
X169873934Y-149948282D01*
X169749000Y-149320196D01*
X169749000Y-148679804D01*
X169873934Y-148051718D01*
X170119001Y-147460074D01*
X170474784Y-146927608D01*
X170927608Y-146474784D01*
X171460074Y-146119001D01*
X172051718Y-145873934D01*
X172365761Y-145811467D01*
X172679803Y-145749000D01*
X173320197Y-145749000D01*
X173634239Y-145811467D01*
X173634239Y-145811467D01*
G37*
G36*
X153634239Y-145811467D02*
G01*
X153948282Y-145873934D01*
X154539926Y-146119001D01*
X155072392Y-146474784D01*
X155525216Y-146927608D01*
X155880999Y-147460074D01*
X156126066Y-148051718D01*
X156251000Y-148679804D01*
X156251000Y-149320196D01*
X156126066Y-149948282D01*
X155880999Y-150539926D01*
X155525216Y-151072392D01*
X155072392Y-151525216D01*
X154539926Y-151880999D01*
X153948282Y-152126066D01*
X153634239Y-152188533D01*
X153320197Y-152251000D01*
X152679803Y-152251000D01*
X152365761Y-152188533D01*
X152051718Y-152126066D01*
X151460074Y-151880999D01*
X150927608Y-151525216D01*
X150474784Y-151072392D01*
X150119001Y-150539926D01*
X149873934Y-149948282D01*
X149749000Y-149320196D01*
X149749000Y-148679804D01*
X149873934Y-148051718D01*
X150119001Y-147460074D01*
X150474784Y-146927608D01*
X150927608Y-146474784D01*
X151460074Y-146119001D01*
X152051718Y-145873934D01*
X152365761Y-145811467D01*
X152679803Y-145749000D01*
X153320197Y-145749000D01*
X153634239Y-145811467D01*
X153634239Y-145811467D01*
G37*
G36*
X133634239Y-145811467D02*
G01*
X133948282Y-145873934D01*
X134539926Y-146119001D01*
X135072392Y-146474784D01*
X135525216Y-146927608D01*
X135880999Y-147460074D01*
X136126066Y-148051718D01*
X136251000Y-148679804D01*
X136251000Y-149320196D01*
X136126066Y-149948282D01*
X135880999Y-150539926D01*
X135525216Y-151072392D01*
X135072392Y-151525216D01*
X134539926Y-151880999D01*
X133948282Y-152126066D01*
X133634239Y-152188533D01*
X133320197Y-152251000D01*
X132679803Y-152251000D01*
X132365761Y-152188533D01*
X132051718Y-152126066D01*
X131460074Y-151880999D01*
X130927608Y-151525216D01*
X130474784Y-151072392D01*
X130119001Y-150539926D01*
X129873934Y-149948282D01*
X129749000Y-149320196D01*
X129749000Y-148679804D01*
X129873934Y-148051718D01*
X130119001Y-147460074D01*
X130474784Y-146927608D01*
X130927608Y-146474784D01*
X131460074Y-146119001D01*
X132051718Y-145873934D01*
X132365761Y-145811467D01*
X132679803Y-145749000D01*
X133320197Y-145749000D01*
X133634239Y-145811467D01*
X133634239Y-145811467D01*
G37*
G36*
X113634239Y-145811467D02*
G01*
X113948282Y-145873934D01*
X114539926Y-146119001D01*
X115072392Y-146474784D01*
X115525216Y-146927608D01*
X115880999Y-147460074D01*
X116126066Y-148051718D01*
X116251000Y-148679804D01*
X116251000Y-149320196D01*
X116126066Y-149948282D01*
X115880999Y-150539926D01*
X115525216Y-151072392D01*
X115072392Y-151525216D01*
X114539926Y-151880999D01*
X113948282Y-152126066D01*
X113634239Y-152188533D01*
X113320197Y-152251000D01*
X112679803Y-152251000D01*
X112365761Y-152188533D01*
X112051718Y-152126066D01*
X111460074Y-151880999D01*
X110927608Y-151525216D01*
X110474784Y-151072392D01*
X110119001Y-150539926D01*
X109873934Y-149948282D01*
X109749000Y-149320196D01*
X109749000Y-148679804D01*
X109873934Y-148051718D01*
X110119001Y-147460074D01*
X110474784Y-146927608D01*
X110927608Y-146474784D01*
X111460074Y-146119001D01*
X112051718Y-145873934D01*
X112365761Y-145811467D01*
X112679803Y-145749000D01*
X113320197Y-145749000D01*
X113634239Y-145811467D01*
X113634239Y-145811467D01*
G37*
G36*
X93634239Y-145811467D02*
G01*
X93948282Y-145873934D01*
X94539926Y-146119001D01*
X95072392Y-146474784D01*
X95525216Y-146927608D01*
X95880999Y-147460074D01*
X96126066Y-148051718D01*
X96251000Y-148679804D01*
X96251000Y-149320196D01*
X96126066Y-149948282D01*
X95880999Y-150539926D01*
X95525216Y-151072392D01*
X95072392Y-151525216D01*
X94539926Y-151880999D01*
X93948282Y-152126066D01*
X93634239Y-152188533D01*
X93320197Y-152251000D01*
X92679803Y-152251000D01*
X92365761Y-152188533D01*
X92051718Y-152126066D01*
X91460074Y-151880999D01*
X90927608Y-151525216D01*
X90474784Y-151072392D01*
X90119001Y-150539926D01*
X89873934Y-149948282D01*
X89749000Y-149320196D01*
X89749000Y-148679804D01*
X89873934Y-148051718D01*
X90119001Y-147460074D01*
X90474784Y-146927608D01*
X90927608Y-146474784D01*
X91460074Y-146119001D01*
X92051718Y-145873934D01*
X92365761Y-145811467D01*
X92679803Y-145749000D01*
X93320197Y-145749000D01*
X93634239Y-145811467D01*
X93634239Y-145811467D01*
G37*
G36*
X161634239Y-145811467D02*
G01*
X161948282Y-145873934D01*
X162539926Y-146119001D01*
X163072392Y-146474784D01*
X163525216Y-146927608D01*
X163880999Y-147460074D01*
X164126066Y-148051718D01*
X164251000Y-148679804D01*
X164251000Y-149320196D01*
X164126066Y-149948282D01*
X163880999Y-150539926D01*
X163525216Y-151072392D01*
X163072392Y-151525216D01*
X162539926Y-151880999D01*
X161948282Y-152126066D01*
X161634239Y-152188533D01*
X161320197Y-152251000D01*
X160679803Y-152251000D01*
X160365761Y-152188533D01*
X160051718Y-152126066D01*
X159460074Y-151880999D01*
X158927608Y-151525216D01*
X158474784Y-151072392D01*
X158119001Y-150539926D01*
X157873934Y-149948282D01*
X157749000Y-149320196D01*
X157749000Y-148679804D01*
X157873934Y-148051718D01*
X158119001Y-147460074D01*
X158474784Y-146927608D01*
X158927608Y-146474784D01*
X159460074Y-146119001D01*
X160051718Y-145873934D01*
X160365761Y-145811467D01*
X160679803Y-145749000D01*
X161320197Y-145749000D01*
X161634239Y-145811467D01*
X161634239Y-145811467D01*
G37*
G36*
X141634239Y-145811467D02*
G01*
X141948282Y-145873934D01*
X142539926Y-146119001D01*
X143072392Y-146474784D01*
X143525216Y-146927608D01*
X143880999Y-147460074D01*
X144126066Y-148051718D01*
X144251000Y-148679804D01*
X144251000Y-149320196D01*
X144126066Y-149948282D01*
X143880999Y-150539926D01*
X143525216Y-151072392D01*
X143072392Y-151525216D01*
X142539926Y-151880999D01*
X141948282Y-152126066D01*
X141634239Y-152188533D01*
X141320197Y-152251000D01*
X140679803Y-152251000D01*
X140365761Y-152188533D01*
X140051718Y-152126066D01*
X139460074Y-151880999D01*
X138927608Y-151525216D01*
X138474784Y-151072392D01*
X138119001Y-150539926D01*
X137873934Y-149948282D01*
X137749000Y-149320196D01*
X137749000Y-148679804D01*
X137873934Y-148051718D01*
X138119001Y-147460074D01*
X138474784Y-146927608D01*
X138927608Y-146474784D01*
X139460074Y-146119001D01*
X140051718Y-145873934D01*
X140365761Y-145811467D01*
X140679803Y-145749000D01*
X141320197Y-145749000D01*
X141634239Y-145811467D01*
X141634239Y-145811467D01*
G37*
G36*
X121634239Y-145811467D02*
G01*
X121948282Y-145873934D01*
X122539926Y-146119001D01*
X123072392Y-146474784D01*
X123525216Y-146927608D01*
X123880999Y-147460074D01*
X124126066Y-148051718D01*
X124251000Y-148679804D01*
X124251000Y-149320196D01*
X124126066Y-149948282D01*
X123880999Y-150539926D01*
X123525216Y-151072392D01*
X123072392Y-151525216D01*
X122539926Y-151880999D01*
X121948282Y-152126066D01*
X121634239Y-152188533D01*
X121320197Y-152251000D01*
X120679803Y-152251000D01*
X120365761Y-152188533D01*
X120051718Y-152126066D01*
X119460074Y-151880999D01*
X118927608Y-151525216D01*
X118474784Y-151072392D01*
X118119001Y-150539926D01*
X117873934Y-149948282D01*
X117749000Y-149320196D01*
X117749000Y-148679804D01*
X117873934Y-148051718D01*
X118119001Y-147460074D01*
X118474784Y-146927608D01*
X118927608Y-146474784D01*
X119460074Y-146119001D01*
X120051718Y-145873934D01*
X120365761Y-145811467D01*
X120679803Y-145749000D01*
X121320197Y-145749000D01*
X121634239Y-145811467D01*
X121634239Y-145811467D01*
G37*
G36*
X101634239Y-145811467D02*
G01*
X101948282Y-145873934D01*
X102539926Y-146119001D01*
X103072392Y-146474784D01*
X103525216Y-146927608D01*
X103880999Y-147460074D01*
X104126066Y-148051718D01*
X104251000Y-148679804D01*
X104251000Y-149320196D01*
X104126066Y-149948282D01*
X103880999Y-150539926D01*
X103525216Y-151072392D01*
X103072392Y-151525216D01*
X102539926Y-151880999D01*
X101948282Y-152126066D01*
X101634239Y-152188533D01*
X101320197Y-152251000D01*
X100679803Y-152251000D01*
X100365761Y-152188533D01*
X100051718Y-152126066D01*
X99460074Y-151880999D01*
X98927608Y-151525216D01*
X98474784Y-151072392D01*
X98119001Y-150539926D01*
X97873934Y-149948282D01*
X97749000Y-149320196D01*
X97749000Y-148679804D01*
X97873934Y-148051718D01*
X98119001Y-147460074D01*
X98474784Y-146927608D01*
X98927608Y-146474784D01*
X99460074Y-146119001D01*
X100051718Y-145873934D01*
X100365761Y-145811467D01*
X100679803Y-145749000D01*
X101320197Y-145749000D01*
X101634239Y-145811467D01*
X101634239Y-145811467D01*
G37*
G36*
X81634239Y-145811467D02*
G01*
X81948282Y-145873934D01*
X82539926Y-146119001D01*
X83072392Y-146474784D01*
X83525216Y-146927608D01*
X83880999Y-147460074D01*
X84126066Y-148051718D01*
X84251000Y-148679804D01*
X84251000Y-149320196D01*
X84126066Y-149948282D01*
X83880999Y-150539926D01*
X83525216Y-151072392D01*
X83072392Y-151525216D01*
X82539926Y-151880999D01*
X81948282Y-152126066D01*
X81634239Y-152188533D01*
X81320197Y-152251000D01*
X80679803Y-152251000D01*
X80365761Y-152188533D01*
X80051718Y-152126066D01*
X79460074Y-151880999D01*
X78927608Y-151525216D01*
X78474784Y-151072392D01*
X78119001Y-150539926D01*
X77873934Y-149948282D01*
X77749000Y-149320196D01*
X77749000Y-148679804D01*
X77873934Y-148051718D01*
X78119001Y-147460074D01*
X78474784Y-146927608D01*
X78927608Y-146474784D01*
X79460074Y-146119001D01*
X80051718Y-145873934D01*
X80365761Y-145811467D01*
X80679803Y-145749000D01*
X81320197Y-145749000D01*
X81634239Y-145811467D01*
X81634239Y-145811467D01*
G37*
G36*
X167241417Y-140204358D02*
G01*
X167315670Y-140235115D01*
X167389921Y-140265870D01*
X167389922Y-140265871D01*
X167523567Y-140355169D01*
X167637231Y-140468833D01*
X167704204Y-140569067D01*
X167726530Y-140602479D01*
X167788042Y-140750983D01*
X167819400Y-140908630D01*
X167819400Y-141069370D01*
X167788042Y-141227017D01*
X167726530Y-141375521D01*
X167726529Y-141375522D01*
X167637231Y-141509167D01*
X167523567Y-141622831D01*
X167423333Y-141689805D01*
X167389921Y-141712130D01*
X167241417Y-141773642D01*
X167083770Y-141805000D01*
X166923030Y-141805000D01*
X166765383Y-141773642D01*
X166616879Y-141712130D01*
X166583467Y-141689804D01*
X166483233Y-141622831D01*
X166369569Y-141509167D01*
X166280271Y-141375522D01*
X166280270Y-141375521D01*
X166218758Y-141227017D01*
X166187400Y-141069370D01*
X166187400Y-140908630D01*
X166218758Y-140750983D01*
X166280270Y-140602479D01*
X166302596Y-140569067D01*
X166369569Y-140468833D01*
X166483233Y-140355169D01*
X166616878Y-140265871D01*
X166616879Y-140265870D01*
X166691130Y-140235115D01*
X166765383Y-140204358D01*
X166923030Y-140173000D01*
X167083770Y-140173000D01*
X167241417Y-140204358D01*
X167241417Y-140204358D01*
G37*
G36*
X169781417Y-140204358D02*
G01*
X169855670Y-140235115D01*
X169929921Y-140265870D01*
X169929922Y-140265871D01*
X170063567Y-140355169D01*
X170177231Y-140468833D01*
X170244204Y-140569067D01*
X170266530Y-140602479D01*
X170328042Y-140750983D01*
X170359400Y-140908630D01*
X170359400Y-141069370D01*
X170328042Y-141227017D01*
X170266530Y-141375521D01*
X170266529Y-141375522D01*
X170177231Y-141509167D01*
X170063567Y-141622831D01*
X169963333Y-141689805D01*
X169929921Y-141712130D01*
X169781417Y-141773642D01*
X169623770Y-141805000D01*
X169463030Y-141805000D01*
X169305383Y-141773642D01*
X169156879Y-141712130D01*
X169123467Y-141689804D01*
X169023233Y-141622831D01*
X168909569Y-141509167D01*
X168820271Y-141375522D01*
X168820270Y-141375521D01*
X168758758Y-141227017D01*
X168727400Y-141069370D01*
X168727400Y-140908630D01*
X168758758Y-140750983D01*
X168820270Y-140602479D01*
X168842596Y-140569067D01*
X168909569Y-140468833D01*
X169023233Y-140355169D01*
X169156878Y-140265871D01*
X169156879Y-140265870D01*
X169231130Y-140235115D01*
X169305383Y-140204358D01*
X169463030Y-140173000D01*
X169623770Y-140173000D01*
X169781417Y-140204358D01*
X169781417Y-140204358D01*
G37*
G36*
X85279400Y-141805000D02*
G01*
X83647400Y-141805000D01*
X83647400Y-140173000D01*
X85279400Y-140173000D01*
X85279400Y-141805000D01*
X85279400Y-141805000D01*
G37*
G36*
X87241417Y-140204358D02*
G01*
X87315670Y-140235115D01*
X87389921Y-140265870D01*
X87389922Y-140265871D01*
X87523567Y-140355169D01*
X87637231Y-140468833D01*
X87704204Y-140569067D01*
X87726530Y-140602479D01*
X87788042Y-140750983D01*
X87819400Y-140908630D01*
X87819400Y-141069370D01*
X87788042Y-141227017D01*
X87726530Y-141375521D01*
X87726529Y-141375522D01*
X87637231Y-141509167D01*
X87523567Y-141622831D01*
X87423333Y-141689805D01*
X87389921Y-141712130D01*
X87241417Y-141773642D01*
X87083770Y-141805000D01*
X86923030Y-141805000D01*
X86765383Y-141773642D01*
X86616879Y-141712130D01*
X86583467Y-141689804D01*
X86483233Y-141622831D01*
X86369569Y-141509167D01*
X86280271Y-141375522D01*
X86280270Y-141375521D01*
X86249515Y-141301270D01*
X86218758Y-141227017D01*
X86187400Y-141069370D01*
X86187400Y-140908630D01*
X86218758Y-140750983D01*
X86280270Y-140602479D01*
X86302596Y-140569067D01*
X86369569Y-140468833D01*
X86483233Y-140355169D01*
X86616878Y-140265871D01*
X86616879Y-140265870D01*
X86691130Y-140235115D01*
X86765383Y-140204358D01*
X86923030Y-140173000D01*
X87083770Y-140173000D01*
X87241417Y-140204358D01*
X87241417Y-140204358D01*
G37*
G36*
X89781417Y-140204358D02*
G01*
X89855670Y-140235115D01*
X89929921Y-140265870D01*
X89929922Y-140265871D01*
X90063567Y-140355169D01*
X90177231Y-140468833D01*
X90244204Y-140569067D01*
X90266530Y-140602479D01*
X90328042Y-140750983D01*
X90359400Y-140908630D01*
X90359400Y-141069370D01*
X90328042Y-141227017D01*
X90266530Y-141375521D01*
X90266529Y-141375522D01*
X90177231Y-141509167D01*
X90063567Y-141622831D01*
X89963333Y-141689805D01*
X89929921Y-141712130D01*
X89781417Y-141773642D01*
X89623770Y-141805000D01*
X89463030Y-141805000D01*
X89305383Y-141773642D01*
X89156879Y-141712130D01*
X89123467Y-141689804D01*
X89023233Y-141622831D01*
X88909569Y-141509167D01*
X88820271Y-141375522D01*
X88820270Y-141375521D01*
X88789515Y-141301270D01*
X88758758Y-141227017D01*
X88727400Y-141069370D01*
X88727400Y-140908630D01*
X88758758Y-140750983D01*
X88820270Y-140602479D01*
X88842596Y-140569067D01*
X88909569Y-140468833D01*
X89023233Y-140355169D01*
X89156878Y-140265871D01*
X89156879Y-140265870D01*
X89231130Y-140235115D01*
X89305383Y-140204358D01*
X89463030Y-140173000D01*
X89623770Y-140173000D01*
X89781417Y-140204358D01*
X89781417Y-140204358D01*
G37*
G36*
X105279400Y-141805000D02*
G01*
X103647400Y-141805000D01*
X103647400Y-140173000D01*
X105279400Y-140173000D01*
X105279400Y-141805000D01*
X105279400Y-141805000D01*
G37*
G36*
X107241417Y-140204358D02*
G01*
X107315670Y-140235115D01*
X107389921Y-140265870D01*
X107389922Y-140265871D01*
X107523567Y-140355169D01*
X107637231Y-140468833D01*
X107704204Y-140569067D01*
X107726530Y-140602479D01*
X107788042Y-140750983D01*
X107819400Y-140908630D01*
X107819400Y-141069370D01*
X107788042Y-141227017D01*
X107726530Y-141375521D01*
X107726529Y-141375522D01*
X107637231Y-141509167D01*
X107523567Y-141622831D01*
X107423333Y-141689805D01*
X107389921Y-141712130D01*
X107241417Y-141773642D01*
X107083770Y-141805000D01*
X106923030Y-141805000D01*
X106765383Y-141773642D01*
X106616879Y-141712130D01*
X106583467Y-141689804D01*
X106483233Y-141622831D01*
X106369569Y-141509167D01*
X106280271Y-141375522D01*
X106280270Y-141375521D01*
X106249515Y-141301270D01*
X106218758Y-141227017D01*
X106187400Y-141069370D01*
X106187400Y-140908630D01*
X106218758Y-140750983D01*
X106280270Y-140602479D01*
X106302596Y-140569067D01*
X106369569Y-140468833D01*
X106483233Y-140355169D01*
X106616878Y-140265871D01*
X106616879Y-140265870D01*
X106691130Y-140235115D01*
X106765383Y-140204358D01*
X106923030Y-140173000D01*
X107083770Y-140173000D01*
X107241417Y-140204358D01*
X107241417Y-140204358D01*
G37*
G36*
X109781417Y-140204358D02*
G01*
X109855670Y-140235115D01*
X109929921Y-140265870D01*
X109929922Y-140265871D01*
X110063567Y-140355169D01*
X110177231Y-140468833D01*
X110244204Y-140569067D01*
X110266530Y-140602479D01*
X110328042Y-140750983D01*
X110359400Y-140908630D01*
X110359400Y-141069370D01*
X110328042Y-141227017D01*
X110266530Y-141375521D01*
X110266529Y-141375522D01*
X110177231Y-141509167D01*
X110063567Y-141622831D01*
X109963333Y-141689805D01*
X109929921Y-141712130D01*
X109781417Y-141773642D01*
X109623770Y-141805000D01*
X109463030Y-141805000D01*
X109305383Y-141773642D01*
X109156879Y-141712130D01*
X109123467Y-141689804D01*
X109023233Y-141622831D01*
X108909569Y-141509167D01*
X108820271Y-141375522D01*
X108820270Y-141375521D01*
X108789515Y-141301270D01*
X108758758Y-141227017D01*
X108727400Y-141069370D01*
X108727400Y-140908630D01*
X108758758Y-140750983D01*
X108820270Y-140602479D01*
X108842596Y-140569067D01*
X108909569Y-140468833D01*
X109023233Y-140355169D01*
X109156878Y-140265871D01*
X109156879Y-140265870D01*
X109231130Y-140235115D01*
X109305383Y-140204358D01*
X109463030Y-140173000D01*
X109623770Y-140173000D01*
X109781417Y-140204358D01*
X109781417Y-140204358D01*
G37*
G36*
X125279400Y-141805000D02*
G01*
X123647400Y-141805000D01*
X123647400Y-140173000D01*
X125279400Y-140173000D01*
X125279400Y-141805000D01*
X125279400Y-141805000D01*
G37*
G36*
X127241417Y-140204358D02*
G01*
X127315670Y-140235115D01*
X127389921Y-140265870D01*
X127389922Y-140265871D01*
X127523567Y-140355169D01*
X127637231Y-140468833D01*
X127704204Y-140569067D01*
X127726530Y-140602479D01*
X127788042Y-140750983D01*
X127819400Y-140908630D01*
X127819400Y-141069370D01*
X127788042Y-141227017D01*
X127726530Y-141375521D01*
X127726529Y-141375522D01*
X127637231Y-141509167D01*
X127523567Y-141622831D01*
X127423333Y-141689805D01*
X127389921Y-141712130D01*
X127241417Y-141773642D01*
X127083770Y-141805000D01*
X126923030Y-141805000D01*
X126765383Y-141773642D01*
X126616879Y-141712130D01*
X126583467Y-141689804D01*
X126483233Y-141622831D01*
X126369569Y-141509167D01*
X126280271Y-141375522D01*
X126280270Y-141375521D01*
X126218758Y-141227017D01*
X126187400Y-141069370D01*
X126187400Y-140908630D01*
X126218758Y-140750983D01*
X126280270Y-140602479D01*
X126302596Y-140569067D01*
X126369569Y-140468833D01*
X126483233Y-140355169D01*
X126616878Y-140265871D01*
X126616879Y-140265870D01*
X126691130Y-140235115D01*
X126765383Y-140204358D01*
X126923030Y-140173000D01*
X127083770Y-140173000D01*
X127241417Y-140204358D01*
X127241417Y-140204358D01*
G37*
G36*
X165279400Y-141805000D02*
G01*
X163647400Y-141805000D01*
X163647400Y-140173000D01*
X165279400Y-140173000D01*
X165279400Y-141805000D01*
X165279400Y-141805000D01*
G37*
G36*
X149781417Y-140204358D02*
G01*
X149855670Y-140235115D01*
X149929921Y-140265870D01*
X149929922Y-140265871D01*
X150063567Y-140355169D01*
X150177231Y-140468833D01*
X150244204Y-140569067D01*
X150266530Y-140602479D01*
X150328042Y-140750983D01*
X150359400Y-140908630D01*
X150359400Y-141069370D01*
X150328042Y-141227017D01*
X150266530Y-141375521D01*
X150266529Y-141375522D01*
X150177231Y-141509167D01*
X150063567Y-141622831D01*
X149963333Y-141689805D01*
X149929921Y-141712130D01*
X149781417Y-141773642D01*
X149623770Y-141805000D01*
X149463030Y-141805000D01*
X149305383Y-141773642D01*
X149156879Y-141712130D01*
X149123467Y-141689804D01*
X149023233Y-141622831D01*
X148909569Y-141509167D01*
X148820271Y-141375522D01*
X148820270Y-141375521D01*
X148758758Y-141227017D01*
X148727400Y-141069370D01*
X148727400Y-140908630D01*
X148758758Y-140750983D01*
X148820270Y-140602479D01*
X148842596Y-140569067D01*
X148909569Y-140468833D01*
X149023233Y-140355169D01*
X149156878Y-140265871D01*
X149156879Y-140265870D01*
X149231130Y-140235115D01*
X149305383Y-140204358D01*
X149463030Y-140173000D01*
X149623770Y-140173000D01*
X149781417Y-140204358D01*
X149781417Y-140204358D01*
G37*
G36*
X147241417Y-140204358D02*
G01*
X147315670Y-140235115D01*
X147389921Y-140265870D01*
X147389922Y-140265871D01*
X147523567Y-140355169D01*
X147637231Y-140468833D01*
X147704204Y-140569067D01*
X147726530Y-140602479D01*
X147788042Y-140750983D01*
X147819400Y-140908630D01*
X147819400Y-141069370D01*
X147788042Y-141227017D01*
X147726530Y-141375521D01*
X147726529Y-141375522D01*
X147637231Y-141509167D01*
X147523567Y-141622831D01*
X147423333Y-141689805D01*
X147389921Y-141712130D01*
X147241417Y-141773642D01*
X147083770Y-141805000D01*
X146923030Y-141805000D01*
X146765383Y-141773642D01*
X146616879Y-141712130D01*
X146583467Y-141689804D01*
X146483233Y-141622831D01*
X146369569Y-141509167D01*
X146280271Y-141375522D01*
X146280270Y-141375521D01*
X146218758Y-141227017D01*
X146187400Y-141069370D01*
X146187400Y-140908630D01*
X146218758Y-140750983D01*
X146280270Y-140602479D01*
X146302596Y-140569067D01*
X146369569Y-140468833D01*
X146483233Y-140355169D01*
X146616878Y-140265871D01*
X146616879Y-140265870D01*
X146691130Y-140235115D01*
X146765383Y-140204358D01*
X146923030Y-140173000D01*
X147083770Y-140173000D01*
X147241417Y-140204358D01*
X147241417Y-140204358D01*
G37*
G36*
X145279400Y-141805000D02*
G01*
X143647400Y-141805000D01*
X143647400Y-140173000D01*
X145279400Y-140173000D01*
X145279400Y-141805000D01*
X145279400Y-141805000D01*
G37*
G36*
X129781417Y-140204358D02*
G01*
X129855670Y-140235115D01*
X129929921Y-140265870D01*
X129929922Y-140265871D01*
X130063567Y-140355169D01*
X130177231Y-140468833D01*
X130244204Y-140569067D01*
X130266530Y-140602479D01*
X130328042Y-140750983D01*
X130359400Y-140908630D01*
X130359400Y-141069370D01*
X130328042Y-141227017D01*
X130266530Y-141375521D01*
X130266529Y-141375522D01*
X130177231Y-141509167D01*
X130063567Y-141622831D01*
X129963333Y-141689805D01*
X129929921Y-141712130D01*
X129781417Y-141773642D01*
X129623770Y-141805000D01*
X129463030Y-141805000D01*
X129305383Y-141773642D01*
X129156879Y-141712130D01*
X129123467Y-141689804D01*
X129023233Y-141622831D01*
X128909569Y-141509167D01*
X128820271Y-141375522D01*
X128820270Y-141375521D01*
X128758758Y-141227017D01*
X128727400Y-141069370D01*
X128727400Y-140908630D01*
X128758758Y-140750983D01*
X128820270Y-140602479D01*
X128842596Y-140569067D01*
X128909569Y-140468833D01*
X129023233Y-140355169D01*
X129156878Y-140265871D01*
X129156879Y-140265870D01*
X129231130Y-140235115D01*
X129305383Y-140204358D01*
X129463030Y-140173000D01*
X129623770Y-140173000D01*
X129781417Y-140204358D01*
X129781417Y-140204358D01*
G37*
G36*
X153634239Y-132811467D02*
G01*
X153948282Y-132873934D01*
X154539926Y-133119001D01*
X155072392Y-133474784D01*
X155525216Y-133927608D01*
X155880999Y-134460074D01*
X156126066Y-135051718D01*
X156251000Y-135679804D01*
X156251000Y-136320196D01*
X156126066Y-136948282D01*
X155880999Y-137539926D01*
X155525216Y-138072392D01*
X155072392Y-138525216D01*
X154539926Y-138880999D01*
X153948282Y-139126066D01*
X153634239Y-139188533D01*
X153320197Y-139251000D01*
X152679803Y-139251000D01*
X152365761Y-139188533D01*
X152051718Y-139126066D01*
X151460074Y-138880999D01*
X150927608Y-138525216D01*
X150474784Y-138072392D01*
X150119001Y-137539926D01*
X149873934Y-136948282D01*
X149749000Y-136320196D01*
X149749000Y-135679804D01*
X149873934Y-135051718D01*
X150119001Y-134460074D01*
X150474784Y-133927608D01*
X150927608Y-133474784D01*
X151460074Y-133119001D01*
X152051718Y-132873934D01*
X152365761Y-132811467D01*
X152679803Y-132749000D01*
X153320197Y-132749000D01*
X153634239Y-132811467D01*
X153634239Y-132811467D01*
G37*
G36*
X173634239Y-132811467D02*
G01*
X173948282Y-132873934D01*
X174539926Y-133119001D01*
X175072392Y-133474784D01*
X175525216Y-133927608D01*
X175880999Y-134460074D01*
X176126066Y-135051718D01*
X176251000Y-135679804D01*
X176251000Y-136320196D01*
X176126066Y-136948282D01*
X175880999Y-137539926D01*
X175525216Y-138072392D01*
X175072392Y-138525216D01*
X174539926Y-138880999D01*
X173948282Y-139126066D01*
X173634239Y-139188533D01*
X173320197Y-139251000D01*
X172679803Y-139251000D01*
X172365761Y-139188533D01*
X172051718Y-139126066D01*
X171460074Y-138880999D01*
X170927608Y-138525216D01*
X170474784Y-138072392D01*
X170119001Y-137539926D01*
X169873934Y-136948282D01*
X169749000Y-136320196D01*
X169749000Y-135679804D01*
X169873934Y-135051718D01*
X170119001Y-134460074D01*
X170474784Y-133927608D01*
X170927608Y-133474784D01*
X171460074Y-133119001D01*
X172051718Y-132873934D01*
X172365761Y-132811467D01*
X172679803Y-132749000D01*
X173320197Y-132749000D01*
X173634239Y-132811467D01*
X173634239Y-132811467D01*
G37*
G36*
X133634239Y-132811467D02*
G01*
X133948282Y-132873934D01*
X134539926Y-133119001D01*
X135072392Y-133474784D01*
X135525216Y-133927608D01*
X135880999Y-134460074D01*
X136126066Y-135051718D01*
X136251000Y-135679804D01*
X136251000Y-136320196D01*
X136126066Y-136948282D01*
X135880999Y-137539926D01*
X135525216Y-138072392D01*
X135072392Y-138525216D01*
X134539926Y-138880999D01*
X133948282Y-139126066D01*
X133634239Y-139188533D01*
X133320197Y-139251000D01*
X132679803Y-139251000D01*
X132365761Y-139188533D01*
X132051718Y-139126066D01*
X131460074Y-138880999D01*
X130927608Y-138525216D01*
X130474784Y-138072392D01*
X130119001Y-137539926D01*
X129873934Y-136948282D01*
X129749000Y-136320196D01*
X129749000Y-135679804D01*
X129873934Y-135051718D01*
X130119001Y-134460074D01*
X130474784Y-133927608D01*
X130927608Y-133474784D01*
X131460074Y-133119001D01*
X132051718Y-132873934D01*
X132365761Y-132811467D01*
X132679803Y-132749000D01*
X133320197Y-132749000D01*
X133634239Y-132811467D01*
X133634239Y-132811467D01*
G37*
G36*
X113634239Y-132811467D02*
G01*
X113948282Y-132873934D01*
X114539926Y-133119001D01*
X115072392Y-133474784D01*
X115525216Y-133927608D01*
X115880999Y-134460074D01*
X116126066Y-135051718D01*
X116251000Y-135679804D01*
X116251000Y-136320196D01*
X116126066Y-136948282D01*
X115880999Y-137539926D01*
X115525216Y-138072392D01*
X115072392Y-138525216D01*
X114539926Y-138880999D01*
X113948282Y-139126066D01*
X113634239Y-139188533D01*
X113320197Y-139251000D01*
X112679803Y-139251000D01*
X112365761Y-139188533D01*
X112051718Y-139126066D01*
X111460074Y-138880999D01*
X110927608Y-138525216D01*
X110474784Y-138072392D01*
X110119001Y-137539926D01*
X109873934Y-136948282D01*
X109749000Y-136320196D01*
X109749000Y-135679804D01*
X109873934Y-135051718D01*
X110119001Y-134460074D01*
X110474784Y-133927608D01*
X110927608Y-133474784D01*
X111460074Y-133119001D01*
X112051718Y-132873934D01*
X112365761Y-132811467D01*
X112679803Y-132749000D01*
X113320197Y-132749000D01*
X113634239Y-132811467D01*
X113634239Y-132811467D01*
G37*
G36*
X93634239Y-132811467D02*
G01*
X93948282Y-132873934D01*
X94539926Y-133119001D01*
X95072392Y-133474784D01*
X95525216Y-133927608D01*
X95880999Y-134460074D01*
X96126066Y-135051718D01*
X96251000Y-135679804D01*
X96251000Y-136320196D01*
X96126066Y-136948282D01*
X95880999Y-137539926D01*
X95525216Y-138072392D01*
X95072392Y-138525216D01*
X94539926Y-138880999D01*
X93948282Y-139126066D01*
X93634239Y-139188533D01*
X93320197Y-139251000D01*
X92679803Y-139251000D01*
X92365761Y-139188533D01*
X92051718Y-139126066D01*
X91460074Y-138880999D01*
X90927608Y-138525216D01*
X90474784Y-138072392D01*
X90119001Y-137539926D01*
X89873934Y-136948282D01*
X89749000Y-136320196D01*
X89749000Y-135679804D01*
X89873934Y-135051718D01*
X90119001Y-134460074D01*
X90474784Y-133927608D01*
X90927608Y-133474784D01*
X91460074Y-133119001D01*
X92051718Y-132873934D01*
X92365761Y-132811467D01*
X92679803Y-132749000D01*
X93320197Y-132749000D01*
X93634239Y-132811467D01*
X93634239Y-132811467D01*
G37*
G36*
X161634239Y-132811467D02*
G01*
X161948282Y-132873934D01*
X162539926Y-133119001D01*
X163072392Y-133474784D01*
X163525216Y-133927608D01*
X163880999Y-134460074D01*
X164126066Y-135051718D01*
X164251000Y-135679804D01*
X164251000Y-136320196D01*
X164126066Y-136948282D01*
X163880999Y-137539926D01*
X163525216Y-138072392D01*
X163072392Y-138525216D01*
X162539926Y-138880999D01*
X161948282Y-139126066D01*
X161634239Y-139188533D01*
X161320197Y-139251000D01*
X160679803Y-139251000D01*
X160365761Y-139188533D01*
X160051718Y-139126066D01*
X159460074Y-138880999D01*
X158927608Y-138525216D01*
X158474784Y-138072392D01*
X158119001Y-137539926D01*
X157873934Y-136948282D01*
X157749000Y-136320196D01*
X157749000Y-135679804D01*
X157873934Y-135051718D01*
X158119001Y-134460074D01*
X158474784Y-133927608D01*
X158927608Y-133474784D01*
X159460074Y-133119001D01*
X160051718Y-132873934D01*
X160365761Y-132811467D01*
X160679803Y-132749000D01*
X161320197Y-132749000D01*
X161634239Y-132811467D01*
X161634239Y-132811467D01*
G37*
G36*
X141634239Y-132811467D02*
G01*
X141948282Y-132873934D01*
X142539926Y-133119001D01*
X143072392Y-133474784D01*
X143525216Y-133927608D01*
X143880999Y-134460074D01*
X144126066Y-135051718D01*
X144251000Y-135679804D01*
X144251000Y-136320196D01*
X144126066Y-136948282D01*
X143880999Y-137539926D01*
X143525216Y-138072392D01*
X143072392Y-138525216D01*
X142539926Y-138880999D01*
X141948282Y-139126066D01*
X141634239Y-139188533D01*
X141320197Y-139251000D01*
X140679803Y-139251000D01*
X140365761Y-139188533D01*
X140051718Y-139126066D01*
X139460074Y-138880999D01*
X138927608Y-138525216D01*
X138474784Y-138072392D01*
X138119001Y-137539926D01*
X137873934Y-136948282D01*
X137749000Y-136320196D01*
X137749000Y-135679804D01*
X137873934Y-135051718D01*
X138119001Y-134460074D01*
X138474784Y-133927608D01*
X138927608Y-133474784D01*
X139460074Y-133119001D01*
X140051718Y-132873934D01*
X140365761Y-132811467D01*
X140679803Y-132749000D01*
X141320197Y-132749000D01*
X141634239Y-132811467D01*
X141634239Y-132811467D01*
G37*
G36*
X121634239Y-132811467D02*
G01*
X121948282Y-132873934D01*
X122539926Y-133119001D01*
X123072392Y-133474784D01*
X123525216Y-133927608D01*
X123880999Y-134460074D01*
X124126066Y-135051718D01*
X124251000Y-135679804D01*
X124251000Y-136320196D01*
X124126066Y-136948282D01*
X123880999Y-137539926D01*
X123525216Y-138072392D01*
X123072392Y-138525216D01*
X122539926Y-138880999D01*
X121948282Y-139126066D01*
X121634239Y-139188533D01*
X121320197Y-139251000D01*
X120679803Y-139251000D01*
X120365761Y-139188533D01*
X120051718Y-139126066D01*
X119460074Y-138880999D01*
X118927608Y-138525216D01*
X118474784Y-138072392D01*
X118119001Y-137539926D01*
X117873934Y-136948282D01*
X117749000Y-136320196D01*
X117749000Y-135679804D01*
X117873934Y-135051718D01*
X118119001Y-134460074D01*
X118474784Y-133927608D01*
X118927608Y-133474784D01*
X119460074Y-133119001D01*
X120051718Y-132873934D01*
X120365761Y-132811467D01*
X120679803Y-132749000D01*
X121320197Y-132749000D01*
X121634239Y-132811467D01*
X121634239Y-132811467D01*
G37*
G36*
X101634239Y-132811467D02*
G01*
X101948282Y-132873934D01*
X102539926Y-133119001D01*
X103072392Y-133474784D01*
X103525216Y-133927608D01*
X103880999Y-134460074D01*
X104126066Y-135051718D01*
X104251000Y-135679804D01*
X104251000Y-136320196D01*
X104126066Y-136948282D01*
X103880999Y-137539926D01*
X103525216Y-138072392D01*
X103072392Y-138525216D01*
X102539926Y-138880999D01*
X101948282Y-139126066D01*
X101634239Y-139188533D01*
X101320197Y-139251000D01*
X100679803Y-139251000D01*
X100365761Y-139188533D01*
X100051718Y-139126066D01*
X99460074Y-138880999D01*
X98927608Y-138525216D01*
X98474784Y-138072392D01*
X98119001Y-137539926D01*
X97873934Y-136948282D01*
X97749000Y-136320196D01*
X97749000Y-135679804D01*
X97873934Y-135051718D01*
X98119001Y-134460074D01*
X98474784Y-133927608D01*
X98927608Y-133474784D01*
X99460074Y-133119001D01*
X100051718Y-132873934D01*
X100365761Y-132811467D01*
X100679803Y-132749000D01*
X101320197Y-132749000D01*
X101634239Y-132811467D01*
X101634239Y-132811467D01*
G37*
G36*
X81634239Y-132811467D02*
G01*
X81948282Y-132873934D01*
X82539926Y-133119001D01*
X83072392Y-133474784D01*
X83525216Y-133927608D01*
X83880999Y-134460074D01*
X84126066Y-135051718D01*
X84251000Y-135679804D01*
X84251000Y-136320196D01*
X84126066Y-136948282D01*
X83880999Y-137539926D01*
X83525216Y-138072392D01*
X83072392Y-138525216D01*
X82539926Y-138880999D01*
X81948282Y-139126066D01*
X81634239Y-139188533D01*
X81320197Y-139251000D01*
X80679803Y-139251000D01*
X80365761Y-139188533D01*
X80051718Y-139126066D01*
X79460074Y-138880999D01*
X78927608Y-138525216D01*
X78474784Y-138072392D01*
X78119001Y-137539926D01*
X77873934Y-136948282D01*
X77749000Y-136320196D01*
X77749000Y-135679804D01*
X77873934Y-135051718D01*
X78119001Y-134460074D01*
X78474784Y-133927608D01*
X78927608Y-133474784D01*
X79460074Y-133119001D01*
X80051718Y-132873934D01*
X80365761Y-132811467D01*
X80679803Y-132749000D01*
X81320197Y-132749000D01*
X81634239Y-132811467D01*
X81634239Y-132811467D01*
G37*
G36*
X129781417Y-127204358D02*
G01*
X129929921Y-127265870D01*
X129929922Y-127265871D01*
X130063567Y-127355169D01*
X130177231Y-127468833D01*
X130244204Y-127569067D01*
X130266530Y-127602479D01*
X130328042Y-127750983D01*
X130359400Y-127908630D01*
X130359400Y-128069370D01*
X130328042Y-128227017D01*
X130266530Y-128375521D01*
X130266529Y-128375522D01*
X130177231Y-128509167D01*
X130063567Y-128622831D01*
X129963333Y-128689804D01*
X129929921Y-128712130D01*
X129855670Y-128742885D01*
X129781417Y-128773642D01*
X129623770Y-128805000D01*
X129463030Y-128805000D01*
X129305383Y-128773642D01*
X129231130Y-128742885D01*
X129156879Y-128712130D01*
X129123467Y-128689804D01*
X129023233Y-128622831D01*
X128909569Y-128509167D01*
X128820271Y-128375522D01*
X128820270Y-128375521D01*
X128758758Y-128227017D01*
X128727400Y-128069370D01*
X128727400Y-127908630D01*
X128758758Y-127750983D01*
X128789515Y-127676730D01*
X128820270Y-127602479D01*
X128842596Y-127569067D01*
X128909569Y-127468833D01*
X129023233Y-127355169D01*
X129156878Y-127265871D01*
X129156879Y-127265870D01*
X129305383Y-127204358D01*
X129463030Y-127173000D01*
X129623770Y-127173000D01*
X129781417Y-127204358D01*
X129781417Y-127204358D01*
G37*
G36*
X147241417Y-127204358D02*
G01*
X147389921Y-127265870D01*
X147389922Y-127265871D01*
X147523567Y-127355169D01*
X147637231Y-127468833D01*
X147704204Y-127569067D01*
X147726530Y-127602479D01*
X147788042Y-127750983D01*
X147819400Y-127908630D01*
X147819400Y-128069370D01*
X147788042Y-128227017D01*
X147726530Y-128375521D01*
X147726529Y-128375522D01*
X147637231Y-128509167D01*
X147523567Y-128622831D01*
X147423333Y-128689804D01*
X147389921Y-128712130D01*
X147315670Y-128742885D01*
X147241417Y-128773642D01*
X147083770Y-128805000D01*
X146923030Y-128805000D01*
X146765383Y-128773642D01*
X146691130Y-128742885D01*
X146616879Y-128712130D01*
X146583467Y-128689804D01*
X146483233Y-128622831D01*
X146369569Y-128509167D01*
X146280271Y-128375522D01*
X146280270Y-128375521D01*
X146218758Y-128227017D01*
X146187400Y-128069370D01*
X146187400Y-127908630D01*
X146218758Y-127750983D01*
X146249515Y-127676730D01*
X146280270Y-127602479D01*
X146302596Y-127569067D01*
X146369569Y-127468833D01*
X146483233Y-127355169D01*
X146616878Y-127265871D01*
X146616879Y-127265870D01*
X146765383Y-127204358D01*
X146923030Y-127173000D01*
X147083770Y-127173000D01*
X147241417Y-127204358D01*
X147241417Y-127204358D01*
G37*
G36*
X149781417Y-127204358D02*
G01*
X149929921Y-127265870D01*
X149929922Y-127265871D01*
X150063567Y-127355169D01*
X150177231Y-127468833D01*
X150244204Y-127569067D01*
X150266530Y-127602479D01*
X150328042Y-127750983D01*
X150359400Y-127908630D01*
X150359400Y-128069370D01*
X150328042Y-128227017D01*
X150266530Y-128375521D01*
X150266529Y-128375522D01*
X150177231Y-128509167D01*
X150063567Y-128622831D01*
X149963333Y-128689804D01*
X149929921Y-128712130D01*
X149855670Y-128742885D01*
X149781417Y-128773642D01*
X149623770Y-128805000D01*
X149463030Y-128805000D01*
X149305383Y-128773642D01*
X149231130Y-128742885D01*
X149156879Y-128712130D01*
X149123467Y-128689804D01*
X149023233Y-128622831D01*
X148909569Y-128509167D01*
X148820271Y-128375522D01*
X148820270Y-128375521D01*
X148758758Y-128227017D01*
X148727400Y-128069370D01*
X148727400Y-127908630D01*
X148758758Y-127750983D01*
X148789515Y-127676730D01*
X148820270Y-127602479D01*
X148842596Y-127569067D01*
X148909569Y-127468833D01*
X149023233Y-127355169D01*
X149156878Y-127265871D01*
X149156879Y-127265870D01*
X149305383Y-127204358D01*
X149463030Y-127173000D01*
X149623770Y-127173000D01*
X149781417Y-127204358D01*
X149781417Y-127204358D01*
G37*
G36*
X165279400Y-128805000D02*
G01*
X163647400Y-128805000D01*
X163647400Y-127173000D01*
X165279400Y-127173000D01*
X165279400Y-128805000D01*
X165279400Y-128805000D01*
G37*
G36*
X167241417Y-127204358D02*
G01*
X167389921Y-127265870D01*
X167389922Y-127265871D01*
X167523567Y-127355169D01*
X167637231Y-127468833D01*
X167704204Y-127569067D01*
X167726530Y-127602479D01*
X167788042Y-127750983D01*
X167819400Y-127908630D01*
X167819400Y-128069370D01*
X167788042Y-128227017D01*
X167726530Y-128375521D01*
X167726529Y-128375522D01*
X167637231Y-128509167D01*
X167523567Y-128622831D01*
X167423333Y-128689804D01*
X167389921Y-128712130D01*
X167315670Y-128742885D01*
X167241417Y-128773642D01*
X167083770Y-128805000D01*
X166923030Y-128805000D01*
X166765383Y-128773642D01*
X166691130Y-128742885D01*
X166616879Y-128712130D01*
X166583467Y-128689804D01*
X166483233Y-128622831D01*
X166369569Y-128509167D01*
X166280271Y-128375522D01*
X166280270Y-128375521D01*
X166218758Y-128227017D01*
X166187400Y-128069370D01*
X166187400Y-127908630D01*
X166218758Y-127750983D01*
X166249515Y-127676730D01*
X166280270Y-127602479D01*
X166302596Y-127569067D01*
X166369569Y-127468833D01*
X166483233Y-127355169D01*
X166616878Y-127265871D01*
X166616879Y-127265870D01*
X166765383Y-127204358D01*
X166923030Y-127173000D01*
X167083770Y-127173000D01*
X167241417Y-127204358D01*
X167241417Y-127204358D01*
G37*
G36*
X169781417Y-127204358D02*
G01*
X169929921Y-127265870D01*
X169929922Y-127265871D01*
X170063567Y-127355169D01*
X170177231Y-127468833D01*
X170244204Y-127569067D01*
X170266530Y-127602479D01*
X170328042Y-127750983D01*
X170359400Y-127908630D01*
X170359400Y-128069370D01*
X170328042Y-128227017D01*
X170266530Y-128375521D01*
X170266529Y-128375522D01*
X170177231Y-128509167D01*
X170063567Y-128622831D01*
X169963333Y-128689804D01*
X169929921Y-128712130D01*
X169855670Y-128742885D01*
X169781417Y-128773642D01*
X169623770Y-128805000D01*
X169463030Y-128805000D01*
X169305383Y-128773642D01*
X169231130Y-128742885D01*
X169156879Y-128712130D01*
X169123467Y-128689804D01*
X169023233Y-128622831D01*
X168909569Y-128509167D01*
X168820271Y-128375522D01*
X168820270Y-128375521D01*
X168758758Y-128227017D01*
X168727400Y-128069370D01*
X168727400Y-127908630D01*
X168758758Y-127750983D01*
X168789515Y-127676730D01*
X168820270Y-127602479D01*
X168842596Y-127569067D01*
X168909569Y-127468833D01*
X169023233Y-127355169D01*
X169156878Y-127265871D01*
X169156879Y-127265870D01*
X169305383Y-127204358D01*
X169463030Y-127173000D01*
X169623770Y-127173000D01*
X169781417Y-127204358D01*
X169781417Y-127204358D01*
G37*
G36*
X127241417Y-127204358D02*
G01*
X127389921Y-127265870D01*
X127389922Y-127265871D01*
X127523567Y-127355169D01*
X127637231Y-127468833D01*
X127704204Y-127569067D01*
X127726530Y-127602479D01*
X127788042Y-127750983D01*
X127819400Y-127908630D01*
X127819400Y-128069370D01*
X127788042Y-128227017D01*
X127726530Y-128375521D01*
X127726529Y-128375522D01*
X127637231Y-128509167D01*
X127523567Y-128622831D01*
X127423333Y-128689804D01*
X127389921Y-128712130D01*
X127315670Y-128742885D01*
X127241417Y-128773642D01*
X127083770Y-128805000D01*
X126923030Y-128805000D01*
X126765383Y-128773642D01*
X126691130Y-128742885D01*
X126616879Y-128712130D01*
X126583467Y-128689804D01*
X126483233Y-128622831D01*
X126369569Y-128509167D01*
X126280271Y-128375522D01*
X126280270Y-128375521D01*
X126218758Y-128227017D01*
X126187400Y-128069370D01*
X126187400Y-127908630D01*
X126218758Y-127750983D01*
X126249515Y-127676730D01*
X126280270Y-127602479D01*
X126302596Y-127569067D01*
X126369569Y-127468833D01*
X126483233Y-127355169D01*
X126616878Y-127265871D01*
X126616879Y-127265870D01*
X126765383Y-127204358D01*
X126923030Y-127173000D01*
X127083770Y-127173000D01*
X127241417Y-127204358D01*
X127241417Y-127204358D01*
G37*
G36*
X125279400Y-128805000D02*
G01*
X123647400Y-128805000D01*
X123647400Y-127173000D01*
X125279400Y-127173000D01*
X125279400Y-128805000D01*
X125279400Y-128805000D01*
G37*
G36*
X109781417Y-127204358D02*
G01*
X109929921Y-127265870D01*
X109929922Y-127265871D01*
X110063567Y-127355169D01*
X110177231Y-127468833D01*
X110244204Y-127569067D01*
X110266530Y-127602479D01*
X110297285Y-127676730D01*
X110328042Y-127750983D01*
X110359400Y-127908630D01*
X110359400Y-128069370D01*
X110328042Y-128227017D01*
X110266530Y-128375521D01*
X110266529Y-128375522D01*
X110177231Y-128509167D01*
X110063567Y-128622831D01*
X109963333Y-128689804D01*
X109929921Y-128712130D01*
X109855670Y-128742885D01*
X109781417Y-128773642D01*
X109623770Y-128805000D01*
X109463030Y-128805000D01*
X109305383Y-128773642D01*
X109231130Y-128742885D01*
X109156879Y-128712130D01*
X109123467Y-128689804D01*
X109023233Y-128622831D01*
X108909569Y-128509167D01*
X108820271Y-128375522D01*
X108820270Y-128375521D01*
X108758758Y-128227017D01*
X108727400Y-128069370D01*
X108727400Y-127908630D01*
X108758758Y-127750983D01*
X108789515Y-127676730D01*
X108820270Y-127602479D01*
X108842596Y-127569067D01*
X108909569Y-127468833D01*
X109023233Y-127355169D01*
X109156878Y-127265871D01*
X109156879Y-127265870D01*
X109305383Y-127204358D01*
X109463030Y-127173000D01*
X109623770Y-127173000D01*
X109781417Y-127204358D01*
X109781417Y-127204358D01*
G37*
G36*
X107241417Y-127204358D02*
G01*
X107389921Y-127265870D01*
X107389922Y-127265871D01*
X107523567Y-127355169D01*
X107637231Y-127468833D01*
X107704204Y-127569067D01*
X107726530Y-127602479D01*
X107757285Y-127676730D01*
X107788042Y-127750983D01*
X107819400Y-127908630D01*
X107819400Y-128069370D01*
X107788042Y-128227017D01*
X107726530Y-128375521D01*
X107726529Y-128375522D01*
X107637231Y-128509167D01*
X107523567Y-128622831D01*
X107423333Y-128689804D01*
X107389921Y-128712130D01*
X107315670Y-128742885D01*
X107241417Y-128773642D01*
X107083770Y-128805000D01*
X106923030Y-128805000D01*
X106765383Y-128773642D01*
X106691130Y-128742885D01*
X106616879Y-128712130D01*
X106583467Y-128689804D01*
X106483233Y-128622831D01*
X106369569Y-128509167D01*
X106280271Y-128375522D01*
X106280270Y-128375521D01*
X106218758Y-128227017D01*
X106187400Y-128069370D01*
X106187400Y-127908630D01*
X106218758Y-127750983D01*
X106249515Y-127676730D01*
X106280270Y-127602479D01*
X106302596Y-127569067D01*
X106369569Y-127468833D01*
X106483233Y-127355169D01*
X106616878Y-127265871D01*
X106616879Y-127265870D01*
X106765383Y-127204358D01*
X106923030Y-127173000D01*
X107083770Y-127173000D01*
X107241417Y-127204358D01*
X107241417Y-127204358D01*
G37*
G36*
X105279400Y-128805000D02*
G01*
X103647400Y-128805000D01*
X103647400Y-127173000D01*
X105279400Y-127173000D01*
X105279400Y-128805000D01*
X105279400Y-128805000D01*
G37*
G36*
X89781417Y-127204358D02*
G01*
X89929921Y-127265870D01*
X89929922Y-127265871D01*
X90063567Y-127355169D01*
X90177231Y-127468833D01*
X90244204Y-127569067D01*
X90266530Y-127602479D01*
X90297285Y-127676730D01*
X90328042Y-127750983D01*
X90359400Y-127908630D01*
X90359400Y-128069370D01*
X90328042Y-128227017D01*
X90266530Y-128375521D01*
X90266529Y-128375522D01*
X90177231Y-128509167D01*
X90063567Y-128622831D01*
X89963333Y-128689804D01*
X89929921Y-128712130D01*
X89855670Y-128742885D01*
X89781417Y-128773642D01*
X89623770Y-128805000D01*
X89463030Y-128805000D01*
X89305383Y-128773642D01*
X89231130Y-128742885D01*
X89156879Y-128712130D01*
X89123467Y-128689804D01*
X89023233Y-128622831D01*
X88909569Y-128509167D01*
X88820271Y-128375522D01*
X88820270Y-128375521D01*
X88758758Y-128227017D01*
X88727400Y-128069370D01*
X88727400Y-127908630D01*
X88758758Y-127750983D01*
X88789515Y-127676730D01*
X88820270Y-127602479D01*
X88842596Y-127569067D01*
X88909569Y-127468833D01*
X89023233Y-127355169D01*
X89156878Y-127265871D01*
X89156879Y-127265870D01*
X89305383Y-127204358D01*
X89463030Y-127173000D01*
X89623770Y-127173000D01*
X89781417Y-127204358D01*
X89781417Y-127204358D01*
G37*
G36*
X87241417Y-127204358D02*
G01*
X87389921Y-127265870D01*
X87389922Y-127265871D01*
X87523567Y-127355169D01*
X87637231Y-127468833D01*
X87704204Y-127569067D01*
X87726530Y-127602479D01*
X87757285Y-127676730D01*
X87788042Y-127750983D01*
X87819400Y-127908630D01*
X87819400Y-128069370D01*
X87788042Y-128227017D01*
X87726530Y-128375521D01*
X87726529Y-128375522D01*
X87637231Y-128509167D01*
X87523567Y-128622831D01*
X87423333Y-128689804D01*
X87389921Y-128712130D01*
X87315670Y-128742885D01*
X87241417Y-128773642D01*
X87083770Y-128805000D01*
X86923030Y-128805000D01*
X86765383Y-128773642D01*
X86691130Y-128742885D01*
X86616879Y-128712130D01*
X86583467Y-128689804D01*
X86483233Y-128622831D01*
X86369569Y-128509167D01*
X86280271Y-128375522D01*
X86280270Y-128375521D01*
X86218758Y-128227017D01*
X86187400Y-128069370D01*
X86187400Y-127908630D01*
X86218758Y-127750983D01*
X86249515Y-127676730D01*
X86280270Y-127602479D01*
X86302596Y-127569067D01*
X86369569Y-127468833D01*
X86483233Y-127355169D01*
X86616878Y-127265871D01*
X86616879Y-127265870D01*
X86765383Y-127204358D01*
X86923030Y-127173000D01*
X87083770Y-127173000D01*
X87241417Y-127204358D01*
X87241417Y-127204358D01*
G37*
G36*
X85279400Y-128805000D02*
G01*
X83647400Y-128805000D01*
X83647400Y-127173000D01*
X85279400Y-127173000D01*
X85279400Y-128805000D01*
X85279400Y-128805000D01*
G37*
G36*
X145279400Y-128805000D02*
G01*
X143647400Y-128805000D01*
X143647400Y-127173000D01*
X145279400Y-127173000D01*
X145279400Y-128805000D01*
X145279400Y-128805000D01*
G37*
G36*
X133634239Y-119811467D02*
G01*
X133948282Y-119873934D01*
X134539926Y-120119001D01*
X135072392Y-120474784D01*
X135525216Y-120927608D01*
X135880999Y-121460074D01*
X136126066Y-122051718D01*
X136251000Y-122679804D01*
X136251000Y-123320196D01*
X136126066Y-123948282D01*
X135880999Y-124539926D01*
X135525216Y-125072392D01*
X135072392Y-125525216D01*
X134539926Y-125880999D01*
X133948282Y-126126066D01*
X133634239Y-126188533D01*
X133320197Y-126251000D01*
X132679803Y-126251000D01*
X132365761Y-126188533D01*
X132051718Y-126126066D01*
X131460074Y-125880999D01*
X130927608Y-125525216D01*
X130474784Y-125072392D01*
X130119001Y-124539926D01*
X129873934Y-123948282D01*
X129749000Y-123320196D01*
X129749000Y-122679804D01*
X129873934Y-122051718D01*
X130119001Y-121460074D01*
X130474784Y-120927608D01*
X130927608Y-120474784D01*
X131460074Y-120119001D01*
X132051718Y-119873934D01*
X132365761Y-119811467D01*
X132679803Y-119749000D01*
X133320197Y-119749000D01*
X133634239Y-119811467D01*
X133634239Y-119811467D01*
G37*
G36*
X141634239Y-119811467D02*
G01*
X141948282Y-119873934D01*
X142539926Y-120119001D01*
X143072392Y-120474784D01*
X143525216Y-120927608D01*
X143880999Y-121460074D01*
X144126066Y-122051718D01*
X144251000Y-122679804D01*
X144251000Y-123320196D01*
X144126066Y-123948282D01*
X143880999Y-124539926D01*
X143525216Y-125072392D01*
X143072392Y-125525216D01*
X142539926Y-125880999D01*
X141948282Y-126126066D01*
X141634239Y-126188533D01*
X141320197Y-126251000D01*
X140679803Y-126251000D01*
X140365761Y-126188533D01*
X140051718Y-126126066D01*
X139460074Y-125880999D01*
X138927608Y-125525216D01*
X138474784Y-125072392D01*
X138119001Y-124539926D01*
X137873934Y-123948282D01*
X137749000Y-123320196D01*
X137749000Y-122679804D01*
X137873934Y-122051718D01*
X138119001Y-121460074D01*
X138474784Y-120927608D01*
X138927608Y-120474784D01*
X139460074Y-120119001D01*
X140051718Y-119873934D01*
X140365761Y-119811467D01*
X140679803Y-119749000D01*
X141320197Y-119749000D01*
X141634239Y-119811467D01*
X141634239Y-119811467D01*
G37*
G36*
X153634239Y-119811467D02*
G01*
X153948282Y-119873934D01*
X154539926Y-120119001D01*
X155072392Y-120474784D01*
X155525216Y-120927608D01*
X155880999Y-121460074D01*
X156126066Y-122051718D01*
X156251000Y-122679804D01*
X156251000Y-123320196D01*
X156126066Y-123948282D01*
X155880999Y-124539926D01*
X155525216Y-125072392D01*
X155072392Y-125525216D01*
X154539926Y-125880999D01*
X153948282Y-126126066D01*
X153634239Y-126188533D01*
X153320197Y-126251000D01*
X152679803Y-126251000D01*
X152365761Y-126188533D01*
X152051718Y-126126066D01*
X151460074Y-125880999D01*
X150927608Y-125525216D01*
X150474784Y-125072392D01*
X150119001Y-124539926D01*
X149873934Y-123948282D01*
X149749000Y-123320196D01*
X149749000Y-122679804D01*
X149873934Y-122051718D01*
X150119001Y-121460074D01*
X150474784Y-120927608D01*
X150927608Y-120474784D01*
X151460074Y-120119001D01*
X152051718Y-119873934D01*
X152365761Y-119811467D01*
X152679803Y-119749000D01*
X153320197Y-119749000D01*
X153634239Y-119811467D01*
X153634239Y-119811467D01*
G37*
G36*
X161634239Y-119811467D02*
G01*
X161948282Y-119873934D01*
X162539926Y-120119001D01*
X163072392Y-120474784D01*
X163525216Y-120927608D01*
X163880999Y-121460074D01*
X164126066Y-122051718D01*
X164251000Y-122679804D01*
X164251000Y-123320196D01*
X164126066Y-123948282D01*
X163880999Y-124539926D01*
X163525216Y-125072392D01*
X163072392Y-125525216D01*
X162539926Y-125880999D01*
X161948282Y-126126066D01*
X161634239Y-126188533D01*
X161320197Y-126251000D01*
X160679803Y-126251000D01*
X160365761Y-126188533D01*
X160051718Y-126126066D01*
X159460074Y-125880999D01*
X158927608Y-125525216D01*
X158474784Y-125072392D01*
X158119001Y-124539926D01*
X157873934Y-123948282D01*
X157749000Y-123320196D01*
X157749000Y-122679804D01*
X157873934Y-122051718D01*
X158119001Y-121460074D01*
X158474784Y-120927608D01*
X158927608Y-120474784D01*
X159460074Y-120119001D01*
X160051718Y-119873934D01*
X160365761Y-119811467D01*
X160679803Y-119749000D01*
X161320197Y-119749000D01*
X161634239Y-119811467D01*
X161634239Y-119811467D01*
G37*
G36*
X173634239Y-119811467D02*
G01*
X173948282Y-119873934D01*
X174539926Y-120119001D01*
X175072392Y-120474784D01*
X175525216Y-120927608D01*
X175880999Y-121460074D01*
X176126066Y-122051718D01*
X176251000Y-122679804D01*
X176251000Y-123320196D01*
X176126066Y-123948282D01*
X175880999Y-124539926D01*
X175525216Y-125072392D01*
X175072392Y-125525216D01*
X174539926Y-125880999D01*
X173948282Y-126126066D01*
X173634239Y-126188533D01*
X173320197Y-126251000D01*
X172679803Y-126251000D01*
X172365761Y-126188533D01*
X172051718Y-126126066D01*
X171460074Y-125880999D01*
X170927608Y-125525216D01*
X170474784Y-125072392D01*
X170119001Y-124539926D01*
X169873934Y-123948282D01*
X169749000Y-123320196D01*
X169749000Y-122679804D01*
X169873934Y-122051718D01*
X170119001Y-121460074D01*
X170474784Y-120927608D01*
X170927608Y-120474784D01*
X171460074Y-120119001D01*
X172051718Y-119873934D01*
X172365761Y-119811467D01*
X172679803Y-119749000D01*
X173320197Y-119749000D01*
X173634239Y-119811467D01*
X173634239Y-119811467D01*
G37*
G36*
X121634239Y-119811467D02*
G01*
X121948282Y-119873934D01*
X122539926Y-120119001D01*
X123072392Y-120474784D01*
X123525216Y-120927608D01*
X123880999Y-121460074D01*
X124126066Y-122051718D01*
X124251000Y-122679804D01*
X124251000Y-123320196D01*
X124126066Y-123948282D01*
X123880999Y-124539926D01*
X123525216Y-125072392D01*
X123072392Y-125525216D01*
X122539926Y-125880999D01*
X121948282Y-126126066D01*
X121634239Y-126188533D01*
X121320197Y-126251000D01*
X120679803Y-126251000D01*
X120365761Y-126188533D01*
X120051718Y-126126066D01*
X119460074Y-125880999D01*
X118927608Y-125525216D01*
X118474784Y-125072392D01*
X118119001Y-124539926D01*
X117873934Y-123948282D01*
X117749000Y-123320196D01*
X117749000Y-122679804D01*
X117873934Y-122051718D01*
X118119001Y-121460074D01*
X118474784Y-120927608D01*
X118927608Y-120474784D01*
X119460074Y-120119001D01*
X120051718Y-119873934D01*
X120365761Y-119811467D01*
X120679803Y-119749000D01*
X121320197Y-119749000D01*
X121634239Y-119811467D01*
X121634239Y-119811467D01*
G37*
G36*
X113634239Y-119811467D02*
G01*
X113948282Y-119873934D01*
X114539926Y-120119001D01*
X115072392Y-120474784D01*
X115525216Y-120927608D01*
X115880999Y-121460074D01*
X116126066Y-122051718D01*
X116251000Y-122679804D01*
X116251000Y-123320196D01*
X116126066Y-123948282D01*
X115880999Y-124539926D01*
X115525216Y-125072392D01*
X115072392Y-125525216D01*
X114539926Y-125880999D01*
X113948282Y-126126066D01*
X113634239Y-126188533D01*
X113320197Y-126251000D01*
X112679803Y-126251000D01*
X112365761Y-126188533D01*
X112051718Y-126126066D01*
X111460074Y-125880999D01*
X110927608Y-125525216D01*
X110474784Y-125072392D01*
X110119001Y-124539926D01*
X109873934Y-123948282D01*
X109749000Y-123320196D01*
X109749000Y-122679804D01*
X109873934Y-122051718D01*
X110119001Y-121460074D01*
X110474784Y-120927608D01*
X110927608Y-120474784D01*
X111460074Y-120119001D01*
X112051718Y-119873934D01*
X112365761Y-119811467D01*
X112679803Y-119749000D01*
X113320197Y-119749000D01*
X113634239Y-119811467D01*
X113634239Y-119811467D01*
G37*
G36*
X101634239Y-119811467D02*
G01*
X101948282Y-119873934D01*
X102539926Y-120119001D01*
X103072392Y-120474784D01*
X103525216Y-120927608D01*
X103880999Y-121460074D01*
X104126066Y-122051718D01*
X104251000Y-122679804D01*
X104251000Y-123320196D01*
X104126066Y-123948282D01*
X103880999Y-124539926D01*
X103525216Y-125072392D01*
X103072392Y-125525216D01*
X102539926Y-125880999D01*
X101948282Y-126126066D01*
X101634239Y-126188533D01*
X101320197Y-126251000D01*
X100679803Y-126251000D01*
X100365761Y-126188533D01*
X100051718Y-126126066D01*
X99460074Y-125880999D01*
X98927608Y-125525216D01*
X98474784Y-125072392D01*
X98119001Y-124539926D01*
X97873934Y-123948282D01*
X97749000Y-123320196D01*
X97749000Y-122679804D01*
X97873934Y-122051718D01*
X98119001Y-121460074D01*
X98474784Y-120927608D01*
X98927608Y-120474784D01*
X99460074Y-120119001D01*
X100051718Y-119873934D01*
X100365761Y-119811467D01*
X100679803Y-119749000D01*
X101320197Y-119749000D01*
X101634239Y-119811467D01*
X101634239Y-119811467D01*
G37*
G36*
X93634239Y-119811467D02*
G01*
X93948282Y-119873934D01*
X94539926Y-120119001D01*
X95072392Y-120474784D01*
X95525216Y-120927608D01*
X95880999Y-121460074D01*
X96126066Y-122051718D01*
X96251000Y-122679804D01*
X96251000Y-123320196D01*
X96126066Y-123948282D01*
X95880999Y-124539926D01*
X95525216Y-125072392D01*
X95072392Y-125525216D01*
X94539926Y-125880999D01*
X93948282Y-126126066D01*
X93634239Y-126188533D01*
X93320197Y-126251000D01*
X92679803Y-126251000D01*
X92365761Y-126188533D01*
X92051718Y-126126066D01*
X91460074Y-125880999D01*
X90927608Y-125525216D01*
X90474784Y-125072392D01*
X90119001Y-124539926D01*
X89873934Y-123948282D01*
X89749000Y-123320196D01*
X89749000Y-122679804D01*
X89873934Y-122051718D01*
X90119001Y-121460074D01*
X90474784Y-120927608D01*
X90927608Y-120474784D01*
X91460074Y-120119001D01*
X92051718Y-119873934D01*
X92365761Y-119811467D01*
X92679803Y-119749000D01*
X93320197Y-119749000D01*
X93634239Y-119811467D01*
X93634239Y-119811467D01*
G37*
G36*
X81634239Y-119811467D02*
G01*
X81948282Y-119873934D01*
X82539926Y-120119001D01*
X83072392Y-120474784D01*
X83525216Y-120927608D01*
X83880999Y-121460074D01*
X84126066Y-122051718D01*
X84251000Y-122679804D01*
X84251000Y-123320196D01*
X84126066Y-123948282D01*
X83880999Y-124539926D01*
X83525216Y-125072392D01*
X83072392Y-125525216D01*
X82539926Y-125880999D01*
X81948282Y-126126066D01*
X81634239Y-126188533D01*
X81320197Y-126251000D01*
X80679803Y-126251000D01*
X80365761Y-126188533D01*
X80051718Y-126126066D01*
X79460074Y-125880999D01*
X78927608Y-125525216D01*
X78474784Y-125072392D01*
X78119001Y-124539926D01*
X77873934Y-123948282D01*
X77749000Y-123320196D01*
X77749000Y-122679804D01*
X77873934Y-122051718D01*
X78119001Y-121460074D01*
X78474784Y-120927608D01*
X78927608Y-120474784D01*
X79460074Y-120119001D01*
X80051718Y-119873934D01*
X80365761Y-119811467D01*
X80679803Y-119749000D01*
X81320197Y-119749000D01*
X81634239Y-119811467D01*
X81634239Y-119811467D01*
G37*
G36*
X169781417Y-114204358D02*
G01*
X169855670Y-114235115D01*
X169929921Y-114265870D01*
X169929922Y-114265871D01*
X170063567Y-114355169D01*
X170177231Y-114468833D01*
X170244205Y-114569067D01*
X170266530Y-114602479D01*
X170328042Y-114750983D01*
X170359400Y-114908630D01*
X170359400Y-115069370D01*
X170328042Y-115227017D01*
X170266530Y-115375521D01*
X170266529Y-115375522D01*
X170177231Y-115509167D01*
X170063567Y-115622831D01*
X169963333Y-115689805D01*
X169929921Y-115712130D01*
X169855670Y-115742885D01*
X169781417Y-115773642D01*
X169623770Y-115805000D01*
X169463030Y-115805000D01*
X169305383Y-115773642D01*
X169231130Y-115742885D01*
X169156879Y-115712130D01*
X169123467Y-115689805D01*
X169023233Y-115622831D01*
X168909569Y-115509167D01*
X168820271Y-115375522D01*
X168820270Y-115375521D01*
X168789515Y-115301270D01*
X168758758Y-115227017D01*
X168727400Y-115069370D01*
X168727400Y-114908630D01*
X168758758Y-114750983D01*
X168820270Y-114602479D01*
X168842595Y-114569067D01*
X168909569Y-114468833D01*
X169023233Y-114355169D01*
X169156878Y-114265871D01*
X169156879Y-114265870D01*
X169231130Y-114235115D01*
X169305383Y-114204358D01*
X169463030Y-114173000D01*
X169623770Y-114173000D01*
X169781417Y-114204358D01*
X169781417Y-114204358D01*
G37*
G36*
X149781417Y-114204358D02*
G01*
X149855670Y-114235115D01*
X149929921Y-114265870D01*
X149929922Y-114265871D01*
X150063567Y-114355169D01*
X150177231Y-114468833D01*
X150244205Y-114569067D01*
X150266530Y-114602479D01*
X150328042Y-114750983D01*
X150359400Y-114908630D01*
X150359400Y-115069370D01*
X150328042Y-115227017D01*
X150266530Y-115375521D01*
X150266529Y-115375522D01*
X150177231Y-115509167D01*
X150063567Y-115622831D01*
X149963333Y-115689805D01*
X149929921Y-115712130D01*
X149855670Y-115742885D01*
X149781417Y-115773642D01*
X149623770Y-115805000D01*
X149463030Y-115805000D01*
X149305383Y-115773642D01*
X149231130Y-115742885D01*
X149156879Y-115712130D01*
X149123467Y-115689805D01*
X149023233Y-115622831D01*
X148909569Y-115509167D01*
X148820271Y-115375522D01*
X148820270Y-115375521D01*
X148789515Y-115301270D01*
X148758758Y-115227017D01*
X148727400Y-115069370D01*
X148727400Y-114908630D01*
X148758758Y-114750983D01*
X148820270Y-114602479D01*
X148842595Y-114569067D01*
X148909569Y-114468833D01*
X149023233Y-114355169D01*
X149156878Y-114265871D01*
X149156879Y-114265870D01*
X149231130Y-114235115D01*
X149305383Y-114204358D01*
X149463030Y-114173000D01*
X149623770Y-114173000D01*
X149781417Y-114204358D01*
X149781417Y-114204358D01*
G37*
G36*
X147241417Y-114204358D02*
G01*
X147315670Y-114235115D01*
X147389921Y-114265870D01*
X147389922Y-114265871D01*
X147523567Y-114355169D01*
X147637231Y-114468833D01*
X147704205Y-114569067D01*
X147726530Y-114602479D01*
X147788042Y-114750983D01*
X147819400Y-114908630D01*
X147819400Y-115069370D01*
X147788042Y-115227017D01*
X147726530Y-115375521D01*
X147726529Y-115375522D01*
X147637231Y-115509167D01*
X147523567Y-115622831D01*
X147423333Y-115689805D01*
X147389921Y-115712130D01*
X147315670Y-115742885D01*
X147241417Y-115773642D01*
X147083770Y-115805000D01*
X146923030Y-115805000D01*
X146765383Y-115773642D01*
X146691130Y-115742885D01*
X146616879Y-115712130D01*
X146583467Y-115689805D01*
X146483233Y-115622831D01*
X146369569Y-115509167D01*
X146280271Y-115375522D01*
X146280270Y-115375521D01*
X146249515Y-115301270D01*
X146218758Y-115227017D01*
X146187400Y-115069370D01*
X146187400Y-114908630D01*
X146218758Y-114750983D01*
X146280270Y-114602479D01*
X146302595Y-114569067D01*
X146369569Y-114468833D01*
X146483233Y-114355169D01*
X146616878Y-114265871D01*
X146616879Y-114265870D01*
X146691130Y-114235115D01*
X146765383Y-114204358D01*
X146923030Y-114173000D01*
X147083770Y-114173000D01*
X147241417Y-114204358D01*
X147241417Y-114204358D01*
G37*
G36*
X145279400Y-115805000D02*
G01*
X143647400Y-115805000D01*
X143647400Y-114173000D01*
X145279400Y-114173000D01*
X145279400Y-115805000D01*
X145279400Y-115805000D01*
G37*
G36*
X129781417Y-114204358D02*
G01*
X129855670Y-114235115D01*
X129929921Y-114265870D01*
X129929922Y-114265871D01*
X130063567Y-114355169D01*
X130177231Y-114468833D01*
X130244205Y-114569067D01*
X130266530Y-114602479D01*
X130328042Y-114750983D01*
X130359400Y-114908630D01*
X130359400Y-115069370D01*
X130328042Y-115227017D01*
X130266530Y-115375521D01*
X130266529Y-115375522D01*
X130177231Y-115509167D01*
X130063567Y-115622831D01*
X129963333Y-115689805D01*
X129929921Y-115712130D01*
X129855670Y-115742885D01*
X129781417Y-115773642D01*
X129623770Y-115805000D01*
X129463030Y-115805000D01*
X129305383Y-115773642D01*
X129231130Y-115742885D01*
X129156879Y-115712130D01*
X129123467Y-115689805D01*
X129023233Y-115622831D01*
X128909569Y-115509167D01*
X128820271Y-115375522D01*
X128820270Y-115375521D01*
X128789515Y-115301270D01*
X128758758Y-115227017D01*
X128727400Y-115069370D01*
X128727400Y-114908630D01*
X128758758Y-114750983D01*
X128820270Y-114602479D01*
X128842595Y-114569067D01*
X128909569Y-114468833D01*
X129023233Y-114355169D01*
X129156878Y-114265871D01*
X129156879Y-114265870D01*
X129231130Y-114235115D01*
X129305383Y-114204358D01*
X129463030Y-114173000D01*
X129623770Y-114173000D01*
X129781417Y-114204358D01*
X129781417Y-114204358D01*
G37*
G36*
X165279400Y-115805000D02*
G01*
X163647400Y-115805000D01*
X163647400Y-114173000D01*
X165279400Y-114173000D01*
X165279400Y-115805000D01*
X165279400Y-115805000D01*
G37*
G36*
X85279400Y-115805000D02*
G01*
X83647400Y-115805000D01*
X83647400Y-114173000D01*
X85279400Y-114173000D01*
X85279400Y-115805000D01*
X85279400Y-115805000D01*
G37*
G36*
X87241417Y-114204358D02*
G01*
X87315670Y-114235115D01*
X87389921Y-114265870D01*
X87389922Y-114265871D01*
X87523567Y-114355169D01*
X87637231Y-114468833D01*
X87704205Y-114569067D01*
X87726530Y-114602479D01*
X87757285Y-114676730D01*
X87788042Y-114750983D01*
X87819400Y-114908630D01*
X87819400Y-115069370D01*
X87788042Y-115227017D01*
X87726530Y-115375521D01*
X87726529Y-115375522D01*
X87637231Y-115509167D01*
X87523567Y-115622831D01*
X87423333Y-115689805D01*
X87389921Y-115712130D01*
X87315670Y-115742885D01*
X87241417Y-115773642D01*
X87083770Y-115805000D01*
X86923030Y-115805000D01*
X86765383Y-115773642D01*
X86691130Y-115742885D01*
X86616879Y-115712130D01*
X86583467Y-115689805D01*
X86483233Y-115622831D01*
X86369569Y-115509167D01*
X86280271Y-115375522D01*
X86280270Y-115375521D01*
X86249515Y-115301270D01*
X86218758Y-115227017D01*
X86187400Y-115069370D01*
X86187400Y-114908630D01*
X86218758Y-114750983D01*
X86280270Y-114602479D01*
X86302595Y-114569067D01*
X86369569Y-114468833D01*
X86483233Y-114355169D01*
X86616878Y-114265871D01*
X86616879Y-114265870D01*
X86691130Y-114235115D01*
X86765383Y-114204358D01*
X86923030Y-114173000D01*
X87083770Y-114173000D01*
X87241417Y-114204358D01*
X87241417Y-114204358D01*
G37*
G36*
X89781417Y-114204358D02*
G01*
X89855670Y-114235115D01*
X89929921Y-114265870D01*
X89929922Y-114265871D01*
X90063567Y-114355169D01*
X90177231Y-114468833D01*
X90244205Y-114569067D01*
X90266530Y-114602479D01*
X90297285Y-114676730D01*
X90328042Y-114750983D01*
X90359400Y-114908630D01*
X90359400Y-115069370D01*
X90328042Y-115227017D01*
X90266530Y-115375521D01*
X90266529Y-115375522D01*
X90177231Y-115509167D01*
X90063567Y-115622831D01*
X89963333Y-115689805D01*
X89929921Y-115712130D01*
X89855670Y-115742885D01*
X89781417Y-115773642D01*
X89623770Y-115805000D01*
X89463030Y-115805000D01*
X89305383Y-115773642D01*
X89231130Y-115742885D01*
X89156879Y-115712130D01*
X89123467Y-115689805D01*
X89023233Y-115622831D01*
X88909569Y-115509167D01*
X88820271Y-115375522D01*
X88820270Y-115375521D01*
X88789515Y-115301270D01*
X88758758Y-115227017D01*
X88727400Y-115069370D01*
X88727400Y-114908630D01*
X88758758Y-114750983D01*
X88820270Y-114602479D01*
X88842595Y-114569067D01*
X88909569Y-114468833D01*
X89023233Y-114355169D01*
X89156878Y-114265871D01*
X89156879Y-114265870D01*
X89231130Y-114235115D01*
X89305383Y-114204358D01*
X89463030Y-114173000D01*
X89623770Y-114173000D01*
X89781417Y-114204358D01*
X89781417Y-114204358D01*
G37*
G36*
X105279400Y-115805000D02*
G01*
X103647400Y-115805000D01*
X103647400Y-114173000D01*
X105279400Y-114173000D01*
X105279400Y-115805000D01*
X105279400Y-115805000D01*
G37*
G36*
X107241417Y-114204358D02*
G01*
X107315670Y-114235115D01*
X107389921Y-114265870D01*
X107389922Y-114265871D01*
X107523567Y-114355169D01*
X107637231Y-114468833D01*
X107704205Y-114569067D01*
X107726530Y-114602479D01*
X107757285Y-114676730D01*
X107788042Y-114750983D01*
X107819400Y-114908630D01*
X107819400Y-115069370D01*
X107788042Y-115227017D01*
X107726530Y-115375521D01*
X107726529Y-115375522D01*
X107637231Y-115509167D01*
X107523567Y-115622831D01*
X107423333Y-115689805D01*
X107389921Y-115712130D01*
X107315670Y-115742885D01*
X107241417Y-115773642D01*
X107083770Y-115805000D01*
X106923030Y-115805000D01*
X106765383Y-115773642D01*
X106691130Y-115742885D01*
X106616879Y-115712130D01*
X106583467Y-115689805D01*
X106483233Y-115622831D01*
X106369569Y-115509167D01*
X106280271Y-115375522D01*
X106280270Y-115375521D01*
X106249515Y-115301270D01*
X106218758Y-115227017D01*
X106187400Y-115069370D01*
X106187400Y-114908630D01*
X106218758Y-114750983D01*
X106280270Y-114602479D01*
X106302595Y-114569067D01*
X106369569Y-114468833D01*
X106483233Y-114355169D01*
X106616878Y-114265871D01*
X106616879Y-114265870D01*
X106691130Y-114235115D01*
X106765383Y-114204358D01*
X106923030Y-114173000D01*
X107083770Y-114173000D01*
X107241417Y-114204358D01*
X107241417Y-114204358D01*
G37*
G36*
X127241417Y-114204358D02*
G01*
X127315670Y-114235115D01*
X127389921Y-114265870D01*
X127389922Y-114265871D01*
X127523567Y-114355169D01*
X127637231Y-114468833D01*
X127704205Y-114569067D01*
X127726530Y-114602479D01*
X127788042Y-114750983D01*
X127819400Y-114908630D01*
X127819400Y-115069370D01*
X127788042Y-115227017D01*
X127726530Y-115375521D01*
X127726529Y-115375522D01*
X127637231Y-115509167D01*
X127523567Y-115622831D01*
X127423333Y-115689805D01*
X127389921Y-115712130D01*
X127315670Y-115742885D01*
X127241417Y-115773642D01*
X127083770Y-115805000D01*
X126923030Y-115805000D01*
X126765383Y-115773642D01*
X126691130Y-115742885D01*
X126616879Y-115712130D01*
X126583467Y-115689805D01*
X126483233Y-115622831D01*
X126369569Y-115509167D01*
X126280271Y-115375522D01*
X126280270Y-115375521D01*
X126249515Y-115301270D01*
X126218758Y-115227017D01*
X126187400Y-115069370D01*
X126187400Y-114908630D01*
X126218758Y-114750983D01*
X126280270Y-114602479D01*
X126302595Y-114569067D01*
X126369569Y-114468833D01*
X126483233Y-114355169D01*
X126616878Y-114265871D01*
X126616879Y-114265870D01*
X126691130Y-114235115D01*
X126765383Y-114204358D01*
X126923030Y-114173000D01*
X127083770Y-114173000D01*
X127241417Y-114204358D01*
X127241417Y-114204358D01*
G37*
G36*
X125279400Y-115805000D02*
G01*
X123647400Y-115805000D01*
X123647400Y-114173000D01*
X125279400Y-114173000D01*
X125279400Y-115805000D01*
X125279400Y-115805000D01*
G37*
G36*
X109781417Y-114204358D02*
G01*
X109855670Y-114235115D01*
X109929921Y-114265870D01*
X109929922Y-114265871D01*
X110063567Y-114355169D01*
X110177231Y-114468833D01*
X110244205Y-114569067D01*
X110266530Y-114602479D01*
X110297285Y-114676730D01*
X110328042Y-114750983D01*
X110359400Y-114908630D01*
X110359400Y-115069370D01*
X110328042Y-115227017D01*
X110266530Y-115375521D01*
X110266529Y-115375522D01*
X110177231Y-115509167D01*
X110063567Y-115622831D01*
X109963333Y-115689805D01*
X109929921Y-115712130D01*
X109855670Y-115742885D01*
X109781417Y-115773642D01*
X109623770Y-115805000D01*
X109463030Y-115805000D01*
X109305383Y-115773642D01*
X109231130Y-115742885D01*
X109156879Y-115712130D01*
X109123467Y-115689805D01*
X109023233Y-115622831D01*
X108909569Y-115509167D01*
X108820271Y-115375522D01*
X108820270Y-115375521D01*
X108789515Y-115301270D01*
X108758758Y-115227017D01*
X108727400Y-115069370D01*
X108727400Y-114908630D01*
X108758758Y-114750983D01*
X108820270Y-114602479D01*
X108842595Y-114569067D01*
X108909569Y-114468833D01*
X109023233Y-114355169D01*
X109156878Y-114265871D01*
X109156879Y-114265870D01*
X109231130Y-114235115D01*
X109305383Y-114204358D01*
X109463030Y-114173000D01*
X109623770Y-114173000D01*
X109781417Y-114204358D01*
X109781417Y-114204358D01*
G37*
G36*
X167241417Y-114204358D02*
G01*
X167315670Y-114235115D01*
X167389921Y-114265870D01*
X167389922Y-114265871D01*
X167523567Y-114355169D01*
X167637231Y-114468833D01*
X167704205Y-114569067D01*
X167726530Y-114602479D01*
X167788042Y-114750983D01*
X167819400Y-114908630D01*
X167819400Y-115069370D01*
X167788042Y-115227017D01*
X167726530Y-115375521D01*
X167726529Y-115375522D01*
X167637231Y-115509167D01*
X167523567Y-115622831D01*
X167423333Y-115689805D01*
X167389921Y-115712130D01*
X167315670Y-115742885D01*
X167241417Y-115773642D01*
X167083770Y-115805000D01*
X166923030Y-115805000D01*
X166765383Y-115773642D01*
X166691130Y-115742885D01*
X166616879Y-115712130D01*
X166583467Y-115689805D01*
X166483233Y-115622831D01*
X166369569Y-115509167D01*
X166280271Y-115375522D01*
X166280270Y-115375521D01*
X166249515Y-115301270D01*
X166218758Y-115227017D01*
X166187400Y-115069370D01*
X166187400Y-114908630D01*
X166218758Y-114750983D01*
X166280270Y-114602479D01*
X166302595Y-114569067D01*
X166369569Y-114468833D01*
X166483233Y-114355169D01*
X166616878Y-114265871D01*
X166616879Y-114265870D01*
X166691130Y-114235115D01*
X166765383Y-114204358D01*
X166923030Y-114173000D01*
X167083770Y-114173000D01*
X167241417Y-114204358D01*
X167241417Y-114204358D01*
G37*
G36*
X133634239Y-106811467D02*
G01*
X133948282Y-106873934D01*
X134539926Y-107119001D01*
X135072392Y-107474784D01*
X135525216Y-107927608D01*
X135880999Y-108460074D01*
X136126066Y-109051718D01*
X136251000Y-109679804D01*
X136251000Y-110320196D01*
X136126066Y-110948282D01*
X135880999Y-111539926D01*
X135525216Y-112072392D01*
X135072392Y-112525216D01*
X134539926Y-112880999D01*
X133948282Y-113126066D01*
X133634239Y-113188533D01*
X133320197Y-113251000D01*
X132679803Y-113251000D01*
X132365761Y-113188533D01*
X132051718Y-113126066D01*
X131460074Y-112880999D01*
X130927608Y-112525216D01*
X130474784Y-112072392D01*
X130119001Y-111539926D01*
X129873934Y-110948282D01*
X129749000Y-110320196D01*
X129749000Y-109679804D01*
X129873934Y-109051718D01*
X130119001Y-108460074D01*
X130474784Y-107927608D01*
X130927608Y-107474784D01*
X131460074Y-107119001D01*
X132051718Y-106873934D01*
X132365761Y-106811467D01*
X132679803Y-106749000D01*
X133320197Y-106749000D01*
X133634239Y-106811467D01*
X133634239Y-106811467D01*
G37*
G36*
X113634239Y-106811467D02*
G01*
X113948282Y-106873934D01*
X114539926Y-107119001D01*
X115072392Y-107474784D01*
X115525216Y-107927608D01*
X115880999Y-108460074D01*
X116126066Y-109051718D01*
X116251000Y-109679804D01*
X116251000Y-110320196D01*
X116126066Y-110948282D01*
X115880999Y-111539926D01*
X115525216Y-112072392D01*
X115072392Y-112525216D01*
X114539926Y-112880999D01*
X113948282Y-113126066D01*
X113634239Y-113188533D01*
X113320197Y-113251000D01*
X112679803Y-113251000D01*
X112365761Y-113188533D01*
X112051718Y-113126066D01*
X111460074Y-112880999D01*
X110927608Y-112525216D01*
X110474784Y-112072392D01*
X110119001Y-111539926D01*
X109873934Y-110948282D01*
X109749000Y-110320196D01*
X109749000Y-109679804D01*
X109873934Y-109051718D01*
X110119001Y-108460074D01*
X110474784Y-107927608D01*
X110927608Y-107474784D01*
X111460074Y-107119001D01*
X112051718Y-106873934D01*
X112365761Y-106811467D01*
X112679803Y-106749000D01*
X113320197Y-106749000D01*
X113634239Y-106811467D01*
X113634239Y-106811467D01*
G37*
G36*
X153634239Y-106811467D02*
G01*
X153948282Y-106873934D01*
X154539926Y-107119001D01*
X155072392Y-107474784D01*
X155525216Y-107927608D01*
X155880999Y-108460074D01*
X156126066Y-109051718D01*
X156251000Y-109679804D01*
X156251000Y-110320196D01*
X156126066Y-110948282D01*
X155880999Y-111539926D01*
X155525216Y-112072392D01*
X155072392Y-112525216D01*
X154539926Y-112880999D01*
X153948282Y-113126066D01*
X153634239Y-113188533D01*
X153320197Y-113251000D01*
X152679803Y-113251000D01*
X152365761Y-113188533D01*
X152051718Y-113126066D01*
X151460074Y-112880999D01*
X150927608Y-112525216D01*
X150474784Y-112072392D01*
X150119001Y-111539926D01*
X149873934Y-110948282D01*
X149749000Y-110320196D01*
X149749000Y-109679804D01*
X149873934Y-109051718D01*
X150119001Y-108460074D01*
X150474784Y-107927608D01*
X150927608Y-107474784D01*
X151460074Y-107119001D01*
X152051718Y-106873934D01*
X152365761Y-106811467D01*
X152679803Y-106749000D01*
X153320197Y-106749000D01*
X153634239Y-106811467D01*
X153634239Y-106811467D01*
G37*
G36*
X173634239Y-106811467D02*
G01*
X173948282Y-106873934D01*
X174539926Y-107119001D01*
X175072392Y-107474784D01*
X175525216Y-107927608D01*
X175880999Y-108460074D01*
X176126066Y-109051718D01*
X176251000Y-109679804D01*
X176251000Y-110320196D01*
X176126066Y-110948282D01*
X175880999Y-111539926D01*
X175525216Y-112072392D01*
X175072392Y-112525216D01*
X174539926Y-112880999D01*
X173948282Y-113126066D01*
X173634239Y-113188533D01*
X173320197Y-113251000D01*
X172679803Y-113251000D01*
X172365761Y-113188533D01*
X172051718Y-113126066D01*
X171460074Y-112880999D01*
X170927608Y-112525216D01*
X170474784Y-112072392D01*
X170119001Y-111539926D01*
X169873934Y-110948282D01*
X169749000Y-110320196D01*
X169749000Y-109679804D01*
X169873934Y-109051718D01*
X170119001Y-108460074D01*
X170474784Y-107927608D01*
X170927608Y-107474784D01*
X171460074Y-107119001D01*
X172051718Y-106873934D01*
X172365761Y-106811467D01*
X172679803Y-106749000D01*
X173320197Y-106749000D01*
X173634239Y-106811467D01*
X173634239Y-106811467D01*
G37*
G36*
X101634239Y-106811467D02*
G01*
X101948282Y-106873934D01*
X102539926Y-107119001D01*
X103072392Y-107474784D01*
X103525216Y-107927608D01*
X103880999Y-108460074D01*
X104126066Y-109051718D01*
X104251000Y-109679804D01*
X104251000Y-110320196D01*
X104126066Y-110948282D01*
X103880999Y-111539926D01*
X103525216Y-112072392D01*
X103072392Y-112525216D01*
X102539926Y-112880999D01*
X101948282Y-113126066D01*
X101634239Y-113188533D01*
X101320197Y-113251000D01*
X100679803Y-113251000D01*
X100365761Y-113188533D01*
X100051718Y-113126066D01*
X99460074Y-112880999D01*
X98927608Y-112525216D01*
X98474784Y-112072392D01*
X98119001Y-111539926D01*
X97873934Y-110948282D01*
X97749000Y-110320196D01*
X97749000Y-109679804D01*
X97873934Y-109051718D01*
X98119001Y-108460074D01*
X98474784Y-107927608D01*
X98927608Y-107474784D01*
X99460074Y-107119001D01*
X100051718Y-106873934D01*
X100365761Y-106811467D01*
X100679803Y-106749000D01*
X101320197Y-106749000D01*
X101634239Y-106811467D01*
X101634239Y-106811467D01*
G37*
G36*
X93634239Y-106811467D02*
G01*
X93948282Y-106873934D01*
X94539926Y-107119001D01*
X95072392Y-107474784D01*
X95525216Y-107927608D01*
X95880999Y-108460074D01*
X96126066Y-109051718D01*
X96251000Y-109679804D01*
X96251000Y-110320196D01*
X96126066Y-110948282D01*
X95880999Y-111539926D01*
X95525216Y-112072392D01*
X95072392Y-112525216D01*
X94539926Y-112880999D01*
X93948282Y-113126066D01*
X93634239Y-113188533D01*
X93320197Y-113251000D01*
X92679803Y-113251000D01*
X92365761Y-113188533D01*
X92051718Y-113126066D01*
X91460074Y-112880999D01*
X90927608Y-112525216D01*
X90474784Y-112072392D01*
X90119001Y-111539926D01*
X89873934Y-110948282D01*
X89749000Y-110320196D01*
X89749000Y-109679804D01*
X89873934Y-109051718D01*
X90119001Y-108460074D01*
X90474784Y-107927608D01*
X90927608Y-107474784D01*
X91460074Y-107119001D01*
X92051718Y-106873934D01*
X92365761Y-106811467D01*
X92679803Y-106749000D01*
X93320197Y-106749000D01*
X93634239Y-106811467D01*
X93634239Y-106811467D01*
G37*
G36*
X81634239Y-106811467D02*
G01*
X81948282Y-106873934D01*
X82539926Y-107119001D01*
X83072392Y-107474784D01*
X83525216Y-107927608D01*
X83880999Y-108460074D01*
X84126066Y-109051718D01*
X84251000Y-109679804D01*
X84251000Y-110320196D01*
X84126066Y-110948282D01*
X83880999Y-111539926D01*
X83525216Y-112072392D01*
X83072392Y-112525216D01*
X82539926Y-112880999D01*
X81948282Y-113126066D01*
X81634239Y-113188533D01*
X81320197Y-113251000D01*
X80679803Y-113251000D01*
X80365761Y-113188533D01*
X80051718Y-113126066D01*
X79460074Y-112880999D01*
X78927608Y-112525216D01*
X78474784Y-112072392D01*
X78119001Y-111539926D01*
X77873934Y-110948282D01*
X77749000Y-110320196D01*
X77749000Y-109679804D01*
X77873934Y-109051718D01*
X78119001Y-108460074D01*
X78474784Y-107927608D01*
X78927608Y-107474784D01*
X79460074Y-107119001D01*
X80051718Y-106873934D01*
X80365761Y-106811467D01*
X80679803Y-106749000D01*
X81320197Y-106749000D01*
X81634239Y-106811467D01*
X81634239Y-106811467D01*
G37*
G36*
X121634239Y-106811467D02*
G01*
X121948282Y-106873934D01*
X122539926Y-107119001D01*
X123072392Y-107474784D01*
X123525216Y-107927608D01*
X123880999Y-108460074D01*
X124126066Y-109051718D01*
X124251000Y-109679804D01*
X124251000Y-110320196D01*
X124126066Y-110948282D01*
X123880999Y-111539926D01*
X123525216Y-112072392D01*
X123072392Y-112525216D01*
X122539926Y-112880999D01*
X121948282Y-113126066D01*
X121634239Y-113188533D01*
X121320197Y-113251000D01*
X120679803Y-113251000D01*
X120365761Y-113188533D01*
X120051718Y-113126066D01*
X119460074Y-112880999D01*
X118927608Y-112525216D01*
X118474784Y-112072392D01*
X118119001Y-111539926D01*
X117873934Y-110948282D01*
X117749000Y-110320196D01*
X117749000Y-109679804D01*
X117873934Y-109051718D01*
X118119001Y-108460074D01*
X118474784Y-107927608D01*
X118927608Y-107474784D01*
X119460074Y-107119001D01*
X120051718Y-106873934D01*
X120365761Y-106811467D01*
X120679803Y-106749000D01*
X121320197Y-106749000D01*
X121634239Y-106811467D01*
X121634239Y-106811467D01*
G37*
G36*
X141634239Y-106811467D02*
G01*
X141948282Y-106873934D01*
X142539926Y-107119001D01*
X143072392Y-107474784D01*
X143525216Y-107927608D01*
X143880999Y-108460074D01*
X144126066Y-109051718D01*
X144251000Y-109679804D01*
X144251000Y-110320196D01*
X144126066Y-110948282D01*
X143880999Y-111539926D01*
X143525216Y-112072392D01*
X143072392Y-112525216D01*
X142539926Y-112880999D01*
X141948282Y-113126066D01*
X141634239Y-113188533D01*
X141320197Y-113251000D01*
X140679803Y-113251000D01*
X140365761Y-113188533D01*
X140051718Y-113126066D01*
X139460074Y-112880999D01*
X138927608Y-112525216D01*
X138474784Y-112072392D01*
X138119001Y-111539926D01*
X137873934Y-110948282D01*
X137749000Y-110320196D01*
X137749000Y-109679804D01*
X137873934Y-109051718D01*
X138119001Y-108460074D01*
X138474784Y-107927608D01*
X138927608Y-107474784D01*
X139460074Y-107119001D01*
X140051718Y-106873934D01*
X140365761Y-106811467D01*
X140679803Y-106749000D01*
X141320197Y-106749000D01*
X141634239Y-106811467D01*
X141634239Y-106811467D01*
G37*
G36*
X161634239Y-106811467D02*
G01*
X161948282Y-106873934D01*
X162539926Y-107119001D01*
X163072392Y-107474784D01*
X163525216Y-107927608D01*
X163880999Y-108460074D01*
X164126066Y-109051718D01*
X164251000Y-109679804D01*
X164251000Y-110320196D01*
X164126066Y-110948282D01*
X163880999Y-111539926D01*
X163525216Y-112072392D01*
X163072392Y-112525216D01*
X162539926Y-112880999D01*
X161948282Y-113126066D01*
X161634239Y-113188533D01*
X161320197Y-113251000D01*
X160679803Y-113251000D01*
X160365761Y-113188533D01*
X160051718Y-113126066D01*
X159460074Y-112880999D01*
X158927608Y-112525216D01*
X158474784Y-112072392D01*
X158119001Y-111539926D01*
X157873934Y-110948282D01*
X157749000Y-110320196D01*
X157749000Y-109679804D01*
X157873934Y-109051718D01*
X158119001Y-108460074D01*
X158474784Y-107927608D01*
X158927608Y-107474784D01*
X159460074Y-107119001D01*
X160051718Y-106873934D01*
X160365761Y-106811467D01*
X160679803Y-106749000D01*
X161320197Y-106749000D01*
X161634239Y-106811467D01*
X161634239Y-106811467D01*
G37*
G36*
X145279400Y-102805000D02*
G01*
X143647400Y-102805000D01*
X143647400Y-101173000D01*
X145279400Y-101173000D01*
X145279400Y-102805000D01*
X145279400Y-102805000D01*
G37*
G36*
X167241417Y-101204358D02*
G01*
X167315670Y-101235115D01*
X167389921Y-101265870D01*
X167389922Y-101265871D01*
X167523567Y-101355169D01*
X167637231Y-101468833D01*
X167704205Y-101569067D01*
X167726530Y-101602479D01*
X167788042Y-101750983D01*
X167819400Y-101908630D01*
X167819400Y-102069370D01*
X167788042Y-102227017D01*
X167757285Y-102301270D01*
X167726530Y-102375521D01*
X167726529Y-102375522D01*
X167637231Y-102509167D01*
X167523567Y-102622831D01*
X167423333Y-102689805D01*
X167389921Y-102712130D01*
X167241417Y-102773642D01*
X167083770Y-102805000D01*
X166923030Y-102805000D01*
X166765383Y-102773642D01*
X166616879Y-102712130D01*
X166583467Y-102689804D01*
X166483233Y-102622831D01*
X166369569Y-102509167D01*
X166280271Y-102375522D01*
X166280270Y-102375521D01*
X166218758Y-102227017D01*
X166187400Y-102069370D01*
X166187400Y-101908630D01*
X166218758Y-101750983D01*
X166280270Y-101602479D01*
X166302595Y-101569067D01*
X166369569Y-101468833D01*
X166483233Y-101355169D01*
X166616878Y-101265871D01*
X166616879Y-101265870D01*
X166691130Y-101235115D01*
X166765383Y-101204358D01*
X166923030Y-101173000D01*
X167083770Y-101173000D01*
X167241417Y-101204358D01*
X167241417Y-101204358D01*
G37*
G36*
X165279400Y-102805000D02*
G01*
X163647400Y-102805000D01*
X163647400Y-101173000D01*
X165279400Y-101173000D01*
X165279400Y-102805000D01*
X165279400Y-102805000D01*
G37*
G36*
X149781417Y-101204358D02*
G01*
X149855670Y-101235115D01*
X149929921Y-101265870D01*
X149929922Y-101265871D01*
X150063567Y-101355169D01*
X150177231Y-101468833D01*
X150244205Y-101569067D01*
X150266530Y-101602479D01*
X150328042Y-101750983D01*
X150359400Y-101908630D01*
X150359400Y-102069370D01*
X150328042Y-102227017D01*
X150297285Y-102301270D01*
X150266530Y-102375521D01*
X150266529Y-102375522D01*
X150177231Y-102509167D01*
X150063567Y-102622831D01*
X149963333Y-102689805D01*
X149929921Y-102712130D01*
X149781417Y-102773642D01*
X149623770Y-102805000D01*
X149463030Y-102805000D01*
X149305383Y-102773642D01*
X149156879Y-102712130D01*
X149123467Y-102689804D01*
X149023233Y-102622831D01*
X148909569Y-102509167D01*
X148820271Y-102375522D01*
X148820270Y-102375521D01*
X148758758Y-102227017D01*
X148727400Y-102069370D01*
X148727400Y-101908630D01*
X148758758Y-101750983D01*
X148820270Y-101602479D01*
X148842595Y-101569067D01*
X148909569Y-101468833D01*
X149023233Y-101355169D01*
X149156878Y-101265871D01*
X149156879Y-101265870D01*
X149231130Y-101235115D01*
X149305383Y-101204358D01*
X149463030Y-101173000D01*
X149623770Y-101173000D01*
X149781417Y-101204358D01*
X149781417Y-101204358D01*
G37*
G36*
X147241417Y-101204358D02*
G01*
X147315670Y-101235115D01*
X147389921Y-101265870D01*
X147389922Y-101265871D01*
X147523567Y-101355169D01*
X147637231Y-101468833D01*
X147704205Y-101569067D01*
X147726530Y-101602479D01*
X147788042Y-101750983D01*
X147819400Y-101908630D01*
X147819400Y-102069370D01*
X147788042Y-102227017D01*
X147757285Y-102301270D01*
X147726530Y-102375521D01*
X147726529Y-102375522D01*
X147637231Y-102509167D01*
X147523567Y-102622831D01*
X147423333Y-102689805D01*
X147389921Y-102712130D01*
X147241417Y-102773642D01*
X147083770Y-102805000D01*
X146923030Y-102805000D01*
X146765383Y-102773642D01*
X146616879Y-102712130D01*
X146583467Y-102689804D01*
X146483233Y-102622831D01*
X146369569Y-102509167D01*
X146280271Y-102375522D01*
X146280270Y-102375521D01*
X146218758Y-102227017D01*
X146187400Y-102069370D01*
X146187400Y-101908630D01*
X146218758Y-101750983D01*
X146280270Y-101602479D01*
X146302595Y-101569067D01*
X146369569Y-101468833D01*
X146483233Y-101355169D01*
X146616878Y-101265871D01*
X146616879Y-101265870D01*
X146691130Y-101235115D01*
X146765383Y-101204358D01*
X146923030Y-101173000D01*
X147083770Y-101173000D01*
X147241417Y-101204358D01*
X147241417Y-101204358D01*
G37*
G36*
X129781417Y-101204358D02*
G01*
X129855670Y-101235115D01*
X129929921Y-101265870D01*
X129929922Y-101265871D01*
X130063567Y-101355169D01*
X130177231Y-101468833D01*
X130244205Y-101569067D01*
X130266530Y-101602479D01*
X130328042Y-101750983D01*
X130359400Y-101908630D01*
X130359400Y-102069370D01*
X130328042Y-102227017D01*
X130297285Y-102301270D01*
X130266530Y-102375521D01*
X130266529Y-102375522D01*
X130177231Y-102509167D01*
X130063567Y-102622831D01*
X129963333Y-102689805D01*
X129929921Y-102712130D01*
X129781417Y-102773642D01*
X129623770Y-102805000D01*
X129463030Y-102805000D01*
X129305383Y-102773642D01*
X129156879Y-102712130D01*
X129123467Y-102689804D01*
X129023233Y-102622831D01*
X128909569Y-102509167D01*
X128820271Y-102375522D01*
X128820270Y-102375521D01*
X128758758Y-102227017D01*
X128727400Y-102069370D01*
X128727400Y-101908630D01*
X128758758Y-101750983D01*
X128820270Y-101602479D01*
X128842595Y-101569067D01*
X128909569Y-101468833D01*
X129023233Y-101355169D01*
X129156878Y-101265871D01*
X129156879Y-101265870D01*
X129231130Y-101235115D01*
X129305383Y-101204358D01*
X129463030Y-101173000D01*
X129623770Y-101173000D01*
X129781417Y-101204358D01*
X129781417Y-101204358D01*
G37*
G36*
X127241417Y-101204358D02*
G01*
X127315670Y-101235115D01*
X127389921Y-101265870D01*
X127389922Y-101265871D01*
X127523567Y-101355169D01*
X127637231Y-101468833D01*
X127704205Y-101569067D01*
X127726530Y-101602479D01*
X127788042Y-101750983D01*
X127819400Y-101908630D01*
X127819400Y-102069370D01*
X127788042Y-102227017D01*
X127757285Y-102301270D01*
X127726530Y-102375521D01*
X127726529Y-102375522D01*
X127637231Y-102509167D01*
X127523567Y-102622831D01*
X127423333Y-102689805D01*
X127389921Y-102712130D01*
X127241417Y-102773642D01*
X127083770Y-102805000D01*
X126923030Y-102805000D01*
X126765383Y-102773642D01*
X126616879Y-102712130D01*
X126583467Y-102689804D01*
X126483233Y-102622831D01*
X126369569Y-102509167D01*
X126280271Y-102375522D01*
X126280270Y-102375521D01*
X126218758Y-102227017D01*
X126187400Y-102069370D01*
X126187400Y-101908630D01*
X126218758Y-101750983D01*
X126280270Y-101602479D01*
X126302595Y-101569067D01*
X126369569Y-101468833D01*
X126483233Y-101355169D01*
X126616878Y-101265871D01*
X126616879Y-101265870D01*
X126691130Y-101235115D01*
X126765383Y-101204358D01*
X126923030Y-101173000D01*
X127083770Y-101173000D01*
X127241417Y-101204358D01*
X127241417Y-101204358D01*
G37*
G36*
X125279400Y-102805000D02*
G01*
X123647400Y-102805000D01*
X123647400Y-101173000D01*
X125279400Y-101173000D01*
X125279400Y-102805000D01*
X125279400Y-102805000D01*
G37*
G36*
X109781417Y-101204358D02*
G01*
X109855670Y-101235115D01*
X109929921Y-101265870D01*
X109929922Y-101265871D01*
X110063567Y-101355169D01*
X110177231Y-101468833D01*
X110244205Y-101569067D01*
X110266530Y-101602479D01*
X110328042Y-101750983D01*
X110359400Y-101908630D01*
X110359400Y-102069370D01*
X110328042Y-102227017D01*
X110297285Y-102301270D01*
X110266530Y-102375521D01*
X110266529Y-102375522D01*
X110177231Y-102509167D01*
X110063567Y-102622831D01*
X109963333Y-102689804D01*
X109929921Y-102712130D01*
X109781417Y-102773642D01*
X109623770Y-102805000D01*
X109463030Y-102805000D01*
X109305383Y-102773642D01*
X109156879Y-102712130D01*
X109123467Y-102689804D01*
X109023233Y-102622831D01*
X108909569Y-102509167D01*
X108820271Y-102375522D01*
X108820270Y-102375521D01*
X108789515Y-102301270D01*
X108758758Y-102227017D01*
X108727400Y-102069370D01*
X108727400Y-101908630D01*
X108758758Y-101750983D01*
X108820270Y-101602479D01*
X108842595Y-101569067D01*
X108909569Y-101468833D01*
X109023233Y-101355169D01*
X109156878Y-101265871D01*
X109156879Y-101265870D01*
X109231130Y-101235115D01*
X109305383Y-101204358D01*
X109463030Y-101173000D01*
X109623770Y-101173000D01*
X109781417Y-101204358D01*
X109781417Y-101204358D01*
G37*
G36*
X107241417Y-101204358D02*
G01*
X107315670Y-101235115D01*
X107389921Y-101265870D01*
X107389922Y-101265871D01*
X107523567Y-101355169D01*
X107637231Y-101468833D01*
X107704205Y-101569067D01*
X107726530Y-101602479D01*
X107788042Y-101750983D01*
X107819400Y-101908630D01*
X107819400Y-102069370D01*
X107788042Y-102227017D01*
X107757285Y-102301270D01*
X107726530Y-102375521D01*
X107726529Y-102375522D01*
X107637231Y-102509167D01*
X107523567Y-102622831D01*
X107423333Y-102689804D01*
X107389921Y-102712130D01*
X107241417Y-102773642D01*
X107083770Y-102805000D01*
X106923030Y-102805000D01*
X106765383Y-102773642D01*
X106616879Y-102712130D01*
X106583467Y-102689804D01*
X106483233Y-102622831D01*
X106369569Y-102509167D01*
X106280271Y-102375522D01*
X106280270Y-102375521D01*
X106249515Y-102301270D01*
X106218758Y-102227017D01*
X106187400Y-102069370D01*
X106187400Y-101908630D01*
X106218758Y-101750983D01*
X106280270Y-101602479D01*
X106302595Y-101569067D01*
X106369569Y-101468833D01*
X106483233Y-101355169D01*
X106616878Y-101265871D01*
X106616879Y-101265870D01*
X106691130Y-101235115D01*
X106765383Y-101204358D01*
X106923030Y-101173000D01*
X107083770Y-101173000D01*
X107241417Y-101204358D01*
X107241417Y-101204358D01*
G37*
G36*
X105279400Y-102805000D02*
G01*
X103647400Y-102805000D01*
X103647400Y-101173000D01*
X105279400Y-101173000D01*
X105279400Y-102805000D01*
X105279400Y-102805000D01*
G37*
G36*
X89781417Y-101204358D02*
G01*
X89855670Y-101235115D01*
X89929921Y-101265870D01*
X89929922Y-101265871D01*
X90063567Y-101355169D01*
X90177231Y-101468833D01*
X90244205Y-101569067D01*
X90266530Y-101602479D01*
X90328042Y-101750983D01*
X90359400Y-101908630D01*
X90359400Y-102069370D01*
X90328042Y-102227017D01*
X90266530Y-102375521D01*
X90266529Y-102375522D01*
X90177231Y-102509167D01*
X90063567Y-102622831D01*
X89963333Y-102689804D01*
X89929921Y-102712130D01*
X89781417Y-102773642D01*
X89623770Y-102805000D01*
X89463030Y-102805000D01*
X89305383Y-102773642D01*
X89156879Y-102712130D01*
X89123467Y-102689804D01*
X89023233Y-102622831D01*
X88909569Y-102509167D01*
X88820271Y-102375522D01*
X88820270Y-102375521D01*
X88789515Y-102301270D01*
X88758758Y-102227017D01*
X88727400Y-102069370D01*
X88727400Y-101908630D01*
X88758758Y-101750983D01*
X88820270Y-101602479D01*
X88842595Y-101569067D01*
X88909569Y-101468833D01*
X89023233Y-101355169D01*
X89156878Y-101265871D01*
X89156879Y-101265870D01*
X89231130Y-101235115D01*
X89305383Y-101204358D01*
X89463030Y-101173000D01*
X89623770Y-101173000D01*
X89781417Y-101204358D01*
X89781417Y-101204358D01*
G37*
G36*
X87241417Y-101204358D02*
G01*
X87315670Y-101235115D01*
X87389921Y-101265870D01*
X87389922Y-101265871D01*
X87523567Y-101355169D01*
X87637231Y-101468833D01*
X87704205Y-101569067D01*
X87726530Y-101602479D01*
X87788042Y-101750983D01*
X87819400Y-101908630D01*
X87819400Y-102069370D01*
X87788042Y-102227017D01*
X87726530Y-102375521D01*
X87726529Y-102375522D01*
X87637231Y-102509167D01*
X87523567Y-102622831D01*
X87423333Y-102689804D01*
X87389921Y-102712130D01*
X87241417Y-102773642D01*
X87083770Y-102805000D01*
X86923030Y-102805000D01*
X86765383Y-102773642D01*
X86616879Y-102712130D01*
X86583467Y-102689804D01*
X86483233Y-102622831D01*
X86369569Y-102509167D01*
X86280271Y-102375522D01*
X86280270Y-102375521D01*
X86249515Y-102301270D01*
X86218758Y-102227017D01*
X86187400Y-102069370D01*
X86187400Y-101908630D01*
X86218758Y-101750983D01*
X86280270Y-101602479D01*
X86302595Y-101569067D01*
X86369569Y-101468833D01*
X86483233Y-101355169D01*
X86616878Y-101265871D01*
X86616879Y-101265870D01*
X86691130Y-101235115D01*
X86765383Y-101204358D01*
X86923030Y-101173000D01*
X87083770Y-101173000D01*
X87241417Y-101204358D01*
X87241417Y-101204358D01*
G37*
G36*
X85279400Y-102805000D02*
G01*
X83647400Y-102805000D01*
X83647400Y-101173000D01*
X85279400Y-101173000D01*
X85279400Y-102805000D01*
X85279400Y-102805000D01*
G37*
G36*
X169781417Y-101204358D02*
G01*
X169855670Y-101235115D01*
X169929921Y-101265870D01*
X169929922Y-101265871D01*
X170063567Y-101355169D01*
X170177231Y-101468833D01*
X170244205Y-101569067D01*
X170266530Y-101602479D01*
X170328042Y-101750983D01*
X170359400Y-101908630D01*
X170359400Y-102069370D01*
X170328042Y-102227017D01*
X170297285Y-102301270D01*
X170266530Y-102375521D01*
X170266529Y-102375522D01*
X170177231Y-102509167D01*
X170063567Y-102622831D01*
X169963333Y-102689805D01*
X169929921Y-102712130D01*
X169781417Y-102773642D01*
X169623770Y-102805000D01*
X169463030Y-102805000D01*
X169305383Y-102773642D01*
X169156879Y-102712130D01*
X169123467Y-102689804D01*
X169023233Y-102622831D01*
X168909569Y-102509167D01*
X168820271Y-102375522D01*
X168820270Y-102375521D01*
X168758758Y-102227017D01*
X168727400Y-102069370D01*
X168727400Y-101908630D01*
X168758758Y-101750983D01*
X168820270Y-101602479D01*
X168842595Y-101569067D01*
X168909569Y-101468833D01*
X169023233Y-101355169D01*
X169156878Y-101265871D01*
X169156879Y-101265870D01*
X169231130Y-101235115D01*
X169305383Y-101204358D01*
X169463030Y-101173000D01*
X169623770Y-101173000D01*
X169781417Y-101204358D01*
X169781417Y-101204358D01*
G37*
G36*
X173634239Y-93811467D02*
G01*
X173948282Y-93873934D01*
X174539926Y-94119001D01*
X175072392Y-94474784D01*
X175525216Y-94927608D01*
X175880999Y-95460074D01*
X176126066Y-96051718D01*
X176251000Y-96679804D01*
X176251000Y-97320196D01*
X176126066Y-97948282D01*
X175880999Y-98539926D01*
X175525216Y-99072392D01*
X175072392Y-99525216D01*
X174539926Y-99880999D01*
X173948282Y-100126066D01*
X173634239Y-100188533D01*
X173320197Y-100251000D01*
X172679803Y-100251000D01*
X172365761Y-100188533D01*
X172051718Y-100126066D01*
X171460074Y-99880999D01*
X170927608Y-99525216D01*
X170474784Y-99072392D01*
X170119001Y-98539926D01*
X169873934Y-97948282D01*
X169749000Y-97320196D01*
X169749000Y-96679804D01*
X169873934Y-96051718D01*
X170119001Y-95460074D01*
X170474784Y-94927608D01*
X170927608Y-94474784D01*
X171460074Y-94119001D01*
X172051718Y-93873934D01*
X172365761Y-93811467D01*
X172679803Y-93749000D01*
X173320197Y-93749000D01*
X173634239Y-93811467D01*
X173634239Y-93811467D01*
G37*
G36*
X161634239Y-93811467D02*
G01*
X161948282Y-93873934D01*
X162539926Y-94119001D01*
X163072392Y-94474784D01*
X163525216Y-94927608D01*
X163880999Y-95460074D01*
X164126066Y-96051718D01*
X164251000Y-96679804D01*
X164251000Y-97320196D01*
X164126066Y-97948282D01*
X163880999Y-98539926D01*
X163525216Y-99072392D01*
X163072392Y-99525216D01*
X162539926Y-99880999D01*
X161948282Y-100126066D01*
X161634239Y-100188533D01*
X161320197Y-100251000D01*
X160679803Y-100251000D01*
X160365761Y-100188533D01*
X160051718Y-100126066D01*
X159460074Y-99880999D01*
X158927608Y-99525216D01*
X158474784Y-99072392D01*
X158119001Y-98539926D01*
X157873934Y-97948282D01*
X157749000Y-97320196D01*
X157749000Y-96679804D01*
X157873934Y-96051718D01*
X158119001Y-95460074D01*
X158474784Y-94927608D01*
X158927608Y-94474784D01*
X159460074Y-94119001D01*
X160051718Y-93873934D01*
X160365761Y-93811467D01*
X160679803Y-93749000D01*
X161320197Y-93749000D01*
X161634239Y-93811467D01*
X161634239Y-93811467D01*
G37*
G36*
X153634239Y-93811467D02*
G01*
X153948282Y-93873934D01*
X154539926Y-94119001D01*
X155072392Y-94474784D01*
X155525216Y-94927608D01*
X155880999Y-95460074D01*
X156126066Y-96051718D01*
X156251000Y-96679804D01*
X156251000Y-97320196D01*
X156126066Y-97948282D01*
X155880999Y-98539926D01*
X155525216Y-99072392D01*
X155072392Y-99525216D01*
X154539926Y-99880999D01*
X153948282Y-100126066D01*
X153634239Y-100188533D01*
X153320197Y-100251000D01*
X152679803Y-100251000D01*
X152365761Y-100188533D01*
X152051718Y-100126066D01*
X151460074Y-99880999D01*
X150927608Y-99525216D01*
X150474784Y-99072392D01*
X150119001Y-98539926D01*
X149873934Y-97948282D01*
X149749000Y-97320196D01*
X149749000Y-96679804D01*
X149873934Y-96051718D01*
X150119001Y-95460074D01*
X150474784Y-94927608D01*
X150927608Y-94474784D01*
X151460074Y-94119001D01*
X152051718Y-93873934D01*
X152365761Y-93811467D01*
X152679803Y-93749000D01*
X153320197Y-93749000D01*
X153634239Y-93811467D01*
X153634239Y-93811467D01*
G37*
G36*
X133634239Y-93811467D02*
G01*
X133948282Y-93873934D01*
X134539926Y-94119001D01*
X135072392Y-94474784D01*
X135525216Y-94927608D01*
X135880999Y-95460074D01*
X136126066Y-96051718D01*
X136251000Y-96679804D01*
X136251000Y-97320196D01*
X136126066Y-97948282D01*
X135880999Y-98539926D01*
X135525216Y-99072392D01*
X135072392Y-99525216D01*
X134539926Y-99880999D01*
X133948282Y-100126066D01*
X133634239Y-100188533D01*
X133320197Y-100251000D01*
X132679803Y-100251000D01*
X132365761Y-100188533D01*
X132051718Y-100126066D01*
X131460074Y-99880999D01*
X130927608Y-99525216D01*
X130474784Y-99072392D01*
X130119001Y-98539926D01*
X129873934Y-97948282D01*
X129749000Y-97320196D01*
X129749000Y-96679804D01*
X129873934Y-96051718D01*
X130119001Y-95460074D01*
X130474784Y-94927608D01*
X130927608Y-94474784D01*
X131460074Y-94119001D01*
X132051718Y-93873934D01*
X132365761Y-93811467D01*
X132679803Y-93749000D01*
X133320197Y-93749000D01*
X133634239Y-93811467D01*
X133634239Y-93811467D01*
G37*
G36*
X113634239Y-93811467D02*
G01*
X113948282Y-93873934D01*
X114539926Y-94119001D01*
X115072392Y-94474784D01*
X115525216Y-94927608D01*
X115880999Y-95460074D01*
X116126066Y-96051718D01*
X116251000Y-96679804D01*
X116251000Y-97320196D01*
X116126066Y-97948282D01*
X115880999Y-98539926D01*
X115525216Y-99072392D01*
X115072392Y-99525216D01*
X114539926Y-99880999D01*
X113948282Y-100126066D01*
X113634239Y-100188533D01*
X113320197Y-100251000D01*
X112679803Y-100251000D01*
X112365761Y-100188533D01*
X112051718Y-100126066D01*
X111460074Y-99880999D01*
X110927608Y-99525216D01*
X110474784Y-99072392D01*
X110119001Y-98539926D01*
X109873934Y-97948282D01*
X109749000Y-97320196D01*
X109749000Y-96679804D01*
X109873934Y-96051718D01*
X110119001Y-95460074D01*
X110474784Y-94927608D01*
X110927608Y-94474784D01*
X111460074Y-94119001D01*
X112051718Y-93873934D01*
X112365761Y-93811467D01*
X112679803Y-93749000D01*
X113320197Y-93749000D01*
X113634239Y-93811467D01*
X113634239Y-93811467D01*
G37*
G36*
X93634239Y-93811467D02*
G01*
X93948282Y-93873934D01*
X94539926Y-94119001D01*
X95072392Y-94474784D01*
X95525216Y-94927608D01*
X95880999Y-95460074D01*
X96126066Y-96051718D01*
X96251000Y-96679804D01*
X96251000Y-97320196D01*
X96126066Y-97948282D01*
X95880999Y-98539926D01*
X95525216Y-99072392D01*
X95072392Y-99525216D01*
X94539926Y-99880999D01*
X93948282Y-100126066D01*
X93634239Y-100188533D01*
X93320197Y-100251000D01*
X92679803Y-100251000D01*
X92365761Y-100188533D01*
X92051718Y-100126066D01*
X91460074Y-99880999D01*
X90927608Y-99525216D01*
X90474784Y-99072392D01*
X90119001Y-98539926D01*
X89873934Y-97948282D01*
X89749000Y-97320196D01*
X89749000Y-96679804D01*
X89873934Y-96051718D01*
X90119001Y-95460074D01*
X90474784Y-94927608D01*
X90927608Y-94474784D01*
X91460074Y-94119001D01*
X92051718Y-93873934D01*
X92365761Y-93811467D01*
X92679803Y-93749000D01*
X93320197Y-93749000D01*
X93634239Y-93811467D01*
X93634239Y-93811467D01*
G37*
G36*
X121634239Y-93811467D02*
G01*
X121948282Y-93873934D01*
X122539926Y-94119001D01*
X123072392Y-94474784D01*
X123525216Y-94927608D01*
X123880999Y-95460074D01*
X124126066Y-96051718D01*
X124251000Y-96679804D01*
X124251000Y-97320196D01*
X124126066Y-97948282D01*
X123880999Y-98539926D01*
X123525216Y-99072392D01*
X123072392Y-99525216D01*
X122539926Y-99880999D01*
X121948282Y-100126066D01*
X121634239Y-100188533D01*
X121320197Y-100251000D01*
X120679803Y-100251000D01*
X120365761Y-100188533D01*
X120051718Y-100126066D01*
X119460074Y-99880999D01*
X118927608Y-99525216D01*
X118474784Y-99072392D01*
X118119001Y-98539926D01*
X117873934Y-97948282D01*
X117749000Y-97320196D01*
X117749000Y-96679804D01*
X117873934Y-96051718D01*
X118119001Y-95460074D01*
X118474784Y-94927608D01*
X118927608Y-94474784D01*
X119460074Y-94119001D01*
X120051718Y-93873934D01*
X120365761Y-93811467D01*
X120679803Y-93749000D01*
X121320197Y-93749000D01*
X121634239Y-93811467D01*
X121634239Y-93811467D01*
G37*
G36*
X101634239Y-93811467D02*
G01*
X101948282Y-93873934D01*
X102539926Y-94119001D01*
X103072392Y-94474784D01*
X103525216Y-94927608D01*
X103880999Y-95460074D01*
X104126066Y-96051718D01*
X104251000Y-96679804D01*
X104251000Y-97320196D01*
X104126066Y-97948282D01*
X103880999Y-98539926D01*
X103525216Y-99072392D01*
X103072392Y-99525216D01*
X102539926Y-99880999D01*
X101948282Y-100126066D01*
X101634239Y-100188533D01*
X101320197Y-100251000D01*
X100679803Y-100251000D01*
X100365761Y-100188533D01*
X100051718Y-100126066D01*
X99460074Y-99880999D01*
X98927608Y-99525216D01*
X98474784Y-99072392D01*
X98119001Y-98539926D01*
X97873934Y-97948282D01*
X97749000Y-97320196D01*
X97749000Y-96679804D01*
X97873934Y-96051718D01*
X98119001Y-95460074D01*
X98474784Y-94927608D01*
X98927608Y-94474784D01*
X99460074Y-94119001D01*
X100051718Y-93873934D01*
X100365761Y-93811467D01*
X100679803Y-93749000D01*
X101320197Y-93749000D01*
X101634239Y-93811467D01*
X101634239Y-93811467D01*
G37*
G36*
X141634239Y-93811467D02*
G01*
X141948282Y-93873934D01*
X142539926Y-94119001D01*
X143072392Y-94474784D01*
X143525216Y-94927608D01*
X143880999Y-95460074D01*
X144126066Y-96051718D01*
X144251000Y-96679804D01*
X144251000Y-97320196D01*
X144126066Y-97948282D01*
X143880999Y-98539926D01*
X143525216Y-99072392D01*
X143072392Y-99525216D01*
X142539926Y-99880999D01*
X141948282Y-100126066D01*
X141634239Y-100188533D01*
X141320197Y-100251000D01*
X140679803Y-100251000D01*
X140365761Y-100188533D01*
X140051718Y-100126066D01*
X139460074Y-99880999D01*
X138927608Y-99525216D01*
X138474784Y-99072392D01*
X138119001Y-98539926D01*
X137873934Y-97948282D01*
X137749000Y-97320196D01*
X137749000Y-96679804D01*
X137873934Y-96051718D01*
X138119001Y-95460074D01*
X138474784Y-94927608D01*
X138927608Y-94474784D01*
X139460074Y-94119001D01*
X140051718Y-93873934D01*
X140365761Y-93811467D01*
X140679803Y-93749000D01*
X141320197Y-93749000D01*
X141634239Y-93811467D01*
X141634239Y-93811467D01*
G37*
G36*
X81634239Y-93811467D02*
G01*
X81948282Y-93873934D01*
X82539926Y-94119001D01*
X83072392Y-94474784D01*
X83525216Y-94927608D01*
X83880999Y-95460074D01*
X84126066Y-96051718D01*
X84251000Y-96679804D01*
X84251000Y-97320196D01*
X84126066Y-97948282D01*
X83880999Y-98539926D01*
X83525216Y-99072392D01*
X83072392Y-99525216D01*
X82539926Y-99880999D01*
X81948282Y-100126066D01*
X81634239Y-100188533D01*
X81320197Y-100251000D01*
X80679803Y-100251000D01*
X80365761Y-100188533D01*
X80051718Y-100126066D01*
X79460074Y-99880999D01*
X78927608Y-99525216D01*
X78474784Y-99072392D01*
X78119001Y-98539926D01*
X77873934Y-97948282D01*
X77749000Y-97320196D01*
X77749000Y-96679804D01*
X77873934Y-96051718D01*
X78119001Y-95460074D01*
X78474784Y-94927608D01*
X78927608Y-94474784D01*
X79460074Y-94119001D01*
X80051718Y-93873934D01*
X80365761Y-93811467D01*
X80679803Y-93749000D01*
X81320197Y-93749000D01*
X81634239Y-93811467D01*
X81634239Y-93811467D01*
G37*
G36*
X105279400Y-89805000D02*
G01*
X103647400Y-89805000D01*
X103647400Y-88173000D01*
X105279400Y-88173000D01*
X105279400Y-89805000D01*
X105279400Y-89805000D01*
G37*
G36*
X109781417Y-88204358D02*
G01*
X109855670Y-88235115D01*
X109929921Y-88265870D01*
X109929922Y-88265871D01*
X110063567Y-88355169D01*
X110177231Y-88468833D01*
X110244205Y-88569067D01*
X110266530Y-88602479D01*
X110297285Y-88676730D01*
X110328042Y-88750983D01*
X110359400Y-88908630D01*
X110359400Y-89069370D01*
X110328042Y-89227017D01*
X110297285Y-89301270D01*
X110266530Y-89375521D01*
X110266529Y-89375522D01*
X110177231Y-89509167D01*
X110063567Y-89622831D01*
X109963333Y-89689804D01*
X109929921Y-89712130D01*
X109781417Y-89773642D01*
X109623770Y-89805000D01*
X109463030Y-89805000D01*
X109305383Y-89773642D01*
X109156879Y-89712130D01*
X109123467Y-89689804D01*
X109023233Y-89622831D01*
X108909569Y-89509167D01*
X108820271Y-89375522D01*
X108820270Y-89375521D01*
X108789515Y-89301270D01*
X108758758Y-89227017D01*
X108727400Y-89069370D01*
X108727400Y-88908630D01*
X108758758Y-88750983D01*
X108789515Y-88676730D01*
X108820270Y-88602479D01*
X108842595Y-88569067D01*
X108909569Y-88468833D01*
X109023233Y-88355169D01*
X109156878Y-88265871D01*
X109156879Y-88265870D01*
X109231130Y-88235115D01*
X109305383Y-88204358D01*
X109463030Y-88173000D01*
X109623770Y-88173000D01*
X109781417Y-88204358D01*
X109781417Y-88204358D01*
G37*
G36*
X125279400Y-89805000D02*
G01*
X123647400Y-89805000D01*
X123647400Y-88173000D01*
X125279400Y-88173000D01*
X125279400Y-89805000D01*
X125279400Y-89805000D01*
G37*
G36*
X127241417Y-88204358D02*
G01*
X127315670Y-88235115D01*
X127389921Y-88265870D01*
X127389922Y-88265871D01*
X127523567Y-88355169D01*
X127637231Y-88468833D01*
X127704205Y-88569067D01*
X127726530Y-88602479D01*
X127757285Y-88676730D01*
X127788042Y-88750983D01*
X127819400Y-88908630D01*
X127819400Y-89069370D01*
X127788042Y-89227017D01*
X127757285Y-89301270D01*
X127726530Y-89375521D01*
X127726529Y-89375522D01*
X127637231Y-89509167D01*
X127523567Y-89622831D01*
X127423333Y-89689804D01*
X127389921Y-89712130D01*
X127241417Y-89773642D01*
X127083770Y-89805000D01*
X126923030Y-89805000D01*
X126765383Y-89773642D01*
X126616879Y-89712130D01*
X126583467Y-89689804D01*
X126483233Y-89622831D01*
X126369569Y-89509167D01*
X126280271Y-89375522D01*
X126280270Y-89375521D01*
X126249515Y-89301270D01*
X126218758Y-89227017D01*
X126187400Y-89069370D01*
X126187400Y-88908630D01*
X126218758Y-88750983D01*
X126249515Y-88676730D01*
X126280270Y-88602479D01*
X126302595Y-88569067D01*
X126369569Y-88468833D01*
X126483233Y-88355169D01*
X126616878Y-88265871D01*
X126616879Y-88265870D01*
X126691130Y-88235115D01*
X126765383Y-88204358D01*
X126923030Y-88173000D01*
X127083770Y-88173000D01*
X127241417Y-88204358D01*
X127241417Y-88204358D01*
G37*
G36*
X129781417Y-88204358D02*
G01*
X129855670Y-88235115D01*
X129929921Y-88265870D01*
X129929922Y-88265871D01*
X130063567Y-88355169D01*
X130177231Y-88468833D01*
X130244205Y-88569067D01*
X130266530Y-88602479D01*
X130297285Y-88676730D01*
X130328042Y-88750983D01*
X130359400Y-88908630D01*
X130359400Y-89069370D01*
X130328042Y-89227017D01*
X130297285Y-89301270D01*
X130266530Y-89375521D01*
X130266529Y-89375522D01*
X130177231Y-89509167D01*
X130063567Y-89622831D01*
X129963333Y-89689804D01*
X129929921Y-89712130D01*
X129781417Y-89773642D01*
X129623770Y-89805000D01*
X129463030Y-89805000D01*
X129305383Y-89773642D01*
X129156879Y-89712130D01*
X129123467Y-89689804D01*
X129023233Y-89622831D01*
X128909569Y-89509167D01*
X128820271Y-89375522D01*
X128820270Y-89375521D01*
X128789515Y-89301270D01*
X128758758Y-89227017D01*
X128727400Y-89069370D01*
X128727400Y-88908630D01*
X128758758Y-88750983D01*
X128789515Y-88676730D01*
X128820270Y-88602479D01*
X128842595Y-88569067D01*
X128909569Y-88468833D01*
X129023233Y-88355169D01*
X129156878Y-88265871D01*
X129156879Y-88265870D01*
X129231130Y-88235115D01*
X129305383Y-88204358D01*
X129463030Y-88173000D01*
X129623770Y-88173000D01*
X129781417Y-88204358D01*
X129781417Y-88204358D01*
G37*
G36*
X145279400Y-89805000D02*
G01*
X143647400Y-89805000D01*
X143647400Y-88173000D01*
X145279400Y-88173000D01*
X145279400Y-89805000D01*
X145279400Y-89805000D01*
G37*
G36*
X147241417Y-88204358D02*
G01*
X147315670Y-88235115D01*
X147389921Y-88265870D01*
X147389922Y-88265871D01*
X147523567Y-88355169D01*
X147637231Y-88468833D01*
X147704205Y-88569067D01*
X147726530Y-88602479D01*
X147757285Y-88676730D01*
X147788042Y-88750983D01*
X147819400Y-88908630D01*
X147819400Y-89069370D01*
X147788042Y-89227017D01*
X147757285Y-89301270D01*
X147726530Y-89375521D01*
X147726529Y-89375522D01*
X147637231Y-89509167D01*
X147523567Y-89622831D01*
X147423333Y-89689804D01*
X147389921Y-89712130D01*
X147241417Y-89773642D01*
X147083770Y-89805000D01*
X146923030Y-89805000D01*
X146765383Y-89773642D01*
X146616879Y-89712130D01*
X146583467Y-89689804D01*
X146483233Y-89622831D01*
X146369569Y-89509167D01*
X146280271Y-89375522D01*
X146280270Y-89375521D01*
X146249515Y-89301270D01*
X146218758Y-89227017D01*
X146187400Y-89069370D01*
X146187400Y-88908630D01*
X146218758Y-88750983D01*
X146249515Y-88676730D01*
X146280270Y-88602479D01*
X146302595Y-88569067D01*
X146369569Y-88468833D01*
X146483233Y-88355169D01*
X146616878Y-88265871D01*
X146616879Y-88265870D01*
X146691130Y-88235115D01*
X146765383Y-88204358D01*
X146923030Y-88173000D01*
X147083770Y-88173000D01*
X147241417Y-88204358D01*
X147241417Y-88204358D01*
G37*
G36*
X149781417Y-88204358D02*
G01*
X149855670Y-88235115D01*
X149929921Y-88265870D01*
X149929922Y-88265871D01*
X150063567Y-88355169D01*
X150177231Y-88468833D01*
X150244205Y-88569067D01*
X150266530Y-88602479D01*
X150297285Y-88676730D01*
X150328042Y-88750983D01*
X150359400Y-88908630D01*
X150359400Y-89069370D01*
X150328042Y-89227017D01*
X150297285Y-89301270D01*
X150266530Y-89375521D01*
X150266529Y-89375522D01*
X150177231Y-89509167D01*
X150063567Y-89622831D01*
X149963333Y-89689804D01*
X149929921Y-89712130D01*
X149781417Y-89773642D01*
X149623770Y-89805000D01*
X149463030Y-89805000D01*
X149305383Y-89773642D01*
X149156879Y-89712130D01*
X149123467Y-89689804D01*
X149023233Y-89622831D01*
X148909569Y-89509167D01*
X148820271Y-89375522D01*
X148820270Y-89375521D01*
X148789515Y-89301270D01*
X148758758Y-89227017D01*
X148727400Y-89069370D01*
X148727400Y-88908630D01*
X148758758Y-88750983D01*
X148789515Y-88676730D01*
X148820270Y-88602479D01*
X148842595Y-88569067D01*
X148909569Y-88468833D01*
X149023233Y-88355169D01*
X149156878Y-88265871D01*
X149156879Y-88265870D01*
X149231130Y-88235115D01*
X149305383Y-88204358D01*
X149463030Y-88173000D01*
X149623770Y-88173000D01*
X149781417Y-88204358D01*
X149781417Y-88204358D01*
G37*
G36*
X165279400Y-89805000D02*
G01*
X163647400Y-89805000D01*
X163647400Y-88173000D01*
X165279400Y-88173000D01*
X165279400Y-89805000D01*
X165279400Y-89805000D01*
G37*
G36*
X167241417Y-88204358D02*
G01*
X167315670Y-88235115D01*
X167389921Y-88265870D01*
X167389922Y-88265871D01*
X167523567Y-88355169D01*
X167637231Y-88468833D01*
X167704205Y-88569067D01*
X167726530Y-88602479D01*
X167757285Y-88676730D01*
X167788042Y-88750983D01*
X167819400Y-88908630D01*
X167819400Y-89069370D01*
X167788042Y-89227017D01*
X167757285Y-89301270D01*
X167726530Y-89375521D01*
X167726529Y-89375522D01*
X167637231Y-89509167D01*
X167523567Y-89622831D01*
X167423333Y-89689804D01*
X167389921Y-89712130D01*
X167241417Y-89773642D01*
X167083770Y-89805000D01*
X166923030Y-89805000D01*
X166765383Y-89773642D01*
X166616879Y-89712130D01*
X166583467Y-89689804D01*
X166483233Y-89622831D01*
X166369569Y-89509167D01*
X166280271Y-89375522D01*
X166280270Y-89375521D01*
X166249515Y-89301270D01*
X166218758Y-89227017D01*
X166187400Y-89069370D01*
X166187400Y-88908630D01*
X166218758Y-88750983D01*
X166249515Y-88676730D01*
X166280270Y-88602479D01*
X166302595Y-88569067D01*
X166369569Y-88468833D01*
X166483233Y-88355169D01*
X166616878Y-88265871D01*
X166616879Y-88265870D01*
X166691130Y-88235115D01*
X166765383Y-88204358D01*
X166923030Y-88173000D01*
X167083770Y-88173000D01*
X167241417Y-88204358D01*
X167241417Y-88204358D01*
G37*
G36*
X107241417Y-88204358D02*
G01*
X107315670Y-88235115D01*
X107389921Y-88265870D01*
X107389922Y-88265871D01*
X107523567Y-88355169D01*
X107637231Y-88468833D01*
X107704205Y-88569067D01*
X107726530Y-88602479D01*
X107757285Y-88676730D01*
X107788042Y-88750983D01*
X107819400Y-88908630D01*
X107819400Y-89069370D01*
X107788042Y-89227017D01*
X107757285Y-89301270D01*
X107726530Y-89375521D01*
X107726529Y-89375522D01*
X107637231Y-89509167D01*
X107523567Y-89622831D01*
X107423333Y-89689804D01*
X107389921Y-89712130D01*
X107241417Y-89773642D01*
X107083770Y-89805000D01*
X106923030Y-89805000D01*
X106765383Y-89773642D01*
X106616879Y-89712130D01*
X106583467Y-89689804D01*
X106483233Y-89622831D01*
X106369569Y-89509167D01*
X106280271Y-89375522D01*
X106280270Y-89375521D01*
X106249515Y-89301270D01*
X106218758Y-89227017D01*
X106187400Y-89069370D01*
X106187400Y-88908630D01*
X106218758Y-88750983D01*
X106249515Y-88676730D01*
X106280270Y-88602479D01*
X106302595Y-88569067D01*
X106369569Y-88468833D01*
X106483233Y-88355169D01*
X106616878Y-88265871D01*
X106616879Y-88265870D01*
X106691130Y-88235115D01*
X106765383Y-88204358D01*
X106923030Y-88173000D01*
X107083770Y-88173000D01*
X107241417Y-88204358D01*
X107241417Y-88204358D01*
G37*
G36*
X169781417Y-88204358D02*
G01*
X169855670Y-88235115D01*
X169929921Y-88265870D01*
X169929922Y-88265871D01*
X170063567Y-88355169D01*
X170177231Y-88468833D01*
X170244205Y-88569067D01*
X170266530Y-88602479D01*
X170297285Y-88676730D01*
X170328042Y-88750983D01*
X170359400Y-88908630D01*
X170359400Y-89069370D01*
X170328042Y-89227017D01*
X170297285Y-89301270D01*
X170266530Y-89375521D01*
X170266529Y-89375522D01*
X170177231Y-89509167D01*
X170063567Y-89622831D01*
X169963333Y-89689804D01*
X169929921Y-89712130D01*
X169781417Y-89773642D01*
X169623770Y-89805000D01*
X169463030Y-89805000D01*
X169305383Y-89773642D01*
X169156879Y-89712130D01*
X169123467Y-89689804D01*
X169023233Y-89622831D01*
X168909569Y-89509167D01*
X168820271Y-89375522D01*
X168820270Y-89375521D01*
X168789515Y-89301270D01*
X168758758Y-89227017D01*
X168727400Y-89069370D01*
X168727400Y-88908630D01*
X168758758Y-88750983D01*
X168789515Y-88676730D01*
X168820270Y-88602479D01*
X168842595Y-88569067D01*
X168909569Y-88468833D01*
X169023233Y-88355169D01*
X169156878Y-88265871D01*
X169156879Y-88265870D01*
X169231130Y-88235115D01*
X169305383Y-88204358D01*
X169463030Y-88173000D01*
X169623770Y-88173000D01*
X169781417Y-88204358D01*
X169781417Y-88204358D01*
G37*
G36*
X89781417Y-88204358D02*
G01*
X89855670Y-88235115D01*
X89929921Y-88265870D01*
X89929922Y-88265871D01*
X90063567Y-88355169D01*
X90177231Y-88468833D01*
X90244205Y-88569067D01*
X90266530Y-88602479D01*
X90328042Y-88750983D01*
X90359400Y-88908630D01*
X90359400Y-89069370D01*
X90328042Y-89227017D01*
X90297285Y-89301270D01*
X90266530Y-89375521D01*
X90266529Y-89375522D01*
X90177231Y-89509167D01*
X90063567Y-89622831D01*
X89963333Y-89689804D01*
X89929921Y-89712130D01*
X89781417Y-89773642D01*
X89623770Y-89805000D01*
X89463030Y-89805000D01*
X89305383Y-89773642D01*
X89156879Y-89712130D01*
X89123467Y-89689804D01*
X89023233Y-89622831D01*
X88909569Y-89509167D01*
X88820271Y-89375522D01*
X88820270Y-89375521D01*
X88789515Y-89301270D01*
X88758758Y-89227017D01*
X88727400Y-89069370D01*
X88727400Y-88908630D01*
X88758758Y-88750983D01*
X88789515Y-88676730D01*
X88820270Y-88602479D01*
X88842595Y-88569067D01*
X88909569Y-88468833D01*
X89023233Y-88355169D01*
X89156878Y-88265871D01*
X89156879Y-88265870D01*
X89231130Y-88235115D01*
X89305383Y-88204358D01*
X89463030Y-88173000D01*
X89623770Y-88173000D01*
X89781417Y-88204358D01*
X89781417Y-88204358D01*
G37*
G36*
X87241417Y-88204358D02*
G01*
X87315670Y-88235115D01*
X87389921Y-88265870D01*
X87389922Y-88265871D01*
X87523567Y-88355169D01*
X87637231Y-88468833D01*
X87704205Y-88569067D01*
X87726530Y-88602479D01*
X87788042Y-88750983D01*
X87819400Y-88908630D01*
X87819400Y-89069370D01*
X87788042Y-89227017D01*
X87757285Y-89301270D01*
X87726530Y-89375521D01*
X87726529Y-89375522D01*
X87637231Y-89509167D01*
X87523567Y-89622831D01*
X87423333Y-89689804D01*
X87389921Y-89712130D01*
X87241417Y-89773642D01*
X87083770Y-89805000D01*
X86923030Y-89805000D01*
X86765383Y-89773642D01*
X86616879Y-89712130D01*
X86583467Y-89689804D01*
X86483233Y-89622831D01*
X86369569Y-89509167D01*
X86280271Y-89375522D01*
X86280270Y-89375521D01*
X86249515Y-89301270D01*
X86218758Y-89227017D01*
X86187400Y-89069370D01*
X86187400Y-88908630D01*
X86218758Y-88750983D01*
X86249515Y-88676730D01*
X86280270Y-88602479D01*
X86302595Y-88569067D01*
X86369569Y-88468833D01*
X86483233Y-88355169D01*
X86616878Y-88265871D01*
X86616879Y-88265870D01*
X86691130Y-88235115D01*
X86765383Y-88204358D01*
X86923030Y-88173000D01*
X87083770Y-88173000D01*
X87241417Y-88204358D01*
X87241417Y-88204358D01*
G37*
G36*
X85279400Y-89805000D02*
G01*
X83647400Y-89805000D01*
X83647400Y-88173000D01*
X85279400Y-88173000D01*
X85279400Y-89805000D01*
X85279400Y-89805000D01*
G37*
G36*
X113634239Y-80811467D02*
G01*
X113948282Y-80873934D01*
X114539926Y-81119001D01*
X115072392Y-81474784D01*
X115525216Y-81927608D01*
X115880999Y-82460074D01*
X116126066Y-83051718D01*
X116251000Y-83679804D01*
X116251000Y-84320196D01*
X116126066Y-84948282D01*
X115880999Y-85539926D01*
X115525216Y-86072392D01*
X115072392Y-86525216D01*
X114539926Y-86880999D01*
X113948282Y-87126066D01*
X113634239Y-87188533D01*
X113320197Y-87251000D01*
X112679803Y-87251000D01*
X112365761Y-87188533D01*
X112051718Y-87126066D01*
X111460074Y-86880999D01*
X110927608Y-86525216D01*
X110474784Y-86072392D01*
X110119001Y-85539926D01*
X109873934Y-84948282D01*
X109749000Y-84320196D01*
X109749000Y-83679804D01*
X109873934Y-83051718D01*
X110119001Y-82460074D01*
X110474784Y-81927608D01*
X110927608Y-81474784D01*
X111460074Y-81119001D01*
X112051718Y-80873934D01*
X112365761Y-80811467D01*
X112679803Y-80749000D01*
X113320197Y-80749000D01*
X113634239Y-80811467D01*
X113634239Y-80811467D01*
G37*
G36*
X133634239Y-80811467D02*
G01*
X133948282Y-80873934D01*
X134539926Y-81119001D01*
X135072392Y-81474784D01*
X135525216Y-81927608D01*
X135880999Y-82460074D01*
X136126066Y-83051718D01*
X136251000Y-83679804D01*
X136251000Y-84320196D01*
X136126066Y-84948282D01*
X135880999Y-85539926D01*
X135525216Y-86072392D01*
X135072392Y-86525216D01*
X134539926Y-86880999D01*
X133948282Y-87126066D01*
X133634239Y-87188533D01*
X133320197Y-87251000D01*
X132679803Y-87251000D01*
X132365761Y-87188533D01*
X132051718Y-87126066D01*
X131460074Y-86880999D01*
X130927608Y-86525216D01*
X130474784Y-86072392D01*
X130119001Y-85539926D01*
X129873934Y-84948282D01*
X129749000Y-84320196D01*
X129749000Y-83679804D01*
X129873934Y-83051718D01*
X130119001Y-82460074D01*
X130474784Y-81927608D01*
X130927608Y-81474784D01*
X131460074Y-81119001D01*
X132051718Y-80873934D01*
X132365761Y-80811467D01*
X132679803Y-80749000D01*
X133320197Y-80749000D01*
X133634239Y-80811467D01*
X133634239Y-80811467D01*
G37*
G36*
X153634239Y-80811467D02*
G01*
X153948282Y-80873934D01*
X154539926Y-81119001D01*
X155072392Y-81474784D01*
X155525216Y-81927608D01*
X155880999Y-82460074D01*
X156126066Y-83051718D01*
X156251000Y-83679804D01*
X156251000Y-84320196D01*
X156126066Y-84948282D01*
X155880999Y-85539926D01*
X155525216Y-86072392D01*
X155072392Y-86525216D01*
X154539926Y-86880999D01*
X153948282Y-87126066D01*
X153634239Y-87188533D01*
X153320197Y-87251000D01*
X152679803Y-87251000D01*
X152365761Y-87188533D01*
X152051718Y-87126066D01*
X151460074Y-86880999D01*
X150927608Y-86525216D01*
X150474784Y-86072392D01*
X150119001Y-85539926D01*
X149873934Y-84948282D01*
X149749000Y-84320196D01*
X149749000Y-83679804D01*
X149873934Y-83051718D01*
X150119001Y-82460074D01*
X150474784Y-81927608D01*
X150927608Y-81474784D01*
X151460074Y-81119001D01*
X152051718Y-80873934D01*
X152365761Y-80811467D01*
X152679803Y-80749000D01*
X153320197Y-80749000D01*
X153634239Y-80811467D01*
X153634239Y-80811467D01*
G37*
G36*
X173634239Y-80811467D02*
G01*
X173948282Y-80873934D01*
X174539926Y-81119001D01*
X175072392Y-81474784D01*
X175525216Y-81927608D01*
X175880999Y-82460074D01*
X176126066Y-83051718D01*
X176251000Y-83679804D01*
X176251000Y-84320196D01*
X176126066Y-84948282D01*
X175880999Y-85539926D01*
X175525216Y-86072392D01*
X175072392Y-86525216D01*
X174539926Y-86880999D01*
X173948282Y-87126066D01*
X173634239Y-87188533D01*
X173320197Y-87251000D01*
X172679803Y-87251000D01*
X172365761Y-87188533D01*
X172051718Y-87126066D01*
X171460074Y-86880999D01*
X170927608Y-86525216D01*
X170474784Y-86072392D01*
X170119001Y-85539926D01*
X169873934Y-84948282D01*
X169749000Y-84320196D01*
X169749000Y-83679804D01*
X169873934Y-83051718D01*
X170119001Y-82460074D01*
X170474784Y-81927608D01*
X170927608Y-81474784D01*
X171460074Y-81119001D01*
X172051718Y-80873934D01*
X172365761Y-80811467D01*
X172679803Y-80749000D01*
X173320197Y-80749000D01*
X173634239Y-80811467D01*
X173634239Y-80811467D01*
G37*
G36*
X81634239Y-80811467D02*
G01*
X81948282Y-80873934D01*
X82539926Y-81119001D01*
X83072392Y-81474784D01*
X83525216Y-81927608D01*
X83880999Y-82460074D01*
X84126066Y-83051718D01*
X84251000Y-83679804D01*
X84251000Y-84320196D01*
X84126066Y-84948282D01*
X83880999Y-85539926D01*
X83525216Y-86072392D01*
X83072392Y-86525216D01*
X82539926Y-86880999D01*
X81948282Y-87126066D01*
X81634239Y-87188533D01*
X81320197Y-87251000D01*
X80679803Y-87251000D01*
X80365761Y-87188533D01*
X80051718Y-87126066D01*
X79460074Y-86880999D01*
X78927608Y-86525216D01*
X78474784Y-86072392D01*
X78119001Y-85539926D01*
X77873934Y-84948282D01*
X77749000Y-84320196D01*
X77749000Y-83679804D01*
X77873934Y-83051718D01*
X78119001Y-82460074D01*
X78474784Y-81927608D01*
X78927608Y-81474784D01*
X79460074Y-81119001D01*
X80051718Y-80873934D01*
X80365761Y-80811467D01*
X80679803Y-80749000D01*
X81320197Y-80749000D01*
X81634239Y-80811467D01*
X81634239Y-80811467D01*
G37*
G36*
X161634239Y-80811467D02*
G01*
X161948282Y-80873934D01*
X162539926Y-81119001D01*
X163072392Y-81474784D01*
X163525216Y-81927608D01*
X163880999Y-82460074D01*
X164126066Y-83051718D01*
X164251000Y-83679804D01*
X164251000Y-84320196D01*
X164126066Y-84948282D01*
X163880999Y-85539926D01*
X163525216Y-86072392D01*
X163072392Y-86525216D01*
X162539926Y-86880999D01*
X161948282Y-87126066D01*
X161634239Y-87188533D01*
X161320197Y-87251000D01*
X160679803Y-87251000D01*
X160365761Y-87188533D01*
X160051718Y-87126066D01*
X159460074Y-86880999D01*
X158927608Y-86525216D01*
X158474784Y-86072392D01*
X158119001Y-85539926D01*
X157873934Y-84948282D01*
X157749000Y-84320196D01*
X157749000Y-83679804D01*
X157873934Y-83051718D01*
X158119001Y-82460074D01*
X158474784Y-81927608D01*
X158927608Y-81474784D01*
X159460074Y-81119001D01*
X160051718Y-80873934D01*
X160365761Y-80811467D01*
X160679803Y-80749000D01*
X161320197Y-80749000D01*
X161634239Y-80811467D01*
X161634239Y-80811467D01*
G37*
G36*
X141634239Y-80811467D02*
G01*
X141948282Y-80873934D01*
X142539926Y-81119001D01*
X143072392Y-81474784D01*
X143525216Y-81927608D01*
X143880999Y-82460074D01*
X144126066Y-83051718D01*
X144251000Y-83679804D01*
X144251000Y-84320196D01*
X144126066Y-84948282D01*
X143880999Y-85539926D01*
X143525216Y-86072392D01*
X143072392Y-86525216D01*
X142539926Y-86880999D01*
X141948282Y-87126066D01*
X141634239Y-87188533D01*
X141320197Y-87251000D01*
X140679803Y-87251000D01*
X140365761Y-87188533D01*
X140051718Y-87126066D01*
X139460074Y-86880999D01*
X138927608Y-86525216D01*
X138474784Y-86072392D01*
X138119001Y-85539926D01*
X137873934Y-84948282D01*
X137749000Y-84320196D01*
X137749000Y-83679804D01*
X137873934Y-83051718D01*
X138119001Y-82460074D01*
X138474784Y-81927608D01*
X138927608Y-81474784D01*
X139460074Y-81119001D01*
X140051718Y-80873934D01*
X140365761Y-80811467D01*
X140679803Y-80749000D01*
X141320197Y-80749000D01*
X141634239Y-80811467D01*
X141634239Y-80811467D01*
G37*
G36*
X121634239Y-80811467D02*
G01*
X121948282Y-80873934D01*
X122539926Y-81119001D01*
X123072392Y-81474784D01*
X123525216Y-81927608D01*
X123880999Y-82460074D01*
X124126066Y-83051718D01*
X124251000Y-83679804D01*
X124251000Y-84320196D01*
X124126066Y-84948282D01*
X123880999Y-85539926D01*
X123525216Y-86072392D01*
X123072392Y-86525216D01*
X122539926Y-86880999D01*
X121948282Y-87126066D01*
X121634239Y-87188533D01*
X121320197Y-87251000D01*
X120679803Y-87251000D01*
X120365761Y-87188533D01*
X120051718Y-87126066D01*
X119460074Y-86880999D01*
X118927608Y-86525216D01*
X118474784Y-86072392D01*
X118119001Y-85539926D01*
X117873934Y-84948282D01*
X117749000Y-84320196D01*
X117749000Y-83679804D01*
X117873934Y-83051718D01*
X118119001Y-82460074D01*
X118474784Y-81927608D01*
X118927608Y-81474784D01*
X119460074Y-81119001D01*
X120051718Y-80873934D01*
X120365761Y-80811467D01*
X120679803Y-80749000D01*
X121320197Y-80749000D01*
X121634239Y-80811467D01*
X121634239Y-80811467D01*
G37*
G36*
X101634239Y-80811467D02*
G01*
X101948282Y-80873934D01*
X102539926Y-81119001D01*
X103072392Y-81474784D01*
X103525216Y-81927608D01*
X103880999Y-82460074D01*
X104126066Y-83051718D01*
X104251000Y-83679804D01*
X104251000Y-84320196D01*
X104126066Y-84948282D01*
X103880999Y-85539926D01*
X103525216Y-86072392D01*
X103072392Y-86525216D01*
X102539926Y-86880999D01*
X101948282Y-87126066D01*
X101634239Y-87188533D01*
X101320197Y-87251000D01*
X100679803Y-87251000D01*
X100365761Y-87188533D01*
X100051718Y-87126066D01*
X99460074Y-86880999D01*
X98927608Y-86525216D01*
X98474784Y-86072392D01*
X98119001Y-85539926D01*
X97873934Y-84948282D01*
X97749000Y-84320196D01*
X97749000Y-83679804D01*
X97873934Y-83051718D01*
X98119001Y-82460074D01*
X98474784Y-81927608D01*
X98927608Y-81474784D01*
X99460074Y-81119001D01*
X100051718Y-80873934D01*
X100365761Y-80811467D01*
X100679803Y-80749000D01*
X101320197Y-80749000D01*
X101634239Y-80811467D01*
X101634239Y-80811467D01*
G37*
G36*
X93634239Y-80811467D02*
G01*
X93948282Y-80873934D01*
X94539926Y-81119001D01*
X95072392Y-81474784D01*
X95525216Y-81927608D01*
X95880999Y-82460074D01*
X96126066Y-83051718D01*
X96251000Y-83679804D01*
X96251000Y-84320196D01*
X96126066Y-84948282D01*
X95880999Y-85539926D01*
X95525216Y-86072392D01*
X95072392Y-86525216D01*
X94539926Y-86880999D01*
X93948282Y-87126066D01*
X93634239Y-87188533D01*
X93320197Y-87251000D01*
X92679803Y-87251000D01*
X92365761Y-87188533D01*
X92051718Y-87126066D01*
X91460074Y-86880999D01*
X90927608Y-86525216D01*
X90474784Y-86072392D01*
X90119001Y-85539926D01*
X89873934Y-84948282D01*
X89749000Y-84320196D01*
X89749000Y-83679804D01*
X89873934Y-83051718D01*
X90119001Y-82460074D01*
X90474784Y-81927608D01*
X90927608Y-81474784D01*
X91460074Y-81119001D01*
X92051718Y-80873934D01*
X92365761Y-80811467D01*
X92679803Y-80749000D01*
X93320197Y-80749000D01*
X93634239Y-80811467D01*
X93634239Y-80811467D01*
G37*
M02*
