G04 #@! TF.GenerationSoftware,KiCad,Pcbnew,(5.1.0-0)*
G04 #@! TF.CreationDate,2019-05-13T15:47:01-05:00*
G04 #@! TF.ProjectId,splitflap-hall-pcb,73706c69-7466-46c6-9170-2d68616c6c2d,rev?*
G04 #@! TF.SameCoordinates,Original*
G04 #@! TF.FileFunction,Legend,Top*
G04 #@! TF.FilePolarity,Positive*
%FSLAX46Y46*%
G04 Gerber Fmt 4.6, Leading zero omitted, Abs format (unit mm)*
G04 Created by KiCad (PCBNEW (5.1.0-0)) date 2019-05-13 15:47:01*
%MOMM*%
%LPD*%
G04 APERTURE LIST*
%ADD10C,0.120000*%
G04 APERTURE END LIST*
D10*
X165429600Y-162960600D02*
X166479600Y-162960600D01*
X165429600Y-161160600D02*
X165429600Y-162960600D01*
X168729600Y-162960600D02*
X167679600Y-162960600D01*
X168729600Y-160560600D02*
X168729600Y-162960600D01*
X145429600Y-162960600D02*
X146479600Y-162960600D01*
X145429600Y-161160600D02*
X145429600Y-162960600D01*
X148729600Y-162960600D02*
X147679600Y-162960600D01*
X148729600Y-160560600D02*
X148729600Y-162960600D01*
X125429600Y-162960600D02*
X126479600Y-162960600D01*
X125429600Y-161160600D02*
X125429600Y-162960600D01*
X128729600Y-162960600D02*
X127679600Y-162960600D01*
X128729600Y-160560600D02*
X128729600Y-162960600D01*
X105429600Y-162960600D02*
X106479600Y-162960600D01*
X105429600Y-161160600D02*
X105429600Y-162960600D01*
X108729600Y-162960600D02*
X107679600Y-162960600D01*
X108729600Y-160560600D02*
X108729600Y-162960600D01*
X85429600Y-162960600D02*
X86479600Y-162960600D01*
X85429600Y-161160600D02*
X85429600Y-162960600D01*
X88729600Y-162960600D02*
X87679600Y-162960600D01*
X88729600Y-160560600D02*
X88729600Y-162960600D01*
X165429600Y-149960600D02*
X166479600Y-149960600D01*
X165429600Y-148160600D02*
X165429600Y-149960600D01*
X168729600Y-149960600D02*
X167679600Y-149960600D01*
X168729600Y-147560600D02*
X168729600Y-149960600D01*
X145429600Y-149960600D02*
X146479600Y-149960600D01*
X145429600Y-148160600D02*
X145429600Y-149960600D01*
X148729600Y-149960600D02*
X147679600Y-149960600D01*
X148729600Y-147560600D02*
X148729600Y-149960600D01*
X125429600Y-149960600D02*
X126479600Y-149960600D01*
X125429600Y-148160600D02*
X125429600Y-149960600D01*
X128729600Y-149960600D02*
X127679600Y-149960600D01*
X128729600Y-147560600D02*
X128729600Y-149960600D01*
X105429600Y-149960600D02*
X106479600Y-149960600D01*
X105429600Y-148160600D02*
X105429600Y-149960600D01*
X108729600Y-149960600D02*
X107679600Y-149960600D01*
X108729600Y-147560600D02*
X108729600Y-149960600D01*
X85429600Y-149960600D02*
X86479600Y-149960600D01*
X85429600Y-148160600D02*
X85429600Y-149960600D01*
X88729600Y-149960600D02*
X87679600Y-149960600D01*
X88729600Y-147560600D02*
X88729600Y-149960600D01*
X165429600Y-136960600D02*
X166479600Y-136960600D01*
X165429600Y-135160600D02*
X165429600Y-136960600D01*
X168729600Y-136960600D02*
X167679600Y-136960600D01*
X168729600Y-134560600D02*
X168729600Y-136960600D01*
X145429600Y-136960600D02*
X146479600Y-136960600D01*
X145429600Y-135160600D02*
X145429600Y-136960600D01*
X148729600Y-136960600D02*
X147679600Y-136960600D01*
X148729600Y-134560600D02*
X148729600Y-136960600D01*
X125429600Y-136960600D02*
X126479600Y-136960600D01*
X125429600Y-135160600D02*
X125429600Y-136960600D01*
X128729600Y-136960600D02*
X127679600Y-136960600D01*
X128729600Y-134560600D02*
X128729600Y-136960600D01*
X105429600Y-136960600D02*
X106479600Y-136960600D01*
X105429600Y-135160600D02*
X105429600Y-136960600D01*
X108729600Y-136960600D02*
X107679600Y-136960600D01*
X108729600Y-134560600D02*
X108729600Y-136960600D01*
X85429600Y-136960600D02*
X86479600Y-136960600D01*
X85429600Y-135160600D02*
X85429600Y-136960600D01*
X88729600Y-136960600D02*
X87679600Y-136960600D01*
X88729600Y-134560600D02*
X88729600Y-136960600D01*
X165429600Y-123960600D02*
X166479600Y-123960600D01*
X165429600Y-122160600D02*
X165429600Y-123960600D01*
X168729600Y-123960600D02*
X167679600Y-123960600D01*
X168729600Y-121560600D02*
X168729600Y-123960600D01*
X145429600Y-123960600D02*
X146479600Y-123960600D01*
X145429600Y-122160600D02*
X145429600Y-123960600D01*
X148729600Y-123960600D02*
X147679600Y-123960600D01*
X148729600Y-121560600D02*
X148729600Y-123960600D01*
X125429600Y-123960600D02*
X126479600Y-123960600D01*
X125429600Y-122160600D02*
X125429600Y-123960600D01*
X128729600Y-123960600D02*
X127679600Y-123960600D01*
X128729600Y-121560600D02*
X128729600Y-123960600D01*
X105429600Y-123960600D02*
X106479600Y-123960600D01*
X105429600Y-122160600D02*
X105429600Y-123960600D01*
X108729600Y-123960600D02*
X107679600Y-123960600D01*
X108729600Y-121560600D02*
X108729600Y-123960600D01*
X85429600Y-123960600D02*
X86479600Y-123960600D01*
X85429600Y-122160600D02*
X85429600Y-123960600D01*
X88729600Y-123960600D02*
X87679600Y-123960600D01*
X88729600Y-121560600D02*
X88729600Y-123960600D01*
X165429600Y-110960600D02*
X166479600Y-110960600D01*
X165429600Y-109160600D02*
X165429600Y-110960600D01*
X168729600Y-110960600D02*
X167679600Y-110960600D01*
X168729600Y-108560600D02*
X168729600Y-110960600D01*
X145429600Y-110960600D02*
X146479600Y-110960600D01*
X145429600Y-109160600D02*
X145429600Y-110960600D01*
X148729600Y-110960600D02*
X147679600Y-110960600D01*
X148729600Y-108560600D02*
X148729600Y-110960600D01*
X125429600Y-110960600D02*
X126479600Y-110960600D01*
X125429600Y-109160600D02*
X125429600Y-110960600D01*
X128729600Y-110960600D02*
X127679600Y-110960600D01*
X128729600Y-108560600D02*
X128729600Y-110960600D01*
X105429600Y-110960600D02*
X106479600Y-110960600D01*
X105429600Y-109160600D02*
X105429600Y-110960600D01*
X108729600Y-110960600D02*
X107679600Y-110960600D01*
X108729600Y-108560600D02*
X108729600Y-110960600D01*
X85429600Y-110960600D02*
X86479600Y-110960600D01*
X85429600Y-109160600D02*
X85429600Y-110960600D01*
X88729600Y-110960600D02*
X87679600Y-110960600D01*
X88729600Y-108560600D02*
X88729600Y-110960600D01*
X165429600Y-97960600D02*
X166479600Y-97960600D01*
X165429600Y-96160600D02*
X165429600Y-97960600D01*
X168729600Y-97960600D02*
X167679600Y-97960600D01*
X168729600Y-95560600D02*
X168729600Y-97960600D01*
X145429600Y-97960600D02*
X146479600Y-97960600D01*
X145429600Y-96160600D02*
X145429600Y-97960600D01*
X148729600Y-97960600D02*
X147679600Y-97960600D01*
X148729600Y-95560600D02*
X148729600Y-97960600D01*
X125429600Y-97960600D02*
X126479600Y-97960600D01*
X125429600Y-96160600D02*
X125429600Y-97960600D01*
X128729600Y-97960600D02*
X127679600Y-97960600D01*
X128729600Y-95560600D02*
X128729600Y-97960600D01*
X105429600Y-97960600D02*
X106479600Y-97960600D01*
X105429600Y-96160600D02*
X105429600Y-97960600D01*
X108729600Y-97960600D02*
X107679600Y-97960600D01*
X108729600Y-95560600D02*
X108729600Y-97960600D01*
X85429600Y-97960600D02*
X86479600Y-97960600D01*
X85429600Y-96160600D02*
X85429600Y-97960600D01*
X88729600Y-97960600D02*
X87679600Y-97960600D01*
X88729600Y-95560600D02*
X88729600Y-97960600D01*
X165429600Y-84960600D02*
X166479600Y-84960600D01*
X165429600Y-83160600D02*
X165429600Y-84960600D01*
X168729600Y-84960600D02*
X167679600Y-84960600D01*
X168729600Y-82560600D02*
X168729600Y-84960600D01*
X145429600Y-84960600D02*
X146479600Y-84960600D01*
X145429600Y-83160600D02*
X145429600Y-84960600D01*
X148729600Y-84960600D02*
X147679600Y-84960600D01*
X148729600Y-82560600D02*
X148729600Y-84960600D01*
X125429600Y-84960600D02*
X126479600Y-84960600D01*
X125429600Y-83160600D02*
X125429600Y-84960600D01*
X128729600Y-84960600D02*
X127679600Y-84960600D01*
X128729600Y-82560600D02*
X128729600Y-84960600D01*
X105429600Y-84960600D02*
X106479600Y-84960600D01*
X105429600Y-83160600D02*
X105429600Y-84960600D01*
X108729600Y-84960600D02*
X107679600Y-84960600D01*
X108729600Y-82560600D02*
X108729600Y-84960600D01*
X167217079Y-158757400D02*
X166891521Y-158757400D01*
X167217079Y-159777400D02*
X166891521Y-159777400D01*
X147217079Y-158757400D02*
X146891521Y-158757400D01*
X147217079Y-159777400D02*
X146891521Y-159777400D01*
X127217079Y-158757400D02*
X126891521Y-158757400D01*
X127217079Y-159777400D02*
X126891521Y-159777400D01*
X107217079Y-158757400D02*
X106891521Y-158757400D01*
X107217079Y-159777400D02*
X106891521Y-159777400D01*
X87217079Y-158757400D02*
X86891521Y-158757400D01*
X87217079Y-159777400D02*
X86891521Y-159777400D01*
X167217079Y-145757400D02*
X166891521Y-145757400D01*
X167217079Y-146777400D02*
X166891521Y-146777400D01*
X147217079Y-145757400D02*
X146891521Y-145757400D01*
X147217079Y-146777400D02*
X146891521Y-146777400D01*
X127217079Y-145757400D02*
X126891521Y-145757400D01*
X127217079Y-146777400D02*
X126891521Y-146777400D01*
X107217079Y-145757400D02*
X106891521Y-145757400D01*
X107217079Y-146777400D02*
X106891521Y-146777400D01*
X87217079Y-145757400D02*
X86891521Y-145757400D01*
X87217079Y-146777400D02*
X86891521Y-146777400D01*
X167217079Y-132757400D02*
X166891521Y-132757400D01*
X167217079Y-133777400D02*
X166891521Y-133777400D01*
X147217079Y-132757400D02*
X146891521Y-132757400D01*
X147217079Y-133777400D02*
X146891521Y-133777400D01*
X127217079Y-132757400D02*
X126891521Y-132757400D01*
X127217079Y-133777400D02*
X126891521Y-133777400D01*
X107217079Y-132757400D02*
X106891521Y-132757400D01*
X107217079Y-133777400D02*
X106891521Y-133777400D01*
X87217079Y-132757400D02*
X86891521Y-132757400D01*
X87217079Y-133777400D02*
X86891521Y-133777400D01*
X167217079Y-119757400D02*
X166891521Y-119757400D01*
X167217079Y-120777400D02*
X166891521Y-120777400D01*
X147217079Y-119757400D02*
X146891521Y-119757400D01*
X147217079Y-120777400D02*
X146891521Y-120777400D01*
X127217079Y-119757400D02*
X126891521Y-119757400D01*
X127217079Y-120777400D02*
X126891521Y-120777400D01*
X107217079Y-119757400D02*
X106891521Y-119757400D01*
X107217079Y-120777400D02*
X106891521Y-120777400D01*
X87217079Y-119757400D02*
X86891521Y-119757400D01*
X87217079Y-120777400D02*
X86891521Y-120777400D01*
X167217079Y-106757400D02*
X166891521Y-106757400D01*
X167217079Y-107777400D02*
X166891521Y-107777400D01*
X147217079Y-106757400D02*
X146891521Y-106757400D01*
X147217079Y-107777400D02*
X146891521Y-107777400D01*
X127217079Y-106757400D02*
X126891521Y-106757400D01*
X127217079Y-107777400D02*
X126891521Y-107777400D01*
X107217079Y-106757400D02*
X106891521Y-106757400D01*
X107217079Y-107777400D02*
X106891521Y-107777400D01*
X87217079Y-106757400D02*
X86891521Y-106757400D01*
X87217079Y-107777400D02*
X86891521Y-107777400D01*
X167217079Y-93757400D02*
X166891521Y-93757400D01*
X167217079Y-94777400D02*
X166891521Y-94777400D01*
X147217079Y-93757400D02*
X146891521Y-93757400D01*
X147217079Y-94777400D02*
X146891521Y-94777400D01*
X127217079Y-93757400D02*
X126891521Y-93757400D01*
X127217079Y-94777400D02*
X126891521Y-94777400D01*
X107217079Y-93757400D02*
X106891521Y-93757400D01*
X107217079Y-94777400D02*
X106891521Y-94777400D01*
X87217079Y-93757400D02*
X86891521Y-93757400D01*
X87217079Y-94777400D02*
X86891521Y-94777400D01*
X167217079Y-80757400D02*
X166891521Y-80757400D01*
X167217079Y-81777400D02*
X166891521Y-81777400D01*
X147217079Y-80757400D02*
X146891521Y-80757400D01*
X147217079Y-81777400D02*
X146891521Y-81777400D01*
X127217079Y-80757400D02*
X126891521Y-80757400D01*
X127217079Y-81777400D02*
X126891521Y-81777400D01*
X107217079Y-80757400D02*
X106891521Y-80757400D01*
X107217079Y-81777400D02*
X106891521Y-81777400D01*
X87217079Y-81777400D02*
X86891521Y-81777400D01*
X87217079Y-80757400D02*
X86891521Y-80757400D01*
X88729600Y-82560600D02*
X88729600Y-84960600D01*
X88729600Y-84960600D02*
X87679600Y-84960600D01*
X85429600Y-83160600D02*
X85429600Y-84960600D01*
X85429600Y-84960600D02*
X86479600Y-84960600D01*
M02*
