M48
; DRILL file {KiCad (5.1.0-0)} date Friday, May 03, 2019 at 02:04:19 PM
; FORMAT={-:-/ absolute / inch / decimal}
; #@! TF.CreationDate,2019-05-03T14:04:19-05:00
; #@! TF.GenerationSoftware,Kicad,Pcbnew,(5.1.0-0)
FMAT,2
INCH
T1C0.0157
T2C0.0315
T3C0.0374
T4C0.0394
T5C0.0400
T6C0.0402
T7C0.1260
%
G90
G05
T1
X3.977Y-1.635
X3.977Y-1.705
X3.977Y-2.946
X3.977Y-3.016
X3.977Y-4.257
X3.977Y-4.327
X3.982Y-2.343
X3.982Y-3.654
X3.982Y-4.965
X4.041Y-1.846
X4.041Y-3.157
X4.041Y-4.468
X4.047Y-1.635
X4.047Y-1.705
X4.047Y-2.946
X4.047Y-3.016
X4.047Y-4.257
X4.047Y-4.327
X4.078Y-1.88
X4.078Y-3.191
X4.078Y-4.502
X4.117Y-1.635
X4.117Y-1.705
X4.117Y-1.845
X4.117Y-2.946
X4.117Y-3.016
X4.117Y-3.156
X4.117Y-4.257
X4.117Y-4.327
X4.117Y-4.467
X4.131Y-2.055
X4.131Y-2.111
X4.131Y-3.366
X4.131Y-3.422
X4.131Y-4.677
X4.131Y-4.733
X4.149Y-1.883
X4.149Y-3.194
X4.149Y-4.505
X4.179Y-1.845
X4.179Y-3.156
X4.179Y-4.467
X4.187Y-1.635
X4.187Y-1.705
X4.187Y-2.946
X4.187Y-3.016
X4.187Y-4.257
X4.187Y-4.327
X4.191Y-2.586
X4.191Y-3.897
X4.191Y-5.208
X4.195Y-2.055
X4.195Y-2.111
X4.195Y-2.175
X4.195Y-3.366
X4.195Y-3.422
X4.195Y-3.486
X4.195Y-4.677
X4.195Y-4.733
X4.195Y-4.797
X4.229Y-1.365
X4.229Y-2.676
X4.229Y-3.987
X4.232Y-2.533
X4.232Y-3.844
X4.232Y-5.155
X4.257Y-1.425
X4.257Y-1.495
X4.257Y-1.565
X4.257Y-1.635
X4.257Y-1.705
X4.257Y-2.005
X4.257Y-2.055
X4.257Y-2.111
X4.257Y-2.175
X4.257Y-2.235
X4.257Y-2.585
X4.257Y-2.736
X4.257Y-2.806
X4.257Y-2.876
X4.257Y-2.946
X4.257Y-3.016
X4.257Y-3.316
X4.257Y-3.366
X4.257Y-3.422
X4.257Y-3.486
X4.257Y-3.546
X4.257Y-3.896
X4.257Y-4.047
X4.257Y-4.117
X4.257Y-4.187
X4.257Y-4.257
X4.257Y-4.327
X4.257Y-4.627
X4.257Y-4.677
X4.257Y-4.733
X4.257Y-4.797
X4.257Y-4.857
X4.257Y-5.207
X4.287Y-1.955
X4.287Y-3.266
X4.287Y-4.577
X4.292Y-1.389
X4.292Y-2.7
X4.292Y-4.011
X4.327Y-1.355
X4.327Y-2.585
X4.327Y-2.666
X4.327Y-3.896
X4.327Y-3.977
X4.327Y-5.207
X4.347Y-1.905
X4.347Y-2.085
X4.347Y-2.155
X4.347Y-2.225
X4.347Y-3.216
X4.347Y-3.396
X4.347Y-3.466
X4.347Y-3.536
X4.347Y-4.527
X4.347Y-4.707
X4.347Y-4.777
X4.347Y-4.847
X4.383Y-1.992
X4.383Y-3.303
X4.383Y-4.614
X4.39Y-1.867
X4.39Y-3.178
X4.39Y-4.489
X4.395Y-2.375
X4.395Y-2.425
X4.395Y-3.686
X4.395Y-3.736
X4.395Y-4.997
X4.395Y-5.047
X4.397Y-1.355
X4.397Y-2.585
X4.397Y-2.666
X4.397Y-3.896
X4.397Y-3.977
X4.397Y-5.207
X4.411Y-1.904
X4.411Y-3.215
X4.411Y-4.526
X4.416Y-1.678
X4.416Y-2.989
X4.416Y-4.3
X4.417Y-1.581
X4.417Y-2.085
X4.417Y-2.155
X4.417Y-2.225
X4.417Y-2.892
X4.417Y-3.396
X4.417Y-3.466
X4.417Y-3.536
X4.417Y-4.203
X4.417Y-4.707
X4.417Y-4.777
X4.417Y-4.847
X4.443Y-2.375
X4.443Y-2.425
X4.443Y-3.686
X4.443Y-3.736
X4.443Y-4.997
X4.443Y-5.047
X4.451Y-1.993
X4.451Y-3.304
X4.451Y-4.615
X4.466Y-1.354
X4.466Y-2.665
X4.466Y-3.976
X4.467Y-1.905
X4.467Y-2.585
X4.467Y-3.216
X4.467Y-3.896
X4.467Y-4.527
X4.467Y-5.207
X4.487Y-2.085
X4.487Y-2.155
X4.487Y-2.225
X4.487Y-3.396
X4.487Y-3.466
X4.487Y-3.536
X4.487Y-4.707
X4.487Y-4.777
X4.487Y-4.847
X4.517Y-2.315
X4.517Y-3.626
X4.517Y-4.937
X4.536Y-1.354
X4.536Y-2.665
X4.536Y-3.976
X4.537Y-2.585
X4.537Y-3.896
X4.537Y-5.207
X4.551Y-1.905
X4.551Y-3.216
X4.551Y-4.527
X4.556Y-1.848
X4.556Y-3.159
X4.556Y-4.47
X4.564Y-1.973
X4.564Y-3.284
X4.564Y-4.595
X4.5645Y-1.506
X4.5645Y-2.817
X4.5645Y-4.128
X4.606Y-1.354
X4.606Y-2.665
X4.606Y-3.976
X4.607Y-2.585
X4.607Y-3.896
X4.607Y-5.207
X4.623Y-1.789
X4.623Y-1.847
X4.623Y-1.906
X4.623Y-1.985
X4.623Y-2.055
X4.623Y-2.125
X4.623Y-3.1
X4.623Y-3.158
X4.623Y-3.217
X4.623Y-3.296
X4.623Y-3.366
X4.623Y-3.436
X4.623Y-4.411
X4.623Y-4.469
X4.623Y-4.528
X4.623Y-4.607
X4.623Y-4.677
X4.623Y-4.747
X4.627Y-1.505
X4.627Y-2.816
X4.627Y-4.127
X4.641Y-2.534
X4.641Y-3.845
X4.641Y-5.156
X4.657Y-1.747
X4.657Y-2.245
X4.657Y-3.058
X4.657Y-3.556
X4.657Y-4.369
X4.657Y-4.867
X4.676Y-1.354
X4.676Y-2.665
X4.676Y-3.976
X4.677Y-2.585
X4.677Y-3.896
X4.677Y-5.207
X4.687Y-1.906
X4.687Y-1.985
X4.687Y-2.055
X4.687Y-3.217
X4.687Y-3.296
X4.687Y-3.366
X4.687Y-4.528
X4.687Y-4.607
X4.687Y-4.677
X4.6928Y-2.2993
X4.6928Y-3.6103
X4.6928Y-4.9213
X4.711Y-2.534
X4.711Y-3.845
X4.711Y-5.156
X4.739Y-1.975
X4.739Y-3.286
X4.739Y-4.597
X4.746Y-1.354
X4.746Y-2.665
X4.746Y-3.976
X4.747Y-2.585
X4.747Y-3.896
X4.747Y-5.207
X4.76Y-1.907
X4.76Y-3.218
X4.76Y-4.529
X4.781Y-2.534
X4.781Y-3.845
X4.781Y-5.156
X4.813Y-1.797
X4.813Y-1.847
X4.813Y-3.108
X4.813Y-3.158
X4.813Y-4.419
X4.813Y-4.469
X4.817Y-1.955
X4.817Y-2.585
X4.817Y-3.266
X4.817Y-3.896
X4.817Y-4.577
X4.817Y-5.207
X4.818Y-1.353
X4.818Y-2.664
X4.818Y-3.975
X4.8428Y-2.2993
X4.8428Y-3.6103
X4.8428Y-4.9213
X4.851Y-2.534
X4.851Y-3.845
X4.851Y-5.156
X4.855Y-2.247
X4.855Y-3.558
X4.855Y-4.869
X4.877Y-1.745
X4.877Y-1.995
X4.877Y-3.056
X4.877Y-3.306
X4.877Y-4.367
X4.877Y-4.617
X4.8865Y-1.511
X4.8865Y-2.822
X4.8865Y-4.133
X4.887Y-2.475
X4.887Y-2.585
X4.887Y-3.786
X4.887Y-3.896
X4.887Y-5.097
X4.887Y-5.207
X4.888Y-1.353
X4.888Y-2.664
X4.888Y-3.975
X4.8895Y-1.6105
X4.8895Y-2.9215
X4.8895Y-4.2325
X4.917Y-2.534
X4.917Y-3.845
X4.917Y-5.156
X4.918Y-1.5585
X4.918Y-2.8695
X4.918Y-4.1805
X4.9195Y-1.6625
X4.9195Y-2.9735
X4.9195Y-4.2845
X4.95Y-1.612
X4.95Y-2.923
X4.95Y-4.234
X4.9505Y-1.511
X4.9505Y-2.822
X4.9505Y-4.133
X4.954Y-1.957
X4.954Y-3.268
X4.954Y-4.579
X4.957Y-1.745
X4.957Y-2.195
X4.957Y-2.585
X4.957Y-3.056
X4.957Y-3.506
X4.957Y-3.896
X4.957Y-4.367
X4.957Y-4.817
X4.957Y-5.207
X4.958Y-1.353
X4.958Y-2.664
X4.958Y-3.975
X4.969Y-2.335
X4.969Y-3.646
X4.969Y-4.957
X4.971Y-1.995
X4.971Y-3.306
X4.971Y-4.617
X4.98Y-1.5575
X4.98Y-2.8685
X4.98Y-4.1795
X5.001Y-2.145
X5.001Y-3.456
X5.001Y-4.767
X5.009Y-1.904
X5.009Y-3.215
X5.009Y-4.526
X5.025Y-1.797
X5.025Y-3.108
X5.025Y-4.419
X5.025Y-1.701
X5.025Y-3.012
X5.025Y-4.323
X5.027Y-1.353
X5.027Y-1.855
X5.027Y-2.201
X5.027Y-2.585
X5.027Y-2.664
X5.027Y-3.166
X5.027Y-3.512
X5.027Y-3.896
X5.027Y-3.975
X5.027Y-4.477
X5.027Y-4.823
X5.027Y-5.207
X5.057Y-2.155
X5.057Y-3.466
X5.057Y-4.777
X5.065Y-1.903
X5.065Y-3.214
X5.065Y-4.525
X5.097Y-2.585
X5.097Y-3.896
X5.097Y-5.207
X5.098Y-1.353
X5.098Y-2.664
X5.098Y-3.975
X5.1213Y-2.3893
X5.1213Y-3.7003
X5.1213Y-5.0113
X5.124Y-1.904
X5.124Y-3.215
X5.124Y-4.526
X5.168Y-1.353
X5.168Y-2.664
X5.168Y-3.975
X5.169Y-2.584
X5.169Y-3.895
X5.169Y-5.206
X5.177Y-2.065
X5.177Y-2.155
X5.177Y-3.376
X5.177Y-3.466
X5.177Y-4.687
X5.177Y-4.777
X5.186Y-1.911
X5.186Y-3.222
X5.186Y-4.533
X5.218Y-2.023
X5.218Y-3.334
X5.218Y-4.645
X5.238Y-1.353
X5.238Y-2.664
X5.238Y-3.975
X5.239Y-2.516
X5.239Y-2.584
X5.239Y-3.827
X5.239Y-3.895
X5.239Y-5.138
X5.239Y-5.206
X5.245Y-1.833
X5.245Y-3.144
X5.245Y-4.455
X5.2505Y-1.504
X5.2505Y-2.815
X5.2505Y-4.126
X5.259Y-2.069
X5.259Y-3.38
X5.259Y-4.691
X5.265Y-1.982
X5.265Y-3.293
X5.265Y-4.604
X5.291Y-2.123
X5.291Y-3.434
X5.291Y-4.745
X5.302Y-1.947
X5.302Y-3.258
X5.302Y-4.569
X5.307Y-1.353
X5.307Y-2.664
X5.307Y-3.975
X5.308Y-2.024
X5.308Y-3.335
X5.308Y-4.646
X5.309Y-2.516
X5.309Y-2.584
X5.309Y-3.827
X5.309Y-3.895
X5.309Y-5.138
X5.309Y-5.206
X5.36Y-2.133
X5.36Y-3.444
X5.36Y-4.755
X5.362Y-2.003
X5.362Y-3.314
X5.362Y-4.625
X5.366Y-1.945
X5.366Y-3.256
X5.366Y-4.567
X5.378Y-1.355
X5.378Y-2.666
X5.378Y-3.977
X5.379Y-2.516
X5.379Y-2.587
X5.379Y-3.827
X5.379Y-3.898
X5.379Y-5.138
X5.379Y-5.209
X5.386Y-1.579
X5.386Y-2.89
X5.386Y-4.201
X5.387Y-1.677
X5.387Y-2.988
X5.387Y-4.299
X5.398Y-2.174
X5.398Y-3.485
X5.398Y-4.796
X5.447Y-1.355
X5.447Y-2.666
X5.447Y-3.977
X5.449Y-2.516
X5.449Y-2.584
X5.449Y-3.827
X5.449Y-3.895
X5.449Y-5.138
X5.449Y-5.206
X5.453Y-2.198
X5.453Y-3.509
X5.453Y-4.82
X5.479Y-1.927
X5.479Y-3.238
X5.479Y-4.549
X5.517Y-1.355
X5.517Y-1.425
X5.517Y-2.666
X5.517Y-2.736
X5.517Y-3.977
X5.517Y-4.047
X5.519Y-2.517
X5.519Y-2.584
X5.519Y-3.828
X5.519Y-3.895
X5.519Y-5.139
X5.519Y-5.206
X5.524Y-2.146
X5.524Y-2.216
X5.524Y-3.457
X5.524Y-3.527
X5.524Y-4.768
X5.524Y-4.838
X5.547Y-1.768
X5.547Y-3.079
X5.547Y-4.39
X5.586Y-2.146
X5.586Y-2.216
X5.586Y-3.457
X5.586Y-3.527
X5.586Y-4.768
X5.586Y-4.838
X5.587Y-1.355
X5.587Y-1.425
X5.587Y-1.495
X5.587Y-1.565
X5.587Y-1.635
X5.587Y-1.705
X5.587Y-2.666
X5.587Y-2.736
X5.587Y-2.806
X5.587Y-2.876
X5.587Y-2.946
X5.587Y-3.016
X5.587Y-3.977
X5.587Y-4.047
X5.587Y-4.117
X5.587Y-4.187
X5.587Y-4.257
X5.587Y-4.327
X5.589Y-2.517
X5.589Y-2.584
X5.589Y-3.828
X5.589Y-3.895
X5.589Y-5.139
X5.589Y-5.206
X5.637Y-1.845
X5.637Y-3.156
X5.637Y-4.467
X5.639Y-2.199
X5.639Y-3.51
X5.639Y-4.821
X5.649Y-2.145
X5.649Y-3.456
X5.649Y-4.767
X5.657Y-1.355
X5.657Y-1.635
X5.657Y-1.705
X5.657Y-2.666
X5.657Y-2.946
X5.657Y-3.016
X5.657Y-3.977
X5.657Y-4.257
X5.657Y-4.327
X5.665Y-2.089
X5.665Y-3.4
X5.665Y-4.711
X5.727Y-1.635
X5.727Y-1.705
X5.727Y-2.946
X5.727Y-3.016
X5.727Y-4.257
X5.727Y-4.327
X5.797Y-1.635
X5.797Y-1.705
X5.797Y-2.946
X5.797Y-3.016
X5.797Y-4.257
X5.797Y-4.327
X5.813Y-2.055
X5.813Y-2.125
X5.813Y-2.195
X5.813Y-2.265
X5.813Y-2.335
X5.813Y-3.366
X5.813Y-3.436
X5.813Y-3.506
X5.813Y-3.576
X5.813Y-3.646
X5.813Y-4.677
X5.813Y-4.747
X5.813Y-4.817
X5.813Y-4.887
X5.813Y-4.957
X5.818Y-1.885
X5.818Y-3.196
X5.818Y-4.507
X5.861Y-1.845
X5.861Y-1.915
X5.861Y-1.985
X5.861Y-2.055
X5.861Y-2.125
X5.861Y-2.195
X5.861Y-2.265
X5.861Y-2.335
X5.861Y-3.156
X5.861Y-3.226
X5.861Y-3.296
X5.861Y-3.366
X5.861Y-3.436
X5.861Y-3.506
X5.861Y-3.576
X5.861Y-3.646
X5.861Y-4.467
X5.861Y-4.537
X5.861Y-4.607
X5.861Y-4.677
X5.861Y-4.747
X5.861Y-4.817
X5.861Y-4.887
X5.861Y-4.957
X5.867Y-1.565
X5.867Y-1.635
X5.867Y-1.705
X5.867Y-2.876
X5.867Y-2.946
X5.867Y-3.016
X5.867Y-4.187
X5.867Y-4.257
X5.867Y-4.327
X5.945Y-1.635
X5.945Y-1.705
X5.945Y-2.946
X5.945Y-3.016
X5.945Y-4.257
X5.945Y-4.327
X5.95Y-2.343
X5.95Y-3.654
X5.95Y-4.965
X6.009Y-1.846
X6.009Y-3.157
X6.009Y-4.468
X6.015Y-1.635
X6.015Y-1.705
X6.015Y-2.946
X6.015Y-3.016
X6.015Y-4.257
X6.015Y-4.327
X6.046Y-1.88
X6.046Y-3.191
X6.046Y-4.502
X6.085Y-1.635
X6.085Y-1.705
X6.085Y-1.845
X6.085Y-2.946
X6.085Y-3.016
X6.085Y-3.156
X6.085Y-4.257
X6.085Y-4.327
X6.085Y-4.467
X6.099Y-2.055
X6.099Y-2.111
X6.099Y-3.366
X6.099Y-3.422
X6.099Y-4.677
X6.099Y-4.733
X6.117Y-1.883
X6.117Y-3.194
X6.117Y-4.505
X6.147Y-1.845
X6.147Y-3.156
X6.147Y-4.467
X6.155Y-1.635
X6.155Y-1.705
X6.155Y-2.946
X6.155Y-3.016
X6.155Y-4.257
X6.155Y-4.327
X6.159Y-2.586
X6.159Y-3.897
X6.159Y-5.208
X6.163Y-2.055
X6.163Y-2.111
X6.163Y-2.175
X6.163Y-3.366
X6.163Y-3.422
X6.163Y-3.486
X6.163Y-4.677
X6.163Y-4.733
X6.163Y-4.797
X6.197Y-1.365
X6.197Y-2.676
X6.197Y-3.987
X6.2Y-2.533
X6.2Y-3.844
X6.2Y-5.155
X6.225Y-1.425
X6.225Y-1.495
X6.225Y-1.565
X6.225Y-1.635
X6.225Y-1.705
X6.225Y-2.005
X6.225Y-2.055
X6.225Y-2.111
X6.225Y-2.175
X6.225Y-2.235
X6.225Y-2.585
X6.225Y-2.736
X6.225Y-2.806
X6.225Y-2.876
X6.225Y-2.946
X6.225Y-3.016
X6.225Y-3.316
X6.225Y-3.366
X6.225Y-3.422
X6.225Y-3.486
X6.225Y-3.546
X6.225Y-3.896
X6.225Y-4.047
X6.225Y-4.117
X6.225Y-4.187
X6.225Y-4.257
X6.225Y-4.327
X6.225Y-4.627
X6.225Y-4.677
X6.225Y-4.733
X6.225Y-4.797
X6.225Y-4.857
X6.225Y-5.207
X6.255Y-1.955
X6.255Y-3.266
X6.255Y-4.577
X6.26Y-1.389
X6.26Y-2.7
X6.26Y-4.011
X6.295Y-1.355
X6.295Y-2.585
X6.295Y-2.666
X6.295Y-3.896
X6.295Y-3.977
X6.295Y-5.207
X6.315Y-1.905
X6.315Y-2.085
X6.315Y-2.155
X6.315Y-2.225
X6.315Y-3.216
X6.315Y-3.396
X6.315Y-3.466
X6.315Y-3.536
X6.315Y-4.527
X6.315Y-4.707
X6.315Y-4.777
X6.315Y-4.847
X6.351Y-1.992
X6.351Y-3.303
X6.351Y-4.614
X6.358Y-1.867
X6.358Y-3.178
X6.358Y-4.489
X6.363Y-2.375
X6.363Y-2.425
X6.363Y-3.686
X6.363Y-3.736
X6.363Y-4.997
X6.363Y-5.047
X6.365Y-1.355
X6.365Y-2.585
X6.365Y-2.666
X6.365Y-3.896
X6.365Y-3.977
X6.365Y-5.207
X6.379Y-1.904
X6.379Y-3.215
X6.379Y-4.526
X6.384Y-1.678
X6.384Y-2.989
X6.384Y-4.3
X6.385Y-1.581
X6.385Y-2.085
X6.385Y-2.155
X6.385Y-2.225
X6.385Y-2.892
X6.385Y-3.396
X6.385Y-3.466
X6.385Y-3.536
X6.385Y-4.203
X6.385Y-4.707
X6.385Y-4.777
X6.385Y-4.847
X6.411Y-2.375
X6.411Y-2.425
X6.411Y-3.686
X6.411Y-3.736
X6.411Y-4.997
X6.411Y-5.047
X6.419Y-1.993
X6.419Y-3.304
X6.419Y-4.615
X6.434Y-1.354
X6.434Y-2.665
X6.434Y-3.976
X6.435Y-1.905
X6.435Y-2.585
X6.435Y-3.216
X6.435Y-3.896
X6.435Y-4.527
X6.435Y-5.207
X6.455Y-2.085
X6.455Y-2.155
X6.455Y-2.225
X6.455Y-3.396
X6.455Y-3.466
X6.455Y-3.536
X6.455Y-4.707
X6.455Y-4.777
X6.455Y-4.847
X6.485Y-2.315
X6.485Y-3.626
X6.485Y-4.937
X6.504Y-1.354
X6.504Y-2.665
X6.504Y-3.976
X6.505Y-2.585
X6.505Y-3.896
X6.505Y-5.207
X6.519Y-1.905
X6.519Y-3.216
X6.519Y-4.527
X6.524Y-1.848
X6.524Y-3.159
X6.524Y-4.47
X6.532Y-1.973
X6.532Y-3.284
X6.532Y-4.595
X6.5325Y-1.506
X6.5325Y-2.817
X6.5325Y-4.128
X6.574Y-1.354
X6.574Y-2.665
X6.574Y-3.976
X6.575Y-2.585
X6.575Y-3.896
X6.575Y-5.207
X6.591Y-1.789
X6.591Y-1.847
X6.591Y-1.906
X6.591Y-1.985
X6.591Y-2.055
X6.591Y-2.125
X6.591Y-3.1
X6.591Y-3.158
X6.591Y-3.217
X6.591Y-3.296
X6.591Y-3.366
X6.591Y-3.436
X6.591Y-4.411
X6.591Y-4.469
X6.591Y-4.528
X6.591Y-4.607
X6.591Y-4.677
X6.591Y-4.747
X6.595Y-1.505
X6.595Y-2.816
X6.595Y-4.127
X6.609Y-2.534
X6.609Y-3.845
X6.609Y-5.156
X6.625Y-1.747
X6.625Y-2.245
X6.625Y-3.058
X6.625Y-3.556
X6.625Y-4.369
X6.625Y-4.867
X6.644Y-1.354
X6.644Y-2.665
X6.644Y-3.976
X6.645Y-2.585
X6.645Y-3.896
X6.645Y-5.207
X6.655Y-1.906
X6.655Y-1.985
X6.655Y-2.055
X6.655Y-3.217
X6.655Y-3.296
X6.655Y-3.366
X6.655Y-4.528
X6.655Y-4.607
X6.655Y-4.677
X6.6608Y-2.2993
X6.6608Y-3.6103
X6.6608Y-4.9213
X6.679Y-2.534
X6.679Y-3.845
X6.679Y-5.156
X6.707Y-1.975
X6.707Y-3.286
X6.707Y-4.597
X6.714Y-1.354
X6.714Y-2.665
X6.714Y-3.976
X6.715Y-2.585
X6.715Y-3.896
X6.715Y-5.207
X6.728Y-1.907
X6.728Y-3.218
X6.728Y-4.529
X6.749Y-2.534
X6.749Y-3.845
X6.749Y-5.156
X6.781Y-1.797
X6.781Y-1.847
X6.781Y-3.108
X6.781Y-3.158
X6.781Y-4.419
X6.781Y-4.469
X6.785Y-1.955
X6.785Y-2.585
X6.785Y-3.266
X6.785Y-3.896
X6.785Y-4.577
X6.785Y-5.207
X6.786Y-1.353
X6.786Y-2.664
X6.786Y-3.975
X6.8108Y-2.2993
X6.8108Y-3.6103
X6.8108Y-4.9213
X6.819Y-2.534
X6.819Y-3.845
X6.819Y-5.156
X6.823Y-2.247
X6.823Y-3.558
X6.823Y-4.869
X6.845Y-1.745
X6.845Y-1.995
X6.845Y-3.056
X6.845Y-3.306
X6.845Y-4.367
X6.845Y-4.617
X6.8545Y-1.511
X6.8545Y-2.822
X6.8545Y-4.133
X6.855Y-2.475
X6.855Y-2.585
X6.855Y-3.786
X6.855Y-3.896
X6.855Y-5.097
X6.855Y-5.207
X6.856Y-1.353
X6.856Y-2.664
X6.856Y-3.975
X6.8575Y-1.6105
X6.8575Y-2.9215
X6.8575Y-4.2325
X6.885Y-2.534
X6.885Y-3.845
X6.885Y-5.156
X6.886Y-1.5585
X6.886Y-2.8695
X6.886Y-4.1805
X6.8875Y-1.6625
X6.8875Y-2.9735
X6.8875Y-4.2845
X6.918Y-1.612
X6.918Y-2.923
X6.918Y-4.234
X6.9185Y-1.511
X6.9185Y-2.822
X6.9185Y-4.133
X6.922Y-1.957
X6.922Y-3.268
X6.922Y-4.579
X6.925Y-1.745
X6.925Y-2.195
X6.925Y-2.585
X6.925Y-3.056
X6.925Y-3.506
X6.925Y-3.896
X6.925Y-4.367
X6.925Y-4.817
X6.925Y-5.207
X6.926Y-1.353
X6.926Y-2.664
X6.926Y-3.975
X6.937Y-2.335
X6.937Y-3.646
X6.937Y-4.957
X6.939Y-1.995
X6.939Y-3.306
X6.939Y-4.617
X6.948Y-1.5575
X6.948Y-2.8685
X6.948Y-4.1795
X6.969Y-2.145
X6.969Y-3.456
X6.969Y-4.767
X6.977Y-1.904
X6.977Y-3.215
X6.977Y-4.526
X6.993Y-1.797
X6.993Y-3.108
X6.993Y-4.419
X6.993Y-1.701
X6.993Y-3.012
X6.993Y-4.323
X6.995Y-1.353
X6.995Y-1.855
X6.995Y-2.201
X6.995Y-2.585
X6.995Y-2.664
X6.995Y-3.166
X6.995Y-3.512
X6.995Y-3.896
X6.995Y-3.975
X6.995Y-4.477
X6.995Y-4.823
X6.995Y-5.207
X7.025Y-2.155
X7.025Y-3.466
X7.025Y-4.777
X7.033Y-1.903
X7.033Y-3.214
X7.033Y-4.525
X7.065Y-2.585
X7.065Y-3.896
X7.065Y-5.207
X7.066Y-1.353
X7.066Y-2.664
X7.066Y-3.975
X7.0893Y-2.3893
X7.0893Y-3.7003
X7.0893Y-5.0113
X7.092Y-1.904
X7.092Y-3.215
X7.092Y-4.526
X7.136Y-1.353
X7.136Y-2.664
X7.136Y-3.975
X7.137Y-2.584
X7.137Y-3.895
X7.137Y-5.206
X7.145Y-2.065
X7.145Y-2.155
X7.145Y-3.376
X7.145Y-3.466
X7.145Y-4.687
X7.145Y-4.777
X7.154Y-1.911
X7.154Y-3.222
X7.154Y-4.533
X7.186Y-2.023
X7.186Y-3.334
X7.186Y-4.645
X7.206Y-1.353
X7.206Y-2.664
X7.206Y-3.975
X7.207Y-2.516
X7.207Y-2.584
X7.207Y-3.827
X7.207Y-3.895
X7.207Y-5.138
X7.207Y-5.206
X7.213Y-1.833
X7.213Y-3.144
X7.213Y-4.455
X7.2185Y-1.504
X7.2185Y-2.815
X7.2185Y-4.126
X7.227Y-2.069
X7.227Y-3.38
X7.227Y-4.691
X7.233Y-1.982
X7.233Y-3.293
X7.233Y-4.604
X7.259Y-2.123
X7.259Y-3.434
X7.259Y-4.745
X7.27Y-1.947
X7.27Y-3.258
X7.27Y-4.569
X7.275Y-1.353
X7.275Y-2.664
X7.275Y-3.975
X7.276Y-2.024
X7.276Y-3.335
X7.276Y-4.646
X7.277Y-2.516
X7.277Y-2.584
X7.277Y-3.827
X7.277Y-3.895
X7.277Y-5.138
X7.277Y-5.206
X7.328Y-2.133
X7.328Y-3.444
X7.328Y-4.755
X7.33Y-2.003
X7.33Y-3.314
X7.33Y-4.625
X7.334Y-1.945
X7.334Y-3.256
X7.334Y-4.567
X7.346Y-1.355
X7.346Y-2.666
X7.346Y-3.977
X7.347Y-2.516
X7.347Y-2.587
X7.347Y-3.827
X7.347Y-3.898
X7.347Y-5.138
X7.347Y-5.209
X7.354Y-1.579
X7.354Y-2.89
X7.354Y-4.201
X7.355Y-1.677
X7.355Y-2.988
X7.355Y-4.299
X7.366Y-2.174
X7.366Y-3.485
X7.366Y-4.796
X7.415Y-1.355
X7.415Y-2.666
X7.415Y-3.977
X7.417Y-2.516
X7.417Y-2.584
X7.417Y-3.827
X7.417Y-3.895
X7.417Y-5.138
X7.417Y-5.206
X7.421Y-2.198
X7.421Y-3.509
X7.421Y-4.82
X7.447Y-1.927
X7.447Y-3.238
X7.447Y-4.549
X7.485Y-1.355
X7.485Y-1.425
X7.485Y-2.666
X7.485Y-2.736
X7.485Y-3.977
X7.485Y-4.047
X7.487Y-2.517
X7.487Y-2.584
X7.487Y-3.828
X7.487Y-3.895
X7.487Y-5.139
X7.487Y-5.206
X7.492Y-2.146
X7.492Y-2.216
X7.492Y-3.457
X7.492Y-3.527
X7.492Y-4.768
X7.492Y-4.838
X7.515Y-1.768
X7.515Y-3.079
X7.515Y-4.39
X7.554Y-2.146
X7.554Y-2.216
X7.554Y-3.457
X7.554Y-3.527
X7.554Y-4.768
X7.554Y-4.838
X7.555Y-1.355
X7.555Y-1.425
X7.555Y-1.495
X7.555Y-1.565
X7.555Y-1.635
X7.555Y-1.705
X7.555Y-2.666
X7.555Y-2.736
X7.555Y-2.806
X7.555Y-2.876
X7.555Y-2.946
X7.555Y-3.016
X7.555Y-3.977
X7.555Y-4.047
X7.555Y-4.117
X7.555Y-4.187
X7.555Y-4.257
X7.555Y-4.327
X7.557Y-2.517
X7.557Y-2.584
X7.557Y-3.828
X7.557Y-3.895
X7.557Y-5.139
X7.557Y-5.206
X7.605Y-1.845
X7.605Y-3.156
X7.605Y-4.467
X7.607Y-2.199
X7.607Y-3.51
X7.607Y-4.821
X7.617Y-2.145
X7.617Y-3.456
X7.617Y-4.767
X7.625Y-1.355
X7.625Y-1.635
X7.625Y-1.705
X7.625Y-2.666
X7.625Y-2.946
X7.625Y-3.016
X7.625Y-3.977
X7.625Y-4.257
X7.625Y-4.327
X7.633Y-2.089
X7.633Y-3.4
X7.633Y-4.711
X7.695Y-1.635
X7.695Y-1.705
X7.695Y-2.946
X7.695Y-3.016
X7.695Y-4.257
X7.695Y-4.327
X7.765Y-1.635
X7.765Y-1.705
X7.765Y-2.946
X7.765Y-3.016
X7.765Y-4.257
X7.765Y-4.327
X7.781Y-2.055
X7.781Y-2.125
X7.781Y-2.195
X7.781Y-2.265
X7.781Y-2.335
X7.781Y-3.366
X7.781Y-3.436
X7.781Y-3.506
X7.781Y-3.576
X7.781Y-3.646
X7.781Y-4.677
X7.781Y-4.747
X7.781Y-4.817
X7.781Y-4.887
X7.781Y-4.957
X7.786Y-1.885
X7.786Y-3.196
X7.786Y-4.507
X7.829Y-1.845
X7.829Y-1.915
X7.829Y-1.985
X7.829Y-2.055
X7.829Y-2.125
X7.829Y-2.195
X7.829Y-2.265
X7.829Y-2.335
X7.829Y-3.156
X7.829Y-3.226
X7.829Y-3.296
X7.829Y-3.366
X7.829Y-3.436
X7.829Y-3.506
X7.829Y-3.576
X7.829Y-3.646
X7.829Y-4.467
X7.829Y-4.537
X7.829Y-4.607
X7.829Y-4.677
X7.829Y-4.747
X7.829Y-4.817
X7.829Y-4.887
X7.829Y-4.957
X7.835Y-1.565
X7.835Y-1.635
X7.835Y-1.705
X7.835Y-2.876
X7.835Y-2.946
X7.835Y-3.016
X7.835Y-4.187
X7.835Y-4.257
X7.835Y-4.327
T2
X5.443Y-3.342
X5.443Y-3.4404
X5.443Y-2.031
X5.443Y-2.1294
X7.411Y-2.031
X7.411Y-2.1294
X5.443Y-4.653
X5.443Y-4.7514
X7.411Y-3.342
X7.411Y-3.4404
X7.411Y-4.653
X7.411Y-4.7514
T3
X5.329Y-2.7423
X7.297Y-2.7423
X7.297Y-2.8407
X7.297Y-2.9392
X7.297Y-3.0376
X7.297Y-3.136
X6.444Y-4.0533
X6.444Y-4.1517
X5.329Y-2.8407
X5.329Y-2.9392
X5.329Y-3.0376
X4.476Y-2.7423
X4.476Y-2.8407
X4.476Y-2.9392
X4.476Y-3.0376
X4.476Y-3.136
X4.476Y-4.0533
X4.476Y-4.1517
X4.476Y-4.2502
X4.476Y-4.3486
X4.476Y-4.447
X5.329Y-1.4313
X5.329Y-1.5297
X5.329Y-1.6282
X5.329Y-1.7266
X5.329Y-1.825
X6.444Y-4.2502
X6.444Y-4.3486
X6.444Y-4.447
X6.444Y-2.7423
X6.444Y-2.8407
X6.444Y-2.9392
X6.444Y-3.0376
X6.444Y-3.136
X4.476Y-1.4313
X4.476Y-1.5297
X4.476Y-1.6282
X4.476Y-1.7266
X4.476Y-1.825
X5.329Y-3.136
X6.444Y-1.4313
X6.444Y-1.5297
X6.444Y-1.6282
X6.444Y-1.7266
X5.329Y-4.0533
X5.329Y-4.1517
X5.329Y-4.2502
X5.329Y-4.3486
X5.329Y-4.447
X7.297Y-1.4313
X7.297Y-1.7266
X7.297Y-1.825
X7.297Y-4.0533
X7.297Y-4.1517
X7.297Y-4.2502
X7.297Y-4.3486
X7.297Y-4.447
X6.444Y-1.825
X7.297Y-1.5297
X7.297Y-1.6282
T4
X5.33Y-2.29
X5.33Y-2.39
X5.33Y-4.912
X5.33Y-5.012
X5.43Y-4.912
X5.43Y-5.012
X5.53Y-4.912
X5.53Y-5.012
X5.43Y-2.29
X5.43Y-2.39
X5.53Y-2.29
X5.53Y-2.39
X7.298Y-4.912
X7.298Y-5.012
X7.398Y-4.912
X7.398Y-5.012
X7.498Y-4.912
X7.498Y-5.012
X7.298Y-2.29
X7.298Y-2.39
X7.398Y-2.29
X7.398Y-2.39
X7.498Y-2.29
X7.498Y-2.39
X5.33Y-3.601
X5.33Y-3.701
X5.43Y-3.601
X5.43Y-3.701
X5.53Y-3.601
X5.53Y-3.701
X7.298Y-3.601
X7.298Y-3.701
X7.398Y-3.601
X7.398Y-3.701
X7.498Y-3.601
X7.498Y-3.701
T5
X4.017Y-3.086
X4.117Y-3.086
X4.217Y-3.086
X5.985Y-4.397
X6.085Y-4.397
X6.185Y-4.397
X7.585Y-4.397
X4.017Y-4.397
X4.117Y-4.397
X4.217Y-4.397
X5.985Y-3.086
X7.685Y-4.397
X4.017Y-1.775
X4.117Y-1.775
X4.217Y-1.775
X6.085Y-3.086
X6.185Y-3.086
X7.785Y-4.397
X5.617Y-1.775
X5.717Y-1.775
X7.585Y-1.775
X7.685Y-1.775
X7.785Y-1.775
X5.817Y-1.775
X7.585Y-3.086
X7.685Y-3.086
X7.785Y-3.086
X5.617Y-3.086
X5.717Y-3.086
X5.817Y-3.086
X5.985Y-1.775
X6.085Y-1.775
X6.185Y-1.775
X5.617Y-4.397
X5.717Y-4.397
X5.817Y-4.397
T6
X4.057Y-3.2709
X4.057Y-3.3709
X4.057Y-3.4709
X4.057Y-3.5709
X4.057Y-4.5819
X4.057Y-4.6819
X4.057Y-4.7819
X4.057Y-4.8819
X7.715Y-4.5819
X7.715Y-4.6819
X6.025Y-3.2709
X6.025Y-3.3709
X6.025Y-3.4709
X6.025Y-3.5709
X5.747Y-1.9599
X5.747Y-2.0599
X5.747Y-2.1599
X5.747Y-2.2599
X7.715Y-3.2709
X5.747Y-4.5819
X5.747Y-4.6819
X5.747Y-4.7819
X5.747Y-4.8819
X6.025Y-4.5819
X6.025Y-4.6819
X6.025Y-4.7819
X6.025Y-4.8819
X4.057Y-1.9599
X4.057Y-2.0599
X4.057Y-2.1599
X4.057Y-2.2599
X7.715Y-1.9599
X7.715Y-2.0599
X7.715Y-2.1599
X7.715Y-2.2599
X5.747Y-3.2709
X5.747Y-3.3709
X5.747Y-3.4709
X5.747Y-3.5709
X7.715Y-3.3709
X6.025Y-2.1599
X6.025Y-2.2599
X7.715Y-4.7819
X7.715Y-4.8819
X7.715Y-3.4709
X7.715Y-3.5709
X6.025Y-1.9599
X6.025Y-2.0599
T7
X5.747Y-4.097
X6.065Y-3.776
X4.097Y-4.097
X6.065Y-2.786
X5.747Y-5.087
X5.747Y-2.786
X7.715Y-5.087
X5.747Y-2.465
X7.715Y-1.475
X6.065Y-2.465
X7.715Y-3.776
X7.715Y-4.097
X5.747Y-1.475
X4.097Y-3.776
X6.065Y-1.475
X6.065Y-4.097
X7.715Y-2.786
X7.715Y-2.465
X4.097Y-1.475
X5.747Y-3.776
X4.097Y-5.087
X6.065Y-5.087
X4.097Y-2.465
X4.097Y-2.786
T0
M30
