G04 #@! TF.GenerationSoftware,KiCad,Pcbnew,(5.1.0-0)*
G04 #@! TF.CreationDate,2019-05-01T12:35:33-05:00*
G04 #@! TF.ProjectId,splitflap-pcb,73706c69-7466-46c6-9170-2d7063622e6b,rev?*
G04 #@! TF.SameCoordinates,Original*
G04 #@! TF.FileFunction,Paste,Top*
G04 #@! TF.FilePolarity,Positive*
%FSLAX46Y46*%
G04 Gerber Fmt 4.6, Leading zero omitted, Abs format (unit mm)*
G04 Created by KiCad (PCBNEW (5.1.0-0)) date 2019-05-01 12:35:33*
%MOMM*%
%LPD*%
G04 APERTURE LIST*
%ADD10R,2.750000X3.050000*%
%ADD11R,1.200000X2.200000*%
%ADD12R,1.950000X0.600000*%
%ADD13R,1.600000X0.550000*%
%ADD14R,0.550000X1.600000*%
%ADD15C,0.100000*%
%ADD16C,0.875000*%
G04 APERTURE END LIST*
D10*
X113717000Y-122943000D03*
X110667000Y-119593000D03*
X110667000Y-122943000D03*
X113717000Y-119593000D03*
D11*
X114472000Y-127568000D03*
X109912000Y-127568000D03*
D12*
X129700000Y-113513000D03*
X129700000Y-112243000D03*
X129700000Y-110973000D03*
X129700000Y-109703000D03*
X129700000Y-108433000D03*
X129700000Y-107163000D03*
X129700000Y-105893000D03*
X129700000Y-104623000D03*
X129700000Y-103353000D03*
X129700000Y-102083000D03*
X120300000Y-102083000D03*
X120300000Y-103353000D03*
X120300000Y-104623000D03*
X120300000Y-105893000D03*
X120300000Y-107163000D03*
X120300000Y-108433000D03*
X120300000Y-109703000D03*
X120300000Y-110973000D03*
X120300000Y-112243000D03*
X120300000Y-113513000D03*
D13*
X130082000Y-126092000D03*
X130082000Y-125292000D03*
X130082000Y-124492000D03*
X130082000Y-123692000D03*
X130082000Y-122892000D03*
X130082000Y-122092000D03*
X130082000Y-121292000D03*
X130082000Y-120492000D03*
D14*
X128632000Y-119042000D03*
X127832000Y-119042000D03*
X127032000Y-119042000D03*
X126232000Y-119042000D03*
X125432000Y-119042000D03*
X124632000Y-119042000D03*
X123832000Y-119042000D03*
X123032000Y-119042000D03*
D13*
X121582000Y-120492000D03*
X121582000Y-121292000D03*
X121582000Y-122092000D03*
X121582000Y-122892000D03*
X121582000Y-123692000D03*
X121582000Y-124492000D03*
X121582000Y-125292000D03*
X121582000Y-126092000D03*
D14*
X123032000Y-127542000D03*
X123832000Y-127542000D03*
X124632000Y-127542000D03*
X125432000Y-127542000D03*
X126232000Y-127542000D03*
X127032000Y-127542000D03*
X127832000Y-127542000D03*
X128632000Y-127542000D03*
D15*
G36*
X113168691Y-129244053D02*
G01*
X113189926Y-129247203D01*
X113210750Y-129252419D01*
X113230962Y-129259651D01*
X113250368Y-129268830D01*
X113268781Y-129279866D01*
X113286024Y-129292654D01*
X113301930Y-129307070D01*
X113316346Y-129322976D01*
X113329134Y-129340219D01*
X113340170Y-129358632D01*
X113349349Y-129378038D01*
X113356581Y-129398250D01*
X113361797Y-129419074D01*
X113364947Y-129440309D01*
X113366000Y-129461750D01*
X113366000Y-129974250D01*
X113364947Y-129995691D01*
X113361797Y-130016926D01*
X113356581Y-130037750D01*
X113349349Y-130057962D01*
X113340170Y-130077368D01*
X113329134Y-130095781D01*
X113316346Y-130113024D01*
X113301930Y-130128930D01*
X113286024Y-130143346D01*
X113268781Y-130156134D01*
X113250368Y-130167170D01*
X113230962Y-130176349D01*
X113210750Y-130183581D01*
X113189926Y-130188797D01*
X113168691Y-130191947D01*
X113147250Y-130193000D01*
X112709750Y-130193000D01*
X112688309Y-130191947D01*
X112667074Y-130188797D01*
X112646250Y-130183581D01*
X112626038Y-130176349D01*
X112606632Y-130167170D01*
X112588219Y-130156134D01*
X112570976Y-130143346D01*
X112555070Y-130128930D01*
X112540654Y-130113024D01*
X112527866Y-130095781D01*
X112516830Y-130077368D01*
X112507651Y-130057962D01*
X112500419Y-130037750D01*
X112495203Y-130016926D01*
X112492053Y-129995691D01*
X112491000Y-129974250D01*
X112491000Y-129461750D01*
X112492053Y-129440309D01*
X112495203Y-129419074D01*
X112500419Y-129398250D01*
X112507651Y-129378038D01*
X112516830Y-129358632D01*
X112527866Y-129340219D01*
X112540654Y-129322976D01*
X112555070Y-129307070D01*
X112570976Y-129292654D01*
X112588219Y-129279866D01*
X112606632Y-129268830D01*
X112626038Y-129259651D01*
X112646250Y-129252419D01*
X112667074Y-129247203D01*
X112688309Y-129244053D01*
X112709750Y-129243000D01*
X113147250Y-129243000D01*
X113168691Y-129244053D01*
X113168691Y-129244053D01*
G37*
D16*
X112928500Y-129718000D03*
D15*
G36*
X114743691Y-129244053D02*
G01*
X114764926Y-129247203D01*
X114785750Y-129252419D01*
X114805962Y-129259651D01*
X114825368Y-129268830D01*
X114843781Y-129279866D01*
X114861024Y-129292654D01*
X114876930Y-129307070D01*
X114891346Y-129322976D01*
X114904134Y-129340219D01*
X114915170Y-129358632D01*
X114924349Y-129378038D01*
X114931581Y-129398250D01*
X114936797Y-129419074D01*
X114939947Y-129440309D01*
X114941000Y-129461750D01*
X114941000Y-129974250D01*
X114939947Y-129995691D01*
X114936797Y-130016926D01*
X114931581Y-130037750D01*
X114924349Y-130057962D01*
X114915170Y-130077368D01*
X114904134Y-130095781D01*
X114891346Y-130113024D01*
X114876930Y-130128930D01*
X114861024Y-130143346D01*
X114843781Y-130156134D01*
X114825368Y-130167170D01*
X114805962Y-130176349D01*
X114785750Y-130183581D01*
X114764926Y-130188797D01*
X114743691Y-130191947D01*
X114722250Y-130193000D01*
X114284750Y-130193000D01*
X114263309Y-130191947D01*
X114242074Y-130188797D01*
X114221250Y-130183581D01*
X114201038Y-130176349D01*
X114181632Y-130167170D01*
X114163219Y-130156134D01*
X114145976Y-130143346D01*
X114130070Y-130128930D01*
X114115654Y-130113024D01*
X114102866Y-130095781D01*
X114091830Y-130077368D01*
X114082651Y-130057962D01*
X114075419Y-130037750D01*
X114070203Y-130016926D01*
X114067053Y-129995691D01*
X114066000Y-129974250D01*
X114066000Y-129461750D01*
X114067053Y-129440309D01*
X114070203Y-129419074D01*
X114075419Y-129398250D01*
X114082651Y-129378038D01*
X114091830Y-129358632D01*
X114102866Y-129340219D01*
X114115654Y-129322976D01*
X114130070Y-129307070D01*
X114145976Y-129292654D01*
X114163219Y-129279866D01*
X114181632Y-129268830D01*
X114201038Y-129259651D01*
X114221250Y-129252419D01*
X114242074Y-129247203D01*
X114263309Y-129244053D01*
X114284750Y-129243000D01*
X114722250Y-129243000D01*
X114743691Y-129244053D01*
X114743691Y-129244053D01*
G37*
D16*
X114503500Y-129718000D03*
D15*
G36*
X110120691Y-129244053D02*
G01*
X110141926Y-129247203D01*
X110162750Y-129252419D01*
X110182962Y-129259651D01*
X110202368Y-129268830D01*
X110220781Y-129279866D01*
X110238024Y-129292654D01*
X110253930Y-129307070D01*
X110268346Y-129322976D01*
X110281134Y-129340219D01*
X110292170Y-129358632D01*
X110301349Y-129378038D01*
X110308581Y-129398250D01*
X110313797Y-129419074D01*
X110316947Y-129440309D01*
X110318000Y-129461750D01*
X110318000Y-129974250D01*
X110316947Y-129995691D01*
X110313797Y-130016926D01*
X110308581Y-130037750D01*
X110301349Y-130057962D01*
X110292170Y-130077368D01*
X110281134Y-130095781D01*
X110268346Y-130113024D01*
X110253930Y-130128930D01*
X110238024Y-130143346D01*
X110220781Y-130156134D01*
X110202368Y-130167170D01*
X110182962Y-130176349D01*
X110162750Y-130183581D01*
X110141926Y-130188797D01*
X110120691Y-130191947D01*
X110099250Y-130193000D01*
X109661750Y-130193000D01*
X109640309Y-130191947D01*
X109619074Y-130188797D01*
X109598250Y-130183581D01*
X109578038Y-130176349D01*
X109558632Y-130167170D01*
X109540219Y-130156134D01*
X109522976Y-130143346D01*
X109507070Y-130128930D01*
X109492654Y-130113024D01*
X109479866Y-130095781D01*
X109468830Y-130077368D01*
X109459651Y-130057962D01*
X109452419Y-130037750D01*
X109447203Y-130016926D01*
X109444053Y-129995691D01*
X109443000Y-129974250D01*
X109443000Y-129461750D01*
X109444053Y-129440309D01*
X109447203Y-129419074D01*
X109452419Y-129398250D01*
X109459651Y-129378038D01*
X109468830Y-129358632D01*
X109479866Y-129340219D01*
X109492654Y-129322976D01*
X109507070Y-129307070D01*
X109522976Y-129292654D01*
X109540219Y-129279866D01*
X109558632Y-129268830D01*
X109578038Y-129259651D01*
X109598250Y-129252419D01*
X109619074Y-129247203D01*
X109640309Y-129244053D01*
X109661750Y-129243000D01*
X110099250Y-129243000D01*
X110120691Y-129244053D01*
X110120691Y-129244053D01*
G37*
D16*
X109880500Y-129718000D03*
D15*
G36*
X111695691Y-129244053D02*
G01*
X111716926Y-129247203D01*
X111737750Y-129252419D01*
X111757962Y-129259651D01*
X111777368Y-129268830D01*
X111795781Y-129279866D01*
X111813024Y-129292654D01*
X111828930Y-129307070D01*
X111843346Y-129322976D01*
X111856134Y-129340219D01*
X111867170Y-129358632D01*
X111876349Y-129378038D01*
X111883581Y-129398250D01*
X111888797Y-129419074D01*
X111891947Y-129440309D01*
X111893000Y-129461750D01*
X111893000Y-129974250D01*
X111891947Y-129995691D01*
X111888797Y-130016926D01*
X111883581Y-130037750D01*
X111876349Y-130057962D01*
X111867170Y-130077368D01*
X111856134Y-130095781D01*
X111843346Y-130113024D01*
X111828930Y-130128930D01*
X111813024Y-130143346D01*
X111795781Y-130156134D01*
X111777368Y-130167170D01*
X111757962Y-130176349D01*
X111737750Y-130183581D01*
X111716926Y-130188797D01*
X111695691Y-130191947D01*
X111674250Y-130193000D01*
X111236750Y-130193000D01*
X111215309Y-130191947D01*
X111194074Y-130188797D01*
X111173250Y-130183581D01*
X111153038Y-130176349D01*
X111133632Y-130167170D01*
X111115219Y-130156134D01*
X111097976Y-130143346D01*
X111082070Y-130128930D01*
X111067654Y-130113024D01*
X111054866Y-130095781D01*
X111043830Y-130077368D01*
X111034651Y-130057962D01*
X111027419Y-130037750D01*
X111022203Y-130016926D01*
X111019053Y-129995691D01*
X111018000Y-129974250D01*
X111018000Y-129461750D01*
X111019053Y-129440309D01*
X111022203Y-129419074D01*
X111027419Y-129398250D01*
X111034651Y-129378038D01*
X111043830Y-129358632D01*
X111054866Y-129340219D01*
X111067654Y-129322976D01*
X111082070Y-129307070D01*
X111097976Y-129292654D01*
X111115219Y-129279866D01*
X111133632Y-129268830D01*
X111153038Y-129259651D01*
X111173250Y-129252419D01*
X111194074Y-129247203D01*
X111215309Y-129244053D01*
X111236750Y-129243000D01*
X111674250Y-129243000D01*
X111695691Y-129244053D01*
X111695691Y-129244053D01*
G37*
D16*
X111455500Y-129718000D03*
D15*
G36*
X120027691Y-122957053D02*
G01*
X120048926Y-122960203D01*
X120069750Y-122965419D01*
X120089962Y-122972651D01*
X120109368Y-122981830D01*
X120127781Y-122992866D01*
X120145024Y-123005654D01*
X120160930Y-123020070D01*
X120175346Y-123035976D01*
X120188134Y-123053219D01*
X120199170Y-123071632D01*
X120208349Y-123091038D01*
X120215581Y-123111250D01*
X120220797Y-123132074D01*
X120223947Y-123153309D01*
X120225000Y-123174750D01*
X120225000Y-123612250D01*
X120223947Y-123633691D01*
X120220797Y-123654926D01*
X120215581Y-123675750D01*
X120208349Y-123695962D01*
X120199170Y-123715368D01*
X120188134Y-123733781D01*
X120175346Y-123751024D01*
X120160930Y-123766930D01*
X120145024Y-123781346D01*
X120127781Y-123794134D01*
X120109368Y-123805170D01*
X120089962Y-123814349D01*
X120069750Y-123821581D01*
X120048926Y-123826797D01*
X120027691Y-123829947D01*
X120006250Y-123831000D01*
X119493750Y-123831000D01*
X119472309Y-123829947D01*
X119451074Y-123826797D01*
X119430250Y-123821581D01*
X119410038Y-123814349D01*
X119390632Y-123805170D01*
X119372219Y-123794134D01*
X119354976Y-123781346D01*
X119339070Y-123766930D01*
X119324654Y-123751024D01*
X119311866Y-123733781D01*
X119300830Y-123715368D01*
X119291651Y-123695962D01*
X119284419Y-123675750D01*
X119279203Y-123654926D01*
X119276053Y-123633691D01*
X119275000Y-123612250D01*
X119275000Y-123174750D01*
X119276053Y-123153309D01*
X119279203Y-123132074D01*
X119284419Y-123111250D01*
X119291651Y-123091038D01*
X119300830Y-123071632D01*
X119311866Y-123053219D01*
X119324654Y-123035976D01*
X119339070Y-123020070D01*
X119354976Y-123005654D01*
X119372219Y-122992866D01*
X119390632Y-122981830D01*
X119410038Y-122972651D01*
X119430250Y-122965419D01*
X119451074Y-122960203D01*
X119472309Y-122957053D01*
X119493750Y-122956000D01*
X120006250Y-122956000D01*
X120027691Y-122957053D01*
X120027691Y-122957053D01*
G37*
D16*
X119750000Y-123393500D03*
D15*
G36*
X120027691Y-121382053D02*
G01*
X120048926Y-121385203D01*
X120069750Y-121390419D01*
X120089962Y-121397651D01*
X120109368Y-121406830D01*
X120127781Y-121417866D01*
X120145024Y-121430654D01*
X120160930Y-121445070D01*
X120175346Y-121460976D01*
X120188134Y-121478219D01*
X120199170Y-121496632D01*
X120208349Y-121516038D01*
X120215581Y-121536250D01*
X120220797Y-121557074D01*
X120223947Y-121578309D01*
X120225000Y-121599750D01*
X120225000Y-122037250D01*
X120223947Y-122058691D01*
X120220797Y-122079926D01*
X120215581Y-122100750D01*
X120208349Y-122120962D01*
X120199170Y-122140368D01*
X120188134Y-122158781D01*
X120175346Y-122176024D01*
X120160930Y-122191930D01*
X120145024Y-122206346D01*
X120127781Y-122219134D01*
X120109368Y-122230170D01*
X120089962Y-122239349D01*
X120069750Y-122246581D01*
X120048926Y-122251797D01*
X120027691Y-122254947D01*
X120006250Y-122256000D01*
X119493750Y-122256000D01*
X119472309Y-122254947D01*
X119451074Y-122251797D01*
X119430250Y-122246581D01*
X119410038Y-122239349D01*
X119390632Y-122230170D01*
X119372219Y-122219134D01*
X119354976Y-122206346D01*
X119339070Y-122191930D01*
X119324654Y-122176024D01*
X119311866Y-122158781D01*
X119300830Y-122140368D01*
X119291651Y-122120962D01*
X119284419Y-122100750D01*
X119279203Y-122079926D01*
X119276053Y-122058691D01*
X119275000Y-122037250D01*
X119275000Y-121599750D01*
X119276053Y-121578309D01*
X119279203Y-121557074D01*
X119284419Y-121536250D01*
X119291651Y-121516038D01*
X119300830Y-121496632D01*
X119311866Y-121478219D01*
X119324654Y-121460976D01*
X119339070Y-121445070D01*
X119354976Y-121430654D01*
X119372219Y-121417866D01*
X119390632Y-121406830D01*
X119410038Y-121397651D01*
X119430250Y-121390419D01*
X119451074Y-121385203D01*
X119472309Y-121382053D01*
X119493750Y-121381000D01*
X120006250Y-121381000D01*
X120027691Y-121382053D01*
X120027691Y-121382053D01*
G37*
D16*
X119750000Y-121818500D03*
D15*
G36*
X128967691Y-128990053D02*
G01*
X128988926Y-128993203D01*
X129009750Y-128998419D01*
X129029962Y-129005651D01*
X129049368Y-129014830D01*
X129067781Y-129025866D01*
X129085024Y-129038654D01*
X129100930Y-129053070D01*
X129115346Y-129068976D01*
X129128134Y-129086219D01*
X129139170Y-129104632D01*
X129148349Y-129124038D01*
X129155581Y-129144250D01*
X129160797Y-129165074D01*
X129163947Y-129186309D01*
X129165000Y-129207750D01*
X129165000Y-129720250D01*
X129163947Y-129741691D01*
X129160797Y-129762926D01*
X129155581Y-129783750D01*
X129148349Y-129803962D01*
X129139170Y-129823368D01*
X129128134Y-129841781D01*
X129115346Y-129859024D01*
X129100930Y-129874930D01*
X129085024Y-129889346D01*
X129067781Y-129902134D01*
X129049368Y-129913170D01*
X129029962Y-129922349D01*
X129009750Y-129929581D01*
X128988926Y-129934797D01*
X128967691Y-129937947D01*
X128946250Y-129939000D01*
X128508750Y-129939000D01*
X128487309Y-129937947D01*
X128466074Y-129934797D01*
X128445250Y-129929581D01*
X128425038Y-129922349D01*
X128405632Y-129913170D01*
X128387219Y-129902134D01*
X128369976Y-129889346D01*
X128354070Y-129874930D01*
X128339654Y-129859024D01*
X128326866Y-129841781D01*
X128315830Y-129823368D01*
X128306651Y-129803962D01*
X128299419Y-129783750D01*
X128294203Y-129762926D01*
X128291053Y-129741691D01*
X128290000Y-129720250D01*
X128290000Y-129207750D01*
X128291053Y-129186309D01*
X128294203Y-129165074D01*
X128299419Y-129144250D01*
X128306651Y-129124038D01*
X128315830Y-129104632D01*
X128326866Y-129086219D01*
X128339654Y-129068976D01*
X128354070Y-129053070D01*
X128369976Y-129038654D01*
X128387219Y-129025866D01*
X128405632Y-129014830D01*
X128425038Y-129005651D01*
X128445250Y-128998419D01*
X128466074Y-128993203D01*
X128487309Y-128990053D01*
X128508750Y-128989000D01*
X128946250Y-128989000D01*
X128967691Y-128990053D01*
X128967691Y-128990053D01*
G37*
D16*
X128727500Y-129464000D03*
D15*
G36*
X127392691Y-128990053D02*
G01*
X127413926Y-128993203D01*
X127434750Y-128998419D01*
X127454962Y-129005651D01*
X127474368Y-129014830D01*
X127492781Y-129025866D01*
X127510024Y-129038654D01*
X127525930Y-129053070D01*
X127540346Y-129068976D01*
X127553134Y-129086219D01*
X127564170Y-129104632D01*
X127573349Y-129124038D01*
X127580581Y-129144250D01*
X127585797Y-129165074D01*
X127588947Y-129186309D01*
X127590000Y-129207750D01*
X127590000Y-129720250D01*
X127588947Y-129741691D01*
X127585797Y-129762926D01*
X127580581Y-129783750D01*
X127573349Y-129803962D01*
X127564170Y-129823368D01*
X127553134Y-129841781D01*
X127540346Y-129859024D01*
X127525930Y-129874930D01*
X127510024Y-129889346D01*
X127492781Y-129902134D01*
X127474368Y-129913170D01*
X127454962Y-129922349D01*
X127434750Y-129929581D01*
X127413926Y-129934797D01*
X127392691Y-129937947D01*
X127371250Y-129939000D01*
X126933750Y-129939000D01*
X126912309Y-129937947D01*
X126891074Y-129934797D01*
X126870250Y-129929581D01*
X126850038Y-129922349D01*
X126830632Y-129913170D01*
X126812219Y-129902134D01*
X126794976Y-129889346D01*
X126779070Y-129874930D01*
X126764654Y-129859024D01*
X126751866Y-129841781D01*
X126740830Y-129823368D01*
X126731651Y-129803962D01*
X126724419Y-129783750D01*
X126719203Y-129762926D01*
X126716053Y-129741691D01*
X126715000Y-129720250D01*
X126715000Y-129207750D01*
X126716053Y-129186309D01*
X126719203Y-129165074D01*
X126724419Y-129144250D01*
X126731651Y-129124038D01*
X126740830Y-129104632D01*
X126751866Y-129086219D01*
X126764654Y-129068976D01*
X126779070Y-129053070D01*
X126794976Y-129038654D01*
X126812219Y-129025866D01*
X126830632Y-129014830D01*
X126850038Y-129005651D01*
X126870250Y-128998419D01*
X126891074Y-128993203D01*
X126912309Y-128990053D01*
X126933750Y-128989000D01*
X127371250Y-128989000D01*
X127392691Y-128990053D01*
X127392691Y-128990053D01*
G37*
D16*
X127152500Y-129464000D03*
D15*
G36*
X117549691Y-127275053D02*
G01*
X117570926Y-127278203D01*
X117591750Y-127283419D01*
X117611962Y-127290651D01*
X117631368Y-127299830D01*
X117649781Y-127310866D01*
X117667024Y-127323654D01*
X117682930Y-127338070D01*
X117697346Y-127353976D01*
X117710134Y-127371219D01*
X117721170Y-127389632D01*
X117730349Y-127409038D01*
X117737581Y-127429250D01*
X117742797Y-127450074D01*
X117745947Y-127471309D01*
X117747000Y-127492750D01*
X117747000Y-127930250D01*
X117745947Y-127951691D01*
X117742797Y-127972926D01*
X117737581Y-127993750D01*
X117730349Y-128013962D01*
X117721170Y-128033368D01*
X117710134Y-128051781D01*
X117697346Y-128069024D01*
X117682930Y-128084930D01*
X117667024Y-128099346D01*
X117649781Y-128112134D01*
X117631368Y-128123170D01*
X117611962Y-128132349D01*
X117591750Y-128139581D01*
X117570926Y-128144797D01*
X117549691Y-128147947D01*
X117528250Y-128149000D01*
X117015750Y-128149000D01*
X116994309Y-128147947D01*
X116973074Y-128144797D01*
X116952250Y-128139581D01*
X116932038Y-128132349D01*
X116912632Y-128123170D01*
X116894219Y-128112134D01*
X116876976Y-128099346D01*
X116861070Y-128084930D01*
X116846654Y-128069024D01*
X116833866Y-128051781D01*
X116822830Y-128033368D01*
X116813651Y-128013962D01*
X116806419Y-127993750D01*
X116801203Y-127972926D01*
X116798053Y-127951691D01*
X116797000Y-127930250D01*
X116797000Y-127492750D01*
X116798053Y-127471309D01*
X116801203Y-127450074D01*
X116806419Y-127429250D01*
X116813651Y-127409038D01*
X116822830Y-127389632D01*
X116833866Y-127371219D01*
X116846654Y-127353976D01*
X116861070Y-127338070D01*
X116876976Y-127323654D01*
X116894219Y-127310866D01*
X116912632Y-127299830D01*
X116932038Y-127290651D01*
X116952250Y-127283419D01*
X116973074Y-127278203D01*
X116994309Y-127275053D01*
X117015750Y-127274000D01*
X117528250Y-127274000D01*
X117549691Y-127275053D01*
X117549691Y-127275053D01*
G37*
D16*
X117272000Y-127711500D03*
D15*
G36*
X117549691Y-125700053D02*
G01*
X117570926Y-125703203D01*
X117591750Y-125708419D01*
X117611962Y-125715651D01*
X117631368Y-125724830D01*
X117649781Y-125735866D01*
X117667024Y-125748654D01*
X117682930Y-125763070D01*
X117697346Y-125778976D01*
X117710134Y-125796219D01*
X117721170Y-125814632D01*
X117730349Y-125834038D01*
X117737581Y-125854250D01*
X117742797Y-125875074D01*
X117745947Y-125896309D01*
X117747000Y-125917750D01*
X117747000Y-126355250D01*
X117745947Y-126376691D01*
X117742797Y-126397926D01*
X117737581Y-126418750D01*
X117730349Y-126438962D01*
X117721170Y-126458368D01*
X117710134Y-126476781D01*
X117697346Y-126494024D01*
X117682930Y-126509930D01*
X117667024Y-126524346D01*
X117649781Y-126537134D01*
X117631368Y-126548170D01*
X117611962Y-126557349D01*
X117591750Y-126564581D01*
X117570926Y-126569797D01*
X117549691Y-126572947D01*
X117528250Y-126574000D01*
X117015750Y-126574000D01*
X116994309Y-126572947D01*
X116973074Y-126569797D01*
X116952250Y-126564581D01*
X116932038Y-126557349D01*
X116912632Y-126548170D01*
X116894219Y-126537134D01*
X116876976Y-126524346D01*
X116861070Y-126509930D01*
X116846654Y-126494024D01*
X116833866Y-126476781D01*
X116822830Y-126458368D01*
X116813651Y-126438962D01*
X116806419Y-126418750D01*
X116801203Y-126397926D01*
X116798053Y-126376691D01*
X116797000Y-126355250D01*
X116797000Y-125917750D01*
X116798053Y-125896309D01*
X116801203Y-125875074D01*
X116806419Y-125854250D01*
X116813651Y-125834038D01*
X116822830Y-125814632D01*
X116833866Y-125796219D01*
X116846654Y-125778976D01*
X116861070Y-125763070D01*
X116876976Y-125748654D01*
X116894219Y-125735866D01*
X116912632Y-125724830D01*
X116932038Y-125715651D01*
X116952250Y-125708419D01*
X116973074Y-125703203D01*
X116994309Y-125700053D01*
X117015750Y-125699000D01*
X117528250Y-125699000D01*
X117549691Y-125700053D01*
X117549691Y-125700053D01*
G37*
D16*
X117272000Y-126136500D03*
D15*
G36*
X119581691Y-125678053D02*
G01*
X119602926Y-125681203D01*
X119623750Y-125686419D01*
X119643962Y-125693651D01*
X119663368Y-125702830D01*
X119681781Y-125713866D01*
X119699024Y-125726654D01*
X119714930Y-125741070D01*
X119729346Y-125756976D01*
X119742134Y-125774219D01*
X119753170Y-125792632D01*
X119762349Y-125812038D01*
X119769581Y-125832250D01*
X119774797Y-125853074D01*
X119777947Y-125874309D01*
X119779000Y-125895750D01*
X119779000Y-126333250D01*
X119777947Y-126354691D01*
X119774797Y-126375926D01*
X119769581Y-126396750D01*
X119762349Y-126416962D01*
X119753170Y-126436368D01*
X119742134Y-126454781D01*
X119729346Y-126472024D01*
X119714930Y-126487930D01*
X119699024Y-126502346D01*
X119681781Y-126515134D01*
X119663368Y-126526170D01*
X119643962Y-126535349D01*
X119623750Y-126542581D01*
X119602926Y-126547797D01*
X119581691Y-126550947D01*
X119560250Y-126552000D01*
X119047750Y-126552000D01*
X119026309Y-126550947D01*
X119005074Y-126547797D01*
X118984250Y-126542581D01*
X118964038Y-126535349D01*
X118944632Y-126526170D01*
X118926219Y-126515134D01*
X118908976Y-126502346D01*
X118893070Y-126487930D01*
X118878654Y-126472024D01*
X118865866Y-126454781D01*
X118854830Y-126436368D01*
X118845651Y-126416962D01*
X118838419Y-126396750D01*
X118833203Y-126375926D01*
X118830053Y-126354691D01*
X118829000Y-126333250D01*
X118829000Y-125895750D01*
X118830053Y-125874309D01*
X118833203Y-125853074D01*
X118838419Y-125832250D01*
X118845651Y-125812038D01*
X118854830Y-125792632D01*
X118865866Y-125774219D01*
X118878654Y-125756976D01*
X118893070Y-125741070D01*
X118908976Y-125726654D01*
X118926219Y-125713866D01*
X118944632Y-125702830D01*
X118964038Y-125693651D01*
X118984250Y-125686419D01*
X119005074Y-125681203D01*
X119026309Y-125678053D01*
X119047750Y-125677000D01*
X119560250Y-125677000D01*
X119581691Y-125678053D01*
X119581691Y-125678053D01*
G37*
D16*
X119304000Y-126114500D03*
D15*
G36*
X119581691Y-127253053D02*
G01*
X119602926Y-127256203D01*
X119623750Y-127261419D01*
X119643962Y-127268651D01*
X119663368Y-127277830D01*
X119681781Y-127288866D01*
X119699024Y-127301654D01*
X119714930Y-127316070D01*
X119729346Y-127331976D01*
X119742134Y-127349219D01*
X119753170Y-127367632D01*
X119762349Y-127387038D01*
X119769581Y-127407250D01*
X119774797Y-127428074D01*
X119777947Y-127449309D01*
X119779000Y-127470750D01*
X119779000Y-127908250D01*
X119777947Y-127929691D01*
X119774797Y-127950926D01*
X119769581Y-127971750D01*
X119762349Y-127991962D01*
X119753170Y-128011368D01*
X119742134Y-128029781D01*
X119729346Y-128047024D01*
X119714930Y-128062930D01*
X119699024Y-128077346D01*
X119681781Y-128090134D01*
X119663368Y-128101170D01*
X119643962Y-128110349D01*
X119623750Y-128117581D01*
X119602926Y-128122797D01*
X119581691Y-128125947D01*
X119560250Y-128127000D01*
X119047750Y-128127000D01*
X119026309Y-128125947D01*
X119005074Y-128122797D01*
X118984250Y-128117581D01*
X118964038Y-128110349D01*
X118944632Y-128101170D01*
X118926219Y-128090134D01*
X118908976Y-128077346D01*
X118893070Y-128062930D01*
X118878654Y-128047024D01*
X118865866Y-128029781D01*
X118854830Y-128011368D01*
X118845651Y-127991962D01*
X118838419Y-127971750D01*
X118833203Y-127950926D01*
X118830053Y-127929691D01*
X118829000Y-127908250D01*
X118829000Y-127470750D01*
X118830053Y-127449309D01*
X118833203Y-127428074D01*
X118838419Y-127407250D01*
X118845651Y-127387038D01*
X118854830Y-127367632D01*
X118865866Y-127349219D01*
X118878654Y-127331976D01*
X118893070Y-127316070D01*
X118908976Y-127301654D01*
X118926219Y-127288866D01*
X118944632Y-127277830D01*
X118964038Y-127268651D01*
X118984250Y-127261419D01*
X119005074Y-127256203D01*
X119026309Y-127253053D01*
X119047750Y-127252000D01*
X119560250Y-127252000D01*
X119581691Y-127253053D01*
X119581691Y-127253053D01*
G37*
D16*
X119304000Y-127689500D03*
D15*
G36*
X132002291Y-111907853D02*
G01*
X132023526Y-111911003D01*
X132044350Y-111916219D01*
X132064562Y-111923451D01*
X132083968Y-111932630D01*
X132102381Y-111943666D01*
X132119624Y-111956454D01*
X132135530Y-111970870D01*
X132149946Y-111986776D01*
X132162734Y-112004019D01*
X132173770Y-112022432D01*
X132182949Y-112041838D01*
X132190181Y-112062050D01*
X132195397Y-112082874D01*
X132198547Y-112104109D01*
X132199600Y-112125550D01*
X132199600Y-112563050D01*
X132198547Y-112584491D01*
X132195397Y-112605726D01*
X132190181Y-112626550D01*
X132182949Y-112646762D01*
X132173770Y-112666168D01*
X132162734Y-112684581D01*
X132149946Y-112701824D01*
X132135530Y-112717730D01*
X132119624Y-112732146D01*
X132102381Y-112744934D01*
X132083968Y-112755970D01*
X132064562Y-112765149D01*
X132044350Y-112772381D01*
X132023526Y-112777597D01*
X132002291Y-112780747D01*
X131980850Y-112781800D01*
X131468350Y-112781800D01*
X131446909Y-112780747D01*
X131425674Y-112777597D01*
X131404850Y-112772381D01*
X131384638Y-112765149D01*
X131365232Y-112755970D01*
X131346819Y-112744934D01*
X131329576Y-112732146D01*
X131313670Y-112717730D01*
X131299254Y-112701824D01*
X131286466Y-112684581D01*
X131275430Y-112666168D01*
X131266251Y-112646762D01*
X131259019Y-112626550D01*
X131253803Y-112605726D01*
X131250653Y-112584491D01*
X131249600Y-112563050D01*
X131249600Y-112125550D01*
X131250653Y-112104109D01*
X131253803Y-112082874D01*
X131259019Y-112062050D01*
X131266251Y-112041838D01*
X131275430Y-112022432D01*
X131286466Y-112004019D01*
X131299254Y-111986776D01*
X131313670Y-111970870D01*
X131329576Y-111956454D01*
X131346819Y-111943666D01*
X131365232Y-111932630D01*
X131384638Y-111923451D01*
X131404850Y-111916219D01*
X131425674Y-111911003D01*
X131446909Y-111907853D01*
X131468350Y-111906800D01*
X131980850Y-111906800D01*
X132002291Y-111907853D01*
X132002291Y-111907853D01*
G37*
D16*
X131724600Y-112344300D03*
D15*
G36*
X132002291Y-113482853D02*
G01*
X132023526Y-113486003D01*
X132044350Y-113491219D01*
X132064562Y-113498451D01*
X132083968Y-113507630D01*
X132102381Y-113518666D01*
X132119624Y-113531454D01*
X132135530Y-113545870D01*
X132149946Y-113561776D01*
X132162734Y-113579019D01*
X132173770Y-113597432D01*
X132182949Y-113616838D01*
X132190181Y-113637050D01*
X132195397Y-113657874D01*
X132198547Y-113679109D01*
X132199600Y-113700550D01*
X132199600Y-114138050D01*
X132198547Y-114159491D01*
X132195397Y-114180726D01*
X132190181Y-114201550D01*
X132182949Y-114221762D01*
X132173770Y-114241168D01*
X132162734Y-114259581D01*
X132149946Y-114276824D01*
X132135530Y-114292730D01*
X132119624Y-114307146D01*
X132102381Y-114319934D01*
X132083968Y-114330970D01*
X132064562Y-114340149D01*
X132044350Y-114347381D01*
X132023526Y-114352597D01*
X132002291Y-114355747D01*
X131980850Y-114356800D01*
X131468350Y-114356800D01*
X131446909Y-114355747D01*
X131425674Y-114352597D01*
X131404850Y-114347381D01*
X131384638Y-114340149D01*
X131365232Y-114330970D01*
X131346819Y-114319934D01*
X131329576Y-114307146D01*
X131313670Y-114292730D01*
X131299254Y-114276824D01*
X131286466Y-114259581D01*
X131275430Y-114241168D01*
X131266251Y-114221762D01*
X131259019Y-114201550D01*
X131253803Y-114180726D01*
X131250653Y-114159491D01*
X131249600Y-114138050D01*
X131249600Y-113700550D01*
X131250653Y-113679109D01*
X131253803Y-113657874D01*
X131259019Y-113637050D01*
X131266251Y-113616838D01*
X131275430Y-113597432D01*
X131286466Y-113579019D01*
X131299254Y-113561776D01*
X131313670Y-113545870D01*
X131329576Y-113531454D01*
X131346819Y-113518666D01*
X131365232Y-113507630D01*
X131384638Y-113498451D01*
X131404850Y-113491219D01*
X131425674Y-113486003D01*
X131446909Y-113482853D01*
X131468350Y-113481800D01*
X131980850Y-113481800D01*
X132002291Y-113482853D01*
X132002291Y-113482853D01*
G37*
D16*
X131724600Y-113919300D03*
D15*
G36*
X132535691Y-122448853D02*
G01*
X132556926Y-122452003D01*
X132577750Y-122457219D01*
X132597962Y-122464451D01*
X132617368Y-122473630D01*
X132635781Y-122484666D01*
X132653024Y-122497454D01*
X132668930Y-122511870D01*
X132683346Y-122527776D01*
X132696134Y-122545019D01*
X132707170Y-122563432D01*
X132716349Y-122582838D01*
X132723581Y-122603050D01*
X132728797Y-122623874D01*
X132731947Y-122645109D01*
X132733000Y-122666550D01*
X132733000Y-123104050D01*
X132731947Y-123125491D01*
X132728797Y-123146726D01*
X132723581Y-123167550D01*
X132716349Y-123187762D01*
X132707170Y-123207168D01*
X132696134Y-123225581D01*
X132683346Y-123242824D01*
X132668930Y-123258730D01*
X132653024Y-123273146D01*
X132635781Y-123285934D01*
X132617368Y-123296970D01*
X132597962Y-123306149D01*
X132577750Y-123313381D01*
X132556926Y-123318597D01*
X132535691Y-123321747D01*
X132514250Y-123322800D01*
X132001750Y-123322800D01*
X131980309Y-123321747D01*
X131959074Y-123318597D01*
X131938250Y-123313381D01*
X131918038Y-123306149D01*
X131898632Y-123296970D01*
X131880219Y-123285934D01*
X131862976Y-123273146D01*
X131847070Y-123258730D01*
X131832654Y-123242824D01*
X131819866Y-123225581D01*
X131808830Y-123207168D01*
X131799651Y-123187762D01*
X131792419Y-123167550D01*
X131787203Y-123146726D01*
X131784053Y-123125491D01*
X131783000Y-123104050D01*
X131783000Y-122666550D01*
X131784053Y-122645109D01*
X131787203Y-122623874D01*
X131792419Y-122603050D01*
X131799651Y-122582838D01*
X131808830Y-122563432D01*
X131819866Y-122545019D01*
X131832654Y-122527776D01*
X131847070Y-122511870D01*
X131862976Y-122497454D01*
X131880219Y-122484666D01*
X131898632Y-122473630D01*
X131918038Y-122464451D01*
X131938250Y-122457219D01*
X131959074Y-122452003D01*
X131980309Y-122448853D01*
X132001750Y-122447800D01*
X132514250Y-122447800D01*
X132535691Y-122448853D01*
X132535691Y-122448853D01*
G37*
D16*
X132258000Y-122885300D03*
D15*
G36*
X132535691Y-124023853D02*
G01*
X132556926Y-124027003D01*
X132577750Y-124032219D01*
X132597962Y-124039451D01*
X132617368Y-124048630D01*
X132635781Y-124059666D01*
X132653024Y-124072454D01*
X132668930Y-124086870D01*
X132683346Y-124102776D01*
X132696134Y-124120019D01*
X132707170Y-124138432D01*
X132716349Y-124157838D01*
X132723581Y-124178050D01*
X132728797Y-124198874D01*
X132731947Y-124220109D01*
X132733000Y-124241550D01*
X132733000Y-124679050D01*
X132731947Y-124700491D01*
X132728797Y-124721726D01*
X132723581Y-124742550D01*
X132716349Y-124762762D01*
X132707170Y-124782168D01*
X132696134Y-124800581D01*
X132683346Y-124817824D01*
X132668930Y-124833730D01*
X132653024Y-124848146D01*
X132635781Y-124860934D01*
X132617368Y-124871970D01*
X132597962Y-124881149D01*
X132577750Y-124888381D01*
X132556926Y-124893597D01*
X132535691Y-124896747D01*
X132514250Y-124897800D01*
X132001750Y-124897800D01*
X131980309Y-124896747D01*
X131959074Y-124893597D01*
X131938250Y-124888381D01*
X131918038Y-124881149D01*
X131898632Y-124871970D01*
X131880219Y-124860934D01*
X131862976Y-124848146D01*
X131847070Y-124833730D01*
X131832654Y-124817824D01*
X131819866Y-124800581D01*
X131808830Y-124782168D01*
X131799651Y-124762762D01*
X131792419Y-124742550D01*
X131787203Y-124721726D01*
X131784053Y-124700491D01*
X131783000Y-124679050D01*
X131783000Y-124241550D01*
X131784053Y-124220109D01*
X131787203Y-124198874D01*
X131792419Y-124178050D01*
X131799651Y-124157838D01*
X131808830Y-124138432D01*
X131819866Y-124120019D01*
X131832654Y-124102776D01*
X131847070Y-124086870D01*
X131862976Y-124072454D01*
X131880219Y-124059666D01*
X131898632Y-124048630D01*
X131918038Y-124039451D01*
X131938250Y-124032219D01*
X131959074Y-124027003D01*
X131980309Y-124023853D01*
X132001750Y-124022800D01*
X132514250Y-124022800D01*
X132535691Y-124023853D01*
X132535691Y-124023853D01*
G37*
D16*
X132258000Y-124460300D03*
D15*
G36*
X132002291Y-104135653D02*
G01*
X132023526Y-104138803D01*
X132044350Y-104144019D01*
X132064562Y-104151251D01*
X132083968Y-104160430D01*
X132102381Y-104171466D01*
X132119624Y-104184254D01*
X132135530Y-104198670D01*
X132149946Y-104214576D01*
X132162734Y-104231819D01*
X132173770Y-104250232D01*
X132182949Y-104269638D01*
X132190181Y-104289850D01*
X132195397Y-104310674D01*
X132198547Y-104331909D01*
X132199600Y-104353350D01*
X132199600Y-104790850D01*
X132198547Y-104812291D01*
X132195397Y-104833526D01*
X132190181Y-104854350D01*
X132182949Y-104874562D01*
X132173770Y-104893968D01*
X132162734Y-104912381D01*
X132149946Y-104929624D01*
X132135530Y-104945530D01*
X132119624Y-104959946D01*
X132102381Y-104972734D01*
X132083968Y-104983770D01*
X132064562Y-104992949D01*
X132044350Y-105000181D01*
X132023526Y-105005397D01*
X132002291Y-105008547D01*
X131980850Y-105009600D01*
X131468350Y-105009600D01*
X131446909Y-105008547D01*
X131425674Y-105005397D01*
X131404850Y-105000181D01*
X131384638Y-104992949D01*
X131365232Y-104983770D01*
X131346819Y-104972734D01*
X131329576Y-104959946D01*
X131313670Y-104945530D01*
X131299254Y-104929624D01*
X131286466Y-104912381D01*
X131275430Y-104893968D01*
X131266251Y-104874562D01*
X131259019Y-104854350D01*
X131253803Y-104833526D01*
X131250653Y-104812291D01*
X131249600Y-104790850D01*
X131249600Y-104353350D01*
X131250653Y-104331909D01*
X131253803Y-104310674D01*
X131259019Y-104289850D01*
X131266251Y-104269638D01*
X131275430Y-104250232D01*
X131286466Y-104231819D01*
X131299254Y-104214576D01*
X131313670Y-104198670D01*
X131329576Y-104184254D01*
X131346819Y-104171466D01*
X131365232Y-104160430D01*
X131384638Y-104151251D01*
X131404850Y-104144019D01*
X131425674Y-104138803D01*
X131446909Y-104135653D01*
X131468350Y-104134600D01*
X131980850Y-104134600D01*
X132002291Y-104135653D01*
X132002291Y-104135653D01*
G37*
D16*
X131724600Y-104572100D03*
D15*
G36*
X132002291Y-102560653D02*
G01*
X132023526Y-102563803D01*
X132044350Y-102569019D01*
X132064562Y-102576251D01*
X132083968Y-102585430D01*
X132102381Y-102596466D01*
X132119624Y-102609254D01*
X132135530Y-102623670D01*
X132149946Y-102639576D01*
X132162734Y-102656819D01*
X132173770Y-102675232D01*
X132182949Y-102694638D01*
X132190181Y-102714850D01*
X132195397Y-102735674D01*
X132198547Y-102756909D01*
X132199600Y-102778350D01*
X132199600Y-103215850D01*
X132198547Y-103237291D01*
X132195397Y-103258526D01*
X132190181Y-103279350D01*
X132182949Y-103299562D01*
X132173770Y-103318968D01*
X132162734Y-103337381D01*
X132149946Y-103354624D01*
X132135530Y-103370530D01*
X132119624Y-103384946D01*
X132102381Y-103397734D01*
X132083968Y-103408770D01*
X132064562Y-103417949D01*
X132044350Y-103425181D01*
X132023526Y-103430397D01*
X132002291Y-103433547D01*
X131980850Y-103434600D01*
X131468350Y-103434600D01*
X131446909Y-103433547D01*
X131425674Y-103430397D01*
X131404850Y-103425181D01*
X131384638Y-103417949D01*
X131365232Y-103408770D01*
X131346819Y-103397734D01*
X131329576Y-103384946D01*
X131313670Y-103370530D01*
X131299254Y-103354624D01*
X131286466Y-103337381D01*
X131275430Y-103318968D01*
X131266251Y-103299562D01*
X131259019Y-103279350D01*
X131253803Y-103258526D01*
X131250653Y-103237291D01*
X131249600Y-103215850D01*
X131249600Y-102778350D01*
X131250653Y-102756909D01*
X131253803Y-102735674D01*
X131259019Y-102714850D01*
X131266251Y-102694638D01*
X131275430Y-102675232D01*
X131286466Y-102656819D01*
X131299254Y-102639576D01*
X131313670Y-102623670D01*
X131329576Y-102609254D01*
X131346819Y-102596466D01*
X131365232Y-102585430D01*
X131384638Y-102576251D01*
X131404850Y-102569019D01*
X131425674Y-102563803D01*
X131446909Y-102560653D01*
X131468350Y-102559600D01*
X131980850Y-102559600D01*
X132002291Y-102560653D01*
X132002291Y-102560653D01*
G37*
D16*
X131724600Y-102997100D03*
M02*
