M48
; DRILL file {KiCad (5.1.0-0)} date Monday, April 29, 2019 at 05:32:53 PM
; FORMAT={-:-/ absolute / inch / decimal}
; #@! TF.CreationDate,2019-04-29T17:32:53-05:00
; #@! TF.GenerationSoftware,Kicad,Pcbnew,(5.1.0-0)
FMAT,2
INCH
T1C0.0157
T2C0.0374
T3C0.0394
T4C0.0400
T5C0.0402
T6C0.1220
%
G90
G05
T1
X4.177Y-4.467
X4.287Y-4.577
X4.337Y-4.687
X4.337Y-4.867
X4.407Y-4.777
X4.417Y-5.057
X4.497Y-4.687
X4.497Y-4.867
X4.517Y-4.937
X4.668Y-4.858
X4.6928Y-4.9213
X4.797Y-4.447
X4.817Y-4.537
X4.8428Y-4.9213
X4.877Y-4.367
X4.877Y-4.617
X4.887Y-5.097
X4.917Y-4.147
X4.957Y-4.367
X4.957Y-4.537
X4.967Y-4.617
X4.997Y-4.767
X5.017Y-4.527
X5.027Y-4.957
X5.0513Y-4.9213
X5.0557Y-4.8383
X5.057Y-4.777
X5.127Y-5.017
X5.147Y-4.677
X5.177Y-4.777
X5.217Y-4.977
X5.257Y-5.037
X5.417Y-4.507
X5.607Y-4.447
T2
X5.2953Y-4.0533
X5.2953Y-4.1517
X5.2953Y-4.2502
X5.2953Y-4.3486
X5.2953Y-4.447
X4.507Y-4.0533
X4.507Y-4.1517
X4.507Y-4.2502
X4.507Y-4.3486
X4.507Y-4.447
T3
X5.377Y-4.687
X5.377Y-4.787
X5.377Y-4.887
X5.477Y-4.687
X5.477Y-4.787
X5.477Y-4.887
T4
X4.057Y-4.357
X4.157Y-4.357
X4.257Y-4.357
X5.567Y-4.357
X5.667Y-4.357
X5.767Y-4.357
T5
X5.747Y-4.5819
X5.747Y-4.6819
X5.747Y-4.7819
X5.747Y-4.8819
X4.057Y-4.5819
X4.057Y-4.6819
X4.057Y-4.7819
X4.057Y-4.8819
T6
X4.067Y-4.067
X4.067Y-5.117
X5.777Y-4.067
X5.777Y-5.117
T0
M30
