G04 #@! TF.GenerationSoftware,KiCad,Pcbnew,(5.1.0-0)*
G04 #@! TF.CreationDate,2019-04-29T17:32:57-05:00*
G04 #@! TF.ProjectId,splitflap-pcb,73706c69-7466-46c6-9170-2d7063622e6b,rev?*
G04 #@! TF.SameCoordinates,Original*
G04 #@! TF.FileFunction,Soldermask,Bot*
G04 #@! TF.FilePolarity,Negative*
%FSLAX46Y46*%
G04 Gerber Fmt 4.6, Leading zero omitted, Abs format (unit mm)*
G04 Created by KiCad (PCBNEW (5.1.0-0)) date 2019-04-29 17:32:57*
%MOMM*%
%LPD*%
G04 APERTURE LIST*
%ADD10C,0.100000*%
G04 APERTURE END LIST*
D10*
G36*
X140017000Y-125031000D02*
G01*
X138215000Y-125031000D01*
X138215000Y-123229000D01*
X140017000Y-123229000D01*
X140017000Y-125031000D01*
X140017000Y-125031000D01*
G37*
G36*
X136686442Y-123235518D02*
G01*
X136752627Y-123242037D01*
X136922466Y-123293557D01*
X137078991Y-123377222D01*
X137114729Y-123406552D01*
X137216186Y-123489814D01*
X137299448Y-123591271D01*
X137328778Y-123627009D01*
X137412443Y-123783534D01*
X137463963Y-123953373D01*
X137481359Y-124130000D01*
X137463963Y-124306627D01*
X137412443Y-124476466D01*
X137328778Y-124632991D01*
X137299448Y-124668729D01*
X137216186Y-124770186D01*
X137114729Y-124853448D01*
X137078991Y-124882778D01*
X136922466Y-124966443D01*
X136752627Y-125017963D01*
X136686443Y-125024481D01*
X136620260Y-125031000D01*
X136531740Y-125031000D01*
X136465557Y-125024481D01*
X136399373Y-125017963D01*
X136229534Y-124966443D01*
X136073009Y-124882778D01*
X136037271Y-124853448D01*
X135935814Y-124770186D01*
X135852552Y-124668729D01*
X135823222Y-124632991D01*
X135739557Y-124476466D01*
X135688037Y-124306627D01*
X135670641Y-124130000D01*
X135688037Y-123953373D01*
X135739557Y-123783534D01*
X135823222Y-123627009D01*
X135852552Y-123591271D01*
X135935814Y-123489814D01*
X136037271Y-123406552D01*
X136073009Y-123377222D01*
X136229534Y-123293557D01*
X136399373Y-123242037D01*
X136465558Y-123235518D01*
X136531740Y-123229000D01*
X136620260Y-123229000D01*
X136686442Y-123235518D01*
X136686442Y-123235518D01*
G37*
G36*
X146790000Y-124816000D02*
G01*
X145158000Y-124816000D01*
X145158000Y-123184000D01*
X146790000Y-123184000D01*
X146790000Y-124816000D01*
X146790000Y-124816000D01*
G37*
G36*
X103864000Y-124816000D02*
G01*
X102232000Y-124816000D01*
X102232000Y-123184000D01*
X103864000Y-123184000D01*
X103864000Y-124816000D01*
X103864000Y-124816000D01*
G37*
G36*
X139226442Y-120695518D02*
G01*
X139292627Y-120702037D01*
X139462466Y-120753557D01*
X139618991Y-120837222D01*
X139654729Y-120866552D01*
X139756186Y-120949814D01*
X139839448Y-121051271D01*
X139868778Y-121087009D01*
X139952443Y-121243534D01*
X140003963Y-121413373D01*
X140021359Y-121590000D01*
X140003963Y-121766627D01*
X139952443Y-121936466D01*
X139868778Y-122092991D01*
X139839448Y-122128729D01*
X139756186Y-122230186D01*
X139654729Y-122313448D01*
X139618991Y-122342778D01*
X139462466Y-122426443D01*
X139292627Y-122477963D01*
X139226442Y-122484482D01*
X139160260Y-122491000D01*
X139071740Y-122491000D01*
X139005558Y-122484482D01*
X138939373Y-122477963D01*
X138769534Y-122426443D01*
X138613009Y-122342778D01*
X138577271Y-122313448D01*
X138475814Y-122230186D01*
X138392552Y-122128729D01*
X138363222Y-122092991D01*
X138279557Y-121936466D01*
X138228037Y-121766627D01*
X138210641Y-121590000D01*
X138228037Y-121413373D01*
X138279557Y-121243534D01*
X138363222Y-121087009D01*
X138392552Y-121051271D01*
X138475814Y-120949814D01*
X138577271Y-120866552D01*
X138613009Y-120837222D01*
X138769534Y-120753557D01*
X138939373Y-120702037D01*
X139005558Y-120695518D01*
X139071740Y-120689000D01*
X139160260Y-120689000D01*
X139226442Y-120695518D01*
X139226442Y-120695518D01*
G37*
G36*
X136686442Y-120695518D02*
G01*
X136752627Y-120702037D01*
X136922466Y-120753557D01*
X137078991Y-120837222D01*
X137114729Y-120866552D01*
X137216186Y-120949814D01*
X137299448Y-121051271D01*
X137328778Y-121087009D01*
X137412443Y-121243534D01*
X137463963Y-121413373D01*
X137481359Y-121590000D01*
X137463963Y-121766627D01*
X137412443Y-121936466D01*
X137328778Y-122092991D01*
X137299448Y-122128729D01*
X137216186Y-122230186D01*
X137114729Y-122313448D01*
X137078991Y-122342778D01*
X136922466Y-122426443D01*
X136752627Y-122477963D01*
X136686442Y-122484482D01*
X136620260Y-122491000D01*
X136531740Y-122491000D01*
X136465558Y-122484482D01*
X136399373Y-122477963D01*
X136229534Y-122426443D01*
X136073009Y-122342778D01*
X136037271Y-122313448D01*
X135935814Y-122230186D01*
X135852552Y-122128729D01*
X135823222Y-122092991D01*
X135739557Y-121936466D01*
X135688037Y-121766627D01*
X135670641Y-121590000D01*
X135688037Y-121413373D01*
X135739557Y-121243534D01*
X135823222Y-121087009D01*
X135852552Y-121051271D01*
X135935814Y-120949814D01*
X136037271Y-120866552D01*
X136073009Y-120837222D01*
X136229534Y-120753557D01*
X136399373Y-120702037D01*
X136465558Y-120695518D01*
X136531740Y-120689000D01*
X136620260Y-120689000D01*
X136686442Y-120695518D01*
X136686442Y-120695518D01*
G37*
G36*
X146212017Y-120675358D02*
G01*
X146286270Y-120706115D01*
X146360521Y-120736870D01*
X146360522Y-120736871D01*
X146494167Y-120826169D01*
X146607831Y-120939833D01*
X146674804Y-121040067D01*
X146697130Y-121073479D01*
X146702734Y-121087009D01*
X146758642Y-121221983D01*
X146790000Y-121379630D01*
X146790000Y-121540370D01*
X146758642Y-121698017D01*
X146730223Y-121766627D01*
X146697130Y-121846521D01*
X146697129Y-121846522D01*
X146607831Y-121980167D01*
X146494167Y-122093831D01*
X146393933Y-122160805D01*
X146360521Y-122183130D01*
X146212017Y-122244642D01*
X146054370Y-122276000D01*
X145893630Y-122276000D01*
X145735983Y-122244642D01*
X145587479Y-122183130D01*
X145554067Y-122160805D01*
X145453833Y-122093831D01*
X145340169Y-121980167D01*
X145250871Y-121846522D01*
X145250870Y-121846521D01*
X145217777Y-121766627D01*
X145189358Y-121698017D01*
X145158000Y-121540370D01*
X145158000Y-121379630D01*
X145189358Y-121221983D01*
X145245266Y-121087009D01*
X145250870Y-121073479D01*
X145273196Y-121040067D01*
X145340169Y-120939833D01*
X145453833Y-120826169D01*
X145587478Y-120736871D01*
X145587479Y-120736870D01*
X145661730Y-120706115D01*
X145735983Y-120675358D01*
X145893630Y-120644000D01*
X146054370Y-120644000D01*
X146212017Y-120675358D01*
X146212017Y-120675358D01*
G37*
G36*
X103286017Y-120675358D02*
G01*
X103360270Y-120706115D01*
X103434521Y-120736870D01*
X103434522Y-120736871D01*
X103568167Y-120826169D01*
X103681831Y-120939833D01*
X103748804Y-121040067D01*
X103771130Y-121073479D01*
X103776734Y-121087009D01*
X103832642Y-121221983D01*
X103864000Y-121379630D01*
X103864000Y-121540370D01*
X103832642Y-121698017D01*
X103804223Y-121766627D01*
X103771130Y-121846521D01*
X103771129Y-121846522D01*
X103681831Y-121980167D01*
X103568167Y-122093831D01*
X103467933Y-122160805D01*
X103434521Y-122183130D01*
X103286017Y-122244642D01*
X103128370Y-122276000D01*
X102967630Y-122276000D01*
X102809983Y-122244642D01*
X102661479Y-122183130D01*
X102628067Y-122160805D01*
X102527833Y-122093831D01*
X102414169Y-121980167D01*
X102324871Y-121846522D01*
X102324870Y-121846521D01*
X102291777Y-121766627D01*
X102263358Y-121698017D01*
X102232000Y-121540370D01*
X102232000Y-121379630D01*
X102263358Y-121221983D01*
X102319266Y-121087009D01*
X102324870Y-121073479D01*
X102347196Y-121040067D01*
X102414169Y-120939833D01*
X102527833Y-120826169D01*
X102661478Y-120736871D01*
X102661479Y-120736870D01*
X102735730Y-120706115D01*
X102809983Y-120675358D01*
X102967630Y-120644000D01*
X103128370Y-120644000D01*
X103286017Y-120675358D01*
X103286017Y-120675358D01*
G37*
G36*
X139226443Y-118155519D02*
G01*
X139292627Y-118162037D01*
X139462466Y-118213557D01*
X139618991Y-118297222D01*
X139654729Y-118326552D01*
X139756186Y-118409814D01*
X139839448Y-118511271D01*
X139868778Y-118547009D01*
X139952443Y-118703534D01*
X140003963Y-118873373D01*
X140021359Y-119050000D01*
X140003963Y-119226627D01*
X139952443Y-119396466D01*
X139868778Y-119552991D01*
X139839448Y-119588729D01*
X139756186Y-119690186D01*
X139654729Y-119773448D01*
X139618991Y-119802778D01*
X139462466Y-119886443D01*
X139292627Y-119937963D01*
X139226442Y-119944482D01*
X139160260Y-119951000D01*
X139071740Y-119951000D01*
X139005558Y-119944482D01*
X138939373Y-119937963D01*
X138769534Y-119886443D01*
X138613009Y-119802778D01*
X138577271Y-119773448D01*
X138475814Y-119690186D01*
X138392552Y-119588729D01*
X138363222Y-119552991D01*
X138279557Y-119396466D01*
X138228037Y-119226627D01*
X138210641Y-119050000D01*
X138228037Y-118873373D01*
X138279557Y-118703534D01*
X138363222Y-118547009D01*
X138392552Y-118511271D01*
X138475814Y-118409814D01*
X138577271Y-118326552D01*
X138613009Y-118297222D01*
X138769534Y-118213557D01*
X138939373Y-118162037D01*
X139005557Y-118155519D01*
X139071740Y-118149000D01*
X139160260Y-118149000D01*
X139226443Y-118155519D01*
X139226443Y-118155519D01*
G37*
G36*
X136686443Y-118155519D02*
G01*
X136752627Y-118162037D01*
X136922466Y-118213557D01*
X137078991Y-118297222D01*
X137114729Y-118326552D01*
X137216186Y-118409814D01*
X137299448Y-118511271D01*
X137328778Y-118547009D01*
X137412443Y-118703534D01*
X137463963Y-118873373D01*
X137481359Y-119050000D01*
X137463963Y-119226627D01*
X137412443Y-119396466D01*
X137328778Y-119552991D01*
X137299448Y-119588729D01*
X137216186Y-119690186D01*
X137114729Y-119773448D01*
X137078991Y-119802778D01*
X136922466Y-119886443D01*
X136752627Y-119937963D01*
X136686442Y-119944482D01*
X136620260Y-119951000D01*
X136531740Y-119951000D01*
X136465558Y-119944482D01*
X136399373Y-119937963D01*
X136229534Y-119886443D01*
X136073009Y-119802778D01*
X136037271Y-119773448D01*
X135935814Y-119690186D01*
X135852552Y-119588729D01*
X135823222Y-119552991D01*
X135739557Y-119396466D01*
X135688037Y-119226627D01*
X135670641Y-119050000D01*
X135688037Y-118873373D01*
X135739557Y-118703534D01*
X135823222Y-118547009D01*
X135852552Y-118511271D01*
X135935814Y-118409814D01*
X136037271Y-118326552D01*
X136073009Y-118297222D01*
X136229534Y-118213557D01*
X136399373Y-118162037D01*
X136465557Y-118155519D01*
X136531740Y-118149000D01*
X136620260Y-118149000D01*
X136686443Y-118155519D01*
X136686443Y-118155519D01*
G37*
G36*
X146212017Y-118135358D02*
G01*
X146360521Y-118196870D01*
X146360522Y-118196871D01*
X146494167Y-118286169D01*
X146607831Y-118399833D01*
X146674805Y-118500067D01*
X146697130Y-118533479D01*
X146702734Y-118547009D01*
X146758642Y-118681983D01*
X146790000Y-118839630D01*
X146790000Y-119000370D01*
X146758642Y-119158017D01*
X146730223Y-119226627D01*
X146697130Y-119306521D01*
X146697129Y-119306522D01*
X146607831Y-119440167D01*
X146494167Y-119553831D01*
X146393933Y-119620804D01*
X146360521Y-119643130D01*
X146212017Y-119704642D01*
X146054370Y-119736000D01*
X145893630Y-119736000D01*
X145735983Y-119704642D01*
X145587479Y-119643130D01*
X145554067Y-119620804D01*
X145453833Y-119553831D01*
X145340169Y-119440167D01*
X145250871Y-119306522D01*
X145250870Y-119306521D01*
X145217777Y-119226627D01*
X145189358Y-119158017D01*
X145158000Y-119000370D01*
X145158000Y-118839630D01*
X145189358Y-118681983D01*
X145245266Y-118547009D01*
X145250870Y-118533479D01*
X145273195Y-118500067D01*
X145340169Y-118399833D01*
X145453833Y-118286169D01*
X145587478Y-118196871D01*
X145587479Y-118196870D01*
X145735983Y-118135358D01*
X145893630Y-118104000D01*
X146054370Y-118104000D01*
X146212017Y-118135358D01*
X146212017Y-118135358D01*
G37*
G36*
X103286017Y-118135358D02*
G01*
X103434521Y-118196870D01*
X103434522Y-118196871D01*
X103568167Y-118286169D01*
X103681831Y-118399833D01*
X103748805Y-118500067D01*
X103771130Y-118533479D01*
X103776734Y-118547009D01*
X103832642Y-118681983D01*
X103864000Y-118839630D01*
X103864000Y-119000370D01*
X103832642Y-119158017D01*
X103804223Y-119226627D01*
X103771130Y-119306521D01*
X103771129Y-119306522D01*
X103681831Y-119440167D01*
X103568167Y-119553831D01*
X103467933Y-119620804D01*
X103434521Y-119643130D01*
X103286017Y-119704642D01*
X103128370Y-119736000D01*
X102967630Y-119736000D01*
X102809983Y-119704642D01*
X102661479Y-119643130D01*
X102628067Y-119620804D01*
X102527833Y-119553831D01*
X102414169Y-119440167D01*
X102324871Y-119306522D01*
X102324870Y-119306521D01*
X102291777Y-119226627D01*
X102263358Y-119158017D01*
X102232000Y-119000370D01*
X102232000Y-118839630D01*
X102263358Y-118681983D01*
X102319266Y-118547009D01*
X102324870Y-118533479D01*
X102347195Y-118500067D01*
X102414169Y-118399833D01*
X102527833Y-118286169D01*
X102661478Y-118196871D01*
X102661479Y-118196870D01*
X102809983Y-118135358D01*
X102967630Y-118104000D01*
X103128370Y-118104000D01*
X103286017Y-118135358D01*
X103286017Y-118135358D01*
G37*
G36*
X146212017Y-115595358D02*
G01*
X146286270Y-115626115D01*
X146360521Y-115656870D01*
X146360522Y-115656871D01*
X146494167Y-115746169D01*
X146607831Y-115859833D01*
X146674805Y-115960067D01*
X146697130Y-115993479D01*
X146758642Y-116141983D01*
X146790000Y-116299630D01*
X146790000Y-116460370D01*
X146758642Y-116618017D01*
X146727885Y-116692270D01*
X146697130Y-116766521D01*
X146697129Y-116766522D01*
X146607831Y-116900167D01*
X146494167Y-117013831D01*
X146393933Y-117080805D01*
X146360521Y-117103130D01*
X146212017Y-117164642D01*
X146054370Y-117196000D01*
X145893630Y-117196000D01*
X145735983Y-117164642D01*
X145587479Y-117103130D01*
X145554067Y-117080805D01*
X145453833Y-117013831D01*
X145340169Y-116900167D01*
X145250871Y-116766522D01*
X145250870Y-116766521D01*
X145220115Y-116692270D01*
X145189358Y-116618017D01*
X145158000Y-116460370D01*
X145158000Y-116299630D01*
X145189358Y-116141983D01*
X145250870Y-115993479D01*
X145273195Y-115960067D01*
X145340169Y-115859833D01*
X145453833Y-115746169D01*
X145587478Y-115656871D01*
X145587479Y-115656870D01*
X145661730Y-115626115D01*
X145735983Y-115595358D01*
X145893630Y-115564000D01*
X146054370Y-115564000D01*
X146212017Y-115595358D01*
X146212017Y-115595358D01*
G37*
G36*
X103286017Y-115595358D02*
G01*
X103360270Y-115626115D01*
X103434521Y-115656870D01*
X103434522Y-115656871D01*
X103568167Y-115746169D01*
X103681831Y-115859833D01*
X103748805Y-115960067D01*
X103771130Y-115993479D01*
X103801885Y-116067730D01*
X103832642Y-116141983D01*
X103864000Y-116299630D01*
X103864000Y-116460370D01*
X103832642Y-116618017D01*
X103801885Y-116692270D01*
X103771130Y-116766521D01*
X103771129Y-116766522D01*
X103681831Y-116900167D01*
X103568167Y-117013831D01*
X103467933Y-117080805D01*
X103434521Y-117103130D01*
X103286017Y-117164642D01*
X103128370Y-117196000D01*
X102967630Y-117196000D01*
X102809983Y-117164642D01*
X102661479Y-117103130D01*
X102628067Y-117080805D01*
X102527833Y-117013831D01*
X102414169Y-116900167D01*
X102324871Y-116766522D01*
X102324870Y-116766521D01*
X102294115Y-116692270D01*
X102263358Y-116618017D01*
X102232000Y-116460370D01*
X102232000Y-116299630D01*
X102263358Y-116141983D01*
X102324870Y-115993479D01*
X102347195Y-115960067D01*
X102414169Y-115859833D01*
X102527833Y-115746169D01*
X102661478Y-115656871D01*
X102661479Y-115656870D01*
X102735730Y-115626115D01*
X102809983Y-115595358D01*
X102967630Y-115564000D01*
X103128370Y-115564000D01*
X103286017Y-115595358D01*
X103286017Y-115595358D01*
G37*
G36*
X135383600Y-112056989D02*
G01*
X135416652Y-112067015D01*
X135447103Y-112083292D01*
X135473799Y-112105201D01*
X135495708Y-112131897D01*
X135511985Y-112162348D01*
X135522011Y-112195400D01*
X135526000Y-112235903D01*
X135526000Y-113672097D01*
X135522011Y-113712600D01*
X135511985Y-113745652D01*
X135495708Y-113776103D01*
X135473799Y-113802799D01*
X135447103Y-113824708D01*
X135416652Y-113840985D01*
X135383600Y-113851011D01*
X135343097Y-113855000D01*
X133656903Y-113855000D01*
X133616400Y-113851011D01*
X133583348Y-113840985D01*
X133552897Y-113824708D01*
X133526201Y-113802799D01*
X133504292Y-113776103D01*
X133488015Y-113745652D01*
X133477989Y-113712600D01*
X133474000Y-113672097D01*
X133474000Y-112235903D01*
X133477989Y-112195400D01*
X133488015Y-112162348D01*
X133504292Y-112131897D01*
X133526201Y-112105201D01*
X133552897Y-112083292D01*
X133583348Y-112067015D01*
X133616400Y-112056989D01*
X133656903Y-112053000D01*
X135343097Y-112053000D01*
X135383600Y-112056989D01*
X135383600Y-112056989D01*
G37*
G36*
X115361600Y-112056989D02*
G01*
X115394652Y-112067015D01*
X115425103Y-112083292D01*
X115451799Y-112105201D01*
X115473708Y-112131897D01*
X115489985Y-112162348D01*
X115500011Y-112195400D01*
X115504000Y-112235903D01*
X115504000Y-113672097D01*
X115500011Y-113712600D01*
X115489985Y-113745652D01*
X115473708Y-113776103D01*
X115451799Y-113802799D01*
X115425103Y-113824708D01*
X115394652Y-113840985D01*
X115361600Y-113851011D01*
X115321097Y-113855000D01*
X113634903Y-113855000D01*
X113594400Y-113851011D01*
X113561348Y-113840985D01*
X113530897Y-113824708D01*
X113504201Y-113802799D01*
X113482292Y-113776103D01*
X113466015Y-113745652D01*
X113455989Y-113712600D01*
X113452000Y-113672097D01*
X113452000Y-112235903D01*
X113455989Y-112195400D01*
X113466015Y-112162348D01*
X113482292Y-112131897D01*
X113504201Y-112105201D01*
X113530897Y-112083292D01*
X113561348Y-112067015D01*
X113594400Y-112056989D01*
X113634903Y-112053000D01*
X115321097Y-112053000D01*
X115361600Y-112056989D01*
X115361600Y-112056989D01*
G37*
G36*
X144179142Y-109886242D02*
G01*
X144327101Y-109947529D01*
X144460255Y-110036499D01*
X144573501Y-110149745D01*
X144662471Y-110282899D01*
X144723758Y-110430858D01*
X144755000Y-110587925D01*
X144755000Y-110748075D01*
X144723758Y-110905142D01*
X144662471Y-111053101D01*
X144573501Y-111186255D01*
X144460255Y-111299501D01*
X144327101Y-111388471D01*
X144179142Y-111449758D01*
X144022075Y-111481000D01*
X143861925Y-111481000D01*
X143704858Y-111449758D01*
X143556899Y-111388471D01*
X143423745Y-111299501D01*
X143310499Y-111186255D01*
X143221529Y-111053101D01*
X143160242Y-110905142D01*
X143129000Y-110748075D01*
X143129000Y-110587925D01*
X143160242Y-110430858D01*
X143221529Y-110282899D01*
X143310499Y-110149745D01*
X143423745Y-110036499D01*
X143556899Y-109947529D01*
X143704858Y-109886242D01*
X143861925Y-109855000D01*
X144022075Y-109855000D01*
X144179142Y-109886242D01*
X144179142Y-109886242D01*
G37*
G36*
X147295000Y-111481000D02*
G01*
X145669000Y-111481000D01*
X145669000Y-109855000D01*
X147295000Y-109855000D01*
X147295000Y-111481000D01*
X147295000Y-111481000D01*
G37*
G36*
X103285142Y-109886242D02*
G01*
X103433101Y-109947529D01*
X103566255Y-110036499D01*
X103679501Y-110149745D01*
X103768471Y-110282899D01*
X103829758Y-110430858D01*
X103861000Y-110587925D01*
X103861000Y-110748075D01*
X103829758Y-110905142D01*
X103768471Y-111053101D01*
X103679501Y-111186255D01*
X103566255Y-111299501D01*
X103433101Y-111388471D01*
X103285142Y-111449758D01*
X103128075Y-111481000D01*
X102967925Y-111481000D01*
X102810858Y-111449758D01*
X102662899Y-111388471D01*
X102529745Y-111299501D01*
X102416499Y-111186255D01*
X102327529Y-111053101D01*
X102266242Y-110905142D01*
X102235000Y-110748075D01*
X102235000Y-110587925D01*
X102266242Y-110430858D01*
X102327529Y-110282899D01*
X102416499Y-110149745D01*
X102529745Y-110036499D01*
X102662899Y-109947529D01*
X102810858Y-109886242D01*
X102967925Y-109855000D01*
X103128075Y-109855000D01*
X103285142Y-109886242D01*
X103285142Y-109886242D01*
G37*
G36*
X108941000Y-111481000D02*
G01*
X107315000Y-111481000D01*
X107315000Y-109855000D01*
X108941000Y-109855000D01*
X108941000Y-111481000D01*
X108941000Y-111481000D01*
G37*
G36*
X105825142Y-109886242D02*
G01*
X105973101Y-109947529D01*
X106106255Y-110036499D01*
X106219501Y-110149745D01*
X106308471Y-110282899D01*
X106369758Y-110430858D01*
X106401000Y-110587925D01*
X106401000Y-110748075D01*
X106369758Y-110905142D01*
X106308471Y-111053101D01*
X106219501Y-111186255D01*
X106106255Y-111299501D01*
X105973101Y-111388471D01*
X105825142Y-111449758D01*
X105668075Y-111481000D01*
X105507925Y-111481000D01*
X105350858Y-111449758D01*
X105202899Y-111388471D01*
X105069745Y-111299501D01*
X104956499Y-111186255D01*
X104867529Y-111053101D01*
X104806242Y-110905142D01*
X104775000Y-110748075D01*
X104775000Y-110587925D01*
X104806242Y-110430858D01*
X104867529Y-110282899D01*
X104956499Y-110149745D01*
X105069745Y-110036499D01*
X105202899Y-109947529D01*
X105350858Y-109886242D01*
X105507925Y-109855000D01*
X105668075Y-109855000D01*
X105825142Y-109886242D01*
X105825142Y-109886242D01*
G37*
G36*
X141639142Y-109886242D02*
G01*
X141787101Y-109947529D01*
X141920255Y-110036499D01*
X142033501Y-110149745D01*
X142122471Y-110282899D01*
X142183758Y-110430858D01*
X142215000Y-110587925D01*
X142215000Y-110748075D01*
X142183758Y-110905142D01*
X142122471Y-111053101D01*
X142033501Y-111186255D01*
X141920255Y-111299501D01*
X141787101Y-111388471D01*
X141639142Y-111449758D01*
X141482075Y-111481000D01*
X141321925Y-111481000D01*
X141164858Y-111449758D01*
X141016899Y-111388471D01*
X140883745Y-111299501D01*
X140770499Y-111186255D01*
X140681529Y-111053101D01*
X140620242Y-110905142D01*
X140589000Y-110748075D01*
X140589000Y-110587925D01*
X140620242Y-110430858D01*
X140681529Y-110282899D01*
X140770499Y-110149745D01*
X140883745Y-110036499D01*
X141016899Y-109947529D01*
X141164858Y-109886242D01*
X141321925Y-109855000D01*
X141482075Y-109855000D01*
X141639142Y-109886242D01*
X141639142Y-109886242D01*
G37*
G36*
X114713443Y-109559519D02*
G01*
X114779627Y-109566037D01*
X114949466Y-109617557D01*
X115105991Y-109701222D01*
X115141729Y-109730552D01*
X115243186Y-109813814D01*
X115302625Y-109886242D01*
X115355778Y-109951009D01*
X115439443Y-110107534D01*
X115490963Y-110277373D01*
X115508359Y-110454000D01*
X115490963Y-110630627D01*
X115439443Y-110800466D01*
X115355778Y-110956991D01*
X115326448Y-110992729D01*
X115243186Y-111094186D01*
X115141729Y-111177448D01*
X115105991Y-111206778D01*
X114949466Y-111290443D01*
X114779627Y-111341963D01*
X114713442Y-111348482D01*
X114647260Y-111355000D01*
X114308740Y-111355000D01*
X114242558Y-111348482D01*
X114176373Y-111341963D01*
X114006534Y-111290443D01*
X113850009Y-111206778D01*
X113814271Y-111177448D01*
X113712814Y-111094186D01*
X113629552Y-110992729D01*
X113600222Y-110956991D01*
X113516557Y-110800466D01*
X113465037Y-110630627D01*
X113447641Y-110454000D01*
X113465037Y-110277373D01*
X113516557Y-110107534D01*
X113600222Y-109951009D01*
X113653375Y-109886242D01*
X113712814Y-109813814D01*
X113814271Y-109730552D01*
X113850009Y-109701222D01*
X114006534Y-109617557D01*
X114176373Y-109566037D01*
X114242557Y-109559519D01*
X114308740Y-109553000D01*
X114647260Y-109553000D01*
X114713443Y-109559519D01*
X114713443Y-109559519D01*
G37*
G36*
X134735443Y-109559519D02*
G01*
X134801627Y-109566037D01*
X134971466Y-109617557D01*
X135127991Y-109701222D01*
X135163729Y-109730552D01*
X135265186Y-109813814D01*
X135324625Y-109886242D01*
X135377778Y-109951009D01*
X135461443Y-110107534D01*
X135512963Y-110277373D01*
X135530359Y-110454000D01*
X135512963Y-110630627D01*
X135461443Y-110800466D01*
X135377778Y-110956991D01*
X135348448Y-110992729D01*
X135265186Y-111094186D01*
X135163729Y-111177448D01*
X135127991Y-111206778D01*
X134971466Y-111290443D01*
X134801627Y-111341963D01*
X134735442Y-111348482D01*
X134669260Y-111355000D01*
X134330740Y-111355000D01*
X134264558Y-111348482D01*
X134198373Y-111341963D01*
X134028534Y-111290443D01*
X133872009Y-111206778D01*
X133836271Y-111177448D01*
X133734814Y-111094186D01*
X133651552Y-110992729D01*
X133622222Y-110956991D01*
X133538557Y-110800466D01*
X133487037Y-110630627D01*
X133469641Y-110454000D01*
X133487037Y-110277373D01*
X133538557Y-110107534D01*
X133622222Y-109951009D01*
X133675375Y-109886242D01*
X133734814Y-109813814D01*
X133836271Y-109730552D01*
X133872009Y-109701222D01*
X134028534Y-109617557D01*
X134198373Y-109566037D01*
X134264557Y-109559519D01*
X134330740Y-109553000D01*
X134669260Y-109553000D01*
X134735443Y-109559519D01*
X134735443Y-109559519D01*
G37*
G36*
X134735443Y-107059519D02*
G01*
X134801627Y-107066037D01*
X134971466Y-107117557D01*
X135127991Y-107201222D01*
X135163729Y-107230552D01*
X135265186Y-107313814D01*
X135348448Y-107415271D01*
X135377778Y-107451009D01*
X135461443Y-107607534D01*
X135512963Y-107777373D01*
X135530359Y-107954000D01*
X135512963Y-108130627D01*
X135461443Y-108300466D01*
X135377778Y-108456991D01*
X135348448Y-108492729D01*
X135265186Y-108594186D01*
X135163729Y-108677448D01*
X135127991Y-108706778D01*
X134971466Y-108790443D01*
X134801627Y-108841963D01*
X134735443Y-108848481D01*
X134669260Y-108855000D01*
X134330740Y-108855000D01*
X134264557Y-108848481D01*
X134198373Y-108841963D01*
X134028534Y-108790443D01*
X133872009Y-108706778D01*
X133836271Y-108677448D01*
X133734814Y-108594186D01*
X133651552Y-108492729D01*
X133622222Y-108456991D01*
X133538557Y-108300466D01*
X133487037Y-108130627D01*
X133469641Y-107954000D01*
X133487037Y-107777373D01*
X133538557Y-107607534D01*
X133622222Y-107451009D01*
X133651552Y-107415271D01*
X133734814Y-107313814D01*
X133836271Y-107230552D01*
X133872009Y-107201222D01*
X134028534Y-107117557D01*
X134198373Y-107066037D01*
X134264557Y-107059519D01*
X134330740Y-107053000D01*
X134669260Y-107053000D01*
X134735443Y-107059519D01*
X134735443Y-107059519D01*
G37*
G36*
X114713443Y-107059519D02*
G01*
X114779627Y-107066037D01*
X114949466Y-107117557D01*
X115105991Y-107201222D01*
X115141729Y-107230552D01*
X115243186Y-107313814D01*
X115326448Y-107415271D01*
X115355778Y-107451009D01*
X115439443Y-107607534D01*
X115490963Y-107777373D01*
X115508359Y-107954000D01*
X115490963Y-108130627D01*
X115439443Y-108300466D01*
X115355778Y-108456991D01*
X115326448Y-108492729D01*
X115243186Y-108594186D01*
X115141729Y-108677448D01*
X115105991Y-108706778D01*
X114949466Y-108790443D01*
X114779627Y-108841963D01*
X114713443Y-108848481D01*
X114647260Y-108855000D01*
X114308740Y-108855000D01*
X114242557Y-108848481D01*
X114176373Y-108841963D01*
X114006534Y-108790443D01*
X113850009Y-108706778D01*
X113814271Y-108677448D01*
X113712814Y-108594186D01*
X113629552Y-108492729D01*
X113600222Y-108456991D01*
X113516557Y-108300466D01*
X113465037Y-108130627D01*
X113447641Y-107954000D01*
X113465037Y-107777373D01*
X113516557Y-107607534D01*
X113600222Y-107451009D01*
X113629552Y-107415271D01*
X113712814Y-107313814D01*
X113814271Y-107230552D01*
X113850009Y-107201222D01*
X114006534Y-107117557D01*
X114176373Y-107066037D01*
X114242557Y-107059519D01*
X114308740Y-107053000D01*
X114647260Y-107053000D01*
X114713443Y-107059519D01*
X114713443Y-107059519D01*
G37*
G36*
X114713443Y-104559519D02*
G01*
X114779627Y-104566037D01*
X114949466Y-104617557D01*
X115105991Y-104701222D01*
X115141729Y-104730552D01*
X115243186Y-104813814D01*
X115326448Y-104915271D01*
X115355778Y-104951009D01*
X115439443Y-105107534D01*
X115490963Y-105277373D01*
X115508359Y-105454000D01*
X115490963Y-105630627D01*
X115439443Y-105800466D01*
X115355778Y-105956991D01*
X115326448Y-105992729D01*
X115243186Y-106094186D01*
X115141729Y-106177448D01*
X115105991Y-106206778D01*
X114949466Y-106290443D01*
X114779627Y-106341963D01*
X114713443Y-106348481D01*
X114647260Y-106355000D01*
X114308740Y-106355000D01*
X114242557Y-106348481D01*
X114176373Y-106341963D01*
X114006534Y-106290443D01*
X113850009Y-106206778D01*
X113814271Y-106177448D01*
X113712814Y-106094186D01*
X113629552Y-105992729D01*
X113600222Y-105956991D01*
X113516557Y-105800466D01*
X113465037Y-105630627D01*
X113447641Y-105454000D01*
X113465037Y-105277373D01*
X113516557Y-105107534D01*
X113600222Y-104951009D01*
X113629552Y-104915271D01*
X113712814Y-104813814D01*
X113814271Y-104730552D01*
X113850009Y-104701222D01*
X114006534Y-104617557D01*
X114176373Y-104566037D01*
X114242557Y-104559519D01*
X114308740Y-104553000D01*
X114647260Y-104553000D01*
X114713443Y-104559519D01*
X114713443Y-104559519D01*
G37*
G36*
X134735443Y-104559519D02*
G01*
X134801627Y-104566037D01*
X134971466Y-104617557D01*
X135127991Y-104701222D01*
X135163729Y-104730552D01*
X135265186Y-104813814D01*
X135348448Y-104915271D01*
X135377778Y-104951009D01*
X135461443Y-105107534D01*
X135512963Y-105277373D01*
X135530359Y-105454000D01*
X135512963Y-105630627D01*
X135461443Y-105800466D01*
X135377778Y-105956991D01*
X135348448Y-105992729D01*
X135265186Y-106094186D01*
X135163729Y-106177448D01*
X135127991Y-106206778D01*
X134971466Y-106290443D01*
X134801627Y-106341963D01*
X134735443Y-106348481D01*
X134669260Y-106355000D01*
X134330740Y-106355000D01*
X134264557Y-106348481D01*
X134198373Y-106341963D01*
X134028534Y-106290443D01*
X133872009Y-106206778D01*
X133836271Y-106177448D01*
X133734814Y-106094186D01*
X133651552Y-105992729D01*
X133622222Y-105956991D01*
X133538557Y-105800466D01*
X133487037Y-105630627D01*
X133469641Y-105454000D01*
X133487037Y-105277373D01*
X133538557Y-105107534D01*
X133622222Y-104951009D01*
X133651552Y-104915271D01*
X133734814Y-104813814D01*
X133836271Y-104730552D01*
X133872009Y-104701222D01*
X134028534Y-104617557D01*
X134198373Y-104566037D01*
X134264557Y-104559519D01*
X134330740Y-104553000D01*
X134669260Y-104553000D01*
X134735443Y-104559519D01*
X134735443Y-104559519D01*
G37*
G36*
X134735442Y-102059518D02*
G01*
X134801627Y-102066037D01*
X134971466Y-102117557D01*
X135127991Y-102201222D01*
X135163729Y-102230552D01*
X135265186Y-102313814D01*
X135348448Y-102415271D01*
X135377778Y-102451009D01*
X135461443Y-102607534D01*
X135512963Y-102777373D01*
X135530359Y-102954000D01*
X135512963Y-103130627D01*
X135461443Y-103300466D01*
X135377778Y-103456991D01*
X135348448Y-103492729D01*
X135265186Y-103594186D01*
X135163729Y-103677448D01*
X135127991Y-103706778D01*
X134971466Y-103790443D01*
X134801627Y-103841963D01*
X134735443Y-103848481D01*
X134669260Y-103855000D01*
X134330740Y-103855000D01*
X134264557Y-103848481D01*
X134198373Y-103841963D01*
X134028534Y-103790443D01*
X133872009Y-103706778D01*
X133836271Y-103677448D01*
X133734814Y-103594186D01*
X133651552Y-103492729D01*
X133622222Y-103456991D01*
X133538557Y-103300466D01*
X133487037Y-103130627D01*
X133469641Y-102954000D01*
X133487037Y-102777373D01*
X133538557Y-102607534D01*
X133622222Y-102451009D01*
X133651552Y-102415271D01*
X133734814Y-102313814D01*
X133836271Y-102230552D01*
X133872009Y-102201222D01*
X134028534Y-102117557D01*
X134198373Y-102066037D01*
X134264557Y-102059519D01*
X134330740Y-102053000D01*
X134669260Y-102053000D01*
X134735442Y-102059518D01*
X134735442Y-102059518D01*
G37*
G36*
X114713442Y-102059518D02*
G01*
X114779627Y-102066037D01*
X114949466Y-102117557D01*
X115105991Y-102201222D01*
X115141729Y-102230552D01*
X115243186Y-102313814D01*
X115326448Y-102415271D01*
X115355778Y-102451009D01*
X115439443Y-102607534D01*
X115490963Y-102777373D01*
X115508359Y-102954000D01*
X115490963Y-103130627D01*
X115439443Y-103300466D01*
X115355778Y-103456991D01*
X115326448Y-103492729D01*
X115243186Y-103594186D01*
X115141729Y-103677448D01*
X115105991Y-103706778D01*
X114949466Y-103790443D01*
X114779627Y-103841963D01*
X114713443Y-103848481D01*
X114647260Y-103855000D01*
X114308740Y-103855000D01*
X114242557Y-103848481D01*
X114176373Y-103841963D01*
X114006534Y-103790443D01*
X113850009Y-103706778D01*
X113814271Y-103677448D01*
X113712814Y-103594186D01*
X113629552Y-103492729D01*
X113600222Y-103456991D01*
X113516557Y-103300466D01*
X113465037Y-103130627D01*
X113447641Y-102954000D01*
X113465037Y-102777373D01*
X113516557Y-102607534D01*
X113600222Y-102451009D01*
X113629552Y-102415271D01*
X113712814Y-102313814D01*
X113814271Y-102230552D01*
X113850009Y-102201222D01*
X114006534Y-102117557D01*
X114176373Y-102066037D01*
X114242557Y-102059519D01*
X114308740Y-102053000D01*
X114647260Y-102053000D01*
X114713442Y-102059518D01*
X114713442Y-102059518D01*
G37*
M02*
