G04 #@! TF.GenerationSoftware,KiCad,Pcbnew,(5.1.0-0)*
G04 #@! TF.CreationDate,2019-04-29T17:32:57-05:00*
G04 #@! TF.ProjectId,splitflap-pcb,73706c69-7466-46c6-9170-2d7063622e6b,rev?*
G04 #@! TF.SameCoordinates,Original*
G04 #@! TF.FileFunction,Legend,Top*
G04 #@! TF.FilePolarity,Positive*
%FSLAX46Y46*%
G04 Gerber Fmt 4.6, Leading zero omitted, Abs format (unit mm)*
G04 Created by KiCad (PCBNEW (5.1.0-0)) date 2019-04-29 17:32:57*
%MOMM*%
%LPD*%
G04 APERTURE LIST*
%ADD10C,0.125000*%
%ADD11C,0.120000*%
%ADD12C,0.150000*%
%ADD13C,0.127000*%
%ADD14C,0.300000*%
%ADD15C,0.152400*%
G04 APERTURE END LIST*
D10*
X143152190Y-121244571D02*
X143152190Y-121530285D01*
X143152190Y-121387428D02*
X142652190Y-121387428D01*
X142723619Y-121435047D01*
X142771238Y-121482666D01*
X142795047Y-121530285D01*
X142699809Y-121054095D02*
X142676000Y-121030285D01*
X142652190Y-120982666D01*
X142652190Y-120863619D01*
X142676000Y-120816000D01*
X142699809Y-120792190D01*
X142747428Y-120768380D01*
X142795047Y-120768380D01*
X142866476Y-120792190D01*
X143152190Y-121077904D01*
X143152190Y-120768380D01*
X142652190Y-120625523D02*
X143152190Y-120458857D01*
X142652190Y-120292190D01*
X142628380Y-119768380D02*
X143271238Y-120196952D01*
X143152190Y-119601714D02*
X142652190Y-119601714D01*
X142699809Y-119387428D02*
X142676000Y-119363619D01*
X142652190Y-119316000D01*
X142652190Y-119196952D01*
X142676000Y-119149333D01*
X142699809Y-119125523D01*
X142747428Y-119101714D01*
X142795047Y-119101714D01*
X142866476Y-119125523D01*
X143152190Y-119411238D01*
X143152190Y-119101714D01*
X143104571Y-118601714D02*
X143128380Y-118625523D01*
X143152190Y-118696952D01*
X143152190Y-118744571D01*
X143128380Y-118816000D01*
X143080761Y-118863619D01*
X143033142Y-118887428D01*
X142937904Y-118911238D01*
X142866476Y-118911238D01*
X142771238Y-118887428D01*
X142723619Y-118863619D01*
X142676000Y-118816000D01*
X142652190Y-118744571D01*
X142652190Y-118696952D01*
X142676000Y-118625523D01*
X142699809Y-118601714D01*
X107084190Y-121244571D02*
X107084190Y-121530285D01*
X107084190Y-121387428D02*
X106584190Y-121387428D01*
X106655619Y-121435047D01*
X106703238Y-121482666D01*
X106727047Y-121530285D01*
X106631809Y-121054095D02*
X106608000Y-121030285D01*
X106584190Y-120982666D01*
X106584190Y-120863619D01*
X106608000Y-120816000D01*
X106631809Y-120792190D01*
X106679428Y-120768380D01*
X106727047Y-120768380D01*
X106798476Y-120792190D01*
X107084190Y-121077904D01*
X107084190Y-120768380D01*
X106584190Y-120625523D02*
X107084190Y-120458857D01*
X106584190Y-120292190D01*
X106560380Y-119768380D02*
X107203238Y-120196952D01*
X107084190Y-119601714D02*
X106584190Y-119601714D01*
X106631809Y-119387428D02*
X106608000Y-119363619D01*
X106584190Y-119316000D01*
X106584190Y-119196952D01*
X106608000Y-119149333D01*
X106631809Y-119125523D01*
X106679428Y-119101714D01*
X106727047Y-119101714D01*
X106798476Y-119125523D01*
X107084190Y-119411238D01*
X107084190Y-119101714D01*
X107036571Y-118601714D02*
X107060380Y-118625523D01*
X107084190Y-118696952D01*
X107084190Y-118744571D01*
X107060380Y-118816000D01*
X107012761Y-118863619D01*
X106965142Y-118887428D01*
X106869904Y-118911238D01*
X106798476Y-118911238D01*
X106703238Y-118887428D01*
X106655619Y-118863619D01*
X106608000Y-118816000D01*
X106584190Y-118744571D01*
X106584190Y-118696952D01*
X106608000Y-118625523D01*
X106631809Y-118601714D01*
X109854666Y-125380190D02*
X109616571Y-125380190D01*
X109592761Y-125618285D01*
X109616571Y-125594476D01*
X109664190Y-125570666D01*
X109783238Y-125570666D01*
X109830857Y-125594476D01*
X109854666Y-125618285D01*
X109878476Y-125665904D01*
X109878476Y-125784952D01*
X109854666Y-125832571D01*
X109830857Y-125856380D01*
X109783238Y-125880190D01*
X109664190Y-125880190D01*
X109616571Y-125856380D01*
X109592761Y-125832571D01*
X110021333Y-125380190D02*
X110188000Y-125880190D01*
X110354666Y-125380190D01*
X111188000Y-125880190D02*
X111021333Y-125642095D01*
X110902285Y-125880190D02*
X110902285Y-125380190D01*
X111092761Y-125380190D01*
X111140380Y-125404000D01*
X111164190Y-125427809D01*
X111188000Y-125475428D01*
X111188000Y-125546857D01*
X111164190Y-125594476D01*
X111140380Y-125618285D01*
X111092761Y-125642095D01*
X110902285Y-125642095D01*
X111592761Y-125856380D02*
X111545142Y-125880190D01*
X111449904Y-125880190D01*
X111402285Y-125856380D01*
X111378476Y-125808761D01*
X111378476Y-125618285D01*
X111402285Y-125570666D01*
X111449904Y-125546857D01*
X111545142Y-125546857D01*
X111592761Y-125570666D01*
X111616571Y-125618285D01*
X111616571Y-125665904D01*
X111378476Y-125713523D01*
X112045142Y-125546857D02*
X112045142Y-125951619D01*
X112021333Y-125999238D01*
X111997523Y-126023047D01*
X111949904Y-126046857D01*
X111878476Y-126046857D01*
X111830857Y-126023047D01*
X112045142Y-125856380D02*
X111997523Y-125880190D01*
X111902285Y-125880190D01*
X111854666Y-125856380D01*
X111830857Y-125832571D01*
X111807047Y-125784952D01*
X111807047Y-125642095D01*
X111830857Y-125594476D01*
X111854666Y-125570666D01*
X111902285Y-125546857D01*
X111997523Y-125546857D01*
X112045142Y-125570666D01*
X112497523Y-125546857D02*
X112497523Y-125880190D01*
X112283238Y-125546857D02*
X112283238Y-125808761D01*
X112307047Y-125856380D01*
X112354666Y-125880190D01*
X112426095Y-125880190D01*
X112473714Y-125856380D01*
X112497523Y-125832571D01*
X112807047Y-125880190D02*
X112759428Y-125856380D01*
X112735619Y-125808761D01*
X112735619Y-125380190D01*
X113211809Y-125880190D02*
X113211809Y-125618285D01*
X113188000Y-125570666D01*
X113140380Y-125546857D01*
X113045142Y-125546857D01*
X112997523Y-125570666D01*
X113211809Y-125856380D02*
X113164190Y-125880190D01*
X113045142Y-125880190D01*
X112997523Y-125856380D01*
X112973714Y-125808761D01*
X112973714Y-125761142D01*
X112997523Y-125713523D01*
X113045142Y-125689714D01*
X113164190Y-125689714D01*
X113211809Y-125665904D01*
X113378476Y-125546857D02*
X113568952Y-125546857D01*
X113449904Y-125380190D02*
X113449904Y-125808761D01*
X113473714Y-125856380D01*
X113521333Y-125880190D01*
X113568952Y-125880190D01*
X113807047Y-125880190D02*
X113759428Y-125856380D01*
X113735619Y-125832571D01*
X113711809Y-125784952D01*
X113711809Y-125642095D01*
X113735619Y-125594476D01*
X113759428Y-125570666D01*
X113807047Y-125546857D01*
X113878476Y-125546857D01*
X113926095Y-125570666D01*
X113949904Y-125594476D01*
X113973714Y-125642095D01*
X113973714Y-125784952D01*
X113949904Y-125832571D01*
X113926095Y-125856380D01*
X113878476Y-125880190D01*
X113807047Y-125880190D01*
X114188000Y-125880190D02*
X114188000Y-125546857D01*
X114188000Y-125642095D02*
X114211809Y-125594476D01*
X114235619Y-125570666D01*
X114283238Y-125546857D01*
X114330857Y-125546857D01*
X108838571Y-102488380D02*
X108910000Y-102512190D01*
X109029047Y-102512190D01*
X109076666Y-102488380D01*
X109100476Y-102464571D01*
X109124285Y-102416952D01*
X109124285Y-102369333D01*
X109100476Y-102321714D01*
X109076666Y-102297904D01*
X109029047Y-102274095D01*
X108933809Y-102250285D01*
X108886190Y-102226476D01*
X108862380Y-102202666D01*
X108838571Y-102155047D01*
X108838571Y-102107428D01*
X108862380Y-102059809D01*
X108886190Y-102036000D01*
X108933809Y-102012190D01*
X109052857Y-102012190D01*
X109124285Y-102036000D01*
X109267142Y-102178857D02*
X109457619Y-102178857D01*
X109338571Y-102012190D02*
X109338571Y-102440761D01*
X109362380Y-102488380D01*
X109410000Y-102512190D01*
X109457619Y-102512190D01*
X109814761Y-102488380D02*
X109767142Y-102512190D01*
X109671904Y-102512190D01*
X109624285Y-102488380D01*
X109600476Y-102440761D01*
X109600476Y-102250285D01*
X109624285Y-102202666D01*
X109671904Y-102178857D01*
X109767142Y-102178857D01*
X109814761Y-102202666D01*
X109838571Y-102250285D01*
X109838571Y-102297904D01*
X109600476Y-102345523D01*
X110052857Y-102178857D02*
X110052857Y-102678857D01*
X110052857Y-102202666D02*
X110100476Y-102178857D01*
X110195714Y-102178857D01*
X110243333Y-102202666D01*
X110267142Y-102226476D01*
X110290952Y-102274095D01*
X110290952Y-102416952D01*
X110267142Y-102464571D01*
X110243333Y-102488380D01*
X110195714Y-102512190D01*
X110100476Y-102512190D01*
X110052857Y-102488380D01*
X110505238Y-102178857D02*
X110505238Y-102678857D01*
X110505238Y-102202666D02*
X110552857Y-102178857D01*
X110648095Y-102178857D01*
X110695714Y-102202666D01*
X110719523Y-102226476D01*
X110743333Y-102274095D01*
X110743333Y-102416952D01*
X110719523Y-102464571D01*
X110695714Y-102488380D01*
X110648095Y-102512190D01*
X110552857Y-102512190D01*
X110505238Y-102488380D01*
X111148095Y-102488380D02*
X111100476Y-102512190D01*
X111005238Y-102512190D01*
X110957619Y-102488380D01*
X110933809Y-102440761D01*
X110933809Y-102250285D01*
X110957619Y-102202666D01*
X111005238Y-102178857D01*
X111100476Y-102178857D01*
X111148095Y-102202666D01*
X111171904Y-102250285D01*
X111171904Y-102297904D01*
X110933809Y-102345523D01*
X111386190Y-102512190D02*
X111386190Y-102178857D01*
X111386190Y-102274095D02*
X111410000Y-102226476D01*
X111433809Y-102202666D01*
X111481428Y-102178857D01*
X111529047Y-102178857D01*
X138556571Y-102488380D02*
X138628000Y-102512190D01*
X138747047Y-102512190D01*
X138794666Y-102488380D01*
X138818476Y-102464571D01*
X138842285Y-102416952D01*
X138842285Y-102369333D01*
X138818476Y-102321714D01*
X138794666Y-102297904D01*
X138747047Y-102274095D01*
X138651809Y-102250285D01*
X138604190Y-102226476D01*
X138580380Y-102202666D01*
X138556571Y-102155047D01*
X138556571Y-102107428D01*
X138580380Y-102059809D01*
X138604190Y-102036000D01*
X138651809Y-102012190D01*
X138770857Y-102012190D01*
X138842285Y-102036000D01*
X138985142Y-102178857D02*
X139175619Y-102178857D01*
X139056571Y-102012190D02*
X139056571Y-102440761D01*
X139080380Y-102488380D01*
X139128000Y-102512190D01*
X139175619Y-102512190D01*
X139532761Y-102488380D02*
X139485142Y-102512190D01*
X139389904Y-102512190D01*
X139342285Y-102488380D01*
X139318476Y-102440761D01*
X139318476Y-102250285D01*
X139342285Y-102202666D01*
X139389904Y-102178857D01*
X139485142Y-102178857D01*
X139532761Y-102202666D01*
X139556571Y-102250285D01*
X139556571Y-102297904D01*
X139318476Y-102345523D01*
X139770857Y-102178857D02*
X139770857Y-102678857D01*
X139770857Y-102202666D02*
X139818476Y-102178857D01*
X139913714Y-102178857D01*
X139961333Y-102202666D01*
X139985142Y-102226476D01*
X140008952Y-102274095D01*
X140008952Y-102416952D01*
X139985142Y-102464571D01*
X139961333Y-102488380D01*
X139913714Y-102512190D01*
X139818476Y-102512190D01*
X139770857Y-102488380D01*
X140223238Y-102178857D02*
X140223238Y-102678857D01*
X140223238Y-102202666D02*
X140270857Y-102178857D01*
X140366095Y-102178857D01*
X140413714Y-102202666D01*
X140437523Y-102226476D01*
X140461333Y-102274095D01*
X140461333Y-102416952D01*
X140437523Y-102464571D01*
X140413714Y-102488380D01*
X140366095Y-102512190D01*
X140270857Y-102512190D01*
X140223238Y-102488380D01*
X140866095Y-102488380D02*
X140818476Y-102512190D01*
X140723238Y-102512190D01*
X140675619Y-102488380D01*
X140651809Y-102440761D01*
X140651809Y-102250285D01*
X140675619Y-102202666D01*
X140723238Y-102178857D01*
X140818476Y-102178857D01*
X140866095Y-102202666D01*
X140889904Y-102250285D01*
X140889904Y-102297904D01*
X140651809Y-102345523D01*
X141104190Y-102512190D02*
X141104190Y-102178857D01*
X141104190Y-102274095D02*
X141128000Y-102226476D01*
X141151809Y-102202666D01*
X141199428Y-102178857D01*
X141247047Y-102178857D01*
X142112666Y-113942190D02*
X142112666Y-113442190D01*
X142112666Y-113680285D02*
X142398380Y-113680285D01*
X142398380Y-113942190D02*
X142398380Y-113442190D01*
X142850761Y-113942190D02*
X142850761Y-113680285D01*
X142826952Y-113632666D01*
X142779333Y-113608857D01*
X142684095Y-113608857D01*
X142636476Y-113632666D01*
X142850761Y-113918380D02*
X142803142Y-113942190D01*
X142684095Y-113942190D01*
X142636476Y-113918380D01*
X142612666Y-113870761D01*
X142612666Y-113823142D01*
X142636476Y-113775523D01*
X142684095Y-113751714D01*
X142803142Y-113751714D01*
X142850761Y-113727904D01*
X143160285Y-113942190D02*
X143112666Y-113918380D01*
X143088857Y-113870761D01*
X143088857Y-113442190D01*
X143422190Y-113942190D02*
X143374571Y-113918380D01*
X143350761Y-113870761D01*
X143350761Y-113442190D01*
X143969809Y-113918380D02*
X144041238Y-113942190D01*
X144160285Y-113942190D01*
X144207904Y-113918380D01*
X144231714Y-113894571D01*
X144255523Y-113846952D01*
X144255523Y-113799333D01*
X144231714Y-113751714D01*
X144207904Y-113727904D01*
X144160285Y-113704095D01*
X144065047Y-113680285D01*
X144017428Y-113656476D01*
X143993619Y-113632666D01*
X143969809Y-113585047D01*
X143969809Y-113537428D01*
X143993619Y-113489809D01*
X144017428Y-113466000D01*
X144065047Y-113442190D01*
X144184095Y-113442190D01*
X144255523Y-113466000D01*
X144660285Y-113918380D02*
X144612666Y-113942190D01*
X144517428Y-113942190D01*
X144469809Y-113918380D01*
X144446000Y-113870761D01*
X144446000Y-113680285D01*
X144469809Y-113632666D01*
X144517428Y-113608857D01*
X144612666Y-113608857D01*
X144660285Y-113632666D01*
X144684095Y-113680285D01*
X144684095Y-113727904D01*
X144446000Y-113775523D01*
X144898380Y-113608857D02*
X144898380Y-113942190D01*
X144898380Y-113656476D02*
X144922190Y-113632666D01*
X144969809Y-113608857D01*
X145041238Y-113608857D01*
X145088857Y-113632666D01*
X145112666Y-113680285D01*
X145112666Y-113942190D01*
X145326952Y-113918380D02*
X145374571Y-113942190D01*
X145469809Y-113942190D01*
X145517428Y-113918380D01*
X145541238Y-113870761D01*
X145541238Y-113846952D01*
X145517428Y-113799333D01*
X145469809Y-113775523D01*
X145398380Y-113775523D01*
X145350761Y-113751714D01*
X145326952Y-113704095D01*
X145326952Y-113680285D01*
X145350761Y-113632666D01*
X145398380Y-113608857D01*
X145469809Y-113608857D01*
X145517428Y-113632666D01*
X145826952Y-113942190D02*
X145779333Y-113918380D01*
X145755523Y-113894571D01*
X145731714Y-113846952D01*
X145731714Y-113704095D01*
X145755523Y-113656476D01*
X145779333Y-113632666D01*
X145826952Y-113608857D01*
X145898380Y-113608857D01*
X145946000Y-113632666D01*
X145969809Y-113656476D01*
X145993619Y-113704095D01*
X145993619Y-113846952D01*
X145969809Y-113894571D01*
X145946000Y-113918380D01*
X145898380Y-113942190D01*
X145826952Y-113942190D01*
X146207904Y-113942190D02*
X146207904Y-113608857D01*
X146207904Y-113704095D02*
X146231714Y-113656476D01*
X146255523Y-113632666D01*
X146303142Y-113608857D01*
X146350761Y-113608857D01*
X103250666Y-114196190D02*
X103250666Y-113696190D01*
X103250666Y-113934285D02*
X103536380Y-113934285D01*
X103536380Y-114196190D02*
X103536380Y-113696190D01*
X103988761Y-114196190D02*
X103988761Y-113934285D01*
X103964952Y-113886666D01*
X103917333Y-113862857D01*
X103822095Y-113862857D01*
X103774476Y-113886666D01*
X103988761Y-114172380D02*
X103941142Y-114196190D01*
X103822095Y-114196190D01*
X103774476Y-114172380D01*
X103750666Y-114124761D01*
X103750666Y-114077142D01*
X103774476Y-114029523D01*
X103822095Y-114005714D01*
X103941142Y-114005714D01*
X103988761Y-113981904D01*
X104298285Y-114196190D02*
X104250666Y-114172380D01*
X104226857Y-114124761D01*
X104226857Y-113696190D01*
X104560190Y-114196190D02*
X104512571Y-114172380D01*
X104488761Y-114124761D01*
X104488761Y-113696190D01*
X105107809Y-114172380D02*
X105179238Y-114196190D01*
X105298285Y-114196190D01*
X105345904Y-114172380D01*
X105369714Y-114148571D01*
X105393523Y-114100952D01*
X105393523Y-114053333D01*
X105369714Y-114005714D01*
X105345904Y-113981904D01*
X105298285Y-113958095D01*
X105203047Y-113934285D01*
X105155428Y-113910476D01*
X105131619Y-113886666D01*
X105107809Y-113839047D01*
X105107809Y-113791428D01*
X105131619Y-113743809D01*
X105155428Y-113720000D01*
X105203047Y-113696190D01*
X105322095Y-113696190D01*
X105393523Y-113720000D01*
X105798285Y-114172380D02*
X105750666Y-114196190D01*
X105655428Y-114196190D01*
X105607809Y-114172380D01*
X105584000Y-114124761D01*
X105584000Y-113934285D01*
X105607809Y-113886666D01*
X105655428Y-113862857D01*
X105750666Y-113862857D01*
X105798285Y-113886666D01*
X105822095Y-113934285D01*
X105822095Y-113981904D01*
X105584000Y-114029523D01*
X106036380Y-113862857D02*
X106036380Y-114196190D01*
X106036380Y-113910476D02*
X106060190Y-113886666D01*
X106107809Y-113862857D01*
X106179238Y-113862857D01*
X106226857Y-113886666D01*
X106250666Y-113934285D01*
X106250666Y-114196190D01*
X106464952Y-114172380D02*
X106512571Y-114196190D01*
X106607809Y-114196190D01*
X106655428Y-114172380D01*
X106679238Y-114124761D01*
X106679238Y-114100952D01*
X106655428Y-114053333D01*
X106607809Y-114029523D01*
X106536380Y-114029523D01*
X106488761Y-114005714D01*
X106464952Y-113958095D01*
X106464952Y-113934285D01*
X106488761Y-113886666D01*
X106536380Y-113862857D01*
X106607809Y-113862857D01*
X106655428Y-113886666D01*
X106964952Y-114196190D02*
X106917333Y-114172380D01*
X106893523Y-114148571D01*
X106869714Y-114100952D01*
X106869714Y-113958095D01*
X106893523Y-113910476D01*
X106917333Y-113886666D01*
X106964952Y-113862857D01*
X107036380Y-113862857D01*
X107084000Y-113886666D01*
X107107809Y-113910476D01*
X107131619Y-113958095D01*
X107131619Y-114100952D01*
X107107809Y-114148571D01*
X107084000Y-114172380D01*
X107036380Y-114196190D01*
X106964952Y-114196190D01*
X107345904Y-114196190D02*
X107345904Y-113862857D01*
X107345904Y-113958095D02*
X107369714Y-113910476D01*
X107393523Y-113886666D01*
X107441142Y-113862857D01*
X107488761Y-113862857D01*
X128896571Y-116744190D02*
X128944190Y-116744190D01*
X128991809Y-116768000D01*
X129015619Y-116791809D01*
X129039428Y-116839428D01*
X129063238Y-116934666D01*
X129063238Y-117053714D01*
X129039428Y-117148952D01*
X129015619Y-117196571D01*
X128991809Y-117220380D01*
X128944190Y-117244190D01*
X128896571Y-117244190D01*
X128848952Y-117220380D01*
X128825142Y-117196571D01*
X128801333Y-117148952D01*
X128777523Y-117053714D01*
X128777523Y-116934666D01*
X128801333Y-116839428D01*
X128825142Y-116791809D01*
X128848952Y-116768000D01*
X128896571Y-116744190D01*
X129277523Y-117196571D02*
X129301333Y-117220380D01*
X129277523Y-117244190D01*
X129253714Y-117220380D01*
X129277523Y-117196571D01*
X129277523Y-117244190D01*
X129777523Y-117244190D02*
X129491809Y-117244190D01*
X129634666Y-117244190D02*
X129634666Y-116744190D01*
X129587047Y-116815619D01*
X129539428Y-116863238D01*
X129491809Y-116887047D01*
X130206095Y-116910857D02*
X130206095Y-117244190D01*
X129991809Y-116910857D02*
X129991809Y-117172761D01*
X130015619Y-117220380D01*
X130063238Y-117244190D01*
X130134666Y-117244190D01*
X130182285Y-117220380D01*
X130206095Y-117196571D01*
X130610857Y-116982285D02*
X130444190Y-116982285D01*
X130444190Y-117244190D02*
X130444190Y-116744190D01*
X130682285Y-116744190D01*
X116148857Y-127316857D02*
X116482190Y-127316857D01*
X115958380Y-127435904D02*
X116315523Y-127554952D01*
X116315523Y-127245428D01*
X116482190Y-127054952D02*
X115982190Y-127054952D01*
X116482190Y-126769238D02*
X116196476Y-126983523D01*
X115982190Y-126769238D02*
X116267904Y-127054952D01*
X115982190Y-126602571D02*
X115982190Y-126269238D01*
X116482190Y-126483523D01*
X120212857Y-127316857D02*
X120546190Y-127316857D01*
X120022380Y-127435904D02*
X120379523Y-127554952D01*
X120379523Y-127245428D01*
X120546190Y-127054952D02*
X120046190Y-127054952D01*
X120546190Y-126769238D02*
X120260476Y-126983523D01*
X120046190Y-126769238D02*
X120331904Y-127054952D01*
X120046190Y-126602571D02*
X120046190Y-126269238D01*
X120546190Y-126483523D01*
D11*
X128553210Y-125908000D02*
G75*
G03X128553210Y-125908000I-359210J0D01*
G01*
X127791210Y-113208000D02*
G75*
G03X127791210Y-113208000I-359210J0D01*
G01*
D10*
X127594761Y-130960190D02*
X127309047Y-130960190D01*
X127451904Y-130960190D02*
X127451904Y-130460190D01*
X127404285Y-130531619D01*
X127356666Y-130579238D01*
X127309047Y-130603047D01*
X127904285Y-130460190D02*
X127951904Y-130460190D01*
X127999523Y-130484000D01*
X128023333Y-130507809D01*
X128047142Y-130555428D01*
X128070952Y-130650666D01*
X128070952Y-130769714D01*
X128047142Y-130864952D01*
X128023333Y-130912571D01*
X127999523Y-130936380D01*
X127951904Y-130960190D01*
X127904285Y-130960190D01*
X127856666Y-130936380D01*
X127832857Y-130912571D01*
X127809047Y-130864952D01*
X127785238Y-130769714D01*
X127785238Y-130650666D01*
X127809047Y-130555428D01*
X127832857Y-130507809D01*
X127856666Y-130484000D01*
X127904285Y-130460190D01*
X128285238Y-130960190D02*
X128285238Y-130460190D01*
X128570952Y-130960190D02*
X128356666Y-130674476D01*
X128570952Y-130460190D02*
X128285238Y-130745904D01*
X118268190Y-123173428D02*
X118268190Y-123125809D01*
X118292000Y-123078190D01*
X118315809Y-123054380D01*
X118363428Y-123030571D01*
X118458666Y-123006761D01*
X118577714Y-123006761D01*
X118672952Y-123030571D01*
X118720571Y-123054380D01*
X118744380Y-123078190D01*
X118768190Y-123125809D01*
X118768190Y-123173428D01*
X118744380Y-123221047D01*
X118720571Y-123244857D01*
X118672952Y-123268666D01*
X118577714Y-123292476D01*
X118458666Y-123292476D01*
X118363428Y-123268666D01*
X118315809Y-123244857D01*
X118292000Y-123221047D01*
X118268190Y-123173428D01*
X118720571Y-122792476D02*
X118744380Y-122768666D01*
X118768190Y-122792476D01*
X118744380Y-122816285D01*
X118720571Y-122792476D01*
X118768190Y-122792476D01*
X118768190Y-122292476D02*
X118768190Y-122578190D01*
X118768190Y-122435333D02*
X118268190Y-122435333D01*
X118339619Y-122482952D01*
X118387238Y-122530571D01*
X118411047Y-122578190D01*
X118434857Y-121863904D02*
X118768190Y-121863904D01*
X118434857Y-122078190D02*
X118696761Y-122078190D01*
X118744380Y-122054380D01*
X118768190Y-122006761D01*
X118768190Y-121935333D01*
X118744380Y-121887714D01*
X118720571Y-121863904D01*
X118506285Y-121459142D02*
X118506285Y-121625809D01*
X118768190Y-121625809D02*
X118268190Y-121625809D01*
X118268190Y-121387714D01*
D12*
X136615809Y-127122380D02*
X136615809Y-126122380D01*
X137044380Y-127074761D02*
X137187238Y-127122380D01*
X137425333Y-127122380D01*
X137520571Y-127074761D01*
X137568190Y-127027142D01*
X137615809Y-126931904D01*
X137615809Y-126836666D01*
X137568190Y-126741428D01*
X137520571Y-126693809D01*
X137425333Y-126646190D01*
X137234857Y-126598571D01*
X137139619Y-126550952D01*
X137092000Y-126503333D01*
X137044380Y-126408095D01*
X137044380Y-126312857D01*
X137092000Y-126217619D01*
X137139619Y-126170000D01*
X137234857Y-126122380D01*
X137472952Y-126122380D01*
X137615809Y-126170000D01*
X138044380Y-127122380D02*
X138044380Y-126122380D01*
X138425333Y-126122380D01*
X138520571Y-126170000D01*
X138568190Y-126217619D01*
X138615809Y-126312857D01*
X138615809Y-126455714D01*
X138568190Y-126550952D01*
X138520571Y-126598571D01*
X138425333Y-126646190D01*
X138044380Y-126646190D01*
X123640142Y-124763000D02*
X123997285Y-124763000D01*
X123568714Y-124977285D02*
X123818714Y-124227285D01*
X124068714Y-124977285D01*
X124211571Y-124227285D02*
X124640142Y-124227285D01*
X124425857Y-124977285D02*
X124425857Y-124227285D01*
X124783000Y-124227285D02*
X125211571Y-124227285D01*
X124997285Y-124977285D02*
X124997285Y-124227285D01*
X125461571Y-124977285D02*
X125461571Y-124477285D01*
X125461571Y-124227285D02*
X125425857Y-124263000D01*
X125461571Y-124298714D01*
X125497285Y-124263000D01*
X125461571Y-124227285D01*
X125461571Y-124298714D01*
X125818714Y-124477285D02*
X125818714Y-124977285D01*
X125818714Y-124548714D02*
X125854428Y-124513000D01*
X125925857Y-124477285D01*
X126033000Y-124477285D01*
X126104428Y-124513000D01*
X126140142Y-124584428D01*
X126140142Y-124977285D01*
X126425857Y-124477285D02*
X126604428Y-124977285D01*
X126783000Y-124477285D02*
X126604428Y-124977285D01*
X126533000Y-125155857D01*
X126497285Y-125191571D01*
X126425857Y-125227285D01*
X127175857Y-124548714D02*
X127104428Y-124513000D01*
X127068714Y-124477285D01*
X127033000Y-124405857D01*
X127033000Y-124370142D01*
X127068714Y-124298714D01*
X127104428Y-124263000D01*
X127175857Y-124227285D01*
X127318714Y-124227285D01*
X127390142Y-124263000D01*
X127425857Y-124298714D01*
X127461571Y-124370142D01*
X127461571Y-124405857D01*
X127425857Y-124477285D01*
X127390142Y-124513000D01*
X127318714Y-124548714D01*
X127175857Y-124548714D01*
X127104428Y-124584428D01*
X127068714Y-124620142D01*
X127033000Y-124691571D01*
X127033000Y-124834428D01*
X127068714Y-124905857D01*
X127104428Y-124941571D01*
X127175857Y-124977285D01*
X127318714Y-124977285D01*
X127390142Y-124941571D01*
X127425857Y-124905857D01*
X127461571Y-124834428D01*
X127461571Y-124691571D01*
X127425857Y-124620142D01*
X127390142Y-124584428D01*
X127318714Y-124548714D01*
X127890142Y-124548714D02*
X127818714Y-124513000D01*
X127783000Y-124477285D01*
X127747285Y-124405857D01*
X127747285Y-124370142D01*
X127783000Y-124298714D01*
X127818714Y-124263000D01*
X127890142Y-124227285D01*
X128033000Y-124227285D01*
X128104428Y-124263000D01*
X128140142Y-124298714D01*
X128175857Y-124370142D01*
X128175857Y-124405857D01*
X128140142Y-124477285D01*
X128104428Y-124513000D01*
X128033000Y-124548714D01*
X127890142Y-124548714D01*
X127818714Y-124584428D01*
X127783000Y-124620142D01*
X127747285Y-124691571D01*
X127747285Y-124834428D01*
X127783000Y-124905857D01*
X127818714Y-124941571D01*
X127890142Y-124977285D01*
X128033000Y-124977285D01*
X128104428Y-124941571D01*
X128140142Y-124905857D01*
X128175857Y-124834428D01*
X128175857Y-124691571D01*
X128140142Y-124620142D01*
X128104428Y-124584428D01*
X128033000Y-124548714D01*
X124268380Y-111988571D02*
X124268380Y-111417142D01*
X125268380Y-111702857D02*
X124268380Y-111702857D01*
X125268380Y-111083809D02*
X124268380Y-111083809D01*
X124268380Y-110702857D01*
X124316000Y-110607619D01*
X124363619Y-110560000D01*
X124458857Y-110512380D01*
X124601714Y-110512380D01*
X124696952Y-110560000D01*
X124744571Y-110607619D01*
X124792190Y-110702857D01*
X124792190Y-111083809D01*
X125268380Y-110083809D02*
X124268380Y-110083809D01*
X125173142Y-109036190D02*
X125220761Y-109083809D01*
X125268380Y-109226666D01*
X125268380Y-109321904D01*
X125220761Y-109464761D01*
X125125523Y-109560000D01*
X125030285Y-109607619D01*
X124839809Y-109655238D01*
X124696952Y-109655238D01*
X124506476Y-109607619D01*
X124411238Y-109560000D01*
X124316000Y-109464761D01*
X124268380Y-109321904D01*
X124268380Y-109226666D01*
X124316000Y-109083809D01*
X124363619Y-109036190D01*
X124268380Y-108179047D02*
X124268380Y-108369523D01*
X124316000Y-108464761D01*
X124363619Y-108512380D01*
X124506476Y-108607619D01*
X124696952Y-108655238D01*
X125077904Y-108655238D01*
X125173142Y-108607619D01*
X125220761Y-108560000D01*
X125268380Y-108464761D01*
X125268380Y-108274285D01*
X125220761Y-108179047D01*
X125173142Y-108131428D01*
X125077904Y-108083809D01*
X124839809Y-108083809D01*
X124744571Y-108131428D01*
X124696952Y-108179047D01*
X124649333Y-108274285D01*
X124649333Y-108464761D01*
X124696952Y-108560000D01*
X124744571Y-108607619D01*
X124839809Y-108655238D01*
X124268380Y-107179047D02*
X124268380Y-107655238D01*
X124744571Y-107702857D01*
X124696952Y-107655238D01*
X124649333Y-107560000D01*
X124649333Y-107321904D01*
X124696952Y-107226666D01*
X124744571Y-107179047D01*
X124839809Y-107131428D01*
X125077904Y-107131428D01*
X125173142Y-107179047D01*
X125220761Y-107226666D01*
X125268380Y-107321904D01*
X125268380Y-107560000D01*
X125220761Y-107655238D01*
X125173142Y-107702857D01*
X125268380Y-106655238D02*
X125268380Y-106464761D01*
X125220761Y-106369523D01*
X125173142Y-106321904D01*
X125030285Y-106226666D01*
X124839809Y-106179047D01*
X124458857Y-106179047D01*
X124363619Y-106226666D01*
X124316000Y-106274285D01*
X124268380Y-106369523D01*
X124268380Y-106560000D01*
X124316000Y-106655238D01*
X124363619Y-106702857D01*
X124458857Y-106750476D01*
X124696952Y-106750476D01*
X124792190Y-106702857D01*
X124839809Y-106655238D01*
X124887428Y-106560000D01*
X124887428Y-106369523D01*
X124839809Y-106274285D01*
X124792190Y-106226666D01*
X124696952Y-106179047D01*
X124268380Y-105274285D02*
X124268380Y-105750476D01*
X124744571Y-105798095D01*
X124696952Y-105750476D01*
X124649333Y-105655238D01*
X124649333Y-105417142D01*
X124696952Y-105321904D01*
X124744571Y-105274285D01*
X124839809Y-105226666D01*
X125077904Y-105226666D01*
X125173142Y-105274285D01*
X125220761Y-105321904D01*
X125268380Y-105417142D01*
X125268380Y-105655238D01*
X125220761Y-105750476D01*
X125173142Y-105798095D01*
D10*
X109846571Y-130714190D02*
X109894190Y-130714190D01*
X109941809Y-130738000D01*
X109965619Y-130761809D01*
X109989428Y-130809428D01*
X110013238Y-130904666D01*
X110013238Y-131023714D01*
X109989428Y-131118952D01*
X109965619Y-131166571D01*
X109941809Y-131190380D01*
X109894190Y-131214190D01*
X109846571Y-131214190D01*
X109798952Y-131190380D01*
X109775142Y-131166571D01*
X109751333Y-131118952D01*
X109727523Y-131023714D01*
X109727523Y-130904666D01*
X109751333Y-130809428D01*
X109775142Y-130761809D01*
X109798952Y-130738000D01*
X109846571Y-130714190D01*
X110227523Y-131166571D02*
X110251333Y-131190380D01*
X110227523Y-131214190D01*
X110203714Y-131190380D01*
X110227523Y-131166571D01*
X110227523Y-131214190D01*
X110727523Y-131214190D02*
X110441809Y-131214190D01*
X110584666Y-131214190D02*
X110584666Y-130714190D01*
X110537047Y-130785619D01*
X110489428Y-130833238D01*
X110441809Y-130857047D01*
X111156095Y-130880857D02*
X111156095Y-131214190D01*
X110941809Y-130880857D02*
X110941809Y-131142761D01*
X110965619Y-131190380D01*
X111013238Y-131214190D01*
X111084666Y-131214190D01*
X111132285Y-131190380D01*
X111156095Y-131166571D01*
X111560857Y-130952285D02*
X111394190Y-130952285D01*
X111394190Y-131214190D02*
X111394190Y-130714190D01*
X111632285Y-130714190D01*
X112894571Y-130714190D02*
X112942190Y-130714190D01*
X112989809Y-130738000D01*
X113013619Y-130761809D01*
X113037428Y-130809428D01*
X113061238Y-130904666D01*
X113061238Y-131023714D01*
X113037428Y-131118952D01*
X113013619Y-131166571D01*
X112989809Y-131190380D01*
X112942190Y-131214190D01*
X112894571Y-131214190D01*
X112846952Y-131190380D01*
X112823142Y-131166571D01*
X112799333Y-131118952D01*
X112775523Y-131023714D01*
X112775523Y-130904666D01*
X112799333Y-130809428D01*
X112823142Y-130761809D01*
X112846952Y-130738000D01*
X112894571Y-130714190D01*
X113275523Y-131166571D02*
X113299333Y-131190380D01*
X113275523Y-131214190D01*
X113251714Y-131190380D01*
X113275523Y-131166571D01*
X113275523Y-131214190D01*
X113775523Y-131214190D02*
X113489809Y-131214190D01*
X113632666Y-131214190D02*
X113632666Y-130714190D01*
X113585047Y-130785619D01*
X113537428Y-130833238D01*
X113489809Y-130857047D01*
X114204095Y-130880857D02*
X114204095Y-131214190D01*
X113989809Y-130880857D02*
X113989809Y-131142761D01*
X114013619Y-131190380D01*
X114061238Y-131214190D01*
X114132666Y-131214190D01*
X114180285Y-131190380D01*
X114204095Y-131166571D01*
X114608857Y-130952285D02*
X114442190Y-130952285D01*
X114442190Y-131214190D02*
X114442190Y-130714190D01*
X114680285Y-130714190D01*
X115718107Y-130041571D02*
X115825250Y-130077285D01*
X116003821Y-130077285D01*
X116075250Y-130041571D01*
X116110964Y-130005857D01*
X116146678Y-129934428D01*
X116146678Y-129863000D01*
X116110964Y-129791571D01*
X116075250Y-129755857D01*
X116003821Y-129720142D01*
X115860964Y-129684428D01*
X115789535Y-129648714D01*
X115753821Y-129613000D01*
X115718107Y-129541571D01*
X115718107Y-129470142D01*
X115753821Y-129398714D01*
X115789535Y-129363000D01*
X115860964Y-129327285D01*
X116039535Y-129327285D01*
X116146678Y-129363000D01*
X116468107Y-129577285D02*
X116468107Y-130327285D01*
X116468107Y-129613000D02*
X116539535Y-129577285D01*
X116682392Y-129577285D01*
X116753821Y-129613000D01*
X116789535Y-129648714D01*
X116825250Y-129720142D01*
X116825250Y-129934428D01*
X116789535Y-130005857D01*
X116753821Y-130041571D01*
X116682392Y-130077285D01*
X116539535Y-130077285D01*
X116468107Y-130041571D01*
X117253821Y-130077285D02*
X117182392Y-130041571D01*
X117146678Y-129970142D01*
X117146678Y-129327285D01*
X117539535Y-130077285D02*
X117539535Y-129577285D01*
X117539535Y-129327285D02*
X117503821Y-129363000D01*
X117539535Y-129398714D01*
X117575250Y-129363000D01*
X117539535Y-129327285D01*
X117539535Y-129398714D01*
X117789535Y-129577285D02*
X118075250Y-129577285D01*
X117896678Y-129327285D02*
X117896678Y-129970142D01*
X117932392Y-130041571D01*
X118003821Y-130077285D01*
X118075250Y-130077285D01*
X118575250Y-129684428D02*
X118325250Y-129684428D01*
X118325250Y-130077285D02*
X118325250Y-129327285D01*
X118682392Y-129327285D01*
X119075250Y-130077285D02*
X119003821Y-130041571D01*
X118968107Y-129970142D01*
X118968107Y-129327285D01*
X119682392Y-130077285D02*
X119682392Y-129684428D01*
X119646678Y-129613000D01*
X119575250Y-129577285D01*
X119432392Y-129577285D01*
X119360964Y-129613000D01*
X119682392Y-130041571D02*
X119610964Y-130077285D01*
X119432392Y-130077285D01*
X119360964Y-130041571D01*
X119325250Y-129970142D01*
X119325250Y-129898714D01*
X119360964Y-129827285D01*
X119432392Y-129791571D01*
X119610964Y-129791571D01*
X119682392Y-129755857D01*
X120039535Y-129577285D02*
X120039535Y-130327285D01*
X120039535Y-129613000D02*
X120110964Y-129577285D01*
X120253821Y-129577285D01*
X120325250Y-129613000D01*
X120360964Y-129648714D01*
X120396678Y-129720142D01*
X120396678Y-129934428D01*
X120360964Y-130005857D01*
X120325250Y-130041571D01*
X120253821Y-130077285D01*
X120110964Y-130077285D01*
X120039535Y-130041571D01*
X120718107Y-130077285D02*
X120718107Y-129327285D01*
X121039535Y-129398714D02*
X121075250Y-129363000D01*
X121146678Y-129327285D01*
X121325250Y-129327285D01*
X121396678Y-129363000D01*
X121432392Y-129398714D01*
X121468107Y-129470142D01*
X121468107Y-129541571D01*
X121432392Y-129648714D01*
X121003821Y-130077285D01*
X121468107Y-130077285D01*
X122218107Y-130005857D02*
X122182392Y-130041571D01*
X122075250Y-130077285D01*
X122003821Y-130077285D01*
X121896678Y-130041571D01*
X121825250Y-129970142D01*
X121789535Y-129898714D01*
X121753821Y-129755857D01*
X121753821Y-129648714D01*
X121789535Y-129505857D01*
X121825250Y-129434428D01*
X121896678Y-129363000D01*
X122003821Y-129327285D01*
X122075250Y-129327285D01*
X122182392Y-129363000D01*
X122218107Y-129398714D01*
X123003821Y-129327285D02*
X123253821Y-130077285D01*
X123503821Y-129327285D01*
X123896678Y-129327285D02*
X123968107Y-129327285D01*
X124039535Y-129363000D01*
X124075250Y-129398714D01*
X124110964Y-129470142D01*
X124146678Y-129613000D01*
X124146678Y-129791571D01*
X124110964Y-129934428D01*
X124075250Y-130005857D01*
X124039535Y-130041571D01*
X123968107Y-130077285D01*
X123896678Y-130077285D01*
X123825250Y-130041571D01*
X123789535Y-130005857D01*
X123753821Y-129934428D01*
X123718107Y-129791571D01*
X123718107Y-129613000D01*
X123753821Y-129470142D01*
X123789535Y-129398714D01*
X123825250Y-129363000D01*
X123896678Y-129327285D01*
X124468107Y-130005857D02*
X124503821Y-130041571D01*
X124468107Y-130077285D01*
X124432392Y-130041571D01*
X124468107Y-130005857D01*
X124468107Y-130077285D01*
X125146678Y-129577285D02*
X125146678Y-130077285D01*
X124968107Y-129291571D02*
X124789535Y-129827285D01*
X125253821Y-129827285D01*
X115718107Y-130648714D02*
X115753821Y-130613000D01*
X115825250Y-130577285D01*
X116003821Y-130577285D01*
X116075250Y-130613000D01*
X116110964Y-130648714D01*
X116146678Y-130720142D01*
X116146678Y-130791571D01*
X116110964Y-130898714D01*
X115682392Y-131327285D01*
X116146678Y-131327285D01*
X116610964Y-130577285D02*
X116682392Y-130577285D01*
X116753821Y-130613000D01*
X116789535Y-130648714D01*
X116825250Y-130720142D01*
X116860964Y-130863000D01*
X116860964Y-131041571D01*
X116825250Y-131184428D01*
X116789535Y-131255857D01*
X116753821Y-131291571D01*
X116682392Y-131327285D01*
X116610964Y-131327285D01*
X116539535Y-131291571D01*
X116503821Y-131255857D01*
X116468107Y-131184428D01*
X116432392Y-131041571D01*
X116432392Y-130863000D01*
X116468107Y-130720142D01*
X116503821Y-130648714D01*
X116539535Y-130613000D01*
X116610964Y-130577285D01*
X117575250Y-131327285D02*
X117146678Y-131327285D01*
X117360964Y-131327285D02*
X117360964Y-130577285D01*
X117289535Y-130684428D01*
X117218107Y-130755857D01*
X117146678Y-130791571D01*
X117932392Y-131327285D02*
X118075250Y-131327285D01*
X118146678Y-131291571D01*
X118182392Y-131255857D01*
X118253821Y-131148714D01*
X118289535Y-131005857D01*
X118289535Y-130720142D01*
X118253821Y-130648714D01*
X118218107Y-130613000D01*
X118146678Y-130577285D01*
X118003821Y-130577285D01*
X117932392Y-130613000D01*
X117896678Y-130648714D01*
X117860964Y-130720142D01*
X117860964Y-130898714D01*
X117896678Y-130970142D01*
X117932392Y-131005857D01*
X118003821Y-131041571D01*
X118146678Y-131041571D01*
X118218107Y-131005857D01*
X118253821Y-130970142D01*
X118289535Y-130898714D01*
X118610964Y-131041571D02*
X119182392Y-131041571D01*
X119682392Y-130577285D02*
X119753821Y-130577285D01*
X119825250Y-130613000D01*
X119860964Y-130648714D01*
X119896678Y-130720142D01*
X119932392Y-130863000D01*
X119932392Y-131041571D01*
X119896678Y-131184428D01*
X119860964Y-131255857D01*
X119825250Y-131291571D01*
X119753821Y-131327285D01*
X119682392Y-131327285D01*
X119610964Y-131291571D01*
X119575250Y-131255857D01*
X119539535Y-131184428D01*
X119503821Y-131041571D01*
X119503821Y-130863000D01*
X119539535Y-130720142D01*
X119575250Y-130648714D01*
X119610964Y-130613000D01*
X119682392Y-130577285D01*
X120575250Y-130827285D02*
X120575250Y-131327285D01*
X120396678Y-130541571D02*
X120218107Y-131077285D01*
X120682392Y-131077285D01*
X120968107Y-131041571D02*
X121539535Y-131041571D01*
X121860964Y-130648714D02*
X121896678Y-130613000D01*
X121968107Y-130577285D01*
X122146678Y-130577285D01*
X122218107Y-130613000D01*
X122253821Y-130648714D01*
X122289535Y-130720142D01*
X122289535Y-130791571D01*
X122253821Y-130898714D01*
X121825250Y-131327285D01*
X122289535Y-131327285D01*
X122646678Y-131327285D02*
X122789535Y-131327285D01*
X122860964Y-131291571D01*
X122896678Y-131255857D01*
X122968107Y-131148714D01*
X123003821Y-131005857D01*
X123003821Y-130720142D01*
X122968107Y-130648714D01*
X122932392Y-130613000D01*
X122860964Y-130577285D01*
X122718107Y-130577285D01*
X122646678Y-130613000D01*
X122610964Y-130648714D01*
X122575250Y-130720142D01*
X122575250Y-130898714D01*
X122610964Y-130970142D01*
X122646678Y-131005857D01*
X122718107Y-131041571D01*
X122860964Y-131041571D01*
X122932392Y-131005857D01*
X122968107Y-130970142D01*
X123003821Y-130898714D01*
X115718107Y-132541571D02*
X115825250Y-132577285D01*
X116003821Y-132577285D01*
X116075250Y-132541571D01*
X116110964Y-132505857D01*
X116146678Y-132434428D01*
X116146678Y-132363000D01*
X116110964Y-132291571D01*
X116075250Y-132255857D01*
X116003821Y-132220142D01*
X115860964Y-132184428D01*
X115789535Y-132148714D01*
X115753821Y-132113000D01*
X115718107Y-132041571D01*
X115718107Y-131970142D01*
X115753821Y-131898714D01*
X115789535Y-131863000D01*
X115860964Y-131827285D01*
X116039535Y-131827285D01*
X116146678Y-131863000D01*
X116789535Y-132577285D02*
X116789535Y-132184428D01*
X116753821Y-132113000D01*
X116682392Y-132077285D01*
X116539535Y-132077285D01*
X116468107Y-132113000D01*
X116789535Y-132541571D02*
X116718107Y-132577285D01*
X116539535Y-132577285D01*
X116468107Y-132541571D01*
X116432392Y-132470142D01*
X116432392Y-132398714D01*
X116468107Y-132327285D01*
X116539535Y-132291571D01*
X116718107Y-132291571D01*
X116789535Y-132255857D01*
X117146678Y-132577285D02*
X117146678Y-132077285D01*
X117146678Y-132148714D02*
X117182392Y-132113000D01*
X117253821Y-132077285D01*
X117360964Y-132077285D01*
X117432392Y-132113000D01*
X117468107Y-132184428D01*
X117468107Y-132577285D01*
X117468107Y-132184428D02*
X117503821Y-132113000D01*
X117575250Y-132077285D01*
X117682392Y-132077285D01*
X117753821Y-132113000D01*
X117789535Y-132184428D01*
X117789535Y-132577285D01*
X118646678Y-131827285D02*
X118825250Y-132577285D01*
X118968107Y-132041571D01*
X119110964Y-132577285D01*
X119289535Y-131827285D01*
X119896678Y-132577285D02*
X119896678Y-132184428D01*
X119860964Y-132113000D01*
X119789535Y-132077285D01*
X119646678Y-132077285D01*
X119575250Y-132113000D01*
X119896678Y-132541571D02*
X119825250Y-132577285D01*
X119646678Y-132577285D01*
X119575250Y-132541571D01*
X119539535Y-132470142D01*
X119539535Y-132398714D01*
X119575250Y-132327285D01*
X119646678Y-132291571D01*
X119825250Y-132291571D01*
X119896678Y-132255857D01*
X120253821Y-132577285D02*
X120253821Y-132077285D01*
X120253821Y-132220142D02*
X120289535Y-132148714D01*
X120325250Y-132113000D01*
X120396678Y-132077285D01*
X120468107Y-132077285D01*
X120718107Y-132577285D02*
X120718107Y-132077285D01*
X120718107Y-132148714D02*
X120753821Y-132113000D01*
X120825250Y-132077285D01*
X120932392Y-132077285D01*
X121003821Y-132113000D01*
X121039535Y-132184428D01*
X121039535Y-132577285D01*
X121039535Y-132184428D02*
X121075250Y-132113000D01*
X121146678Y-132077285D01*
X121253821Y-132077285D01*
X121325250Y-132113000D01*
X121360964Y-132184428D01*
X121360964Y-132577285D01*
X122039535Y-132077285D02*
X122039535Y-132577285D01*
X121718107Y-132077285D02*
X121718107Y-132470142D01*
X121753821Y-132541571D01*
X121825250Y-132577285D01*
X121932392Y-132577285D01*
X122003821Y-132541571D01*
X122039535Y-132505857D01*
X122289535Y-132077285D02*
X122575250Y-132077285D01*
X122396678Y-131827285D02*
X122396678Y-132470142D01*
X122432392Y-132541571D01*
X122503821Y-132577285D01*
X122575250Y-132577285D01*
X122825250Y-132577285D02*
X122825250Y-131827285D01*
X123146678Y-132577285D02*
X123146678Y-132184428D01*
X123110964Y-132113000D01*
X123039535Y-132077285D01*
X122932392Y-132077285D01*
X122860964Y-132113000D01*
X122825250Y-132148714D01*
D11*
X115372000Y-125838000D02*
X115372000Y-126938000D01*
X115642000Y-125838000D02*
X115372000Y-125838000D01*
X115642000Y-124338000D02*
X115642000Y-125838000D01*
X109012000Y-125838000D02*
X109012000Y-128668000D01*
X108742000Y-125838000D02*
X109012000Y-125838000D01*
X108742000Y-124338000D02*
X108742000Y-125838000D01*
D12*
X128875000Y-114373000D02*
X128875000Y-114123000D01*
X121125000Y-114373000D02*
X121125000Y-114038000D01*
X121125000Y-101223000D02*
X121125000Y-101558000D01*
X128875000Y-101223000D02*
X128875000Y-101558000D01*
X128875000Y-114373000D02*
X121125000Y-114373000D01*
X128875000Y-101223000D02*
X121125000Y-101223000D01*
X128875000Y-114123000D02*
X130675000Y-114123000D01*
D11*
X140446000Y-117720000D02*
X135246000Y-117720000D01*
X140446000Y-122860000D02*
X140446000Y-117720000D01*
X135246000Y-125460000D02*
X135246000Y-117720000D01*
X140446000Y-122860000D02*
X137846000Y-122860000D01*
X137846000Y-122860000D02*
X137846000Y-125460000D01*
X137846000Y-125460000D02*
X135246000Y-125460000D01*
X140446000Y-124130000D02*
X140446000Y-125460000D01*
X140446000Y-125460000D02*
X139116000Y-125460000D01*
D12*
X129457000Y-126917000D02*
X129457000Y-126692000D01*
X122207000Y-126917000D02*
X122207000Y-126592000D01*
X122207000Y-119667000D02*
X122207000Y-119992000D01*
X129457000Y-119667000D02*
X129457000Y-119992000D01*
X129457000Y-126917000D02*
X129132000Y-126917000D01*
X129457000Y-119667000D02*
X129132000Y-119667000D01*
X122207000Y-119667000D02*
X122532000Y-119667000D01*
X122207000Y-126917000D02*
X122532000Y-126917000D01*
X129457000Y-126692000D02*
X130882000Y-126692000D01*
D11*
X113553221Y-129208000D02*
X113878779Y-129208000D01*
X113553221Y-130228000D02*
X113878779Y-130228000D01*
X110505221Y-129208000D02*
X110830779Y-129208000D01*
X110505221Y-130228000D02*
X110830779Y-130228000D01*
X119240000Y-122443221D02*
X119240000Y-122768779D01*
X120260000Y-122443221D02*
X120260000Y-122768779D01*
X127777221Y-129974000D02*
X128102779Y-129974000D01*
X127777221Y-128954000D02*
X128102779Y-128954000D01*
X116762000Y-127086779D02*
X116762000Y-126761221D01*
X117782000Y-127086779D02*
X117782000Y-126761221D01*
X118794000Y-126739221D02*
X118794000Y-127064779D01*
X119814000Y-126739221D02*
X119814000Y-127064779D01*
X112018000Y-115514000D02*
X117988000Y-115514000D01*
X117988000Y-115514000D02*
X117988000Y-100394000D01*
X117988000Y-100394000D02*
X112018000Y-100394000D01*
X112018000Y-100394000D02*
X112018000Y-115514000D01*
X112028000Y-112204000D02*
X112778000Y-112204000D01*
X112778000Y-112204000D02*
X112778000Y-103704000D01*
X112778000Y-103704000D02*
X112028000Y-103704000D01*
X112028000Y-103704000D02*
X112028000Y-112204000D01*
X112028000Y-115504000D02*
X112778000Y-115504000D01*
X112778000Y-115504000D02*
X112778000Y-113704000D01*
X112778000Y-113704000D02*
X112028000Y-113704000D01*
X112028000Y-113704000D02*
X112028000Y-115504000D01*
X112028000Y-102204000D02*
X112778000Y-102204000D01*
X112778000Y-102204000D02*
X112778000Y-100404000D01*
X112778000Y-100404000D02*
X112028000Y-100404000D01*
X112028000Y-100404000D02*
X112028000Y-102204000D01*
X114278000Y-115504000D02*
X114278000Y-114754000D01*
X114278000Y-114754000D02*
X117228000Y-114754000D01*
X117228000Y-114754000D02*
X117228000Y-107954000D01*
X114278000Y-100404000D02*
X114278000Y-101154000D01*
X114278000Y-101154000D02*
X117228000Y-101154000D01*
X117228000Y-101154000D02*
X117228000Y-107954000D01*
X111728000Y-114554000D02*
X111728000Y-115804000D01*
X111728000Y-115804000D02*
X112978000Y-115804000D01*
X131750000Y-115804000D02*
X133000000Y-115804000D01*
X131750000Y-114554000D02*
X131750000Y-115804000D01*
X137250000Y-101154000D02*
X137250000Y-107954000D01*
X134300000Y-101154000D02*
X137250000Y-101154000D01*
X134300000Y-100404000D02*
X134300000Y-101154000D01*
X137250000Y-114754000D02*
X137250000Y-107954000D01*
X134300000Y-114754000D02*
X137250000Y-114754000D01*
X134300000Y-115504000D02*
X134300000Y-114754000D01*
X132050000Y-100404000D02*
X132050000Y-102204000D01*
X132800000Y-100404000D02*
X132050000Y-100404000D01*
X132800000Y-102204000D02*
X132800000Y-100404000D01*
X132050000Y-102204000D02*
X132800000Y-102204000D01*
X132050000Y-113704000D02*
X132050000Y-115504000D01*
X132800000Y-113704000D02*
X132050000Y-113704000D01*
X132800000Y-115504000D02*
X132800000Y-113704000D01*
X132050000Y-115504000D02*
X132800000Y-115504000D01*
X132050000Y-103704000D02*
X132050000Y-112204000D01*
X132800000Y-103704000D02*
X132050000Y-103704000D01*
X132800000Y-112204000D02*
X132800000Y-103704000D01*
X132050000Y-112204000D02*
X132800000Y-112204000D01*
X132040000Y-100394000D02*
X132040000Y-115514000D01*
X138010000Y-100394000D02*
X132040000Y-100394000D01*
X138010000Y-115514000D02*
X138010000Y-100394000D01*
X132040000Y-115514000D02*
X138010000Y-115514000D01*
X129301221Y-115238000D02*
X129626779Y-115238000D01*
X129301221Y-116258000D02*
X129626779Y-116258000D01*
D13*
X106228000Y-115110000D02*
X106228000Y-125270000D01*
X106228000Y-125270000D02*
X100508000Y-125270000D01*
X100508000Y-125270000D02*
X100508000Y-115110000D01*
X100508000Y-115110000D02*
X106228000Y-115110000D01*
D14*
X99948000Y-124000000D02*
G75*
G03X99948000Y-124000000I-150000J0D01*
G01*
D15*
X101778000Y-107493000D02*
X101778000Y-113208000D01*
X101778000Y-113208000D02*
X109398000Y-113208000D01*
X109398000Y-113208000D02*
X109398000Y-107493000D01*
X109398000Y-107493000D02*
X108128000Y-107493000D01*
X108128000Y-107493000D02*
X103048000Y-107493000D01*
X103048000Y-107493000D02*
X101778000Y-107493000D01*
X103048000Y-107493000D02*
X103048000Y-109398000D01*
X103048000Y-109398000D02*
X108128000Y-109398000D01*
X108128000Y-109398000D02*
X108128000Y-107493000D01*
X146482000Y-109398000D02*
X146482000Y-107493000D01*
X141402000Y-109398000D02*
X146482000Y-109398000D01*
X141402000Y-107493000D02*
X141402000Y-109398000D01*
X141402000Y-107493000D02*
X140132000Y-107493000D01*
X146482000Y-107493000D02*
X141402000Y-107493000D01*
X147752000Y-107493000D02*
X146482000Y-107493000D01*
X147752000Y-113208000D02*
X147752000Y-107493000D01*
X140132000Y-113208000D02*
X147752000Y-113208000D01*
X140132000Y-107493000D02*
X140132000Y-113208000D01*
D13*
X149154000Y-115110000D02*
X149154000Y-125270000D01*
X149154000Y-125270000D02*
X143434000Y-125270000D01*
X143434000Y-125270000D02*
X143434000Y-115110000D01*
X143434000Y-115110000D02*
X149154000Y-115110000D01*
D14*
X142874000Y-124000000D02*
G75*
G03X142874000Y-124000000I-150000J0D01*
G01*
M02*
