G04 #@! TF.GenerationSoftware,KiCad,Pcbnew,(5.1.0-0)*
G04 #@! TF.CreationDate,2019-05-01T12:35:33-05:00*
G04 #@! TF.ProjectId,splitflap-pcb,73706c69-7466-46c6-9170-2d7063622e6b,rev?*
G04 #@! TF.SameCoordinates,Original*
G04 #@! TF.FileFunction,Soldermask,Bot*
G04 #@! TF.FilePolarity,Negative*
%FSLAX46Y46*%
G04 Gerber Fmt 4.6, Leading zero omitted, Abs format (unit mm)*
G04 Created by KiCad (PCBNEW (5.1.0-0)) date 2019-05-01 12:35:33*
%MOMM*%
%LPD*%
G04 APERTURE LIST*
%ADD10C,0.100000*%
G04 APERTURE END LIST*
D10*
G36*
X146608239Y-126021467D02*
G01*
X146922282Y-126083934D01*
X147513926Y-126329001D01*
X148046392Y-126684784D01*
X148499216Y-127137608D01*
X148854999Y-127670074D01*
X149100066Y-128261718D01*
X149225000Y-128889804D01*
X149225000Y-129530196D01*
X149100066Y-130158282D01*
X148854999Y-130749926D01*
X148499216Y-131282392D01*
X148046392Y-131735216D01*
X147513926Y-132090999D01*
X146922282Y-132336066D01*
X146608239Y-132398533D01*
X146294197Y-132461000D01*
X145653803Y-132461000D01*
X145339761Y-132398533D01*
X145025718Y-132336066D01*
X144434074Y-132090999D01*
X143901608Y-131735216D01*
X143448784Y-131282392D01*
X143093001Y-130749926D01*
X142847934Y-130158282D01*
X142723000Y-129530196D01*
X142723000Y-128889804D01*
X142847934Y-128261718D01*
X143093001Y-127670074D01*
X143448784Y-127137608D01*
X143901608Y-126684784D01*
X144434074Y-126329001D01*
X145025718Y-126083934D01*
X145339761Y-126021467D01*
X145653803Y-125959000D01*
X146294197Y-125959000D01*
X146608239Y-126021467D01*
X146608239Y-126021467D01*
G37*
G36*
X104698239Y-126021467D02*
G01*
X105012282Y-126083934D01*
X105603926Y-126329001D01*
X106136392Y-126684784D01*
X106589216Y-127137608D01*
X106944999Y-127670074D01*
X107190066Y-128261718D01*
X107315000Y-128889804D01*
X107315000Y-129530196D01*
X107190066Y-130158282D01*
X106944999Y-130749926D01*
X106589216Y-131282392D01*
X106136392Y-131735216D01*
X105603926Y-132090999D01*
X105012282Y-132336066D01*
X104698239Y-132398533D01*
X104384197Y-132461000D01*
X103743803Y-132461000D01*
X103429761Y-132398533D01*
X103115718Y-132336066D01*
X102524074Y-132090999D01*
X101991608Y-131735216D01*
X101538784Y-131282392D01*
X101183001Y-130749926D01*
X100937934Y-130158282D01*
X100813000Y-129530196D01*
X100813000Y-128889804D01*
X100937934Y-128261718D01*
X101183001Y-127670074D01*
X101538784Y-127137608D01*
X101991608Y-126684784D01*
X102524074Y-126329001D01*
X103115718Y-126083934D01*
X103429761Y-126021467D01*
X103743803Y-125959000D01*
X104384197Y-125959000D01*
X104698239Y-126021467D01*
X104698239Y-126021467D01*
G37*
G36*
X140017000Y-125031000D02*
G01*
X138215000Y-125031000D01*
X138215000Y-123229000D01*
X140017000Y-123229000D01*
X140017000Y-125031000D01*
X140017000Y-125031000D01*
G37*
G36*
X136686442Y-123235518D02*
G01*
X136752627Y-123242037D01*
X136922466Y-123293557D01*
X137078991Y-123377222D01*
X137114729Y-123406552D01*
X137216186Y-123489814D01*
X137299448Y-123591271D01*
X137328778Y-123627009D01*
X137412443Y-123783534D01*
X137463963Y-123953373D01*
X137481359Y-124130000D01*
X137463963Y-124306627D01*
X137412443Y-124476466D01*
X137328778Y-124632991D01*
X137299448Y-124668729D01*
X137216186Y-124770186D01*
X137114729Y-124853448D01*
X137078991Y-124882778D01*
X136922466Y-124966443D01*
X136752627Y-125017963D01*
X136686443Y-125024481D01*
X136620260Y-125031000D01*
X136531740Y-125031000D01*
X136465557Y-125024481D01*
X136399373Y-125017963D01*
X136229534Y-124966443D01*
X136073009Y-124882778D01*
X136037271Y-124853448D01*
X135935814Y-124770186D01*
X135852552Y-124668729D01*
X135823222Y-124632991D01*
X135739557Y-124476466D01*
X135688037Y-124306627D01*
X135670641Y-124130000D01*
X135688037Y-123953373D01*
X135739557Y-123783534D01*
X135823222Y-123627009D01*
X135852552Y-123591271D01*
X135935814Y-123489814D01*
X136037271Y-123406552D01*
X136073009Y-123377222D01*
X136229534Y-123293557D01*
X136399373Y-123242037D01*
X136465558Y-123235518D01*
X136531740Y-123229000D01*
X136620260Y-123229000D01*
X136686442Y-123235518D01*
X136686442Y-123235518D01*
G37*
G36*
X146790000Y-124816000D02*
G01*
X145158000Y-124816000D01*
X145158000Y-123184000D01*
X146790000Y-123184000D01*
X146790000Y-124816000D01*
X146790000Y-124816000D01*
G37*
G36*
X103864000Y-124816000D02*
G01*
X102232000Y-124816000D01*
X102232000Y-123184000D01*
X103864000Y-123184000D01*
X103864000Y-124816000D01*
X103864000Y-124816000D01*
G37*
G36*
X139226442Y-120695518D02*
G01*
X139292627Y-120702037D01*
X139462466Y-120753557D01*
X139618991Y-120837222D01*
X139654729Y-120866552D01*
X139756186Y-120949814D01*
X139839448Y-121051271D01*
X139868778Y-121087009D01*
X139952443Y-121243534D01*
X140003963Y-121413373D01*
X140021359Y-121590000D01*
X140003963Y-121766627D01*
X139952443Y-121936466D01*
X139868778Y-122092991D01*
X139839448Y-122128729D01*
X139756186Y-122230186D01*
X139654729Y-122313448D01*
X139618991Y-122342778D01*
X139462466Y-122426443D01*
X139292627Y-122477963D01*
X139226442Y-122484482D01*
X139160260Y-122491000D01*
X139071740Y-122491000D01*
X139005558Y-122484482D01*
X138939373Y-122477963D01*
X138769534Y-122426443D01*
X138613009Y-122342778D01*
X138577271Y-122313448D01*
X138475814Y-122230186D01*
X138392552Y-122128729D01*
X138363222Y-122092991D01*
X138279557Y-121936466D01*
X138228037Y-121766627D01*
X138210641Y-121590000D01*
X138228037Y-121413373D01*
X138279557Y-121243534D01*
X138363222Y-121087009D01*
X138392552Y-121051271D01*
X138475814Y-120949814D01*
X138577271Y-120866552D01*
X138613009Y-120837222D01*
X138769534Y-120753557D01*
X138939373Y-120702037D01*
X139005558Y-120695518D01*
X139071740Y-120689000D01*
X139160260Y-120689000D01*
X139226442Y-120695518D01*
X139226442Y-120695518D01*
G37*
G36*
X136686442Y-120695518D02*
G01*
X136752627Y-120702037D01*
X136922466Y-120753557D01*
X137078991Y-120837222D01*
X137114729Y-120866552D01*
X137216186Y-120949814D01*
X137299448Y-121051271D01*
X137328778Y-121087009D01*
X137412443Y-121243534D01*
X137463963Y-121413373D01*
X137481359Y-121590000D01*
X137463963Y-121766627D01*
X137412443Y-121936466D01*
X137328778Y-122092991D01*
X137299448Y-122128729D01*
X137216186Y-122230186D01*
X137114729Y-122313448D01*
X137078991Y-122342778D01*
X136922466Y-122426443D01*
X136752627Y-122477963D01*
X136686442Y-122484482D01*
X136620260Y-122491000D01*
X136531740Y-122491000D01*
X136465558Y-122484482D01*
X136399373Y-122477963D01*
X136229534Y-122426443D01*
X136073009Y-122342778D01*
X136037271Y-122313448D01*
X135935814Y-122230186D01*
X135852552Y-122128729D01*
X135823222Y-122092991D01*
X135739557Y-121936466D01*
X135688037Y-121766627D01*
X135670641Y-121590000D01*
X135688037Y-121413373D01*
X135739557Y-121243534D01*
X135823222Y-121087009D01*
X135852552Y-121051271D01*
X135935814Y-120949814D01*
X136037271Y-120866552D01*
X136073009Y-120837222D01*
X136229534Y-120753557D01*
X136399373Y-120702037D01*
X136465558Y-120695518D01*
X136531740Y-120689000D01*
X136620260Y-120689000D01*
X136686442Y-120695518D01*
X136686442Y-120695518D01*
G37*
G36*
X103286017Y-120675358D02*
G01*
X103360270Y-120706115D01*
X103434521Y-120736870D01*
X103434522Y-120736871D01*
X103568167Y-120826169D01*
X103681831Y-120939833D01*
X103748804Y-121040067D01*
X103771130Y-121073479D01*
X103776734Y-121087009D01*
X103832642Y-121221983D01*
X103864000Y-121379630D01*
X103864000Y-121540370D01*
X103832642Y-121698017D01*
X103804223Y-121766627D01*
X103771130Y-121846521D01*
X103771129Y-121846522D01*
X103681831Y-121980167D01*
X103568167Y-122093831D01*
X103467933Y-122160805D01*
X103434521Y-122183130D01*
X103286017Y-122244642D01*
X103128370Y-122276000D01*
X102967630Y-122276000D01*
X102809983Y-122244642D01*
X102661479Y-122183130D01*
X102628067Y-122160805D01*
X102527833Y-122093831D01*
X102414169Y-121980167D01*
X102324871Y-121846522D01*
X102324870Y-121846521D01*
X102291777Y-121766627D01*
X102263358Y-121698017D01*
X102232000Y-121540370D01*
X102232000Y-121379630D01*
X102263358Y-121221983D01*
X102319266Y-121087009D01*
X102324870Y-121073479D01*
X102347196Y-121040067D01*
X102414169Y-120939833D01*
X102527833Y-120826169D01*
X102661478Y-120736871D01*
X102661479Y-120736870D01*
X102735730Y-120706115D01*
X102809983Y-120675358D01*
X102967630Y-120644000D01*
X103128370Y-120644000D01*
X103286017Y-120675358D01*
X103286017Y-120675358D01*
G37*
G36*
X146212017Y-120675358D02*
G01*
X146286270Y-120706115D01*
X146360521Y-120736870D01*
X146360522Y-120736871D01*
X146494167Y-120826169D01*
X146607831Y-120939833D01*
X146674804Y-121040067D01*
X146697130Y-121073479D01*
X146702734Y-121087009D01*
X146758642Y-121221983D01*
X146790000Y-121379630D01*
X146790000Y-121540370D01*
X146758642Y-121698017D01*
X146730223Y-121766627D01*
X146697130Y-121846521D01*
X146697129Y-121846522D01*
X146607831Y-121980167D01*
X146494167Y-122093831D01*
X146393933Y-122160805D01*
X146360521Y-122183130D01*
X146212017Y-122244642D01*
X146054370Y-122276000D01*
X145893630Y-122276000D01*
X145735983Y-122244642D01*
X145587479Y-122183130D01*
X145554067Y-122160805D01*
X145453833Y-122093831D01*
X145340169Y-121980167D01*
X145250871Y-121846522D01*
X145250870Y-121846521D01*
X145217777Y-121766627D01*
X145189358Y-121698017D01*
X145158000Y-121540370D01*
X145158000Y-121379630D01*
X145189358Y-121221983D01*
X145245266Y-121087009D01*
X145250870Y-121073479D01*
X145273196Y-121040067D01*
X145340169Y-120939833D01*
X145453833Y-120826169D01*
X145587478Y-120736871D01*
X145587479Y-120736870D01*
X145661730Y-120706115D01*
X145735983Y-120675358D01*
X145893630Y-120644000D01*
X146054370Y-120644000D01*
X146212017Y-120675358D01*
X146212017Y-120675358D01*
G37*
G36*
X139226443Y-118155519D02*
G01*
X139292627Y-118162037D01*
X139462466Y-118213557D01*
X139618991Y-118297222D01*
X139654729Y-118326552D01*
X139756186Y-118409814D01*
X139839448Y-118511271D01*
X139868778Y-118547009D01*
X139952443Y-118703534D01*
X140003963Y-118873373D01*
X140021359Y-119050000D01*
X140003963Y-119226627D01*
X139952443Y-119396466D01*
X139868778Y-119552991D01*
X139839448Y-119588729D01*
X139756186Y-119690186D01*
X139654729Y-119773448D01*
X139618991Y-119802778D01*
X139462466Y-119886443D01*
X139292627Y-119937963D01*
X139226442Y-119944482D01*
X139160260Y-119951000D01*
X139071740Y-119951000D01*
X139005558Y-119944482D01*
X138939373Y-119937963D01*
X138769534Y-119886443D01*
X138613009Y-119802778D01*
X138577271Y-119773448D01*
X138475814Y-119690186D01*
X138392552Y-119588729D01*
X138363222Y-119552991D01*
X138279557Y-119396466D01*
X138228037Y-119226627D01*
X138210641Y-119050000D01*
X138228037Y-118873373D01*
X138279557Y-118703534D01*
X138363222Y-118547009D01*
X138392552Y-118511271D01*
X138475814Y-118409814D01*
X138577271Y-118326552D01*
X138613009Y-118297222D01*
X138769534Y-118213557D01*
X138939373Y-118162037D01*
X139005557Y-118155519D01*
X139071740Y-118149000D01*
X139160260Y-118149000D01*
X139226443Y-118155519D01*
X139226443Y-118155519D01*
G37*
G36*
X136686443Y-118155519D02*
G01*
X136752627Y-118162037D01*
X136922466Y-118213557D01*
X137078991Y-118297222D01*
X137114729Y-118326552D01*
X137216186Y-118409814D01*
X137299448Y-118511271D01*
X137328778Y-118547009D01*
X137412443Y-118703534D01*
X137463963Y-118873373D01*
X137481359Y-119050000D01*
X137463963Y-119226627D01*
X137412443Y-119396466D01*
X137328778Y-119552991D01*
X137299448Y-119588729D01*
X137216186Y-119690186D01*
X137114729Y-119773448D01*
X137078991Y-119802778D01*
X136922466Y-119886443D01*
X136752627Y-119937963D01*
X136686442Y-119944482D01*
X136620260Y-119951000D01*
X136531740Y-119951000D01*
X136465558Y-119944482D01*
X136399373Y-119937963D01*
X136229534Y-119886443D01*
X136073009Y-119802778D01*
X136037271Y-119773448D01*
X135935814Y-119690186D01*
X135852552Y-119588729D01*
X135823222Y-119552991D01*
X135739557Y-119396466D01*
X135688037Y-119226627D01*
X135670641Y-119050000D01*
X135688037Y-118873373D01*
X135739557Y-118703534D01*
X135823222Y-118547009D01*
X135852552Y-118511271D01*
X135935814Y-118409814D01*
X136037271Y-118326552D01*
X136073009Y-118297222D01*
X136229534Y-118213557D01*
X136399373Y-118162037D01*
X136465557Y-118155519D01*
X136531740Y-118149000D01*
X136620260Y-118149000D01*
X136686443Y-118155519D01*
X136686443Y-118155519D01*
G37*
G36*
X146212017Y-118135358D02*
G01*
X146360521Y-118196870D01*
X146360522Y-118196871D01*
X146494167Y-118286169D01*
X146607831Y-118399833D01*
X146674805Y-118500067D01*
X146697130Y-118533479D01*
X146702734Y-118547009D01*
X146758642Y-118681983D01*
X146790000Y-118839630D01*
X146790000Y-119000370D01*
X146758642Y-119158017D01*
X146730223Y-119226627D01*
X146697130Y-119306521D01*
X146697129Y-119306522D01*
X146607831Y-119440167D01*
X146494167Y-119553831D01*
X146393933Y-119620804D01*
X146360521Y-119643130D01*
X146212017Y-119704642D01*
X146054370Y-119736000D01*
X145893630Y-119736000D01*
X145735983Y-119704642D01*
X145587479Y-119643130D01*
X145554067Y-119620804D01*
X145453833Y-119553831D01*
X145340169Y-119440167D01*
X145250871Y-119306522D01*
X145250870Y-119306521D01*
X145217777Y-119226627D01*
X145189358Y-119158017D01*
X145158000Y-119000370D01*
X145158000Y-118839630D01*
X145189358Y-118681983D01*
X145245266Y-118547009D01*
X145250870Y-118533479D01*
X145273195Y-118500067D01*
X145340169Y-118399833D01*
X145453833Y-118286169D01*
X145587478Y-118196871D01*
X145587479Y-118196870D01*
X145735983Y-118135358D01*
X145893630Y-118104000D01*
X146054370Y-118104000D01*
X146212017Y-118135358D01*
X146212017Y-118135358D01*
G37*
G36*
X103286017Y-118135358D02*
G01*
X103434521Y-118196870D01*
X103434522Y-118196871D01*
X103568167Y-118286169D01*
X103681831Y-118399833D01*
X103748805Y-118500067D01*
X103771130Y-118533479D01*
X103776734Y-118547009D01*
X103832642Y-118681983D01*
X103864000Y-118839630D01*
X103864000Y-119000370D01*
X103832642Y-119158017D01*
X103804223Y-119226627D01*
X103771130Y-119306521D01*
X103771129Y-119306522D01*
X103681831Y-119440167D01*
X103568167Y-119553831D01*
X103467933Y-119620804D01*
X103434521Y-119643130D01*
X103286017Y-119704642D01*
X103128370Y-119736000D01*
X102967630Y-119736000D01*
X102809983Y-119704642D01*
X102661479Y-119643130D01*
X102628067Y-119620804D01*
X102527833Y-119553831D01*
X102414169Y-119440167D01*
X102324871Y-119306522D01*
X102324870Y-119306521D01*
X102291777Y-119226627D01*
X102263358Y-119158017D01*
X102232000Y-119000370D01*
X102232000Y-118839630D01*
X102263358Y-118681983D01*
X102319266Y-118547009D01*
X102324870Y-118533479D01*
X102347195Y-118500067D01*
X102414169Y-118399833D01*
X102527833Y-118286169D01*
X102661478Y-118196871D01*
X102661479Y-118196870D01*
X102809983Y-118135358D01*
X102967630Y-118104000D01*
X103128370Y-118104000D01*
X103286017Y-118135358D01*
X103286017Y-118135358D01*
G37*
G36*
X146212017Y-115595358D02*
G01*
X146286270Y-115626115D01*
X146360521Y-115656870D01*
X146360522Y-115656871D01*
X146494167Y-115746169D01*
X146607831Y-115859833D01*
X146674805Y-115960067D01*
X146697130Y-115993479D01*
X146758642Y-116141983D01*
X146790000Y-116299630D01*
X146790000Y-116460370D01*
X146758642Y-116618017D01*
X146727885Y-116692270D01*
X146697130Y-116766521D01*
X146697129Y-116766522D01*
X146607831Y-116900167D01*
X146494167Y-117013831D01*
X146393933Y-117080805D01*
X146360521Y-117103130D01*
X146212017Y-117164642D01*
X146054370Y-117196000D01*
X145893630Y-117196000D01*
X145735983Y-117164642D01*
X145587479Y-117103130D01*
X145554067Y-117080805D01*
X145453833Y-117013831D01*
X145340169Y-116900167D01*
X145250871Y-116766522D01*
X145250870Y-116766521D01*
X145220115Y-116692270D01*
X145189358Y-116618017D01*
X145158000Y-116460370D01*
X145158000Y-116299630D01*
X145189358Y-116141983D01*
X145250870Y-115993479D01*
X145273195Y-115960067D01*
X145340169Y-115859833D01*
X145453833Y-115746169D01*
X145587478Y-115656871D01*
X145587479Y-115656870D01*
X145661730Y-115626115D01*
X145735983Y-115595358D01*
X145893630Y-115564000D01*
X146054370Y-115564000D01*
X146212017Y-115595358D01*
X146212017Y-115595358D01*
G37*
G36*
X103286017Y-115595358D02*
G01*
X103360270Y-115626115D01*
X103434521Y-115656870D01*
X103434522Y-115656871D01*
X103568167Y-115746169D01*
X103681831Y-115859833D01*
X103748805Y-115960067D01*
X103771130Y-115993479D01*
X103801885Y-116067730D01*
X103832642Y-116141983D01*
X103864000Y-116299630D01*
X103864000Y-116460370D01*
X103832642Y-116618017D01*
X103801885Y-116692270D01*
X103771130Y-116766521D01*
X103771129Y-116766522D01*
X103681831Y-116900167D01*
X103568167Y-117013831D01*
X103467933Y-117080805D01*
X103434521Y-117103130D01*
X103286017Y-117164642D01*
X103128370Y-117196000D01*
X102967630Y-117196000D01*
X102809983Y-117164642D01*
X102661479Y-117103130D01*
X102628067Y-117080805D01*
X102527833Y-117013831D01*
X102414169Y-116900167D01*
X102324871Y-116766522D01*
X102324870Y-116766521D01*
X102294115Y-116692270D01*
X102263358Y-116618017D01*
X102232000Y-116460370D01*
X102232000Y-116299630D01*
X102263358Y-116141983D01*
X102324870Y-115993479D01*
X102347195Y-115960067D01*
X102414169Y-115859833D01*
X102527833Y-115746169D01*
X102661478Y-115656871D01*
X102661479Y-115656870D01*
X102735730Y-115626115D01*
X102809983Y-115595358D01*
X102967630Y-115564000D01*
X103128370Y-115564000D01*
X103286017Y-115595358D01*
X103286017Y-115595358D01*
G37*
G36*
X114574200Y-112056989D02*
G01*
X114607252Y-112067015D01*
X114637703Y-112083292D01*
X114664399Y-112105201D01*
X114686308Y-112131897D01*
X114702585Y-112162348D01*
X114712611Y-112195400D01*
X114716600Y-112235903D01*
X114716600Y-113672097D01*
X114712611Y-113712600D01*
X114702585Y-113745652D01*
X114686308Y-113776103D01*
X114664399Y-113802799D01*
X114637703Y-113824708D01*
X114607252Y-113840985D01*
X114574200Y-113851011D01*
X114533697Y-113855000D01*
X112847503Y-113855000D01*
X112807000Y-113851011D01*
X112773948Y-113840985D01*
X112743497Y-113824708D01*
X112716801Y-113802799D01*
X112694892Y-113776103D01*
X112678615Y-113745652D01*
X112668589Y-113712600D01*
X112664600Y-113672097D01*
X112664600Y-112235903D01*
X112668589Y-112195400D01*
X112678615Y-112162348D01*
X112694892Y-112131897D01*
X112716801Y-112105201D01*
X112743497Y-112083292D01*
X112773948Y-112067015D01*
X112807000Y-112056989D01*
X112847503Y-112053000D01*
X114533697Y-112053000D01*
X114574200Y-112056989D01*
X114574200Y-112056989D01*
G37*
G36*
X136240400Y-112056989D02*
G01*
X136273452Y-112067015D01*
X136303903Y-112083292D01*
X136330599Y-112105201D01*
X136352508Y-112131897D01*
X136368785Y-112162348D01*
X136378811Y-112195400D01*
X136382800Y-112235903D01*
X136382800Y-113672097D01*
X136378811Y-113712600D01*
X136368785Y-113745652D01*
X136352508Y-113776103D01*
X136330599Y-113802799D01*
X136303903Y-113824708D01*
X136273452Y-113840985D01*
X136240400Y-113851011D01*
X136199897Y-113855000D01*
X134513703Y-113855000D01*
X134473200Y-113851011D01*
X134440148Y-113840985D01*
X134409697Y-113824708D01*
X134383001Y-113802799D01*
X134361092Y-113776103D01*
X134344815Y-113745652D01*
X134334789Y-113712600D01*
X134330800Y-113672097D01*
X134330800Y-112235903D01*
X134334789Y-112195400D01*
X134344815Y-112162348D01*
X134361092Y-112131897D01*
X134383001Y-112105201D01*
X134409697Y-112083292D01*
X134440148Y-112067015D01*
X134473200Y-112056989D01*
X134513703Y-112053000D01*
X136199897Y-112053000D01*
X136240400Y-112056989D01*
X136240400Y-112056989D01*
G37*
G36*
X148565000Y-112497000D02*
G01*
X146939000Y-112497000D01*
X146939000Y-110871000D01*
X148565000Y-110871000D01*
X148565000Y-112497000D01*
X148565000Y-112497000D01*
G37*
G36*
X145449142Y-110902242D02*
G01*
X145597101Y-110963529D01*
X145730255Y-111052499D01*
X145843501Y-111165745D01*
X145932471Y-111298899D01*
X145993758Y-111446858D01*
X146025000Y-111603925D01*
X146025000Y-111764075D01*
X145993758Y-111921142D01*
X145932471Y-112069101D01*
X145843501Y-112202255D01*
X145730255Y-112315501D01*
X145597101Y-112404471D01*
X145449142Y-112465758D01*
X145292075Y-112497000D01*
X145131925Y-112497000D01*
X144974858Y-112465758D01*
X144826899Y-112404471D01*
X144693745Y-112315501D01*
X144580499Y-112202255D01*
X144491529Y-112069101D01*
X144430242Y-111921142D01*
X144399000Y-111764075D01*
X144399000Y-111603925D01*
X144430242Y-111446858D01*
X144491529Y-111298899D01*
X144580499Y-111165745D01*
X144693745Y-111052499D01*
X144826899Y-110963529D01*
X144974858Y-110902242D01*
X145131925Y-110871000D01*
X145292075Y-110871000D01*
X145449142Y-110902242D01*
X145449142Y-110902242D01*
G37*
G36*
X142909142Y-110902242D02*
G01*
X143057101Y-110963529D01*
X143190255Y-111052499D01*
X143303501Y-111165745D01*
X143392471Y-111298899D01*
X143453758Y-111446858D01*
X143485000Y-111603925D01*
X143485000Y-111764075D01*
X143453758Y-111921142D01*
X143392471Y-112069101D01*
X143303501Y-112202255D01*
X143190255Y-112315501D01*
X143057101Y-112404471D01*
X142909142Y-112465758D01*
X142752075Y-112497000D01*
X142591925Y-112497000D01*
X142434858Y-112465758D01*
X142286899Y-112404471D01*
X142153745Y-112315501D01*
X142040499Y-112202255D01*
X141951529Y-112069101D01*
X141890242Y-111921142D01*
X141859000Y-111764075D01*
X141859000Y-111603925D01*
X141890242Y-111446858D01*
X141951529Y-111298899D01*
X142040499Y-111165745D01*
X142153745Y-111052499D01*
X142286899Y-110963529D01*
X142434858Y-110902242D01*
X142591925Y-110871000D01*
X142752075Y-110871000D01*
X142909142Y-110902242D01*
X142909142Y-110902242D01*
G37*
G36*
X107925000Y-112497000D02*
G01*
X106299000Y-112497000D01*
X106299000Y-110871000D01*
X107925000Y-110871000D01*
X107925000Y-112497000D01*
X107925000Y-112497000D01*
G37*
G36*
X104809142Y-110902242D02*
G01*
X104957101Y-110963529D01*
X105090255Y-111052499D01*
X105203501Y-111165745D01*
X105292471Y-111298899D01*
X105353758Y-111446858D01*
X105385000Y-111603925D01*
X105385000Y-111764075D01*
X105353758Y-111921142D01*
X105292471Y-112069101D01*
X105203501Y-112202255D01*
X105090255Y-112315501D01*
X104957101Y-112404471D01*
X104809142Y-112465758D01*
X104652075Y-112497000D01*
X104491925Y-112497000D01*
X104334858Y-112465758D01*
X104186899Y-112404471D01*
X104053745Y-112315501D01*
X103940499Y-112202255D01*
X103851529Y-112069101D01*
X103790242Y-111921142D01*
X103759000Y-111764075D01*
X103759000Y-111603925D01*
X103790242Y-111446858D01*
X103851529Y-111298899D01*
X103940499Y-111165745D01*
X104053745Y-111052499D01*
X104186899Y-110963529D01*
X104334858Y-110902242D01*
X104491925Y-110871000D01*
X104652075Y-110871000D01*
X104809142Y-110902242D01*
X104809142Y-110902242D01*
G37*
G36*
X102269142Y-110902242D02*
G01*
X102417101Y-110963529D01*
X102550255Y-111052499D01*
X102663501Y-111165745D01*
X102752471Y-111298899D01*
X102813758Y-111446858D01*
X102845000Y-111603925D01*
X102845000Y-111764075D01*
X102813758Y-111921142D01*
X102752471Y-112069101D01*
X102663501Y-112202255D01*
X102550255Y-112315501D01*
X102417101Y-112404471D01*
X102269142Y-112465758D01*
X102112075Y-112497000D01*
X101951925Y-112497000D01*
X101794858Y-112465758D01*
X101646899Y-112404471D01*
X101513745Y-112315501D01*
X101400499Y-112202255D01*
X101311529Y-112069101D01*
X101250242Y-111921142D01*
X101219000Y-111764075D01*
X101219000Y-111603925D01*
X101250242Y-111446858D01*
X101311529Y-111298899D01*
X101400499Y-111165745D01*
X101513745Y-111052499D01*
X101646899Y-110963529D01*
X101794858Y-110902242D01*
X101951925Y-110871000D01*
X102112075Y-110871000D01*
X102269142Y-110902242D01*
X102269142Y-110902242D01*
G37*
G36*
X113926043Y-109559519D02*
G01*
X113992227Y-109566037D01*
X114162066Y-109617557D01*
X114318591Y-109701222D01*
X114354329Y-109730552D01*
X114455786Y-109813814D01*
X114539048Y-109915271D01*
X114568378Y-109951009D01*
X114652043Y-110107534D01*
X114703563Y-110277373D01*
X114720959Y-110454000D01*
X114703563Y-110630627D01*
X114652043Y-110800466D01*
X114568378Y-110956991D01*
X114563012Y-110963529D01*
X114455786Y-111094186D01*
X114368592Y-111165743D01*
X114318591Y-111206778D01*
X114162066Y-111290443D01*
X113992227Y-111341963D01*
X113926042Y-111348482D01*
X113859860Y-111355000D01*
X113521340Y-111355000D01*
X113455158Y-111348482D01*
X113388973Y-111341963D01*
X113219134Y-111290443D01*
X113062609Y-111206778D01*
X113012608Y-111165743D01*
X112925414Y-111094186D01*
X112818188Y-110963529D01*
X112812822Y-110956991D01*
X112729157Y-110800466D01*
X112677637Y-110630627D01*
X112660241Y-110454000D01*
X112677637Y-110277373D01*
X112729157Y-110107534D01*
X112812822Y-109951009D01*
X112842152Y-109915271D01*
X112925414Y-109813814D01*
X113026871Y-109730552D01*
X113062609Y-109701222D01*
X113219134Y-109617557D01*
X113388973Y-109566037D01*
X113455157Y-109559519D01*
X113521340Y-109553000D01*
X113859860Y-109553000D01*
X113926043Y-109559519D01*
X113926043Y-109559519D01*
G37*
G36*
X135592243Y-109559519D02*
G01*
X135658427Y-109566037D01*
X135828266Y-109617557D01*
X135984791Y-109701222D01*
X136020529Y-109730552D01*
X136121986Y-109813814D01*
X136205248Y-109915271D01*
X136234578Y-109951009D01*
X136318243Y-110107534D01*
X136369763Y-110277373D01*
X136387159Y-110454000D01*
X136369763Y-110630627D01*
X136318243Y-110800466D01*
X136234578Y-110956991D01*
X136229212Y-110963529D01*
X136121986Y-111094186D01*
X136034792Y-111165743D01*
X135984791Y-111206778D01*
X135828266Y-111290443D01*
X135658427Y-111341963D01*
X135592242Y-111348482D01*
X135526060Y-111355000D01*
X135187540Y-111355000D01*
X135121358Y-111348482D01*
X135055173Y-111341963D01*
X134885334Y-111290443D01*
X134728809Y-111206778D01*
X134678808Y-111165743D01*
X134591614Y-111094186D01*
X134484388Y-110963529D01*
X134479022Y-110956991D01*
X134395357Y-110800466D01*
X134343837Y-110630627D01*
X134326441Y-110454000D01*
X134343837Y-110277373D01*
X134395357Y-110107534D01*
X134479022Y-109951009D01*
X134508352Y-109915271D01*
X134591614Y-109813814D01*
X134693071Y-109730552D01*
X134728809Y-109701222D01*
X134885334Y-109617557D01*
X135055173Y-109566037D01*
X135121357Y-109559519D01*
X135187540Y-109553000D01*
X135526060Y-109553000D01*
X135592243Y-109559519D01*
X135592243Y-109559519D01*
G37*
G36*
X113926043Y-107059519D02*
G01*
X113992227Y-107066037D01*
X114162066Y-107117557D01*
X114318591Y-107201222D01*
X114354329Y-107230552D01*
X114455786Y-107313814D01*
X114539048Y-107415271D01*
X114568378Y-107451009D01*
X114652043Y-107607534D01*
X114703563Y-107777373D01*
X114720959Y-107954000D01*
X114703563Y-108130627D01*
X114652043Y-108300466D01*
X114568378Y-108456991D01*
X114539048Y-108492729D01*
X114455786Y-108594186D01*
X114354329Y-108677448D01*
X114318591Y-108706778D01*
X114162066Y-108790443D01*
X113992227Y-108841963D01*
X113926043Y-108848481D01*
X113859860Y-108855000D01*
X113521340Y-108855000D01*
X113455157Y-108848481D01*
X113388973Y-108841963D01*
X113219134Y-108790443D01*
X113062609Y-108706778D01*
X113026871Y-108677448D01*
X112925414Y-108594186D01*
X112842152Y-108492729D01*
X112812822Y-108456991D01*
X112729157Y-108300466D01*
X112677637Y-108130627D01*
X112660241Y-107954000D01*
X112677637Y-107777373D01*
X112729157Y-107607534D01*
X112812822Y-107451009D01*
X112842152Y-107415271D01*
X112925414Y-107313814D01*
X113026871Y-107230552D01*
X113062609Y-107201222D01*
X113219134Y-107117557D01*
X113388973Y-107066037D01*
X113455157Y-107059519D01*
X113521340Y-107053000D01*
X113859860Y-107053000D01*
X113926043Y-107059519D01*
X113926043Y-107059519D01*
G37*
G36*
X135592243Y-107059519D02*
G01*
X135658427Y-107066037D01*
X135828266Y-107117557D01*
X135984791Y-107201222D01*
X136020529Y-107230552D01*
X136121986Y-107313814D01*
X136205248Y-107415271D01*
X136234578Y-107451009D01*
X136318243Y-107607534D01*
X136369763Y-107777373D01*
X136387159Y-107954000D01*
X136369763Y-108130627D01*
X136318243Y-108300466D01*
X136234578Y-108456991D01*
X136205248Y-108492729D01*
X136121986Y-108594186D01*
X136020529Y-108677448D01*
X135984791Y-108706778D01*
X135828266Y-108790443D01*
X135658427Y-108841963D01*
X135592243Y-108848481D01*
X135526060Y-108855000D01*
X135187540Y-108855000D01*
X135121357Y-108848481D01*
X135055173Y-108841963D01*
X134885334Y-108790443D01*
X134728809Y-108706778D01*
X134693071Y-108677448D01*
X134591614Y-108594186D01*
X134508352Y-108492729D01*
X134479022Y-108456991D01*
X134395357Y-108300466D01*
X134343837Y-108130627D01*
X134326441Y-107954000D01*
X134343837Y-107777373D01*
X134395357Y-107607534D01*
X134479022Y-107451009D01*
X134508352Y-107415271D01*
X134591614Y-107313814D01*
X134693071Y-107230552D01*
X134728809Y-107201222D01*
X134885334Y-107117557D01*
X135055173Y-107066037D01*
X135121357Y-107059519D01*
X135187540Y-107053000D01*
X135526060Y-107053000D01*
X135592243Y-107059519D01*
X135592243Y-107059519D01*
G37*
G36*
X146608239Y-100875467D02*
G01*
X146922282Y-100937934D01*
X147513926Y-101183001D01*
X148046392Y-101538784D01*
X148499216Y-101991608D01*
X148854999Y-102524074D01*
X149100066Y-103115718D01*
X149225000Y-103743804D01*
X149225000Y-104384196D01*
X149100066Y-105012282D01*
X148854999Y-105603926D01*
X148499216Y-106136392D01*
X148046392Y-106589216D01*
X147513926Y-106944999D01*
X146922282Y-107190066D01*
X146608239Y-107252533D01*
X146294197Y-107315000D01*
X145653803Y-107315000D01*
X145339761Y-107252533D01*
X145025718Y-107190066D01*
X144434074Y-106944999D01*
X143901608Y-106589216D01*
X143448784Y-106136392D01*
X143093001Y-105603926D01*
X142847934Y-105012282D01*
X142723000Y-104384196D01*
X142723000Y-103743804D01*
X142847934Y-103115718D01*
X143093001Y-102524074D01*
X143448784Y-101991608D01*
X143901608Y-101538784D01*
X144434074Y-101183001D01*
X145025718Y-100937934D01*
X145339761Y-100875467D01*
X145653803Y-100813000D01*
X146294197Y-100813000D01*
X146608239Y-100875467D01*
X146608239Y-100875467D01*
G37*
G36*
X104698239Y-100875467D02*
G01*
X105012282Y-100937934D01*
X105603926Y-101183001D01*
X106136392Y-101538784D01*
X106589216Y-101991608D01*
X106944999Y-102524074D01*
X107190066Y-103115718D01*
X107315000Y-103743804D01*
X107315000Y-104384196D01*
X107190066Y-105012282D01*
X106944999Y-105603926D01*
X106589216Y-106136392D01*
X106136392Y-106589216D01*
X105603926Y-106944999D01*
X105012282Y-107190066D01*
X104698239Y-107252533D01*
X104384197Y-107315000D01*
X103743803Y-107315000D01*
X103429761Y-107252533D01*
X103115718Y-107190066D01*
X102524074Y-106944999D01*
X101991608Y-106589216D01*
X101538784Y-106136392D01*
X101183001Y-105603926D01*
X100937934Y-105012282D01*
X100813000Y-104384196D01*
X100813000Y-103743804D01*
X100937934Y-103115718D01*
X101183001Y-102524074D01*
X101538784Y-101991608D01*
X101991608Y-101538784D01*
X102524074Y-101183001D01*
X103115718Y-100937934D01*
X103429761Y-100875467D01*
X103743803Y-100813000D01*
X104384197Y-100813000D01*
X104698239Y-100875467D01*
X104698239Y-100875467D01*
G37*
G36*
X135592243Y-104559519D02*
G01*
X135658427Y-104566037D01*
X135828266Y-104617557D01*
X135984791Y-104701222D01*
X136020529Y-104730552D01*
X136121986Y-104813814D01*
X136205248Y-104915271D01*
X136234578Y-104951009D01*
X136318243Y-105107534D01*
X136369763Y-105277373D01*
X136387159Y-105454000D01*
X136369763Y-105630627D01*
X136318243Y-105800466D01*
X136234578Y-105956991D01*
X136205248Y-105992729D01*
X136121986Y-106094186D01*
X136020529Y-106177448D01*
X135984791Y-106206778D01*
X135828266Y-106290443D01*
X135658427Y-106341963D01*
X135592243Y-106348481D01*
X135526060Y-106355000D01*
X135187540Y-106355000D01*
X135121357Y-106348481D01*
X135055173Y-106341963D01*
X134885334Y-106290443D01*
X134728809Y-106206778D01*
X134693071Y-106177448D01*
X134591614Y-106094186D01*
X134508352Y-105992729D01*
X134479022Y-105956991D01*
X134395357Y-105800466D01*
X134343837Y-105630627D01*
X134326441Y-105454000D01*
X134343837Y-105277373D01*
X134395357Y-105107534D01*
X134479022Y-104951009D01*
X134508352Y-104915271D01*
X134591614Y-104813814D01*
X134693071Y-104730552D01*
X134728809Y-104701222D01*
X134885334Y-104617557D01*
X135055173Y-104566037D01*
X135121357Y-104559519D01*
X135187540Y-104553000D01*
X135526060Y-104553000D01*
X135592243Y-104559519D01*
X135592243Y-104559519D01*
G37*
G36*
X113926043Y-104559519D02*
G01*
X113992227Y-104566037D01*
X114162066Y-104617557D01*
X114318591Y-104701222D01*
X114354329Y-104730552D01*
X114455786Y-104813814D01*
X114539048Y-104915271D01*
X114568378Y-104951009D01*
X114652043Y-105107534D01*
X114703563Y-105277373D01*
X114720959Y-105454000D01*
X114703563Y-105630627D01*
X114652043Y-105800466D01*
X114568378Y-105956991D01*
X114539048Y-105992729D01*
X114455786Y-106094186D01*
X114354329Y-106177448D01*
X114318591Y-106206778D01*
X114162066Y-106290443D01*
X113992227Y-106341963D01*
X113926043Y-106348481D01*
X113859860Y-106355000D01*
X113521340Y-106355000D01*
X113455157Y-106348481D01*
X113388973Y-106341963D01*
X113219134Y-106290443D01*
X113062609Y-106206778D01*
X113026871Y-106177448D01*
X112925414Y-106094186D01*
X112842152Y-105992729D01*
X112812822Y-105956991D01*
X112729157Y-105800466D01*
X112677637Y-105630627D01*
X112660241Y-105454000D01*
X112677637Y-105277373D01*
X112729157Y-105107534D01*
X112812822Y-104951009D01*
X112842152Y-104915271D01*
X112925414Y-104813814D01*
X113026871Y-104730552D01*
X113062609Y-104701222D01*
X113219134Y-104617557D01*
X113388973Y-104566037D01*
X113455157Y-104559519D01*
X113521340Y-104553000D01*
X113859860Y-104553000D01*
X113926043Y-104559519D01*
X113926043Y-104559519D01*
G37*
G36*
X135592242Y-102059518D02*
G01*
X135658427Y-102066037D01*
X135828266Y-102117557D01*
X135984791Y-102201222D01*
X136020529Y-102230552D01*
X136121986Y-102313814D01*
X136205248Y-102415271D01*
X136234578Y-102451009D01*
X136318243Y-102607534D01*
X136369763Y-102777373D01*
X136387159Y-102954000D01*
X136369763Y-103130627D01*
X136318243Y-103300466D01*
X136234578Y-103456991D01*
X136205248Y-103492729D01*
X136121986Y-103594186D01*
X136020529Y-103677448D01*
X135984791Y-103706778D01*
X135828266Y-103790443D01*
X135658427Y-103841963D01*
X135592243Y-103848481D01*
X135526060Y-103855000D01*
X135187540Y-103855000D01*
X135121357Y-103848481D01*
X135055173Y-103841963D01*
X134885334Y-103790443D01*
X134728809Y-103706778D01*
X134693071Y-103677448D01*
X134591614Y-103594186D01*
X134508352Y-103492729D01*
X134479022Y-103456991D01*
X134395357Y-103300466D01*
X134343837Y-103130627D01*
X134326441Y-102954000D01*
X134343837Y-102777373D01*
X134395357Y-102607534D01*
X134479022Y-102451009D01*
X134508352Y-102415271D01*
X134591614Y-102313814D01*
X134693071Y-102230552D01*
X134728809Y-102201222D01*
X134885334Y-102117557D01*
X135055173Y-102066037D01*
X135121357Y-102059519D01*
X135187540Y-102053000D01*
X135526060Y-102053000D01*
X135592242Y-102059518D01*
X135592242Y-102059518D01*
G37*
G36*
X113926042Y-102059518D02*
G01*
X113992227Y-102066037D01*
X114162066Y-102117557D01*
X114318591Y-102201222D01*
X114354329Y-102230552D01*
X114455786Y-102313814D01*
X114539048Y-102415271D01*
X114568378Y-102451009D01*
X114652043Y-102607534D01*
X114703563Y-102777373D01*
X114720959Y-102954000D01*
X114703563Y-103130627D01*
X114652043Y-103300466D01*
X114568378Y-103456991D01*
X114539048Y-103492729D01*
X114455786Y-103594186D01*
X114354329Y-103677448D01*
X114318591Y-103706778D01*
X114162066Y-103790443D01*
X113992227Y-103841963D01*
X113926043Y-103848481D01*
X113859860Y-103855000D01*
X113521340Y-103855000D01*
X113455157Y-103848481D01*
X113388973Y-103841963D01*
X113219134Y-103790443D01*
X113062609Y-103706778D01*
X113026871Y-103677448D01*
X112925414Y-103594186D01*
X112842152Y-103492729D01*
X112812822Y-103456991D01*
X112729157Y-103300466D01*
X112677637Y-103130627D01*
X112660241Y-102954000D01*
X112677637Y-102777373D01*
X112729157Y-102607534D01*
X112812822Y-102451009D01*
X112842152Y-102415271D01*
X112925414Y-102313814D01*
X113026871Y-102230552D01*
X113062609Y-102201222D01*
X113219134Y-102117557D01*
X113388973Y-102066037D01*
X113455157Y-102059519D01*
X113521340Y-102053000D01*
X113859860Y-102053000D01*
X113926042Y-102059518D01*
X113926042Y-102059518D01*
G37*
M02*
