G04 #@! TF.GenerationSoftware,KiCad,Pcbnew,(5.1.0-0)*
G04 #@! TF.CreationDate,2019-05-01T12:35:33-05:00*
G04 #@! TF.ProjectId,splitflap-pcb,73706c69-7466-46c6-9170-2d7063622e6b,rev?*
G04 #@! TF.SameCoordinates,Original*
G04 #@! TF.FileFunction,Copper,L2,Bot*
G04 #@! TF.FilePolarity,Positive*
%FSLAX46Y46*%
G04 Gerber Fmt 4.6, Leading zero omitted, Abs format (unit mm)*
G04 Created by KiCad (PCBNEW (5.1.0-0)) date 2019-05-01 12:35:33*
%MOMM*%
%LPD*%
G04 APERTURE LIST*
%ADD10R,1.700000X1.700000*%
%ADD11O,1.700000X1.700000*%
%ADD12C,0.100000*%
%ADD13C,1.700000*%
%ADD14O,1.950000X1.700000*%
%ADD15C,1.530000*%
%ADD16R,1.530000X1.530000*%
%ADD17R,1.524000X1.524000*%
%ADD18C,1.524000*%
%ADD19C,6.400000*%
%ADD20C,0.800000*%
%ADD21C,0.250000*%
%ADD22C,0.500000*%
%ADD23C,2.000000*%
%ADD24C,0.254000*%
G04 APERTURE END LIST*
D10*
X139116000Y-124130000D03*
D11*
X136576000Y-124130000D03*
X139116000Y-121590000D03*
X136576000Y-121590000D03*
X139116000Y-119050000D03*
X136576000Y-119050000D03*
D12*
G36*
X114440104Y-112105204D02*
G01*
X114464373Y-112108804D01*
X114488171Y-112114765D01*
X114511271Y-112123030D01*
X114533449Y-112133520D01*
X114554493Y-112146133D01*
X114574198Y-112160747D01*
X114592377Y-112177223D01*
X114608853Y-112195402D01*
X114623467Y-112215107D01*
X114636080Y-112236151D01*
X114646570Y-112258329D01*
X114654835Y-112281429D01*
X114660796Y-112305227D01*
X114664396Y-112329496D01*
X114665600Y-112354000D01*
X114665600Y-113554000D01*
X114664396Y-113578504D01*
X114660796Y-113602773D01*
X114654835Y-113626571D01*
X114646570Y-113649671D01*
X114636080Y-113671849D01*
X114623467Y-113692893D01*
X114608853Y-113712598D01*
X114592377Y-113730777D01*
X114574198Y-113747253D01*
X114554493Y-113761867D01*
X114533449Y-113774480D01*
X114511271Y-113784970D01*
X114488171Y-113793235D01*
X114464373Y-113799196D01*
X114440104Y-113802796D01*
X114415600Y-113804000D01*
X112965600Y-113804000D01*
X112941096Y-113802796D01*
X112916827Y-113799196D01*
X112893029Y-113793235D01*
X112869929Y-113784970D01*
X112847751Y-113774480D01*
X112826707Y-113761867D01*
X112807002Y-113747253D01*
X112788823Y-113730777D01*
X112772347Y-113712598D01*
X112757733Y-113692893D01*
X112745120Y-113671849D01*
X112734630Y-113649671D01*
X112726365Y-113626571D01*
X112720404Y-113602773D01*
X112716804Y-113578504D01*
X112715600Y-113554000D01*
X112715600Y-112354000D01*
X112716804Y-112329496D01*
X112720404Y-112305227D01*
X112726365Y-112281429D01*
X112734630Y-112258329D01*
X112745120Y-112236151D01*
X112757733Y-112215107D01*
X112772347Y-112195402D01*
X112788823Y-112177223D01*
X112807002Y-112160747D01*
X112826707Y-112146133D01*
X112847751Y-112133520D01*
X112869929Y-112123030D01*
X112893029Y-112114765D01*
X112916827Y-112108804D01*
X112941096Y-112105204D01*
X112965600Y-112104000D01*
X114415600Y-112104000D01*
X114440104Y-112105204D01*
X114440104Y-112105204D01*
G37*
D13*
X113690600Y-112954000D03*
D14*
X113690600Y-110454000D03*
X113690600Y-107954000D03*
X113690600Y-105454000D03*
X113690600Y-102954000D03*
X135356800Y-102954000D03*
X135356800Y-105454000D03*
X135356800Y-107954000D03*
X135356800Y-110454000D03*
D12*
G36*
X136106304Y-112105204D02*
G01*
X136130573Y-112108804D01*
X136154371Y-112114765D01*
X136177471Y-112123030D01*
X136199649Y-112133520D01*
X136220693Y-112146133D01*
X136240398Y-112160747D01*
X136258577Y-112177223D01*
X136275053Y-112195402D01*
X136289667Y-112215107D01*
X136302280Y-112236151D01*
X136312770Y-112258329D01*
X136321035Y-112281429D01*
X136326996Y-112305227D01*
X136330596Y-112329496D01*
X136331800Y-112354000D01*
X136331800Y-113554000D01*
X136330596Y-113578504D01*
X136326996Y-113602773D01*
X136321035Y-113626571D01*
X136312770Y-113649671D01*
X136302280Y-113671849D01*
X136289667Y-113692893D01*
X136275053Y-113712598D01*
X136258577Y-113730777D01*
X136240398Y-113747253D01*
X136220693Y-113761867D01*
X136199649Y-113774480D01*
X136177471Y-113784970D01*
X136154371Y-113793235D01*
X136130573Y-113799196D01*
X136106304Y-113802796D01*
X136081800Y-113804000D01*
X134631800Y-113804000D01*
X134607296Y-113802796D01*
X134583027Y-113799196D01*
X134559229Y-113793235D01*
X134536129Y-113784970D01*
X134513951Y-113774480D01*
X134492907Y-113761867D01*
X134473202Y-113747253D01*
X134455023Y-113730777D01*
X134438547Y-113712598D01*
X134423933Y-113692893D01*
X134411320Y-113671849D01*
X134400830Y-113649671D01*
X134392565Y-113626571D01*
X134386604Y-113602773D01*
X134383004Y-113578504D01*
X134381800Y-113554000D01*
X134381800Y-112354000D01*
X134383004Y-112329496D01*
X134386604Y-112305227D01*
X134392565Y-112281429D01*
X134400830Y-112258329D01*
X134411320Y-112236151D01*
X134423933Y-112215107D01*
X134438547Y-112195402D01*
X134455023Y-112177223D01*
X134473202Y-112160747D01*
X134492907Y-112146133D01*
X134513951Y-112133520D01*
X134536129Y-112123030D01*
X134559229Y-112114765D01*
X134583027Y-112108804D01*
X134607296Y-112105204D01*
X134631800Y-112104000D01*
X136081800Y-112104000D01*
X136106304Y-112105204D01*
X136106304Y-112105204D01*
G37*
D13*
X135356800Y-112954000D03*
D15*
X103048000Y-121460000D03*
D16*
X103048000Y-124000000D03*
D15*
X103048000Y-118920000D03*
X103048000Y-116380000D03*
D17*
X107112000Y-111684000D03*
D18*
X104572000Y-111684000D03*
X102032000Y-111684000D03*
X142672000Y-111684000D03*
X145212000Y-111684000D03*
D17*
X147752000Y-111684000D03*
D15*
X145974000Y-121460000D03*
D16*
X145974000Y-124000000D03*
D15*
X145974000Y-118920000D03*
X145974000Y-116380000D03*
D19*
X145974000Y-104064000D03*
X104064000Y-129210000D03*
X104064000Y-104064000D03*
X145974000Y-129210000D03*
D20*
X108128000Y-101016000D03*
X109906000Y-101016000D03*
X111684000Y-101016000D03*
X113462000Y-101016000D03*
X115240000Y-101016000D03*
X117018000Y-101016000D03*
X118796000Y-101016000D03*
X120320000Y-101016000D03*
X122352000Y-101016000D03*
X124130000Y-101016000D03*
X125908000Y-101016000D03*
X127686000Y-101016000D03*
X131242000Y-101016000D03*
X133020000Y-101016000D03*
X134798000Y-101016000D03*
X136576000Y-101016000D03*
X138354000Y-101016000D03*
X140132000Y-101016000D03*
X141910000Y-101016000D03*
X143688000Y-101016000D03*
X108128000Y-102794000D03*
X109017000Y-101879600D03*
X140132000Y-102794000D03*
X141910000Y-102794000D03*
X108128000Y-104572000D03*
X124307800Y-105080000D03*
X126670000Y-105080000D03*
X141910000Y-104572000D03*
X108128000Y-106350000D03*
X124307800Y-106604000D03*
X126670000Y-106604000D03*
X141910000Y-106350000D03*
X149022000Y-106350000D03*
X101016000Y-108128000D03*
X102794000Y-108128000D03*
X104572000Y-108128000D03*
X106350000Y-108128000D03*
X108128000Y-108128000D03*
X124307800Y-108128000D03*
X126009600Y-108128000D03*
X141910000Y-108128000D03*
X143688000Y-108128000D03*
X145466000Y-108128000D03*
X147244000Y-108128000D03*
X149022000Y-108128000D03*
X101016000Y-109906000D03*
X102794000Y-109906000D03*
X104572000Y-109906000D03*
X106350000Y-109906000D03*
X108128000Y-109906000D03*
X141910000Y-109906000D03*
X143688000Y-109906000D03*
X145466000Y-109906000D03*
X147244000Y-109906000D03*
X149022000Y-109906000D03*
X103200400Y-113462000D03*
X104572000Y-113462000D03*
X106146800Y-113462000D03*
X116662400Y-113639800D03*
X122250400Y-113512800D03*
X127686000Y-113716000D03*
X110414000Y-114986000D03*
X111684000Y-114986000D03*
X113462000Y-114986000D03*
X115595600Y-115240000D03*
X117424400Y-115240000D03*
X119050000Y-115240000D03*
X120370800Y-115240000D03*
X127305000Y-114986000D03*
X138354000Y-115748000D03*
X148869600Y-115240000D03*
X108128000Y-117526000D03*
X113055600Y-117221200D03*
X117424400Y-117018000D03*
X119050000Y-117018000D03*
X132867600Y-117856200D03*
X134798000Y-116865600D03*
X136576000Y-116865600D03*
X138201600Y-117094200D03*
X140132000Y-116865600D03*
X148869600Y-117018000D03*
X104927600Y-118796000D03*
X106553200Y-118796000D03*
X108128000Y-118796000D03*
X110414000Y-119558000D03*
X112192000Y-119558000D03*
X113970000Y-119558000D03*
X117424400Y-118796000D03*
X119050000Y-118796000D03*
X141910000Y-118796000D03*
X143688000Y-118796000D03*
X148869600Y-118796000D03*
X104927600Y-120218400D03*
X106553200Y-120218400D03*
X108128000Y-120218400D03*
X110414000Y-121336000D03*
X112192000Y-121336000D03*
X113970000Y-121336000D03*
X117424400Y-120574000D03*
X141910000Y-120574000D03*
X143688000Y-120574000D03*
X148869600Y-120574000D03*
X106553200Y-121844000D03*
X108128000Y-121844000D03*
X110414000Y-123114000D03*
X112192000Y-123114000D03*
X113970000Y-123114000D03*
X125908000Y-122352000D03*
X127686000Y-122504400D03*
X141910000Y-121945600D03*
X143688000Y-121869400D03*
X148869600Y-122352000D03*
X108128000Y-123368000D03*
X118288000Y-123622000D03*
X141884600Y-123444200D03*
X148869600Y-124130000D03*
X101143000Y-126111200D03*
X148869600Y-125908000D03*
X111633200Y-128194000D03*
X111633200Y-126924000D03*
X136576000Y-128092400D03*
X138354000Y-128092400D03*
X140132000Y-128092400D03*
X141910000Y-128092400D03*
X133020000Y-129464000D03*
X134798000Y-129464000D03*
X136576000Y-129464000D03*
X138354000Y-129464000D03*
X140132000Y-129464000D03*
X141910000Y-129464000D03*
X124892000Y-130988000D03*
X131242000Y-130835600D03*
X133020000Y-130835600D03*
X134798000Y-130835600D03*
X136576000Y-130835600D03*
X138354000Y-130835600D03*
X140132000Y-130835600D03*
X141910000Y-130835600D03*
X108128000Y-132258000D03*
X109906000Y-132258000D03*
X111684000Y-132258000D03*
X113462000Y-132258000D03*
X115240000Y-132258000D03*
X117018000Y-132258000D03*
X118796000Y-132258000D03*
X120574000Y-132258000D03*
X122352000Y-132258000D03*
X124130000Y-132258000D03*
X125908000Y-132258000D03*
X127686000Y-132258000D03*
X129464000Y-132258000D03*
X131242000Y-132258000D03*
X133020000Y-132258000D03*
X134798000Y-132258000D03*
X136576000Y-132258000D03*
X138354000Y-132258000D03*
X140132000Y-132258000D03*
X141910000Y-132258000D03*
X136576000Y-115748000D03*
X134798000Y-115748000D03*
X148869600Y-113462000D03*
X144196000Y-114351000D03*
X147244000Y-114351000D03*
X133731200Y-116941800D03*
X134798000Y-117983200D03*
X123317200Y-123672800D03*
X115951200Y-104800600D03*
X133883600Y-122555200D03*
X118389600Y-112242800D03*
X118389600Y-113512800D03*
X103860800Y-114427200D03*
X105384800Y-114427200D03*
X133934400Y-124079200D03*
X125501600Y-105029200D03*
X125501600Y-106604000D03*
X124892000Y-109118600D03*
X140894000Y-111506200D03*
X112852400Y-126924000D03*
X112852400Y-128194000D03*
X129692600Y-100914400D03*
X112192000Y-106756400D03*
X112166600Y-109220200D03*
X118135600Y-104800600D03*
X133248600Y-112903200D03*
X129718000Y-114909800D03*
X128600400Y-116002000D03*
X130632400Y-115976600D03*
X122250400Y-112242800D03*
X133197800Y-105105400D03*
X136804600Y-106705600D03*
X136830000Y-109194800D03*
X107493000Y-130937200D03*
X106451600Y-132283400D03*
X143459400Y-132258000D03*
X111328400Y-117195800D03*
X131673800Y-110871200D03*
X108890000Y-116256000D03*
X137592000Y-114478000D03*
X143180000Y-113462000D03*
X122352000Y-116256000D03*
X125831800Y-116306800D03*
X127635200Y-109804400D03*
X127635000Y-112243000D03*
X114732000Y-125400000D03*
X123005999Y-125000001D03*
X119195999Y-125000001D03*
X128302001Y-125000001D03*
X132512000Y-126416000D03*
X128448000Y-121336000D03*
X131496000Y-121336000D03*
X131496000Y-119050000D03*
X127025600Y-121082000D03*
X123876000Y-110922000D03*
X125908000Y-110922000D03*
X123876000Y-117272000D03*
X126162000Y-117526000D03*
X124130000Y-129464000D03*
X127686000Y-125908000D03*
X130226000Y-127432000D03*
X133528000Y-127940000D03*
D21*
X137592000Y-114478000D02*
X140894000Y-114478000D01*
X140894000Y-114478000D02*
X142164000Y-114478000D01*
X142164000Y-114478000D02*
X143180000Y-113462000D01*
X143180000Y-113462000D02*
X143180000Y-113462000D01*
X108890000Y-116256000D02*
X107112000Y-114478000D01*
X107112000Y-114478000D02*
X107112000Y-111684000D01*
D22*
X122402800Y-116306800D02*
X122352000Y-116256000D01*
X125831800Y-116306800D02*
X122402800Y-116306800D01*
D21*
X127635200Y-112242800D02*
X127635000Y-112243000D01*
X127635200Y-109804400D02*
X127635200Y-112242800D01*
D23*
X135356800Y-102954000D02*
X113690600Y-102954000D01*
D21*
X115131999Y-125000001D02*
X119195999Y-125000001D01*
X114732000Y-125400000D02*
X115131999Y-125000001D01*
X123005999Y-125000001D02*
X123005999Y-125000001D01*
X119195999Y-125000001D02*
X123005999Y-125000001D01*
X128302001Y-125000001D02*
X131096001Y-125000001D01*
X131096001Y-125000001D02*
X132512000Y-126416000D01*
X132512000Y-126416000D02*
X132512000Y-126416000D01*
X128448000Y-121336000D02*
X131496000Y-121336000D01*
X127628998Y-121082000D02*
X129660998Y-119050000D01*
X129660998Y-119050000D02*
X131496000Y-119050000D01*
X131496000Y-119050000D02*
X131496000Y-119050000D01*
X127628998Y-121082000D02*
X127025600Y-121082000D01*
X125908000Y-110922000D02*
X123876000Y-110922000D01*
X126162000Y-117272000D02*
X126162000Y-117272000D01*
X125908000Y-117272000D02*
X126162000Y-117526000D01*
X123876000Y-117272000D02*
X125908000Y-117272000D01*
X124130000Y-129464000D02*
X127686000Y-125908000D01*
X127686000Y-125908000D02*
X127686000Y-125908000D01*
X130226000Y-127432000D02*
X130226000Y-127432000D01*
X130734000Y-127940000D02*
X133528000Y-127940000D01*
X130226000Y-127432000D02*
X130734000Y-127940000D01*
D24*
G36*
X149340000Y-132640000D02*
G01*
X100660000Y-132640000D01*
X100660000Y-129362061D01*
X123095000Y-129362061D01*
X123095000Y-129565939D01*
X123134774Y-129765898D01*
X123212795Y-129954256D01*
X123326063Y-130123774D01*
X123470226Y-130267937D01*
X123639744Y-130381205D01*
X123828102Y-130459226D01*
X124028061Y-130499000D01*
X124231939Y-130499000D01*
X124431898Y-130459226D01*
X124620256Y-130381205D01*
X124789774Y-130267937D01*
X124933937Y-130123774D01*
X125047205Y-129954256D01*
X125125226Y-129765898D01*
X125165000Y-129565939D01*
X125165000Y-129503801D01*
X127725803Y-126943000D01*
X127787939Y-126943000D01*
X127987898Y-126903226D01*
X128176256Y-126825205D01*
X128345774Y-126711937D01*
X128489937Y-126567774D01*
X128603205Y-126398256D01*
X128681226Y-126209898D01*
X128721000Y-126009939D01*
X128721000Y-125946722D01*
X128792257Y-125917206D01*
X128961775Y-125803938D01*
X129005712Y-125760001D01*
X130781200Y-125760001D01*
X131477000Y-126455802D01*
X131477000Y-126517939D01*
X131516774Y-126717898D01*
X131594795Y-126906256D01*
X131708063Y-127075774D01*
X131812289Y-127180000D01*
X131231151Y-127180000D01*
X131221226Y-127130102D01*
X131143205Y-126941744D01*
X131029937Y-126772226D01*
X130885774Y-126628063D01*
X130716256Y-126514795D01*
X130527898Y-126436774D01*
X130327939Y-126397000D01*
X130124061Y-126397000D01*
X129924102Y-126436774D01*
X129735744Y-126514795D01*
X129566226Y-126628063D01*
X129422063Y-126772226D01*
X129308795Y-126941744D01*
X129230774Y-127130102D01*
X129191000Y-127330061D01*
X129191000Y-127533939D01*
X129230774Y-127733898D01*
X129308795Y-127922256D01*
X129422063Y-128091774D01*
X129566226Y-128235937D01*
X129735744Y-128349205D01*
X129924102Y-128427226D01*
X130124061Y-128467000D01*
X130183329Y-128467000D01*
X130193999Y-128480001D01*
X130309724Y-128574974D01*
X130441753Y-128645546D01*
X130585014Y-128689003D01*
X130696667Y-128700000D01*
X130696676Y-128700000D01*
X130733999Y-128703676D01*
X130771322Y-128700000D01*
X132824289Y-128700000D01*
X132868226Y-128743937D01*
X133037744Y-128857205D01*
X133226102Y-128935226D01*
X133426061Y-128975000D01*
X133629939Y-128975000D01*
X133829898Y-128935226D01*
X134018256Y-128857205D01*
X134187774Y-128743937D01*
X134331937Y-128599774D01*
X134445205Y-128430256D01*
X134523226Y-128241898D01*
X134563000Y-128041939D01*
X134563000Y-127838061D01*
X134523226Y-127638102D01*
X134445205Y-127449744D01*
X134331937Y-127280226D01*
X134187774Y-127136063D01*
X134018256Y-127022795D01*
X133829898Y-126944774D01*
X133629939Y-126905000D01*
X133429725Y-126905000D01*
X133507226Y-126717898D01*
X133547000Y-126517939D01*
X133547000Y-126314061D01*
X133507226Y-126114102D01*
X133429205Y-125925744D01*
X133315937Y-125756226D01*
X133171774Y-125612063D01*
X133002256Y-125498795D01*
X132813898Y-125420774D01*
X132613939Y-125381000D01*
X132551802Y-125381000D01*
X131659805Y-124489004D01*
X131636002Y-124460000D01*
X131520277Y-124365027D01*
X131388248Y-124294455D01*
X131244987Y-124250998D01*
X131133334Y-124240001D01*
X131133323Y-124240001D01*
X131096001Y-124236325D01*
X131058679Y-124240001D01*
X129005712Y-124240001D01*
X128961775Y-124196064D01*
X128792257Y-124082796D01*
X128603899Y-124004775D01*
X128403940Y-123965001D01*
X128200062Y-123965001D01*
X128000103Y-124004775D01*
X127811745Y-124082796D01*
X127642227Y-124196064D01*
X127498064Y-124340227D01*
X127384796Y-124509745D01*
X127306775Y-124698103D01*
X127267001Y-124898062D01*
X127267001Y-124961279D01*
X127195744Y-124990795D01*
X127026226Y-125104063D01*
X126882063Y-125248226D01*
X126768795Y-125417744D01*
X126690774Y-125606102D01*
X126651000Y-125806061D01*
X126651000Y-125868197D01*
X124090199Y-128429000D01*
X124028061Y-128429000D01*
X123828102Y-128468774D01*
X123639744Y-128546795D01*
X123470226Y-128660063D01*
X123326063Y-128804226D01*
X123212795Y-128973744D01*
X123134774Y-129162102D01*
X123095000Y-129362061D01*
X100660000Y-129362061D01*
X100660000Y-123235000D01*
X101644928Y-123235000D01*
X101644928Y-124765000D01*
X101657188Y-124889482D01*
X101693498Y-125009180D01*
X101752463Y-125119494D01*
X101831815Y-125216185D01*
X101928506Y-125295537D01*
X102038820Y-125354502D01*
X102158518Y-125390812D01*
X102283000Y-125403072D01*
X103813000Y-125403072D01*
X103937482Y-125390812D01*
X104057180Y-125354502D01*
X104162772Y-125298061D01*
X113697000Y-125298061D01*
X113697000Y-125501939D01*
X113736774Y-125701898D01*
X113814795Y-125890256D01*
X113928063Y-126059774D01*
X114072226Y-126203937D01*
X114241744Y-126317205D01*
X114430102Y-126395226D01*
X114630061Y-126435000D01*
X114833939Y-126435000D01*
X115033898Y-126395226D01*
X115222256Y-126317205D01*
X115391774Y-126203937D01*
X115535937Y-126059774D01*
X115649205Y-125890256D01*
X115703159Y-125760001D01*
X118492288Y-125760001D01*
X118536225Y-125803938D01*
X118705743Y-125917206D01*
X118894101Y-125995227D01*
X119094060Y-126035001D01*
X119297938Y-126035001D01*
X119497897Y-125995227D01*
X119686255Y-125917206D01*
X119855773Y-125803938D01*
X119899710Y-125760001D01*
X122302288Y-125760001D01*
X122346225Y-125803938D01*
X122515743Y-125917206D01*
X122704101Y-125995227D01*
X122904060Y-126035001D01*
X123107938Y-126035001D01*
X123307897Y-125995227D01*
X123496255Y-125917206D01*
X123665773Y-125803938D01*
X123809936Y-125659775D01*
X123923204Y-125490257D01*
X124001225Y-125301899D01*
X124040999Y-125101940D01*
X124040999Y-124898062D01*
X124001225Y-124698103D01*
X123923204Y-124509745D01*
X123809936Y-124340227D01*
X123665773Y-124196064D01*
X123496255Y-124082796D01*
X123307897Y-124004775D01*
X123107938Y-123965001D01*
X122904060Y-123965001D01*
X122704101Y-124004775D01*
X122515743Y-124082796D01*
X122346225Y-124196064D01*
X122302288Y-124240001D01*
X119899710Y-124240001D01*
X119855773Y-124196064D01*
X119686255Y-124082796D01*
X119497897Y-124004775D01*
X119297938Y-123965001D01*
X119094060Y-123965001D01*
X118894101Y-124004775D01*
X118705743Y-124082796D01*
X118536225Y-124196064D01*
X118492288Y-124240001D01*
X115169321Y-124240001D01*
X115131998Y-124236325D01*
X115094676Y-124240001D01*
X115094666Y-124240001D01*
X114983013Y-124250998D01*
X114839752Y-124294455D01*
X114707774Y-124365000D01*
X114630061Y-124365000D01*
X114430102Y-124404774D01*
X114241744Y-124482795D01*
X114072226Y-124596063D01*
X113928063Y-124740226D01*
X113814795Y-124909744D01*
X113736774Y-125098102D01*
X113697000Y-125298061D01*
X104162772Y-125298061D01*
X104167494Y-125295537D01*
X104264185Y-125216185D01*
X104343537Y-125119494D01*
X104402502Y-125009180D01*
X104438812Y-124889482D01*
X104451072Y-124765000D01*
X104451072Y-123235000D01*
X104438812Y-123110518D01*
X104402502Y-122990820D01*
X104343537Y-122880506D01*
X104264185Y-122783815D01*
X104167494Y-122704463D01*
X104057180Y-122645498D01*
X103937482Y-122609188D01*
X103859541Y-122601512D01*
X103940448Y-122547451D01*
X104135451Y-122352448D01*
X104288664Y-122123149D01*
X104394199Y-121868365D01*
X104448000Y-121597888D01*
X104448000Y-121322112D01*
X104394199Y-121051635D01*
X104364553Y-120980061D01*
X125990600Y-120980061D01*
X125990600Y-121183939D01*
X126030374Y-121383898D01*
X126108395Y-121572256D01*
X126221663Y-121741774D01*
X126365826Y-121885937D01*
X126535344Y-121999205D01*
X126723702Y-122077226D01*
X126923661Y-122117000D01*
X127127539Y-122117000D01*
X127327498Y-122077226D01*
X127515856Y-121999205D01*
X127606076Y-121938922D01*
X127644063Y-121995774D01*
X127788226Y-122139937D01*
X127957744Y-122253205D01*
X128146102Y-122331226D01*
X128346061Y-122371000D01*
X128549939Y-122371000D01*
X128749898Y-122331226D01*
X128938256Y-122253205D01*
X129107774Y-122139937D01*
X129151711Y-122096000D01*
X130792289Y-122096000D01*
X130836226Y-122139937D01*
X131005744Y-122253205D01*
X131194102Y-122331226D01*
X131394061Y-122371000D01*
X131597939Y-122371000D01*
X131797898Y-122331226D01*
X131986256Y-122253205D01*
X132155774Y-122139937D01*
X132299937Y-121995774D01*
X132413205Y-121826256D01*
X132491226Y-121637898D01*
X132500753Y-121590000D01*
X135083815Y-121590000D01*
X135112487Y-121881111D01*
X135197401Y-122161034D01*
X135335294Y-122419014D01*
X135520866Y-122645134D01*
X135746986Y-122830706D01*
X135801791Y-122860000D01*
X135746986Y-122889294D01*
X135520866Y-123074866D01*
X135335294Y-123300986D01*
X135197401Y-123558966D01*
X135112487Y-123838889D01*
X135083815Y-124130000D01*
X135112487Y-124421111D01*
X135197401Y-124701034D01*
X135335294Y-124959014D01*
X135520866Y-125185134D01*
X135746986Y-125370706D01*
X136004966Y-125508599D01*
X136284889Y-125593513D01*
X136503050Y-125615000D01*
X136648950Y-125615000D01*
X136867111Y-125593513D01*
X137147034Y-125508599D01*
X137405014Y-125370706D01*
X137631134Y-125185134D01*
X137655607Y-125155313D01*
X137676498Y-125224180D01*
X137735463Y-125334494D01*
X137814815Y-125431185D01*
X137911506Y-125510537D01*
X138021820Y-125569502D01*
X138141518Y-125605812D01*
X138266000Y-125618072D01*
X139966000Y-125618072D01*
X140090482Y-125605812D01*
X140210180Y-125569502D01*
X140320494Y-125510537D01*
X140417185Y-125431185D01*
X140496537Y-125334494D01*
X140555502Y-125224180D01*
X140591812Y-125104482D01*
X140604072Y-124980000D01*
X140604072Y-123280000D01*
X140599641Y-123235000D01*
X144570928Y-123235000D01*
X144570928Y-124765000D01*
X144583188Y-124889482D01*
X144619498Y-125009180D01*
X144678463Y-125119494D01*
X144757815Y-125216185D01*
X144854506Y-125295537D01*
X144964820Y-125354502D01*
X145084518Y-125390812D01*
X145209000Y-125403072D01*
X146739000Y-125403072D01*
X146863482Y-125390812D01*
X146983180Y-125354502D01*
X147093494Y-125295537D01*
X147190185Y-125216185D01*
X147269537Y-125119494D01*
X147328502Y-125009180D01*
X147364812Y-124889482D01*
X147377072Y-124765000D01*
X147377072Y-123235000D01*
X147364812Y-123110518D01*
X147328502Y-122990820D01*
X147269537Y-122880506D01*
X147190185Y-122783815D01*
X147093494Y-122704463D01*
X146983180Y-122645498D01*
X146863482Y-122609188D01*
X146785541Y-122601512D01*
X146866448Y-122547451D01*
X147061451Y-122352448D01*
X147214664Y-122123149D01*
X147320199Y-121868365D01*
X147374000Y-121597888D01*
X147374000Y-121322112D01*
X147320199Y-121051635D01*
X147214664Y-120796851D01*
X147061451Y-120567552D01*
X146866448Y-120372549D01*
X146637149Y-120219336D01*
X146572406Y-120192518D01*
X146578072Y-120190478D01*
X146694760Y-120128106D01*
X146762102Y-119887707D01*
X145974000Y-119099605D01*
X145185898Y-119887707D01*
X145253240Y-120128106D01*
X145383336Y-120189312D01*
X145310851Y-120219336D01*
X145081552Y-120372549D01*
X144886549Y-120567552D01*
X144733336Y-120796851D01*
X144627801Y-121051635D01*
X144574000Y-121322112D01*
X144574000Y-121597888D01*
X144627801Y-121868365D01*
X144733336Y-122123149D01*
X144886549Y-122352448D01*
X145081552Y-122547451D01*
X145162459Y-122601512D01*
X145084518Y-122609188D01*
X144964820Y-122645498D01*
X144854506Y-122704463D01*
X144757815Y-122783815D01*
X144678463Y-122880506D01*
X144619498Y-122990820D01*
X144583188Y-123110518D01*
X144570928Y-123235000D01*
X140599641Y-123235000D01*
X140591812Y-123155518D01*
X140555502Y-123035820D01*
X140496537Y-122925506D01*
X140417185Y-122828815D01*
X140320494Y-122749463D01*
X140210180Y-122690498D01*
X140141313Y-122669607D01*
X140171134Y-122645134D01*
X140356706Y-122419014D01*
X140494599Y-122161034D01*
X140579513Y-121881111D01*
X140608185Y-121590000D01*
X140579513Y-121298889D01*
X140494599Y-121018966D01*
X140356706Y-120760986D01*
X140171134Y-120534866D01*
X139945014Y-120349294D01*
X139890209Y-120320000D01*
X139945014Y-120290706D01*
X140171134Y-120105134D01*
X140356706Y-119879014D01*
X140494599Y-119621034D01*
X140579513Y-119341111D01*
X140608185Y-119050000D01*
X140602463Y-118991899D01*
X144569064Y-118991899D01*
X144610086Y-119264607D01*
X144703522Y-119524072D01*
X144765894Y-119640760D01*
X145006293Y-119708102D01*
X145794395Y-118920000D01*
X146153605Y-118920000D01*
X146941707Y-119708102D01*
X147182106Y-119640760D01*
X147299506Y-119391220D01*
X147365967Y-119123573D01*
X147378936Y-118848101D01*
X147337914Y-118575393D01*
X147244478Y-118315928D01*
X147182106Y-118199240D01*
X146941707Y-118131898D01*
X146153605Y-118920000D01*
X145794395Y-118920000D01*
X145006293Y-118131898D01*
X144765894Y-118199240D01*
X144648494Y-118448780D01*
X144582033Y-118716427D01*
X144569064Y-118991899D01*
X140602463Y-118991899D01*
X140579513Y-118758889D01*
X140494599Y-118478966D01*
X140356706Y-118220986D01*
X140171134Y-117994866D01*
X139945014Y-117809294D01*
X139687034Y-117671401D01*
X139407111Y-117586487D01*
X139188950Y-117565000D01*
X139043050Y-117565000D01*
X138824889Y-117586487D01*
X138544966Y-117671401D01*
X138286986Y-117809294D01*
X138060866Y-117994866D01*
X137875294Y-118220986D01*
X137844416Y-118278756D01*
X137673588Y-118049731D01*
X137457355Y-117854822D01*
X137207252Y-117705843D01*
X136932891Y-117608519D01*
X136703000Y-117729186D01*
X136703000Y-118923000D01*
X136723000Y-118923000D01*
X136723000Y-119177000D01*
X136703000Y-119177000D01*
X136703000Y-119197000D01*
X136449000Y-119197000D01*
X136449000Y-119177000D01*
X135255845Y-119177000D01*
X135134524Y-119406890D01*
X135179175Y-119554099D01*
X135304359Y-119816920D01*
X135478412Y-120050269D01*
X135694645Y-120245178D01*
X135811523Y-120314799D01*
X135746986Y-120349294D01*
X135520866Y-120534866D01*
X135335294Y-120760986D01*
X135197401Y-121018966D01*
X135112487Y-121298889D01*
X135083815Y-121590000D01*
X132500753Y-121590000D01*
X132531000Y-121437939D01*
X132531000Y-121234061D01*
X132491226Y-121034102D01*
X132413205Y-120845744D01*
X132299937Y-120676226D01*
X132155774Y-120532063D01*
X131986256Y-120418795D01*
X131797898Y-120340774D01*
X131597939Y-120301000D01*
X131394061Y-120301000D01*
X131194102Y-120340774D01*
X131005744Y-120418795D01*
X130836226Y-120532063D01*
X130792289Y-120576000D01*
X129209800Y-120576000D01*
X129975800Y-119810000D01*
X130792289Y-119810000D01*
X130836226Y-119853937D01*
X131005744Y-119967205D01*
X131194102Y-120045226D01*
X131394061Y-120085000D01*
X131597939Y-120085000D01*
X131797898Y-120045226D01*
X131986256Y-119967205D01*
X132155774Y-119853937D01*
X132299937Y-119709774D01*
X132413205Y-119540256D01*
X132491226Y-119351898D01*
X132531000Y-119151939D01*
X132531000Y-118948061D01*
X132491226Y-118748102D01*
X132468448Y-118693110D01*
X135134524Y-118693110D01*
X135255845Y-118923000D01*
X136449000Y-118923000D01*
X136449000Y-117729186D01*
X136219109Y-117608519D01*
X135944748Y-117705843D01*
X135694645Y-117854822D01*
X135478412Y-118049731D01*
X135304359Y-118283080D01*
X135179175Y-118545901D01*
X135134524Y-118693110D01*
X132468448Y-118693110D01*
X132413205Y-118559744D01*
X132299937Y-118390226D01*
X132155774Y-118246063D01*
X131986256Y-118132795D01*
X131797898Y-118054774D01*
X131597939Y-118015000D01*
X131394061Y-118015000D01*
X131194102Y-118054774D01*
X131005744Y-118132795D01*
X130836226Y-118246063D01*
X130792289Y-118290000D01*
X129698321Y-118290000D01*
X129660998Y-118286324D01*
X129623675Y-118290000D01*
X129623665Y-118290000D01*
X129512012Y-118300997D01*
X129368751Y-118344454D01*
X129236721Y-118415026D01*
X129158811Y-118478966D01*
X129120997Y-118509999D01*
X129097199Y-118538997D01*
X127484422Y-120151775D01*
X127327498Y-120086774D01*
X127127539Y-120047000D01*
X126923661Y-120047000D01*
X126723702Y-120086774D01*
X126535344Y-120164795D01*
X126365826Y-120278063D01*
X126221663Y-120422226D01*
X126108395Y-120591744D01*
X126030374Y-120780102D01*
X125990600Y-120980061D01*
X104364553Y-120980061D01*
X104288664Y-120796851D01*
X104135451Y-120567552D01*
X103940448Y-120372549D01*
X103711149Y-120219336D01*
X103646406Y-120192518D01*
X103652072Y-120190478D01*
X103768760Y-120128106D01*
X103836102Y-119887707D01*
X103048000Y-119099605D01*
X102259898Y-119887707D01*
X102327240Y-120128106D01*
X102457336Y-120189312D01*
X102384851Y-120219336D01*
X102155552Y-120372549D01*
X101960549Y-120567552D01*
X101807336Y-120796851D01*
X101701801Y-121051635D01*
X101648000Y-121322112D01*
X101648000Y-121597888D01*
X101701801Y-121868365D01*
X101807336Y-122123149D01*
X101960549Y-122352448D01*
X102155552Y-122547451D01*
X102236459Y-122601512D01*
X102158518Y-122609188D01*
X102038820Y-122645498D01*
X101928506Y-122704463D01*
X101831815Y-122783815D01*
X101752463Y-122880506D01*
X101693498Y-122990820D01*
X101657188Y-123110518D01*
X101644928Y-123235000D01*
X100660000Y-123235000D01*
X100660000Y-118991899D01*
X101643064Y-118991899D01*
X101684086Y-119264607D01*
X101777522Y-119524072D01*
X101839894Y-119640760D01*
X102080293Y-119708102D01*
X102868395Y-118920000D01*
X103227605Y-118920000D01*
X104015707Y-119708102D01*
X104256106Y-119640760D01*
X104373506Y-119391220D01*
X104439967Y-119123573D01*
X104452936Y-118848101D01*
X104411914Y-118575393D01*
X104318478Y-118315928D01*
X104256106Y-118199240D01*
X104015707Y-118131898D01*
X103227605Y-118920000D01*
X102868395Y-118920000D01*
X102080293Y-118131898D01*
X101839894Y-118199240D01*
X101722494Y-118448780D01*
X101656033Y-118716427D01*
X101643064Y-118991899D01*
X100660000Y-118991899D01*
X100660000Y-116242112D01*
X101648000Y-116242112D01*
X101648000Y-116517888D01*
X101701801Y-116788365D01*
X101807336Y-117043149D01*
X101960549Y-117272448D01*
X102155552Y-117467451D01*
X102384851Y-117620664D01*
X102449594Y-117647482D01*
X102443928Y-117649522D01*
X102327240Y-117711894D01*
X102259898Y-117952293D01*
X103048000Y-118740395D01*
X103836102Y-117952293D01*
X103768760Y-117711894D01*
X103638664Y-117650688D01*
X103711149Y-117620664D01*
X103940448Y-117467451D01*
X104135451Y-117272448D01*
X104288664Y-117043149D01*
X104394199Y-116788365D01*
X104448000Y-116517888D01*
X104448000Y-116242112D01*
X104394199Y-115971635D01*
X104288664Y-115716851D01*
X104135451Y-115487552D01*
X103940448Y-115292549D01*
X103711149Y-115139336D01*
X103456365Y-115033801D01*
X103185888Y-114980000D01*
X102910112Y-114980000D01*
X102639635Y-115033801D01*
X102384851Y-115139336D01*
X102155552Y-115292549D01*
X101960549Y-115487552D01*
X101807336Y-115716851D01*
X101701801Y-115971635D01*
X101648000Y-116242112D01*
X100660000Y-116242112D01*
X100660000Y-111947276D01*
X100688686Y-112091490D01*
X100793995Y-112345727D01*
X100946880Y-112574535D01*
X101141465Y-112769120D01*
X101370273Y-112922005D01*
X101624510Y-113027314D01*
X101894408Y-113081000D01*
X102169592Y-113081000D01*
X102439490Y-113027314D01*
X102693727Y-112922005D01*
X102922535Y-112769120D01*
X103042090Y-112649565D01*
X103786040Y-112649565D01*
X103853020Y-112889656D01*
X104102048Y-113006756D01*
X104369135Y-113073023D01*
X104644017Y-113085910D01*
X104916133Y-113044922D01*
X105175023Y-112951636D01*
X105290980Y-112889656D01*
X105357960Y-112649565D01*
X104572000Y-111863605D01*
X103786040Y-112649565D01*
X103042090Y-112649565D01*
X103117120Y-112574535D01*
X103270005Y-112345727D01*
X103299692Y-112274057D01*
X103304364Y-112287023D01*
X103366344Y-112402980D01*
X103606435Y-112469960D01*
X104392395Y-111684000D01*
X104751605Y-111684000D01*
X105537565Y-112469960D01*
X105711928Y-112421317D01*
X105711928Y-112446000D01*
X105724188Y-112570482D01*
X105760498Y-112690180D01*
X105819463Y-112800494D01*
X105898815Y-112897185D01*
X105995506Y-112976537D01*
X106105820Y-113035502D01*
X106225518Y-113071812D01*
X106350000Y-113084072D01*
X106352000Y-113084072D01*
X106352000Y-114440677D01*
X106348324Y-114478000D01*
X106352000Y-114515322D01*
X106352000Y-114515332D01*
X106362997Y-114626985D01*
X106406454Y-114770246D01*
X106477026Y-114902276D01*
X106516871Y-114950826D01*
X106571999Y-115018001D01*
X106601003Y-115041804D01*
X107855000Y-116295802D01*
X107855000Y-116357939D01*
X107894774Y-116557898D01*
X107972795Y-116746256D01*
X108086063Y-116915774D01*
X108230226Y-117059937D01*
X108399744Y-117173205D01*
X108588102Y-117251226D01*
X108788061Y-117291000D01*
X108991939Y-117291000D01*
X109191898Y-117251226D01*
X109380256Y-117173205D01*
X109549774Y-117059937D01*
X109693937Y-116915774D01*
X109807205Y-116746256D01*
X109885226Y-116557898D01*
X109925000Y-116357939D01*
X109925000Y-116154061D01*
X121317000Y-116154061D01*
X121317000Y-116357939D01*
X121356774Y-116557898D01*
X121434795Y-116746256D01*
X121548063Y-116915774D01*
X121692226Y-117059937D01*
X121861744Y-117173205D01*
X122050102Y-117251226D01*
X122250061Y-117291000D01*
X122453939Y-117291000D01*
X122653898Y-117251226D01*
X122797364Y-117191800D01*
X122841000Y-117191800D01*
X122841000Y-117373939D01*
X122880774Y-117573898D01*
X122958795Y-117762256D01*
X123072063Y-117931774D01*
X123216226Y-118075937D01*
X123385744Y-118189205D01*
X123574102Y-118267226D01*
X123774061Y-118307000D01*
X123977939Y-118307000D01*
X124177898Y-118267226D01*
X124366256Y-118189205D01*
X124535774Y-118075937D01*
X124579711Y-118032000D01*
X125255315Y-118032000D01*
X125358063Y-118185774D01*
X125502226Y-118329937D01*
X125671744Y-118443205D01*
X125860102Y-118521226D01*
X126060061Y-118561000D01*
X126263939Y-118561000D01*
X126463898Y-118521226D01*
X126652256Y-118443205D01*
X126821774Y-118329937D01*
X126965937Y-118185774D01*
X127079205Y-118016256D01*
X127157226Y-117827898D01*
X127197000Y-117627939D01*
X127197000Y-117424061D01*
X127157226Y-117224102D01*
X127079205Y-117035744D01*
X126965937Y-116866226D01*
X126821774Y-116722063D01*
X126789109Y-116700237D01*
X126827026Y-116608698D01*
X126866800Y-116408739D01*
X126866800Y-116242112D01*
X144574000Y-116242112D01*
X144574000Y-116517888D01*
X144627801Y-116788365D01*
X144733336Y-117043149D01*
X144886549Y-117272448D01*
X145081552Y-117467451D01*
X145310851Y-117620664D01*
X145375594Y-117647482D01*
X145369928Y-117649522D01*
X145253240Y-117711894D01*
X145185898Y-117952293D01*
X145974000Y-118740395D01*
X146762102Y-117952293D01*
X146694760Y-117711894D01*
X146564664Y-117650688D01*
X146637149Y-117620664D01*
X146866448Y-117467451D01*
X147061451Y-117272448D01*
X147214664Y-117043149D01*
X147320199Y-116788365D01*
X147374000Y-116517888D01*
X147374000Y-116242112D01*
X147320199Y-115971635D01*
X147214664Y-115716851D01*
X147061451Y-115487552D01*
X146866448Y-115292549D01*
X146637149Y-115139336D01*
X146382365Y-115033801D01*
X146111888Y-114980000D01*
X145836112Y-114980000D01*
X145565635Y-115033801D01*
X145310851Y-115139336D01*
X145081552Y-115292549D01*
X144886549Y-115487552D01*
X144733336Y-115716851D01*
X144627801Y-115971635D01*
X144574000Y-116242112D01*
X126866800Y-116242112D01*
X126866800Y-116204861D01*
X126827026Y-116004902D01*
X126749005Y-115816544D01*
X126635737Y-115647026D01*
X126491574Y-115502863D01*
X126322056Y-115389595D01*
X126133698Y-115311574D01*
X125933739Y-115271800D01*
X125729861Y-115271800D01*
X125529902Y-115311574D01*
X125341544Y-115389595D01*
X125293346Y-115421800D01*
X122966482Y-115421800D01*
X122842256Y-115338795D01*
X122653898Y-115260774D01*
X122453939Y-115221000D01*
X122250061Y-115221000D01*
X122050102Y-115260774D01*
X121861744Y-115338795D01*
X121692226Y-115452063D01*
X121548063Y-115596226D01*
X121434795Y-115765744D01*
X121356774Y-115954102D01*
X121317000Y-116154061D01*
X109925000Y-116154061D01*
X109885226Y-115954102D01*
X109807205Y-115765744D01*
X109693937Y-115596226D01*
X109549774Y-115452063D01*
X109380256Y-115338795D01*
X109191898Y-115260774D01*
X108991939Y-115221000D01*
X108929802Y-115221000D01*
X107872000Y-114163199D01*
X107872000Y-113084072D01*
X107874000Y-113084072D01*
X107998482Y-113071812D01*
X108118180Y-113035502D01*
X108228494Y-112976537D01*
X108325185Y-112897185D01*
X108404537Y-112800494D01*
X108463502Y-112690180D01*
X108499812Y-112570482D01*
X108512072Y-112446000D01*
X108512072Y-110922000D01*
X108499812Y-110797518D01*
X108463502Y-110677820D01*
X108404537Y-110567506D01*
X108325185Y-110470815D01*
X108228494Y-110391463D01*
X108118180Y-110332498D01*
X107998482Y-110296188D01*
X107874000Y-110283928D01*
X106350000Y-110283928D01*
X106225518Y-110296188D01*
X106105820Y-110332498D01*
X105995506Y-110391463D01*
X105898815Y-110470815D01*
X105819463Y-110567506D01*
X105760498Y-110677820D01*
X105724188Y-110797518D01*
X105711928Y-110922000D01*
X105711928Y-110946683D01*
X105537565Y-110898040D01*
X104751605Y-111684000D01*
X104392395Y-111684000D01*
X103606435Y-110898040D01*
X103366344Y-110965020D01*
X103302515Y-111100760D01*
X103270005Y-111022273D01*
X103117120Y-110793465D01*
X103042090Y-110718435D01*
X103786040Y-110718435D01*
X104572000Y-111504395D01*
X105357960Y-110718435D01*
X105290980Y-110478344D01*
X105041952Y-110361244D01*
X104774865Y-110294977D01*
X104499983Y-110282090D01*
X104227867Y-110323078D01*
X103968977Y-110416364D01*
X103853020Y-110478344D01*
X103786040Y-110718435D01*
X103042090Y-110718435D01*
X102922535Y-110598880D01*
X102693727Y-110445995D01*
X102439490Y-110340686D01*
X102169592Y-110287000D01*
X101894408Y-110287000D01*
X101624510Y-110340686D01*
X101370273Y-110445995D01*
X101141465Y-110598880D01*
X100946880Y-110793465D01*
X100793995Y-111022273D01*
X100688686Y-111276510D01*
X100660000Y-111420724D01*
X100660000Y-102954000D01*
X112047689Y-102954000D01*
X112079257Y-103274516D01*
X112172748Y-103582715D01*
X112324569Y-103866752D01*
X112528886Y-104115714D01*
X112692187Y-104249731D01*
X112510466Y-104398866D01*
X112324894Y-104624986D01*
X112187001Y-104882966D01*
X112102087Y-105162889D01*
X112073415Y-105454000D01*
X112102087Y-105745111D01*
X112187001Y-106025034D01*
X112324894Y-106283014D01*
X112510466Y-106509134D01*
X112736586Y-106694706D01*
X112753974Y-106704000D01*
X112736586Y-106713294D01*
X112510466Y-106898866D01*
X112324894Y-107124986D01*
X112187001Y-107382966D01*
X112102087Y-107662889D01*
X112073415Y-107954000D01*
X112102087Y-108245111D01*
X112187001Y-108525034D01*
X112324894Y-108783014D01*
X112510466Y-109009134D01*
X112736586Y-109194706D01*
X112753974Y-109204000D01*
X112736586Y-109213294D01*
X112510466Y-109398866D01*
X112324894Y-109624986D01*
X112187001Y-109882966D01*
X112102087Y-110162889D01*
X112073415Y-110454000D01*
X112102087Y-110745111D01*
X112187001Y-111025034D01*
X112324894Y-111283014D01*
X112510466Y-111509134D01*
X112573937Y-111561223D01*
X112472214Y-111615595D01*
X112337638Y-111726038D01*
X112227195Y-111860614D01*
X112145128Y-112014150D01*
X112094592Y-112180746D01*
X112077528Y-112354000D01*
X112077528Y-113554000D01*
X112094592Y-113727254D01*
X112145128Y-113893850D01*
X112227195Y-114047386D01*
X112337638Y-114181962D01*
X112472214Y-114292405D01*
X112625750Y-114374472D01*
X112792346Y-114425008D01*
X112965600Y-114442072D01*
X114415600Y-114442072D01*
X114588854Y-114425008D01*
X114755450Y-114374472D01*
X114908986Y-114292405D01*
X115043562Y-114181962D01*
X115154005Y-114047386D01*
X115236072Y-113893850D01*
X115286608Y-113727254D01*
X115303672Y-113554000D01*
X115303672Y-112354000D01*
X115286608Y-112180746D01*
X115236072Y-112014150D01*
X115154005Y-111860614D01*
X115043562Y-111726038D01*
X114908986Y-111615595D01*
X114807263Y-111561223D01*
X114870734Y-111509134D01*
X115056306Y-111283014D01*
X115194199Y-111025034D01*
X115256377Y-110820061D01*
X122841000Y-110820061D01*
X122841000Y-111023939D01*
X122880774Y-111223898D01*
X122958795Y-111412256D01*
X123072063Y-111581774D01*
X123216226Y-111725937D01*
X123385744Y-111839205D01*
X123574102Y-111917226D01*
X123774061Y-111957000D01*
X123977939Y-111957000D01*
X124177898Y-111917226D01*
X124366256Y-111839205D01*
X124535774Y-111725937D01*
X124579711Y-111682000D01*
X125204289Y-111682000D01*
X125248226Y-111725937D01*
X125417744Y-111839205D01*
X125606102Y-111917226D01*
X125806061Y-111957000D01*
X126009939Y-111957000D01*
X126209898Y-111917226D01*
X126398256Y-111839205D01*
X126567774Y-111725937D01*
X126711937Y-111581774D01*
X126825205Y-111412256D01*
X126875201Y-111291557D01*
X126875201Y-111539088D01*
X126831063Y-111583226D01*
X126717795Y-111752744D01*
X126639774Y-111941102D01*
X126600000Y-112141061D01*
X126600000Y-112344939D01*
X126639774Y-112544898D01*
X126717795Y-112733256D01*
X126831063Y-112902774D01*
X126975226Y-113046937D01*
X127144744Y-113160205D01*
X127333102Y-113238226D01*
X127533061Y-113278000D01*
X127736939Y-113278000D01*
X127936898Y-113238226D01*
X128125256Y-113160205D01*
X128294774Y-113046937D01*
X128438937Y-112902774D01*
X128552205Y-112733256D01*
X128630226Y-112544898D01*
X128670000Y-112344939D01*
X128670000Y-112141061D01*
X128630226Y-111941102D01*
X128552205Y-111752744D01*
X128438937Y-111583226D01*
X128395200Y-111539489D01*
X128395200Y-110508111D01*
X128439137Y-110464174D01*
X128552405Y-110294656D01*
X128630426Y-110106298D01*
X128670200Y-109906339D01*
X128670200Y-109702461D01*
X128630426Y-109502502D01*
X128552405Y-109314144D01*
X128439137Y-109144626D01*
X128294974Y-109000463D01*
X128125456Y-108887195D01*
X127937098Y-108809174D01*
X127737139Y-108769400D01*
X127533261Y-108769400D01*
X127333302Y-108809174D01*
X127144944Y-108887195D01*
X126975426Y-109000463D01*
X126831263Y-109144626D01*
X126717995Y-109314144D01*
X126639974Y-109502502D01*
X126600200Y-109702461D01*
X126600200Y-109906339D01*
X126639974Y-110106298D01*
X126699347Y-110249636D01*
X126567774Y-110118063D01*
X126398256Y-110004795D01*
X126209898Y-109926774D01*
X126009939Y-109887000D01*
X125806061Y-109887000D01*
X125606102Y-109926774D01*
X125417744Y-110004795D01*
X125248226Y-110118063D01*
X125204289Y-110162000D01*
X124579711Y-110162000D01*
X124535774Y-110118063D01*
X124366256Y-110004795D01*
X124177898Y-109926774D01*
X123977939Y-109887000D01*
X123774061Y-109887000D01*
X123574102Y-109926774D01*
X123385744Y-110004795D01*
X123216226Y-110118063D01*
X123072063Y-110262226D01*
X122958795Y-110431744D01*
X122880774Y-110620102D01*
X122841000Y-110820061D01*
X115256377Y-110820061D01*
X115279113Y-110745111D01*
X115307785Y-110454000D01*
X115279113Y-110162889D01*
X115194199Y-109882966D01*
X115056306Y-109624986D01*
X114870734Y-109398866D01*
X114644614Y-109213294D01*
X114627226Y-109204000D01*
X114644614Y-109194706D01*
X114870734Y-109009134D01*
X115056306Y-108783014D01*
X115194199Y-108525034D01*
X115279113Y-108245111D01*
X115307785Y-107954000D01*
X115279113Y-107662889D01*
X115194199Y-107382966D01*
X115056306Y-107124986D01*
X114870734Y-106898866D01*
X114644614Y-106713294D01*
X114627226Y-106704000D01*
X114644614Y-106694706D01*
X114870734Y-106509134D01*
X115056306Y-106283014D01*
X115194199Y-106025034D01*
X115279113Y-105745111D01*
X115307785Y-105454000D01*
X115279113Y-105162889D01*
X115194199Y-104882966D01*
X115056306Y-104624986D01*
X115026773Y-104589000D01*
X134020627Y-104589000D01*
X133991094Y-104624986D01*
X133853201Y-104882966D01*
X133768287Y-105162889D01*
X133739615Y-105454000D01*
X133768287Y-105745111D01*
X133853201Y-106025034D01*
X133991094Y-106283014D01*
X134176666Y-106509134D01*
X134402786Y-106694706D01*
X134420174Y-106704000D01*
X134402786Y-106713294D01*
X134176666Y-106898866D01*
X133991094Y-107124986D01*
X133853201Y-107382966D01*
X133768287Y-107662889D01*
X133739615Y-107954000D01*
X133768287Y-108245111D01*
X133853201Y-108525034D01*
X133991094Y-108783014D01*
X134176666Y-109009134D01*
X134402786Y-109194706D01*
X134420174Y-109204000D01*
X134402786Y-109213294D01*
X134176666Y-109398866D01*
X133991094Y-109624986D01*
X133853201Y-109882966D01*
X133768287Y-110162889D01*
X133739615Y-110454000D01*
X133768287Y-110745111D01*
X133853201Y-111025034D01*
X133991094Y-111283014D01*
X134176666Y-111509134D01*
X134240137Y-111561223D01*
X134138414Y-111615595D01*
X134003838Y-111726038D01*
X133893395Y-111860614D01*
X133811328Y-112014150D01*
X133760792Y-112180746D01*
X133743728Y-112354000D01*
X133743728Y-113554000D01*
X133760792Y-113727254D01*
X133811328Y-113893850D01*
X133893395Y-114047386D01*
X134003838Y-114181962D01*
X134138414Y-114292405D01*
X134291950Y-114374472D01*
X134458546Y-114425008D01*
X134631800Y-114442072D01*
X136081800Y-114442072D01*
X136255054Y-114425008D01*
X136421650Y-114374472D01*
X136573456Y-114293330D01*
X136557000Y-114376061D01*
X136557000Y-114579939D01*
X136596774Y-114779898D01*
X136674795Y-114968256D01*
X136788063Y-115137774D01*
X136932226Y-115281937D01*
X137101744Y-115395205D01*
X137290102Y-115473226D01*
X137490061Y-115513000D01*
X137693939Y-115513000D01*
X137893898Y-115473226D01*
X138082256Y-115395205D01*
X138251774Y-115281937D01*
X138295711Y-115238000D01*
X142126678Y-115238000D01*
X142164000Y-115241676D01*
X142201322Y-115238000D01*
X142201333Y-115238000D01*
X142312986Y-115227003D01*
X142456247Y-115183546D01*
X142588276Y-115112974D01*
X142704001Y-115018001D01*
X142727804Y-114988998D01*
X143219802Y-114497000D01*
X143281939Y-114497000D01*
X143481898Y-114457226D01*
X143670256Y-114379205D01*
X143839774Y-114265937D01*
X143983937Y-114121774D01*
X144097205Y-113952256D01*
X144175226Y-113763898D01*
X144215000Y-113563939D01*
X144215000Y-113360061D01*
X144175226Y-113160102D01*
X144097205Y-112971744D01*
X143983937Y-112802226D01*
X143839774Y-112658063D01*
X143827056Y-112649565D01*
X144426040Y-112649565D01*
X144493020Y-112889656D01*
X144742048Y-113006756D01*
X145009135Y-113073023D01*
X145284017Y-113085910D01*
X145556133Y-113044922D01*
X145815023Y-112951636D01*
X145930980Y-112889656D01*
X145997960Y-112649565D01*
X145212000Y-111863605D01*
X144426040Y-112649565D01*
X143827056Y-112649565D01*
X143740155Y-112591500D01*
X143757120Y-112574535D01*
X143910005Y-112345727D01*
X143939692Y-112274057D01*
X143944364Y-112287023D01*
X144006344Y-112402980D01*
X144246435Y-112469960D01*
X145032395Y-111684000D01*
X145391605Y-111684000D01*
X146177565Y-112469960D01*
X146351928Y-112421317D01*
X146351928Y-112446000D01*
X146364188Y-112570482D01*
X146400498Y-112690180D01*
X146459463Y-112800494D01*
X146538815Y-112897185D01*
X146635506Y-112976537D01*
X146745820Y-113035502D01*
X146865518Y-113071812D01*
X146990000Y-113084072D01*
X148514000Y-113084072D01*
X148638482Y-113071812D01*
X148758180Y-113035502D01*
X148868494Y-112976537D01*
X148965185Y-112897185D01*
X149044537Y-112800494D01*
X149103502Y-112690180D01*
X149139812Y-112570482D01*
X149152072Y-112446000D01*
X149152072Y-110922000D01*
X149139812Y-110797518D01*
X149103502Y-110677820D01*
X149044537Y-110567506D01*
X148965185Y-110470815D01*
X148868494Y-110391463D01*
X148758180Y-110332498D01*
X148638482Y-110296188D01*
X148514000Y-110283928D01*
X146990000Y-110283928D01*
X146865518Y-110296188D01*
X146745820Y-110332498D01*
X146635506Y-110391463D01*
X146538815Y-110470815D01*
X146459463Y-110567506D01*
X146400498Y-110677820D01*
X146364188Y-110797518D01*
X146351928Y-110922000D01*
X146351928Y-110946683D01*
X146177565Y-110898040D01*
X145391605Y-111684000D01*
X145032395Y-111684000D01*
X144246435Y-110898040D01*
X144006344Y-110965020D01*
X143942515Y-111100760D01*
X143910005Y-111022273D01*
X143757120Y-110793465D01*
X143682090Y-110718435D01*
X144426040Y-110718435D01*
X145212000Y-111504395D01*
X145997960Y-110718435D01*
X145930980Y-110478344D01*
X145681952Y-110361244D01*
X145414865Y-110294977D01*
X145139983Y-110282090D01*
X144867867Y-110323078D01*
X144608977Y-110416364D01*
X144493020Y-110478344D01*
X144426040Y-110718435D01*
X143682090Y-110718435D01*
X143562535Y-110598880D01*
X143333727Y-110445995D01*
X143079490Y-110340686D01*
X142809592Y-110287000D01*
X142534408Y-110287000D01*
X142264510Y-110340686D01*
X142010273Y-110445995D01*
X141781465Y-110598880D01*
X141586880Y-110793465D01*
X141433995Y-111022273D01*
X141328686Y-111276510D01*
X141275000Y-111546408D01*
X141275000Y-111821592D01*
X141328686Y-112091490D01*
X141433995Y-112345727D01*
X141586880Y-112574535D01*
X141781465Y-112769120D01*
X142010273Y-112922005D01*
X142243399Y-113018570D01*
X142184774Y-113160102D01*
X142145000Y-113360061D01*
X142145000Y-113422198D01*
X141849199Y-113718000D01*
X138295711Y-113718000D01*
X138251774Y-113674063D01*
X138082256Y-113560795D01*
X137893898Y-113482774D01*
X137693939Y-113443000D01*
X137490061Y-113443000D01*
X137290102Y-113482774D01*
X137101744Y-113560795D01*
X136959866Y-113655595D01*
X136969872Y-113554000D01*
X136969872Y-112354000D01*
X136952808Y-112180746D01*
X136902272Y-112014150D01*
X136820205Y-111860614D01*
X136709762Y-111726038D01*
X136575186Y-111615595D01*
X136473463Y-111561223D01*
X136536934Y-111509134D01*
X136722506Y-111283014D01*
X136860399Y-111025034D01*
X136945313Y-110745111D01*
X136973985Y-110454000D01*
X136945313Y-110162889D01*
X136860399Y-109882966D01*
X136722506Y-109624986D01*
X136536934Y-109398866D01*
X136310814Y-109213294D01*
X136293426Y-109204000D01*
X136310814Y-109194706D01*
X136536934Y-109009134D01*
X136722506Y-108783014D01*
X136860399Y-108525034D01*
X136945313Y-108245111D01*
X136973985Y-107954000D01*
X136945313Y-107662889D01*
X136860399Y-107382966D01*
X136722506Y-107124986D01*
X136536934Y-106898866D01*
X136310814Y-106713294D01*
X136293426Y-106704000D01*
X136310814Y-106694706D01*
X136536934Y-106509134D01*
X136722506Y-106283014D01*
X136860399Y-106025034D01*
X136945313Y-105745111D01*
X136973985Y-105454000D01*
X136945313Y-105162889D01*
X136860399Y-104882966D01*
X136722506Y-104624986D01*
X136536934Y-104398866D01*
X136355213Y-104249731D01*
X136518514Y-104115714D01*
X136722831Y-103866752D01*
X136874652Y-103582715D01*
X136968143Y-103274516D01*
X136999711Y-102954000D01*
X136968143Y-102633484D01*
X136874652Y-102325285D01*
X136722831Y-102041248D01*
X136518514Y-101792286D01*
X136269552Y-101587969D01*
X135985515Y-101436148D01*
X135677316Y-101342657D01*
X135437122Y-101319000D01*
X113610278Y-101319000D01*
X113370084Y-101342657D01*
X113061885Y-101436148D01*
X112777848Y-101587969D01*
X112528886Y-101792286D01*
X112324569Y-102041248D01*
X112172748Y-102325285D01*
X112079257Y-102633484D01*
X112047689Y-102954000D01*
X100660000Y-102954000D01*
X100660000Y-100660000D01*
X149340001Y-100660000D01*
X149340000Y-132640000D01*
X149340000Y-132640000D01*
G37*
X149340000Y-132640000D02*
X100660000Y-132640000D01*
X100660000Y-129362061D01*
X123095000Y-129362061D01*
X123095000Y-129565939D01*
X123134774Y-129765898D01*
X123212795Y-129954256D01*
X123326063Y-130123774D01*
X123470226Y-130267937D01*
X123639744Y-130381205D01*
X123828102Y-130459226D01*
X124028061Y-130499000D01*
X124231939Y-130499000D01*
X124431898Y-130459226D01*
X124620256Y-130381205D01*
X124789774Y-130267937D01*
X124933937Y-130123774D01*
X125047205Y-129954256D01*
X125125226Y-129765898D01*
X125165000Y-129565939D01*
X125165000Y-129503801D01*
X127725803Y-126943000D01*
X127787939Y-126943000D01*
X127987898Y-126903226D01*
X128176256Y-126825205D01*
X128345774Y-126711937D01*
X128489937Y-126567774D01*
X128603205Y-126398256D01*
X128681226Y-126209898D01*
X128721000Y-126009939D01*
X128721000Y-125946722D01*
X128792257Y-125917206D01*
X128961775Y-125803938D01*
X129005712Y-125760001D01*
X130781200Y-125760001D01*
X131477000Y-126455802D01*
X131477000Y-126517939D01*
X131516774Y-126717898D01*
X131594795Y-126906256D01*
X131708063Y-127075774D01*
X131812289Y-127180000D01*
X131231151Y-127180000D01*
X131221226Y-127130102D01*
X131143205Y-126941744D01*
X131029937Y-126772226D01*
X130885774Y-126628063D01*
X130716256Y-126514795D01*
X130527898Y-126436774D01*
X130327939Y-126397000D01*
X130124061Y-126397000D01*
X129924102Y-126436774D01*
X129735744Y-126514795D01*
X129566226Y-126628063D01*
X129422063Y-126772226D01*
X129308795Y-126941744D01*
X129230774Y-127130102D01*
X129191000Y-127330061D01*
X129191000Y-127533939D01*
X129230774Y-127733898D01*
X129308795Y-127922256D01*
X129422063Y-128091774D01*
X129566226Y-128235937D01*
X129735744Y-128349205D01*
X129924102Y-128427226D01*
X130124061Y-128467000D01*
X130183329Y-128467000D01*
X130193999Y-128480001D01*
X130309724Y-128574974D01*
X130441753Y-128645546D01*
X130585014Y-128689003D01*
X130696667Y-128700000D01*
X130696676Y-128700000D01*
X130733999Y-128703676D01*
X130771322Y-128700000D01*
X132824289Y-128700000D01*
X132868226Y-128743937D01*
X133037744Y-128857205D01*
X133226102Y-128935226D01*
X133426061Y-128975000D01*
X133629939Y-128975000D01*
X133829898Y-128935226D01*
X134018256Y-128857205D01*
X134187774Y-128743937D01*
X134331937Y-128599774D01*
X134445205Y-128430256D01*
X134523226Y-128241898D01*
X134563000Y-128041939D01*
X134563000Y-127838061D01*
X134523226Y-127638102D01*
X134445205Y-127449744D01*
X134331937Y-127280226D01*
X134187774Y-127136063D01*
X134018256Y-127022795D01*
X133829898Y-126944774D01*
X133629939Y-126905000D01*
X133429725Y-126905000D01*
X133507226Y-126717898D01*
X133547000Y-126517939D01*
X133547000Y-126314061D01*
X133507226Y-126114102D01*
X133429205Y-125925744D01*
X133315937Y-125756226D01*
X133171774Y-125612063D01*
X133002256Y-125498795D01*
X132813898Y-125420774D01*
X132613939Y-125381000D01*
X132551802Y-125381000D01*
X131659805Y-124489004D01*
X131636002Y-124460000D01*
X131520277Y-124365027D01*
X131388248Y-124294455D01*
X131244987Y-124250998D01*
X131133334Y-124240001D01*
X131133323Y-124240001D01*
X131096001Y-124236325D01*
X131058679Y-124240001D01*
X129005712Y-124240001D01*
X128961775Y-124196064D01*
X128792257Y-124082796D01*
X128603899Y-124004775D01*
X128403940Y-123965001D01*
X128200062Y-123965001D01*
X128000103Y-124004775D01*
X127811745Y-124082796D01*
X127642227Y-124196064D01*
X127498064Y-124340227D01*
X127384796Y-124509745D01*
X127306775Y-124698103D01*
X127267001Y-124898062D01*
X127267001Y-124961279D01*
X127195744Y-124990795D01*
X127026226Y-125104063D01*
X126882063Y-125248226D01*
X126768795Y-125417744D01*
X126690774Y-125606102D01*
X126651000Y-125806061D01*
X126651000Y-125868197D01*
X124090199Y-128429000D01*
X124028061Y-128429000D01*
X123828102Y-128468774D01*
X123639744Y-128546795D01*
X123470226Y-128660063D01*
X123326063Y-128804226D01*
X123212795Y-128973744D01*
X123134774Y-129162102D01*
X123095000Y-129362061D01*
X100660000Y-129362061D01*
X100660000Y-123235000D01*
X101644928Y-123235000D01*
X101644928Y-124765000D01*
X101657188Y-124889482D01*
X101693498Y-125009180D01*
X101752463Y-125119494D01*
X101831815Y-125216185D01*
X101928506Y-125295537D01*
X102038820Y-125354502D01*
X102158518Y-125390812D01*
X102283000Y-125403072D01*
X103813000Y-125403072D01*
X103937482Y-125390812D01*
X104057180Y-125354502D01*
X104162772Y-125298061D01*
X113697000Y-125298061D01*
X113697000Y-125501939D01*
X113736774Y-125701898D01*
X113814795Y-125890256D01*
X113928063Y-126059774D01*
X114072226Y-126203937D01*
X114241744Y-126317205D01*
X114430102Y-126395226D01*
X114630061Y-126435000D01*
X114833939Y-126435000D01*
X115033898Y-126395226D01*
X115222256Y-126317205D01*
X115391774Y-126203937D01*
X115535937Y-126059774D01*
X115649205Y-125890256D01*
X115703159Y-125760001D01*
X118492288Y-125760001D01*
X118536225Y-125803938D01*
X118705743Y-125917206D01*
X118894101Y-125995227D01*
X119094060Y-126035001D01*
X119297938Y-126035001D01*
X119497897Y-125995227D01*
X119686255Y-125917206D01*
X119855773Y-125803938D01*
X119899710Y-125760001D01*
X122302288Y-125760001D01*
X122346225Y-125803938D01*
X122515743Y-125917206D01*
X122704101Y-125995227D01*
X122904060Y-126035001D01*
X123107938Y-126035001D01*
X123307897Y-125995227D01*
X123496255Y-125917206D01*
X123665773Y-125803938D01*
X123809936Y-125659775D01*
X123923204Y-125490257D01*
X124001225Y-125301899D01*
X124040999Y-125101940D01*
X124040999Y-124898062D01*
X124001225Y-124698103D01*
X123923204Y-124509745D01*
X123809936Y-124340227D01*
X123665773Y-124196064D01*
X123496255Y-124082796D01*
X123307897Y-124004775D01*
X123107938Y-123965001D01*
X122904060Y-123965001D01*
X122704101Y-124004775D01*
X122515743Y-124082796D01*
X122346225Y-124196064D01*
X122302288Y-124240001D01*
X119899710Y-124240001D01*
X119855773Y-124196064D01*
X119686255Y-124082796D01*
X119497897Y-124004775D01*
X119297938Y-123965001D01*
X119094060Y-123965001D01*
X118894101Y-124004775D01*
X118705743Y-124082796D01*
X118536225Y-124196064D01*
X118492288Y-124240001D01*
X115169321Y-124240001D01*
X115131998Y-124236325D01*
X115094676Y-124240001D01*
X115094666Y-124240001D01*
X114983013Y-124250998D01*
X114839752Y-124294455D01*
X114707774Y-124365000D01*
X114630061Y-124365000D01*
X114430102Y-124404774D01*
X114241744Y-124482795D01*
X114072226Y-124596063D01*
X113928063Y-124740226D01*
X113814795Y-124909744D01*
X113736774Y-125098102D01*
X113697000Y-125298061D01*
X104162772Y-125298061D01*
X104167494Y-125295537D01*
X104264185Y-125216185D01*
X104343537Y-125119494D01*
X104402502Y-125009180D01*
X104438812Y-124889482D01*
X104451072Y-124765000D01*
X104451072Y-123235000D01*
X104438812Y-123110518D01*
X104402502Y-122990820D01*
X104343537Y-122880506D01*
X104264185Y-122783815D01*
X104167494Y-122704463D01*
X104057180Y-122645498D01*
X103937482Y-122609188D01*
X103859541Y-122601512D01*
X103940448Y-122547451D01*
X104135451Y-122352448D01*
X104288664Y-122123149D01*
X104394199Y-121868365D01*
X104448000Y-121597888D01*
X104448000Y-121322112D01*
X104394199Y-121051635D01*
X104364553Y-120980061D01*
X125990600Y-120980061D01*
X125990600Y-121183939D01*
X126030374Y-121383898D01*
X126108395Y-121572256D01*
X126221663Y-121741774D01*
X126365826Y-121885937D01*
X126535344Y-121999205D01*
X126723702Y-122077226D01*
X126923661Y-122117000D01*
X127127539Y-122117000D01*
X127327498Y-122077226D01*
X127515856Y-121999205D01*
X127606076Y-121938922D01*
X127644063Y-121995774D01*
X127788226Y-122139937D01*
X127957744Y-122253205D01*
X128146102Y-122331226D01*
X128346061Y-122371000D01*
X128549939Y-122371000D01*
X128749898Y-122331226D01*
X128938256Y-122253205D01*
X129107774Y-122139937D01*
X129151711Y-122096000D01*
X130792289Y-122096000D01*
X130836226Y-122139937D01*
X131005744Y-122253205D01*
X131194102Y-122331226D01*
X131394061Y-122371000D01*
X131597939Y-122371000D01*
X131797898Y-122331226D01*
X131986256Y-122253205D01*
X132155774Y-122139937D01*
X132299937Y-121995774D01*
X132413205Y-121826256D01*
X132491226Y-121637898D01*
X132500753Y-121590000D01*
X135083815Y-121590000D01*
X135112487Y-121881111D01*
X135197401Y-122161034D01*
X135335294Y-122419014D01*
X135520866Y-122645134D01*
X135746986Y-122830706D01*
X135801791Y-122860000D01*
X135746986Y-122889294D01*
X135520866Y-123074866D01*
X135335294Y-123300986D01*
X135197401Y-123558966D01*
X135112487Y-123838889D01*
X135083815Y-124130000D01*
X135112487Y-124421111D01*
X135197401Y-124701034D01*
X135335294Y-124959014D01*
X135520866Y-125185134D01*
X135746986Y-125370706D01*
X136004966Y-125508599D01*
X136284889Y-125593513D01*
X136503050Y-125615000D01*
X136648950Y-125615000D01*
X136867111Y-125593513D01*
X137147034Y-125508599D01*
X137405014Y-125370706D01*
X137631134Y-125185134D01*
X137655607Y-125155313D01*
X137676498Y-125224180D01*
X137735463Y-125334494D01*
X137814815Y-125431185D01*
X137911506Y-125510537D01*
X138021820Y-125569502D01*
X138141518Y-125605812D01*
X138266000Y-125618072D01*
X139966000Y-125618072D01*
X140090482Y-125605812D01*
X140210180Y-125569502D01*
X140320494Y-125510537D01*
X140417185Y-125431185D01*
X140496537Y-125334494D01*
X140555502Y-125224180D01*
X140591812Y-125104482D01*
X140604072Y-124980000D01*
X140604072Y-123280000D01*
X140599641Y-123235000D01*
X144570928Y-123235000D01*
X144570928Y-124765000D01*
X144583188Y-124889482D01*
X144619498Y-125009180D01*
X144678463Y-125119494D01*
X144757815Y-125216185D01*
X144854506Y-125295537D01*
X144964820Y-125354502D01*
X145084518Y-125390812D01*
X145209000Y-125403072D01*
X146739000Y-125403072D01*
X146863482Y-125390812D01*
X146983180Y-125354502D01*
X147093494Y-125295537D01*
X147190185Y-125216185D01*
X147269537Y-125119494D01*
X147328502Y-125009180D01*
X147364812Y-124889482D01*
X147377072Y-124765000D01*
X147377072Y-123235000D01*
X147364812Y-123110518D01*
X147328502Y-122990820D01*
X147269537Y-122880506D01*
X147190185Y-122783815D01*
X147093494Y-122704463D01*
X146983180Y-122645498D01*
X146863482Y-122609188D01*
X146785541Y-122601512D01*
X146866448Y-122547451D01*
X147061451Y-122352448D01*
X147214664Y-122123149D01*
X147320199Y-121868365D01*
X147374000Y-121597888D01*
X147374000Y-121322112D01*
X147320199Y-121051635D01*
X147214664Y-120796851D01*
X147061451Y-120567552D01*
X146866448Y-120372549D01*
X146637149Y-120219336D01*
X146572406Y-120192518D01*
X146578072Y-120190478D01*
X146694760Y-120128106D01*
X146762102Y-119887707D01*
X145974000Y-119099605D01*
X145185898Y-119887707D01*
X145253240Y-120128106D01*
X145383336Y-120189312D01*
X145310851Y-120219336D01*
X145081552Y-120372549D01*
X144886549Y-120567552D01*
X144733336Y-120796851D01*
X144627801Y-121051635D01*
X144574000Y-121322112D01*
X144574000Y-121597888D01*
X144627801Y-121868365D01*
X144733336Y-122123149D01*
X144886549Y-122352448D01*
X145081552Y-122547451D01*
X145162459Y-122601512D01*
X145084518Y-122609188D01*
X144964820Y-122645498D01*
X144854506Y-122704463D01*
X144757815Y-122783815D01*
X144678463Y-122880506D01*
X144619498Y-122990820D01*
X144583188Y-123110518D01*
X144570928Y-123235000D01*
X140599641Y-123235000D01*
X140591812Y-123155518D01*
X140555502Y-123035820D01*
X140496537Y-122925506D01*
X140417185Y-122828815D01*
X140320494Y-122749463D01*
X140210180Y-122690498D01*
X140141313Y-122669607D01*
X140171134Y-122645134D01*
X140356706Y-122419014D01*
X140494599Y-122161034D01*
X140579513Y-121881111D01*
X140608185Y-121590000D01*
X140579513Y-121298889D01*
X140494599Y-121018966D01*
X140356706Y-120760986D01*
X140171134Y-120534866D01*
X139945014Y-120349294D01*
X139890209Y-120320000D01*
X139945014Y-120290706D01*
X140171134Y-120105134D01*
X140356706Y-119879014D01*
X140494599Y-119621034D01*
X140579513Y-119341111D01*
X140608185Y-119050000D01*
X140602463Y-118991899D01*
X144569064Y-118991899D01*
X144610086Y-119264607D01*
X144703522Y-119524072D01*
X144765894Y-119640760D01*
X145006293Y-119708102D01*
X145794395Y-118920000D01*
X146153605Y-118920000D01*
X146941707Y-119708102D01*
X147182106Y-119640760D01*
X147299506Y-119391220D01*
X147365967Y-119123573D01*
X147378936Y-118848101D01*
X147337914Y-118575393D01*
X147244478Y-118315928D01*
X147182106Y-118199240D01*
X146941707Y-118131898D01*
X146153605Y-118920000D01*
X145794395Y-118920000D01*
X145006293Y-118131898D01*
X144765894Y-118199240D01*
X144648494Y-118448780D01*
X144582033Y-118716427D01*
X144569064Y-118991899D01*
X140602463Y-118991899D01*
X140579513Y-118758889D01*
X140494599Y-118478966D01*
X140356706Y-118220986D01*
X140171134Y-117994866D01*
X139945014Y-117809294D01*
X139687034Y-117671401D01*
X139407111Y-117586487D01*
X139188950Y-117565000D01*
X139043050Y-117565000D01*
X138824889Y-117586487D01*
X138544966Y-117671401D01*
X138286986Y-117809294D01*
X138060866Y-117994866D01*
X137875294Y-118220986D01*
X137844416Y-118278756D01*
X137673588Y-118049731D01*
X137457355Y-117854822D01*
X137207252Y-117705843D01*
X136932891Y-117608519D01*
X136703000Y-117729186D01*
X136703000Y-118923000D01*
X136723000Y-118923000D01*
X136723000Y-119177000D01*
X136703000Y-119177000D01*
X136703000Y-119197000D01*
X136449000Y-119197000D01*
X136449000Y-119177000D01*
X135255845Y-119177000D01*
X135134524Y-119406890D01*
X135179175Y-119554099D01*
X135304359Y-119816920D01*
X135478412Y-120050269D01*
X135694645Y-120245178D01*
X135811523Y-120314799D01*
X135746986Y-120349294D01*
X135520866Y-120534866D01*
X135335294Y-120760986D01*
X135197401Y-121018966D01*
X135112487Y-121298889D01*
X135083815Y-121590000D01*
X132500753Y-121590000D01*
X132531000Y-121437939D01*
X132531000Y-121234061D01*
X132491226Y-121034102D01*
X132413205Y-120845744D01*
X132299937Y-120676226D01*
X132155774Y-120532063D01*
X131986256Y-120418795D01*
X131797898Y-120340774D01*
X131597939Y-120301000D01*
X131394061Y-120301000D01*
X131194102Y-120340774D01*
X131005744Y-120418795D01*
X130836226Y-120532063D01*
X130792289Y-120576000D01*
X129209800Y-120576000D01*
X129975800Y-119810000D01*
X130792289Y-119810000D01*
X130836226Y-119853937D01*
X131005744Y-119967205D01*
X131194102Y-120045226D01*
X131394061Y-120085000D01*
X131597939Y-120085000D01*
X131797898Y-120045226D01*
X131986256Y-119967205D01*
X132155774Y-119853937D01*
X132299937Y-119709774D01*
X132413205Y-119540256D01*
X132491226Y-119351898D01*
X132531000Y-119151939D01*
X132531000Y-118948061D01*
X132491226Y-118748102D01*
X132468448Y-118693110D01*
X135134524Y-118693110D01*
X135255845Y-118923000D01*
X136449000Y-118923000D01*
X136449000Y-117729186D01*
X136219109Y-117608519D01*
X135944748Y-117705843D01*
X135694645Y-117854822D01*
X135478412Y-118049731D01*
X135304359Y-118283080D01*
X135179175Y-118545901D01*
X135134524Y-118693110D01*
X132468448Y-118693110D01*
X132413205Y-118559744D01*
X132299937Y-118390226D01*
X132155774Y-118246063D01*
X131986256Y-118132795D01*
X131797898Y-118054774D01*
X131597939Y-118015000D01*
X131394061Y-118015000D01*
X131194102Y-118054774D01*
X131005744Y-118132795D01*
X130836226Y-118246063D01*
X130792289Y-118290000D01*
X129698321Y-118290000D01*
X129660998Y-118286324D01*
X129623675Y-118290000D01*
X129623665Y-118290000D01*
X129512012Y-118300997D01*
X129368751Y-118344454D01*
X129236721Y-118415026D01*
X129158811Y-118478966D01*
X129120997Y-118509999D01*
X129097199Y-118538997D01*
X127484422Y-120151775D01*
X127327498Y-120086774D01*
X127127539Y-120047000D01*
X126923661Y-120047000D01*
X126723702Y-120086774D01*
X126535344Y-120164795D01*
X126365826Y-120278063D01*
X126221663Y-120422226D01*
X126108395Y-120591744D01*
X126030374Y-120780102D01*
X125990600Y-120980061D01*
X104364553Y-120980061D01*
X104288664Y-120796851D01*
X104135451Y-120567552D01*
X103940448Y-120372549D01*
X103711149Y-120219336D01*
X103646406Y-120192518D01*
X103652072Y-120190478D01*
X103768760Y-120128106D01*
X103836102Y-119887707D01*
X103048000Y-119099605D01*
X102259898Y-119887707D01*
X102327240Y-120128106D01*
X102457336Y-120189312D01*
X102384851Y-120219336D01*
X102155552Y-120372549D01*
X101960549Y-120567552D01*
X101807336Y-120796851D01*
X101701801Y-121051635D01*
X101648000Y-121322112D01*
X101648000Y-121597888D01*
X101701801Y-121868365D01*
X101807336Y-122123149D01*
X101960549Y-122352448D01*
X102155552Y-122547451D01*
X102236459Y-122601512D01*
X102158518Y-122609188D01*
X102038820Y-122645498D01*
X101928506Y-122704463D01*
X101831815Y-122783815D01*
X101752463Y-122880506D01*
X101693498Y-122990820D01*
X101657188Y-123110518D01*
X101644928Y-123235000D01*
X100660000Y-123235000D01*
X100660000Y-118991899D01*
X101643064Y-118991899D01*
X101684086Y-119264607D01*
X101777522Y-119524072D01*
X101839894Y-119640760D01*
X102080293Y-119708102D01*
X102868395Y-118920000D01*
X103227605Y-118920000D01*
X104015707Y-119708102D01*
X104256106Y-119640760D01*
X104373506Y-119391220D01*
X104439967Y-119123573D01*
X104452936Y-118848101D01*
X104411914Y-118575393D01*
X104318478Y-118315928D01*
X104256106Y-118199240D01*
X104015707Y-118131898D01*
X103227605Y-118920000D01*
X102868395Y-118920000D01*
X102080293Y-118131898D01*
X101839894Y-118199240D01*
X101722494Y-118448780D01*
X101656033Y-118716427D01*
X101643064Y-118991899D01*
X100660000Y-118991899D01*
X100660000Y-116242112D01*
X101648000Y-116242112D01*
X101648000Y-116517888D01*
X101701801Y-116788365D01*
X101807336Y-117043149D01*
X101960549Y-117272448D01*
X102155552Y-117467451D01*
X102384851Y-117620664D01*
X102449594Y-117647482D01*
X102443928Y-117649522D01*
X102327240Y-117711894D01*
X102259898Y-117952293D01*
X103048000Y-118740395D01*
X103836102Y-117952293D01*
X103768760Y-117711894D01*
X103638664Y-117650688D01*
X103711149Y-117620664D01*
X103940448Y-117467451D01*
X104135451Y-117272448D01*
X104288664Y-117043149D01*
X104394199Y-116788365D01*
X104448000Y-116517888D01*
X104448000Y-116242112D01*
X104394199Y-115971635D01*
X104288664Y-115716851D01*
X104135451Y-115487552D01*
X103940448Y-115292549D01*
X103711149Y-115139336D01*
X103456365Y-115033801D01*
X103185888Y-114980000D01*
X102910112Y-114980000D01*
X102639635Y-115033801D01*
X102384851Y-115139336D01*
X102155552Y-115292549D01*
X101960549Y-115487552D01*
X101807336Y-115716851D01*
X101701801Y-115971635D01*
X101648000Y-116242112D01*
X100660000Y-116242112D01*
X100660000Y-111947276D01*
X100688686Y-112091490D01*
X100793995Y-112345727D01*
X100946880Y-112574535D01*
X101141465Y-112769120D01*
X101370273Y-112922005D01*
X101624510Y-113027314D01*
X101894408Y-113081000D01*
X102169592Y-113081000D01*
X102439490Y-113027314D01*
X102693727Y-112922005D01*
X102922535Y-112769120D01*
X103042090Y-112649565D01*
X103786040Y-112649565D01*
X103853020Y-112889656D01*
X104102048Y-113006756D01*
X104369135Y-113073023D01*
X104644017Y-113085910D01*
X104916133Y-113044922D01*
X105175023Y-112951636D01*
X105290980Y-112889656D01*
X105357960Y-112649565D01*
X104572000Y-111863605D01*
X103786040Y-112649565D01*
X103042090Y-112649565D01*
X103117120Y-112574535D01*
X103270005Y-112345727D01*
X103299692Y-112274057D01*
X103304364Y-112287023D01*
X103366344Y-112402980D01*
X103606435Y-112469960D01*
X104392395Y-111684000D01*
X104751605Y-111684000D01*
X105537565Y-112469960D01*
X105711928Y-112421317D01*
X105711928Y-112446000D01*
X105724188Y-112570482D01*
X105760498Y-112690180D01*
X105819463Y-112800494D01*
X105898815Y-112897185D01*
X105995506Y-112976537D01*
X106105820Y-113035502D01*
X106225518Y-113071812D01*
X106350000Y-113084072D01*
X106352000Y-113084072D01*
X106352000Y-114440677D01*
X106348324Y-114478000D01*
X106352000Y-114515322D01*
X106352000Y-114515332D01*
X106362997Y-114626985D01*
X106406454Y-114770246D01*
X106477026Y-114902276D01*
X106516871Y-114950826D01*
X106571999Y-115018001D01*
X106601003Y-115041804D01*
X107855000Y-116295802D01*
X107855000Y-116357939D01*
X107894774Y-116557898D01*
X107972795Y-116746256D01*
X108086063Y-116915774D01*
X108230226Y-117059937D01*
X108399744Y-117173205D01*
X108588102Y-117251226D01*
X108788061Y-117291000D01*
X108991939Y-117291000D01*
X109191898Y-117251226D01*
X109380256Y-117173205D01*
X109549774Y-117059937D01*
X109693937Y-116915774D01*
X109807205Y-116746256D01*
X109885226Y-116557898D01*
X109925000Y-116357939D01*
X109925000Y-116154061D01*
X121317000Y-116154061D01*
X121317000Y-116357939D01*
X121356774Y-116557898D01*
X121434795Y-116746256D01*
X121548063Y-116915774D01*
X121692226Y-117059937D01*
X121861744Y-117173205D01*
X122050102Y-117251226D01*
X122250061Y-117291000D01*
X122453939Y-117291000D01*
X122653898Y-117251226D01*
X122797364Y-117191800D01*
X122841000Y-117191800D01*
X122841000Y-117373939D01*
X122880774Y-117573898D01*
X122958795Y-117762256D01*
X123072063Y-117931774D01*
X123216226Y-118075937D01*
X123385744Y-118189205D01*
X123574102Y-118267226D01*
X123774061Y-118307000D01*
X123977939Y-118307000D01*
X124177898Y-118267226D01*
X124366256Y-118189205D01*
X124535774Y-118075937D01*
X124579711Y-118032000D01*
X125255315Y-118032000D01*
X125358063Y-118185774D01*
X125502226Y-118329937D01*
X125671744Y-118443205D01*
X125860102Y-118521226D01*
X126060061Y-118561000D01*
X126263939Y-118561000D01*
X126463898Y-118521226D01*
X126652256Y-118443205D01*
X126821774Y-118329937D01*
X126965937Y-118185774D01*
X127079205Y-118016256D01*
X127157226Y-117827898D01*
X127197000Y-117627939D01*
X127197000Y-117424061D01*
X127157226Y-117224102D01*
X127079205Y-117035744D01*
X126965937Y-116866226D01*
X126821774Y-116722063D01*
X126789109Y-116700237D01*
X126827026Y-116608698D01*
X126866800Y-116408739D01*
X126866800Y-116242112D01*
X144574000Y-116242112D01*
X144574000Y-116517888D01*
X144627801Y-116788365D01*
X144733336Y-117043149D01*
X144886549Y-117272448D01*
X145081552Y-117467451D01*
X145310851Y-117620664D01*
X145375594Y-117647482D01*
X145369928Y-117649522D01*
X145253240Y-117711894D01*
X145185898Y-117952293D01*
X145974000Y-118740395D01*
X146762102Y-117952293D01*
X146694760Y-117711894D01*
X146564664Y-117650688D01*
X146637149Y-117620664D01*
X146866448Y-117467451D01*
X147061451Y-117272448D01*
X147214664Y-117043149D01*
X147320199Y-116788365D01*
X147374000Y-116517888D01*
X147374000Y-116242112D01*
X147320199Y-115971635D01*
X147214664Y-115716851D01*
X147061451Y-115487552D01*
X146866448Y-115292549D01*
X146637149Y-115139336D01*
X146382365Y-115033801D01*
X146111888Y-114980000D01*
X145836112Y-114980000D01*
X145565635Y-115033801D01*
X145310851Y-115139336D01*
X145081552Y-115292549D01*
X144886549Y-115487552D01*
X144733336Y-115716851D01*
X144627801Y-115971635D01*
X144574000Y-116242112D01*
X126866800Y-116242112D01*
X126866800Y-116204861D01*
X126827026Y-116004902D01*
X126749005Y-115816544D01*
X126635737Y-115647026D01*
X126491574Y-115502863D01*
X126322056Y-115389595D01*
X126133698Y-115311574D01*
X125933739Y-115271800D01*
X125729861Y-115271800D01*
X125529902Y-115311574D01*
X125341544Y-115389595D01*
X125293346Y-115421800D01*
X122966482Y-115421800D01*
X122842256Y-115338795D01*
X122653898Y-115260774D01*
X122453939Y-115221000D01*
X122250061Y-115221000D01*
X122050102Y-115260774D01*
X121861744Y-115338795D01*
X121692226Y-115452063D01*
X121548063Y-115596226D01*
X121434795Y-115765744D01*
X121356774Y-115954102D01*
X121317000Y-116154061D01*
X109925000Y-116154061D01*
X109885226Y-115954102D01*
X109807205Y-115765744D01*
X109693937Y-115596226D01*
X109549774Y-115452063D01*
X109380256Y-115338795D01*
X109191898Y-115260774D01*
X108991939Y-115221000D01*
X108929802Y-115221000D01*
X107872000Y-114163199D01*
X107872000Y-113084072D01*
X107874000Y-113084072D01*
X107998482Y-113071812D01*
X108118180Y-113035502D01*
X108228494Y-112976537D01*
X108325185Y-112897185D01*
X108404537Y-112800494D01*
X108463502Y-112690180D01*
X108499812Y-112570482D01*
X108512072Y-112446000D01*
X108512072Y-110922000D01*
X108499812Y-110797518D01*
X108463502Y-110677820D01*
X108404537Y-110567506D01*
X108325185Y-110470815D01*
X108228494Y-110391463D01*
X108118180Y-110332498D01*
X107998482Y-110296188D01*
X107874000Y-110283928D01*
X106350000Y-110283928D01*
X106225518Y-110296188D01*
X106105820Y-110332498D01*
X105995506Y-110391463D01*
X105898815Y-110470815D01*
X105819463Y-110567506D01*
X105760498Y-110677820D01*
X105724188Y-110797518D01*
X105711928Y-110922000D01*
X105711928Y-110946683D01*
X105537565Y-110898040D01*
X104751605Y-111684000D01*
X104392395Y-111684000D01*
X103606435Y-110898040D01*
X103366344Y-110965020D01*
X103302515Y-111100760D01*
X103270005Y-111022273D01*
X103117120Y-110793465D01*
X103042090Y-110718435D01*
X103786040Y-110718435D01*
X104572000Y-111504395D01*
X105357960Y-110718435D01*
X105290980Y-110478344D01*
X105041952Y-110361244D01*
X104774865Y-110294977D01*
X104499983Y-110282090D01*
X104227867Y-110323078D01*
X103968977Y-110416364D01*
X103853020Y-110478344D01*
X103786040Y-110718435D01*
X103042090Y-110718435D01*
X102922535Y-110598880D01*
X102693727Y-110445995D01*
X102439490Y-110340686D01*
X102169592Y-110287000D01*
X101894408Y-110287000D01*
X101624510Y-110340686D01*
X101370273Y-110445995D01*
X101141465Y-110598880D01*
X100946880Y-110793465D01*
X100793995Y-111022273D01*
X100688686Y-111276510D01*
X100660000Y-111420724D01*
X100660000Y-102954000D01*
X112047689Y-102954000D01*
X112079257Y-103274516D01*
X112172748Y-103582715D01*
X112324569Y-103866752D01*
X112528886Y-104115714D01*
X112692187Y-104249731D01*
X112510466Y-104398866D01*
X112324894Y-104624986D01*
X112187001Y-104882966D01*
X112102087Y-105162889D01*
X112073415Y-105454000D01*
X112102087Y-105745111D01*
X112187001Y-106025034D01*
X112324894Y-106283014D01*
X112510466Y-106509134D01*
X112736586Y-106694706D01*
X112753974Y-106704000D01*
X112736586Y-106713294D01*
X112510466Y-106898866D01*
X112324894Y-107124986D01*
X112187001Y-107382966D01*
X112102087Y-107662889D01*
X112073415Y-107954000D01*
X112102087Y-108245111D01*
X112187001Y-108525034D01*
X112324894Y-108783014D01*
X112510466Y-109009134D01*
X112736586Y-109194706D01*
X112753974Y-109204000D01*
X112736586Y-109213294D01*
X112510466Y-109398866D01*
X112324894Y-109624986D01*
X112187001Y-109882966D01*
X112102087Y-110162889D01*
X112073415Y-110454000D01*
X112102087Y-110745111D01*
X112187001Y-111025034D01*
X112324894Y-111283014D01*
X112510466Y-111509134D01*
X112573937Y-111561223D01*
X112472214Y-111615595D01*
X112337638Y-111726038D01*
X112227195Y-111860614D01*
X112145128Y-112014150D01*
X112094592Y-112180746D01*
X112077528Y-112354000D01*
X112077528Y-113554000D01*
X112094592Y-113727254D01*
X112145128Y-113893850D01*
X112227195Y-114047386D01*
X112337638Y-114181962D01*
X112472214Y-114292405D01*
X112625750Y-114374472D01*
X112792346Y-114425008D01*
X112965600Y-114442072D01*
X114415600Y-114442072D01*
X114588854Y-114425008D01*
X114755450Y-114374472D01*
X114908986Y-114292405D01*
X115043562Y-114181962D01*
X115154005Y-114047386D01*
X115236072Y-113893850D01*
X115286608Y-113727254D01*
X115303672Y-113554000D01*
X115303672Y-112354000D01*
X115286608Y-112180746D01*
X115236072Y-112014150D01*
X115154005Y-111860614D01*
X115043562Y-111726038D01*
X114908986Y-111615595D01*
X114807263Y-111561223D01*
X114870734Y-111509134D01*
X115056306Y-111283014D01*
X115194199Y-111025034D01*
X115256377Y-110820061D01*
X122841000Y-110820061D01*
X122841000Y-111023939D01*
X122880774Y-111223898D01*
X122958795Y-111412256D01*
X123072063Y-111581774D01*
X123216226Y-111725937D01*
X123385744Y-111839205D01*
X123574102Y-111917226D01*
X123774061Y-111957000D01*
X123977939Y-111957000D01*
X124177898Y-111917226D01*
X124366256Y-111839205D01*
X124535774Y-111725937D01*
X124579711Y-111682000D01*
X125204289Y-111682000D01*
X125248226Y-111725937D01*
X125417744Y-111839205D01*
X125606102Y-111917226D01*
X125806061Y-111957000D01*
X126009939Y-111957000D01*
X126209898Y-111917226D01*
X126398256Y-111839205D01*
X126567774Y-111725937D01*
X126711937Y-111581774D01*
X126825205Y-111412256D01*
X126875201Y-111291557D01*
X126875201Y-111539088D01*
X126831063Y-111583226D01*
X126717795Y-111752744D01*
X126639774Y-111941102D01*
X126600000Y-112141061D01*
X126600000Y-112344939D01*
X126639774Y-112544898D01*
X126717795Y-112733256D01*
X126831063Y-112902774D01*
X126975226Y-113046937D01*
X127144744Y-113160205D01*
X127333102Y-113238226D01*
X127533061Y-113278000D01*
X127736939Y-113278000D01*
X127936898Y-113238226D01*
X128125256Y-113160205D01*
X128294774Y-113046937D01*
X128438937Y-112902774D01*
X128552205Y-112733256D01*
X128630226Y-112544898D01*
X128670000Y-112344939D01*
X128670000Y-112141061D01*
X128630226Y-111941102D01*
X128552205Y-111752744D01*
X128438937Y-111583226D01*
X128395200Y-111539489D01*
X128395200Y-110508111D01*
X128439137Y-110464174D01*
X128552405Y-110294656D01*
X128630426Y-110106298D01*
X128670200Y-109906339D01*
X128670200Y-109702461D01*
X128630426Y-109502502D01*
X128552405Y-109314144D01*
X128439137Y-109144626D01*
X128294974Y-109000463D01*
X128125456Y-108887195D01*
X127937098Y-108809174D01*
X127737139Y-108769400D01*
X127533261Y-108769400D01*
X127333302Y-108809174D01*
X127144944Y-108887195D01*
X126975426Y-109000463D01*
X126831263Y-109144626D01*
X126717995Y-109314144D01*
X126639974Y-109502502D01*
X126600200Y-109702461D01*
X126600200Y-109906339D01*
X126639974Y-110106298D01*
X126699347Y-110249636D01*
X126567774Y-110118063D01*
X126398256Y-110004795D01*
X126209898Y-109926774D01*
X126009939Y-109887000D01*
X125806061Y-109887000D01*
X125606102Y-109926774D01*
X125417744Y-110004795D01*
X125248226Y-110118063D01*
X125204289Y-110162000D01*
X124579711Y-110162000D01*
X124535774Y-110118063D01*
X124366256Y-110004795D01*
X124177898Y-109926774D01*
X123977939Y-109887000D01*
X123774061Y-109887000D01*
X123574102Y-109926774D01*
X123385744Y-110004795D01*
X123216226Y-110118063D01*
X123072063Y-110262226D01*
X122958795Y-110431744D01*
X122880774Y-110620102D01*
X122841000Y-110820061D01*
X115256377Y-110820061D01*
X115279113Y-110745111D01*
X115307785Y-110454000D01*
X115279113Y-110162889D01*
X115194199Y-109882966D01*
X115056306Y-109624986D01*
X114870734Y-109398866D01*
X114644614Y-109213294D01*
X114627226Y-109204000D01*
X114644614Y-109194706D01*
X114870734Y-109009134D01*
X115056306Y-108783014D01*
X115194199Y-108525034D01*
X115279113Y-108245111D01*
X115307785Y-107954000D01*
X115279113Y-107662889D01*
X115194199Y-107382966D01*
X115056306Y-107124986D01*
X114870734Y-106898866D01*
X114644614Y-106713294D01*
X114627226Y-106704000D01*
X114644614Y-106694706D01*
X114870734Y-106509134D01*
X115056306Y-106283014D01*
X115194199Y-106025034D01*
X115279113Y-105745111D01*
X115307785Y-105454000D01*
X115279113Y-105162889D01*
X115194199Y-104882966D01*
X115056306Y-104624986D01*
X115026773Y-104589000D01*
X134020627Y-104589000D01*
X133991094Y-104624986D01*
X133853201Y-104882966D01*
X133768287Y-105162889D01*
X133739615Y-105454000D01*
X133768287Y-105745111D01*
X133853201Y-106025034D01*
X133991094Y-106283014D01*
X134176666Y-106509134D01*
X134402786Y-106694706D01*
X134420174Y-106704000D01*
X134402786Y-106713294D01*
X134176666Y-106898866D01*
X133991094Y-107124986D01*
X133853201Y-107382966D01*
X133768287Y-107662889D01*
X133739615Y-107954000D01*
X133768287Y-108245111D01*
X133853201Y-108525034D01*
X133991094Y-108783014D01*
X134176666Y-109009134D01*
X134402786Y-109194706D01*
X134420174Y-109204000D01*
X134402786Y-109213294D01*
X134176666Y-109398866D01*
X133991094Y-109624986D01*
X133853201Y-109882966D01*
X133768287Y-110162889D01*
X133739615Y-110454000D01*
X133768287Y-110745111D01*
X133853201Y-111025034D01*
X133991094Y-111283014D01*
X134176666Y-111509134D01*
X134240137Y-111561223D01*
X134138414Y-111615595D01*
X134003838Y-111726038D01*
X133893395Y-111860614D01*
X133811328Y-112014150D01*
X133760792Y-112180746D01*
X133743728Y-112354000D01*
X133743728Y-113554000D01*
X133760792Y-113727254D01*
X133811328Y-113893850D01*
X133893395Y-114047386D01*
X134003838Y-114181962D01*
X134138414Y-114292405D01*
X134291950Y-114374472D01*
X134458546Y-114425008D01*
X134631800Y-114442072D01*
X136081800Y-114442072D01*
X136255054Y-114425008D01*
X136421650Y-114374472D01*
X136573456Y-114293330D01*
X136557000Y-114376061D01*
X136557000Y-114579939D01*
X136596774Y-114779898D01*
X136674795Y-114968256D01*
X136788063Y-115137774D01*
X136932226Y-115281937D01*
X137101744Y-115395205D01*
X137290102Y-115473226D01*
X137490061Y-115513000D01*
X137693939Y-115513000D01*
X137893898Y-115473226D01*
X138082256Y-115395205D01*
X138251774Y-115281937D01*
X138295711Y-115238000D01*
X142126678Y-115238000D01*
X142164000Y-115241676D01*
X142201322Y-115238000D01*
X142201333Y-115238000D01*
X142312986Y-115227003D01*
X142456247Y-115183546D01*
X142588276Y-115112974D01*
X142704001Y-115018001D01*
X142727804Y-114988998D01*
X143219802Y-114497000D01*
X143281939Y-114497000D01*
X143481898Y-114457226D01*
X143670256Y-114379205D01*
X143839774Y-114265937D01*
X143983937Y-114121774D01*
X144097205Y-113952256D01*
X144175226Y-113763898D01*
X144215000Y-113563939D01*
X144215000Y-113360061D01*
X144175226Y-113160102D01*
X144097205Y-112971744D01*
X143983937Y-112802226D01*
X143839774Y-112658063D01*
X143827056Y-112649565D01*
X144426040Y-112649565D01*
X144493020Y-112889656D01*
X144742048Y-113006756D01*
X145009135Y-113073023D01*
X145284017Y-113085910D01*
X145556133Y-113044922D01*
X145815023Y-112951636D01*
X145930980Y-112889656D01*
X145997960Y-112649565D01*
X145212000Y-111863605D01*
X144426040Y-112649565D01*
X143827056Y-112649565D01*
X143740155Y-112591500D01*
X143757120Y-112574535D01*
X143910005Y-112345727D01*
X143939692Y-112274057D01*
X143944364Y-112287023D01*
X144006344Y-112402980D01*
X144246435Y-112469960D01*
X145032395Y-111684000D01*
X145391605Y-111684000D01*
X146177565Y-112469960D01*
X146351928Y-112421317D01*
X146351928Y-112446000D01*
X146364188Y-112570482D01*
X146400498Y-112690180D01*
X146459463Y-112800494D01*
X146538815Y-112897185D01*
X146635506Y-112976537D01*
X146745820Y-113035502D01*
X146865518Y-113071812D01*
X146990000Y-113084072D01*
X148514000Y-113084072D01*
X148638482Y-113071812D01*
X148758180Y-113035502D01*
X148868494Y-112976537D01*
X148965185Y-112897185D01*
X149044537Y-112800494D01*
X149103502Y-112690180D01*
X149139812Y-112570482D01*
X149152072Y-112446000D01*
X149152072Y-110922000D01*
X149139812Y-110797518D01*
X149103502Y-110677820D01*
X149044537Y-110567506D01*
X148965185Y-110470815D01*
X148868494Y-110391463D01*
X148758180Y-110332498D01*
X148638482Y-110296188D01*
X148514000Y-110283928D01*
X146990000Y-110283928D01*
X146865518Y-110296188D01*
X146745820Y-110332498D01*
X146635506Y-110391463D01*
X146538815Y-110470815D01*
X146459463Y-110567506D01*
X146400498Y-110677820D01*
X146364188Y-110797518D01*
X146351928Y-110922000D01*
X146351928Y-110946683D01*
X146177565Y-110898040D01*
X145391605Y-111684000D01*
X145032395Y-111684000D01*
X144246435Y-110898040D01*
X144006344Y-110965020D01*
X143942515Y-111100760D01*
X143910005Y-111022273D01*
X143757120Y-110793465D01*
X143682090Y-110718435D01*
X144426040Y-110718435D01*
X145212000Y-111504395D01*
X145997960Y-110718435D01*
X145930980Y-110478344D01*
X145681952Y-110361244D01*
X145414865Y-110294977D01*
X145139983Y-110282090D01*
X144867867Y-110323078D01*
X144608977Y-110416364D01*
X144493020Y-110478344D01*
X144426040Y-110718435D01*
X143682090Y-110718435D01*
X143562535Y-110598880D01*
X143333727Y-110445995D01*
X143079490Y-110340686D01*
X142809592Y-110287000D01*
X142534408Y-110287000D01*
X142264510Y-110340686D01*
X142010273Y-110445995D01*
X141781465Y-110598880D01*
X141586880Y-110793465D01*
X141433995Y-111022273D01*
X141328686Y-111276510D01*
X141275000Y-111546408D01*
X141275000Y-111821592D01*
X141328686Y-112091490D01*
X141433995Y-112345727D01*
X141586880Y-112574535D01*
X141781465Y-112769120D01*
X142010273Y-112922005D01*
X142243399Y-113018570D01*
X142184774Y-113160102D01*
X142145000Y-113360061D01*
X142145000Y-113422198D01*
X141849199Y-113718000D01*
X138295711Y-113718000D01*
X138251774Y-113674063D01*
X138082256Y-113560795D01*
X137893898Y-113482774D01*
X137693939Y-113443000D01*
X137490061Y-113443000D01*
X137290102Y-113482774D01*
X137101744Y-113560795D01*
X136959866Y-113655595D01*
X136969872Y-113554000D01*
X136969872Y-112354000D01*
X136952808Y-112180746D01*
X136902272Y-112014150D01*
X136820205Y-111860614D01*
X136709762Y-111726038D01*
X136575186Y-111615595D01*
X136473463Y-111561223D01*
X136536934Y-111509134D01*
X136722506Y-111283014D01*
X136860399Y-111025034D01*
X136945313Y-110745111D01*
X136973985Y-110454000D01*
X136945313Y-110162889D01*
X136860399Y-109882966D01*
X136722506Y-109624986D01*
X136536934Y-109398866D01*
X136310814Y-109213294D01*
X136293426Y-109204000D01*
X136310814Y-109194706D01*
X136536934Y-109009134D01*
X136722506Y-108783014D01*
X136860399Y-108525034D01*
X136945313Y-108245111D01*
X136973985Y-107954000D01*
X136945313Y-107662889D01*
X136860399Y-107382966D01*
X136722506Y-107124986D01*
X136536934Y-106898866D01*
X136310814Y-106713294D01*
X136293426Y-106704000D01*
X136310814Y-106694706D01*
X136536934Y-106509134D01*
X136722506Y-106283014D01*
X136860399Y-106025034D01*
X136945313Y-105745111D01*
X136973985Y-105454000D01*
X136945313Y-105162889D01*
X136860399Y-104882966D01*
X136722506Y-104624986D01*
X136536934Y-104398866D01*
X136355213Y-104249731D01*
X136518514Y-104115714D01*
X136722831Y-103866752D01*
X136874652Y-103582715D01*
X136968143Y-103274516D01*
X136999711Y-102954000D01*
X136968143Y-102633484D01*
X136874652Y-102325285D01*
X136722831Y-102041248D01*
X136518514Y-101792286D01*
X136269552Y-101587969D01*
X135985515Y-101436148D01*
X135677316Y-101342657D01*
X135437122Y-101319000D01*
X113610278Y-101319000D01*
X113370084Y-101342657D01*
X113061885Y-101436148D01*
X112777848Y-101587969D01*
X112528886Y-101792286D01*
X112324569Y-102041248D01*
X112172748Y-102325285D01*
X112079257Y-102633484D01*
X112047689Y-102954000D01*
X100660000Y-102954000D01*
X100660000Y-100660000D01*
X149340001Y-100660000D01*
X149340000Y-132640000D01*
M02*
