G04 #@! TF.GenerationSoftware,KiCad,Pcbnew,(5.1.0-0)*
G04 #@! TF.CreationDate,2019-05-01T12:35:33-05:00*
G04 #@! TF.ProjectId,splitflap-pcb,73706c69-7466-46c6-9170-2d7063622e6b,rev?*
G04 #@! TF.SameCoordinates,Original*
G04 #@! TF.FileFunction,Soldermask,Top*
G04 #@! TF.FilePolarity,Negative*
%FSLAX46Y46*%
G04 Gerber Fmt 4.6, Leading zero omitted, Abs format (unit mm)*
G04 Created by KiCad (PCBNEW (5.1.0-0)) date 2019-05-01 12:35:33*
%MOMM*%
%LPD*%
G04 APERTURE LIST*
%ADD10C,0.100000*%
G04 APERTURE END LIST*
D10*
G36*
X146608239Y-126021467D02*
G01*
X146922282Y-126083934D01*
X147513926Y-126329001D01*
X148046392Y-126684784D01*
X148499216Y-127137608D01*
X148854999Y-127670074D01*
X149100066Y-128261718D01*
X149225000Y-128889804D01*
X149225000Y-129530196D01*
X149100066Y-130158282D01*
X148854999Y-130749926D01*
X148499216Y-131282392D01*
X148046392Y-131735216D01*
X147513926Y-132090999D01*
X146922282Y-132336066D01*
X146608239Y-132398533D01*
X146294197Y-132461000D01*
X145653803Y-132461000D01*
X145339761Y-132398533D01*
X145025718Y-132336066D01*
X144434074Y-132090999D01*
X143901608Y-131735216D01*
X143448784Y-131282392D01*
X143093001Y-130749926D01*
X142847934Y-130158282D01*
X142723000Y-129530196D01*
X142723000Y-128889804D01*
X142847934Y-128261718D01*
X143093001Y-127670074D01*
X143448784Y-127137608D01*
X143901608Y-126684784D01*
X144434074Y-126329001D01*
X145025718Y-126083934D01*
X145339761Y-126021467D01*
X145653803Y-125959000D01*
X146294197Y-125959000D01*
X146608239Y-126021467D01*
X146608239Y-126021467D01*
G37*
G36*
X104698239Y-126021467D02*
G01*
X105012282Y-126083934D01*
X105603926Y-126329001D01*
X106136392Y-126684784D01*
X106589216Y-127137608D01*
X106944999Y-127670074D01*
X107190066Y-128261718D01*
X107315000Y-128889804D01*
X107315000Y-129530196D01*
X107190066Y-130158282D01*
X106944999Y-130749926D01*
X106589216Y-131282392D01*
X106136392Y-131735216D01*
X105603926Y-132090999D01*
X105012282Y-132336066D01*
X104698239Y-132398533D01*
X104384197Y-132461000D01*
X103743803Y-132461000D01*
X103429761Y-132398533D01*
X103115718Y-132336066D01*
X102524074Y-132090999D01*
X101991608Y-131735216D01*
X101538784Y-131282392D01*
X101183001Y-130749926D01*
X100937934Y-130158282D01*
X100813000Y-129530196D01*
X100813000Y-128889804D01*
X100937934Y-128261718D01*
X101183001Y-127670074D01*
X101538784Y-127137608D01*
X101991608Y-126684784D01*
X102524074Y-126329001D01*
X103115718Y-126083934D01*
X103429761Y-126021467D01*
X103743803Y-125959000D01*
X104384197Y-125959000D01*
X104698239Y-126021467D01*
X104698239Y-126021467D01*
G37*
G36*
X114845591Y-129196085D02*
G01*
X114879569Y-129206393D01*
X114910890Y-129223134D01*
X114938339Y-129245661D01*
X114960866Y-129273110D01*
X114977607Y-129304431D01*
X114987915Y-129338409D01*
X114992000Y-129379890D01*
X114992000Y-130056110D01*
X114987915Y-130097591D01*
X114977607Y-130131569D01*
X114960866Y-130162890D01*
X114938339Y-130190339D01*
X114910890Y-130212866D01*
X114879569Y-130229607D01*
X114845591Y-130239915D01*
X114804110Y-130244000D01*
X114202890Y-130244000D01*
X114161409Y-130239915D01*
X114127431Y-130229607D01*
X114096110Y-130212866D01*
X114068661Y-130190339D01*
X114046134Y-130162890D01*
X114029393Y-130131569D01*
X114019085Y-130097591D01*
X114015000Y-130056110D01*
X114015000Y-129379890D01*
X114019085Y-129338409D01*
X114029393Y-129304431D01*
X114046134Y-129273110D01*
X114068661Y-129245661D01*
X114096110Y-129223134D01*
X114127431Y-129206393D01*
X114161409Y-129196085D01*
X114202890Y-129192000D01*
X114804110Y-129192000D01*
X114845591Y-129196085D01*
X114845591Y-129196085D01*
G37*
G36*
X113270591Y-129196085D02*
G01*
X113304569Y-129206393D01*
X113335890Y-129223134D01*
X113363339Y-129245661D01*
X113385866Y-129273110D01*
X113402607Y-129304431D01*
X113412915Y-129338409D01*
X113417000Y-129379890D01*
X113417000Y-130056110D01*
X113412915Y-130097591D01*
X113402607Y-130131569D01*
X113385866Y-130162890D01*
X113363339Y-130190339D01*
X113335890Y-130212866D01*
X113304569Y-130229607D01*
X113270591Y-130239915D01*
X113229110Y-130244000D01*
X112627890Y-130244000D01*
X112586409Y-130239915D01*
X112552431Y-130229607D01*
X112521110Y-130212866D01*
X112493661Y-130190339D01*
X112471134Y-130162890D01*
X112454393Y-130131569D01*
X112444085Y-130097591D01*
X112440000Y-130056110D01*
X112440000Y-129379890D01*
X112444085Y-129338409D01*
X112454393Y-129304431D01*
X112471134Y-129273110D01*
X112493661Y-129245661D01*
X112521110Y-129223134D01*
X112552431Y-129206393D01*
X112586409Y-129196085D01*
X112627890Y-129192000D01*
X113229110Y-129192000D01*
X113270591Y-129196085D01*
X113270591Y-129196085D01*
G37*
G36*
X111797591Y-129196085D02*
G01*
X111831569Y-129206393D01*
X111862890Y-129223134D01*
X111890339Y-129245661D01*
X111912866Y-129273110D01*
X111929607Y-129304431D01*
X111939915Y-129338409D01*
X111944000Y-129379890D01*
X111944000Y-130056110D01*
X111939915Y-130097591D01*
X111929607Y-130131569D01*
X111912866Y-130162890D01*
X111890339Y-130190339D01*
X111862890Y-130212866D01*
X111831569Y-130229607D01*
X111797591Y-130239915D01*
X111756110Y-130244000D01*
X111154890Y-130244000D01*
X111113409Y-130239915D01*
X111079431Y-130229607D01*
X111048110Y-130212866D01*
X111020661Y-130190339D01*
X110998134Y-130162890D01*
X110981393Y-130131569D01*
X110971085Y-130097591D01*
X110967000Y-130056110D01*
X110967000Y-129379890D01*
X110971085Y-129338409D01*
X110981393Y-129304431D01*
X110998134Y-129273110D01*
X111020661Y-129245661D01*
X111048110Y-129223134D01*
X111079431Y-129206393D01*
X111113409Y-129196085D01*
X111154890Y-129192000D01*
X111756110Y-129192000D01*
X111797591Y-129196085D01*
X111797591Y-129196085D01*
G37*
G36*
X110222591Y-129196085D02*
G01*
X110256569Y-129206393D01*
X110287890Y-129223134D01*
X110315339Y-129245661D01*
X110337866Y-129273110D01*
X110354607Y-129304431D01*
X110364915Y-129338409D01*
X110369000Y-129379890D01*
X110369000Y-130056110D01*
X110364915Y-130097591D01*
X110354607Y-130131569D01*
X110337866Y-130162890D01*
X110315339Y-130190339D01*
X110287890Y-130212866D01*
X110256569Y-130229607D01*
X110222591Y-130239915D01*
X110181110Y-130244000D01*
X109579890Y-130244000D01*
X109538409Y-130239915D01*
X109504431Y-130229607D01*
X109473110Y-130212866D01*
X109445661Y-130190339D01*
X109423134Y-130162890D01*
X109406393Y-130131569D01*
X109396085Y-130097591D01*
X109392000Y-130056110D01*
X109392000Y-129379890D01*
X109396085Y-129338409D01*
X109406393Y-129304431D01*
X109423134Y-129273110D01*
X109445661Y-129245661D01*
X109473110Y-129223134D01*
X109504431Y-129206393D01*
X109538409Y-129196085D01*
X109579890Y-129192000D01*
X110181110Y-129192000D01*
X110222591Y-129196085D01*
X110222591Y-129196085D01*
G37*
G36*
X129069591Y-128942085D02*
G01*
X129103569Y-128952393D01*
X129134890Y-128969134D01*
X129162339Y-128991661D01*
X129184866Y-129019110D01*
X129201607Y-129050431D01*
X129211915Y-129084409D01*
X129216000Y-129125890D01*
X129216000Y-129802110D01*
X129211915Y-129843591D01*
X129201607Y-129877569D01*
X129184866Y-129908890D01*
X129162339Y-129936339D01*
X129134890Y-129958866D01*
X129103569Y-129975607D01*
X129069591Y-129985915D01*
X129028110Y-129990000D01*
X128426890Y-129990000D01*
X128385409Y-129985915D01*
X128351431Y-129975607D01*
X128320110Y-129958866D01*
X128292661Y-129936339D01*
X128270134Y-129908890D01*
X128253393Y-129877569D01*
X128243085Y-129843591D01*
X128239000Y-129802110D01*
X128239000Y-129125890D01*
X128243085Y-129084409D01*
X128253393Y-129050431D01*
X128270134Y-129019110D01*
X128292661Y-128991661D01*
X128320110Y-128969134D01*
X128351431Y-128952393D01*
X128385409Y-128942085D01*
X128426890Y-128938000D01*
X129028110Y-128938000D01*
X129069591Y-128942085D01*
X129069591Y-128942085D01*
G37*
G36*
X127494591Y-128942085D02*
G01*
X127528569Y-128952393D01*
X127559890Y-128969134D01*
X127587339Y-128991661D01*
X127609866Y-129019110D01*
X127626607Y-129050431D01*
X127636915Y-129084409D01*
X127641000Y-129125890D01*
X127641000Y-129802110D01*
X127636915Y-129843591D01*
X127626607Y-129877569D01*
X127609866Y-129908890D01*
X127587339Y-129936339D01*
X127559890Y-129958866D01*
X127528569Y-129975607D01*
X127494591Y-129985915D01*
X127453110Y-129990000D01*
X126851890Y-129990000D01*
X126810409Y-129985915D01*
X126776431Y-129975607D01*
X126745110Y-129958866D01*
X126717661Y-129936339D01*
X126695134Y-129908890D01*
X126678393Y-129877569D01*
X126668085Y-129843591D01*
X126664000Y-129802110D01*
X126664000Y-129125890D01*
X126668085Y-129084409D01*
X126678393Y-129050431D01*
X126695134Y-129019110D01*
X126717661Y-128991661D01*
X126745110Y-128969134D01*
X126776431Y-128952393D01*
X126810409Y-128942085D01*
X126851890Y-128938000D01*
X127453110Y-128938000D01*
X127494591Y-128942085D01*
X127494591Y-128942085D01*
G37*
G36*
X115123000Y-128719000D02*
G01*
X113821000Y-128719000D01*
X113821000Y-126417000D01*
X115123000Y-126417000D01*
X115123000Y-128719000D01*
X115123000Y-128719000D01*
G37*
G36*
X110563000Y-128719000D02*
G01*
X109261000Y-128719000D01*
X109261000Y-126417000D01*
X110563000Y-126417000D01*
X110563000Y-128719000D01*
X110563000Y-128719000D01*
G37*
G36*
X128958000Y-128393000D02*
G01*
X122706000Y-128393000D01*
X122706000Y-126691000D01*
X128958000Y-126691000D01*
X128958000Y-128393000D01*
X128958000Y-128393000D01*
G37*
G36*
X117651591Y-127227085D02*
G01*
X117685569Y-127237393D01*
X117716890Y-127254134D01*
X117744339Y-127276661D01*
X117766866Y-127304110D01*
X117783607Y-127335431D01*
X117793915Y-127369409D01*
X117798000Y-127410890D01*
X117798000Y-128012110D01*
X117793915Y-128053591D01*
X117783607Y-128087569D01*
X117766866Y-128118890D01*
X117744339Y-128146339D01*
X117716890Y-128168866D01*
X117685569Y-128185607D01*
X117651591Y-128195915D01*
X117610110Y-128200000D01*
X116933890Y-128200000D01*
X116892409Y-128195915D01*
X116858431Y-128185607D01*
X116827110Y-128168866D01*
X116799661Y-128146339D01*
X116777134Y-128118890D01*
X116760393Y-128087569D01*
X116750085Y-128053591D01*
X116746000Y-128012110D01*
X116746000Y-127410890D01*
X116750085Y-127369409D01*
X116760393Y-127335431D01*
X116777134Y-127304110D01*
X116799661Y-127276661D01*
X116827110Y-127254134D01*
X116858431Y-127237393D01*
X116892409Y-127227085D01*
X116933890Y-127223000D01*
X117610110Y-127223000D01*
X117651591Y-127227085D01*
X117651591Y-127227085D01*
G37*
G36*
X119683591Y-127205085D02*
G01*
X119717569Y-127215393D01*
X119748890Y-127232134D01*
X119776339Y-127254661D01*
X119798866Y-127282110D01*
X119815607Y-127313431D01*
X119825915Y-127347409D01*
X119830000Y-127388890D01*
X119830000Y-127990110D01*
X119825915Y-128031591D01*
X119815607Y-128065569D01*
X119798866Y-128096890D01*
X119776339Y-128124339D01*
X119748890Y-128146866D01*
X119717569Y-128163607D01*
X119683591Y-128173915D01*
X119642110Y-128178000D01*
X118965890Y-128178000D01*
X118924409Y-128173915D01*
X118890431Y-128163607D01*
X118859110Y-128146866D01*
X118831661Y-128124339D01*
X118809134Y-128096890D01*
X118792393Y-128065569D01*
X118782085Y-128031591D01*
X118778000Y-127990110D01*
X118778000Y-127388890D01*
X118782085Y-127347409D01*
X118792393Y-127313431D01*
X118809134Y-127282110D01*
X118831661Y-127254661D01*
X118859110Y-127232134D01*
X118890431Y-127215393D01*
X118924409Y-127205085D01*
X118965890Y-127201000D01*
X119642110Y-127201000D01*
X119683591Y-127205085D01*
X119683591Y-127205085D01*
G37*
G36*
X117651591Y-125652085D02*
G01*
X117685569Y-125662393D01*
X117716890Y-125679134D01*
X117744339Y-125701661D01*
X117766866Y-125729110D01*
X117783607Y-125760431D01*
X117793915Y-125794409D01*
X117798000Y-125835890D01*
X117798000Y-126437110D01*
X117793915Y-126478591D01*
X117783607Y-126512569D01*
X117766866Y-126543890D01*
X117744339Y-126571339D01*
X117716890Y-126593866D01*
X117685569Y-126610607D01*
X117651591Y-126620915D01*
X117610110Y-126625000D01*
X116933890Y-126625000D01*
X116892409Y-126620915D01*
X116858431Y-126610607D01*
X116827110Y-126593866D01*
X116799661Y-126571339D01*
X116777134Y-126543890D01*
X116760393Y-126512569D01*
X116750085Y-126478591D01*
X116746000Y-126437110D01*
X116746000Y-125835890D01*
X116750085Y-125794409D01*
X116760393Y-125760431D01*
X116777134Y-125729110D01*
X116799661Y-125701661D01*
X116827110Y-125679134D01*
X116858431Y-125662393D01*
X116892409Y-125652085D01*
X116933890Y-125648000D01*
X117610110Y-125648000D01*
X117651591Y-125652085D01*
X117651591Y-125652085D01*
G37*
G36*
X119683591Y-125630085D02*
G01*
X119717569Y-125640393D01*
X119748890Y-125657134D01*
X119776339Y-125679661D01*
X119798866Y-125707110D01*
X119815607Y-125738431D01*
X119825915Y-125772409D01*
X119830000Y-125813890D01*
X119830000Y-126415110D01*
X119825915Y-126456591D01*
X119815607Y-126490569D01*
X119798866Y-126521890D01*
X119776339Y-126549339D01*
X119748890Y-126571866D01*
X119717569Y-126588607D01*
X119683591Y-126598915D01*
X119642110Y-126603000D01*
X118965890Y-126603000D01*
X118924409Y-126598915D01*
X118890431Y-126588607D01*
X118859110Y-126571866D01*
X118831661Y-126549339D01*
X118809134Y-126521890D01*
X118792393Y-126490569D01*
X118782085Y-126456591D01*
X118778000Y-126415110D01*
X118778000Y-125813890D01*
X118782085Y-125772409D01*
X118792393Y-125738431D01*
X118809134Y-125707110D01*
X118831661Y-125679661D01*
X118859110Y-125657134D01*
X118890431Y-125640393D01*
X118924409Y-125630085D01*
X118965890Y-125626000D01*
X119642110Y-125626000D01*
X119683591Y-125630085D01*
X119683591Y-125630085D01*
G37*
G36*
X122433000Y-126418000D02*
G01*
X120731000Y-126418000D01*
X120731000Y-120166000D01*
X122433000Y-120166000D01*
X122433000Y-126418000D01*
X122433000Y-126418000D01*
G37*
G36*
X130933000Y-126418000D02*
G01*
X129231000Y-126418000D01*
X129231000Y-120166000D01*
X130933000Y-120166000D01*
X130933000Y-126418000D01*
X130933000Y-126418000D01*
G37*
G36*
X136686442Y-123235518D02*
G01*
X136752627Y-123242037D01*
X136922466Y-123293557D01*
X137078991Y-123377222D01*
X137114729Y-123406552D01*
X137216186Y-123489814D01*
X137299448Y-123591271D01*
X137328778Y-123627009D01*
X137370610Y-123705271D01*
X137404979Y-123769569D01*
X137412443Y-123783534D01*
X137463963Y-123953373D01*
X137481359Y-124130000D01*
X137463963Y-124306627D01*
X137412443Y-124476466D01*
X137328778Y-124632991D01*
X137299448Y-124668729D01*
X137216186Y-124770186D01*
X137130814Y-124840248D01*
X137078991Y-124882778D01*
X137078989Y-124882779D01*
X136955474Y-124948800D01*
X136922466Y-124966443D01*
X136752627Y-125017963D01*
X136686443Y-125024481D01*
X136620260Y-125031000D01*
X136531740Y-125031000D01*
X136465557Y-125024481D01*
X136399373Y-125017963D01*
X136229534Y-124966443D01*
X136196527Y-124948800D01*
X136073011Y-124882779D01*
X136073009Y-124882778D01*
X136021186Y-124840248D01*
X135935814Y-124770186D01*
X135852552Y-124668729D01*
X135823222Y-124632991D01*
X135739557Y-124476466D01*
X135688037Y-124306627D01*
X135670641Y-124130000D01*
X135688037Y-123953373D01*
X135739557Y-123783534D01*
X135747022Y-123769569D01*
X135781390Y-123705271D01*
X135823222Y-123627009D01*
X135852552Y-123591271D01*
X135935814Y-123489814D01*
X136037271Y-123406552D01*
X136073009Y-123377222D01*
X136229534Y-123293557D01*
X136399373Y-123242037D01*
X136465558Y-123235518D01*
X136531740Y-123229000D01*
X136620260Y-123229000D01*
X136686442Y-123235518D01*
X136686442Y-123235518D01*
G37*
G36*
X140017000Y-125031000D02*
G01*
X138215000Y-125031000D01*
X138215000Y-123229000D01*
X140017000Y-123229000D01*
X140017000Y-125031000D01*
X140017000Y-125031000D01*
G37*
G36*
X132637591Y-123975885D02*
G01*
X132671569Y-123986193D01*
X132702890Y-124002934D01*
X132730339Y-124025461D01*
X132752866Y-124052910D01*
X132769607Y-124084231D01*
X132779915Y-124118209D01*
X132784000Y-124159690D01*
X132784000Y-124760910D01*
X132779915Y-124802391D01*
X132769607Y-124836369D01*
X132752866Y-124867690D01*
X132730339Y-124895139D01*
X132702890Y-124917666D01*
X132671569Y-124934407D01*
X132637591Y-124944715D01*
X132596110Y-124948800D01*
X131919890Y-124948800D01*
X131878409Y-124944715D01*
X131844431Y-124934407D01*
X131813110Y-124917666D01*
X131785661Y-124895139D01*
X131763134Y-124867690D01*
X131746393Y-124836369D01*
X131736085Y-124802391D01*
X131732000Y-124760910D01*
X131732000Y-124159690D01*
X131736085Y-124118209D01*
X131746393Y-124084231D01*
X131763134Y-124052910D01*
X131785661Y-124025461D01*
X131813110Y-124002934D01*
X131844431Y-123986193D01*
X131878409Y-123975885D01*
X131919890Y-123971800D01*
X132596110Y-123971800D01*
X132637591Y-123975885D01*
X132637591Y-123975885D01*
G37*
G36*
X146790000Y-124816000D02*
G01*
X145158000Y-124816000D01*
X145158000Y-123184000D01*
X146790000Y-123184000D01*
X146790000Y-124816000D01*
X146790000Y-124816000D01*
G37*
G36*
X103864000Y-124816000D02*
G01*
X102232000Y-124816000D01*
X102232000Y-123184000D01*
X103864000Y-123184000D01*
X103864000Y-124816000D01*
X103864000Y-124816000D01*
G37*
G36*
X115143000Y-124519000D02*
G01*
X109241000Y-124519000D01*
X109241000Y-118017000D01*
X115143000Y-118017000D01*
X115143000Y-124519000D01*
X115143000Y-124519000D01*
G37*
G36*
X120129591Y-122909085D02*
G01*
X120163569Y-122919393D01*
X120194890Y-122936134D01*
X120222339Y-122958661D01*
X120244866Y-122986110D01*
X120261607Y-123017431D01*
X120271915Y-123051409D01*
X120276000Y-123092890D01*
X120276000Y-123694110D01*
X120271915Y-123735591D01*
X120261607Y-123769569D01*
X120244866Y-123800890D01*
X120222339Y-123828339D01*
X120194890Y-123850866D01*
X120163569Y-123867607D01*
X120129591Y-123877915D01*
X120088110Y-123882000D01*
X119411890Y-123882000D01*
X119370409Y-123877915D01*
X119336431Y-123867607D01*
X119305110Y-123850866D01*
X119277661Y-123828339D01*
X119255134Y-123800890D01*
X119238393Y-123769569D01*
X119228085Y-123735591D01*
X119224000Y-123694110D01*
X119224000Y-123092890D01*
X119228085Y-123051409D01*
X119238393Y-123017431D01*
X119255134Y-122986110D01*
X119277661Y-122958661D01*
X119305110Y-122936134D01*
X119336431Y-122919393D01*
X119370409Y-122909085D01*
X119411890Y-122905000D01*
X120088110Y-122905000D01*
X120129591Y-122909085D01*
X120129591Y-122909085D01*
G37*
G36*
X132637591Y-122400885D02*
G01*
X132671569Y-122411193D01*
X132702890Y-122427934D01*
X132730339Y-122450461D01*
X132752866Y-122477910D01*
X132769607Y-122509231D01*
X132779915Y-122543209D01*
X132784000Y-122584690D01*
X132784000Y-123185910D01*
X132779915Y-123227391D01*
X132769607Y-123261369D01*
X132752866Y-123292690D01*
X132730339Y-123320139D01*
X132702890Y-123342666D01*
X132671569Y-123359407D01*
X132637591Y-123369715D01*
X132596110Y-123373800D01*
X131919890Y-123373800D01*
X131878409Y-123369715D01*
X131844431Y-123359407D01*
X131813110Y-123342666D01*
X131785661Y-123320139D01*
X131763134Y-123292690D01*
X131746393Y-123261369D01*
X131736085Y-123227391D01*
X131732000Y-123185910D01*
X131732000Y-122584690D01*
X131736085Y-122543209D01*
X131746393Y-122509231D01*
X131763134Y-122477910D01*
X131785661Y-122450461D01*
X131813110Y-122427934D01*
X131844431Y-122411193D01*
X131878409Y-122400885D01*
X131919890Y-122396800D01*
X132596110Y-122396800D01*
X132637591Y-122400885D01*
X132637591Y-122400885D01*
G37*
G36*
X136686442Y-120695518D02*
G01*
X136752627Y-120702037D01*
X136922466Y-120753557D01*
X137078991Y-120837222D01*
X137114729Y-120866552D01*
X137216186Y-120949814D01*
X137299448Y-121051271D01*
X137328778Y-121087009D01*
X137412443Y-121243534D01*
X137463963Y-121413373D01*
X137481359Y-121590000D01*
X137463963Y-121766627D01*
X137412443Y-121936466D01*
X137328778Y-122092991D01*
X137299448Y-122128729D01*
X137216186Y-122230186D01*
X137128305Y-122302307D01*
X137078991Y-122342778D01*
X136922466Y-122426443D01*
X136752627Y-122477963D01*
X136686442Y-122484482D01*
X136620260Y-122491000D01*
X136531740Y-122491000D01*
X136465558Y-122484482D01*
X136399373Y-122477963D01*
X136229534Y-122426443D01*
X136073009Y-122342778D01*
X136023695Y-122302307D01*
X135935814Y-122230186D01*
X135852552Y-122128729D01*
X135823222Y-122092991D01*
X135739557Y-121936466D01*
X135688037Y-121766627D01*
X135670641Y-121590000D01*
X135688037Y-121413373D01*
X135739557Y-121243534D01*
X135823222Y-121087009D01*
X135852552Y-121051271D01*
X135935814Y-120949814D01*
X136037271Y-120866552D01*
X136073009Y-120837222D01*
X136229534Y-120753557D01*
X136399373Y-120702037D01*
X136465558Y-120695518D01*
X136531740Y-120689000D01*
X136620260Y-120689000D01*
X136686442Y-120695518D01*
X136686442Y-120695518D01*
G37*
G36*
X139226442Y-120695518D02*
G01*
X139292627Y-120702037D01*
X139462466Y-120753557D01*
X139618991Y-120837222D01*
X139654729Y-120866552D01*
X139756186Y-120949814D01*
X139839448Y-121051271D01*
X139868778Y-121087009D01*
X139952443Y-121243534D01*
X140003963Y-121413373D01*
X140021359Y-121590000D01*
X140003963Y-121766627D01*
X139952443Y-121936466D01*
X139868778Y-122092991D01*
X139839448Y-122128729D01*
X139756186Y-122230186D01*
X139668305Y-122302307D01*
X139618991Y-122342778D01*
X139462466Y-122426443D01*
X139292627Y-122477963D01*
X139226442Y-122484482D01*
X139160260Y-122491000D01*
X139071740Y-122491000D01*
X139005558Y-122484482D01*
X138939373Y-122477963D01*
X138769534Y-122426443D01*
X138613009Y-122342778D01*
X138563695Y-122302307D01*
X138475814Y-122230186D01*
X138392552Y-122128729D01*
X138363222Y-122092991D01*
X138279557Y-121936466D01*
X138228037Y-121766627D01*
X138210641Y-121590000D01*
X138228037Y-121413373D01*
X138279557Y-121243534D01*
X138363222Y-121087009D01*
X138392552Y-121051271D01*
X138475814Y-120949814D01*
X138577271Y-120866552D01*
X138613009Y-120837222D01*
X138769534Y-120753557D01*
X138939373Y-120702037D01*
X139005558Y-120695518D01*
X139071740Y-120689000D01*
X139160260Y-120689000D01*
X139226442Y-120695518D01*
X139226442Y-120695518D01*
G37*
G36*
X120129591Y-121334085D02*
G01*
X120163569Y-121344393D01*
X120194890Y-121361134D01*
X120222339Y-121383661D01*
X120244866Y-121411110D01*
X120261607Y-121442431D01*
X120271915Y-121476409D01*
X120276000Y-121517890D01*
X120276000Y-122119110D01*
X120271915Y-122160591D01*
X120261607Y-122194569D01*
X120244866Y-122225890D01*
X120222339Y-122253339D01*
X120194890Y-122275866D01*
X120163569Y-122292607D01*
X120129591Y-122302915D01*
X120088110Y-122307000D01*
X119411890Y-122307000D01*
X119370409Y-122302915D01*
X119336431Y-122292607D01*
X119305110Y-122275866D01*
X119277661Y-122253339D01*
X119255134Y-122225890D01*
X119238393Y-122194569D01*
X119228085Y-122160591D01*
X119224000Y-122119110D01*
X119224000Y-121517890D01*
X119228085Y-121476409D01*
X119238393Y-121442431D01*
X119255134Y-121411110D01*
X119277661Y-121383661D01*
X119305110Y-121361134D01*
X119336431Y-121344393D01*
X119370409Y-121334085D01*
X119411890Y-121330000D01*
X120088110Y-121330000D01*
X120129591Y-121334085D01*
X120129591Y-121334085D01*
G37*
G36*
X103286017Y-120675358D02*
G01*
X103360270Y-120706115D01*
X103434521Y-120736870D01*
X103434522Y-120736871D01*
X103568167Y-120826169D01*
X103681831Y-120939833D01*
X103748804Y-121040067D01*
X103771130Y-121073479D01*
X103776734Y-121087009D01*
X103832642Y-121221983D01*
X103864000Y-121379630D01*
X103864000Y-121540370D01*
X103832642Y-121698017D01*
X103804223Y-121766627D01*
X103771130Y-121846521D01*
X103771129Y-121846522D01*
X103681831Y-121980167D01*
X103568167Y-122093831D01*
X103474794Y-122156220D01*
X103434521Y-122183130D01*
X103286017Y-122244642D01*
X103128370Y-122276000D01*
X102967630Y-122276000D01*
X102809983Y-122244642D01*
X102661479Y-122183130D01*
X102621206Y-122156220D01*
X102527833Y-122093831D01*
X102414169Y-121980167D01*
X102324871Y-121846522D01*
X102324870Y-121846521D01*
X102291777Y-121766627D01*
X102263358Y-121698017D01*
X102232000Y-121540370D01*
X102232000Y-121379630D01*
X102263358Y-121221983D01*
X102319266Y-121087009D01*
X102324870Y-121073479D01*
X102347196Y-121040067D01*
X102414169Y-120939833D01*
X102527833Y-120826169D01*
X102661478Y-120736871D01*
X102661479Y-120736870D01*
X102735730Y-120706115D01*
X102809983Y-120675358D01*
X102967630Y-120644000D01*
X103128370Y-120644000D01*
X103286017Y-120675358D01*
X103286017Y-120675358D01*
G37*
G36*
X146212017Y-120675358D02*
G01*
X146286270Y-120706115D01*
X146360521Y-120736870D01*
X146360522Y-120736871D01*
X146494167Y-120826169D01*
X146607831Y-120939833D01*
X146674804Y-121040067D01*
X146697130Y-121073479D01*
X146702734Y-121087009D01*
X146758642Y-121221983D01*
X146790000Y-121379630D01*
X146790000Y-121540370D01*
X146758642Y-121698017D01*
X146730223Y-121766627D01*
X146697130Y-121846521D01*
X146697129Y-121846522D01*
X146607831Y-121980167D01*
X146494167Y-122093831D01*
X146400794Y-122156220D01*
X146360521Y-122183130D01*
X146212017Y-122244642D01*
X146054370Y-122276000D01*
X145893630Y-122276000D01*
X145735983Y-122244642D01*
X145587479Y-122183130D01*
X145547206Y-122156220D01*
X145453833Y-122093831D01*
X145340169Y-121980167D01*
X145250871Y-121846522D01*
X145250870Y-121846521D01*
X145217777Y-121766627D01*
X145189358Y-121698017D01*
X145158000Y-121540370D01*
X145158000Y-121379630D01*
X145189358Y-121221983D01*
X145245266Y-121087009D01*
X145250870Y-121073479D01*
X145273196Y-121040067D01*
X145340169Y-120939833D01*
X145453833Y-120826169D01*
X145587478Y-120736871D01*
X145587479Y-120736870D01*
X145661730Y-120706115D01*
X145735983Y-120675358D01*
X145893630Y-120644000D01*
X146054370Y-120644000D01*
X146212017Y-120675358D01*
X146212017Y-120675358D01*
G37*
G36*
X139226443Y-118155519D02*
G01*
X139292627Y-118162037D01*
X139462466Y-118213557D01*
X139618991Y-118297222D01*
X139654729Y-118326552D01*
X139756186Y-118409814D01*
X139839448Y-118511271D01*
X139868778Y-118547009D01*
X139952443Y-118703534D01*
X140003963Y-118873373D01*
X140021359Y-119050000D01*
X140003963Y-119226627D01*
X139952443Y-119396466D01*
X139868778Y-119552991D01*
X139839448Y-119588729D01*
X139756186Y-119690186D01*
X139654729Y-119773448D01*
X139618991Y-119802778D01*
X139462466Y-119886443D01*
X139292627Y-119937963D01*
X139226442Y-119944482D01*
X139160260Y-119951000D01*
X139071740Y-119951000D01*
X139005558Y-119944482D01*
X138939373Y-119937963D01*
X138769534Y-119886443D01*
X138613009Y-119802778D01*
X138577271Y-119773448D01*
X138475814Y-119690186D01*
X138392552Y-119588729D01*
X138363222Y-119552991D01*
X138279557Y-119396466D01*
X138228037Y-119226627D01*
X138210641Y-119050000D01*
X138228037Y-118873373D01*
X138279557Y-118703534D01*
X138363222Y-118547009D01*
X138392552Y-118511271D01*
X138475814Y-118409814D01*
X138577271Y-118326552D01*
X138613009Y-118297222D01*
X138769534Y-118213557D01*
X138939373Y-118162037D01*
X139005557Y-118155519D01*
X139071740Y-118149000D01*
X139160260Y-118149000D01*
X139226443Y-118155519D01*
X139226443Y-118155519D01*
G37*
G36*
X136686443Y-118155519D02*
G01*
X136752627Y-118162037D01*
X136922466Y-118213557D01*
X137078991Y-118297222D01*
X137114729Y-118326552D01*
X137216186Y-118409814D01*
X137299448Y-118511271D01*
X137328778Y-118547009D01*
X137412443Y-118703534D01*
X137463963Y-118873373D01*
X137481359Y-119050000D01*
X137463963Y-119226627D01*
X137412443Y-119396466D01*
X137328778Y-119552991D01*
X137299448Y-119588729D01*
X137216186Y-119690186D01*
X137114729Y-119773448D01*
X137078991Y-119802778D01*
X136922466Y-119886443D01*
X136752627Y-119937963D01*
X136686442Y-119944482D01*
X136620260Y-119951000D01*
X136531740Y-119951000D01*
X136465558Y-119944482D01*
X136399373Y-119937963D01*
X136229534Y-119886443D01*
X136073009Y-119802778D01*
X136037271Y-119773448D01*
X135935814Y-119690186D01*
X135852552Y-119588729D01*
X135823222Y-119552991D01*
X135739557Y-119396466D01*
X135688037Y-119226627D01*
X135670641Y-119050000D01*
X135688037Y-118873373D01*
X135739557Y-118703534D01*
X135823222Y-118547009D01*
X135852552Y-118511271D01*
X135935814Y-118409814D01*
X136037271Y-118326552D01*
X136073009Y-118297222D01*
X136229534Y-118213557D01*
X136399373Y-118162037D01*
X136465557Y-118155519D01*
X136531740Y-118149000D01*
X136620260Y-118149000D01*
X136686443Y-118155519D01*
X136686443Y-118155519D01*
G37*
G36*
X128958000Y-119893000D02*
G01*
X122706000Y-119893000D01*
X122706000Y-118191000D01*
X128958000Y-118191000D01*
X128958000Y-119893000D01*
X128958000Y-119893000D01*
G37*
G36*
X146212017Y-118135358D02*
G01*
X146360521Y-118196870D01*
X146360522Y-118196871D01*
X146494167Y-118286169D01*
X146607831Y-118399833D01*
X146674805Y-118500067D01*
X146697130Y-118533479D01*
X146702734Y-118547009D01*
X146758642Y-118681983D01*
X146790000Y-118839630D01*
X146790000Y-119000370D01*
X146758642Y-119158017D01*
X146730223Y-119226627D01*
X146697130Y-119306521D01*
X146697129Y-119306522D01*
X146607831Y-119440167D01*
X146494167Y-119553831D01*
X146393933Y-119620804D01*
X146360521Y-119643130D01*
X146212017Y-119704642D01*
X146054370Y-119736000D01*
X145893630Y-119736000D01*
X145735983Y-119704642D01*
X145587479Y-119643130D01*
X145554067Y-119620804D01*
X145453833Y-119553831D01*
X145340169Y-119440167D01*
X145250871Y-119306522D01*
X145250870Y-119306521D01*
X145217777Y-119226627D01*
X145189358Y-119158017D01*
X145158000Y-119000370D01*
X145158000Y-118839630D01*
X145189358Y-118681983D01*
X145245266Y-118547009D01*
X145250870Y-118533479D01*
X145273195Y-118500067D01*
X145340169Y-118399833D01*
X145453833Y-118286169D01*
X145587478Y-118196871D01*
X145587479Y-118196870D01*
X145735983Y-118135358D01*
X145893630Y-118104000D01*
X146054370Y-118104000D01*
X146212017Y-118135358D01*
X146212017Y-118135358D01*
G37*
G36*
X103286017Y-118135358D02*
G01*
X103434521Y-118196870D01*
X103434522Y-118196871D01*
X103568167Y-118286169D01*
X103681831Y-118399833D01*
X103748805Y-118500067D01*
X103771130Y-118533479D01*
X103776734Y-118547009D01*
X103832642Y-118681983D01*
X103864000Y-118839630D01*
X103864000Y-119000370D01*
X103832642Y-119158017D01*
X103804223Y-119226627D01*
X103771130Y-119306521D01*
X103771129Y-119306522D01*
X103681831Y-119440167D01*
X103568167Y-119553831D01*
X103467933Y-119620804D01*
X103434521Y-119643130D01*
X103286017Y-119704642D01*
X103128370Y-119736000D01*
X102967630Y-119736000D01*
X102809983Y-119704642D01*
X102661479Y-119643130D01*
X102628067Y-119620804D01*
X102527833Y-119553831D01*
X102414169Y-119440167D01*
X102324871Y-119306522D01*
X102324870Y-119306521D01*
X102291777Y-119226627D01*
X102263358Y-119158017D01*
X102232000Y-119000370D01*
X102232000Y-118839630D01*
X102263358Y-118681983D01*
X102319266Y-118547009D01*
X102324870Y-118533479D01*
X102347195Y-118500067D01*
X102414169Y-118399833D01*
X102527833Y-118286169D01*
X102661478Y-118196871D01*
X102661479Y-118196870D01*
X102809983Y-118135358D01*
X102967630Y-118104000D01*
X103128370Y-118104000D01*
X103286017Y-118135358D01*
X103286017Y-118135358D01*
G37*
G36*
X146212017Y-115595358D02*
G01*
X146286270Y-115626115D01*
X146360521Y-115656870D01*
X146360522Y-115656871D01*
X146494167Y-115746169D01*
X146607831Y-115859833D01*
X146674805Y-115960067D01*
X146697130Y-115993479D01*
X146758642Y-116141983D01*
X146790000Y-116299630D01*
X146790000Y-116460370D01*
X146758642Y-116618017D01*
X146727885Y-116692270D01*
X146697130Y-116766521D01*
X146697129Y-116766522D01*
X146607831Y-116900167D01*
X146494167Y-117013831D01*
X146393933Y-117080805D01*
X146360521Y-117103130D01*
X146212017Y-117164642D01*
X146054370Y-117196000D01*
X145893630Y-117196000D01*
X145735983Y-117164642D01*
X145587479Y-117103130D01*
X145554067Y-117080805D01*
X145453833Y-117013831D01*
X145340169Y-116900167D01*
X145250871Y-116766522D01*
X145250870Y-116766521D01*
X145220115Y-116692270D01*
X145189358Y-116618017D01*
X145158000Y-116460370D01*
X145158000Y-116299630D01*
X145189358Y-116141983D01*
X145250870Y-115993479D01*
X145273195Y-115960067D01*
X145340169Y-115859833D01*
X145453833Y-115746169D01*
X145587478Y-115656871D01*
X145587479Y-115656870D01*
X145661730Y-115626115D01*
X145735983Y-115595358D01*
X145893630Y-115564000D01*
X146054370Y-115564000D01*
X146212017Y-115595358D01*
X146212017Y-115595358D01*
G37*
G36*
X103286017Y-115595358D02*
G01*
X103360270Y-115626115D01*
X103434521Y-115656870D01*
X103434522Y-115656871D01*
X103568167Y-115746169D01*
X103681831Y-115859833D01*
X103748805Y-115960067D01*
X103771130Y-115993479D01*
X103801885Y-116067730D01*
X103832642Y-116141983D01*
X103864000Y-116299630D01*
X103864000Y-116460370D01*
X103832642Y-116618017D01*
X103801885Y-116692270D01*
X103771130Y-116766521D01*
X103771129Y-116766522D01*
X103681831Y-116900167D01*
X103568167Y-117013831D01*
X103467933Y-117080805D01*
X103434521Y-117103130D01*
X103286017Y-117164642D01*
X103128370Y-117196000D01*
X102967630Y-117196000D01*
X102809983Y-117164642D01*
X102661479Y-117103130D01*
X102628067Y-117080805D01*
X102527833Y-117013831D01*
X102414169Y-116900167D01*
X102324871Y-116766522D01*
X102324870Y-116766521D01*
X102294115Y-116692270D01*
X102263358Y-116618017D01*
X102232000Y-116460370D01*
X102232000Y-116299630D01*
X102263358Y-116141983D01*
X102324870Y-115993479D01*
X102347195Y-115960067D01*
X102414169Y-115859833D01*
X102527833Y-115746169D01*
X102661478Y-115656871D01*
X102661479Y-115656870D01*
X102735730Y-115626115D01*
X102809983Y-115595358D01*
X102967630Y-115564000D01*
X103128370Y-115564000D01*
X103286017Y-115595358D01*
X103286017Y-115595358D01*
G37*
G36*
X132104191Y-113434885D02*
G01*
X132138169Y-113445193D01*
X132169490Y-113461934D01*
X132196939Y-113484461D01*
X132219466Y-113511910D01*
X132236207Y-113543231D01*
X132246515Y-113577209D01*
X132250600Y-113618690D01*
X132250600Y-114219910D01*
X132246515Y-114261391D01*
X132236207Y-114295369D01*
X132219466Y-114326690D01*
X132196939Y-114354139D01*
X132169490Y-114376666D01*
X132138169Y-114393407D01*
X132104191Y-114403715D01*
X132062710Y-114407800D01*
X131386490Y-114407800D01*
X131345009Y-114403715D01*
X131311031Y-114393407D01*
X131279710Y-114376666D01*
X131252261Y-114354139D01*
X131229734Y-114326690D01*
X131212993Y-114295369D01*
X131202685Y-114261391D01*
X131198600Y-114219910D01*
X131198600Y-113618690D01*
X131202685Y-113577209D01*
X131212993Y-113543231D01*
X131229734Y-113511910D01*
X131252261Y-113484461D01*
X131279710Y-113461934D01*
X131311031Y-113445193D01*
X131345009Y-113434885D01*
X131386490Y-113430800D01*
X132062710Y-113430800D01*
X132104191Y-113434885D01*
X132104191Y-113434885D01*
G37*
G36*
X130726000Y-113864000D02*
G01*
X128674000Y-113864000D01*
X128674000Y-113162000D01*
X130726000Y-113162000D01*
X130726000Y-113864000D01*
X130726000Y-113864000D01*
G37*
G36*
X121326000Y-113864000D02*
G01*
X119274000Y-113864000D01*
X119274000Y-113162000D01*
X121326000Y-113162000D01*
X121326000Y-113864000D01*
X121326000Y-113864000D01*
G37*
G36*
X136240400Y-112056989D02*
G01*
X136273452Y-112067015D01*
X136303903Y-112083292D01*
X136330599Y-112105201D01*
X136352508Y-112131897D01*
X136368785Y-112162348D01*
X136378811Y-112195400D01*
X136382800Y-112235903D01*
X136382800Y-113672097D01*
X136378811Y-113712600D01*
X136368785Y-113745652D01*
X136352508Y-113776103D01*
X136330599Y-113802799D01*
X136303903Y-113824708D01*
X136273452Y-113840985D01*
X136240400Y-113851011D01*
X136199897Y-113855000D01*
X134513703Y-113855000D01*
X134473200Y-113851011D01*
X134440148Y-113840985D01*
X134409697Y-113824708D01*
X134383001Y-113802799D01*
X134361092Y-113776103D01*
X134344815Y-113745652D01*
X134334789Y-113712600D01*
X134330800Y-113672097D01*
X134330800Y-112235903D01*
X134334789Y-112195400D01*
X134344815Y-112162348D01*
X134361092Y-112131897D01*
X134383001Y-112105201D01*
X134409697Y-112083292D01*
X134440148Y-112067015D01*
X134473200Y-112056989D01*
X134513703Y-112053000D01*
X136199897Y-112053000D01*
X136240400Y-112056989D01*
X136240400Y-112056989D01*
G37*
G36*
X114574200Y-112056989D02*
G01*
X114607252Y-112067015D01*
X114637703Y-112083292D01*
X114664399Y-112105201D01*
X114686308Y-112131897D01*
X114702585Y-112162348D01*
X114712611Y-112195400D01*
X114716600Y-112235903D01*
X114716600Y-113672097D01*
X114712611Y-113712600D01*
X114702585Y-113745652D01*
X114686308Y-113776103D01*
X114664399Y-113802799D01*
X114637703Y-113824708D01*
X114607252Y-113840985D01*
X114574200Y-113851011D01*
X114533697Y-113855000D01*
X112847503Y-113855000D01*
X112807000Y-113851011D01*
X112773948Y-113840985D01*
X112743497Y-113824708D01*
X112716801Y-113802799D01*
X112694892Y-113776103D01*
X112678615Y-113745652D01*
X112668589Y-113712600D01*
X112664600Y-113672097D01*
X112664600Y-112235903D01*
X112668589Y-112195400D01*
X112678615Y-112162348D01*
X112694892Y-112131897D01*
X112716801Y-112105201D01*
X112743497Y-112083292D01*
X112773948Y-112067015D01*
X112807000Y-112056989D01*
X112847503Y-112053000D01*
X114533697Y-112053000D01*
X114574200Y-112056989D01*
X114574200Y-112056989D01*
G37*
G36*
X132104191Y-111859885D02*
G01*
X132138169Y-111870193D01*
X132169490Y-111886934D01*
X132196939Y-111909461D01*
X132219466Y-111936910D01*
X132236207Y-111968231D01*
X132246515Y-112002209D01*
X132250600Y-112043690D01*
X132250600Y-112644910D01*
X132246515Y-112686391D01*
X132236207Y-112720369D01*
X132219466Y-112751690D01*
X132196939Y-112779139D01*
X132169490Y-112801666D01*
X132138169Y-112818407D01*
X132104191Y-112828715D01*
X132062710Y-112832800D01*
X131386490Y-112832800D01*
X131345009Y-112828715D01*
X131311031Y-112818407D01*
X131279710Y-112801666D01*
X131252261Y-112779139D01*
X131229734Y-112751690D01*
X131212993Y-112720369D01*
X131202685Y-112686391D01*
X131198600Y-112644910D01*
X131198600Y-112043690D01*
X131202685Y-112002209D01*
X131212993Y-111968231D01*
X131229734Y-111936910D01*
X131252261Y-111909461D01*
X131279710Y-111886934D01*
X131311031Y-111870193D01*
X131345009Y-111859885D01*
X131386490Y-111855800D01*
X132062710Y-111855800D01*
X132104191Y-111859885D01*
X132104191Y-111859885D01*
G37*
G36*
X121326000Y-112594000D02*
G01*
X119274000Y-112594000D01*
X119274000Y-111892000D01*
X121326000Y-111892000D01*
X121326000Y-112594000D01*
X121326000Y-112594000D01*
G37*
G36*
X130726000Y-112594000D02*
G01*
X128674000Y-112594000D01*
X128674000Y-111892000D01*
X130726000Y-111892000D01*
X130726000Y-112594000D01*
X130726000Y-112594000D01*
G37*
G36*
X102269142Y-110902242D02*
G01*
X102417101Y-110963529D01*
X102550255Y-111052499D01*
X102663501Y-111165745D01*
X102752471Y-111298899D01*
X102813758Y-111446858D01*
X102845000Y-111603925D01*
X102845000Y-111764075D01*
X102813758Y-111921142D01*
X102752471Y-112069101D01*
X102663501Y-112202255D01*
X102550255Y-112315501D01*
X102417101Y-112404471D01*
X102269142Y-112465758D01*
X102112075Y-112497000D01*
X101951925Y-112497000D01*
X101794858Y-112465758D01*
X101646899Y-112404471D01*
X101513745Y-112315501D01*
X101400499Y-112202255D01*
X101311529Y-112069101D01*
X101250242Y-111921142D01*
X101219000Y-111764075D01*
X101219000Y-111603925D01*
X101250242Y-111446858D01*
X101311529Y-111298899D01*
X101400499Y-111165745D01*
X101513745Y-111052499D01*
X101646899Y-110963529D01*
X101794858Y-110902242D01*
X101951925Y-110871000D01*
X102112075Y-110871000D01*
X102269142Y-110902242D01*
X102269142Y-110902242D01*
G37*
G36*
X107925000Y-112497000D02*
G01*
X106299000Y-112497000D01*
X106299000Y-110871000D01*
X107925000Y-110871000D01*
X107925000Y-112497000D01*
X107925000Y-112497000D01*
G37*
G36*
X148565000Y-112497000D02*
G01*
X146939000Y-112497000D01*
X146939000Y-110871000D01*
X148565000Y-110871000D01*
X148565000Y-112497000D01*
X148565000Y-112497000D01*
G37*
G36*
X145449142Y-110902242D02*
G01*
X145597101Y-110963529D01*
X145730255Y-111052499D01*
X145843501Y-111165745D01*
X145932471Y-111298899D01*
X145993758Y-111446858D01*
X146025000Y-111603925D01*
X146025000Y-111764075D01*
X145993758Y-111921142D01*
X145932471Y-112069101D01*
X145843501Y-112202255D01*
X145730255Y-112315501D01*
X145597101Y-112404471D01*
X145449142Y-112465758D01*
X145292075Y-112497000D01*
X145131925Y-112497000D01*
X144974858Y-112465758D01*
X144826899Y-112404471D01*
X144693745Y-112315501D01*
X144580499Y-112202255D01*
X144491529Y-112069101D01*
X144430242Y-111921142D01*
X144399000Y-111764075D01*
X144399000Y-111603925D01*
X144430242Y-111446858D01*
X144491529Y-111298899D01*
X144580499Y-111165745D01*
X144693745Y-111052499D01*
X144826899Y-110963529D01*
X144974858Y-110902242D01*
X145131925Y-110871000D01*
X145292075Y-110871000D01*
X145449142Y-110902242D01*
X145449142Y-110902242D01*
G37*
G36*
X104809142Y-110902242D02*
G01*
X104957101Y-110963529D01*
X105090255Y-111052499D01*
X105203501Y-111165745D01*
X105292471Y-111298899D01*
X105353758Y-111446858D01*
X105385000Y-111603925D01*
X105385000Y-111764075D01*
X105353758Y-111921142D01*
X105292471Y-112069101D01*
X105203501Y-112202255D01*
X105090255Y-112315501D01*
X104957101Y-112404471D01*
X104809142Y-112465758D01*
X104652075Y-112497000D01*
X104491925Y-112497000D01*
X104334858Y-112465758D01*
X104186899Y-112404471D01*
X104053745Y-112315501D01*
X103940499Y-112202255D01*
X103851529Y-112069101D01*
X103790242Y-111921142D01*
X103759000Y-111764075D01*
X103759000Y-111603925D01*
X103790242Y-111446858D01*
X103851529Y-111298899D01*
X103940499Y-111165745D01*
X104053745Y-111052499D01*
X104186899Y-110963529D01*
X104334858Y-110902242D01*
X104491925Y-110871000D01*
X104652075Y-110871000D01*
X104809142Y-110902242D01*
X104809142Y-110902242D01*
G37*
G36*
X142909142Y-110902242D02*
G01*
X143057101Y-110963529D01*
X143190255Y-111052499D01*
X143303501Y-111165745D01*
X143392471Y-111298899D01*
X143453758Y-111446858D01*
X143485000Y-111603925D01*
X143485000Y-111764075D01*
X143453758Y-111921142D01*
X143392471Y-112069101D01*
X143303501Y-112202255D01*
X143190255Y-112315501D01*
X143057101Y-112404471D01*
X142909142Y-112465758D01*
X142752075Y-112497000D01*
X142591925Y-112497000D01*
X142434858Y-112465758D01*
X142286899Y-112404471D01*
X142153745Y-112315501D01*
X142040499Y-112202255D01*
X141951529Y-112069101D01*
X141890242Y-111921142D01*
X141859000Y-111764075D01*
X141859000Y-111603925D01*
X141890242Y-111446858D01*
X141951529Y-111298899D01*
X142040499Y-111165745D01*
X142153745Y-111052499D01*
X142286899Y-110963529D01*
X142434858Y-110902242D01*
X142591925Y-110871000D01*
X142752075Y-110871000D01*
X142909142Y-110902242D01*
X142909142Y-110902242D01*
G37*
G36*
X113926043Y-109559519D02*
G01*
X113992227Y-109566037D01*
X114162066Y-109617557D01*
X114318591Y-109701222D01*
X114354329Y-109730552D01*
X114455786Y-109813814D01*
X114539048Y-109915271D01*
X114568378Y-109951009D01*
X114652043Y-110107534D01*
X114703563Y-110277373D01*
X114720959Y-110454000D01*
X114703563Y-110630627D01*
X114652043Y-110800466D01*
X114568378Y-110956991D01*
X114563012Y-110963529D01*
X114455786Y-111094186D01*
X114368592Y-111165743D01*
X114318591Y-111206778D01*
X114162066Y-111290443D01*
X113992227Y-111341963D01*
X113926042Y-111348482D01*
X113859860Y-111355000D01*
X113521340Y-111355000D01*
X113455158Y-111348482D01*
X113388973Y-111341963D01*
X113219134Y-111290443D01*
X113062609Y-111206778D01*
X113012608Y-111165743D01*
X112925414Y-111094186D01*
X112818188Y-110963529D01*
X112812822Y-110956991D01*
X112729157Y-110800466D01*
X112677637Y-110630627D01*
X112660241Y-110454000D01*
X112677637Y-110277373D01*
X112729157Y-110107534D01*
X112812822Y-109951009D01*
X112842152Y-109915271D01*
X112925414Y-109813814D01*
X113026871Y-109730552D01*
X113062609Y-109701222D01*
X113219134Y-109617557D01*
X113388973Y-109566037D01*
X113455157Y-109559519D01*
X113521340Y-109553000D01*
X113859860Y-109553000D01*
X113926043Y-109559519D01*
X113926043Y-109559519D01*
G37*
G36*
X135592243Y-109559519D02*
G01*
X135658427Y-109566037D01*
X135828266Y-109617557D01*
X135984791Y-109701222D01*
X136020529Y-109730552D01*
X136121986Y-109813814D01*
X136205248Y-109915271D01*
X136234578Y-109951009D01*
X136318243Y-110107534D01*
X136369763Y-110277373D01*
X136387159Y-110454000D01*
X136369763Y-110630627D01*
X136318243Y-110800466D01*
X136234578Y-110956991D01*
X136229212Y-110963529D01*
X136121986Y-111094186D01*
X136034792Y-111165743D01*
X135984791Y-111206778D01*
X135828266Y-111290443D01*
X135658427Y-111341963D01*
X135592242Y-111348482D01*
X135526060Y-111355000D01*
X135187540Y-111355000D01*
X135121358Y-111348482D01*
X135055173Y-111341963D01*
X134885334Y-111290443D01*
X134728809Y-111206778D01*
X134678808Y-111165743D01*
X134591614Y-111094186D01*
X134484388Y-110963529D01*
X134479022Y-110956991D01*
X134395357Y-110800466D01*
X134343837Y-110630627D01*
X134326441Y-110454000D01*
X134343837Y-110277373D01*
X134395357Y-110107534D01*
X134479022Y-109951009D01*
X134508352Y-109915271D01*
X134591614Y-109813814D01*
X134693071Y-109730552D01*
X134728809Y-109701222D01*
X134885334Y-109617557D01*
X135055173Y-109566037D01*
X135121357Y-109559519D01*
X135187540Y-109553000D01*
X135526060Y-109553000D01*
X135592243Y-109559519D01*
X135592243Y-109559519D01*
G37*
G36*
X121326000Y-111324000D02*
G01*
X119274000Y-111324000D01*
X119274000Y-110622000D01*
X121326000Y-110622000D01*
X121326000Y-111324000D01*
X121326000Y-111324000D01*
G37*
G36*
X130726000Y-111324000D02*
G01*
X128674000Y-111324000D01*
X128674000Y-110622000D01*
X130726000Y-110622000D01*
X130726000Y-111324000D01*
X130726000Y-111324000D01*
G37*
G36*
X130726000Y-110054000D02*
G01*
X128674000Y-110054000D01*
X128674000Y-109352000D01*
X130726000Y-109352000D01*
X130726000Y-110054000D01*
X130726000Y-110054000D01*
G37*
G36*
X121326000Y-110054000D02*
G01*
X119274000Y-110054000D01*
X119274000Y-109352000D01*
X121326000Y-109352000D01*
X121326000Y-110054000D01*
X121326000Y-110054000D01*
G37*
G36*
X135592243Y-107059519D02*
G01*
X135658427Y-107066037D01*
X135828266Y-107117557D01*
X135984791Y-107201222D01*
X136020529Y-107230552D01*
X136121986Y-107313814D01*
X136205248Y-107415271D01*
X136234578Y-107451009D01*
X136318243Y-107607534D01*
X136369763Y-107777373D01*
X136387159Y-107954000D01*
X136369763Y-108130627D01*
X136318243Y-108300466D01*
X136234578Y-108456991D01*
X136205248Y-108492729D01*
X136121986Y-108594186D01*
X136020529Y-108677448D01*
X135984791Y-108706778D01*
X135828266Y-108790443D01*
X135658427Y-108841963D01*
X135592243Y-108848481D01*
X135526060Y-108855000D01*
X135187540Y-108855000D01*
X135121357Y-108848481D01*
X135055173Y-108841963D01*
X134885334Y-108790443D01*
X134728809Y-108706778D01*
X134693071Y-108677448D01*
X134591614Y-108594186D01*
X134508352Y-108492729D01*
X134479022Y-108456991D01*
X134395357Y-108300466D01*
X134343837Y-108130627D01*
X134326441Y-107954000D01*
X134343837Y-107777373D01*
X134395357Y-107607534D01*
X134479022Y-107451009D01*
X134508352Y-107415271D01*
X134591614Y-107313814D01*
X134693071Y-107230552D01*
X134728809Y-107201222D01*
X134885334Y-107117557D01*
X135055173Y-107066037D01*
X135121357Y-107059519D01*
X135187540Y-107053000D01*
X135526060Y-107053000D01*
X135592243Y-107059519D01*
X135592243Y-107059519D01*
G37*
G36*
X113926043Y-107059519D02*
G01*
X113992227Y-107066037D01*
X114162066Y-107117557D01*
X114318591Y-107201222D01*
X114354329Y-107230552D01*
X114455786Y-107313814D01*
X114539048Y-107415271D01*
X114568378Y-107451009D01*
X114652043Y-107607534D01*
X114703563Y-107777373D01*
X114720959Y-107954000D01*
X114703563Y-108130627D01*
X114652043Y-108300466D01*
X114568378Y-108456991D01*
X114539048Y-108492729D01*
X114455786Y-108594186D01*
X114354329Y-108677448D01*
X114318591Y-108706778D01*
X114162066Y-108790443D01*
X113992227Y-108841963D01*
X113926043Y-108848481D01*
X113859860Y-108855000D01*
X113521340Y-108855000D01*
X113455157Y-108848481D01*
X113388973Y-108841963D01*
X113219134Y-108790443D01*
X113062609Y-108706778D01*
X113026871Y-108677448D01*
X112925414Y-108594186D01*
X112842152Y-108492729D01*
X112812822Y-108456991D01*
X112729157Y-108300466D01*
X112677637Y-108130627D01*
X112660241Y-107954000D01*
X112677637Y-107777373D01*
X112729157Y-107607534D01*
X112812822Y-107451009D01*
X112842152Y-107415271D01*
X112925414Y-107313814D01*
X113026871Y-107230552D01*
X113062609Y-107201222D01*
X113219134Y-107117557D01*
X113388973Y-107066037D01*
X113455157Y-107059519D01*
X113521340Y-107053000D01*
X113859860Y-107053000D01*
X113926043Y-107059519D01*
X113926043Y-107059519D01*
G37*
G36*
X121326000Y-108784000D02*
G01*
X119274000Y-108784000D01*
X119274000Y-108082000D01*
X121326000Y-108082000D01*
X121326000Y-108784000D01*
X121326000Y-108784000D01*
G37*
G36*
X130726000Y-108784000D02*
G01*
X128674000Y-108784000D01*
X128674000Y-108082000D01*
X130726000Y-108082000D01*
X130726000Y-108784000D01*
X130726000Y-108784000D01*
G37*
G36*
X130726000Y-107514000D02*
G01*
X128674000Y-107514000D01*
X128674000Y-106812000D01*
X130726000Y-106812000D01*
X130726000Y-107514000D01*
X130726000Y-107514000D01*
G37*
G36*
X121326000Y-107514000D02*
G01*
X119274000Y-107514000D01*
X119274000Y-106812000D01*
X121326000Y-106812000D01*
X121326000Y-107514000D01*
X121326000Y-107514000D01*
G37*
G36*
X146608239Y-100875467D02*
G01*
X146922282Y-100937934D01*
X147513926Y-101183001D01*
X148046392Y-101538784D01*
X148499216Y-101991608D01*
X148854999Y-102524074D01*
X149100066Y-103115718D01*
X149151276Y-103373169D01*
X149217083Y-103704000D01*
X149225000Y-103743804D01*
X149225000Y-104384196D01*
X149100066Y-105012282D01*
X148854999Y-105603926D01*
X148499216Y-106136392D01*
X148046392Y-106589216D01*
X147513926Y-106944999D01*
X146922282Y-107190066D01*
X146608239Y-107252533D01*
X146294197Y-107315000D01*
X145653803Y-107315000D01*
X145339761Y-107252533D01*
X145025718Y-107190066D01*
X144434074Y-106944999D01*
X143901608Y-106589216D01*
X143448784Y-106136392D01*
X143093001Y-105603926D01*
X142847934Y-105012282D01*
X142723000Y-104384196D01*
X142723000Y-103743804D01*
X142730918Y-103704000D01*
X142796724Y-103373169D01*
X142847934Y-103115718D01*
X143093001Y-102524074D01*
X143448784Y-101991608D01*
X143901608Y-101538784D01*
X144434074Y-101183001D01*
X145025718Y-100937934D01*
X145339761Y-100875467D01*
X145653803Y-100813000D01*
X146294197Y-100813000D01*
X146608239Y-100875467D01*
X146608239Y-100875467D01*
G37*
G36*
X104698239Y-100875467D02*
G01*
X105012282Y-100937934D01*
X105603926Y-101183001D01*
X106136392Y-101538784D01*
X106589216Y-101991608D01*
X106944999Y-102524074D01*
X107190066Y-103115718D01*
X107241276Y-103373169D01*
X107307083Y-103704000D01*
X107315000Y-103743804D01*
X107315000Y-104384196D01*
X107190066Y-105012282D01*
X106944999Y-105603926D01*
X106589216Y-106136392D01*
X106136392Y-106589216D01*
X105603926Y-106944999D01*
X105012282Y-107190066D01*
X104698239Y-107252533D01*
X104384197Y-107315000D01*
X103743803Y-107315000D01*
X103429761Y-107252533D01*
X103115718Y-107190066D01*
X102524074Y-106944999D01*
X101991608Y-106589216D01*
X101538784Y-106136392D01*
X101183001Y-105603926D01*
X100937934Y-105012282D01*
X100813000Y-104384196D01*
X100813000Y-103743804D01*
X100820918Y-103704000D01*
X100886724Y-103373169D01*
X100937934Y-103115718D01*
X101183001Y-102524074D01*
X101538784Y-101991608D01*
X101991608Y-101538784D01*
X102524074Y-101183001D01*
X103115718Y-100937934D01*
X103429761Y-100875467D01*
X103743803Y-100813000D01*
X104384197Y-100813000D01*
X104698239Y-100875467D01*
X104698239Y-100875467D01*
G37*
G36*
X113926043Y-104559519D02*
G01*
X113992227Y-104566037D01*
X114162066Y-104617557D01*
X114318591Y-104701222D01*
X114354329Y-104730552D01*
X114455786Y-104813814D01*
X114534575Y-104909820D01*
X114568378Y-104951009D01*
X114652043Y-105107534D01*
X114703563Y-105277373D01*
X114720959Y-105454000D01*
X114703563Y-105630627D01*
X114652043Y-105800466D01*
X114568378Y-105956991D01*
X114539048Y-105992729D01*
X114455786Y-106094186D01*
X114354329Y-106177448D01*
X114318591Y-106206778D01*
X114162066Y-106290443D01*
X113992227Y-106341963D01*
X113926043Y-106348481D01*
X113859860Y-106355000D01*
X113521340Y-106355000D01*
X113455157Y-106348481D01*
X113388973Y-106341963D01*
X113219134Y-106290443D01*
X113062609Y-106206778D01*
X113026871Y-106177448D01*
X112925414Y-106094186D01*
X112842152Y-105992729D01*
X112812822Y-105956991D01*
X112729157Y-105800466D01*
X112677637Y-105630627D01*
X112660241Y-105454000D01*
X112677637Y-105277373D01*
X112729157Y-105107534D01*
X112812822Y-104951009D01*
X112846625Y-104909820D01*
X112925414Y-104813814D01*
X113026871Y-104730552D01*
X113062609Y-104701222D01*
X113219134Y-104617557D01*
X113388973Y-104566037D01*
X113455157Y-104559519D01*
X113521340Y-104553000D01*
X113859860Y-104553000D01*
X113926043Y-104559519D01*
X113926043Y-104559519D01*
G37*
G36*
X135592243Y-104559519D02*
G01*
X135658427Y-104566037D01*
X135828266Y-104617557D01*
X135984791Y-104701222D01*
X136020529Y-104730552D01*
X136121986Y-104813814D01*
X136200775Y-104909820D01*
X136234578Y-104951009D01*
X136318243Y-105107534D01*
X136369763Y-105277373D01*
X136387159Y-105454000D01*
X136369763Y-105630627D01*
X136318243Y-105800466D01*
X136234578Y-105956991D01*
X136205248Y-105992729D01*
X136121986Y-106094186D01*
X136020529Y-106177448D01*
X135984791Y-106206778D01*
X135828266Y-106290443D01*
X135658427Y-106341963D01*
X135592243Y-106348481D01*
X135526060Y-106355000D01*
X135187540Y-106355000D01*
X135121357Y-106348481D01*
X135055173Y-106341963D01*
X134885334Y-106290443D01*
X134728809Y-106206778D01*
X134693071Y-106177448D01*
X134591614Y-106094186D01*
X134508352Y-105992729D01*
X134479022Y-105956991D01*
X134395357Y-105800466D01*
X134343837Y-105630627D01*
X134326441Y-105454000D01*
X134343837Y-105277373D01*
X134395357Y-105107534D01*
X134479022Y-104951009D01*
X134512825Y-104909820D01*
X134591614Y-104813814D01*
X134693071Y-104730552D01*
X134728809Y-104701222D01*
X134885334Y-104617557D01*
X135055173Y-104566037D01*
X135121357Y-104559519D01*
X135187540Y-104553000D01*
X135526060Y-104553000D01*
X135592243Y-104559519D01*
X135592243Y-104559519D01*
G37*
G36*
X121326000Y-106244000D02*
G01*
X119274000Y-106244000D01*
X119274000Y-105542000D01*
X121326000Y-105542000D01*
X121326000Y-106244000D01*
X121326000Y-106244000D01*
G37*
G36*
X130726000Y-106244000D02*
G01*
X128674000Y-106244000D01*
X128674000Y-105542000D01*
X130726000Y-105542000D01*
X130726000Y-106244000D01*
X130726000Y-106244000D01*
G37*
G36*
X132104191Y-104087685D02*
G01*
X132138169Y-104097993D01*
X132169490Y-104114734D01*
X132196939Y-104137261D01*
X132219466Y-104164710D01*
X132236207Y-104196031D01*
X132246515Y-104230009D01*
X132250600Y-104271490D01*
X132250600Y-104872710D01*
X132246515Y-104914191D01*
X132236207Y-104948169D01*
X132219466Y-104979490D01*
X132196939Y-105006939D01*
X132169490Y-105029466D01*
X132138169Y-105046207D01*
X132104191Y-105056515D01*
X132062710Y-105060600D01*
X131386490Y-105060600D01*
X131345009Y-105056515D01*
X131311031Y-105046207D01*
X131279710Y-105029466D01*
X131252261Y-105006939D01*
X131229734Y-104979490D01*
X131212993Y-104948169D01*
X131202685Y-104914191D01*
X131198600Y-104872710D01*
X131198600Y-104271490D01*
X131202685Y-104230009D01*
X131212993Y-104196031D01*
X131229734Y-104164710D01*
X131252261Y-104137261D01*
X131279710Y-104114734D01*
X131311031Y-104097993D01*
X131345009Y-104087685D01*
X131386490Y-104083600D01*
X132062710Y-104083600D01*
X132104191Y-104087685D01*
X132104191Y-104087685D01*
G37*
G36*
X130726000Y-104974000D02*
G01*
X128674000Y-104974000D01*
X128674000Y-104272000D01*
X130726000Y-104272000D01*
X130726000Y-104974000D01*
X130726000Y-104974000D01*
G37*
G36*
X121326000Y-104974000D02*
G01*
X119274000Y-104974000D01*
X119274000Y-104272000D01*
X121326000Y-104272000D01*
X121326000Y-104974000D01*
X121326000Y-104974000D01*
G37*
G36*
X113926042Y-102059518D02*
G01*
X113992227Y-102066037D01*
X114162066Y-102117557D01*
X114318591Y-102201222D01*
X114354329Y-102230552D01*
X114455786Y-102313814D01*
X114539048Y-102415271D01*
X114568378Y-102451009D01*
X114652043Y-102607534D01*
X114703563Y-102777373D01*
X114720959Y-102954000D01*
X114703563Y-103130627D01*
X114652043Y-103300466D01*
X114568378Y-103456991D01*
X114544899Y-103485600D01*
X114455786Y-103594186D01*
X114354329Y-103677448D01*
X114318591Y-103706778D01*
X114162066Y-103790443D01*
X113992227Y-103841963D01*
X113926043Y-103848481D01*
X113859860Y-103855000D01*
X113521340Y-103855000D01*
X113455157Y-103848481D01*
X113388973Y-103841963D01*
X113219134Y-103790443D01*
X113062609Y-103706778D01*
X113026871Y-103677448D01*
X112925414Y-103594186D01*
X112836301Y-103485600D01*
X112812822Y-103456991D01*
X112729157Y-103300466D01*
X112677637Y-103130627D01*
X112660241Y-102954000D01*
X112677637Y-102777373D01*
X112729157Y-102607534D01*
X112812822Y-102451009D01*
X112842152Y-102415271D01*
X112925414Y-102313814D01*
X113026871Y-102230552D01*
X113062609Y-102201222D01*
X113219134Y-102117557D01*
X113388973Y-102066037D01*
X113455157Y-102059519D01*
X113521340Y-102053000D01*
X113859860Y-102053000D01*
X113926042Y-102059518D01*
X113926042Y-102059518D01*
G37*
G36*
X135592242Y-102059518D02*
G01*
X135658427Y-102066037D01*
X135828266Y-102117557D01*
X135984791Y-102201222D01*
X136020529Y-102230552D01*
X136121986Y-102313814D01*
X136205248Y-102415271D01*
X136234578Y-102451009D01*
X136318243Y-102607534D01*
X136369763Y-102777373D01*
X136387159Y-102954000D01*
X136369763Y-103130627D01*
X136318243Y-103300466D01*
X136234578Y-103456991D01*
X136211099Y-103485600D01*
X136121986Y-103594186D01*
X136020529Y-103677448D01*
X135984791Y-103706778D01*
X135828266Y-103790443D01*
X135658427Y-103841963D01*
X135592243Y-103848481D01*
X135526060Y-103855000D01*
X135187540Y-103855000D01*
X135121357Y-103848481D01*
X135055173Y-103841963D01*
X134885334Y-103790443D01*
X134728809Y-103706778D01*
X134693071Y-103677448D01*
X134591614Y-103594186D01*
X134502501Y-103485600D01*
X134479022Y-103456991D01*
X134395357Y-103300466D01*
X134343837Y-103130627D01*
X134326441Y-102954000D01*
X134343837Y-102777373D01*
X134395357Y-102607534D01*
X134479022Y-102451009D01*
X134508352Y-102415271D01*
X134591614Y-102313814D01*
X134693071Y-102230552D01*
X134728809Y-102201222D01*
X134885334Y-102117557D01*
X135055173Y-102066037D01*
X135121357Y-102059519D01*
X135187540Y-102053000D01*
X135526060Y-102053000D01*
X135592242Y-102059518D01*
X135592242Y-102059518D01*
G37*
G36*
X121326000Y-103704000D02*
G01*
X119274000Y-103704000D01*
X119274000Y-103002000D01*
X121326000Y-103002000D01*
X121326000Y-103704000D01*
X121326000Y-103704000D01*
G37*
G36*
X130726000Y-103704000D02*
G01*
X128674000Y-103704000D01*
X128674000Y-103002000D01*
X130726000Y-103002000D01*
X130726000Y-103704000D01*
X130726000Y-103704000D01*
G37*
G36*
X132104191Y-102512685D02*
G01*
X132138169Y-102522993D01*
X132169490Y-102539734D01*
X132196939Y-102562261D01*
X132219466Y-102589710D01*
X132236207Y-102621031D01*
X132246515Y-102655009D01*
X132250600Y-102696490D01*
X132250600Y-103297710D01*
X132246515Y-103339191D01*
X132236207Y-103373169D01*
X132219466Y-103404490D01*
X132196939Y-103431939D01*
X132169490Y-103454466D01*
X132138169Y-103471207D01*
X132104191Y-103481515D01*
X132062710Y-103485600D01*
X131386490Y-103485600D01*
X131345009Y-103481515D01*
X131311031Y-103471207D01*
X131279710Y-103454466D01*
X131252261Y-103431939D01*
X131229734Y-103404490D01*
X131212993Y-103373169D01*
X131202685Y-103339191D01*
X131198600Y-103297710D01*
X131198600Y-102696490D01*
X131202685Y-102655009D01*
X131212993Y-102621031D01*
X131229734Y-102589710D01*
X131252261Y-102562261D01*
X131279710Y-102539734D01*
X131311031Y-102522993D01*
X131345009Y-102512685D01*
X131386490Y-102508600D01*
X132062710Y-102508600D01*
X132104191Y-102512685D01*
X132104191Y-102512685D01*
G37*
G36*
X121326000Y-102434000D02*
G01*
X119274000Y-102434000D01*
X119274000Y-101732000D01*
X121326000Y-101732000D01*
X121326000Y-102434000D01*
X121326000Y-102434000D01*
G37*
G36*
X130726000Y-102434000D02*
G01*
X128674000Y-102434000D01*
X128674000Y-101732000D01*
X130726000Y-101732000D01*
X130726000Y-102434000D01*
X130726000Y-102434000D01*
G37*
M02*
