G04 #@! TF.GenerationSoftware,KiCad,Pcbnew,(5.1.0-0)*
G04 #@! TF.CreationDate,2019-04-29T17:32:57-05:00*
G04 #@! TF.ProjectId,splitflap-pcb,73706c69-7466-46c6-9170-2d7063622e6b,rev?*
G04 #@! TF.SameCoordinates,Original*
G04 #@! TF.FileFunction,Soldermask,Top*
G04 #@! TF.FilePolarity,Negative*
%FSLAX46Y46*%
G04 Gerber Fmt 4.6, Leading zero omitted, Abs format (unit mm)*
G04 Created by KiCad (PCBNEW (5.1.0-0)) date 2019-04-29 17:32:57*
%MOMM*%
%LPD*%
G04 APERTURE LIST*
%ADD10C,0.100000*%
G04 APERTURE END LIST*
D10*
G36*
X114845591Y-129196085D02*
G01*
X114879569Y-129206393D01*
X114910890Y-129223134D01*
X114938339Y-129245661D01*
X114960866Y-129273110D01*
X114977607Y-129304431D01*
X114987915Y-129338409D01*
X114992000Y-129379890D01*
X114992000Y-130056110D01*
X114987915Y-130097591D01*
X114977607Y-130131569D01*
X114960866Y-130162890D01*
X114938339Y-130190339D01*
X114910890Y-130212866D01*
X114879569Y-130229607D01*
X114845591Y-130239915D01*
X114804110Y-130244000D01*
X114202890Y-130244000D01*
X114161409Y-130239915D01*
X114127431Y-130229607D01*
X114096110Y-130212866D01*
X114068661Y-130190339D01*
X114046134Y-130162890D01*
X114029393Y-130131569D01*
X114019085Y-130097591D01*
X114015000Y-130056110D01*
X114015000Y-129379890D01*
X114019085Y-129338409D01*
X114029393Y-129304431D01*
X114046134Y-129273110D01*
X114068661Y-129245661D01*
X114096110Y-129223134D01*
X114127431Y-129206393D01*
X114161409Y-129196085D01*
X114202890Y-129192000D01*
X114804110Y-129192000D01*
X114845591Y-129196085D01*
X114845591Y-129196085D01*
G37*
G36*
X113270591Y-129196085D02*
G01*
X113304569Y-129206393D01*
X113335890Y-129223134D01*
X113363339Y-129245661D01*
X113385866Y-129273110D01*
X113402607Y-129304431D01*
X113412915Y-129338409D01*
X113417000Y-129379890D01*
X113417000Y-130056110D01*
X113412915Y-130097591D01*
X113402607Y-130131569D01*
X113385866Y-130162890D01*
X113363339Y-130190339D01*
X113335890Y-130212866D01*
X113304569Y-130229607D01*
X113270591Y-130239915D01*
X113229110Y-130244000D01*
X112627890Y-130244000D01*
X112586409Y-130239915D01*
X112552431Y-130229607D01*
X112521110Y-130212866D01*
X112493661Y-130190339D01*
X112471134Y-130162890D01*
X112454393Y-130131569D01*
X112444085Y-130097591D01*
X112440000Y-130056110D01*
X112440000Y-129379890D01*
X112444085Y-129338409D01*
X112454393Y-129304431D01*
X112471134Y-129273110D01*
X112493661Y-129245661D01*
X112521110Y-129223134D01*
X112552431Y-129206393D01*
X112586409Y-129196085D01*
X112627890Y-129192000D01*
X113229110Y-129192000D01*
X113270591Y-129196085D01*
X113270591Y-129196085D01*
G37*
G36*
X111797591Y-129196085D02*
G01*
X111831569Y-129206393D01*
X111862890Y-129223134D01*
X111890339Y-129245661D01*
X111912866Y-129273110D01*
X111929607Y-129304431D01*
X111939915Y-129338409D01*
X111944000Y-129379890D01*
X111944000Y-130056110D01*
X111939915Y-130097591D01*
X111929607Y-130131569D01*
X111912866Y-130162890D01*
X111890339Y-130190339D01*
X111862890Y-130212866D01*
X111831569Y-130229607D01*
X111797591Y-130239915D01*
X111756110Y-130244000D01*
X111154890Y-130244000D01*
X111113409Y-130239915D01*
X111079431Y-130229607D01*
X111048110Y-130212866D01*
X111020661Y-130190339D01*
X110998134Y-130162890D01*
X110981393Y-130131569D01*
X110971085Y-130097591D01*
X110967000Y-130056110D01*
X110967000Y-129379890D01*
X110971085Y-129338409D01*
X110981393Y-129304431D01*
X110998134Y-129273110D01*
X111020661Y-129245661D01*
X111048110Y-129223134D01*
X111079431Y-129206393D01*
X111113409Y-129196085D01*
X111154890Y-129192000D01*
X111756110Y-129192000D01*
X111797591Y-129196085D01*
X111797591Y-129196085D01*
G37*
G36*
X110222591Y-129196085D02*
G01*
X110256569Y-129206393D01*
X110287890Y-129223134D01*
X110315339Y-129245661D01*
X110337866Y-129273110D01*
X110354607Y-129304431D01*
X110364915Y-129338409D01*
X110369000Y-129379890D01*
X110369000Y-130056110D01*
X110364915Y-130097591D01*
X110354607Y-130131569D01*
X110337866Y-130162890D01*
X110315339Y-130190339D01*
X110287890Y-130212866D01*
X110256569Y-130229607D01*
X110222591Y-130239915D01*
X110181110Y-130244000D01*
X109579890Y-130244000D01*
X109538409Y-130239915D01*
X109504431Y-130229607D01*
X109473110Y-130212866D01*
X109445661Y-130190339D01*
X109423134Y-130162890D01*
X109406393Y-130131569D01*
X109396085Y-130097591D01*
X109392000Y-130056110D01*
X109392000Y-129379890D01*
X109396085Y-129338409D01*
X109406393Y-129304431D01*
X109423134Y-129273110D01*
X109445661Y-129245661D01*
X109473110Y-129223134D01*
X109504431Y-129206393D01*
X109538409Y-129196085D01*
X109579890Y-129192000D01*
X110181110Y-129192000D01*
X110222591Y-129196085D01*
X110222591Y-129196085D01*
G37*
G36*
X129069591Y-128942085D02*
G01*
X129103569Y-128952393D01*
X129134890Y-128969134D01*
X129162339Y-128991661D01*
X129184866Y-129019110D01*
X129201607Y-129050431D01*
X129211915Y-129084409D01*
X129216000Y-129125890D01*
X129216000Y-129802110D01*
X129211915Y-129843591D01*
X129201607Y-129877569D01*
X129184866Y-129908890D01*
X129162339Y-129936339D01*
X129134890Y-129958866D01*
X129103569Y-129975607D01*
X129069591Y-129985915D01*
X129028110Y-129990000D01*
X128426890Y-129990000D01*
X128385409Y-129985915D01*
X128351431Y-129975607D01*
X128320110Y-129958866D01*
X128292661Y-129936339D01*
X128270134Y-129908890D01*
X128253393Y-129877569D01*
X128243085Y-129843591D01*
X128239000Y-129802110D01*
X128239000Y-129125890D01*
X128243085Y-129084409D01*
X128253393Y-129050431D01*
X128270134Y-129019110D01*
X128292661Y-128991661D01*
X128320110Y-128969134D01*
X128351431Y-128952393D01*
X128385409Y-128942085D01*
X128426890Y-128938000D01*
X129028110Y-128938000D01*
X129069591Y-128942085D01*
X129069591Y-128942085D01*
G37*
G36*
X127494591Y-128942085D02*
G01*
X127528569Y-128952393D01*
X127559890Y-128969134D01*
X127587339Y-128991661D01*
X127609866Y-129019110D01*
X127626607Y-129050431D01*
X127636915Y-129084409D01*
X127641000Y-129125890D01*
X127641000Y-129802110D01*
X127636915Y-129843591D01*
X127626607Y-129877569D01*
X127609866Y-129908890D01*
X127587339Y-129936339D01*
X127559890Y-129958866D01*
X127528569Y-129975607D01*
X127494591Y-129985915D01*
X127453110Y-129990000D01*
X126851890Y-129990000D01*
X126810409Y-129985915D01*
X126776431Y-129975607D01*
X126745110Y-129958866D01*
X126717661Y-129936339D01*
X126695134Y-129908890D01*
X126678393Y-129877569D01*
X126668085Y-129843591D01*
X126664000Y-129802110D01*
X126664000Y-129125890D01*
X126668085Y-129084409D01*
X126678393Y-129050431D01*
X126695134Y-129019110D01*
X126717661Y-128991661D01*
X126745110Y-128969134D01*
X126776431Y-128952393D01*
X126810409Y-128942085D01*
X126851890Y-128938000D01*
X127453110Y-128938000D01*
X127494591Y-128942085D01*
X127494591Y-128942085D01*
G37*
G36*
X110563000Y-128719000D02*
G01*
X109261000Y-128719000D01*
X109261000Y-126417000D01*
X110563000Y-126417000D01*
X110563000Y-128719000D01*
X110563000Y-128719000D01*
G37*
G36*
X115123000Y-128719000D02*
G01*
X113821000Y-128719000D01*
X113821000Y-126417000D01*
X115123000Y-126417000D01*
X115123000Y-128719000D01*
X115123000Y-128719000D01*
G37*
G36*
X128958000Y-128393000D02*
G01*
X122706000Y-128393000D01*
X122706000Y-126691000D01*
X128958000Y-126691000D01*
X128958000Y-128393000D01*
X128958000Y-128393000D01*
G37*
G36*
X117651591Y-127227085D02*
G01*
X117685569Y-127237393D01*
X117716890Y-127254134D01*
X117744339Y-127276661D01*
X117766866Y-127304110D01*
X117783607Y-127335431D01*
X117793915Y-127369409D01*
X117798000Y-127410890D01*
X117798000Y-128012110D01*
X117793915Y-128053591D01*
X117783607Y-128087569D01*
X117766866Y-128118890D01*
X117744339Y-128146339D01*
X117716890Y-128168866D01*
X117685569Y-128185607D01*
X117651591Y-128195915D01*
X117610110Y-128200000D01*
X116933890Y-128200000D01*
X116892409Y-128195915D01*
X116858431Y-128185607D01*
X116827110Y-128168866D01*
X116799661Y-128146339D01*
X116777134Y-128118890D01*
X116760393Y-128087569D01*
X116750085Y-128053591D01*
X116746000Y-128012110D01*
X116746000Y-127410890D01*
X116750085Y-127369409D01*
X116760393Y-127335431D01*
X116777134Y-127304110D01*
X116799661Y-127276661D01*
X116827110Y-127254134D01*
X116858431Y-127237393D01*
X116892409Y-127227085D01*
X116933890Y-127223000D01*
X117610110Y-127223000D01*
X117651591Y-127227085D01*
X117651591Y-127227085D01*
G37*
G36*
X119683591Y-127205085D02*
G01*
X119717569Y-127215393D01*
X119748890Y-127232134D01*
X119776339Y-127254661D01*
X119798866Y-127282110D01*
X119815607Y-127313431D01*
X119825915Y-127347409D01*
X119830000Y-127388890D01*
X119830000Y-127990110D01*
X119825915Y-128031591D01*
X119815607Y-128065569D01*
X119798866Y-128096890D01*
X119776339Y-128124339D01*
X119748890Y-128146866D01*
X119717569Y-128163607D01*
X119683591Y-128173915D01*
X119642110Y-128178000D01*
X118965890Y-128178000D01*
X118924409Y-128173915D01*
X118890431Y-128163607D01*
X118859110Y-128146866D01*
X118831661Y-128124339D01*
X118809134Y-128096890D01*
X118792393Y-128065569D01*
X118782085Y-128031591D01*
X118778000Y-127990110D01*
X118778000Y-127388890D01*
X118782085Y-127347409D01*
X118792393Y-127313431D01*
X118809134Y-127282110D01*
X118831661Y-127254661D01*
X118859110Y-127232134D01*
X118890431Y-127215393D01*
X118924409Y-127205085D01*
X118965890Y-127201000D01*
X119642110Y-127201000D01*
X119683591Y-127205085D01*
X119683591Y-127205085D01*
G37*
G36*
X117651591Y-125652085D02*
G01*
X117685569Y-125662393D01*
X117716890Y-125679134D01*
X117744339Y-125701661D01*
X117766866Y-125729110D01*
X117783607Y-125760431D01*
X117793915Y-125794409D01*
X117798000Y-125835890D01*
X117798000Y-126437110D01*
X117793915Y-126478591D01*
X117783607Y-126512569D01*
X117766866Y-126543890D01*
X117744339Y-126571339D01*
X117716890Y-126593866D01*
X117685569Y-126610607D01*
X117651591Y-126620915D01*
X117610110Y-126625000D01*
X116933890Y-126625000D01*
X116892409Y-126620915D01*
X116858431Y-126610607D01*
X116827110Y-126593866D01*
X116799661Y-126571339D01*
X116777134Y-126543890D01*
X116760393Y-126512569D01*
X116750085Y-126478591D01*
X116746000Y-126437110D01*
X116746000Y-125835890D01*
X116750085Y-125794409D01*
X116760393Y-125760431D01*
X116777134Y-125729110D01*
X116799661Y-125701661D01*
X116827110Y-125679134D01*
X116858431Y-125662393D01*
X116892409Y-125652085D01*
X116933890Y-125648000D01*
X117610110Y-125648000D01*
X117651591Y-125652085D01*
X117651591Y-125652085D01*
G37*
G36*
X119683591Y-125630085D02*
G01*
X119717569Y-125640393D01*
X119748890Y-125657134D01*
X119776339Y-125679661D01*
X119798866Y-125707110D01*
X119815607Y-125738431D01*
X119825915Y-125772409D01*
X119830000Y-125813890D01*
X119830000Y-126415110D01*
X119825915Y-126456591D01*
X119815607Y-126490569D01*
X119798866Y-126521890D01*
X119776339Y-126549339D01*
X119748890Y-126571866D01*
X119717569Y-126588607D01*
X119683591Y-126598915D01*
X119642110Y-126603000D01*
X118965890Y-126603000D01*
X118924409Y-126598915D01*
X118890431Y-126588607D01*
X118859110Y-126571866D01*
X118831661Y-126549339D01*
X118809134Y-126521890D01*
X118792393Y-126490569D01*
X118782085Y-126456591D01*
X118778000Y-126415110D01*
X118778000Y-125813890D01*
X118782085Y-125772409D01*
X118792393Y-125738431D01*
X118809134Y-125707110D01*
X118831661Y-125679661D01*
X118859110Y-125657134D01*
X118890431Y-125640393D01*
X118924409Y-125630085D01*
X118965890Y-125626000D01*
X119642110Y-125626000D01*
X119683591Y-125630085D01*
X119683591Y-125630085D01*
G37*
G36*
X130933000Y-126418000D02*
G01*
X129231000Y-126418000D01*
X129231000Y-120166000D01*
X130933000Y-120166000D01*
X130933000Y-126418000D01*
X130933000Y-126418000D01*
G37*
G36*
X122433000Y-126418000D02*
G01*
X120731000Y-126418000D01*
X120731000Y-120166000D01*
X122433000Y-120166000D01*
X122433000Y-126418000D01*
X122433000Y-126418000D01*
G37*
G36*
X140017000Y-125031000D02*
G01*
X138215000Y-125031000D01*
X138215000Y-123229000D01*
X140017000Y-123229000D01*
X140017000Y-125031000D01*
X140017000Y-125031000D01*
G37*
G36*
X136686442Y-123235518D02*
G01*
X136752627Y-123242037D01*
X136922466Y-123293557D01*
X137078991Y-123377222D01*
X137114729Y-123406552D01*
X137216186Y-123489814D01*
X137299448Y-123591271D01*
X137328778Y-123627009D01*
X137370610Y-123705271D01*
X137404979Y-123769569D01*
X137412443Y-123783534D01*
X137463963Y-123953373D01*
X137481359Y-124130000D01*
X137463963Y-124306627D01*
X137412443Y-124476466D01*
X137328778Y-124632991D01*
X137299448Y-124668729D01*
X137216186Y-124770186D01*
X137114729Y-124853448D01*
X137078991Y-124882778D01*
X136922466Y-124966443D01*
X136752627Y-125017963D01*
X136686443Y-125024481D01*
X136620260Y-125031000D01*
X136531740Y-125031000D01*
X136465557Y-125024481D01*
X136399373Y-125017963D01*
X136229534Y-124966443D01*
X136073009Y-124882778D01*
X136037271Y-124853448D01*
X135935814Y-124770186D01*
X135852552Y-124668729D01*
X135823222Y-124632991D01*
X135739557Y-124476466D01*
X135688037Y-124306627D01*
X135670641Y-124130000D01*
X135688037Y-123953373D01*
X135739557Y-123783534D01*
X135747022Y-123769569D01*
X135781390Y-123705271D01*
X135823222Y-123627009D01*
X135852552Y-123591271D01*
X135935814Y-123489814D01*
X136037271Y-123406552D01*
X136073009Y-123377222D01*
X136229534Y-123293557D01*
X136399373Y-123242037D01*
X136465558Y-123235518D01*
X136531740Y-123229000D01*
X136620260Y-123229000D01*
X136686442Y-123235518D01*
X136686442Y-123235518D01*
G37*
G36*
X146790000Y-124816000D02*
G01*
X145158000Y-124816000D01*
X145158000Y-123184000D01*
X146790000Y-123184000D01*
X146790000Y-124816000D01*
X146790000Y-124816000D01*
G37*
G36*
X103864000Y-124816000D02*
G01*
X102232000Y-124816000D01*
X102232000Y-123184000D01*
X103864000Y-123184000D01*
X103864000Y-124816000D01*
X103864000Y-124816000D01*
G37*
G36*
X115143000Y-124519000D02*
G01*
X109241000Y-124519000D01*
X109241000Y-118017000D01*
X115143000Y-118017000D01*
X115143000Y-124519000D01*
X115143000Y-124519000D01*
G37*
G36*
X120129591Y-122909085D02*
G01*
X120163569Y-122919393D01*
X120194890Y-122936134D01*
X120222339Y-122958661D01*
X120244866Y-122986110D01*
X120261607Y-123017431D01*
X120271915Y-123051409D01*
X120276000Y-123092890D01*
X120276000Y-123694110D01*
X120271915Y-123735591D01*
X120261607Y-123769569D01*
X120244866Y-123800890D01*
X120222339Y-123828339D01*
X120194890Y-123850866D01*
X120163569Y-123867607D01*
X120129591Y-123877915D01*
X120088110Y-123882000D01*
X119411890Y-123882000D01*
X119370409Y-123877915D01*
X119336431Y-123867607D01*
X119305110Y-123850866D01*
X119277661Y-123828339D01*
X119255134Y-123800890D01*
X119238393Y-123769569D01*
X119228085Y-123735591D01*
X119224000Y-123694110D01*
X119224000Y-123092890D01*
X119228085Y-123051409D01*
X119238393Y-123017431D01*
X119255134Y-122986110D01*
X119277661Y-122958661D01*
X119305110Y-122936134D01*
X119336431Y-122919393D01*
X119370409Y-122909085D01*
X119411890Y-122905000D01*
X120088110Y-122905000D01*
X120129591Y-122909085D01*
X120129591Y-122909085D01*
G37*
G36*
X136686442Y-120695518D02*
G01*
X136752627Y-120702037D01*
X136922466Y-120753557D01*
X137078991Y-120837222D01*
X137114729Y-120866552D01*
X137216186Y-120949814D01*
X137299448Y-121051271D01*
X137328778Y-121087009D01*
X137412443Y-121243534D01*
X137463963Y-121413373D01*
X137481359Y-121590000D01*
X137463963Y-121766627D01*
X137412443Y-121936466D01*
X137328778Y-122092991D01*
X137299448Y-122128729D01*
X137216186Y-122230186D01*
X137128305Y-122302307D01*
X137078991Y-122342778D01*
X136922466Y-122426443D01*
X136752627Y-122477963D01*
X136686442Y-122484482D01*
X136620260Y-122491000D01*
X136531740Y-122491000D01*
X136465558Y-122484482D01*
X136399373Y-122477963D01*
X136229534Y-122426443D01*
X136073009Y-122342778D01*
X136023695Y-122302307D01*
X135935814Y-122230186D01*
X135852552Y-122128729D01*
X135823222Y-122092991D01*
X135739557Y-121936466D01*
X135688037Y-121766627D01*
X135670641Y-121590000D01*
X135688037Y-121413373D01*
X135739557Y-121243534D01*
X135823222Y-121087009D01*
X135852552Y-121051271D01*
X135935814Y-120949814D01*
X136037271Y-120866552D01*
X136073009Y-120837222D01*
X136229534Y-120753557D01*
X136399373Y-120702037D01*
X136465558Y-120695518D01*
X136531740Y-120689000D01*
X136620260Y-120689000D01*
X136686442Y-120695518D01*
X136686442Y-120695518D01*
G37*
G36*
X139226442Y-120695518D02*
G01*
X139292627Y-120702037D01*
X139462466Y-120753557D01*
X139618991Y-120837222D01*
X139654729Y-120866552D01*
X139756186Y-120949814D01*
X139839448Y-121051271D01*
X139868778Y-121087009D01*
X139952443Y-121243534D01*
X140003963Y-121413373D01*
X140021359Y-121590000D01*
X140003963Y-121766627D01*
X139952443Y-121936466D01*
X139868778Y-122092991D01*
X139839448Y-122128729D01*
X139756186Y-122230186D01*
X139668305Y-122302307D01*
X139618991Y-122342778D01*
X139462466Y-122426443D01*
X139292627Y-122477963D01*
X139226442Y-122484482D01*
X139160260Y-122491000D01*
X139071740Y-122491000D01*
X139005558Y-122484482D01*
X138939373Y-122477963D01*
X138769534Y-122426443D01*
X138613009Y-122342778D01*
X138563695Y-122302307D01*
X138475814Y-122230186D01*
X138392552Y-122128729D01*
X138363222Y-122092991D01*
X138279557Y-121936466D01*
X138228037Y-121766627D01*
X138210641Y-121590000D01*
X138228037Y-121413373D01*
X138279557Y-121243534D01*
X138363222Y-121087009D01*
X138392552Y-121051271D01*
X138475814Y-120949814D01*
X138577271Y-120866552D01*
X138613009Y-120837222D01*
X138769534Y-120753557D01*
X138939373Y-120702037D01*
X139005558Y-120695518D01*
X139071740Y-120689000D01*
X139160260Y-120689000D01*
X139226442Y-120695518D01*
X139226442Y-120695518D01*
G37*
G36*
X120129591Y-121334085D02*
G01*
X120163569Y-121344393D01*
X120194890Y-121361134D01*
X120222339Y-121383661D01*
X120244866Y-121411110D01*
X120261607Y-121442431D01*
X120271915Y-121476409D01*
X120276000Y-121517890D01*
X120276000Y-122119110D01*
X120271915Y-122160591D01*
X120261607Y-122194569D01*
X120244866Y-122225890D01*
X120222339Y-122253339D01*
X120194890Y-122275866D01*
X120163569Y-122292607D01*
X120129591Y-122302915D01*
X120088110Y-122307000D01*
X119411890Y-122307000D01*
X119370409Y-122302915D01*
X119336431Y-122292607D01*
X119305110Y-122275866D01*
X119277661Y-122253339D01*
X119255134Y-122225890D01*
X119238393Y-122194569D01*
X119228085Y-122160591D01*
X119224000Y-122119110D01*
X119224000Y-121517890D01*
X119228085Y-121476409D01*
X119238393Y-121442431D01*
X119255134Y-121411110D01*
X119277661Y-121383661D01*
X119305110Y-121361134D01*
X119336431Y-121344393D01*
X119370409Y-121334085D01*
X119411890Y-121330000D01*
X120088110Y-121330000D01*
X120129591Y-121334085D01*
X120129591Y-121334085D01*
G37*
G36*
X146212017Y-120675358D02*
G01*
X146286270Y-120706115D01*
X146360521Y-120736870D01*
X146360522Y-120736871D01*
X146494167Y-120826169D01*
X146607831Y-120939833D01*
X146674804Y-121040067D01*
X146697130Y-121073479D01*
X146702734Y-121087009D01*
X146758642Y-121221983D01*
X146790000Y-121379630D01*
X146790000Y-121540370D01*
X146758642Y-121698017D01*
X146730223Y-121766627D01*
X146697130Y-121846521D01*
X146697129Y-121846522D01*
X146607831Y-121980167D01*
X146494167Y-122093831D01*
X146400794Y-122156220D01*
X146360521Y-122183130D01*
X146212017Y-122244642D01*
X146054370Y-122276000D01*
X145893630Y-122276000D01*
X145735983Y-122244642D01*
X145587479Y-122183130D01*
X145547206Y-122156220D01*
X145453833Y-122093831D01*
X145340169Y-121980167D01*
X145250871Y-121846522D01*
X145250870Y-121846521D01*
X145217777Y-121766627D01*
X145189358Y-121698017D01*
X145158000Y-121540370D01*
X145158000Y-121379630D01*
X145189358Y-121221983D01*
X145245266Y-121087009D01*
X145250870Y-121073479D01*
X145273196Y-121040067D01*
X145340169Y-120939833D01*
X145453833Y-120826169D01*
X145587478Y-120736871D01*
X145587479Y-120736870D01*
X145661730Y-120706115D01*
X145735983Y-120675358D01*
X145893630Y-120644000D01*
X146054370Y-120644000D01*
X146212017Y-120675358D01*
X146212017Y-120675358D01*
G37*
G36*
X103286017Y-120675358D02*
G01*
X103360270Y-120706115D01*
X103434521Y-120736870D01*
X103434522Y-120736871D01*
X103568167Y-120826169D01*
X103681831Y-120939833D01*
X103748804Y-121040067D01*
X103771130Y-121073479D01*
X103776734Y-121087009D01*
X103832642Y-121221983D01*
X103864000Y-121379630D01*
X103864000Y-121540370D01*
X103832642Y-121698017D01*
X103804223Y-121766627D01*
X103771130Y-121846521D01*
X103771129Y-121846522D01*
X103681831Y-121980167D01*
X103568167Y-122093831D01*
X103474794Y-122156220D01*
X103434521Y-122183130D01*
X103286017Y-122244642D01*
X103128370Y-122276000D01*
X102967630Y-122276000D01*
X102809983Y-122244642D01*
X102661479Y-122183130D01*
X102621206Y-122156220D01*
X102527833Y-122093831D01*
X102414169Y-121980167D01*
X102324871Y-121846522D01*
X102324870Y-121846521D01*
X102291777Y-121766627D01*
X102263358Y-121698017D01*
X102232000Y-121540370D01*
X102232000Y-121379630D01*
X102263358Y-121221983D01*
X102319266Y-121087009D01*
X102324870Y-121073479D01*
X102347196Y-121040067D01*
X102414169Y-120939833D01*
X102527833Y-120826169D01*
X102661478Y-120736871D01*
X102661479Y-120736870D01*
X102735730Y-120706115D01*
X102809983Y-120675358D01*
X102967630Y-120644000D01*
X103128370Y-120644000D01*
X103286017Y-120675358D01*
X103286017Y-120675358D01*
G37*
G36*
X139226443Y-118155519D02*
G01*
X139292627Y-118162037D01*
X139462466Y-118213557D01*
X139618991Y-118297222D01*
X139654729Y-118326552D01*
X139756186Y-118409814D01*
X139839448Y-118511271D01*
X139868778Y-118547009D01*
X139952443Y-118703534D01*
X140003963Y-118873373D01*
X140021359Y-119050000D01*
X140003963Y-119226627D01*
X139952443Y-119396466D01*
X139868778Y-119552991D01*
X139839448Y-119588729D01*
X139756186Y-119690186D01*
X139654729Y-119773448D01*
X139618991Y-119802778D01*
X139462466Y-119886443D01*
X139292627Y-119937963D01*
X139226442Y-119944482D01*
X139160260Y-119951000D01*
X139071740Y-119951000D01*
X139005558Y-119944482D01*
X138939373Y-119937963D01*
X138769534Y-119886443D01*
X138613009Y-119802778D01*
X138577271Y-119773448D01*
X138475814Y-119690186D01*
X138392552Y-119588729D01*
X138363222Y-119552991D01*
X138279557Y-119396466D01*
X138228037Y-119226627D01*
X138210641Y-119050000D01*
X138228037Y-118873373D01*
X138279557Y-118703534D01*
X138363222Y-118547009D01*
X138392552Y-118511271D01*
X138475814Y-118409814D01*
X138577271Y-118326552D01*
X138613009Y-118297222D01*
X138769534Y-118213557D01*
X138939373Y-118162037D01*
X139005557Y-118155519D01*
X139071740Y-118149000D01*
X139160260Y-118149000D01*
X139226443Y-118155519D01*
X139226443Y-118155519D01*
G37*
G36*
X136686443Y-118155519D02*
G01*
X136752627Y-118162037D01*
X136922466Y-118213557D01*
X137078991Y-118297222D01*
X137114729Y-118326552D01*
X137216186Y-118409814D01*
X137299448Y-118511271D01*
X137328778Y-118547009D01*
X137412443Y-118703534D01*
X137463963Y-118873373D01*
X137481359Y-119050000D01*
X137463963Y-119226627D01*
X137412443Y-119396466D01*
X137328778Y-119552991D01*
X137299448Y-119588729D01*
X137216186Y-119690186D01*
X137114729Y-119773448D01*
X137078991Y-119802778D01*
X136922466Y-119886443D01*
X136752627Y-119937963D01*
X136686442Y-119944482D01*
X136620260Y-119951000D01*
X136531740Y-119951000D01*
X136465558Y-119944482D01*
X136399373Y-119937963D01*
X136229534Y-119886443D01*
X136073009Y-119802778D01*
X136037271Y-119773448D01*
X135935814Y-119690186D01*
X135852552Y-119588729D01*
X135823222Y-119552991D01*
X135739557Y-119396466D01*
X135688037Y-119226627D01*
X135670641Y-119050000D01*
X135688037Y-118873373D01*
X135739557Y-118703534D01*
X135823222Y-118547009D01*
X135852552Y-118511271D01*
X135935814Y-118409814D01*
X136037271Y-118326552D01*
X136073009Y-118297222D01*
X136229534Y-118213557D01*
X136399373Y-118162037D01*
X136465557Y-118155519D01*
X136531740Y-118149000D01*
X136620260Y-118149000D01*
X136686443Y-118155519D01*
X136686443Y-118155519D01*
G37*
G36*
X128958000Y-119893000D02*
G01*
X122706000Y-119893000D01*
X122706000Y-118191000D01*
X128958000Y-118191000D01*
X128958000Y-119893000D01*
X128958000Y-119893000D01*
G37*
G36*
X103286017Y-118135358D02*
G01*
X103434521Y-118196870D01*
X103434522Y-118196871D01*
X103568167Y-118286169D01*
X103681831Y-118399833D01*
X103748805Y-118500067D01*
X103771130Y-118533479D01*
X103776734Y-118547009D01*
X103832642Y-118681983D01*
X103864000Y-118839630D01*
X103864000Y-119000370D01*
X103832642Y-119158017D01*
X103804223Y-119226627D01*
X103771130Y-119306521D01*
X103771129Y-119306522D01*
X103681831Y-119440167D01*
X103568167Y-119553831D01*
X103467933Y-119620804D01*
X103434521Y-119643130D01*
X103286017Y-119704642D01*
X103128370Y-119736000D01*
X102967630Y-119736000D01*
X102809983Y-119704642D01*
X102661479Y-119643130D01*
X102628067Y-119620804D01*
X102527833Y-119553831D01*
X102414169Y-119440167D01*
X102324871Y-119306522D01*
X102324870Y-119306521D01*
X102291777Y-119226627D01*
X102263358Y-119158017D01*
X102232000Y-119000370D01*
X102232000Y-118839630D01*
X102263358Y-118681983D01*
X102319266Y-118547009D01*
X102324870Y-118533479D01*
X102347195Y-118500067D01*
X102414169Y-118399833D01*
X102527833Y-118286169D01*
X102661478Y-118196871D01*
X102661479Y-118196870D01*
X102809983Y-118135358D01*
X102967630Y-118104000D01*
X103128370Y-118104000D01*
X103286017Y-118135358D01*
X103286017Y-118135358D01*
G37*
G36*
X146212017Y-118135358D02*
G01*
X146360521Y-118196870D01*
X146360522Y-118196871D01*
X146494167Y-118286169D01*
X146607831Y-118399833D01*
X146674805Y-118500067D01*
X146697130Y-118533479D01*
X146702734Y-118547009D01*
X146758642Y-118681983D01*
X146790000Y-118839630D01*
X146790000Y-119000370D01*
X146758642Y-119158017D01*
X146730223Y-119226627D01*
X146697130Y-119306521D01*
X146697129Y-119306522D01*
X146607831Y-119440167D01*
X146494167Y-119553831D01*
X146393933Y-119620804D01*
X146360521Y-119643130D01*
X146212017Y-119704642D01*
X146054370Y-119736000D01*
X145893630Y-119736000D01*
X145735983Y-119704642D01*
X145587479Y-119643130D01*
X145554067Y-119620804D01*
X145453833Y-119553831D01*
X145340169Y-119440167D01*
X145250871Y-119306522D01*
X145250870Y-119306521D01*
X145217777Y-119226627D01*
X145189358Y-119158017D01*
X145158000Y-119000370D01*
X145158000Y-118839630D01*
X145189358Y-118681983D01*
X145245266Y-118547009D01*
X145250870Y-118533479D01*
X145273195Y-118500067D01*
X145340169Y-118399833D01*
X145453833Y-118286169D01*
X145587478Y-118196871D01*
X145587479Y-118196870D01*
X145735983Y-118135358D01*
X145893630Y-118104000D01*
X146054370Y-118104000D01*
X146212017Y-118135358D01*
X146212017Y-118135358D01*
G37*
G36*
X146212017Y-115595358D02*
G01*
X146286270Y-115626115D01*
X146360521Y-115656870D01*
X146360522Y-115656871D01*
X146494167Y-115746169D01*
X146607831Y-115859833D01*
X146674805Y-115960067D01*
X146697130Y-115993479D01*
X146758642Y-116141983D01*
X146790000Y-116299630D01*
X146790000Y-116460370D01*
X146758642Y-116618017D01*
X146727885Y-116692270D01*
X146697130Y-116766521D01*
X146697129Y-116766522D01*
X146607831Y-116900167D01*
X146494167Y-117013831D01*
X146393933Y-117080805D01*
X146360521Y-117103130D01*
X146212017Y-117164642D01*
X146054370Y-117196000D01*
X145893630Y-117196000D01*
X145735983Y-117164642D01*
X145587479Y-117103130D01*
X145554067Y-117080805D01*
X145453833Y-117013831D01*
X145340169Y-116900167D01*
X145250871Y-116766522D01*
X145250870Y-116766521D01*
X145220115Y-116692270D01*
X145189358Y-116618017D01*
X145158000Y-116460370D01*
X145158000Y-116299630D01*
X145189358Y-116141983D01*
X145250870Y-115993479D01*
X145273195Y-115960067D01*
X145340169Y-115859833D01*
X145453833Y-115746169D01*
X145587478Y-115656871D01*
X145587479Y-115656870D01*
X145661730Y-115626115D01*
X145735983Y-115595358D01*
X145893630Y-115564000D01*
X146054370Y-115564000D01*
X146212017Y-115595358D01*
X146212017Y-115595358D01*
G37*
G36*
X103286017Y-115595358D02*
G01*
X103360270Y-115626115D01*
X103434521Y-115656870D01*
X103434522Y-115656871D01*
X103568167Y-115746169D01*
X103681831Y-115859833D01*
X103748805Y-115960067D01*
X103771130Y-115993479D01*
X103801885Y-116067730D01*
X103832642Y-116141983D01*
X103864000Y-116299630D01*
X103864000Y-116460370D01*
X103832642Y-116618017D01*
X103801885Y-116692270D01*
X103771130Y-116766521D01*
X103771129Y-116766522D01*
X103681831Y-116900167D01*
X103568167Y-117013831D01*
X103467933Y-117080805D01*
X103434521Y-117103130D01*
X103286017Y-117164642D01*
X103128370Y-117196000D01*
X102967630Y-117196000D01*
X102809983Y-117164642D01*
X102661479Y-117103130D01*
X102628067Y-117080805D01*
X102527833Y-117013831D01*
X102414169Y-116900167D01*
X102324871Y-116766522D01*
X102324870Y-116766521D01*
X102294115Y-116692270D01*
X102263358Y-116618017D01*
X102232000Y-116460370D01*
X102232000Y-116299630D01*
X102263358Y-116141983D01*
X102324870Y-115993479D01*
X102347195Y-115960067D01*
X102414169Y-115859833D01*
X102527833Y-115746169D01*
X102661478Y-115656871D01*
X102661479Y-115656870D01*
X102735730Y-115626115D01*
X102809983Y-115595358D01*
X102967630Y-115564000D01*
X103128370Y-115564000D01*
X103286017Y-115595358D01*
X103286017Y-115595358D01*
G37*
G36*
X130593591Y-115226085D02*
G01*
X130627569Y-115236393D01*
X130658890Y-115253134D01*
X130686339Y-115275661D01*
X130708866Y-115303110D01*
X130725607Y-115334431D01*
X130735915Y-115368409D01*
X130740000Y-115409890D01*
X130740000Y-116086110D01*
X130735915Y-116127591D01*
X130725607Y-116161569D01*
X130708866Y-116192890D01*
X130686339Y-116220339D01*
X130658890Y-116242866D01*
X130627569Y-116259607D01*
X130593591Y-116269915D01*
X130552110Y-116274000D01*
X129950890Y-116274000D01*
X129909409Y-116269915D01*
X129875431Y-116259607D01*
X129844110Y-116242866D01*
X129816661Y-116220339D01*
X129794134Y-116192890D01*
X129777393Y-116161569D01*
X129767085Y-116127591D01*
X129763000Y-116086110D01*
X129763000Y-115409890D01*
X129767085Y-115368409D01*
X129777393Y-115334431D01*
X129794134Y-115303110D01*
X129816661Y-115275661D01*
X129844110Y-115253134D01*
X129875431Y-115236393D01*
X129909409Y-115226085D01*
X129950890Y-115222000D01*
X130552110Y-115222000D01*
X130593591Y-115226085D01*
X130593591Y-115226085D01*
G37*
G36*
X129018591Y-115226085D02*
G01*
X129052569Y-115236393D01*
X129083890Y-115253134D01*
X129111339Y-115275661D01*
X129133866Y-115303110D01*
X129150607Y-115334431D01*
X129160915Y-115368409D01*
X129165000Y-115409890D01*
X129165000Y-116086110D01*
X129160915Y-116127591D01*
X129150607Y-116161569D01*
X129133866Y-116192890D01*
X129111339Y-116220339D01*
X129083890Y-116242866D01*
X129052569Y-116259607D01*
X129018591Y-116269915D01*
X128977110Y-116274000D01*
X128375890Y-116274000D01*
X128334409Y-116269915D01*
X128300431Y-116259607D01*
X128269110Y-116242866D01*
X128241661Y-116220339D01*
X128219134Y-116192890D01*
X128202393Y-116161569D01*
X128192085Y-116127591D01*
X128188000Y-116086110D01*
X128188000Y-115409890D01*
X128192085Y-115368409D01*
X128202393Y-115334431D01*
X128219134Y-115303110D01*
X128241661Y-115275661D01*
X128269110Y-115253134D01*
X128300431Y-115236393D01*
X128334409Y-115226085D01*
X128375890Y-115222000D01*
X128977110Y-115222000D01*
X129018591Y-115226085D01*
X129018591Y-115226085D01*
G37*
G36*
X121326000Y-113864000D02*
G01*
X119274000Y-113864000D01*
X119274000Y-113162000D01*
X121326000Y-113162000D01*
X121326000Y-113864000D01*
X121326000Y-113864000D01*
G37*
G36*
X130726000Y-113864000D02*
G01*
X128674000Y-113864000D01*
X128674000Y-113162000D01*
X130726000Y-113162000D01*
X130726000Y-113864000D01*
X130726000Y-113864000D01*
G37*
G36*
X115361600Y-112056989D02*
G01*
X115394652Y-112067015D01*
X115425103Y-112083292D01*
X115451799Y-112105201D01*
X115473708Y-112131897D01*
X115489985Y-112162348D01*
X115500011Y-112195400D01*
X115504000Y-112235903D01*
X115504000Y-113672097D01*
X115500011Y-113712600D01*
X115489985Y-113745652D01*
X115473708Y-113776103D01*
X115451799Y-113802799D01*
X115425103Y-113824708D01*
X115394652Y-113840985D01*
X115361600Y-113851011D01*
X115321097Y-113855000D01*
X113634903Y-113855000D01*
X113594400Y-113851011D01*
X113561348Y-113840985D01*
X113530897Y-113824708D01*
X113504201Y-113802799D01*
X113482292Y-113776103D01*
X113466015Y-113745652D01*
X113455989Y-113712600D01*
X113452000Y-113672097D01*
X113452000Y-112235903D01*
X113455989Y-112195400D01*
X113466015Y-112162348D01*
X113482292Y-112131897D01*
X113504201Y-112105201D01*
X113530897Y-112083292D01*
X113561348Y-112067015D01*
X113594400Y-112056989D01*
X113634903Y-112053000D01*
X115321097Y-112053000D01*
X115361600Y-112056989D01*
X115361600Y-112056989D01*
G37*
G36*
X135383600Y-112056989D02*
G01*
X135416652Y-112067015D01*
X135447103Y-112083292D01*
X135473799Y-112105201D01*
X135495708Y-112131897D01*
X135511985Y-112162348D01*
X135522011Y-112195400D01*
X135526000Y-112235903D01*
X135526000Y-113672097D01*
X135522011Y-113712600D01*
X135511985Y-113745652D01*
X135495708Y-113776103D01*
X135473799Y-113802799D01*
X135447103Y-113824708D01*
X135416652Y-113840985D01*
X135383600Y-113851011D01*
X135343097Y-113855000D01*
X133656903Y-113855000D01*
X133616400Y-113851011D01*
X133583348Y-113840985D01*
X133552897Y-113824708D01*
X133526201Y-113802799D01*
X133504292Y-113776103D01*
X133488015Y-113745652D01*
X133477989Y-113712600D01*
X133474000Y-113672097D01*
X133474000Y-112235903D01*
X133477989Y-112195400D01*
X133488015Y-112162348D01*
X133504292Y-112131897D01*
X133526201Y-112105201D01*
X133552897Y-112083292D01*
X133583348Y-112067015D01*
X133616400Y-112056989D01*
X133656903Y-112053000D01*
X135343097Y-112053000D01*
X135383600Y-112056989D01*
X135383600Y-112056989D01*
G37*
G36*
X130726000Y-112594000D02*
G01*
X128674000Y-112594000D01*
X128674000Y-111892000D01*
X130726000Y-111892000D01*
X130726000Y-112594000D01*
X130726000Y-112594000D01*
G37*
G36*
X121326000Y-112594000D02*
G01*
X119274000Y-112594000D01*
X119274000Y-111892000D01*
X121326000Y-111892000D01*
X121326000Y-112594000D01*
X121326000Y-112594000D01*
G37*
G36*
X105825142Y-109886242D02*
G01*
X105973101Y-109947529D01*
X106106255Y-110036499D01*
X106219501Y-110149745D01*
X106308471Y-110282899D01*
X106369758Y-110430858D01*
X106401000Y-110587925D01*
X106401000Y-110748075D01*
X106369758Y-110905142D01*
X106308471Y-111053101D01*
X106219501Y-111186255D01*
X106106255Y-111299501D01*
X105973101Y-111388471D01*
X105825142Y-111449758D01*
X105668075Y-111481000D01*
X105507925Y-111481000D01*
X105350858Y-111449758D01*
X105202899Y-111388471D01*
X105069745Y-111299501D01*
X104956499Y-111186255D01*
X104867529Y-111053101D01*
X104806242Y-110905142D01*
X104775000Y-110748075D01*
X104775000Y-110587925D01*
X104806242Y-110430858D01*
X104867529Y-110282899D01*
X104956499Y-110149745D01*
X105069745Y-110036499D01*
X105202899Y-109947529D01*
X105350858Y-109886242D01*
X105507925Y-109855000D01*
X105668075Y-109855000D01*
X105825142Y-109886242D01*
X105825142Y-109886242D01*
G37*
G36*
X108941000Y-111481000D02*
G01*
X107315000Y-111481000D01*
X107315000Y-109855000D01*
X108941000Y-109855000D01*
X108941000Y-111481000D01*
X108941000Y-111481000D01*
G37*
G36*
X103285142Y-109886242D02*
G01*
X103433101Y-109947529D01*
X103566255Y-110036499D01*
X103679501Y-110149745D01*
X103768471Y-110282899D01*
X103829758Y-110430858D01*
X103861000Y-110587925D01*
X103861000Y-110748075D01*
X103829758Y-110905142D01*
X103768471Y-111053101D01*
X103679501Y-111186255D01*
X103566255Y-111299501D01*
X103433101Y-111388471D01*
X103285142Y-111449758D01*
X103128075Y-111481000D01*
X102967925Y-111481000D01*
X102810858Y-111449758D01*
X102662899Y-111388471D01*
X102529745Y-111299501D01*
X102416499Y-111186255D01*
X102327529Y-111053101D01*
X102266242Y-110905142D01*
X102235000Y-110748075D01*
X102235000Y-110587925D01*
X102266242Y-110430858D01*
X102327529Y-110282899D01*
X102416499Y-110149745D01*
X102529745Y-110036499D01*
X102662899Y-109947529D01*
X102810858Y-109886242D01*
X102967925Y-109855000D01*
X103128075Y-109855000D01*
X103285142Y-109886242D01*
X103285142Y-109886242D01*
G37*
G36*
X141639142Y-109886242D02*
G01*
X141787101Y-109947529D01*
X141920255Y-110036499D01*
X142033501Y-110149745D01*
X142122471Y-110282899D01*
X142183758Y-110430858D01*
X142215000Y-110587925D01*
X142215000Y-110748075D01*
X142183758Y-110905142D01*
X142122471Y-111053101D01*
X142033501Y-111186255D01*
X141920255Y-111299501D01*
X141787101Y-111388471D01*
X141639142Y-111449758D01*
X141482075Y-111481000D01*
X141321925Y-111481000D01*
X141164858Y-111449758D01*
X141016899Y-111388471D01*
X140883745Y-111299501D01*
X140770499Y-111186255D01*
X140681529Y-111053101D01*
X140620242Y-110905142D01*
X140589000Y-110748075D01*
X140589000Y-110587925D01*
X140620242Y-110430858D01*
X140681529Y-110282899D01*
X140770499Y-110149745D01*
X140883745Y-110036499D01*
X141016899Y-109947529D01*
X141164858Y-109886242D01*
X141321925Y-109855000D01*
X141482075Y-109855000D01*
X141639142Y-109886242D01*
X141639142Y-109886242D01*
G37*
G36*
X144179142Y-109886242D02*
G01*
X144327101Y-109947529D01*
X144460255Y-110036499D01*
X144573501Y-110149745D01*
X144662471Y-110282899D01*
X144723758Y-110430858D01*
X144755000Y-110587925D01*
X144755000Y-110748075D01*
X144723758Y-110905142D01*
X144662471Y-111053101D01*
X144573501Y-111186255D01*
X144460255Y-111299501D01*
X144327101Y-111388471D01*
X144179142Y-111449758D01*
X144022075Y-111481000D01*
X143861925Y-111481000D01*
X143704858Y-111449758D01*
X143556899Y-111388471D01*
X143423745Y-111299501D01*
X143310499Y-111186255D01*
X143221529Y-111053101D01*
X143160242Y-110905142D01*
X143129000Y-110748075D01*
X143129000Y-110587925D01*
X143160242Y-110430858D01*
X143221529Y-110282899D01*
X143310499Y-110149745D01*
X143423745Y-110036499D01*
X143556899Y-109947529D01*
X143704858Y-109886242D01*
X143861925Y-109855000D01*
X144022075Y-109855000D01*
X144179142Y-109886242D01*
X144179142Y-109886242D01*
G37*
G36*
X147295000Y-111481000D02*
G01*
X145669000Y-111481000D01*
X145669000Y-109855000D01*
X147295000Y-109855000D01*
X147295000Y-111481000D01*
X147295000Y-111481000D01*
G37*
G36*
X134735443Y-109559519D02*
G01*
X134801627Y-109566037D01*
X134971466Y-109617557D01*
X135127991Y-109701222D01*
X135163729Y-109730552D01*
X135265186Y-109813814D01*
X135324625Y-109886242D01*
X135377778Y-109951009D01*
X135461443Y-110107534D01*
X135512963Y-110277373D01*
X135530359Y-110454000D01*
X135512963Y-110630627D01*
X135461443Y-110800466D01*
X135377778Y-110956991D01*
X135348448Y-110992729D01*
X135265186Y-111094186D01*
X135163729Y-111177448D01*
X135127991Y-111206778D01*
X134971466Y-111290443D01*
X134801627Y-111341963D01*
X134735442Y-111348482D01*
X134669260Y-111355000D01*
X134330740Y-111355000D01*
X134264558Y-111348482D01*
X134198373Y-111341963D01*
X134028534Y-111290443D01*
X133872009Y-111206778D01*
X133836271Y-111177448D01*
X133734814Y-111094186D01*
X133651552Y-110992729D01*
X133622222Y-110956991D01*
X133538557Y-110800466D01*
X133487037Y-110630627D01*
X133469641Y-110454000D01*
X133487037Y-110277373D01*
X133538557Y-110107534D01*
X133622222Y-109951009D01*
X133675375Y-109886242D01*
X133734814Y-109813814D01*
X133836271Y-109730552D01*
X133872009Y-109701222D01*
X134028534Y-109617557D01*
X134198373Y-109566037D01*
X134264557Y-109559519D01*
X134330740Y-109553000D01*
X134669260Y-109553000D01*
X134735443Y-109559519D01*
X134735443Y-109559519D01*
G37*
G36*
X114713443Y-109559519D02*
G01*
X114779627Y-109566037D01*
X114949466Y-109617557D01*
X115105991Y-109701222D01*
X115141729Y-109730552D01*
X115243186Y-109813814D01*
X115302625Y-109886242D01*
X115355778Y-109951009D01*
X115439443Y-110107534D01*
X115490963Y-110277373D01*
X115508359Y-110454000D01*
X115490963Y-110630627D01*
X115439443Y-110800466D01*
X115355778Y-110956991D01*
X115326448Y-110992729D01*
X115243186Y-111094186D01*
X115141729Y-111177448D01*
X115105991Y-111206778D01*
X114949466Y-111290443D01*
X114779627Y-111341963D01*
X114713442Y-111348482D01*
X114647260Y-111355000D01*
X114308740Y-111355000D01*
X114242558Y-111348482D01*
X114176373Y-111341963D01*
X114006534Y-111290443D01*
X113850009Y-111206778D01*
X113814271Y-111177448D01*
X113712814Y-111094186D01*
X113629552Y-110992729D01*
X113600222Y-110956991D01*
X113516557Y-110800466D01*
X113465037Y-110630627D01*
X113447641Y-110454000D01*
X113465037Y-110277373D01*
X113516557Y-110107534D01*
X113600222Y-109951009D01*
X113653375Y-109886242D01*
X113712814Y-109813814D01*
X113814271Y-109730552D01*
X113850009Y-109701222D01*
X114006534Y-109617557D01*
X114176373Y-109566037D01*
X114242557Y-109559519D01*
X114308740Y-109553000D01*
X114647260Y-109553000D01*
X114713443Y-109559519D01*
X114713443Y-109559519D01*
G37*
G36*
X121326000Y-111324000D02*
G01*
X119274000Y-111324000D01*
X119274000Y-110622000D01*
X121326000Y-110622000D01*
X121326000Y-111324000D01*
X121326000Y-111324000D01*
G37*
G36*
X130726000Y-111324000D02*
G01*
X128674000Y-111324000D01*
X128674000Y-110622000D01*
X130726000Y-110622000D01*
X130726000Y-111324000D01*
X130726000Y-111324000D01*
G37*
G36*
X121326000Y-110054000D02*
G01*
X119274000Y-110054000D01*
X119274000Y-109352000D01*
X121326000Y-109352000D01*
X121326000Y-110054000D01*
X121326000Y-110054000D01*
G37*
G36*
X130726000Y-110054000D02*
G01*
X128674000Y-110054000D01*
X128674000Y-109352000D01*
X130726000Y-109352000D01*
X130726000Y-110054000D01*
X130726000Y-110054000D01*
G37*
G36*
X134735443Y-107059519D02*
G01*
X134801627Y-107066037D01*
X134971466Y-107117557D01*
X135127991Y-107201222D01*
X135163729Y-107230552D01*
X135265186Y-107313814D01*
X135348448Y-107415271D01*
X135377778Y-107451009D01*
X135461443Y-107607534D01*
X135512963Y-107777373D01*
X135530359Y-107954000D01*
X135512963Y-108130627D01*
X135461443Y-108300466D01*
X135377778Y-108456991D01*
X135348448Y-108492729D01*
X135265186Y-108594186D01*
X135163729Y-108677448D01*
X135127991Y-108706778D01*
X134971466Y-108790443D01*
X134801627Y-108841963D01*
X134735443Y-108848481D01*
X134669260Y-108855000D01*
X134330740Y-108855000D01*
X134264557Y-108848481D01*
X134198373Y-108841963D01*
X134028534Y-108790443D01*
X133872009Y-108706778D01*
X133836271Y-108677448D01*
X133734814Y-108594186D01*
X133651552Y-108492729D01*
X133622222Y-108456991D01*
X133538557Y-108300466D01*
X133487037Y-108130627D01*
X133469641Y-107954000D01*
X133487037Y-107777373D01*
X133538557Y-107607534D01*
X133622222Y-107451009D01*
X133651552Y-107415271D01*
X133734814Y-107313814D01*
X133836271Y-107230552D01*
X133872009Y-107201222D01*
X134028534Y-107117557D01*
X134198373Y-107066037D01*
X134264557Y-107059519D01*
X134330740Y-107053000D01*
X134669260Y-107053000D01*
X134735443Y-107059519D01*
X134735443Y-107059519D01*
G37*
G36*
X114713443Y-107059519D02*
G01*
X114779627Y-107066037D01*
X114949466Y-107117557D01*
X115105991Y-107201222D01*
X115141729Y-107230552D01*
X115243186Y-107313814D01*
X115326448Y-107415271D01*
X115355778Y-107451009D01*
X115439443Y-107607534D01*
X115490963Y-107777373D01*
X115508359Y-107954000D01*
X115490963Y-108130627D01*
X115439443Y-108300466D01*
X115355778Y-108456991D01*
X115326448Y-108492729D01*
X115243186Y-108594186D01*
X115141729Y-108677448D01*
X115105991Y-108706778D01*
X114949466Y-108790443D01*
X114779627Y-108841963D01*
X114713443Y-108848481D01*
X114647260Y-108855000D01*
X114308740Y-108855000D01*
X114242557Y-108848481D01*
X114176373Y-108841963D01*
X114006534Y-108790443D01*
X113850009Y-108706778D01*
X113814271Y-108677448D01*
X113712814Y-108594186D01*
X113629552Y-108492729D01*
X113600222Y-108456991D01*
X113516557Y-108300466D01*
X113465037Y-108130627D01*
X113447641Y-107954000D01*
X113465037Y-107777373D01*
X113516557Y-107607534D01*
X113600222Y-107451009D01*
X113629552Y-107415271D01*
X113712814Y-107313814D01*
X113814271Y-107230552D01*
X113850009Y-107201222D01*
X114006534Y-107117557D01*
X114176373Y-107066037D01*
X114242557Y-107059519D01*
X114308740Y-107053000D01*
X114647260Y-107053000D01*
X114713443Y-107059519D01*
X114713443Y-107059519D01*
G37*
G36*
X121326000Y-108784000D02*
G01*
X119274000Y-108784000D01*
X119274000Y-108082000D01*
X121326000Y-108082000D01*
X121326000Y-108784000D01*
X121326000Y-108784000D01*
G37*
G36*
X130726000Y-108784000D02*
G01*
X128674000Y-108784000D01*
X128674000Y-108082000D01*
X130726000Y-108082000D01*
X130726000Y-108784000D01*
X130726000Y-108784000D01*
G37*
G36*
X121326000Y-107514000D02*
G01*
X119274000Y-107514000D01*
X119274000Y-106812000D01*
X121326000Y-106812000D01*
X121326000Y-107514000D01*
X121326000Y-107514000D01*
G37*
G36*
X130726000Y-107514000D02*
G01*
X128674000Y-107514000D01*
X128674000Y-106812000D01*
X130726000Y-106812000D01*
X130726000Y-107514000D01*
X130726000Y-107514000D01*
G37*
G36*
X134735443Y-104559519D02*
G01*
X134801627Y-104566037D01*
X134971466Y-104617557D01*
X135127991Y-104701222D01*
X135163729Y-104730552D01*
X135265186Y-104813814D01*
X135348448Y-104915271D01*
X135377778Y-104951009D01*
X135461443Y-105107534D01*
X135512963Y-105277373D01*
X135530359Y-105454000D01*
X135512963Y-105630627D01*
X135461443Y-105800466D01*
X135377778Y-105956991D01*
X135348448Y-105992729D01*
X135265186Y-106094186D01*
X135163729Y-106177448D01*
X135127991Y-106206778D01*
X134971466Y-106290443D01*
X134801627Y-106341963D01*
X134735443Y-106348481D01*
X134669260Y-106355000D01*
X134330740Y-106355000D01*
X134264557Y-106348481D01*
X134198373Y-106341963D01*
X134028534Y-106290443D01*
X133872009Y-106206778D01*
X133836271Y-106177448D01*
X133734814Y-106094186D01*
X133651552Y-105992729D01*
X133622222Y-105956991D01*
X133538557Y-105800466D01*
X133487037Y-105630627D01*
X133469641Y-105454000D01*
X133487037Y-105277373D01*
X133538557Y-105107534D01*
X133622222Y-104951009D01*
X133651552Y-104915271D01*
X133734814Y-104813814D01*
X133836271Y-104730552D01*
X133872009Y-104701222D01*
X134028534Y-104617557D01*
X134198373Y-104566037D01*
X134264557Y-104559519D01*
X134330740Y-104553000D01*
X134669260Y-104553000D01*
X134735443Y-104559519D01*
X134735443Y-104559519D01*
G37*
G36*
X114713443Y-104559519D02*
G01*
X114779627Y-104566037D01*
X114949466Y-104617557D01*
X115105991Y-104701222D01*
X115141729Y-104730552D01*
X115243186Y-104813814D01*
X115326448Y-104915271D01*
X115355778Y-104951009D01*
X115439443Y-105107534D01*
X115490963Y-105277373D01*
X115508359Y-105454000D01*
X115490963Y-105630627D01*
X115439443Y-105800466D01*
X115355778Y-105956991D01*
X115326448Y-105992729D01*
X115243186Y-106094186D01*
X115141729Y-106177448D01*
X115105991Y-106206778D01*
X114949466Y-106290443D01*
X114779627Y-106341963D01*
X114713443Y-106348481D01*
X114647260Y-106355000D01*
X114308740Y-106355000D01*
X114242557Y-106348481D01*
X114176373Y-106341963D01*
X114006534Y-106290443D01*
X113850009Y-106206778D01*
X113814271Y-106177448D01*
X113712814Y-106094186D01*
X113629552Y-105992729D01*
X113600222Y-105956991D01*
X113516557Y-105800466D01*
X113465037Y-105630627D01*
X113447641Y-105454000D01*
X113465037Y-105277373D01*
X113516557Y-105107534D01*
X113600222Y-104951009D01*
X113629552Y-104915271D01*
X113712814Y-104813814D01*
X113814271Y-104730552D01*
X113850009Y-104701222D01*
X114006534Y-104617557D01*
X114176373Y-104566037D01*
X114242557Y-104559519D01*
X114308740Y-104553000D01*
X114647260Y-104553000D01*
X114713443Y-104559519D01*
X114713443Y-104559519D01*
G37*
G36*
X130726000Y-106244000D02*
G01*
X128674000Y-106244000D01*
X128674000Y-105542000D01*
X130726000Y-105542000D01*
X130726000Y-106244000D01*
X130726000Y-106244000D01*
G37*
G36*
X121326000Y-106244000D02*
G01*
X119274000Y-106244000D01*
X119274000Y-105542000D01*
X121326000Y-105542000D01*
X121326000Y-106244000D01*
X121326000Y-106244000D01*
G37*
G36*
X130726000Y-104974000D02*
G01*
X128674000Y-104974000D01*
X128674000Y-104272000D01*
X130726000Y-104272000D01*
X130726000Y-104974000D01*
X130726000Y-104974000D01*
G37*
G36*
X121326000Y-104974000D02*
G01*
X119274000Y-104974000D01*
X119274000Y-104272000D01*
X121326000Y-104272000D01*
X121326000Y-104974000D01*
X121326000Y-104974000D01*
G37*
G36*
X114713442Y-102059518D02*
G01*
X114779627Y-102066037D01*
X114949466Y-102117557D01*
X115105991Y-102201222D01*
X115141729Y-102230552D01*
X115243186Y-102313814D01*
X115326448Y-102415271D01*
X115355778Y-102451009D01*
X115439443Y-102607534D01*
X115490963Y-102777373D01*
X115508359Y-102954000D01*
X115490963Y-103130627D01*
X115439443Y-103300466D01*
X115355778Y-103456991D01*
X115326448Y-103492729D01*
X115243186Y-103594186D01*
X115141729Y-103677448D01*
X115105991Y-103706778D01*
X114949466Y-103790443D01*
X114779627Y-103841963D01*
X114713443Y-103848481D01*
X114647260Y-103855000D01*
X114308740Y-103855000D01*
X114242557Y-103848481D01*
X114176373Y-103841963D01*
X114006534Y-103790443D01*
X113850009Y-103706778D01*
X113814271Y-103677448D01*
X113712814Y-103594186D01*
X113629552Y-103492729D01*
X113600222Y-103456991D01*
X113516557Y-103300466D01*
X113465037Y-103130627D01*
X113447641Y-102954000D01*
X113465037Y-102777373D01*
X113516557Y-102607534D01*
X113600222Y-102451009D01*
X113629552Y-102415271D01*
X113712814Y-102313814D01*
X113814271Y-102230552D01*
X113850009Y-102201222D01*
X114006534Y-102117557D01*
X114176373Y-102066037D01*
X114242557Y-102059519D01*
X114308740Y-102053000D01*
X114647260Y-102053000D01*
X114713442Y-102059518D01*
X114713442Y-102059518D01*
G37*
G36*
X134735442Y-102059518D02*
G01*
X134801627Y-102066037D01*
X134971466Y-102117557D01*
X135127991Y-102201222D01*
X135163729Y-102230552D01*
X135265186Y-102313814D01*
X135348448Y-102415271D01*
X135377778Y-102451009D01*
X135461443Y-102607534D01*
X135512963Y-102777373D01*
X135530359Y-102954000D01*
X135512963Y-103130627D01*
X135461443Y-103300466D01*
X135377778Y-103456991D01*
X135348448Y-103492729D01*
X135265186Y-103594186D01*
X135163729Y-103677448D01*
X135127991Y-103706778D01*
X134971466Y-103790443D01*
X134801627Y-103841963D01*
X134735443Y-103848481D01*
X134669260Y-103855000D01*
X134330740Y-103855000D01*
X134264557Y-103848481D01*
X134198373Y-103841963D01*
X134028534Y-103790443D01*
X133872009Y-103706778D01*
X133836271Y-103677448D01*
X133734814Y-103594186D01*
X133651552Y-103492729D01*
X133622222Y-103456991D01*
X133538557Y-103300466D01*
X133487037Y-103130627D01*
X133469641Y-102954000D01*
X133487037Y-102777373D01*
X133538557Y-102607534D01*
X133622222Y-102451009D01*
X133651552Y-102415271D01*
X133734814Y-102313814D01*
X133836271Y-102230552D01*
X133872009Y-102201222D01*
X134028534Y-102117557D01*
X134198373Y-102066037D01*
X134264557Y-102059519D01*
X134330740Y-102053000D01*
X134669260Y-102053000D01*
X134735442Y-102059518D01*
X134735442Y-102059518D01*
G37*
G36*
X130726000Y-103704000D02*
G01*
X128674000Y-103704000D01*
X128674000Y-103002000D01*
X130726000Y-103002000D01*
X130726000Y-103704000D01*
X130726000Y-103704000D01*
G37*
G36*
X121326000Y-103704000D02*
G01*
X119274000Y-103704000D01*
X119274000Y-103002000D01*
X121326000Y-103002000D01*
X121326000Y-103704000D01*
X121326000Y-103704000D01*
G37*
G36*
X130726000Y-102434000D02*
G01*
X128674000Y-102434000D01*
X128674000Y-101732000D01*
X130726000Y-101732000D01*
X130726000Y-102434000D01*
X130726000Y-102434000D01*
G37*
G36*
X121326000Y-102434000D02*
G01*
X119274000Y-102434000D01*
X119274000Y-101732000D01*
X121326000Y-101732000D01*
X121326000Y-102434000D01*
X121326000Y-102434000D01*
G37*
M02*
