G04 #@! TF.GenerationSoftware,KiCad,Pcbnew,(5.1.0-0)*
G04 #@! TF.CreationDate,2019-05-01T12:35:33-05:00*
G04 #@! TF.ProjectId,splitflap-pcb,73706c69-7466-46c6-9170-2d7063622e6b,rev?*
G04 #@! TF.SameCoordinates,Original*
G04 #@! TF.FileFunction,Legend,Top*
G04 #@! TF.FilePolarity,Positive*
%FSLAX46Y46*%
G04 Gerber Fmt 4.6, Leading zero omitted, Abs format (unit mm)*
G04 Created by KiCad (PCBNEW (5.1.0-0)) date 2019-05-01 12:35:33*
%MOMM*%
%LPD*%
G04 APERTURE LIST*
%ADD10C,0.125000*%
%ADD11C,0.120000*%
%ADD12C,0.150000*%
%ADD13C,0.127000*%
%ADD14C,0.300000*%
%ADD15C,0.152400*%
G04 APERTURE END LIST*
D10*
X133101790Y-124545028D02*
X133101790Y-124497409D01*
X133125600Y-124449790D01*
X133149409Y-124425980D01*
X133197028Y-124402171D01*
X133292266Y-124378361D01*
X133411314Y-124378361D01*
X133506552Y-124402171D01*
X133554171Y-124425980D01*
X133577980Y-124449790D01*
X133601790Y-124497409D01*
X133601790Y-124545028D01*
X133577980Y-124592647D01*
X133554171Y-124616457D01*
X133506552Y-124640266D01*
X133411314Y-124664076D01*
X133292266Y-124664076D01*
X133197028Y-124640266D01*
X133149409Y-124616457D01*
X133125600Y-124592647D01*
X133101790Y-124545028D01*
X133554171Y-124164076D02*
X133577980Y-124140266D01*
X133601790Y-124164076D01*
X133577980Y-124187885D01*
X133554171Y-124164076D01*
X133601790Y-124164076D01*
X133601790Y-123664076D02*
X133601790Y-123949790D01*
X133601790Y-123806933D02*
X133101790Y-123806933D01*
X133173219Y-123854552D01*
X133220838Y-123902171D01*
X133244647Y-123949790D01*
X133268457Y-123235504D02*
X133601790Y-123235504D01*
X133268457Y-123449790D02*
X133530361Y-123449790D01*
X133577980Y-123425980D01*
X133601790Y-123378361D01*
X133601790Y-123306933D01*
X133577980Y-123259314D01*
X133554171Y-123235504D01*
X133339885Y-122830742D02*
X133339885Y-122997409D01*
X133601790Y-122997409D02*
X133101790Y-122997409D01*
X133101790Y-122759314D01*
X131450790Y-107095228D02*
X131450790Y-107047609D01*
X131474600Y-106999990D01*
X131498409Y-106976180D01*
X131546028Y-106952371D01*
X131641266Y-106928561D01*
X131760314Y-106928561D01*
X131855552Y-106952371D01*
X131903171Y-106976180D01*
X131926980Y-106999990D01*
X131950790Y-107047609D01*
X131950790Y-107095228D01*
X131926980Y-107142847D01*
X131903171Y-107166657D01*
X131855552Y-107190466D01*
X131760314Y-107214276D01*
X131641266Y-107214276D01*
X131546028Y-107190466D01*
X131498409Y-107166657D01*
X131474600Y-107142847D01*
X131450790Y-107095228D01*
X131903171Y-106714276D02*
X131926980Y-106690466D01*
X131950790Y-106714276D01*
X131926980Y-106738085D01*
X131903171Y-106714276D01*
X131950790Y-106714276D01*
X131950790Y-106214276D02*
X131950790Y-106499990D01*
X131950790Y-106357133D02*
X131450790Y-106357133D01*
X131522219Y-106404752D01*
X131569838Y-106452371D01*
X131593647Y-106499990D01*
X131617457Y-105785704D02*
X131950790Y-105785704D01*
X131617457Y-105999990D02*
X131879361Y-105999990D01*
X131926980Y-105976180D01*
X131950790Y-105928561D01*
X131950790Y-105857133D01*
X131926980Y-105809514D01*
X131903171Y-105785704D01*
X131688885Y-105380942D02*
X131688885Y-105547609D01*
X131950790Y-105547609D02*
X131450790Y-105547609D01*
X131450790Y-105309514D01*
X115718107Y-130041571D02*
X115825250Y-130077285D01*
X116003821Y-130077285D01*
X116075250Y-130041571D01*
X116110964Y-130005857D01*
X116146678Y-129934428D01*
X116146678Y-129863000D01*
X116110964Y-129791571D01*
X116075250Y-129755857D01*
X116003821Y-129720142D01*
X115860964Y-129684428D01*
X115789535Y-129648714D01*
X115753821Y-129613000D01*
X115718107Y-129541571D01*
X115718107Y-129470142D01*
X115753821Y-129398714D01*
X115789535Y-129363000D01*
X115860964Y-129327285D01*
X116039535Y-129327285D01*
X116146678Y-129363000D01*
X116468107Y-129577285D02*
X116468107Y-130327285D01*
X116468107Y-129613000D02*
X116539535Y-129577285D01*
X116682392Y-129577285D01*
X116753821Y-129613000D01*
X116789535Y-129648714D01*
X116825250Y-129720142D01*
X116825250Y-129934428D01*
X116789535Y-130005857D01*
X116753821Y-130041571D01*
X116682392Y-130077285D01*
X116539535Y-130077285D01*
X116468107Y-130041571D01*
X117253821Y-130077285D02*
X117182392Y-130041571D01*
X117146678Y-129970142D01*
X117146678Y-129327285D01*
X117539535Y-130077285D02*
X117539535Y-129577285D01*
X117539535Y-129327285D02*
X117503821Y-129363000D01*
X117539535Y-129398714D01*
X117575250Y-129363000D01*
X117539535Y-129327285D01*
X117539535Y-129398714D01*
X117789535Y-129577285D02*
X118075250Y-129577285D01*
X117896678Y-129327285D02*
X117896678Y-129970142D01*
X117932392Y-130041571D01*
X118003821Y-130077285D01*
X118075250Y-130077285D01*
X118575250Y-129684428D02*
X118325250Y-129684428D01*
X118325250Y-130077285D02*
X118325250Y-129327285D01*
X118682392Y-129327285D01*
X119075250Y-130077285D02*
X119003821Y-130041571D01*
X118968107Y-129970142D01*
X118968107Y-129327285D01*
X119682392Y-130077285D02*
X119682392Y-129684428D01*
X119646678Y-129613000D01*
X119575250Y-129577285D01*
X119432392Y-129577285D01*
X119360964Y-129613000D01*
X119682392Y-130041571D02*
X119610964Y-130077285D01*
X119432392Y-130077285D01*
X119360964Y-130041571D01*
X119325250Y-129970142D01*
X119325250Y-129898714D01*
X119360964Y-129827285D01*
X119432392Y-129791571D01*
X119610964Y-129791571D01*
X119682392Y-129755857D01*
X120039535Y-129577285D02*
X120039535Y-130327285D01*
X120039535Y-129613000D02*
X120110964Y-129577285D01*
X120253821Y-129577285D01*
X120325250Y-129613000D01*
X120360964Y-129648714D01*
X120396678Y-129720142D01*
X120396678Y-129934428D01*
X120360964Y-130005857D01*
X120325250Y-130041571D01*
X120253821Y-130077285D01*
X120110964Y-130077285D01*
X120039535Y-130041571D01*
X120718107Y-130077285D02*
X120718107Y-129327285D01*
X121039535Y-129398714D02*
X121075250Y-129363000D01*
X121146678Y-129327285D01*
X121325250Y-129327285D01*
X121396678Y-129363000D01*
X121432392Y-129398714D01*
X121468107Y-129470142D01*
X121468107Y-129541571D01*
X121432392Y-129648714D01*
X121003821Y-130077285D01*
X121468107Y-130077285D01*
X122218107Y-130005857D02*
X122182392Y-130041571D01*
X122075250Y-130077285D01*
X122003821Y-130077285D01*
X121896678Y-130041571D01*
X121825250Y-129970142D01*
X121789535Y-129898714D01*
X121753821Y-129755857D01*
X121753821Y-129648714D01*
X121789535Y-129505857D01*
X121825250Y-129434428D01*
X121896678Y-129363000D01*
X122003821Y-129327285D01*
X122075250Y-129327285D01*
X122182392Y-129363000D01*
X122218107Y-129398714D01*
X123003821Y-129327285D02*
X123253821Y-130077285D01*
X123503821Y-129327285D01*
X123896678Y-129327285D02*
X123968107Y-129327285D01*
X124039535Y-129363000D01*
X124075250Y-129398714D01*
X124110964Y-129470142D01*
X124146678Y-129613000D01*
X124146678Y-129791571D01*
X124110964Y-129934428D01*
X124075250Y-130005857D01*
X124039535Y-130041571D01*
X123968107Y-130077285D01*
X123896678Y-130077285D01*
X123825250Y-130041571D01*
X123789535Y-130005857D01*
X123753821Y-129934428D01*
X123718107Y-129791571D01*
X123718107Y-129613000D01*
X123753821Y-129470142D01*
X123789535Y-129398714D01*
X123825250Y-129363000D01*
X123896678Y-129327285D01*
X124468107Y-130005857D02*
X124503821Y-130041571D01*
X124468107Y-130077285D01*
X124432392Y-130041571D01*
X124468107Y-130005857D01*
X124468107Y-130077285D01*
X124753821Y-129327285D02*
X125253821Y-129327285D01*
X124932392Y-130077285D01*
X115718107Y-130648714D02*
X115753821Y-130613000D01*
X115825250Y-130577285D01*
X116003821Y-130577285D01*
X116075250Y-130613000D01*
X116110964Y-130648714D01*
X116146678Y-130720142D01*
X116146678Y-130791571D01*
X116110964Y-130898714D01*
X115682392Y-131327285D01*
X116146678Y-131327285D01*
X116610964Y-130577285D02*
X116682392Y-130577285D01*
X116753821Y-130613000D01*
X116789535Y-130648714D01*
X116825250Y-130720142D01*
X116860964Y-130863000D01*
X116860964Y-131041571D01*
X116825250Y-131184428D01*
X116789535Y-131255857D01*
X116753821Y-131291571D01*
X116682392Y-131327285D01*
X116610964Y-131327285D01*
X116539535Y-131291571D01*
X116503821Y-131255857D01*
X116468107Y-131184428D01*
X116432392Y-131041571D01*
X116432392Y-130863000D01*
X116468107Y-130720142D01*
X116503821Y-130648714D01*
X116539535Y-130613000D01*
X116610964Y-130577285D01*
X117575250Y-131327285D02*
X117146678Y-131327285D01*
X117360964Y-131327285D02*
X117360964Y-130577285D01*
X117289535Y-130684428D01*
X117218107Y-130755857D01*
X117146678Y-130791571D01*
X117932392Y-131327285D02*
X118075250Y-131327285D01*
X118146678Y-131291571D01*
X118182392Y-131255857D01*
X118253821Y-131148714D01*
X118289535Y-131005857D01*
X118289535Y-130720142D01*
X118253821Y-130648714D01*
X118218107Y-130613000D01*
X118146678Y-130577285D01*
X118003821Y-130577285D01*
X117932392Y-130613000D01*
X117896678Y-130648714D01*
X117860964Y-130720142D01*
X117860964Y-130898714D01*
X117896678Y-130970142D01*
X117932392Y-131005857D01*
X118003821Y-131041571D01*
X118146678Y-131041571D01*
X118218107Y-131005857D01*
X118253821Y-130970142D01*
X118289535Y-130898714D01*
X118610964Y-131041571D02*
X119182392Y-131041571D01*
X119682392Y-130577285D02*
X119753821Y-130577285D01*
X119825250Y-130613000D01*
X119860964Y-130648714D01*
X119896678Y-130720142D01*
X119932392Y-130863000D01*
X119932392Y-131041571D01*
X119896678Y-131184428D01*
X119860964Y-131255857D01*
X119825250Y-131291571D01*
X119753821Y-131327285D01*
X119682392Y-131327285D01*
X119610964Y-131291571D01*
X119575250Y-131255857D01*
X119539535Y-131184428D01*
X119503821Y-131041571D01*
X119503821Y-130863000D01*
X119539535Y-130720142D01*
X119575250Y-130648714D01*
X119610964Y-130613000D01*
X119682392Y-130577285D01*
X120610964Y-130577285D02*
X120253821Y-130577285D01*
X120218107Y-130934428D01*
X120253821Y-130898714D01*
X120325250Y-130863000D01*
X120503821Y-130863000D01*
X120575250Y-130898714D01*
X120610964Y-130934428D01*
X120646678Y-131005857D01*
X120646678Y-131184428D01*
X120610964Y-131255857D01*
X120575250Y-131291571D01*
X120503821Y-131327285D01*
X120325250Y-131327285D01*
X120253821Y-131291571D01*
X120218107Y-131255857D01*
X120968107Y-131041571D02*
X121539535Y-131041571D01*
X122039535Y-130577285D02*
X122110964Y-130577285D01*
X122182392Y-130613000D01*
X122218107Y-130648714D01*
X122253821Y-130720142D01*
X122289535Y-130863000D01*
X122289535Y-131041571D01*
X122253821Y-131184428D01*
X122218107Y-131255857D01*
X122182392Y-131291571D01*
X122110964Y-131327285D01*
X122039535Y-131327285D01*
X121968107Y-131291571D01*
X121932392Y-131255857D01*
X121896678Y-131184428D01*
X121860964Y-131041571D01*
X121860964Y-130863000D01*
X121896678Y-130720142D01*
X121932392Y-130648714D01*
X121968107Y-130613000D01*
X122039535Y-130577285D01*
X123003821Y-131327285D02*
X122575250Y-131327285D01*
X122789535Y-131327285D02*
X122789535Y-130577285D01*
X122718107Y-130684428D01*
X122646678Y-130755857D01*
X122575250Y-130791571D01*
X115718107Y-132541571D02*
X115825250Y-132577285D01*
X116003821Y-132577285D01*
X116075250Y-132541571D01*
X116110964Y-132505857D01*
X116146678Y-132434428D01*
X116146678Y-132363000D01*
X116110964Y-132291571D01*
X116075250Y-132255857D01*
X116003821Y-132220142D01*
X115860964Y-132184428D01*
X115789535Y-132148714D01*
X115753821Y-132113000D01*
X115718107Y-132041571D01*
X115718107Y-131970142D01*
X115753821Y-131898714D01*
X115789535Y-131863000D01*
X115860964Y-131827285D01*
X116039535Y-131827285D01*
X116146678Y-131863000D01*
X116789535Y-132577285D02*
X116789535Y-132184428D01*
X116753821Y-132113000D01*
X116682392Y-132077285D01*
X116539535Y-132077285D01*
X116468107Y-132113000D01*
X116789535Y-132541571D02*
X116718107Y-132577285D01*
X116539535Y-132577285D01*
X116468107Y-132541571D01*
X116432392Y-132470142D01*
X116432392Y-132398714D01*
X116468107Y-132327285D01*
X116539535Y-132291571D01*
X116718107Y-132291571D01*
X116789535Y-132255857D01*
X117146678Y-132577285D02*
X117146678Y-132077285D01*
X117146678Y-132148714D02*
X117182392Y-132113000D01*
X117253821Y-132077285D01*
X117360964Y-132077285D01*
X117432392Y-132113000D01*
X117468107Y-132184428D01*
X117468107Y-132577285D01*
X117468107Y-132184428D02*
X117503821Y-132113000D01*
X117575250Y-132077285D01*
X117682392Y-132077285D01*
X117753821Y-132113000D01*
X117789535Y-132184428D01*
X117789535Y-132577285D01*
X118646678Y-131827285D02*
X118825250Y-132577285D01*
X118968107Y-132041571D01*
X119110964Y-132577285D01*
X119289535Y-131827285D01*
X119896678Y-132577285D02*
X119896678Y-132184428D01*
X119860964Y-132113000D01*
X119789535Y-132077285D01*
X119646678Y-132077285D01*
X119575250Y-132113000D01*
X119896678Y-132541571D02*
X119825250Y-132577285D01*
X119646678Y-132577285D01*
X119575250Y-132541571D01*
X119539535Y-132470142D01*
X119539535Y-132398714D01*
X119575250Y-132327285D01*
X119646678Y-132291571D01*
X119825250Y-132291571D01*
X119896678Y-132255857D01*
X120253821Y-132577285D02*
X120253821Y-132077285D01*
X120253821Y-132220142D02*
X120289535Y-132148714D01*
X120325250Y-132113000D01*
X120396678Y-132077285D01*
X120468107Y-132077285D01*
X120718107Y-132577285D02*
X120718107Y-132077285D01*
X120718107Y-132148714D02*
X120753821Y-132113000D01*
X120825250Y-132077285D01*
X120932392Y-132077285D01*
X121003821Y-132113000D01*
X121039535Y-132184428D01*
X121039535Y-132577285D01*
X121039535Y-132184428D02*
X121075250Y-132113000D01*
X121146678Y-132077285D01*
X121253821Y-132077285D01*
X121325250Y-132113000D01*
X121360964Y-132184428D01*
X121360964Y-132577285D01*
X122039535Y-132077285D02*
X122039535Y-132577285D01*
X121718107Y-132077285D02*
X121718107Y-132470142D01*
X121753821Y-132541571D01*
X121825250Y-132577285D01*
X121932392Y-132577285D01*
X122003821Y-132541571D01*
X122039535Y-132505857D01*
X122289535Y-132077285D02*
X122575250Y-132077285D01*
X122396678Y-131827285D02*
X122396678Y-132470142D01*
X122432392Y-132541571D01*
X122503821Y-132577285D01*
X122575250Y-132577285D01*
X122825250Y-132577285D02*
X122825250Y-131827285D01*
X123146678Y-132577285D02*
X123146678Y-132184428D01*
X123110964Y-132113000D01*
X123039535Y-132077285D01*
X122932392Y-132077285D01*
X122860964Y-132113000D01*
X122825250Y-132148714D01*
X143152190Y-121244571D02*
X143152190Y-121530285D01*
X143152190Y-121387428D02*
X142652190Y-121387428D01*
X142723619Y-121435047D01*
X142771238Y-121482666D01*
X142795047Y-121530285D01*
X142699809Y-121054095D02*
X142676000Y-121030285D01*
X142652190Y-120982666D01*
X142652190Y-120863619D01*
X142676000Y-120816000D01*
X142699809Y-120792190D01*
X142747428Y-120768380D01*
X142795047Y-120768380D01*
X142866476Y-120792190D01*
X143152190Y-121077904D01*
X143152190Y-120768380D01*
X142652190Y-120625523D02*
X143152190Y-120458857D01*
X142652190Y-120292190D01*
X142628380Y-119768380D02*
X143271238Y-120196952D01*
X143152190Y-119601714D02*
X142652190Y-119601714D01*
X142699809Y-119387428D02*
X142676000Y-119363619D01*
X142652190Y-119316000D01*
X142652190Y-119196952D01*
X142676000Y-119149333D01*
X142699809Y-119125523D01*
X142747428Y-119101714D01*
X142795047Y-119101714D01*
X142866476Y-119125523D01*
X143152190Y-119411238D01*
X143152190Y-119101714D01*
X143104571Y-118601714D02*
X143128380Y-118625523D01*
X143152190Y-118696952D01*
X143152190Y-118744571D01*
X143128380Y-118816000D01*
X143080761Y-118863619D01*
X143033142Y-118887428D01*
X142937904Y-118911238D01*
X142866476Y-118911238D01*
X142771238Y-118887428D01*
X142723619Y-118863619D01*
X142676000Y-118816000D01*
X142652190Y-118744571D01*
X142652190Y-118696952D01*
X142676000Y-118625523D01*
X142699809Y-118601714D01*
X107084190Y-121244571D02*
X107084190Y-121530285D01*
X107084190Y-121387428D02*
X106584190Y-121387428D01*
X106655619Y-121435047D01*
X106703238Y-121482666D01*
X106727047Y-121530285D01*
X106631809Y-121054095D02*
X106608000Y-121030285D01*
X106584190Y-120982666D01*
X106584190Y-120863619D01*
X106608000Y-120816000D01*
X106631809Y-120792190D01*
X106679428Y-120768380D01*
X106727047Y-120768380D01*
X106798476Y-120792190D01*
X107084190Y-121077904D01*
X107084190Y-120768380D01*
X106584190Y-120625523D02*
X107084190Y-120458857D01*
X106584190Y-120292190D01*
X106560380Y-119768380D02*
X107203238Y-120196952D01*
X107084190Y-119601714D02*
X106584190Y-119601714D01*
X106631809Y-119387428D02*
X106608000Y-119363619D01*
X106584190Y-119316000D01*
X106584190Y-119196952D01*
X106608000Y-119149333D01*
X106631809Y-119125523D01*
X106679428Y-119101714D01*
X106727047Y-119101714D01*
X106798476Y-119125523D01*
X107084190Y-119411238D01*
X107084190Y-119101714D01*
X107036571Y-118601714D02*
X107060380Y-118625523D01*
X107084190Y-118696952D01*
X107084190Y-118744571D01*
X107060380Y-118816000D01*
X107012761Y-118863619D01*
X106965142Y-118887428D01*
X106869904Y-118911238D01*
X106798476Y-118911238D01*
X106703238Y-118887428D01*
X106655619Y-118863619D01*
X106608000Y-118816000D01*
X106584190Y-118744571D01*
X106584190Y-118696952D01*
X106608000Y-118625523D01*
X106631809Y-118601714D01*
X110346761Y-126134190D02*
X110346761Y-125634190D01*
X110632476Y-126134190D01*
X110632476Y-125634190D01*
X111156285Y-126086571D02*
X111132476Y-126110380D01*
X111061047Y-126134190D01*
X111013428Y-126134190D01*
X110942000Y-126110380D01*
X110894380Y-126062761D01*
X110870571Y-126015142D01*
X110846761Y-125919904D01*
X110846761Y-125848476D01*
X110870571Y-125753238D01*
X110894380Y-125705619D01*
X110942000Y-125658000D01*
X111013428Y-125634190D01*
X111061047Y-125634190D01*
X111132476Y-125658000D01*
X111156285Y-125681809D01*
X111299142Y-125634190D02*
X111465809Y-126134190D01*
X111632476Y-125634190D01*
X111751523Y-125634190D02*
X112084857Y-125634190D01*
X111870571Y-126134190D01*
X112346761Y-125848476D02*
X112299142Y-125824666D01*
X112275333Y-125800857D01*
X112251523Y-125753238D01*
X112251523Y-125729428D01*
X112275333Y-125681809D01*
X112299142Y-125658000D01*
X112346761Y-125634190D01*
X112442000Y-125634190D01*
X112489619Y-125658000D01*
X112513428Y-125681809D01*
X112537238Y-125729428D01*
X112537238Y-125753238D01*
X112513428Y-125800857D01*
X112489619Y-125824666D01*
X112442000Y-125848476D01*
X112346761Y-125848476D01*
X112299142Y-125872285D01*
X112275333Y-125896095D01*
X112251523Y-125943714D01*
X112251523Y-126038952D01*
X112275333Y-126086571D01*
X112299142Y-126110380D01*
X112346761Y-126134190D01*
X112442000Y-126134190D01*
X112489619Y-126110380D01*
X112513428Y-126086571D01*
X112537238Y-126038952D01*
X112537238Y-125943714D01*
X112513428Y-125896095D01*
X112489619Y-125872285D01*
X112442000Y-125848476D01*
X112751523Y-126134190D02*
X112751523Y-125634190D01*
X112918190Y-125991333D01*
X113084857Y-125634190D01*
X113084857Y-126134190D01*
X113418190Y-125634190D02*
X113465809Y-125634190D01*
X113513428Y-125658000D01*
X113537238Y-125681809D01*
X113561047Y-125729428D01*
X113584857Y-125824666D01*
X113584857Y-125943714D01*
X113561047Y-126038952D01*
X113537238Y-126086571D01*
X113513428Y-126110380D01*
X113465809Y-126134190D01*
X113418190Y-126134190D01*
X113370571Y-126110380D01*
X113346761Y-126086571D01*
X113322952Y-126038952D01*
X113299142Y-125943714D01*
X113299142Y-125824666D01*
X113322952Y-125729428D01*
X113346761Y-125681809D01*
X113370571Y-125658000D01*
X113418190Y-125634190D01*
X114037238Y-125634190D02*
X113799142Y-125634190D01*
X113775333Y-125872285D01*
X113799142Y-125848476D01*
X113846761Y-125824666D01*
X113965809Y-125824666D01*
X114013428Y-125848476D01*
X114037238Y-125872285D01*
X114061047Y-125919904D01*
X114061047Y-126038952D01*
X114037238Y-126086571D01*
X114013428Y-126110380D01*
X113965809Y-126134190D01*
X113846761Y-126134190D01*
X113799142Y-126110380D01*
X113775333Y-126086571D01*
X110362380Y-108201600D02*
X110386190Y-108130171D01*
X110386190Y-108011123D01*
X110362380Y-107963504D01*
X110338571Y-107939695D01*
X110290952Y-107915885D01*
X110243333Y-107915885D01*
X110195714Y-107939695D01*
X110171904Y-107963504D01*
X110148095Y-108011123D01*
X110124285Y-108106361D01*
X110100476Y-108153980D01*
X110076666Y-108177790D01*
X110029047Y-108201600D01*
X109981428Y-108201600D01*
X109933809Y-108177790D01*
X109910000Y-108153980D01*
X109886190Y-108106361D01*
X109886190Y-107987314D01*
X109910000Y-107915885D01*
X110052857Y-107773028D02*
X110052857Y-107582552D01*
X109886190Y-107701600D02*
X110314761Y-107701600D01*
X110362380Y-107677790D01*
X110386190Y-107630171D01*
X110386190Y-107582552D01*
X110362380Y-107225409D02*
X110386190Y-107273028D01*
X110386190Y-107368266D01*
X110362380Y-107415885D01*
X110314761Y-107439695D01*
X110124285Y-107439695D01*
X110076666Y-107415885D01*
X110052857Y-107368266D01*
X110052857Y-107273028D01*
X110076666Y-107225409D01*
X110124285Y-107201600D01*
X110171904Y-107201600D01*
X110219523Y-107439695D01*
X110052857Y-106987314D02*
X110552857Y-106987314D01*
X110076666Y-106987314D02*
X110052857Y-106939695D01*
X110052857Y-106844457D01*
X110076666Y-106796838D01*
X110100476Y-106773028D01*
X110148095Y-106749219D01*
X110290952Y-106749219D01*
X110338571Y-106773028D01*
X110362380Y-106796838D01*
X110386190Y-106844457D01*
X110386190Y-106939695D01*
X110362380Y-106987314D01*
X110052857Y-106534933D02*
X110552857Y-106534933D01*
X110076666Y-106534933D02*
X110052857Y-106487314D01*
X110052857Y-106392076D01*
X110076666Y-106344457D01*
X110100476Y-106320647D01*
X110148095Y-106296838D01*
X110290952Y-106296838D01*
X110338571Y-106320647D01*
X110362380Y-106344457D01*
X110386190Y-106392076D01*
X110386190Y-106487314D01*
X110362380Y-106534933D01*
X110362380Y-105892076D02*
X110386190Y-105939695D01*
X110386190Y-106034933D01*
X110362380Y-106082552D01*
X110314761Y-106106361D01*
X110124285Y-106106361D01*
X110076666Y-106082552D01*
X110052857Y-106034933D01*
X110052857Y-105939695D01*
X110076666Y-105892076D01*
X110124285Y-105868266D01*
X110171904Y-105868266D01*
X110219523Y-106106361D01*
X110386190Y-105653980D02*
X110052857Y-105653980D01*
X110148095Y-105653980D02*
X110100476Y-105630171D01*
X110076666Y-105606361D01*
X110052857Y-105558742D01*
X110052857Y-105511123D01*
X110386190Y-104701600D02*
X110386190Y-104987314D01*
X110386190Y-104844457D02*
X109886190Y-104844457D01*
X109957619Y-104892076D01*
X110005238Y-104939695D01*
X110029047Y-104987314D01*
X139775580Y-109116000D02*
X139799390Y-109044571D01*
X139799390Y-108925523D01*
X139775580Y-108877904D01*
X139751771Y-108854095D01*
X139704152Y-108830285D01*
X139656533Y-108830285D01*
X139608914Y-108854095D01*
X139585104Y-108877904D01*
X139561295Y-108925523D01*
X139537485Y-109020761D01*
X139513676Y-109068380D01*
X139489866Y-109092190D01*
X139442247Y-109116000D01*
X139394628Y-109116000D01*
X139347009Y-109092190D01*
X139323200Y-109068380D01*
X139299390Y-109020761D01*
X139299390Y-108901714D01*
X139323200Y-108830285D01*
X139466057Y-108687428D02*
X139466057Y-108496952D01*
X139299390Y-108616000D02*
X139727961Y-108616000D01*
X139775580Y-108592190D01*
X139799390Y-108544571D01*
X139799390Y-108496952D01*
X139775580Y-108139809D02*
X139799390Y-108187428D01*
X139799390Y-108282666D01*
X139775580Y-108330285D01*
X139727961Y-108354095D01*
X139537485Y-108354095D01*
X139489866Y-108330285D01*
X139466057Y-108282666D01*
X139466057Y-108187428D01*
X139489866Y-108139809D01*
X139537485Y-108116000D01*
X139585104Y-108116000D01*
X139632723Y-108354095D01*
X139466057Y-107901714D02*
X139966057Y-107901714D01*
X139489866Y-107901714D02*
X139466057Y-107854095D01*
X139466057Y-107758857D01*
X139489866Y-107711238D01*
X139513676Y-107687428D01*
X139561295Y-107663619D01*
X139704152Y-107663619D01*
X139751771Y-107687428D01*
X139775580Y-107711238D01*
X139799390Y-107758857D01*
X139799390Y-107854095D01*
X139775580Y-107901714D01*
X139466057Y-107449333D02*
X139966057Y-107449333D01*
X139489866Y-107449333D02*
X139466057Y-107401714D01*
X139466057Y-107306476D01*
X139489866Y-107258857D01*
X139513676Y-107235047D01*
X139561295Y-107211238D01*
X139704152Y-107211238D01*
X139751771Y-107235047D01*
X139775580Y-107258857D01*
X139799390Y-107306476D01*
X139799390Y-107401714D01*
X139775580Y-107449333D01*
X139775580Y-106806476D02*
X139799390Y-106854095D01*
X139799390Y-106949333D01*
X139775580Y-106996952D01*
X139727961Y-107020761D01*
X139537485Y-107020761D01*
X139489866Y-106996952D01*
X139466057Y-106949333D01*
X139466057Y-106854095D01*
X139489866Y-106806476D01*
X139537485Y-106782666D01*
X139585104Y-106782666D01*
X139632723Y-107020761D01*
X139799390Y-106568380D02*
X139466057Y-106568380D01*
X139561295Y-106568380D02*
X139513676Y-106544571D01*
X139489866Y-106520761D01*
X139466057Y-106473142D01*
X139466057Y-106425523D01*
X139347009Y-105901714D02*
X139323200Y-105877904D01*
X139299390Y-105830285D01*
X139299390Y-105711238D01*
X139323200Y-105663619D01*
X139347009Y-105639809D01*
X139394628Y-105616000D01*
X139442247Y-105616000D01*
X139513676Y-105639809D01*
X139799390Y-105925523D01*
X139799390Y-105616000D01*
X142954095Y-108100190D02*
X142954095Y-107600190D01*
X142954095Y-107838285D02*
X143239809Y-107838285D01*
X143239809Y-108100190D02*
X143239809Y-107600190D01*
X143692190Y-108100190D02*
X143692190Y-107838285D01*
X143668380Y-107790666D01*
X143620761Y-107766857D01*
X143525523Y-107766857D01*
X143477904Y-107790666D01*
X143692190Y-108076380D02*
X143644571Y-108100190D01*
X143525523Y-108100190D01*
X143477904Y-108076380D01*
X143454095Y-108028761D01*
X143454095Y-107981142D01*
X143477904Y-107933523D01*
X143525523Y-107909714D01*
X143644571Y-107909714D01*
X143692190Y-107885904D01*
X144001714Y-108100190D02*
X143954095Y-108076380D01*
X143930285Y-108028761D01*
X143930285Y-107600190D01*
X144263619Y-108100190D02*
X144216000Y-108076380D01*
X144192190Y-108028761D01*
X144192190Y-107600190D01*
X144811238Y-108076380D02*
X144882666Y-108100190D01*
X145001714Y-108100190D01*
X145049333Y-108076380D01*
X145073142Y-108052571D01*
X145096952Y-108004952D01*
X145096952Y-107957333D01*
X145073142Y-107909714D01*
X145049333Y-107885904D01*
X145001714Y-107862095D01*
X144906476Y-107838285D01*
X144858857Y-107814476D01*
X144835047Y-107790666D01*
X144811238Y-107743047D01*
X144811238Y-107695428D01*
X144835047Y-107647809D01*
X144858857Y-107624000D01*
X144906476Y-107600190D01*
X145025523Y-107600190D01*
X145096952Y-107624000D01*
X145501714Y-108076380D02*
X145454095Y-108100190D01*
X145358857Y-108100190D01*
X145311238Y-108076380D01*
X145287428Y-108028761D01*
X145287428Y-107838285D01*
X145311238Y-107790666D01*
X145358857Y-107766857D01*
X145454095Y-107766857D01*
X145501714Y-107790666D01*
X145525523Y-107838285D01*
X145525523Y-107885904D01*
X145287428Y-107933523D01*
X145739809Y-107766857D02*
X145739809Y-108100190D01*
X145739809Y-107814476D02*
X145763619Y-107790666D01*
X145811238Y-107766857D01*
X145882666Y-107766857D01*
X145930285Y-107790666D01*
X145954095Y-107838285D01*
X145954095Y-108100190D01*
X146168380Y-108076380D02*
X146216000Y-108100190D01*
X146311238Y-108100190D01*
X146358857Y-108076380D01*
X146382666Y-108028761D01*
X146382666Y-108004952D01*
X146358857Y-107957333D01*
X146311238Y-107933523D01*
X146239809Y-107933523D01*
X146192190Y-107909714D01*
X146168380Y-107862095D01*
X146168380Y-107838285D01*
X146192190Y-107790666D01*
X146239809Y-107766857D01*
X146311238Y-107766857D01*
X146358857Y-107790666D01*
X146668380Y-108100190D02*
X146620761Y-108076380D01*
X146596952Y-108052571D01*
X146573142Y-108004952D01*
X146573142Y-107862095D01*
X146596952Y-107814476D01*
X146620761Y-107790666D01*
X146668380Y-107766857D01*
X146739809Y-107766857D01*
X146787428Y-107790666D01*
X146811238Y-107814476D01*
X146835047Y-107862095D01*
X146835047Y-108004952D01*
X146811238Y-108052571D01*
X146787428Y-108076380D01*
X146739809Y-108100190D01*
X146668380Y-108100190D01*
X147049333Y-108100190D02*
X147049333Y-107766857D01*
X147049333Y-107862095D02*
X147073142Y-107814476D01*
X147096952Y-107790666D01*
X147144571Y-107766857D01*
X147192190Y-107766857D01*
X147716000Y-107647809D02*
X147739809Y-107624000D01*
X147787428Y-107600190D01*
X147906476Y-107600190D01*
X147954095Y-107624000D01*
X147977904Y-107647809D01*
X148001714Y-107695428D01*
X148001714Y-107743047D01*
X147977904Y-107814476D01*
X147692190Y-108100190D01*
X148001714Y-108100190D01*
X101806095Y-108100190D02*
X101806095Y-107600190D01*
X101806095Y-107838285D02*
X102091809Y-107838285D01*
X102091809Y-108100190D02*
X102091809Y-107600190D01*
X102544190Y-108100190D02*
X102544190Y-107838285D01*
X102520380Y-107790666D01*
X102472761Y-107766857D01*
X102377523Y-107766857D01*
X102329904Y-107790666D01*
X102544190Y-108076380D02*
X102496571Y-108100190D01*
X102377523Y-108100190D01*
X102329904Y-108076380D01*
X102306095Y-108028761D01*
X102306095Y-107981142D01*
X102329904Y-107933523D01*
X102377523Y-107909714D01*
X102496571Y-107909714D01*
X102544190Y-107885904D01*
X102853714Y-108100190D02*
X102806095Y-108076380D01*
X102782285Y-108028761D01*
X102782285Y-107600190D01*
X103115619Y-108100190D02*
X103068000Y-108076380D01*
X103044190Y-108028761D01*
X103044190Y-107600190D01*
X103663238Y-108076380D02*
X103734666Y-108100190D01*
X103853714Y-108100190D01*
X103901333Y-108076380D01*
X103925142Y-108052571D01*
X103948952Y-108004952D01*
X103948952Y-107957333D01*
X103925142Y-107909714D01*
X103901333Y-107885904D01*
X103853714Y-107862095D01*
X103758476Y-107838285D01*
X103710857Y-107814476D01*
X103687047Y-107790666D01*
X103663238Y-107743047D01*
X103663238Y-107695428D01*
X103687047Y-107647809D01*
X103710857Y-107624000D01*
X103758476Y-107600190D01*
X103877523Y-107600190D01*
X103948952Y-107624000D01*
X104353714Y-108076380D02*
X104306095Y-108100190D01*
X104210857Y-108100190D01*
X104163238Y-108076380D01*
X104139428Y-108028761D01*
X104139428Y-107838285D01*
X104163238Y-107790666D01*
X104210857Y-107766857D01*
X104306095Y-107766857D01*
X104353714Y-107790666D01*
X104377523Y-107838285D01*
X104377523Y-107885904D01*
X104139428Y-107933523D01*
X104591809Y-107766857D02*
X104591809Y-108100190D01*
X104591809Y-107814476D02*
X104615619Y-107790666D01*
X104663238Y-107766857D01*
X104734666Y-107766857D01*
X104782285Y-107790666D01*
X104806095Y-107838285D01*
X104806095Y-108100190D01*
X105020380Y-108076380D02*
X105068000Y-108100190D01*
X105163238Y-108100190D01*
X105210857Y-108076380D01*
X105234666Y-108028761D01*
X105234666Y-108004952D01*
X105210857Y-107957333D01*
X105163238Y-107933523D01*
X105091809Y-107933523D01*
X105044190Y-107909714D01*
X105020380Y-107862095D01*
X105020380Y-107838285D01*
X105044190Y-107790666D01*
X105091809Y-107766857D01*
X105163238Y-107766857D01*
X105210857Y-107790666D01*
X105520380Y-108100190D02*
X105472761Y-108076380D01*
X105448952Y-108052571D01*
X105425142Y-108004952D01*
X105425142Y-107862095D01*
X105448952Y-107814476D01*
X105472761Y-107790666D01*
X105520380Y-107766857D01*
X105591809Y-107766857D01*
X105639428Y-107790666D01*
X105663238Y-107814476D01*
X105687047Y-107862095D01*
X105687047Y-108004952D01*
X105663238Y-108052571D01*
X105639428Y-108076380D01*
X105591809Y-108100190D01*
X105520380Y-108100190D01*
X105901333Y-108100190D02*
X105901333Y-107766857D01*
X105901333Y-107862095D02*
X105925142Y-107814476D01*
X105948952Y-107790666D01*
X105996571Y-107766857D01*
X106044190Y-107766857D01*
X106853714Y-108100190D02*
X106568000Y-108100190D01*
X106710857Y-108100190D02*
X106710857Y-107600190D01*
X106663238Y-107671619D01*
X106615619Y-107719238D01*
X106568000Y-107743047D01*
X131501590Y-111413228D02*
X131501590Y-111365609D01*
X131525400Y-111317990D01*
X131549209Y-111294180D01*
X131596828Y-111270371D01*
X131692066Y-111246561D01*
X131811114Y-111246561D01*
X131906352Y-111270371D01*
X131953971Y-111294180D01*
X131977780Y-111317990D01*
X132001590Y-111365609D01*
X132001590Y-111413228D01*
X131977780Y-111460847D01*
X131953971Y-111484657D01*
X131906352Y-111508466D01*
X131811114Y-111532276D01*
X131692066Y-111532276D01*
X131596828Y-111508466D01*
X131549209Y-111484657D01*
X131525400Y-111460847D01*
X131501590Y-111413228D01*
X131953971Y-111032276D02*
X131977780Y-111008466D01*
X132001590Y-111032276D01*
X131977780Y-111056085D01*
X131953971Y-111032276D01*
X132001590Y-111032276D01*
X132001590Y-110532276D02*
X132001590Y-110817990D01*
X132001590Y-110675133D02*
X131501590Y-110675133D01*
X131573019Y-110722752D01*
X131620638Y-110770371D01*
X131644447Y-110817990D01*
X131668257Y-110103704D02*
X132001590Y-110103704D01*
X131668257Y-110317990D02*
X131930161Y-110317990D01*
X131977780Y-110294180D01*
X132001590Y-110246561D01*
X132001590Y-110175133D01*
X131977780Y-110127514D01*
X131953971Y-110103704D01*
X131739685Y-109698942D02*
X131739685Y-109865609D01*
X132001590Y-109865609D02*
X131501590Y-109865609D01*
X131501590Y-109627514D01*
X116148857Y-127316857D02*
X116482190Y-127316857D01*
X115958380Y-127435904D02*
X116315523Y-127554952D01*
X116315523Y-127245428D01*
X116482190Y-127054952D02*
X115982190Y-127054952D01*
X116482190Y-126769238D02*
X116196476Y-126983523D01*
X115982190Y-126769238D02*
X116267904Y-127054952D01*
X115982190Y-126602571D02*
X115982190Y-126269238D01*
X116482190Y-126483523D01*
X120212857Y-127316857D02*
X120546190Y-127316857D01*
X120022380Y-127435904D02*
X120379523Y-127554952D01*
X120379523Y-127245428D01*
X120546190Y-127054952D02*
X120046190Y-127054952D01*
X120546190Y-126769238D02*
X120260476Y-126983523D01*
X120046190Y-126769238D02*
X120331904Y-127054952D01*
X120046190Y-126602571D02*
X120046190Y-126269238D01*
X120546190Y-126483523D01*
D11*
X128553210Y-125908000D02*
G75*
G03X128553210Y-125908000I-359210J0D01*
G01*
X127791210Y-113208000D02*
G75*
G03X127791210Y-113208000I-359210J0D01*
G01*
D10*
X127594761Y-130960190D02*
X127309047Y-130960190D01*
X127451904Y-130960190D02*
X127451904Y-130460190D01*
X127404285Y-130531619D01*
X127356666Y-130579238D01*
X127309047Y-130603047D01*
X127904285Y-130460190D02*
X127951904Y-130460190D01*
X127999523Y-130484000D01*
X128023333Y-130507809D01*
X128047142Y-130555428D01*
X128070952Y-130650666D01*
X128070952Y-130769714D01*
X128047142Y-130864952D01*
X128023333Y-130912571D01*
X127999523Y-130936380D01*
X127951904Y-130960190D01*
X127904285Y-130960190D01*
X127856666Y-130936380D01*
X127832857Y-130912571D01*
X127809047Y-130864952D01*
X127785238Y-130769714D01*
X127785238Y-130650666D01*
X127809047Y-130555428D01*
X127832857Y-130507809D01*
X127856666Y-130484000D01*
X127904285Y-130460190D01*
X128285238Y-130960190D02*
X128285238Y-130460190D01*
X128570952Y-130960190D02*
X128356666Y-130674476D01*
X128570952Y-130460190D02*
X128285238Y-130745904D01*
X118268190Y-123173428D02*
X118268190Y-123125809D01*
X118292000Y-123078190D01*
X118315809Y-123054380D01*
X118363428Y-123030571D01*
X118458666Y-123006761D01*
X118577714Y-123006761D01*
X118672952Y-123030571D01*
X118720571Y-123054380D01*
X118744380Y-123078190D01*
X118768190Y-123125809D01*
X118768190Y-123173428D01*
X118744380Y-123221047D01*
X118720571Y-123244857D01*
X118672952Y-123268666D01*
X118577714Y-123292476D01*
X118458666Y-123292476D01*
X118363428Y-123268666D01*
X118315809Y-123244857D01*
X118292000Y-123221047D01*
X118268190Y-123173428D01*
X118720571Y-122792476D02*
X118744380Y-122768666D01*
X118768190Y-122792476D01*
X118744380Y-122816285D01*
X118720571Y-122792476D01*
X118768190Y-122792476D01*
X118768190Y-122292476D02*
X118768190Y-122578190D01*
X118768190Y-122435333D02*
X118268190Y-122435333D01*
X118339619Y-122482952D01*
X118387238Y-122530571D01*
X118411047Y-122578190D01*
X118434857Y-121863904D02*
X118768190Y-121863904D01*
X118434857Y-122078190D02*
X118696761Y-122078190D01*
X118744380Y-122054380D01*
X118768190Y-122006761D01*
X118768190Y-121935333D01*
X118744380Y-121887714D01*
X118720571Y-121863904D01*
X118506285Y-121459142D02*
X118506285Y-121625809D01*
X118768190Y-121625809D02*
X118268190Y-121625809D01*
X118268190Y-121387714D01*
D12*
X136615809Y-127122380D02*
X136615809Y-126122380D01*
X137044380Y-127074761D02*
X137187238Y-127122380D01*
X137425333Y-127122380D01*
X137520571Y-127074761D01*
X137568190Y-127027142D01*
X137615809Y-126931904D01*
X137615809Y-126836666D01*
X137568190Y-126741428D01*
X137520571Y-126693809D01*
X137425333Y-126646190D01*
X137234857Y-126598571D01*
X137139619Y-126550952D01*
X137092000Y-126503333D01*
X137044380Y-126408095D01*
X137044380Y-126312857D01*
X137092000Y-126217619D01*
X137139619Y-126170000D01*
X137234857Y-126122380D01*
X137472952Y-126122380D01*
X137615809Y-126170000D01*
X138044380Y-127122380D02*
X138044380Y-126122380D01*
X138425333Y-126122380D01*
X138520571Y-126170000D01*
X138568190Y-126217619D01*
X138615809Y-126312857D01*
X138615809Y-126455714D01*
X138568190Y-126550952D01*
X138520571Y-126598571D01*
X138425333Y-126646190D01*
X138044380Y-126646190D01*
X123640142Y-124763000D02*
X123997285Y-124763000D01*
X123568714Y-124977285D02*
X123818714Y-124227285D01*
X124068714Y-124977285D01*
X124211571Y-124227285D02*
X124640142Y-124227285D01*
X124425857Y-124977285D02*
X124425857Y-124227285D01*
X124783000Y-124227285D02*
X125211571Y-124227285D01*
X124997285Y-124977285D02*
X124997285Y-124227285D01*
X125461571Y-124977285D02*
X125461571Y-124477285D01*
X125461571Y-124227285D02*
X125425857Y-124263000D01*
X125461571Y-124298714D01*
X125497285Y-124263000D01*
X125461571Y-124227285D01*
X125461571Y-124298714D01*
X125818714Y-124477285D02*
X125818714Y-124977285D01*
X125818714Y-124548714D02*
X125854428Y-124513000D01*
X125925857Y-124477285D01*
X126033000Y-124477285D01*
X126104428Y-124513000D01*
X126140142Y-124584428D01*
X126140142Y-124977285D01*
X126425857Y-124477285D02*
X126604428Y-124977285D01*
X126783000Y-124477285D02*
X126604428Y-124977285D01*
X126533000Y-125155857D01*
X126497285Y-125191571D01*
X126425857Y-125227285D01*
X127175857Y-124548714D02*
X127104428Y-124513000D01*
X127068714Y-124477285D01*
X127033000Y-124405857D01*
X127033000Y-124370142D01*
X127068714Y-124298714D01*
X127104428Y-124263000D01*
X127175857Y-124227285D01*
X127318714Y-124227285D01*
X127390142Y-124263000D01*
X127425857Y-124298714D01*
X127461571Y-124370142D01*
X127461571Y-124405857D01*
X127425857Y-124477285D01*
X127390142Y-124513000D01*
X127318714Y-124548714D01*
X127175857Y-124548714D01*
X127104428Y-124584428D01*
X127068714Y-124620142D01*
X127033000Y-124691571D01*
X127033000Y-124834428D01*
X127068714Y-124905857D01*
X127104428Y-124941571D01*
X127175857Y-124977285D01*
X127318714Y-124977285D01*
X127390142Y-124941571D01*
X127425857Y-124905857D01*
X127461571Y-124834428D01*
X127461571Y-124691571D01*
X127425857Y-124620142D01*
X127390142Y-124584428D01*
X127318714Y-124548714D01*
X127890142Y-124548714D02*
X127818714Y-124513000D01*
X127783000Y-124477285D01*
X127747285Y-124405857D01*
X127747285Y-124370142D01*
X127783000Y-124298714D01*
X127818714Y-124263000D01*
X127890142Y-124227285D01*
X128033000Y-124227285D01*
X128104428Y-124263000D01*
X128140142Y-124298714D01*
X128175857Y-124370142D01*
X128175857Y-124405857D01*
X128140142Y-124477285D01*
X128104428Y-124513000D01*
X128033000Y-124548714D01*
X127890142Y-124548714D01*
X127818714Y-124584428D01*
X127783000Y-124620142D01*
X127747285Y-124691571D01*
X127747285Y-124834428D01*
X127783000Y-124905857D01*
X127818714Y-124941571D01*
X127890142Y-124977285D01*
X128033000Y-124977285D01*
X128104428Y-124941571D01*
X128140142Y-124905857D01*
X128175857Y-124834428D01*
X128175857Y-124691571D01*
X128140142Y-124620142D01*
X128104428Y-124584428D01*
X128033000Y-124548714D01*
X124268380Y-112488571D02*
X124268380Y-111917142D01*
X125268380Y-112202857D02*
X124268380Y-112202857D01*
X125268380Y-111583809D02*
X124268380Y-111583809D01*
X124268380Y-111202857D01*
X124316000Y-111107619D01*
X124363619Y-111060000D01*
X124458857Y-111012380D01*
X124601714Y-111012380D01*
X124696952Y-111060000D01*
X124744571Y-111107619D01*
X124792190Y-111202857D01*
X124792190Y-111583809D01*
X125268380Y-110583809D02*
X124268380Y-110583809D01*
X125173142Y-109536190D02*
X125220761Y-109583809D01*
X125268380Y-109726666D01*
X125268380Y-109821904D01*
X125220761Y-109964761D01*
X125125523Y-110060000D01*
X125030285Y-110107619D01*
X124839809Y-110155238D01*
X124696952Y-110155238D01*
X124506476Y-110107619D01*
X124411238Y-110060000D01*
X124316000Y-109964761D01*
X124268380Y-109821904D01*
X124268380Y-109726666D01*
X124316000Y-109583809D01*
X124363619Y-109536190D01*
X124268380Y-108679047D02*
X124268380Y-108869523D01*
X124316000Y-108964761D01*
X124363619Y-109012380D01*
X124506476Y-109107619D01*
X124696952Y-109155238D01*
X125077904Y-109155238D01*
X125173142Y-109107619D01*
X125220761Y-109060000D01*
X125268380Y-108964761D01*
X125268380Y-108774285D01*
X125220761Y-108679047D01*
X125173142Y-108631428D01*
X125077904Y-108583809D01*
X124839809Y-108583809D01*
X124744571Y-108631428D01*
X124696952Y-108679047D01*
X124649333Y-108774285D01*
X124649333Y-108964761D01*
X124696952Y-109060000D01*
X124744571Y-109107619D01*
X124839809Y-109155238D01*
X124744571Y-107821904D02*
X124792190Y-107679047D01*
X124839809Y-107631428D01*
X124935047Y-107583809D01*
X125077904Y-107583809D01*
X125173142Y-107631428D01*
X125220761Y-107679047D01*
X125268380Y-107774285D01*
X125268380Y-108155238D01*
X124268380Y-108155238D01*
X124268380Y-107821904D01*
X124316000Y-107726666D01*
X124363619Y-107679047D01*
X124458857Y-107631428D01*
X124554095Y-107631428D01*
X124649333Y-107679047D01*
X124696952Y-107726666D01*
X124744571Y-107821904D01*
X124744571Y-108155238D01*
X124268380Y-106679047D02*
X124268380Y-107155238D01*
X124744571Y-107202857D01*
X124696952Y-107155238D01*
X124649333Y-107060000D01*
X124649333Y-106821904D01*
X124696952Y-106726666D01*
X124744571Y-106679047D01*
X124839809Y-106631428D01*
X125077904Y-106631428D01*
X125173142Y-106679047D01*
X125220761Y-106726666D01*
X125268380Y-106821904D01*
X125268380Y-107060000D01*
X125220761Y-107155238D01*
X125173142Y-107202857D01*
X125268380Y-106155238D02*
X125268380Y-105964761D01*
X125220761Y-105869523D01*
X125173142Y-105821904D01*
X125030285Y-105726666D01*
X124839809Y-105679047D01*
X124458857Y-105679047D01*
X124363619Y-105726666D01*
X124316000Y-105774285D01*
X124268380Y-105869523D01*
X124268380Y-106060000D01*
X124316000Y-106155238D01*
X124363619Y-106202857D01*
X124458857Y-106250476D01*
X124696952Y-106250476D01*
X124792190Y-106202857D01*
X124839809Y-106155238D01*
X124887428Y-106060000D01*
X124887428Y-105869523D01*
X124839809Y-105774285D01*
X124792190Y-105726666D01*
X124696952Y-105679047D01*
X124268380Y-104774285D02*
X124268380Y-105250476D01*
X124744571Y-105298095D01*
X124696952Y-105250476D01*
X124649333Y-105155238D01*
X124649333Y-104917142D01*
X124696952Y-104821904D01*
X124744571Y-104774285D01*
X124839809Y-104726666D01*
X125077904Y-104726666D01*
X125173142Y-104774285D01*
X125220761Y-104821904D01*
X125268380Y-104917142D01*
X125268380Y-105155238D01*
X125220761Y-105250476D01*
X125173142Y-105298095D01*
D10*
X109608476Y-130714190D02*
X109656095Y-130714190D01*
X109703714Y-130738000D01*
X109727523Y-130761809D01*
X109751333Y-130809428D01*
X109775142Y-130904666D01*
X109775142Y-131023714D01*
X109751333Y-131118952D01*
X109727523Y-131166571D01*
X109703714Y-131190380D01*
X109656095Y-131214190D01*
X109608476Y-131214190D01*
X109560857Y-131190380D01*
X109537047Y-131166571D01*
X109513238Y-131118952D01*
X109489428Y-131023714D01*
X109489428Y-130904666D01*
X109513238Y-130809428D01*
X109537047Y-130761809D01*
X109560857Y-130738000D01*
X109608476Y-130714190D01*
X109989428Y-131166571D02*
X110013238Y-131190380D01*
X109989428Y-131214190D01*
X109965619Y-131190380D01*
X109989428Y-131166571D01*
X109989428Y-131214190D01*
X110179904Y-130714190D02*
X110489428Y-130714190D01*
X110322761Y-130904666D01*
X110394190Y-130904666D01*
X110441809Y-130928476D01*
X110465619Y-130952285D01*
X110489428Y-130999904D01*
X110489428Y-131118952D01*
X110465619Y-131166571D01*
X110441809Y-131190380D01*
X110394190Y-131214190D01*
X110251333Y-131214190D01*
X110203714Y-131190380D01*
X110179904Y-131166571D01*
X110656095Y-130714190D02*
X110965619Y-130714190D01*
X110798952Y-130904666D01*
X110870380Y-130904666D01*
X110918000Y-130928476D01*
X110941809Y-130952285D01*
X110965619Y-130999904D01*
X110965619Y-131118952D01*
X110941809Y-131166571D01*
X110918000Y-131190380D01*
X110870380Y-131214190D01*
X110727523Y-131214190D01*
X110679904Y-131190380D01*
X110656095Y-131166571D01*
X111394190Y-130880857D02*
X111394190Y-131214190D01*
X111179904Y-130880857D02*
X111179904Y-131142761D01*
X111203714Y-131190380D01*
X111251333Y-131214190D01*
X111322761Y-131214190D01*
X111370380Y-131190380D01*
X111394190Y-131166571D01*
X111798952Y-130952285D02*
X111632285Y-130952285D01*
X111632285Y-131214190D02*
X111632285Y-130714190D01*
X111870380Y-130714190D01*
X112894571Y-130714190D02*
X112942190Y-130714190D01*
X112989809Y-130738000D01*
X113013619Y-130761809D01*
X113037428Y-130809428D01*
X113061238Y-130904666D01*
X113061238Y-131023714D01*
X113037428Y-131118952D01*
X113013619Y-131166571D01*
X112989809Y-131190380D01*
X112942190Y-131214190D01*
X112894571Y-131214190D01*
X112846952Y-131190380D01*
X112823142Y-131166571D01*
X112799333Y-131118952D01*
X112775523Y-131023714D01*
X112775523Y-130904666D01*
X112799333Y-130809428D01*
X112823142Y-130761809D01*
X112846952Y-130738000D01*
X112894571Y-130714190D01*
X113275523Y-131166571D02*
X113299333Y-131190380D01*
X113275523Y-131214190D01*
X113251714Y-131190380D01*
X113275523Y-131166571D01*
X113275523Y-131214190D01*
X113775523Y-131214190D02*
X113489809Y-131214190D01*
X113632666Y-131214190D02*
X113632666Y-130714190D01*
X113585047Y-130785619D01*
X113537428Y-130833238D01*
X113489809Y-130857047D01*
X114204095Y-130880857D02*
X114204095Y-131214190D01*
X113989809Y-130880857D02*
X113989809Y-131142761D01*
X114013619Y-131190380D01*
X114061238Y-131214190D01*
X114132666Y-131214190D01*
X114180285Y-131190380D01*
X114204095Y-131166571D01*
X114608857Y-130952285D02*
X114442190Y-130952285D01*
X114442190Y-131214190D02*
X114442190Y-130714190D01*
X114680285Y-130714190D01*
D11*
X115372000Y-125838000D02*
X115372000Y-126938000D01*
X115642000Y-125838000D02*
X115372000Y-125838000D01*
X115642000Y-124338000D02*
X115642000Y-125838000D01*
X109012000Y-125838000D02*
X109012000Y-128668000D01*
X108742000Y-125838000D02*
X109012000Y-125838000D01*
X108742000Y-124338000D02*
X108742000Y-125838000D01*
D12*
X128875000Y-114373000D02*
X128875000Y-114123000D01*
X121125000Y-114373000D02*
X121125000Y-114038000D01*
X121125000Y-101223000D02*
X121125000Y-101558000D01*
X128875000Y-101223000D02*
X128875000Y-101558000D01*
X128875000Y-114373000D02*
X121125000Y-114373000D01*
X128875000Y-101223000D02*
X121125000Y-101223000D01*
X128875000Y-114123000D02*
X130675000Y-114123000D01*
D11*
X140446000Y-117720000D02*
X135246000Y-117720000D01*
X140446000Y-122860000D02*
X140446000Y-117720000D01*
X135246000Y-125460000D02*
X135246000Y-117720000D01*
X140446000Y-122860000D02*
X137846000Y-122860000D01*
X137846000Y-122860000D02*
X137846000Y-125460000D01*
X137846000Y-125460000D02*
X135246000Y-125460000D01*
X140446000Y-124130000D02*
X140446000Y-125460000D01*
X140446000Y-125460000D02*
X139116000Y-125460000D01*
D12*
X129457000Y-126917000D02*
X129457000Y-126692000D01*
X122207000Y-126917000D02*
X122207000Y-126592000D01*
X122207000Y-119667000D02*
X122207000Y-119992000D01*
X129457000Y-119667000D02*
X129457000Y-119992000D01*
X129457000Y-126917000D02*
X129132000Y-126917000D01*
X129457000Y-119667000D02*
X129132000Y-119667000D01*
X122207000Y-119667000D02*
X122532000Y-119667000D01*
X122207000Y-126917000D02*
X122532000Y-126917000D01*
X129457000Y-126692000D02*
X130882000Y-126692000D01*
D11*
X113553221Y-129208000D02*
X113878779Y-129208000D01*
X113553221Y-130228000D02*
X113878779Y-130228000D01*
X110505221Y-129208000D02*
X110830779Y-129208000D01*
X110505221Y-130228000D02*
X110830779Y-130228000D01*
X119240000Y-122443221D02*
X119240000Y-122768779D01*
X120260000Y-122443221D02*
X120260000Y-122768779D01*
X127777221Y-129974000D02*
X128102779Y-129974000D01*
X127777221Y-128954000D02*
X128102779Y-128954000D01*
X116762000Y-127086779D02*
X116762000Y-126761221D01*
X117782000Y-127086779D02*
X117782000Y-126761221D01*
X119814000Y-127064779D02*
X119814000Y-126739221D01*
X118794000Y-127064779D02*
X118794000Y-126739221D01*
X111230600Y-115514000D02*
X117200600Y-115514000D01*
X117200600Y-115514000D02*
X117200600Y-100394000D01*
X117200600Y-100394000D02*
X111230600Y-100394000D01*
X111230600Y-100394000D02*
X111230600Y-115514000D01*
X111240600Y-112204000D02*
X111990600Y-112204000D01*
X111990600Y-112204000D02*
X111990600Y-103704000D01*
X111990600Y-103704000D02*
X111240600Y-103704000D01*
X111240600Y-103704000D02*
X111240600Y-112204000D01*
X111240600Y-115504000D02*
X111990600Y-115504000D01*
X111990600Y-115504000D02*
X111990600Y-113704000D01*
X111990600Y-113704000D02*
X111240600Y-113704000D01*
X111240600Y-113704000D02*
X111240600Y-115504000D01*
X111240600Y-102204000D02*
X111990600Y-102204000D01*
X111990600Y-102204000D02*
X111990600Y-100404000D01*
X111990600Y-100404000D02*
X111240600Y-100404000D01*
X111240600Y-100404000D02*
X111240600Y-102204000D01*
X113490600Y-115504000D02*
X113490600Y-114754000D01*
X113490600Y-114754000D02*
X116440600Y-114754000D01*
X116440600Y-114754000D02*
X116440600Y-107954000D01*
X113490600Y-100404000D02*
X113490600Y-101154000D01*
X113490600Y-101154000D02*
X116440600Y-101154000D01*
X116440600Y-101154000D02*
X116440600Y-107954000D01*
X110940600Y-114554000D02*
X110940600Y-115804000D01*
X110940600Y-115804000D02*
X112190600Y-115804000D01*
X132606800Y-115804000D02*
X133856800Y-115804000D01*
X132606800Y-114554000D02*
X132606800Y-115804000D01*
X138106800Y-101154000D02*
X138106800Y-107954000D01*
X135156800Y-101154000D02*
X138106800Y-101154000D01*
X135156800Y-100404000D02*
X135156800Y-101154000D01*
X138106800Y-114754000D02*
X138106800Y-107954000D01*
X135156800Y-114754000D02*
X138106800Y-114754000D01*
X135156800Y-115504000D02*
X135156800Y-114754000D01*
X132906800Y-100404000D02*
X132906800Y-102204000D01*
X133656800Y-100404000D02*
X132906800Y-100404000D01*
X133656800Y-102204000D02*
X133656800Y-100404000D01*
X132906800Y-102204000D02*
X133656800Y-102204000D01*
X132906800Y-113704000D02*
X132906800Y-115504000D01*
X133656800Y-113704000D02*
X132906800Y-113704000D01*
X133656800Y-115504000D02*
X133656800Y-113704000D01*
X132906800Y-115504000D02*
X133656800Y-115504000D01*
X132906800Y-103704000D02*
X132906800Y-112204000D01*
X133656800Y-103704000D02*
X132906800Y-103704000D01*
X133656800Y-112204000D02*
X133656800Y-103704000D01*
X132906800Y-112204000D02*
X133656800Y-112204000D01*
X132896800Y-100394000D02*
X132896800Y-115514000D01*
X138866800Y-100394000D02*
X132896800Y-100394000D01*
X138866800Y-115514000D02*
X138866800Y-100394000D01*
X132896800Y-115514000D02*
X138866800Y-115514000D01*
X132234600Y-112969021D02*
X132234600Y-113294579D01*
X131214600Y-112969021D02*
X131214600Y-113294579D01*
D13*
X106228000Y-115110000D02*
X106228000Y-125270000D01*
X106228000Y-125270000D02*
X100508000Y-125270000D01*
X100508000Y-125270000D02*
X100508000Y-115110000D01*
X100508000Y-115110000D02*
X106228000Y-115110000D01*
D14*
X99948000Y-124000000D02*
G75*
G03X99948000Y-124000000I-150000J0D01*
G01*
D15*
X100762000Y-108509000D02*
X100762000Y-114224000D01*
X100762000Y-114224000D02*
X108382000Y-114224000D01*
X108382000Y-114224000D02*
X108382000Y-108509000D01*
X108382000Y-108509000D02*
X107112000Y-108509000D01*
X107112000Y-108509000D02*
X102032000Y-108509000D01*
X102032000Y-108509000D02*
X100762000Y-108509000D01*
X102032000Y-108509000D02*
X102032000Y-110414000D01*
X102032000Y-110414000D02*
X107112000Y-110414000D01*
X107112000Y-110414000D02*
X107112000Y-108509000D01*
X147752000Y-110414000D02*
X147752000Y-108509000D01*
X142672000Y-110414000D02*
X147752000Y-110414000D01*
X142672000Y-108509000D02*
X142672000Y-110414000D01*
X142672000Y-108509000D02*
X141402000Y-108509000D01*
X147752000Y-108509000D02*
X142672000Y-108509000D01*
X149022000Y-108509000D02*
X147752000Y-108509000D01*
X149022000Y-114224000D02*
X149022000Y-108509000D01*
X141402000Y-114224000D02*
X149022000Y-114224000D01*
X141402000Y-108509000D02*
X141402000Y-114224000D01*
D13*
X149154000Y-115110000D02*
X149154000Y-125270000D01*
X149154000Y-125270000D02*
X143434000Y-125270000D01*
X143434000Y-125270000D02*
X143434000Y-115110000D01*
X143434000Y-115110000D02*
X149154000Y-115110000D01*
D14*
X142874000Y-124000000D02*
G75*
G03X142874000Y-124000000I-150000J0D01*
G01*
D11*
X132768000Y-123510021D02*
X132768000Y-123835579D01*
X131748000Y-123510021D02*
X131748000Y-123835579D01*
X131214600Y-103947379D02*
X131214600Y-103621821D01*
X132234600Y-103947379D02*
X132234600Y-103621821D01*
M02*
