G04 #@! TF.GenerationSoftware,KiCad,Pcbnew,(5.1.0-0)*
G04 #@! TF.CreationDate,2019-04-29T17:32:57-05:00*
G04 #@! TF.ProjectId,splitflap-pcb,73706c69-7466-46c6-9170-2d7063622e6b,rev?*
G04 #@! TF.SameCoordinates,Original*
G04 #@! TF.FileFunction,Copper,L1,Top*
G04 #@! TF.FilePolarity,Positive*
%FSLAX46Y46*%
G04 Gerber Fmt 4.6, Leading zero omitted, Abs format (unit mm)*
G04 Created by KiCad (PCBNEW (5.1.0-0)) date 2019-04-29 17:32:57*
%MOMM*%
%LPD*%
G04 APERTURE LIST*
%ADD10R,5.800000X6.400000*%
%ADD11R,1.200000X2.200000*%
%ADD12R,1.950000X0.600000*%
%ADD13R,1.700000X1.700000*%
%ADD14O,1.700000X1.700000*%
%ADD15R,1.600000X0.550000*%
%ADD16R,0.550000X1.600000*%
%ADD17C,0.100000*%
%ADD18C,0.875000*%
%ADD19C,1.700000*%
%ADD20O,1.950000X1.700000*%
%ADD21C,1.530000*%
%ADD22R,1.530000X1.530000*%
%ADD23R,1.524000X1.524000*%
%ADD24C,1.524000*%
%ADD25C,0.800000*%
%ADD26C,5.500000*%
%ADD27C,0.250000*%
%ADD28C,0.500000*%
%ADD29C,2.000000*%
G04 APERTURE END LIST*
D10*
X112192000Y-121268000D03*
D11*
X114472000Y-127568000D03*
X109912000Y-127568000D03*
D12*
X129700000Y-113513000D03*
X129700000Y-112243000D03*
X129700000Y-110973000D03*
X129700000Y-109703000D03*
X129700000Y-108433000D03*
X129700000Y-107163000D03*
X129700000Y-105893000D03*
X129700000Y-104623000D03*
X129700000Y-103353000D03*
X129700000Y-102083000D03*
X120300000Y-102083000D03*
X120300000Y-103353000D03*
X120300000Y-104623000D03*
X120300000Y-105893000D03*
X120300000Y-107163000D03*
X120300000Y-108433000D03*
X120300000Y-109703000D03*
X120300000Y-110973000D03*
X120300000Y-112243000D03*
X120300000Y-113513000D03*
D13*
X139116000Y-124130000D03*
D14*
X136576000Y-124130000D03*
X139116000Y-121590000D03*
X136576000Y-121590000D03*
X139116000Y-119050000D03*
X136576000Y-119050000D03*
D15*
X130082000Y-126092000D03*
X130082000Y-125292000D03*
X130082000Y-124492000D03*
X130082000Y-123692000D03*
X130082000Y-122892000D03*
X130082000Y-122092000D03*
X130082000Y-121292000D03*
X130082000Y-120492000D03*
D16*
X128632000Y-119042000D03*
X127832000Y-119042000D03*
X127032000Y-119042000D03*
X126232000Y-119042000D03*
X125432000Y-119042000D03*
X124632000Y-119042000D03*
X123832000Y-119042000D03*
X123032000Y-119042000D03*
D15*
X121582000Y-120492000D03*
X121582000Y-121292000D03*
X121582000Y-122092000D03*
X121582000Y-122892000D03*
X121582000Y-123692000D03*
X121582000Y-124492000D03*
X121582000Y-125292000D03*
X121582000Y-126092000D03*
D16*
X123032000Y-127542000D03*
X123832000Y-127542000D03*
X124632000Y-127542000D03*
X125432000Y-127542000D03*
X126232000Y-127542000D03*
X127032000Y-127542000D03*
X127832000Y-127542000D03*
X128632000Y-127542000D03*
D17*
G36*
X113168691Y-129244053D02*
G01*
X113189926Y-129247203D01*
X113210750Y-129252419D01*
X113230962Y-129259651D01*
X113250368Y-129268830D01*
X113268781Y-129279866D01*
X113286024Y-129292654D01*
X113301930Y-129307070D01*
X113316346Y-129322976D01*
X113329134Y-129340219D01*
X113340170Y-129358632D01*
X113349349Y-129378038D01*
X113356581Y-129398250D01*
X113361797Y-129419074D01*
X113364947Y-129440309D01*
X113366000Y-129461750D01*
X113366000Y-129974250D01*
X113364947Y-129995691D01*
X113361797Y-130016926D01*
X113356581Y-130037750D01*
X113349349Y-130057962D01*
X113340170Y-130077368D01*
X113329134Y-130095781D01*
X113316346Y-130113024D01*
X113301930Y-130128930D01*
X113286024Y-130143346D01*
X113268781Y-130156134D01*
X113250368Y-130167170D01*
X113230962Y-130176349D01*
X113210750Y-130183581D01*
X113189926Y-130188797D01*
X113168691Y-130191947D01*
X113147250Y-130193000D01*
X112709750Y-130193000D01*
X112688309Y-130191947D01*
X112667074Y-130188797D01*
X112646250Y-130183581D01*
X112626038Y-130176349D01*
X112606632Y-130167170D01*
X112588219Y-130156134D01*
X112570976Y-130143346D01*
X112555070Y-130128930D01*
X112540654Y-130113024D01*
X112527866Y-130095781D01*
X112516830Y-130077368D01*
X112507651Y-130057962D01*
X112500419Y-130037750D01*
X112495203Y-130016926D01*
X112492053Y-129995691D01*
X112491000Y-129974250D01*
X112491000Y-129461750D01*
X112492053Y-129440309D01*
X112495203Y-129419074D01*
X112500419Y-129398250D01*
X112507651Y-129378038D01*
X112516830Y-129358632D01*
X112527866Y-129340219D01*
X112540654Y-129322976D01*
X112555070Y-129307070D01*
X112570976Y-129292654D01*
X112588219Y-129279866D01*
X112606632Y-129268830D01*
X112626038Y-129259651D01*
X112646250Y-129252419D01*
X112667074Y-129247203D01*
X112688309Y-129244053D01*
X112709750Y-129243000D01*
X113147250Y-129243000D01*
X113168691Y-129244053D01*
X113168691Y-129244053D01*
G37*
D18*
X112928500Y-129718000D03*
D17*
G36*
X114743691Y-129244053D02*
G01*
X114764926Y-129247203D01*
X114785750Y-129252419D01*
X114805962Y-129259651D01*
X114825368Y-129268830D01*
X114843781Y-129279866D01*
X114861024Y-129292654D01*
X114876930Y-129307070D01*
X114891346Y-129322976D01*
X114904134Y-129340219D01*
X114915170Y-129358632D01*
X114924349Y-129378038D01*
X114931581Y-129398250D01*
X114936797Y-129419074D01*
X114939947Y-129440309D01*
X114941000Y-129461750D01*
X114941000Y-129974250D01*
X114939947Y-129995691D01*
X114936797Y-130016926D01*
X114931581Y-130037750D01*
X114924349Y-130057962D01*
X114915170Y-130077368D01*
X114904134Y-130095781D01*
X114891346Y-130113024D01*
X114876930Y-130128930D01*
X114861024Y-130143346D01*
X114843781Y-130156134D01*
X114825368Y-130167170D01*
X114805962Y-130176349D01*
X114785750Y-130183581D01*
X114764926Y-130188797D01*
X114743691Y-130191947D01*
X114722250Y-130193000D01*
X114284750Y-130193000D01*
X114263309Y-130191947D01*
X114242074Y-130188797D01*
X114221250Y-130183581D01*
X114201038Y-130176349D01*
X114181632Y-130167170D01*
X114163219Y-130156134D01*
X114145976Y-130143346D01*
X114130070Y-130128930D01*
X114115654Y-130113024D01*
X114102866Y-130095781D01*
X114091830Y-130077368D01*
X114082651Y-130057962D01*
X114075419Y-130037750D01*
X114070203Y-130016926D01*
X114067053Y-129995691D01*
X114066000Y-129974250D01*
X114066000Y-129461750D01*
X114067053Y-129440309D01*
X114070203Y-129419074D01*
X114075419Y-129398250D01*
X114082651Y-129378038D01*
X114091830Y-129358632D01*
X114102866Y-129340219D01*
X114115654Y-129322976D01*
X114130070Y-129307070D01*
X114145976Y-129292654D01*
X114163219Y-129279866D01*
X114181632Y-129268830D01*
X114201038Y-129259651D01*
X114221250Y-129252419D01*
X114242074Y-129247203D01*
X114263309Y-129244053D01*
X114284750Y-129243000D01*
X114722250Y-129243000D01*
X114743691Y-129244053D01*
X114743691Y-129244053D01*
G37*
D18*
X114503500Y-129718000D03*
D17*
G36*
X110120691Y-129244053D02*
G01*
X110141926Y-129247203D01*
X110162750Y-129252419D01*
X110182962Y-129259651D01*
X110202368Y-129268830D01*
X110220781Y-129279866D01*
X110238024Y-129292654D01*
X110253930Y-129307070D01*
X110268346Y-129322976D01*
X110281134Y-129340219D01*
X110292170Y-129358632D01*
X110301349Y-129378038D01*
X110308581Y-129398250D01*
X110313797Y-129419074D01*
X110316947Y-129440309D01*
X110318000Y-129461750D01*
X110318000Y-129974250D01*
X110316947Y-129995691D01*
X110313797Y-130016926D01*
X110308581Y-130037750D01*
X110301349Y-130057962D01*
X110292170Y-130077368D01*
X110281134Y-130095781D01*
X110268346Y-130113024D01*
X110253930Y-130128930D01*
X110238024Y-130143346D01*
X110220781Y-130156134D01*
X110202368Y-130167170D01*
X110182962Y-130176349D01*
X110162750Y-130183581D01*
X110141926Y-130188797D01*
X110120691Y-130191947D01*
X110099250Y-130193000D01*
X109661750Y-130193000D01*
X109640309Y-130191947D01*
X109619074Y-130188797D01*
X109598250Y-130183581D01*
X109578038Y-130176349D01*
X109558632Y-130167170D01*
X109540219Y-130156134D01*
X109522976Y-130143346D01*
X109507070Y-130128930D01*
X109492654Y-130113024D01*
X109479866Y-130095781D01*
X109468830Y-130077368D01*
X109459651Y-130057962D01*
X109452419Y-130037750D01*
X109447203Y-130016926D01*
X109444053Y-129995691D01*
X109443000Y-129974250D01*
X109443000Y-129461750D01*
X109444053Y-129440309D01*
X109447203Y-129419074D01*
X109452419Y-129398250D01*
X109459651Y-129378038D01*
X109468830Y-129358632D01*
X109479866Y-129340219D01*
X109492654Y-129322976D01*
X109507070Y-129307070D01*
X109522976Y-129292654D01*
X109540219Y-129279866D01*
X109558632Y-129268830D01*
X109578038Y-129259651D01*
X109598250Y-129252419D01*
X109619074Y-129247203D01*
X109640309Y-129244053D01*
X109661750Y-129243000D01*
X110099250Y-129243000D01*
X110120691Y-129244053D01*
X110120691Y-129244053D01*
G37*
D18*
X109880500Y-129718000D03*
D17*
G36*
X111695691Y-129244053D02*
G01*
X111716926Y-129247203D01*
X111737750Y-129252419D01*
X111757962Y-129259651D01*
X111777368Y-129268830D01*
X111795781Y-129279866D01*
X111813024Y-129292654D01*
X111828930Y-129307070D01*
X111843346Y-129322976D01*
X111856134Y-129340219D01*
X111867170Y-129358632D01*
X111876349Y-129378038D01*
X111883581Y-129398250D01*
X111888797Y-129419074D01*
X111891947Y-129440309D01*
X111893000Y-129461750D01*
X111893000Y-129974250D01*
X111891947Y-129995691D01*
X111888797Y-130016926D01*
X111883581Y-130037750D01*
X111876349Y-130057962D01*
X111867170Y-130077368D01*
X111856134Y-130095781D01*
X111843346Y-130113024D01*
X111828930Y-130128930D01*
X111813024Y-130143346D01*
X111795781Y-130156134D01*
X111777368Y-130167170D01*
X111757962Y-130176349D01*
X111737750Y-130183581D01*
X111716926Y-130188797D01*
X111695691Y-130191947D01*
X111674250Y-130193000D01*
X111236750Y-130193000D01*
X111215309Y-130191947D01*
X111194074Y-130188797D01*
X111173250Y-130183581D01*
X111153038Y-130176349D01*
X111133632Y-130167170D01*
X111115219Y-130156134D01*
X111097976Y-130143346D01*
X111082070Y-130128930D01*
X111067654Y-130113024D01*
X111054866Y-130095781D01*
X111043830Y-130077368D01*
X111034651Y-130057962D01*
X111027419Y-130037750D01*
X111022203Y-130016926D01*
X111019053Y-129995691D01*
X111018000Y-129974250D01*
X111018000Y-129461750D01*
X111019053Y-129440309D01*
X111022203Y-129419074D01*
X111027419Y-129398250D01*
X111034651Y-129378038D01*
X111043830Y-129358632D01*
X111054866Y-129340219D01*
X111067654Y-129322976D01*
X111082070Y-129307070D01*
X111097976Y-129292654D01*
X111115219Y-129279866D01*
X111133632Y-129268830D01*
X111153038Y-129259651D01*
X111173250Y-129252419D01*
X111194074Y-129247203D01*
X111215309Y-129244053D01*
X111236750Y-129243000D01*
X111674250Y-129243000D01*
X111695691Y-129244053D01*
X111695691Y-129244053D01*
G37*
D18*
X111455500Y-129718000D03*
D17*
G36*
X120027691Y-122957053D02*
G01*
X120048926Y-122960203D01*
X120069750Y-122965419D01*
X120089962Y-122972651D01*
X120109368Y-122981830D01*
X120127781Y-122992866D01*
X120145024Y-123005654D01*
X120160930Y-123020070D01*
X120175346Y-123035976D01*
X120188134Y-123053219D01*
X120199170Y-123071632D01*
X120208349Y-123091038D01*
X120215581Y-123111250D01*
X120220797Y-123132074D01*
X120223947Y-123153309D01*
X120225000Y-123174750D01*
X120225000Y-123612250D01*
X120223947Y-123633691D01*
X120220797Y-123654926D01*
X120215581Y-123675750D01*
X120208349Y-123695962D01*
X120199170Y-123715368D01*
X120188134Y-123733781D01*
X120175346Y-123751024D01*
X120160930Y-123766930D01*
X120145024Y-123781346D01*
X120127781Y-123794134D01*
X120109368Y-123805170D01*
X120089962Y-123814349D01*
X120069750Y-123821581D01*
X120048926Y-123826797D01*
X120027691Y-123829947D01*
X120006250Y-123831000D01*
X119493750Y-123831000D01*
X119472309Y-123829947D01*
X119451074Y-123826797D01*
X119430250Y-123821581D01*
X119410038Y-123814349D01*
X119390632Y-123805170D01*
X119372219Y-123794134D01*
X119354976Y-123781346D01*
X119339070Y-123766930D01*
X119324654Y-123751024D01*
X119311866Y-123733781D01*
X119300830Y-123715368D01*
X119291651Y-123695962D01*
X119284419Y-123675750D01*
X119279203Y-123654926D01*
X119276053Y-123633691D01*
X119275000Y-123612250D01*
X119275000Y-123174750D01*
X119276053Y-123153309D01*
X119279203Y-123132074D01*
X119284419Y-123111250D01*
X119291651Y-123091038D01*
X119300830Y-123071632D01*
X119311866Y-123053219D01*
X119324654Y-123035976D01*
X119339070Y-123020070D01*
X119354976Y-123005654D01*
X119372219Y-122992866D01*
X119390632Y-122981830D01*
X119410038Y-122972651D01*
X119430250Y-122965419D01*
X119451074Y-122960203D01*
X119472309Y-122957053D01*
X119493750Y-122956000D01*
X120006250Y-122956000D01*
X120027691Y-122957053D01*
X120027691Y-122957053D01*
G37*
D18*
X119750000Y-123393500D03*
D17*
G36*
X120027691Y-121382053D02*
G01*
X120048926Y-121385203D01*
X120069750Y-121390419D01*
X120089962Y-121397651D01*
X120109368Y-121406830D01*
X120127781Y-121417866D01*
X120145024Y-121430654D01*
X120160930Y-121445070D01*
X120175346Y-121460976D01*
X120188134Y-121478219D01*
X120199170Y-121496632D01*
X120208349Y-121516038D01*
X120215581Y-121536250D01*
X120220797Y-121557074D01*
X120223947Y-121578309D01*
X120225000Y-121599750D01*
X120225000Y-122037250D01*
X120223947Y-122058691D01*
X120220797Y-122079926D01*
X120215581Y-122100750D01*
X120208349Y-122120962D01*
X120199170Y-122140368D01*
X120188134Y-122158781D01*
X120175346Y-122176024D01*
X120160930Y-122191930D01*
X120145024Y-122206346D01*
X120127781Y-122219134D01*
X120109368Y-122230170D01*
X120089962Y-122239349D01*
X120069750Y-122246581D01*
X120048926Y-122251797D01*
X120027691Y-122254947D01*
X120006250Y-122256000D01*
X119493750Y-122256000D01*
X119472309Y-122254947D01*
X119451074Y-122251797D01*
X119430250Y-122246581D01*
X119410038Y-122239349D01*
X119390632Y-122230170D01*
X119372219Y-122219134D01*
X119354976Y-122206346D01*
X119339070Y-122191930D01*
X119324654Y-122176024D01*
X119311866Y-122158781D01*
X119300830Y-122140368D01*
X119291651Y-122120962D01*
X119284419Y-122100750D01*
X119279203Y-122079926D01*
X119276053Y-122058691D01*
X119275000Y-122037250D01*
X119275000Y-121599750D01*
X119276053Y-121578309D01*
X119279203Y-121557074D01*
X119284419Y-121536250D01*
X119291651Y-121516038D01*
X119300830Y-121496632D01*
X119311866Y-121478219D01*
X119324654Y-121460976D01*
X119339070Y-121445070D01*
X119354976Y-121430654D01*
X119372219Y-121417866D01*
X119390632Y-121406830D01*
X119410038Y-121397651D01*
X119430250Y-121390419D01*
X119451074Y-121385203D01*
X119472309Y-121382053D01*
X119493750Y-121381000D01*
X120006250Y-121381000D01*
X120027691Y-121382053D01*
X120027691Y-121382053D01*
G37*
D18*
X119750000Y-121818500D03*
D17*
G36*
X128967691Y-128990053D02*
G01*
X128988926Y-128993203D01*
X129009750Y-128998419D01*
X129029962Y-129005651D01*
X129049368Y-129014830D01*
X129067781Y-129025866D01*
X129085024Y-129038654D01*
X129100930Y-129053070D01*
X129115346Y-129068976D01*
X129128134Y-129086219D01*
X129139170Y-129104632D01*
X129148349Y-129124038D01*
X129155581Y-129144250D01*
X129160797Y-129165074D01*
X129163947Y-129186309D01*
X129165000Y-129207750D01*
X129165000Y-129720250D01*
X129163947Y-129741691D01*
X129160797Y-129762926D01*
X129155581Y-129783750D01*
X129148349Y-129803962D01*
X129139170Y-129823368D01*
X129128134Y-129841781D01*
X129115346Y-129859024D01*
X129100930Y-129874930D01*
X129085024Y-129889346D01*
X129067781Y-129902134D01*
X129049368Y-129913170D01*
X129029962Y-129922349D01*
X129009750Y-129929581D01*
X128988926Y-129934797D01*
X128967691Y-129937947D01*
X128946250Y-129939000D01*
X128508750Y-129939000D01*
X128487309Y-129937947D01*
X128466074Y-129934797D01*
X128445250Y-129929581D01*
X128425038Y-129922349D01*
X128405632Y-129913170D01*
X128387219Y-129902134D01*
X128369976Y-129889346D01*
X128354070Y-129874930D01*
X128339654Y-129859024D01*
X128326866Y-129841781D01*
X128315830Y-129823368D01*
X128306651Y-129803962D01*
X128299419Y-129783750D01*
X128294203Y-129762926D01*
X128291053Y-129741691D01*
X128290000Y-129720250D01*
X128290000Y-129207750D01*
X128291053Y-129186309D01*
X128294203Y-129165074D01*
X128299419Y-129144250D01*
X128306651Y-129124038D01*
X128315830Y-129104632D01*
X128326866Y-129086219D01*
X128339654Y-129068976D01*
X128354070Y-129053070D01*
X128369976Y-129038654D01*
X128387219Y-129025866D01*
X128405632Y-129014830D01*
X128425038Y-129005651D01*
X128445250Y-128998419D01*
X128466074Y-128993203D01*
X128487309Y-128990053D01*
X128508750Y-128989000D01*
X128946250Y-128989000D01*
X128967691Y-128990053D01*
X128967691Y-128990053D01*
G37*
D18*
X128727500Y-129464000D03*
D17*
G36*
X127392691Y-128990053D02*
G01*
X127413926Y-128993203D01*
X127434750Y-128998419D01*
X127454962Y-129005651D01*
X127474368Y-129014830D01*
X127492781Y-129025866D01*
X127510024Y-129038654D01*
X127525930Y-129053070D01*
X127540346Y-129068976D01*
X127553134Y-129086219D01*
X127564170Y-129104632D01*
X127573349Y-129124038D01*
X127580581Y-129144250D01*
X127585797Y-129165074D01*
X127588947Y-129186309D01*
X127590000Y-129207750D01*
X127590000Y-129720250D01*
X127588947Y-129741691D01*
X127585797Y-129762926D01*
X127580581Y-129783750D01*
X127573349Y-129803962D01*
X127564170Y-129823368D01*
X127553134Y-129841781D01*
X127540346Y-129859024D01*
X127525930Y-129874930D01*
X127510024Y-129889346D01*
X127492781Y-129902134D01*
X127474368Y-129913170D01*
X127454962Y-129922349D01*
X127434750Y-129929581D01*
X127413926Y-129934797D01*
X127392691Y-129937947D01*
X127371250Y-129939000D01*
X126933750Y-129939000D01*
X126912309Y-129937947D01*
X126891074Y-129934797D01*
X126870250Y-129929581D01*
X126850038Y-129922349D01*
X126830632Y-129913170D01*
X126812219Y-129902134D01*
X126794976Y-129889346D01*
X126779070Y-129874930D01*
X126764654Y-129859024D01*
X126751866Y-129841781D01*
X126740830Y-129823368D01*
X126731651Y-129803962D01*
X126724419Y-129783750D01*
X126719203Y-129762926D01*
X126716053Y-129741691D01*
X126715000Y-129720250D01*
X126715000Y-129207750D01*
X126716053Y-129186309D01*
X126719203Y-129165074D01*
X126724419Y-129144250D01*
X126731651Y-129124038D01*
X126740830Y-129104632D01*
X126751866Y-129086219D01*
X126764654Y-129068976D01*
X126779070Y-129053070D01*
X126794976Y-129038654D01*
X126812219Y-129025866D01*
X126830632Y-129014830D01*
X126850038Y-129005651D01*
X126870250Y-128998419D01*
X126891074Y-128993203D01*
X126912309Y-128990053D01*
X126933750Y-128989000D01*
X127371250Y-128989000D01*
X127392691Y-128990053D01*
X127392691Y-128990053D01*
G37*
D18*
X127152500Y-129464000D03*
D17*
G36*
X117549691Y-127275053D02*
G01*
X117570926Y-127278203D01*
X117591750Y-127283419D01*
X117611962Y-127290651D01*
X117631368Y-127299830D01*
X117649781Y-127310866D01*
X117667024Y-127323654D01*
X117682930Y-127338070D01*
X117697346Y-127353976D01*
X117710134Y-127371219D01*
X117721170Y-127389632D01*
X117730349Y-127409038D01*
X117737581Y-127429250D01*
X117742797Y-127450074D01*
X117745947Y-127471309D01*
X117747000Y-127492750D01*
X117747000Y-127930250D01*
X117745947Y-127951691D01*
X117742797Y-127972926D01*
X117737581Y-127993750D01*
X117730349Y-128013962D01*
X117721170Y-128033368D01*
X117710134Y-128051781D01*
X117697346Y-128069024D01*
X117682930Y-128084930D01*
X117667024Y-128099346D01*
X117649781Y-128112134D01*
X117631368Y-128123170D01*
X117611962Y-128132349D01*
X117591750Y-128139581D01*
X117570926Y-128144797D01*
X117549691Y-128147947D01*
X117528250Y-128149000D01*
X117015750Y-128149000D01*
X116994309Y-128147947D01*
X116973074Y-128144797D01*
X116952250Y-128139581D01*
X116932038Y-128132349D01*
X116912632Y-128123170D01*
X116894219Y-128112134D01*
X116876976Y-128099346D01*
X116861070Y-128084930D01*
X116846654Y-128069024D01*
X116833866Y-128051781D01*
X116822830Y-128033368D01*
X116813651Y-128013962D01*
X116806419Y-127993750D01*
X116801203Y-127972926D01*
X116798053Y-127951691D01*
X116797000Y-127930250D01*
X116797000Y-127492750D01*
X116798053Y-127471309D01*
X116801203Y-127450074D01*
X116806419Y-127429250D01*
X116813651Y-127409038D01*
X116822830Y-127389632D01*
X116833866Y-127371219D01*
X116846654Y-127353976D01*
X116861070Y-127338070D01*
X116876976Y-127323654D01*
X116894219Y-127310866D01*
X116912632Y-127299830D01*
X116932038Y-127290651D01*
X116952250Y-127283419D01*
X116973074Y-127278203D01*
X116994309Y-127275053D01*
X117015750Y-127274000D01*
X117528250Y-127274000D01*
X117549691Y-127275053D01*
X117549691Y-127275053D01*
G37*
D18*
X117272000Y-127711500D03*
D17*
G36*
X117549691Y-125700053D02*
G01*
X117570926Y-125703203D01*
X117591750Y-125708419D01*
X117611962Y-125715651D01*
X117631368Y-125724830D01*
X117649781Y-125735866D01*
X117667024Y-125748654D01*
X117682930Y-125763070D01*
X117697346Y-125778976D01*
X117710134Y-125796219D01*
X117721170Y-125814632D01*
X117730349Y-125834038D01*
X117737581Y-125854250D01*
X117742797Y-125875074D01*
X117745947Y-125896309D01*
X117747000Y-125917750D01*
X117747000Y-126355250D01*
X117745947Y-126376691D01*
X117742797Y-126397926D01*
X117737581Y-126418750D01*
X117730349Y-126438962D01*
X117721170Y-126458368D01*
X117710134Y-126476781D01*
X117697346Y-126494024D01*
X117682930Y-126509930D01*
X117667024Y-126524346D01*
X117649781Y-126537134D01*
X117631368Y-126548170D01*
X117611962Y-126557349D01*
X117591750Y-126564581D01*
X117570926Y-126569797D01*
X117549691Y-126572947D01*
X117528250Y-126574000D01*
X117015750Y-126574000D01*
X116994309Y-126572947D01*
X116973074Y-126569797D01*
X116952250Y-126564581D01*
X116932038Y-126557349D01*
X116912632Y-126548170D01*
X116894219Y-126537134D01*
X116876976Y-126524346D01*
X116861070Y-126509930D01*
X116846654Y-126494024D01*
X116833866Y-126476781D01*
X116822830Y-126458368D01*
X116813651Y-126438962D01*
X116806419Y-126418750D01*
X116801203Y-126397926D01*
X116798053Y-126376691D01*
X116797000Y-126355250D01*
X116797000Y-125917750D01*
X116798053Y-125896309D01*
X116801203Y-125875074D01*
X116806419Y-125854250D01*
X116813651Y-125834038D01*
X116822830Y-125814632D01*
X116833866Y-125796219D01*
X116846654Y-125778976D01*
X116861070Y-125763070D01*
X116876976Y-125748654D01*
X116894219Y-125735866D01*
X116912632Y-125724830D01*
X116932038Y-125715651D01*
X116952250Y-125708419D01*
X116973074Y-125703203D01*
X116994309Y-125700053D01*
X117015750Y-125699000D01*
X117528250Y-125699000D01*
X117549691Y-125700053D01*
X117549691Y-125700053D01*
G37*
D18*
X117272000Y-126136500D03*
D17*
G36*
X119581691Y-127253053D02*
G01*
X119602926Y-127256203D01*
X119623750Y-127261419D01*
X119643962Y-127268651D01*
X119663368Y-127277830D01*
X119681781Y-127288866D01*
X119699024Y-127301654D01*
X119714930Y-127316070D01*
X119729346Y-127331976D01*
X119742134Y-127349219D01*
X119753170Y-127367632D01*
X119762349Y-127387038D01*
X119769581Y-127407250D01*
X119774797Y-127428074D01*
X119777947Y-127449309D01*
X119779000Y-127470750D01*
X119779000Y-127908250D01*
X119777947Y-127929691D01*
X119774797Y-127950926D01*
X119769581Y-127971750D01*
X119762349Y-127991962D01*
X119753170Y-128011368D01*
X119742134Y-128029781D01*
X119729346Y-128047024D01*
X119714930Y-128062930D01*
X119699024Y-128077346D01*
X119681781Y-128090134D01*
X119663368Y-128101170D01*
X119643962Y-128110349D01*
X119623750Y-128117581D01*
X119602926Y-128122797D01*
X119581691Y-128125947D01*
X119560250Y-128127000D01*
X119047750Y-128127000D01*
X119026309Y-128125947D01*
X119005074Y-128122797D01*
X118984250Y-128117581D01*
X118964038Y-128110349D01*
X118944632Y-128101170D01*
X118926219Y-128090134D01*
X118908976Y-128077346D01*
X118893070Y-128062930D01*
X118878654Y-128047024D01*
X118865866Y-128029781D01*
X118854830Y-128011368D01*
X118845651Y-127991962D01*
X118838419Y-127971750D01*
X118833203Y-127950926D01*
X118830053Y-127929691D01*
X118829000Y-127908250D01*
X118829000Y-127470750D01*
X118830053Y-127449309D01*
X118833203Y-127428074D01*
X118838419Y-127407250D01*
X118845651Y-127387038D01*
X118854830Y-127367632D01*
X118865866Y-127349219D01*
X118878654Y-127331976D01*
X118893070Y-127316070D01*
X118908976Y-127301654D01*
X118926219Y-127288866D01*
X118944632Y-127277830D01*
X118964038Y-127268651D01*
X118984250Y-127261419D01*
X119005074Y-127256203D01*
X119026309Y-127253053D01*
X119047750Y-127252000D01*
X119560250Y-127252000D01*
X119581691Y-127253053D01*
X119581691Y-127253053D01*
G37*
D18*
X119304000Y-127689500D03*
D17*
G36*
X119581691Y-125678053D02*
G01*
X119602926Y-125681203D01*
X119623750Y-125686419D01*
X119643962Y-125693651D01*
X119663368Y-125702830D01*
X119681781Y-125713866D01*
X119699024Y-125726654D01*
X119714930Y-125741070D01*
X119729346Y-125756976D01*
X119742134Y-125774219D01*
X119753170Y-125792632D01*
X119762349Y-125812038D01*
X119769581Y-125832250D01*
X119774797Y-125853074D01*
X119777947Y-125874309D01*
X119779000Y-125895750D01*
X119779000Y-126333250D01*
X119777947Y-126354691D01*
X119774797Y-126375926D01*
X119769581Y-126396750D01*
X119762349Y-126416962D01*
X119753170Y-126436368D01*
X119742134Y-126454781D01*
X119729346Y-126472024D01*
X119714930Y-126487930D01*
X119699024Y-126502346D01*
X119681781Y-126515134D01*
X119663368Y-126526170D01*
X119643962Y-126535349D01*
X119623750Y-126542581D01*
X119602926Y-126547797D01*
X119581691Y-126550947D01*
X119560250Y-126552000D01*
X119047750Y-126552000D01*
X119026309Y-126550947D01*
X119005074Y-126547797D01*
X118984250Y-126542581D01*
X118964038Y-126535349D01*
X118944632Y-126526170D01*
X118926219Y-126515134D01*
X118908976Y-126502346D01*
X118893070Y-126487930D01*
X118878654Y-126472024D01*
X118865866Y-126454781D01*
X118854830Y-126436368D01*
X118845651Y-126416962D01*
X118838419Y-126396750D01*
X118833203Y-126375926D01*
X118830053Y-126354691D01*
X118829000Y-126333250D01*
X118829000Y-125895750D01*
X118830053Y-125874309D01*
X118833203Y-125853074D01*
X118838419Y-125832250D01*
X118845651Y-125812038D01*
X118854830Y-125792632D01*
X118865866Y-125774219D01*
X118878654Y-125756976D01*
X118893070Y-125741070D01*
X118908976Y-125726654D01*
X118926219Y-125713866D01*
X118944632Y-125702830D01*
X118964038Y-125693651D01*
X118984250Y-125686419D01*
X119005074Y-125681203D01*
X119026309Y-125678053D01*
X119047750Y-125677000D01*
X119560250Y-125677000D01*
X119581691Y-125678053D01*
X119581691Y-125678053D01*
G37*
D18*
X119304000Y-126114500D03*
D17*
G36*
X115227504Y-112105204D02*
G01*
X115251773Y-112108804D01*
X115275571Y-112114765D01*
X115298671Y-112123030D01*
X115320849Y-112133520D01*
X115341893Y-112146133D01*
X115361598Y-112160747D01*
X115379777Y-112177223D01*
X115396253Y-112195402D01*
X115410867Y-112215107D01*
X115423480Y-112236151D01*
X115433970Y-112258329D01*
X115442235Y-112281429D01*
X115448196Y-112305227D01*
X115451796Y-112329496D01*
X115453000Y-112354000D01*
X115453000Y-113554000D01*
X115451796Y-113578504D01*
X115448196Y-113602773D01*
X115442235Y-113626571D01*
X115433970Y-113649671D01*
X115423480Y-113671849D01*
X115410867Y-113692893D01*
X115396253Y-113712598D01*
X115379777Y-113730777D01*
X115361598Y-113747253D01*
X115341893Y-113761867D01*
X115320849Y-113774480D01*
X115298671Y-113784970D01*
X115275571Y-113793235D01*
X115251773Y-113799196D01*
X115227504Y-113802796D01*
X115203000Y-113804000D01*
X113753000Y-113804000D01*
X113728496Y-113802796D01*
X113704227Y-113799196D01*
X113680429Y-113793235D01*
X113657329Y-113784970D01*
X113635151Y-113774480D01*
X113614107Y-113761867D01*
X113594402Y-113747253D01*
X113576223Y-113730777D01*
X113559747Y-113712598D01*
X113545133Y-113692893D01*
X113532520Y-113671849D01*
X113522030Y-113649671D01*
X113513765Y-113626571D01*
X113507804Y-113602773D01*
X113504204Y-113578504D01*
X113503000Y-113554000D01*
X113503000Y-112354000D01*
X113504204Y-112329496D01*
X113507804Y-112305227D01*
X113513765Y-112281429D01*
X113522030Y-112258329D01*
X113532520Y-112236151D01*
X113545133Y-112215107D01*
X113559747Y-112195402D01*
X113576223Y-112177223D01*
X113594402Y-112160747D01*
X113614107Y-112146133D01*
X113635151Y-112133520D01*
X113657329Y-112123030D01*
X113680429Y-112114765D01*
X113704227Y-112108804D01*
X113728496Y-112105204D01*
X113753000Y-112104000D01*
X115203000Y-112104000D01*
X115227504Y-112105204D01*
X115227504Y-112105204D01*
G37*
D19*
X114478000Y-112954000D03*
D20*
X114478000Y-110454000D03*
X114478000Y-107954000D03*
X114478000Y-105454000D03*
X114478000Y-102954000D03*
X134500000Y-102954000D03*
X134500000Y-105454000D03*
X134500000Y-107954000D03*
X134500000Y-110454000D03*
D17*
G36*
X135249504Y-112105204D02*
G01*
X135273773Y-112108804D01*
X135297571Y-112114765D01*
X135320671Y-112123030D01*
X135342849Y-112133520D01*
X135363893Y-112146133D01*
X135383598Y-112160747D01*
X135401777Y-112177223D01*
X135418253Y-112195402D01*
X135432867Y-112215107D01*
X135445480Y-112236151D01*
X135455970Y-112258329D01*
X135464235Y-112281429D01*
X135470196Y-112305227D01*
X135473796Y-112329496D01*
X135475000Y-112354000D01*
X135475000Y-113554000D01*
X135473796Y-113578504D01*
X135470196Y-113602773D01*
X135464235Y-113626571D01*
X135455970Y-113649671D01*
X135445480Y-113671849D01*
X135432867Y-113692893D01*
X135418253Y-113712598D01*
X135401777Y-113730777D01*
X135383598Y-113747253D01*
X135363893Y-113761867D01*
X135342849Y-113774480D01*
X135320671Y-113784970D01*
X135297571Y-113793235D01*
X135273773Y-113799196D01*
X135249504Y-113802796D01*
X135225000Y-113804000D01*
X133775000Y-113804000D01*
X133750496Y-113802796D01*
X133726227Y-113799196D01*
X133702429Y-113793235D01*
X133679329Y-113784970D01*
X133657151Y-113774480D01*
X133636107Y-113761867D01*
X133616402Y-113747253D01*
X133598223Y-113730777D01*
X133581747Y-113712598D01*
X133567133Y-113692893D01*
X133554520Y-113671849D01*
X133544030Y-113649671D01*
X133535765Y-113626571D01*
X133529804Y-113602773D01*
X133526204Y-113578504D01*
X133525000Y-113554000D01*
X133525000Y-112354000D01*
X133526204Y-112329496D01*
X133529804Y-112305227D01*
X133535765Y-112281429D01*
X133544030Y-112258329D01*
X133554520Y-112236151D01*
X133567133Y-112215107D01*
X133581747Y-112195402D01*
X133598223Y-112177223D01*
X133616402Y-112160747D01*
X133636107Y-112146133D01*
X133657151Y-112133520D01*
X133679329Y-112123030D01*
X133702429Y-112114765D01*
X133726227Y-112108804D01*
X133750496Y-112105204D01*
X133775000Y-112104000D01*
X135225000Y-112104000D01*
X135249504Y-112105204D01*
X135249504Y-112105204D01*
G37*
D19*
X134500000Y-112954000D03*
D17*
G36*
X128916691Y-115274053D02*
G01*
X128937926Y-115277203D01*
X128958750Y-115282419D01*
X128978962Y-115289651D01*
X128998368Y-115298830D01*
X129016781Y-115309866D01*
X129034024Y-115322654D01*
X129049930Y-115337070D01*
X129064346Y-115352976D01*
X129077134Y-115370219D01*
X129088170Y-115388632D01*
X129097349Y-115408038D01*
X129104581Y-115428250D01*
X129109797Y-115449074D01*
X129112947Y-115470309D01*
X129114000Y-115491750D01*
X129114000Y-116004250D01*
X129112947Y-116025691D01*
X129109797Y-116046926D01*
X129104581Y-116067750D01*
X129097349Y-116087962D01*
X129088170Y-116107368D01*
X129077134Y-116125781D01*
X129064346Y-116143024D01*
X129049930Y-116158930D01*
X129034024Y-116173346D01*
X129016781Y-116186134D01*
X128998368Y-116197170D01*
X128978962Y-116206349D01*
X128958750Y-116213581D01*
X128937926Y-116218797D01*
X128916691Y-116221947D01*
X128895250Y-116223000D01*
X128457750Y-116223000D01*
X128436309Y-116221947D01*
X128415074Y-116218797D01*
X128394250Y-116213581D01*
X128374038Y-116206349D01*
X128354632Y-116197170D01*
X128336219Y-116186134D01*
X128318976Y-116173346D01*
X128303070Y-116158930D01*
X128288654Y-116143024D01*
X128275866Y-116125781D01*
X128264830Y-116107368D01*
X128255651Y-116087962D01*
X128248419Y-116067750D01*
X128243203Y-116046926D01*
X128240053Y-116025691D01*
X128239000Y-116004250D01*
X128239000Y-115491750D01*
X128240053Y-115470309D01*
X128243203Y-115449074D01*
X128248419Y-115428250D01*
X128255651Y-115408038D01*
X128264830Y-115388632D01*
X128275866Y-115370219D01*
X128288654Y-115352976D01*
X128303070Y-115337070D01*
X128318976Y-115322654D01*
X128336219Y-115309866D01*
X128354632Y-115298830D01*
X128374038Y-115289651D01*
X128394250Y-115282419D01*
X128415074Y-115277203D01*
X128436309Y-115274053D01*
X128457750Y-115273000D01*
X128895250Y-115273000D01*
X128916691Y-115274053D01*
X128916691Y-115274053D01*
G37*
D18*
X128676500Y-115748000D03*
D17*
G36*
X130491691Y-115274053D02*
G01*
X130512926Y-115277203D01*
X130533750Y-115282419D01*
X130553962Y-115289651D01*
X130573368Y-115298830D01*
X130591781Y-115309866D01*
X130609024Y-115322654D01*
X130624930Y-115337070D01*
X130639346Y-115352976D01*
X130652134Y-115370219D01*
X130663170Y-115388632D01*
X130672349Y-115408038D01*
X130679581Y-115428250D01*
X130684797Y-115449074D01*
X130687947Y-115470309D01*
X130689000Y-115491750D01*
X130689000Y-116004250D01*
X130687947Y-116025691D01*
X130684797Y-116046926D01*
X130679581Y-116067750D01*
X130672349Y-116087962D01*
X130663170Y-116107368D01*
X130652134Y-116125781D01*
X130639346Y-116143024D01*
X130624930Y-116158930D01*
X130609024Y-116173346D01*
X130591781Y-116186134D01*
X130573368Y-116197170D01*
X130553962Y-116206349D01*
X130533750Y-116213581D01*
X130512926Y-116218797D01*
X130491691Y-116221947D01*
X130470250Y-116223000D01*
X130032750Y-116223000D01*
X130011309Y-116221947D01*
X129990074Y-116218797D01*
X129969250Y-116213581D01*
X129949038Y-116206349D01*
X129929632Y-116197170D01*
X129911219Y-116186134D01*
X129893976Y-116173346D01*
X129878070Y-116158930D01*
X129863654Y-116143024D01*
X129850866Y-116125781D01*
X129839830Y-116107368D01*
X129830651Y-116087962D01*
X129823419Y-116067750D01*
X129818203Y-116046926D01*
X129815053Y-116025691D01*
X129814000Y-116004250D01*
X129814000Y-115491750D01*
X129815053Y-115470309D01*
X129818203Y-115449074D01*
X129823419Y-115428250D01*
X129830651Y-115408038D01*
X129839830Y-115388632D01*
X129850866Y-115370219D01*
X129863654Y-115352976D01*
X129878070Y-115337070D01*
X129893976Y-115322654D01*
X129911219Y-115309866D01*
X129929632Y-115298830D01*
X129949038Y-115289651D01*
X129969250Y-115282419D01*
X129990074Y-115277203D01*
X130011309Y-115274053D01*
X130032750Y-115273000D01*
X130470250Y-115273000D01*
X130491691Y-115274053D01*
X130491691Y-115274053D01*
G37*
D18*
X130251500Y-115748000D03*
D21*
X103048000Y-121460000D03*
D22*
X103048000Y-124000000D03*
D21*
X103048000Y-118920000D03*
X103048000Y-116380000D03*
D23*
X108128000Y-110668000D03*
D24*
X105588000Y-110668000D03*
X103048000Y-110668000D03*
X141402000Y-110668000D03*
X143942000Y-110668000D03*
D23*
X146482000Y-110668000D03*
D21*
X145974000Y-121460000D03*
D22*
X145974000Y-124000000D03*
D21*
X145974000Y-118920000D03*
X145974000Y-116380000D03*
D25*
X111938000Y-121336000D03*
X110160000Y-123622000D03*
X114224000Y-123622000D03*
X114224000Y-119050000D03*
X110160000Y-119050000D03*
D26*
X103302000Y-129972000D03*
X146736000Y-129972000D03*
X103302000Y-103302000D03*
X146736000Y-103302000D03*
D25*
X118567500Y-123393500D03*
X124892000Y-105334000D03*
X121844000Y-112954000D03*
X127432000Y-114986000D03*
X128416000Y-122892000D03*
X112192000Y-128448000D03*
X108890000Y-116256000D03*
X106096000Y-113462000D03*
X122352000Y-115240000D03*
X125908000Y-115240000D03*
X137592000Y-114478000D03*
X142418000Y-112954000D03*
X114732000Y-125400000D03*
X123005999Y-125000001D03*
X119195999Y-125000001D03*
X128302001Y-125000001D03*
X132512000Y-126416000D03*
X124130000Y-129464000D03*
X127686000Y-125908000D03*
X130226000Y-127432000D03*
X133528000Y-127940000D03*
X128448000Y-121336000D03*
X131496000Y-121336000D03*
X130734000Y-118796000D03*
X126924000Y-121082000D03*
X123876000Y-110922000D03*
X125908000Y-110922000D03*
X123876000Y-117272000D03*
X126162000Y-117272000D03*
D27*
X120110500Y-123692000D02*
X121582000Y-123692000D01*
X119812000Y-123393500D02*
X120110500Y-123692000D01*
X112192000Y-128981500D02*
X111455500Y-129718000D01*
X112192000Y-128981500D02*
X112928500Y-129718000D01*
X129700000Y-114724500D02*
X128676500Y-115748000D01*
X129700000Y-113513000D02*
X129700000Y-114724500D01*
X119812000Y-123393500D02*
X118567500Y-123393500D01*
X118567500Y-123393500D02*
X118567500Y-123393500D01*
X129025000Y-102083000D02*
X129700000Y-102083000D01*
X125774000Y-105334000D02*
X129025000Y-102083000D01*
X124226000Y-105334000D02*
X124892000Y-105334000D01*
X120975000Y-102083000D02*
X124226000Y-105334000D01*
X120300000Y-102083000D02*
X120975000Y-102083000D01*
X124892000Y-105334000D02*
X125774000Y-105334000D01*
X120300000Y-112243000D02*
X120879000Y-112243000D01*
X121539000Y-113513000D02*
X120300000Y-113513000D01*
X121844000Y-113208000D02*
X121539000Y-113513000D01*
X121844000Y-112562000D02*
X121844000Y-112954000D01*
X121525000Y-112243000D02*
X121844000Y-112562000D01*
X120300000Y-112243000D02*
X121525000Y-112243000D01*
X121844000Y-112954000D02*
X121844000Y-113208000D01*
X128214888Y-115286388D02*
X127732388Y-115286388D01*
X128676500Y-115748000D02*
X128214888Y-115286388D01*
X127732388Y-115286388D02*
X127432000Y-114986000D01*
X127432000Y-114986000D02*
X127432000Y-114986000D01*
X130082000Y-122892000D02*
X128416000Y-122892000D01*
X128416000Y-122892000D02*
X128416000Y-122892000D01*
X112192000Y-128448000D02*
X112192000Y-128981500D01*
X129025000Y-104623000D02*
X128399999Y-105248001D01*
X129700000Y-104623000D02*
X129025000Y-104623000D01*
X120338500Y-121292000D02*
X119812000Y-121818500D01*
X121582000Y-121292000D02*
X120338500Y-121292000D01*
X114472000Y-129686500D02*
X114503500Y-129718000D01*
X114472000Y-127568000D02*
X114472000Y-129686500D01*
X119282000Y-127711500D02*
X119304000Y-127689500D01*
X129032000Y-123692000D02*
X130082000Y-123692000D01*
X125032000Y-123692000D02*
X129032000Y-123692000D01*
X122632000Y-121292000D02*
X125032000Y-123692000D01*
X121582000Y-121292000D02*
X122632000Y-121292000D01*
D28*
X119721500Y-121818500D02*
X119812000Y-121818500D01*
X114472000Y-127568000D02*
X114472000Y-127068000D01*
X114472000Y-127068000D02*
X115944000Y-125596000D01*
X108890000Y-116256000D02*
X108890000Y-116256000D01*
D27*
X115976500Y-121818500D02*
X115944000Y-121786000D01*
X119812000Y-121818500D02*
X115976500Y-121818500D01*
D28*
X115944000Y-125596000D02*
X115944000Y-121786000D01*
X115944000Y-121786000D02*
X115944000Y-118346000D01*
X115944000Y-118346000D02*
X119050000Y-115240000D01*
X119050000Y-115240000D02*
X122352000Y-115240000D01*
D27*
X113854000Y-116256000D02*
X108890000Y-116256000D01*
X115944000Y-118346000D02*
X113854000Y-116256000D01*
D28*
X122352000Y-115240000D02*
X122352000Y-115240000D01*
D27*
X125908000Y-115240000D02*
X125908000Y-113970000D01*
X127635000Y-112243000D02*
X129700000Y-112243000D01*
X125908000Y-113970000D02*
X127635000Y-112243000D01*
X128399999Y-110263001D02*
X128399999Y-105248001D01*
X128464999Y-110328001D02*
X128399999Y-110263001D01*
X130915003Y-110328001D02*
X128464999Y-110328001D01*
X131000001Y-110412999D02*
X130915003Y-110328001D01*
X131000001Y-111617999D02*
X131000001Y-110412999D01*
X130375000Y-112243000D02*
X131000001Y-111617999D01*
X129700000Y-112243000D02*
X130375000Y-112243000D01*
D28*
X125908000Y-115240000D02*
X127686000Y-117018000D01*
X130988000Y-117018000D02*
X132004000Y-116002000D01*
X132004000Y-116002000D02*
X132766000Y-115240000D01*
X132766000Y-115240000D02*
X133528000Y-114478000D01*
X133528000Y-114478000D02*
X137592000Y-114478000D01*
X137592000Y-114478000D02*
X137592000Y-114478000D01*
D27*
X130251500Y-116992500D02*
X130226000Y-117018000D01*
X130251500Y-115748000D02*
X130251500Y-116992500D01*
D28*
X130226000Y-117018000D02*
X130988000Y-117018000D01*
X127686000Y-117018000D02*
X130226000Y-117018000D01*
D27*
X131132000Y-123692000D02*
X130082000Y-123692000D01*
X131207001Y-123767001D02*
X131132000Y-123692000D01*
X131207001Y-127720999D02*
X131207001Y-123767001D01*
X129464000Y-129464000D02*
X131207001Y-127720999D01*
X128727500Y-129464000D02*
X129464000Y-129464000D01*
X116731500Y-125596000D02*
X117272000Y-126136500D01*
X115944000Y-125596000D02*
X116731500Y-125596000D01*
X117294000Y-126114500D02*
X117272000Y-126136500D01*
X118825000Y-127689500D02*
X119304000Y-127689500D01*
X117272000Y-126136500D02*
X118825000Y-127689500D01*
X106096000Y-112700000D02*
X108128000Y-110668000D01*
X106096000Y-113462000D02*
X106096000Y-112700000D01*
X145208000Y-112954000D02*
X146482000Y-111680000D01*
X146482000Y-111680000D02*
X146482000Y-110668000D01*
X142418000Y-112954000D02*
X145208000Y-112954000D01*
X109912000Y-129686500D02*
X109880500Y-129718000D01*
X109912000Y-127568000D02*
X109912000Y-129686500D01*
D29*
X112302990Y-104604859D02*
X113953849Y-102954000D01*
X112302990Y-110220010D02*
X112302990Y-104604859D01*
X106023000Y-116500000D02*
X112302990Y-110220010D01*
X113953849Y-102954000D02*
X114478000Y-102954000D01*
X103048000Y-116500000D02*
X106023000Y-116500000D01*
X135024151Y-102954000D02*
X136830000Y-104759849D01*
X134500000Y-102954000D02*
X135024151Y-102954000D01*
X136830000Y-104759849D02*
X136830000Y-110668000D01*
X142662000Y-116500000D02*
X145974000Y-116500000D01*
X136830000Y-110668000D02*
X142662000Y-116500000D01*
D27*
X106023000Y-116500000D02*
X106023000Y-116691000D01*
X109062000Y-127568000D02*
X109912000Y-127568000D01*
X104318990Y-122824990D02*
X109062000Y-127568000D01*
X101747990Y-122321990D02*
X102250990Y-122824990D01*
X102250990Y-122824990D02*
X104318990Y-122824990D01*
X101747990Y-117675010D02*
X101747990Y-122321990D01*
X102923000Y-116500000D02*
X101747990Y-117675010D01*
X103048000Y-116500000D02*
X102923000Y-116500000D01*
X103048000Y-121500000D02*
X103173000Y-121500000D01*
X104273000Y-121500000D02*
X108173000Y-125400000D01*
X103048000Y-121500000D02*
X104273000Y-121500000D01*
X108173000Y-125400000D02*
X114732000Y-125400000D01*
X114732000Y-125400000D02*
X114732000Y-125400000D01*
X125432000Y-126492000D02*
X125432000Y-127542000D01*
X123940001Y-125000001D02*
X125432000Y-126492000D01*
X123005999Y-125000001D02*
X123940001Y-125000001D01*
X119195999Y-126006499D02*
X119304000Y-126114500D01*
X119195999Y-125000001D02*
X119195999Y-126006499D01*
X123940001Y-125000001D02*
X128302001Y-125000001D01*
X128302001Y-125000001D02*
X128302001Y-125000001D01*
X141440999Y-125908001D02*
X145849000Y-121500000D01*
X145849000Y-121500000D02*
X145974000Y-121500000D01*
X133019999Y-125908001D02*
X141440999Y-125908001D01*
X132512000Y-126416000D02*
X133019999Y-125908001D01*
X117128500Y-127568000D02*
X117272000Y-127711500D01*
X124632000Y-128592000D02*
X124632000Y-127542000D01*
X126754020Y-130714020D02*
X129612391Y-130714019D01*
X124632000Y-128592000D02*
X126754020Y-130714020D01*
X129612391Y-130714019D02*
X133968400Y-126358010D01*
X143615990Y-126358010D02*
X145974000Y-124000000D01*
X133968400Y-126358010D02*
X143615990Y-126358010D01*
X117690001Y-128667001D02*
X124556999Y-128667001D01*
X109436516Y-130518010D02*
X115838992Y-130518010D01*
X124556999Y-128667001D02*
X124632000Y-128592000D01*
X117272000Y-128956000D02*
X117336501Y-129020501D01*
X117272000Y-127711500D02*
X117272000Y-128956000D01*
X117336501Y-129020501D02*
X117690001Y-128667001D01*
X115838992Y-130518010D02*
X117336501Y-129020501D01*
X103048000Y-124000000D02*
X104857590Y-124000000D01*
X104857590Y-124000000D02*
X108128000Y-127270410D01*
X108128000Y-129209494D02*
X109436516Y-130518010D01*
X108128000Y-127270410D02*
X108128000Y-129209494D01*
X124130000Y-129464000D02*
X124130000Y-129464000D01*
X128632000Y-126492000D02*
X128632000Y-127542000D01*
X128632000Y-126288315D02*
X128632000Y-126492000D01*
X128251685Y-125908000D02*
X128632000Y-126288315D01*
X127686000Y-125908000D02*
X128251685Y-125908000D01*
X101297981Y-116376172D02*
X103048000Y-114626153D01*
X101297981Y-124388171D02*
X101297981Y-116376172D01*
X103457106Y-125175010D02*
X102084820Y-125175010D01*
X102084820Y-125175010D02*
X101297981Y-124388171D01*
X109250116Y-130968020D02*
X103457106Y-125175010D01*
X103048000Y-114626153D02*
X103048000Y-110668000D01*
X122625980Y-130968020D02*
X109250116Y-130968020D01*
X124130000Y-129464000D02*
X122625980Y-130968020D01*
X130082000Y-127288000D02*
X130226000Y-127432000D01*
X130082000Y-126092000D02*
X130082000Y-127288000D01*
X145435400Y-125175010D02*
X143802390Y-126808020D01*
X146937180Y-125175010D02*
X145435400Y-125175010D01*
X143802390Y-126808020D02*
X134798000Y-126808020D01*
X134798000Y-126808020D02*
X134659980Y-126808020D01*
X134659980Y-126808020D02*
X133528000Y-127940000D01*
X133528000Y-127940000D02*
X133528000Y-127940000D01*
X147569001Y-109645999D02*
X147569001Y-124543189D01*
X147504001Y-109580999D02*
X147569001Y-109645999D01*
X142489001Y-109580999D02*
X147504001Y-109580999D01*
X141402000Y-110668000D02*
X142489001Y-109580999D01*
X147569001Y-124543189D02*
X147105095Y-125007095D01*
X147105095Y-125007095D02*
X146937180Y-125175010D01*
X147299010Y-124813180D02*
X147105095Y-125007095D01*
X117729000Y-109703000D02*
X114478000Y-112954000D01*
X120300000Y-109703000D02*
X117729000Y-109703000D01*
X114603000Y-110454000D02*
X114478000Y-110454000D01*
X116624000Y-108433000D02*
X114603000Y-110454000D01*
X120300000Y-108433000D02*
X116624000Y-108433000D01*
X115269000Y-107163000D02*
X114478000Y-107954000D01*
X120300000Y-107163000D02*
X115269000Y-107163000D01*
X114917000Y-105893000D02*
X114478000Y-105454000D01*
X120300000Y-105893000D02*
X114917000Y-105893000D01*
X134061000Y-105893000D02*
X134500000Y-105454000D01*
X129700000Y-105893000D02*
X134061000Y-105893000D01*
X133709000Y-107163000D02*
X134500000Y-107954000D01*
X129700000Y-107163000D02*
X133709000Y-107163000D01*
X134375000Y-110454000D02*
X134500000Y-110454000D01*
X132354000Y-108433000D02*
X134375000Y-110454000D01*
X129700000Y-108433000D02*
X132354000Y-108433000D01*
X131249000Y-109703000D02*
X134500000Y-112954000D01*
X129700000Y-109703000D02*
X131249000Y-109703000D01*
X128448000Y-121336000D02*
X128448000Y-121336000D01*
X136950003Y-122765001D02*
X132925001Y-122765001D01*
X138315002Y-124130000D02*
X136950003Y-122765001D01*
X139116000Y-124130000D02*
X138315002Y-124130000D01*
X132925001Y-122765001D02*
X131496000Y-121336000D01*
X131496000Y-121336000D02*
X131496000Y-121336000D01*
X123032000Y-119042000D02*
X123032000Y-120092000D01*
X123032000Y-120092000D02*
X123260000Y-120320000D01*
X123260000Y-120320000D02*
X127432000Y-120320000D01*
X127432000Y-120320000D02*
X128448000Y-121336000D01*
X120300000Y-104623000D02*
X120975000Y-104623000D01*
X122606000Y-106254000D02*
X122606000Y-111430000D01*
X120975000Y-104623000D02*
X122606000Y-106254000D01*
X122606000Y-111430000D02*
X123425990Y-112249990D01*
X123425990Y-112249990D02*
X123425990Y-116256000D01*
X121582000Y-118099990D02*
X121582000Y-120492000D01*
X123425990Y-116256000D02*
X121582000Y-118099990D01*
X122632000Y-120492000D02*
X123222000Y-121082000D01*
X121582000Y-120492000D02*
X122632000Y-120492000D01*
X137751001Y-120225001D02*
X135719001Y-120225001D01*
X139116000Y-121590000D02*
X137751001Y-120225001D01*
X135719001Y-120225001D02*
X134290000Y-118796000D01*
X134290000Y-118796000D02*
X130734000Y-118796000D01*
X130734000Y-118796000D02*
X130734000Y-118796000D01*
X123222000Y-121082000D02*
X126924000Y-121082000D01*
X126924000Y-121082000D02*
X126924000Y-121082000D01*
D28*
X125959000Y-110973000D02*
X125908000Y-110922000D01*
X129700000Y-110973000D02*
X125959000Y-110973000D01*
D27*
X123876000Y-118998000D02*
X123832000Y-119042000D01*
X123876000Y-110922000D02*
X123876000Y-117272000D01*
X123876000Y-117272000D02*
X123876000Y-118998000D01*
X135373919Y-121590000D02*
X136576000Y-121590000D01*
X133675918Y-119891999D02*
X135373919Y-121590000D01*
X130756997Y-119891999D02*
X133675918Y-119891999D01*
X130008999Y-118758997D02*
X130008999Y-119144001D01*
X130008999Y-119144001D02*
X130756997Y-119891999D01*
X129167001Y-117916999D02*
X130008999Y-118758997D01*
X126806999Y-117916999D02*
X129167001Y-117916999D01*
X126162000Y-117272000D02*
X126806999Y-117916999D01*
X126232000Y-128543500D02*
X127152500Y-129464000D01*
X126232000Y-127542000D02*
X126232000Y-128543500D01*
X127152500Y-130039000D02*
X127377510Y-130264010D01*
X127377510Y-130264010D02*
X129425990Y-130264010D01*
X127152500Y-129464000D02*
X127152500Y-130039000D01*
X131657011Y-128032989D02*
X131657011Y-125492989D01*
X129425990Y-130264010D02*
X131657011Y-128032989D01*
X139965999Y-119899999D02*
X139116000Y-119050000D01*
X140291001Y-125240001D02*
X140291001Y-120225001D01*
X140291001Y-120225001D02*
X139965999Y-119899999D01*
X140226001Y-125305001D02*
X140291001Y-125240001D01*
X131844999Y-125305001D02*
X140226001Y-125305001D01*
X131657011Y-125492989D02*
X131844999Y-125305001D01*
X125432000Y-117621990D02*
X125432000Y-119042000D01*
X125082010Y-107295990D02*
X125082010Y-117272000D01*
X129025000Y-103353000D02*
X125082010Y-107295990D01*
X125082010Y-117272000D02*
X125432000Y-117621990D01*
X129700000Y-103353000D02*
X129025000Y-103353000D01*
X120975000Y-103353000D02*
X124632000Y-107010000D01*
X124632000Y-117992000D02*
X124632000Y-119042000D01*
X124632000Y-107010000D02*
X124632000Y-117992000D01*
X120300000Y-103353000D02*
X120975000Y-103353000D01*
M02*
