M48
; DRILL file {KiCad (5.1.0-0)} date Wednesday, May 01, 2019 at 12:35:31 PM
; FORMAT={-:-/ absolute / inch / decimal}
; #@! TF.CreationDate,2019-05-01T12:35:31-05:00
; #@! TF.GenerationSoftware,Kicad,Pcbnew,(5.1.0-0)
FMAT,2
INCH
T1C0.0157
T2C0.0374
T3C0.0394
T4C0.0400
T5C0.0402
T6C0.1260
%
G90
G05
T1
X3.977Y-4.257
X3.977Y-4.327
X3.982Y-4.965
X4.047Y-4.257
X4.047Y-4.327
X4.063Y-4.467
X4.089Y-4.505
X4.117Y-4.257
X4.117Y-4.327
X4.117Y-4.467
X4.131Y-4.677
X4.131Y-4.733
X4.149Y-4.505
X4.179Y-4.467
X4.187Y-4.257
X4.187Y-4.327
X4.191Y-5.208
X4.195Y-4.677
X4.195Y-4.733
X4.195Y-4.797
X4.232Y-5.155
X4.257Y-3.977
X4.257Y-4.047
X4.257Y-4.117
X4.257Y-4.187
X4.257Y-4.257
X4.257Y-4.327
X4.257Y-4.627
X4.257Y-4.677
X4.257Y-4.733
X4.257Y-4.797
X4.257Y-4.857
X4.257Y-5.207
X4.287Y-4.577
X4.292Y-4.011
X4.327Y-3.977
X4.327Y-5.207
X4.347Y-4.527
X4.347Y-4.707
X4.347Y-4.777
X4.347Y-4.847
X4.383Y-4.614
X4.395Y-4.997
X4.395Y-5.047
X4.397Y-3.977
X4.397Y-4.527
X4.397Y-5.207
X4.416Y-4.3
X4.417Y-4.203
X4.417Y-4.707
X4.417Y-4.777
X4.417Y-4.847
X4.443Y-4.997
X4.443Y-5.047
X4.451Y-4.615
X4.467Y-3.977
X4.467Y-4.527
X4.467Y-5.207
X4.487Y-4.707
X4.487Y-4.777
X4.487Y-4.847
X4.517Y-4.937
X4.537Y-3.977
X4.537Y-5.207
X4.551Y-4.537
X4.565Y-4.126
X4.593Y-4.474
X4.607Y-3.977
X4.607Y-5.207
X4.623Y-4.537
X4.623Y-4.607
X4.623Y-4.677
X4.623Y-4.747
X4.651Y-4.126
X4.657Y-4.867
X4.661Y-4.419
X4.661Y-4.469
X4.677Y-3.977
X4.677Y-5.207
X4.687Y-4.537
X4.687Y-4.607
X4.687Y-4.677
X4.6928Y-4.9213
X4.737Y-3.977
X4.739Y-4.537
X4.747Y-5.207
X4.813Y-4.419
X4.813Y-4.469
X4.817Y-3.977
X4.817Y-4.577
X4.817Y-5.207
X4.8428Y-4.9213
X4.855Y-4.869
X4.877Y-4.367
X4.877Y-4.617
X4.887Y-3.977
X4.887Y-5.097
X4.887Y-5.207
X4.894Y-4.137
X4.894Y-4.197
X4.894Y-4.257
X4.917Y-4.296
X4.917Y-5.157
X4.941Y-4.135
X4.941Y-4.197
X4.954Y-4.579
X4.957Y-3.977
X4.957Y-4.367
X4.957Y-4.817
X4.957Y-5.207
X4.961Y-4.257
X4.967Y-4.627
X4.987Y-4.137
X4.987Y-4.197
X5.001Y-4.767
X5.012Y-4.527
X5.025Y-4.419
X5.025Y-4.323
X5.027Y-3.977
X5.027Y-4.477
X5.027Y-4.823
X5.027Y-4.957
X5.027Y-5.207
X5.0513Y-4.9213
X5.057Y-4.777
X5.063Y-4.567
X5.097Y-5.207
X5.106Y-3.973
X5.107Y-4.524
X5.127Y-5.017
X5.143Y-4.566
X5.167Y-3.977
X5.167Y-5.151
X5.167Y-5.207
X5.177Y-4.687
X5.177Y-4.777
X5.184Y-4.365
X5.217Y-4.977
X5.231Y-4.64
X5.237Y-3.977
X5.237Y-5.097
X5.237Y-5.151
X5.237Y-5.207
X5.244Y-4.138
X5.246Y-4.445
X5.257Y-5.037
X5.265Y-4.604
X5.271Y-4.825
X5.273Y-4.885
X5.307Y-3.977
X5.307Y-4.557
X5.307Y-4.601
X5.307Y-4.645
X5.307Y-5.097
X5.307Y-5.151
X5.307Y-5.207
X5.377Y-3.977
X5.377Y-4.557
X5.377Y-4.601
X5.377Y-5.043
X5.377Y-5.097
X5.377Y-5.151
X5.377Y-5.207
X5.386Y-4.201
X5.387Y-4.299
X5.417Y-4.507
X5.441Y-4.61
X5.447Y-3.977
X5.447Y-4.557
X5.447Y-5.043
X5.447Y-5.097
X5.447Y-5.151
X5.447Y-5.207
X5.517Y-3.977
X5.517Y-4.047
X5.517Y-4.601
X5.517Y-5.043
X5.517Y-5.097
X5.517Y-5.151
X5.517Y-5.207
X5.547Y-4.39
X5.586Y-4.86
X5.587Y-3.977
X5.587Y-4.047
X5.587Y-4.117
X5.587Y-4.187
X5.587Y-4.257
X5.587Y-4.327
X5.587Y-4.677
X5.587Y-4.747
X5.587Y-4.801
X5.587Y-5.043
X5.587Y-5.097
X5.587Y-5.151
X5.587Y-5.207
X5.637Y-4.467
X5.648Y-5.207
X5.657Y-3.977
X5.657Y-4.257
X5.657Y-4.327
X5.657Y-4.677
X5.657Y-4.747
X5.657Y-4.798
X5.677Y-4.502
X5.727Y-4.257
X5.727Y-4.327
X5.797Y-4.257
X5.797Y-4.327
X5.797Y-4.502
X5.861Y-4.467
X5.861Y-4.537
X5.861Y-4.607
X5.861Y-4.677
X5.861Y-4.747
X5.861Y-4.817
X5.861Y-4.887
X5.861Y-4.957
X5.867Y-4.187
X5.867Y-4.257
X5.867Y-4.327
T2
X5.329Y-4.0533
X5.329Y-4.1517
X5.329Y-4.2502
X5.329Y-4.3486
X5.329Y-4.447
X4.476Y-4.0533
X4.476Y-4.1517
X4.476Y-4.2502
X4.476Y-4.3486
X4.476Y-4.447
T3
X5.377Y-4.687
X5.377Y-4.787
X5.377Y-4.887
X5.477Y-4.687
X5.477Y-4.787
X5.477Y-4.887
T4
X5.617Y-4.397
X4.017Y-4.397
X4.117Y-4.397
X4.217Y-4.397
X5.717Y-4.397
X5.817Y-4.397
T5
X4.057Y-4.5819
X4.057Y-4.6819
X4.057Y-4.7819
X4.057Y-4.8819
X5.747Y-4.5819
X5.747Y-4.6819
X5.747Y-4.7819
X5.747Y-4.8819
T6
X4.097Y-5.087
X4.097Y-4.097
X5.747Y-4.097
X5.747Y-5.087
T0
M30
